<svg width="20" height="20" viewBox="0 0 20 20" fill="none" xmlns="http://www.w3.org/2000/svg">
<clipPath id="in-flag-clip">
<rect width="20" height="20" rx="3"/>
</clipPath>
<g clip-path="url(#in-flag-clip)">
<rect width="20" height="6.667" fill="#FF9933"/>
<rect y="6.667" width="20" height="6.666" fill="#FFFFFF"/>
<rect y="13.333" width="20" height="6.667" fill="#138808"/>
<circle cx="10" cy="10" r="2.6" fill="none" stroke="#000080" stroke-width="0.4"/>
<circle cx="10" cy="10" r="0.55" fill="#000080"/>
<g stroke="#000080" stroke-width="0.25">
<line x1="10" y1="10" x2="12.600" y2="10.000"/>
<line x1="10" y1="10" x2="12.511" y2="10.673"/>
<line x1="10" y1="10" x2="12.252" y2="11.300"/>
<line x1="10" y1="10" x2="11.838" y2="11.838"/>
<line x1="10" y1="10" x2="11.300" y2="12.252"/>
<line x1="10" y1="10" x2="10.673" y2="12.511"/>
<line x1="10" y1="10" x2="10.000" y2="12.600"/>
<line x1="10" y1="10" x2="9.327" y2="12.511"/>
<line x1="10" y1="10" x2="8.700" y2="12.252"/>
<line x1="10" y1="10" x2="8.162" y2="11.838"/>
<line x1="10" y1="10" x2="7.748" y2="11.300"/>
<line x1="10" y1="10" x2="7.489" y2="10.673"/>
<line x1="10" y1="10" x2="7.400" y2="10.000"/>
<line x1="10" y1="10" x2="7.489" y2="9.327"/>
<line x1="10" y1="10" x2="7.748" y2="8.700"/>
<line x1="10" y1="10" x2="8.162" y2="8.162"/>
<line x1="10" y1="10" x2="8.700" y2="7.748"/>
<line x1="10" y1="10" x2="9.327" y2="7.489"/>
<line x1="10" y1="10" x2="10.000" y2="7.400"/>
<line x1="10" y1="10" x2="10.673" y2="7.489"/>
<line x1="10" y1="10" x2="11.300" y2="7.748"/>
<line x1="10" y1="10" x2="11.838" y2="8.162"/>
<line x1="10" y1="10" x2="12.252" y2="8.700"/>
<line x1="10" y1="10" x2="12.511" y2="9.327"/>
</g>
</g>
</svg>
