<svg xmlns="http://www.w3.org/2000/svg" viewBox="0 0 256 256"><defs><style>.cls-1{fill:#49021f;}.cls-2{fill:#f36;}</style></defs><title>256</title><g id="Surfaces"><g id="Publishing_Surface" data-name="Publishing Surface"><g id="Outline_no_shadow" data-name="Outline no shadow"><rect class="cls-1" x="8" y="4" width="240" height="234" rx="42.5"/></g></g></g><g id="Outlined_Mnemonics_Logos" data-name="Outlined Mnemonics &amp; Logos"><g id="Id"><path class="cls-2" d="M95.1582,65.21631V167.77319q0,1.61133-1.44873,1.61011H74.228q-1.28981,0-1.2876-1.61011V65.21631q0-1.28686,1.44873-1.28809h19.481A1.13916,1.13916,0,0,1,95.1582,65.21631Z"/><path class="cls-2" d="M152.79639,170.99341a49.88223,49.88223,0,0,1-21.49366-4.50806,34.17219,34.17219,0,0,1-15.05322-13.60449q-5.47559-9.09411-5.47412-22.78149a42.04123,42.04123,0,0,1,5.47412-21.09107,40.1871,40.1871,0,0,1,15.939-15.45605q10.46337-5.796,25.27685-5.7959.80347,0,2.09278.08056,1.28687.08277,3.05908.24146v-31.717c0-.74976.32226-1.127.96631-1.127h20.28564a.854.854,0,0,1,.96631.96582v95.15112q0,2.73962.24121,5.957.24169,3.22228.40283,5.7959a1.66418,1.66418,0,0,1-.96631,1.61011,79.86,79.86,0,0,1-16.26074,4.82983A87.29931,87.29931,0,0,1,152.79639,170.99341Zm9.8208-19.96411V107.07642a15.97072,15.97072,0,0,0-2.65625-.48316,32.10968,32.10968,0,0,0-3.30078-.16089,24.86085,24.86085,0,0,0-11.27,2.57593,22.00524,22.00524,0,0,0-8.45215,7.406q-3.30176,4.83-3.30078,12.719a28.39124,28.39124,0,0,0,1.69043,10.304,19.58772,19.58772,0,0,0,4.5083,7.084,17.16656,17.16656,0,0,0,6.76172,4.02515,26.49038,26.49038,0,0,0,8.2915,1.28784q2.25293,0,4.186-.16089A17.23154,17.23154,0,0,0,162.61719,151.0293Z"/></g></g></svg>