<svg xmlns="http://www.w3.org/2000/svg" viewBox="0 0 240 234"><defs><style>.cls-1{fill:#470137;}.cls-2{fill:#ff61f6;}</style></defs><title>Asset 149</title><g id="Layer_2" data-name="Layer 2"><g id="Surfaces"><g id="UI_UX_Surface" data-name="UI/UX Surface"><g id="Outline_no_shadow" data-name="Outline no shadow"><rect class="cls-1" width="240" height="234" rx="42.5"/></g></g></g><g id="Outlined_Mnemonics_Logos" data-name="Outlined Mnemonics &amp; Logos"><g id="Xd"><path class="cls-2" d="M126.167,61.53833l-29.94629,49.427,32.03907,52.48609a1.65194,1.65194,0,0,1,.16113,1.20727c-.1084.37744-.48291.13971-1.12695.24542H104.43214c-1.61035,0-2.73731-.0567-3.38135-1.13092q-3.22266-6.27868-6.43994-12.47729-3.22266-6.19629-6.84228-12.63867Q84.146,132.22,80.604,125.61621h-.16113q-3.22266,6.44129-6.68164,12.88013-3.46362,6.44128-6.84228,12.79956-3.38087,6.36182-6.92286,12.63843C59.56593,164.90039,58.81349,165,57.74171,165H35.68507c-.42774,0-.66943.16943-.72461-.26074a1.61726,1.61726,0,0,1,.2417-1.127l31.07275-51.0371L36.00685,61.3772q-.48267-.64123-.16114-1.04639a1.17267,1.17267,0,0,1,.96631-.40259H59.51271a3.36127,3.36127,0,0,1,1.44921.2417,2.91644,2.91644,0,0,1,.96583.8855q2.89818,6.44092,6.43994,12.87988,3.53979,6.44129,7.16455,12.719,3.62256,6.279,6.68164,12.719H82.375q3.21827-6.59985,6.52051-12.87988,3.29809-6.27906,6.76172-12.63867,3.4607-6.35815,6.68164-12.63843a2.47806,2.47806,0,0,1,.644-1.04639,2.336,2.336,0,0,1,1.28809-.2417h21.09082a.92269.92269,0,0,1,.80517,1.61011Z"/><path class="cls-2" d="M172.37208,166.99341a49.88218,49.88218,0,0,1-21.49365-4.50806,34.17214,34.17214,0,0,1-15.05322-13.60449q-5.47558-9.09411-5.47413-22.78149a42.04124,42.04124,0,0,1,5.47413-21.09107,40.18713,40.18713,0,0,1,15.939-15.45605q10.46338-5.796,25.27686-5.7959.80346,0,2.09277.08056,1.28687.08277,3.05908.24146v-31.717c0-.74976.32227-1.127.96631-1.127h20.28564a.854.854,0,0,1,.96631.96582v95.15112q0,2.73962.24121,5.957.24171,3.22228.40284,5.7959a1.66419,1.66419,0,0,1-.96631,1.61011,79.86,79.86,0,0,1-16.26074,4.82983A87.29942,87.29942,0,0,1,172.37208,166.99341Zm9.8208-19.96411V103.07642a15.97033,15.97033,0,0,0-2.65625-.48316,32.1094,32.1094,0,0,0-3.30078-.16089,24.86085,24.86085,0,0,0-11.27,2.57593,22.00531,22.00531,0,0,0-8.45215,7.406q-3.30175,4.83-3.30078,12.719a28.39146,28.39146,0,0,0,1.69043,10.304,19.58786,19.58786,0,0,0,4.5083,7.084,17.16663,17.16663,0,0,0,6.76172,4.02515,26.49047,26.49047,0,0,0,8.2915,1.28784q2.25294,0,4.186-.16089A17.23141,17.23141,0,0,0,182.19288,147.0293Z"/></g></g></g></svg>