<svg width="28" height="28" viewBox="0 0 28 28" fill="none" xmlns="http://www.w3.org/2000/svg">
<circle cx="14" cy="14" r="12" fill="#292929"/>
<path d="M14 26C7.38258 26 2 20.6174 2 14C2 7.38258 7.38258 2 14 2C20.6174 2 26 7.38258 26 14C26 20.6174 20.6174 26 14 26ZM14 4.05714C8.51696 4.05714 4.05714 8.51696 4.05714 14C4.05714 19.483 8.51696 23.9429 14 23.9429C19.483 23.9429 23.9429 19.483 23.9429 14C23.9429 8.51696 19.483 4.05714 14 4.05714Z" fill="#292929"/>
<path d="M9 14L19 14" stroke="#F8F8F8" stroke-width="2" stroke-linecap="round"/>
</svg>
