<svg width="25" height="24" viewBox="0 0 25 24" fill="none" xmlns="http://www.w3.org/2000/svg">
<path d="M12.5195 22.5352C6.72929 22.5352 2.01953 17.8254 2.01953 12.0352C2.01953 6.24492 6.72929 1.53516 12.5195 1.53516C18.3098 1.53516 23.0195 6.24492 23.0195 12.0352C23.0195 17.8254 18.3098 22.5352 12.5195 22.5352ZM12.5195 3.33516C7.72187 3.33516 3.81953 7.2375 3.81953 12.0352C3.81953 16.8328 7.72187 20.7352 12.5195 20.7352C17.3172 20.7352 21.2195 16.8328 21.2195 12.0352C21.2195 7.2375 17.3172 3.33516 12.5195 3.33516Z" fill="#292929"/>
<path d="M16.4197 11.1002H13.4197V8.1002C13.4197 7.60332 13.0166 7.2002 12.5197 7.2002C12.0229 7.2002 11.6197 7.60332 11.6197 8.1002V11.1002H8.61973C8.12285 11.1002 7.71973 11.5033 7.71973 12.0002C7.71973 12.4971 8.12285 12.9002 8.61973 12.9002H11.6197V15.9002C11.6197 16.3971 12.0229 16.8002 12.5197 16.8002C13.0166 16.8002 13.4197 16.3971 13.4197 15.9002V12.9002H16.4197C16.9166 12.9002 17.3197 12.4971 17.3197 12.0002C17.3197 11.5033 16.9166 11.1002 16.4197 11.1002Z" fill="#292929"/>
</svg>
