<?xml version="1.0" encoding="UTF-8"?><svg id="Layer_1" xmlns="http://www.w3.org/2000/svg" viewBox="0 0 44 44"><defs><style>.cls-1{fill:none;}.cls-1,.cls-2{stroke-width:0px;}.cls-2{fill:#828282;}</style></defs><path class="cls-2" d="m32.31,26.12h-1.38c-.38,0-.69.31-.69.69v3.44H13.75v-3.44c0-.38-.31-.69-.69-.69h-1.38c-.38,0-.69.31-.69.69v5.5c0,.38.31.69.69.69h20.62c.38,0,.69-.31.69-.69v-5.5c0-.38-.31-.69-.69-.69Z"/><path class="cls-2" d="m21.76,28.09c.13.13.35.13.48,0l5.12-5.17c.09-.1.14-.23.14-.36,0-.3-.25-.55-.55-.55h-3.58v-10.32c0-.38-.31-.69-.69-.69h-1.38c-.38,0-.69.31-.69.69v10.31h-3.57c-.3,0-.55.25-.55.55,0,.13.05.26.14.36l5.12,5.18Z"/><rect class="cls-1" width="44" height="44"/></svg>