<?xml version="1.0" encoding="utf-8"?>
<svg version="1.1" xmlns="http://www.w3.org/2000/svg" xmlns:xlink="http://www.w3.org/1999/xlink">

<symbol id="play" viewBox="0 0 16 16">
  <path fill="currentcolor" d="M4.73,2H3.5a.5.5,0,0,0-.5.5v13a.5.5,0,0,0,.5.5H4.73a1,1,0,0,0,.5035-.136l11.032-6.433a.5.5,0,0,0,0-.862L5.2335,2.136A1,1,0,0,0,4.73,2Z" />
</symbol>

<symbol id="play-circle" viewBox="0 0 16 16">
  <path fill="currentcolor" d="M9,1a8,8,0,1,0,8,8A8,8,0,0,0,9,1Zm4.2685,8.43L7.255,12.93A.50009.50009,0,0,1,7,13H6.5a.5.5,0,0,1-.5-.5v-7A.5.5,0,0,1,6.5,5H7a.50009.50009,0,0,1,.255.07l6.0135,3.5a.5.5,0,0,1,0,.86Z" />
</symbol>

</svg>
