<?xml version="1.0" encoding="utf-8"?>
<svg version="1.1" xmlns="http://www.w3.org/2000/svg">

  <symbol id="call-center" viewBox="0 0 18 18">
    <path fill="currentcolor" d="M15.5455,7H14.818A5.9115,5.9115,0,0,0,9,1,5.9115,5.9115,0,0,0,3.182,7H2.4545A1.478,1.478,0,0,0,1,8.5v3A1.478,1.478,0,0,0,2.4545,13h2.182V7H4.6A4.47051,4.47051,0,0,1,9,2.4625,4.47051,4.47051,0,0,1,13.4,7h-.0365v5.669a5.09151,5.09151,0,0,1-3.1055,2.4A1.55753,1.55753,0,0,0,9,14.5a1.32171,1.32171,0,0,0-1.4545,1.125A1.32171,1.32171,0,0,0,9,16.75a1.394,1.394,0,0,0,1.4295-.9345A5.841,5.841,0,0,0,14.0275,13h1.518A1.478,1.478,0,0,0,17,11.5v-3A1.478,1.478,0,0,0,15.5455,7Z" />
  </symbol>

  <symbol id="play" viewBox="0 0 18 18">
    <path fill="currentcolor" d="M4.73,2H3.5a.5.5,0,0,0-.5.5v13a.5.5,0,0,0,.5.5H4.73a1,1,0,0,0,.5035-.136l11.032-6.433a.5.5,0,0,0,0-.862L5.2335,2.136A1,1,0,0,0,4.73,2Z" />
  </symbol>

  <symbol id="play-circle" viewBox="0 0 18 18">
    <path fill="currentcolor" d="M9,1a8,8,0,1,0,8,8A8,8,0,0,0,9,1Zm4.2685,8.43L7.255,12.93A.50009.50009,0,0,1,7,13H6.5a.5.5,0,0,1-.5-.5v-7A.5.5,0,0,1,6.5,5H7a.50009.50009,0,0,1,.255.07l6.0135,3.5a.5.5,0,0,1,0,.86Z" />
  </symbol>
  <symbol id="results" viewBox="0 0 18 18">
    <rect id="Canvas" fill="currentcolor" opacity="0"/>
    <path fill="currentcolor" d="M13,1.5V15h3V1.5a.5.5,0,0,0-.5-.5h-2A.5.5,0,0,0,13,1.5Z" />
    <path fill="currentcolor" d="M9,6.5V15h3V6.5a.5.5,0,0,0-.5-.5h-2A.5.5,0,0,0,9,6.5Z" />
    <path fill="currentcolor" d="M5,10.5V15H8V10.5a.5.5,0,0,0-.5-.5h-2A.5.5,0,0,0,5,10.5Z" />
    <path fill="currentcolor" d="M1,12.5V15H4V12.5a.5.5,0,0,0-.5-.5h-2A.5.5,0,0,0,1,12.5Z" />
    <rect fill="currentcolor" rx="0.25" y="16" />
  </symbol>

  <symbol id="objectives" viewBox="0 0 18 18">
    <rect id="Canvas" fill="currentcolor" opacity="0" width="18" height="18" />
    <path fill="currentcolor" d="M1,1.5v14a.5.5,0,0,0,.5.5h15a.5.5,0,0,0,.5-.5V1.5a.5.5,0,0,0-.5-.5H1.5A.5.5,0,0,0,1,1.5ZM16,15H2V2H16Z" />
    <path fill="currentcolor" d="M4.775,7.9585a.5.5,0,0,1-.3395-.133L3.397,6.867a.50015.50015,0,1,1,.6785-.735l.6555.6055L6.871,4.218a.50079.50079,0,1,1,.762.65L5.156,7.7845a.5.5,0,0,1-.35.1755Z" />
    <path fill="currentcolor" d="M4.775,12.9585a.5.5,0,0,1-.3395-.133L3.397,11.867a.50015.50015,0,0,1,.6785-.735l.6555.6055L6.871,9.218a.50079.50079,0,1,1,.762.65L5.156,12.7845a.5.5,0,0,1-.35.1755Z" />
    <rect fill="currentcolor" height="2" rx="0.25" width="5" x="9" y="5" />
    <rect fill="currentcolor" height="2" rx="0.25" width="5" x="9" y="10" />
  </symbol>

  <symbol id="chat" viewBox="0 0 18 18">
    <rect id="Canvas" fill="currentcolor" opacity="0" width="18" height="18" />
    <path id="Path_13" data-name="Path 13" d="M12.84,9.881v7a.269.269,0,0,1-.269.269H6.759a.268.268,0,0,0-.191.079l-1.8,1.805V17.416a.269.269,0,0,0-.269-.269H2.884a.269.269,0,0,1-.269-.269v-7a.269.269,0,0,1,.269-.269h9.688A.269.269,0,0,1,12.84,9.881Zm-.015-1.852H2.615A1.615,1.615,0,0,0,1,9.644v7.5a1.615,1.615,0,0,0,1.615,1.615h.538v2.906a.377.377,0,0,0,.63.279l3.5-3.185h5.573a1.582,1.582,0,0,0,1.582-1.583V9.644A1.615,1.615,0,0,0,12.825,8.029Z" transform="translate(0.088 0.791)"/>
    <path id="Path_14" data-name="Path 14" d="M15.583,9.227a2.422,2.422,0,0,0-2.422-2.422H7.506V4.115A1.615,1.615,0,0,1,9.121,2.5h11.3a1.615,1.615,0,0,1,1.615,1.615v7.535a1.615,1.615,0,0,1-1.615,1.615H18.8v2.959a.269.269,0,0,1-.455.195L15.583,13.8Z" transform="translate(0.585 0.369)"/>
  </symbol>

  <symbol id="checkmark" viewBox="0 0 18 18">
    <path fill="currentcolor" d="M15.656,3.8625l-.7275-.5665a.5.5,0,0,0-.7.0875L7.411,12.1415,4.0875,8.8355a.5.5,0,0,0-.707,0L2.718,9.5a.5.5,0,0,0,0,.707l4.463,4.45a.5.5,0,0,0,.75-.0465L15.7435,4.564A.5.5,0,0,0,15.656,3.8625Z" />
  </symbol>

  <symbol id="facebook" viewBox="0 0 18 18">
    <title>Facebook</title>
    <desc>Facebook Logo</desc>
    <path d="M10.5,18V9.8h3l0.4-3.2h-3.4v-2c0-0.9,0.3-1.6,1.7-1.6H14V0.1C13.1,0,12.2,0,11.3,0C8.7,0,6.9,1.5,6.9,4.2v2.4
	H4v3.2h3V18H10.5L10.5,18z"/>
  </symbol>

  <symbol id="linkedin" viewBox="0 0 17 17.1">
    <title>LinkedIn</title>
    <desc>LinkedIn Logo</desc>
    <path d="M3.7,16.3H0.4V5.7h3.3V16.3z M2,4.4L2,4.4C1,4.5,0.1,3.7,0,2.7c0-0.1,0-0.1,0-0.2c0-1,0.8-1.9,1.9-1.8c0,0,0.1,0,0.1,0
	c1-0.1,1.9,0.6,2,1.6c0.1,1-0.6,1.9-1.6,2C2.3,4.4,2.1,4.4,2,4.4z M17,16.3h-3.8v-5.5c0-1.4-0.6-2.4-1.9-2.4c-0.8,0-1.5,0.5-1.8,1.3
	c-0.1,0.3-0.1,0.6-0.1,0.9v5.7H5.8c0,0,0-9.7,0-10.6h3.7v1.7c0.7-1.2,2-1.9,3.3-1.8c2.4,0,4.2,1.5,4.2,4.8V16.3z"/>
  </symbol>

  <symbol id="twitter" viewBox="0 0 17.2 17.2">
    <title>Twitter</title>
    <desc>Twitter Logo</desc>
    <path d="M17.2,3.3L17.2,3.3 M11.9,1.6c-2,0-3.5,1.6-3.5,3.5c0,0.3,0,0.5,0.1,0.8C5.6,5.8,3,4.5,1.2,2.3C0.3,3.9,0.7,6,2.3,7
	C1.7,7,1.2,6.8,0.7,6.6c0,0,0,0,0,0c0,1.7,1.2,3.1,2.8,3.5c-0.3,0.1-0.6,0.1-0.9,0.1c-0.2,0-0.4,0-0.7-0.1c0.5,1.4,1.8,2.4,3.3,2.5
	c-1.3,1-2.8,1.5-4.4,1.5c-0.3,0-0.6,0-0.8,0c4.7,3,10.9,1.6,13.9-3c1-1.6,1.6-3.5,1.6-5.4c0-0.2,0-0.3,0-0.5
	c0.7-0.5,1.3-1.1,1.8-1.8c-0.6,0.3-1.3,0.5-2,0.6c0.7-0.4,1.3-1.1,1.6-2c-0.7,0.4-1.5,0.7-2.2,0.9C13.8,2,12.9,1.6,11.9,1.6"/>
  </symbol>

  <symbol id="link" viewBox="0 0 22 22">
    <title>Copy</title>
    <desc>Copy to Clipboard</desc>
    <path d="M11,0C4.9,0,0,4.9,0,11s4.9,11,11,11s11-5,11-11S17,0,11,0z M11.9,16.8l-0.8,0.8c-1.9,1.6-4.6,1.5-6.4-0.3
    c-1.5-1.8-1.5-4.3,0-6.1L6.9,9c1.8-1.8,4.6-1.8,6.4,0c0.3,0.3,0.3,1,0,1.3s-1,0.3-1.3,0l0,0c-1-1-2.6-1-3.6,0l0,0l-2.2,2.2
    c-1,1.1-0.9,2.8,0.2,3.7c1,0.9,2.5,0.9,3.5,0l0.7-0.7c0.3-0.3,1-0.3,1.3,0S12.2,16.5,11.9,16.8z M17.6,11.1l-2.2,2.2
    c-1.8,1.8-4.6,1.8-6.4,0l0,0c-0.3-0.3-0.3-1,0-1.3s1-0.3,1.3,0l0,0c1,1,2.6,1,3.7,0l2.2-2.2c1-1.1,0.9-2.8-0.2-3.7
    c-1-0.9-2.5-0.9-3.5,0l-0.7,0.8c-0.3,0.3-1,0.3-1.3,0c-0.3-0.3-0.3-1,0-1.3l0,0l0.7-0.8C13,3,15.8,3,17.6,4.7S19.4,9.4,17.6,11.1
    L17.6,11.1z"/>
  </symbol>

  <symbol id="info" viewBox="0 0 18 18">
    <path d="M10 18C14.1421 18 17.5 14.6421 17.5 10.5C17.5 6.35786 14.1421 3 10 3C5.85786 3 2.5 6.35786 2.5 10.5C2.5 14.6421 5.85786 18 10 18Z" stroke="currentcolor" stroke-width="2" stroke-linecap="round" stroke-linejoin="round"/>
  </symbol>
</svg>
