<?xml version="1.0" encoding="utf-8"?>
<svg version="1.1" xmlns="http://www.w3.org/2000/svg">

  <symbol id="call-center" viewBox="0 0 18 18">
    <path fill="currentcolor" d="M15.5455,7H14.818A5.9115,5.9115,0,0,0,9,1,5.9115,5.9115,0,0,0,3.182,7H2.4545A1.478,1.478,0,0,0,1,8.5v3A1.478,1.478,0,0,0,2.4545,13h2.182V7H4.6A4.47051,4.47051,0,0,1,9,2.4625,4.47051,4.47051,0,0,1,13.4,7h-.0365v5.669a5.09151,5.09151,0,0,1-3.1055,2.4A1.55753,1.55753,0,0,0,9,14.5a1.32171,1.32171,0,0,0-1.4545,1.125A1.32171,1.32171,0,0,0,9,16.75a1.394,1.394,0,0,0,1.4295-.9345A5.841,5.841,0,0,0,14.0275,13h1.518A1.478,1.478,0,0,0,17,11.5v-3A1.478,1.478,0,0,0,15.5455,7Z" />
  </symbol>

  <symbol id="play" viewBox="0 0 18 18">
    <path fill="currentcolor" d="M4.73,2H3.5a.5.5,0,0,0-.5.5v13a.5.5,0,0,0,.5.5H4.73a1,1,0,0,0,.5035-.136l11.032-6.433a.5.5,0,0,0,0-.862L5.2335,2.136A1,1,0,0,0,4.73,2Z" />
  </symbol>

  <symbol id="play-circle" viewBox="0 0 18 18">
    <path fill="currentcolor" d="M9,1a8,8,0,1,0,8,8A8,8,0,0,0,9,1Zm4.2685,8.43L7.255,12.93A.50009.50009,0,0,1,7,13H6.5a.5.5,0,0,1-.5-.5v-7A.5.5,0,0,1,6.5,5H7a.50009.50009,0,0,1,.255.07l6.0135,3.5a.5.5,0,0,1,0,.86Z" />
  </symbol>
  <symbol id="results" viewBox="0 0 18 18">
    <rect id="Canvas" fill="currentcolor" opacity="0"/>
    <path fill="currentcolor" d="M13,1.5V15h3V1.5a.5.5,0,0,0-.5-.5h-2A.5.5,0,0,0,13,1.5Z" />
    <path fill="currentcolor" d="M9,6.5V15h3V6.5a.5.5,0,0,0-.5-.5h-2A.5.5,0,0,0,9,6.5Z" />
    <path fill="currentcolor" d="M5,10.5V15H8V10.5a.5.5,0,0,0-.5-.5h-2A.5.5,0,0,0,5,10.5Z" />
    <path fill="currentcolor" d="M1,12.5V15H4V12.5a.5.5,0,0,0-.5-.5h-2A.5.5,0,0,0,1,12.5Z" />
    <rect fill="currentcolor" rx="0.25" y="16" />
  </symbol>

  <symbol id="objectives" viewBox="0 0 18 18">
    <rect id="Canvas" fill="currentcolor" opacity="0" width="18" height="18" />
    <path fill="currentcolor" d="M1,1.5v14a.5.5,0,0,0,.5.5h15a.5.5,0,0,0,.5-.5V1.5a.5.5,0,0,0-.5-.5H1.5A.5.5,0,0,0,1,1.5ZM16,15H2V2H16Z" />
    <path fill="currentcolor" d="M4.775,7.9585a.5.5,0,0,1-.3395-.133L3.397,6.867a.50015.50015,0,1,1,.6785-.735l.6555.6055L6.871,4.218a.50079.50079,0,1,1,.762.65L5.156,7.7845a.5.5,0,0,1-.35.1755Z" />
    <path fill="currentcolor" d="M4.775,12.9585a.5.5,0,0,1-.3395-.133L3.397,11.867a.50015.50015,0,0,1,.6785-.735l.6555.6055L6.871,9.218a.50079.50079,0,1,1,.762.65L5.156,12.7845a.5.5,0,0,1-.35.1755Z" />
    <rect fill="currentcolor" height="2" rx="0.25" width="5" x="9" y="5" />
    <rect fill="currentcolor" height="2" rx="0.25" width="5" x="9" y="10" />    
  </symbol>
</svg>
