<?xml version="1.0" encoding="utf-8"?>
<svg version="1.1" xmlns="http://www.w3.org/2000/svg">

  <symbol id="arrow-down" viewBox="0 0 18 18">
    <path fill="currentcolor" d="M12,10V1.5a.5.5,0,0,0-.5-.5h-5a.5.5,0,0,0-.5.5V10H2.5035a.25.25,0,0,0-.177.427L9,17.1l6.673-6.673A.25.25,0,0,0,15.4965,10Z" />
  </symbol>

  <symbol id="call-center" viewBox="0 0 18 18">
    <path fill="currentcolor" d="M15.5455,7H14.818A5.9115,5.9115,0,0,0,9,1,5.9115,5.9115,0,0,0,3.182,7H2.4545A1.478,1.478,0,0,0,1,8.5v3A1.478,1.478,0,0,0,2.4545,13h2.182V7H4.6A4.47051,4.47051,0,0,1,9,2.4625,4.47051,4.47051,0,0,1,13.4,7h-.0365v5.669a5.09151,5.09151,0,0,1-3.1055,2.4A1.55753,1.55753,0,0,0,9,14.5a1.32171,1.32171,0,0,0-1.4545,1.125A1.32171,1.32171,0,0,0,9,16.75a1.394,1.394,0,0,0,1.4295-.9345A5.841,5.841,0,0,0,14.0275,13h1.518A1.478,1.478,0,0,0,17,11.5v-3A1.478,1.478,0,0,0,15.5455,7Z" />
  </symbol>

  <symbol id="play" viewBox="0 0 18 18">
    <path fill="currentcolor" d="M4.73,2H3.5a.5.5,0,0,0-.5.5v13a.5.5,0,0,0,.5.5H4.73a1,1,0,0,0,.5035-.136l11.032-6.433a.5.5,0,0,0,0-.862L5.2335,2.136A1,1,0,0,0,4.73,2Z" />
  </symbol>

  <symbol id="play-circle" viewBox="0 0 18 18">
    <path fill="currentcolor" d="M9,1a8,8,0,1,0,8,8A8,8,0,0,0,9,1Zm4.2685,8.43L7.255,12.93A.50009.50009,0,0,1,7,13H6.5a.5.5,0,0,1-.5-.5v-7A.5.5,0,0,1,6.5,5H7a.50009.50009,0,0,1,.255.07l6.0135,3.5a.5.5,0,0,1,0,.86Z" />
  </symbol>
  
  <symbol id="results" viewBox="0 0 18 18">
    <rect id="Canvas" fill="currentcolor" opacity="0"/>
    <path fill="currentcolor" d="M13,1.5V15h3V1.5a.5.5,0,0,0-.5-.5h-2A.5.5,0,0,0,13,1.5Z" />
    <path fill="currentcolor" d="M9,6.5V15h3V6.5a.5.5,0,0,0-.5-.5h-2A.5.5,0,0,0,9,6.5Z" />
    <path fill="currentcolor" d="M5,10.5V15H8V10.5a.5.5,0,0,0-.5-.5h-2A.5.5,0,0,0,5,10.5Z" />
    <path fill="currentcolor" d="M1,12.5V15H4V12.5a.5.5,0,0,0-.5-.5h-2A.5.5,0,0,0,1,12.5Z" />
    <rect fill="currentcolor" rx="0.25" y="16" />
  </symbol>

  <symbol id="objectives" viewBox="0 0 18 18">
    <rect id="Canvas" fill="currentcolor" opacity="0" width="18" height="18" />
    <path fill="currentcolor" d="M1,1.5v14a.5.5,0,0,0,.5.5h15a.5.5,0,0,0,.5-.5V1.5a.5.5,0,0,0-.5-.5H1.5A.5.5,0,0,0,1,1.5ZM16,15H2V2H16Z" />
    <path fill="currentcolor" d="M4.775,7.9585a.5.5,0,0,1-.3395-.133L3.397,6.867a.50015.50015,0,1,1,.6785-.735l.6555.6055L6.871,4.218a.50079.50079,0,1,1,.762.65L5.156,7.7845a.5.5,0,0,1-.35.1755Z" />
    <path fill="currentcolor" d="M4.775,12.9585a.5.5,0,0,1-.3395-.133L3.397,11.867a.50015.50015,0,0,1,.6785-.735l.6555.6055L6.871,9.218a.50079.50079,0,1,1,.762.65L5.156,12.7845a.5.5,0,0,1-.35.1755Z" />
    <rect fill="currentcolor" height="2" rx="0.25" width="5" x="9" y="5" />
    <rect fill="currentcolor" height="2" rx="0.25" width="5" x="9" y="10" />
  </symbol>

  <symbol id="chat" viewBox="0 0 18 18">
    <rect id="Canvas" fill="currentcolor" opacity="0" width="18" height="18" />
    <path fill="currentcolor"
      id="Path_13" data-name="Path 13" d="M12.84,9.881v7a.269.269,0,0,1-.269.269H6.759a.268.268,0,0,0-.191.079l-1.8,1.805V17.416a.269.269,0,0,0-.269-.269H2.884a.269.269,0,0,1-.269-.269v-7a.269.269,0,0,1,.269-.269h9.688A.269.269,0,0,1,12.84,9.881Zm-.015-1.852H2.615A1.615,1.615,0,0,0,1,9.644v7.5a1.615,1.615,0,0,0,1.615,1.615h.538v2.906a.377.377,0,0,0,.63.279l3.5-3.185h5.573a1.582,1.582,0,0,0,1.582-1.583V9.644A1.615,1.615,0,0,0,12.825,8.029Z" transform="translate(0.088 0.791)"/>
    <path fill="currentcolor"
      id="Path_14" data-name="Path 14" d="M15.583,9.227a2.422,2.422,0,0,0-2.422-2.422H7.506V4.115A1.615,1.615,0,0,1,9.121,2.5h11.3a1.615,1.615,0,0,1,1.615,1.615v7.535a1.615,1.615,0,0,1-1.615,1.615H18.8v2.959a.269.269,0,0,1-.455.195L15.583,13.8Z" transform="translate(0.585 0.369)"/>
  </symbol>

  <symbol id="checkmark" viewBox="0 0 18 18">
    <path fill="currentcolor" d="M15.656,3.8625l-.7275-.5665a.5.5,0,0,0-.7.0875L7.411,12.1415,4.0875,8.8355a.5.5,0,0,0-.707,0L2.718,9.5a.5.5,0,0,0,0,.707l4.463,4.45a.5.5,0,0,0,.75-.0465L15.7435,4.564A.5.5,0,0,0,15.656,3.8625Z" />
  </symbol>
  
  <symbol id="checkmark-circle" viewBox="0 0 18 18">
    <path fill="currentcolor" d="M9,0C4,0,0,4,0,9c0,5,4,9,9,9c1.5,0,3-0.4,4.3-1.1C16.2,15.4,18,12.3,18,9C18,4,14,0,9,0z
	 M9,16.9c-4.3,0-7.9-3.5-7.9-7.9S4.7,1.1,9,1.1s7.9,3.5,7.9,7.9l0,0C16.9,13.3,13.3,16.9,9,16.9z M14.1,5.9l-6.2,7.9
	c-0.2,0.2-0.5,0.3-0.8,0.1c0,0,0,0-0.1,0l-3.5-3.5c-0.2-0.2-0.2-0.6,0-0.8l0.7-0.7c0.2-0.2,0.6-0.2,0.8,0c0,0,0,0,0,0L7.3,11l5-6.4
	c0.2-0.2,0.5-0.3,0.8-0.1c0,0,0,0,0,0l0,0L14,5.1C14.2,5.3,14.3,5.7,14.1,5.9L14.1,5.9z" />
  </symbol>

  <symbol id="facebook" viewBox="0 0 18 18">
    <title>Facebook</title>
    <desc>Facebook Logo</desc>
    <path fill="currentcolor" d="M10.5,18V9.8h3l0.4-3.2h-3.4v-2c0-0.9,0.3-1.6,1.7-1.6H14V0.1C13.1,0,12.2,0,11.3,0C8.7,0,6.9,1.5,6.9,4.2v2.4
	H4v3.2h3V18H10.5L10.5,18z"/>
  </symbol>

  <symbol id="linkedin" viewBox="0 0 17 17.1">
    <title>LinkedIn</title>
    <desc>LinkedIn Logo</desc>
    <path fill="currentcolor"
      d="M3.7,16.3H0.4V5.7h3.3V16.3z M2,4.4L2,4.4C1,4.5,0.1,3.7,0,2.7c0-0.1,0-0.1,0-0.2c0-1,0.8-1.9,1.9-1.8c0,0,0.1,0,0.1,0
	c1-0.1,1.9,0.6,2,1.6c0.1,1-0.6,1.9-1.6,2C2.3,4.4,2.1,4.4,2,4.4z M17,16.3h-3.8v-5.5c0-1.4-0.6-2.4-1.9-2.4c-0.8,0-1.5,0.5-1.8,1.3
	c-0.1,0.3-0.1,0.6-0.1,0.9v5.7H5.8c0,0,0-9.7,0-10.6h3.7v1.7c0.7-1.2,2-1.9,3.3-1.8c2.4,0,4.2,1.5,4.2,4.8V16.3z"/>
  </symbol>

  <symbol id="twitter" viewBox="0 0 17.2 17.2">
    <title>Twitter</title>
    <desc>Twitter Logo</desc>
    <path fill="currentcolor" d="M17.2,3.3L17.2,3.3 M11.9,1.6c-2,0-3.5,1.6-3.5,3.5c0,0.3,0,0.5,0.1,0.8C5.6,5.8,3,4.5,1.2,2.3C0.3,3.9,0.7,6,2.3,7
	C1.7,7,1.2,6.8,0.7,6.6c0,0,0,0,0,0c0,1.7,1.2,3.1,2.8,3.5c-0.3,0.1-0.6,0.1-0.9,0.1c-0.2,0-0.4,0-0.7-0.1c0.5,1.4,1.8,2.4,3.3,2.5
	c-1.3,1-2.8,1.5-4.4,1.5c-0.3,0-0.6,0-0.8,0c4.7,3,10.9,1.6,13.9-3c1-1.6,1.6-3.5,1.6-5.4c0-0.2,0-0.3,0-0.5
	c0.7-0.5,1.3-1.1,1.8-1.8c-0.6,0.3-1.3,0.5-2,0.6c0.7-0.4,1.3-1.1,1.6-2c-0.7,0.4-1.5,0.7-2.2,0.9C13.8,2,12.9,1.6,11.9,1.6"/>
  </symbol>

  <symbol id="instagram" viewBox="0 0 20.503 20.503">
    <title>Instagram</title>
    <desc>Instagram Logo</desc>
    <path fill="currentcolor"
      d="M10.251,1.847c2.737,0,3.061.01,4.142.06a5.674,5.674,0,0,1,1.9.353,3.177,3.177,0,0,1,1.179.767,3.176,3.176,0,0,1,.767,1.179,5.673,5.673,0,0,1,.353,1.9c.049,1.081.06,1.405.06,4.142s-.01,3.061-.06,4.142a5.673,5.673,0,0,1-.353,1.9A3.395,3.395,0,0,1,16.3,18.243a5.673,5.673,0,0,1-1.9.353c-1.081.049-1.4.06-4.142.06s-3.062-.01-4.142-.06a5.672,5.672,0,0,1-1.9-.353,3.176,3.176,0,0,1-1.179-.767A3.176,3.176,0,0,1,2.26,16.3a5.673,5.673,0,0,1-.353-1.9c-.049-1.081-.06-1.405-.06-4.142s.01-3.061.06-4.142a5.673,5.673,0,0,1,.353-1.9,3.176,3.176,0,0,1,.767-1.179A3.176,3.176,0,0,1,4.205,2.26a5.674,5.674,0,0,1,1.9-.353c1.081-.049,1.405-.06,4.142-.06m0-1.847C7.467,0,7.118.012,6.025.062A7.525,7.525,0,0,0,3.536.538,5.025,5.025,0,0,0,1.721,1.721,5.025,5.025,0,0,0,.538,3.536,7.525,7.525,0,0,0,.062,6.025C.012,7.118,0,7.467,0,10.251s.012,3.133.062,4.227a7.525,7.525,0,0,0,.477,2.488,5.025,5.025,0,0,0,1.182,1.816,5.025,5.025,0,0,0,1.816,1.182,7.525,7.525,0,0,0,2.488.477c1.093.05,1.442.062,4.227.062s3.133-.012,4.227-.062a7.525,7.525,0,0,0,2.488-.477,5.242,5.242,0,0,0,3-3,7.524,7.524,0,0,0,.477-2.488c.05-1.093.062-1.442.062-4.227s-.012-3.133-.062-4.227a7.525,7.525,0,0,0-.477-2.488,5.025,5.025,0,0,0-1.182-1.816A5.025,5.025,0,0,0,16.966.538,7.525,7.525,0,0,0,14.478.062C13.385.012,13.035,0,10.251,0Zm0,4.987a5.264,5.264,0,1,0,5.264,5.264A5.264,5.264,0,0,0,10.251,4.987Zm0,8.681a3.417,3.417,0,1,1,3.417-3.417A3.417,3.417,0,0,1,10.251,13.668Zm6.7-8.889a1.23,1.23,0,1,1-1.23-1.23A1.23,1.23,0,0,1,16.954,4.779Z"/>
  </symbol>

  <symbol id="tiktok" viewBox="0 0 17.151 20">
    <title>Tiktok</title>
    <desc>Tiktok Logo</desc>
    <path fill="currentcolor"
      d="M13.074,0c.33,2.838,1.914,4.53,4.668,4.71V7.9a7.3,7.3,0,0,1-4.62-1.35v5.97c0,7.584-8.268,9.954-11.592,4.518C-.606,13.542.7,7.4,7.554,7.158v3.366a9.914,9.914,0,0,0-1.59.39A2.713,2.713,0,0,0,3.816,14.1c.462,3.264,6.45,4.23,5.952-2.148V.006h3.306Z"/>
  </symbol>

  <symbol id="link" viewBox="0 0 22 22">
    <title>Copy</title>
    <desc>Copy to Clipboard</desc>
    <path fill="currentcolor"
      d="M11,0C4.9,0,0,4.9,0,11s4.9,11,11,11s11-5,11-11S17,0,11,0z M11.9,16.8l-0.8,0.8c-1.9,1.6-4.6,1.5-6.4-0.3
    c-1.5-1.8-1.5-4.3,0-6.1L6.9,9c1.8-1.8,4.6-1.8,6.4,0c0.3,0.3,0.3,1,0,1.3s-1,0.3-1.3,0l0,0c-1-1-2.6-1-3.6,0l0,0l-2.2,2.2
    c-1,1.1-0.9,2.8,0.2,3.7c1,0.9,2.5,0.9,3.5,0l0.7-0.7c0.3-0.3,1-0.3,1.3,0S12.2,16.5,11.9,16.8z M17.6,11.1l-2.2,2.2
    c-1.8,1.8-4.6,1.8-6.4,0l0,0c-0.3-0.3-0.3-1,0-1.3s1-0.3,1.3,0l0,0c1,1,2.6,1,3.7,0l2.2-2.2c1-1.1,0.9-2.8-0.2-3.7
    c-1-0.9-2.5-0.9-3.5,0l-0.7,0.8c-0.3,0.3-1,0.3-1.3,0c-0.3-0.3-0.3-1,0-1.3l0,0l0.7-0.8C13,3,15.8,3,17.6,4.7S19.4,9.4,17.6,11.1
    L17.6,11.1z"/>
  </symbol>

  <symbol id="info" viewBox="0 0 18 18">
    <path fill="currentcolor"
      d="M10.075,6A1.075,1.075,0,1,1,9,4.925H9A1.075,1.075,0,0,1,10.075,6Zm.09173,6H10V8.2A.20005.20005,0,0,0,9.8,8H7.83324S7.25,8.01612,7.25,8.5c0,.48365.58325.5.58325.5H8v3H7.83325s-.58325.01612-.58325.5c0,.48365.58325.5.58325.5h2.3335s.58325-.01635.58325-.5C10.75,12.01612,10.16673,12,10.16673,12ZM9,.5A8.5,8.5,0,1,0,17.5,9,8.5,8.5,0,0,0,9,.5ZM9,15.6748A6.67481,6.67481,0,1,1,15.67484,9,6.67481,6.67481,0,0,1,9,15.6748Z" />
  </symbol>

  <symbol id="device-phone" viewBox="0 0 18 18">
    <title>Device Phone</title>
     <path fill="currentcolor" d="M13,0H5A1,1,0,0,0,4,1V17a1,1,0,0,0,1,1h8a1,1,0,0,0,1-1V1A1,1,0,0,0,13,0ZM8.5,1h1a.5205.5205,0,0,1,.5.5.52.52,0,0,1-.5.5h-1A.5115.5115,0,0,1,8,1.5.512.512,0,0,1,8.5,1ZM9,17.55a1.05,1.05,0,1,1,1.05-1.05A1.05,1.05,0,0,1,9,17.55ZM13,15H5V3h8Z" />
  </symbol>

</svg>
