<svg width="85" height="85" viewBox="0 0 85 85" fill="none" xmlns="http://www.w3.org/2000/svg">
<foreignObject x="-47.533" y="-47.5332" width="170" height="170"><div xmlns="http://www.w3.org/1999/xhtml" style="backdrop-filter:blur(30px);clip-path:url(#bgblur_0_22442_140556_clip_path);height:100%;width:100%"></div></foreignObject><g filter="url(#filter0_d_22442_140556)" data-figma-bg-blur-radius="60">
<rect x="12.467" y="12.4668" width="50" height="50" rx="8.4" fill="white"/>
<rect x="12.9363" y="12.9361" width="49.0614" height="49.0614" rx="7.9307" stroke="white" stroke-opacity="0.1" stroke-width="0.938609"/>
<path d="M49.084 34.9635C49.6994 33.0841 49.4875 31.0253 48.5034 29.3158C47.0234 26.6937 44.0483 25.3447 41.1427 25.9795C39.8501 24.4977 37.9929 23.655 36.046 23.6671C33.0759 23.6602 30.4407 25.6061 29.5269 28.4817C27.6189 28.8793 25.972 30.0946 25.0083 31.8171C23.5173 34.4322 23.8572 37.7288 25.8491 39.9713C25.2337 41.8507 25.4456 43.9096 26.4297 45.6191C27.9097 48.2411 30.8848 49.5901 33.7904 48.9553C35.0822 50.4371 36.9402 51.2798 38.8872 51.2668C41.8589 51.2746 44.495 49.327 45.4087 46.4488C47.3167 46.0512 48.9636 44.8359 49.9274 43.1135C51.4166 40.4983 51.0759 37.2043 49.0849 34.9618L49.084 34.9635ZM38.8889 49.4633C37.6997 49.465 36.5477 49.0416 35.6349 48.2661C35.6764 48.2437 35.7484 48.2032 35.7951 48.1739L41.1961 44.9998C41.4724 44.8402 41.6419 44.5409 41.6402 44.2175V36.4695L43.9229 37.8107C43.9474 37.8228 43.9635 37.8469 43.9669 37.8745V44.2908C43.9635 47.144 41.6928 49.4573 38.8889 49.4633ZM27.9682 44.7169C27.3723 43.6698 27.1578 42.4424 27.3621 41.2513C27.4019 41.2754 27.4723 41.3194 27.5223 41.3487L32.9233 44.5228C33.1971 44.6858 33.5362 44.6858 33.8108 44.5228L40.4044 40.6484V43.3308C40.4061 43.3584 40.3934 43.3852 40.3722 43.4024L34.9127 46.6101C32.4809 48.035 29.3752 47.188 27.969 44.7169H27.9682ZM26.5467 32.7201C27.14 31.6713 28.0767 30.8691 29.1921 30.4526C29.1921 30.5 29.1896 30.5837 29.1896 30.6423V36.9913C29.1879 37.3139 29.3574 37.6132 29.6329 37.7727L36.2265 41.6463L33.9439 42.9875C33.921 43.0031 33.8922 43.0056 33.8667 42.9944L28.4064 39.7841C25.9796 38.3541 25.1473 35.1947 26.5459 32.721L26.5467 32.7201ZM45.3011 37.1612L38.7075 33.2868L40.9901 31.9464C41.013 31.9309 41.0418 31.9283 41.0672 31.9395L46.5276 35.1472C48.9586 36.5764 49.7918 39.741 48.3873 42.2147C47.7931 43.2618 46.8573 44.064 45.7427 44.4814V37.9427C45.7452 37.6201 45.5766 37.3216 45.3019 37.1612H45.3011ZM47.5727 33.6818C47.5329 33.6568 47.4625 33.6137 47.4125 33.5844L42.0115 30.4103C41.7377 30.2473 41.3987 30.2473 41.124 30.4103L34.5304 34.2847V31.6023C34.5287 31.5747 34.5414 31.548 34.5626 31.5307L40.0221 28.3256C42.4539 26.8981 45.563 27.7477 46.965 30.2231C47.5574 31.2685 47.7719 32.4924 47.571 33.6818H47.5727ZM33.2895 38.4628L31.006 37.1215C30.9814 37.1095 30.9653 37.0853 30.9619 37.0577V30.6414C30.9636 27.7848 33.2412 25.4698 36.0485 25.4715C37.236 25.4715 38.3854 25.8959 39.2983 26.6687C39.2567 26.6911 39.1855 26.7316 39.1381 26.761L33.737 29.935C33.4607 30.0946 33.2912 30.393 33.2929 30.7165L33.2895 38.461V38.4628ZM34.5296 35.7424L37.4666 34.0165L40.4036 35.7415V39.1925L37.4666 40.9175L34.5296 39.1925V35.7424Z" fill="black"/>
</g>
<defs>
<filter id="filter0_d_22442_140556" x="-47.533" y="-47.5332" width="170" height="170" filterUnits="userSpaceOnUse" color-interpolation-filters="sRGB">
<feFlood flood-opacity="0" result="BackgroundImageFix"/>
<feColorMatrix in="SourceAlpha" type="matrix" values="0 0 0 0 0 0 0 0 0 0 0 0 0 0 0 0 0 0 127 0" result="hardAlpha"/>
<feMorphology radius="2.16" operator="dilate" in="SourceAlpha" result="effect1_dropShadow_22442_140556"/>
<feOffset dx="4.69304" dy="4.69304"/>
<feGaussianBlur stdDeviation="7.5"/>
<feComposite in2="hardAlpha" operator="out"/>
<feColorMatrix type="matrix" values="0 0 0 0 0 0 0 0 0 0 0 0 0 0 0 0 0 0 0.25 0"/>
<feBlend mode="normal" in2="BackgroundImageFix" result="effect1_dropShadow_22442_140556"/>
<feBlend mode="normal" in="SourceGraphic" in2="effect1_dropShadow_22442_140556" result="shape"/>
</filter>
<clipPath id="bgblur_0_22442_140556_clip_path" transform="translate(47.533 47.5332)"><rect x="12.467" y="12.4668" width="50" height="50" rx="8.4"/>
</clipPath></defs>
</svg>
