<svg width="20" height="20" viewBox="0 0 20 20" xmlns="http://www.w3.org/2000/svg">
  <path
    d="M16.7334 18H3.2666C2.46631 18 1.74365 17.5898 1.33398 16.9023C0.924314 16.2148 0.906734 15.3838 1.28759 14.6797L8.021 2.23242C8.41455 1.50488 9.17286 1.05273 10 1.05273C10.8271 1.05273 11.5855 1.50488 11.979 2.23242L18.7124 14.6797C19.0933 15.3838 19.0757 16.2149 18.666 16.9024C18.2563 17.5899 17.5337 18 16.7334 18Z"
    fill="#ff0000"
  />
  <path
    d="M10 11.75C9.58594 11.75 9.25 11.4141 9.25 11V7C9.25 6.58594 9.58594 6.25 10 6.25C10.4141 6.25 10.75 6.58594 10.75 7V11C10.75 11.4141 10.4141 11.75 10 11.75Z"
    fill="#ffffff"
  />
  <path
    d="M9.99936 15.1233C9.76871 15.1315 9.54398 15.0496 9.37275 14.895C9.04242 14.5304 9.04242 13.9751 9.37275 13.6104C9.5421 13.4521 9.76758 13.3677 9.99939 13.3757C10.2357 13.3662 10.4653 13.4559 10.6324 13.6231C10.7945 13.7908 10.8816 14.017 10.8738 14.2499C10.8862 14.4846 10.8042 14.7145 10.6461 14.8886C10.4725 15.0531 10.2382 15.1382 9.99936 15.1233Z"
    fill="#ffffff"
  />
</svg>
