<svg width="20" height="20" viewBox="0 0 20 20" fill="none" xmlns="http://www.w3.org/2000/svg">
<path d="M11.0606 10L16.2671 4.79395C16.5601 4.50098 16.5601 4.02637 16.2671 3.7334C15.9741 3.44043 15.4995 3.44043 15.2065 3.7334L10 8.93945L4.79346 3.7334C4.50049 3.44043 4.02588 3.44043 3.73291 3.7334C3.43994 4.02637 3.43994 4.50098 3.73291 4.79395L8.93939 10L3.73291 15.206C3.43994 15.499 3.43994 15.9736 3.73291 16.2666C3.87939 16.4131 4.07129 16.4863 4.26318 16.4863C4.45507 16.4863 4.64697 16.4131 4.79345 16.2666L9.99999 11.0605L15.2065 16.2666C15.353 16.4131 15.5449 16.4863 15.7368 16.4863C15.9287 16.4863 16.1206 16.4131 16.2671 16.2666C16.56 15.9736 16.56 15.499 16.2671 15.206L11.0606 10Z" fill="#ffffff"/>
</svg>
