<?xml version="1.0" encoding="UTF-8"?><svg id="flags_22px" xmlns="http://www.w3.org/2000/svg" viewBox="0 0 22 22"><defs><style>.cls-1{fill:#0037a6;}.cls-2{fill:#f5f5f5;}.cls-3{fill:#fff;}.cls-4{fill:#f20000;}</style></defs><path class="cls-3" d="M11.000122,0C4.924127,.001282,.001221,4.924086,0,11.000031c.001221,6.075823,4.924005,10.998688,11.000122,10.999969,6.075873-.001282,10.998657-4.924147,10.999878-10.999969C21.998779,4.924086,17.075995,.001282,11.000122,0Z"/><path class="cls-1" d="M8.945046,2.244757c-1.6935,.396241-3.203038,1.26514-4.378344,2.467536l4.378344,3.135507V2.244757Z"/><path class="cls-1" d="M2.97745,6.935871c-.211062,.41559-.394414,.847292-.539557,1.296879h2.35049l-1.810933-1.296879Z"/><path class="cls-1" d="M4.575979,17.297839c1.173841,1.19733,2.680206,2.06214,4.369067,2.457343v-5.596024l-4.369067,3.138681Z"/><path class="cls-1" d="M2.438504,13.768715c.146486,.453492,.331547,.888918,.544928,1.307804l1.820455-1.307804H2.438504Z"/><path class="cls-1" d="M19.022428,15.064495c.210818-.415223,.394047-.84656,.539313-1.29578h-2.348659l1.809346,1.29578Z"/><path class="cls-1" d="M17.424266,4.7021c-1.173963-1.197391-2.68045-2.062201-4.369189-2.457343V7.840964l4.369189-3.138864Z"/><path class="cls-1" d="M19.562229,8.23275c-.146608-.45392-.331791-.889773-.545416-1.308964l-1.822042,1.308964h2.367458Z"/><path class="cls-1" d="M13.055077,19.755182c1.693134-.396119,3.20255-1.264774,4.377734-2.466865l-4.377734-3.135202v5.602066Z"/><path class="cls-4" d="M7.147052,13.768715l-3.449501,2.477851c.178103,.247437,.368412,.484437,.570197,.71216l4.440967-3.190011h-1.561663Z"/><path class="cls-4" d="M14.852948,8.23275l3.450112-2.478767c-.178103-.247376-.368412-.484437-.570075-.71216l-4.440845,3.190927h1.560808Z"/><path class="cls-4" d="M14.865155,13.768715l3.445473,2.46717c.177126-.246827,.342411-.501955,.494268-.766543l-2.374782-1.700627h-1.564959Z"/><path class="cls-4" d="M7.135211,8.23275l-3.446205-2.468085c-.177004,.246949-.342411,.502199-.49439,.766909l2.375637,1.701177h1.564959Z"/><path class="cls-2" d="M9.767076,12.661534H2.159692c.070557,.377809,.162599,.747561,.278812,1.107181h2.365383l-1.820455,1.307804c.208743,.409486,.447515,.799746,.714119,1.170047l3.449501-2.477851h1.561663l-4.440967,3.190011c.101319,.11438,.201296,.230042,.308231,.339112l4.369067-3.138681v5.596024c.269656,.063049,.543707,.112427,.822031,.150635v-7.244283Z"/><path class="cls-2" d="M12.233046,9.339931h7.60775c-.070557-.377809-.162355-.747561-.278568-1.107181h-2.367458l1.822042-1.308964c-.20862-.409425-.447271-.799502-.713753-1.169803l-3.450112,2.478767h-1.560808l4.440845-3.190927c-.101442-.114624-.20154-.230469-.308719-.339723l-4.369189,3.138864V2.244757c-.269534-.063111-.543707-.112427-.822031-.150696v7.24587Z"/><path class="cls-2" d="M12.233046,13.768715v6.137163c.278323-.038269,.552496-.087586,.822031-.150696v-5.602066l4.377734,3.135202c.319584-.326783,.610725-.680178,.877817-1.052432l-3.445473-2.46717h1.564959l2.374782,1.700627c.076173-.132813,.147951-.267884,.217532-.404847l-1.809346-1.29578h2.348659c.116212-.35962,.208132-.729372,.278812-1.107181h-7.607506v1.107181Z"/><path class="cls-2" d="M9.767076,8.23275V2.094122c-.278323,.038208-.552374,.087586-.822031,.150635V7.8478l-4.378344-3.135507c-.319462,.326783-.610602,.680178-.877695,1.052371l3.446205,2.468085h-1.564959l-2.375637-1.701177c-.076051,.13263-.147707,.267518-.217165,.404298l1.810933,1.296879H2.437893c-.116212,.35962-.20801,.729372-.278445,1.107181h7.607628v-1.107181Z"/><path class="cls-4" d="M12.233046,9.339931V2.094061c-.404057-.055481-.813486-.094178-1.232802-.094178-.419438,0-.828989,.038696-1.233168,.094239v7.245809H2.159448c-.100587,.538698-.159426,1.092166-.159426,1.660039,0,.568361,.058839,1.122379,.15967,1.661565h7.607384v7.244283c.404179,.055542,.81373,.094239,1.233168,.094239,.419316,0,.828745-.038696,1.232802-.094178v-7.244344h7.607506c.100709-.539186,.159548-1.093204,.159548-1.661565,0-.567873-.058716-1.121341-.159304-1.660039h-7.60775Z"/></svg>