<?xml version="1.0" encoding="UTF-8"?><svg id="flags_22px" xmlns="http://www.w3.org/2000/svg" viewBox="0 0 22 22"><defs><style>.cls-1{fill:#008c4b;}.cls-2{fill:#f5f5f5;}.cls-3{fill:#fff;}</style></defs><path class="cls-3" d="M11.000031,0C4.924086,.001282,.001282,4.924086,0,11.000031c.001282,6.075884,4.924086,10.998688,11.000031,10.999969,6.075884-.001282,10.998688-4.924086,10.999969-10.999969C21.998718,4.924025,17.075914,.001282,11.000031,0Z"/><path class="cls-2" d="M10.999969,1.999883c-1.053714,0-2.060614,.190491-3.000313,.523195V19.476861c.775881,.27472,1.599064,.444337,2.456184,.495729h1.08826c.856997-.051392,1.680058-.220948,2.455878-.495607V2.522956c-.939639-.332643-1.946417-.523073-3.000008-.523073Z"/><path class="cls-1" d="M2.000006,10.997528v.004883c.001038,3.915965,2.50727,7.237813,5.99965,8.47445V2.523078C4.507276,3.759715,2.001043,7.081563,2.000006,10.997528Z"/><path class="cls-1" d="M13.999978,2.522956V19.476983c3.493235-1.236759,6.000078-4.559949,6.000078-8.477013s-2.506843-7.240254-6.000078-8.477013Z"/></svg>