<?xml version="1.0" encoding="UTF-8"?><svg id="flags_22px" xmlns="http://www.w3.org/2000/svg" viewBox="0 0 22 22"><defs><style>.cls-1{fill:#f5f5f5;}.cls-2{fill:#fff;}.cls-3{fill:red;}.cls-4{fill:#199900;}</style></defs><path class="cls-2" d="M11.000101,0C4.924126,.001282,.00126,4.924073,.00004,11.000031c.001221,6.075835,4.923965,10.998688,11.000061,10.999969,6.075852-.001282,10.998718-4.924073,10.999939-10.999969C21.998819,4.924012,17.075831,.001282,11.000101,0Z"/><path class="cls-1" d="M11.476676,2.023488h-.952907c-.881494,.046205-1.727831,.21723-2.52424,.49928V19.476133c.939723,.332772,1.946831,.523267,3.000694,.523267,1.053618,0,2.060604-.190495,3.000327-.523206V2.522646c-.796287-.281989-1.642502-.452953-2.523874-.499158Z"/><path class="cls-4" d="M2.000217,10.99942c0,3.916907,2.506295,7.239805,5.999312,8.476713V2.522768C4.506512,3.759737,2.000217,7.082757,2.000217,10.99942Z"/><path class="cls-3" d="M14.00055,2.522646V19.476194c3.492284-1.236603,5.99858-4.558341,5.999556-8.474333v-.004883c-.000977-3.915747-2.507272-7.23773-5.999556-8.474333Z"/></svg>