<?xml version="1.0" encoding="UTF-8"?><svg id="flags_22px" xmlns="http://www.w3.org/2000/svg" viewBox="0 0 22 22"><defs><style>.cls-1{fill:#0062d9;}.cls-2{fill:#f5f5f5;}.cls-3{fill:#fff;}.cls-4{fill:red;}</style></defs><path class="cls-3" d="M11.000122,0C4.924194,.001282,.001221,4.924086,0,11.000031c.001221,6.075945,4.924194,10.998688,11.000122,10.999969,6.075806-.001282,10.998657-4.924086,10.999878-10.999969C21.998779,4.924147,17.07605,.001282,11.000122,0Z"/><path class="cls-4" d="M7.976196,15.90544c-.827148-.398622-1.833008-1.003543-2.620728-1.904851H2.523438c1.236938,3.492808,4.559937,5.999284,8.476807,5.999284,3.916626,0,7.239624-2.506477,8.476685-5.999284H10.597046c-.78772,.901309-1.793701,1.50623-2.62085,1.904851Z"/><path class="cls-1" d="M11.857544,8.00106c.022217,.664003,.039673,1.495182,.039673,2.533821,0,1.486332-.55188,2.609504-1.300171,3.465708h8.879883c.332764-.9397,.523315-1.946661,.523315-3.000436,0-1.053226-.190308-2.059759-.522827-2.999093h-7.619873Z"/><path class="cls-1" d="M4.05542,10.53488c0-1.038638,.017334-1.869817,.039551-2.533821h-1.572144c-.33252,.939334-.522705,1.945867-.522705,2.999093,0,1.053775,.19043,2.060736,.523315,3.000436h2.832031c-.748169-.856204-1.300049-1.979376-1.300049-3.465708Z"/><path class="cls-2" d="M4.05542,10.53488c0,1.486332,.55188,2.609504,1.300049,3.465708,.78772,.901309,1.793579,1.50623,2.620728,1.904851,.827148-.398622,1.83313-1.003543,2.62085-1.904851,.748291-.856204,1.300171-1.979376,1.300171-3.465708,0-1.038638-.017456-1.869817-.039673-2.533821h7.619873c-1.233154-3.484385-4.542358-5.985979-8.445801-5.999467h-.062744c-3.903809,.013489-7.212891,2.515083-8.446045,5.999467h1.572144c-.022217,.664003-.039551,1.495182-.039551,2.533821Zm6.798706,2.585334c-.005615,.009155-.009521,.020203-.015381,.029297-.749756,1.174076-1.931396,1.902227-2.862549,2.350653-.930908-.448427-2.112427-1.176578-2.862061-2.350592-.005981-.009338-.009888-.020752-.015869-.030151-.431885-.686953-.719116-1.522038-.719116-2.546028,0-2.799202,.133179-4.073009,.133179-4.073009h6.927246s.134277,1.273807,.134277,4.073009c0,1.024356-.287354,1.859746-.719727,2.546821Z"/><path class="cls-4" d="M7.976196,15.499982c-.930908-.448366-2.112305-1.176456-2.862061-2.350409,.749634,1.174014,1.931152,1.902166,2.862061,2.350592,.931152-.448427,2.112793-1.176578,2.862549-2.350653-.749756,1.174014-1.931396,1.902105-2.862549,2.35047Z"/><path class="cls-4" d="M7.976196,6.500384h-3.463867s-.133179,1.273807-.133179,4.073009c0,1.02399,.287231,1.859075,.719116,2.546028,.192871-.338502,.492432-.702333,.902954-.702333,.608398,0,.830444,.490663,.830444,.490663,0,0,.28833-.734255,.827881-.9621v-1.456181c-.45166-.006287-1.239746-.000977-1.879517,.212159,0,0,.019653-.249573,.019653-.539247,0-.290223-.019653-.539308-.019653-.539308,.696533,.232178,1.478638,.21692,1.879517,.210572v-.970889c-.36499-.003662-.891602,.014221-1.487183,.213135,0,0,.018555-.249024,.018555-.539247,0-.290711-.018555-.538759-.018555-.538759,.594727,.197877,1.120483,.215333,1.485107,.212708-.017944-.615297-.197266-1.389347-.197266-1.389347,0,0,.368286,.029541,.515991,.029541,.146729,0,.516113-.029541,.516113-.029541,0,0-.178955,.77405-.198486,1.389347,.365234,.002625,.891235-.014832,1.485352-.212708,0,0-.017822,.248048-.017822,.538759,0,.290223,.017822,.539247,.017822,.539247-.595215-.198914-1.121216-.216797-1.487427-.213135v.970889c.401001,.006348,1.183594,.021607,1.879517-.210572,0,0-.018433,.249085-.018433,.539308,0,.289674,.018433,.539247,.018433,.539247-.638428-.213135-1.427246-.218445-1.879517-.212159v1.455754c.539795,.227357,.828979,.962527,.828979,.962527,0,0,.222168-.490663,.830566-.490663,.410645,0,.710205,.364442,.902832,.703127,.432373-.687075,.719727-1.522465,.719727-2.546821,0-2.799202-.134277-4.073009-.134277-4.073009h-3.463379Z"/><path class="cls-2" d="M8.291748,11.945224v-1.455754c.452271-.006287,1.241089-.000977,1.879517,.212159,0,0-.018433-.249573-.018433-.539247,0-.290223,.018433-.539308,.018433-.539308-.695923,.232178-1.478516,.21692-1.879517,.210572v-.970889c.366211-.003662,.892212,.014221,1.487427,.213135,0,0-.017822-.249024-.017822-.539247,0-.290711,.017822-.538759,.017822-.538759-.594116,.197877-1.120117,.215333-1.485352,.212708,.019531-.615297,.198486-1.389347,.198486-1.389347,0,0-.369385,.029541-.516113,.029541-.147705,0-.515991-.029541-.515991-.029541,0,0,.179321,.77405,.197266,1.389347-.364624,.002625-.890381-.014832-1.485107-.212708,0,0,.018555,.248048,.018555,.538759,0,.290223-.018555,.539247-.018555,.539247,.595581-.198914,1.122192-.216797,1.487183-.213135v.970889c-.400879,.006348-1.182983,.021607-1.879517-.210572,0,0,.019653,.249085,.019653,.539308,0,.289674-.019653,.539247-.019653,.539247,.639771-.213135,1.427856-.218445,1.879517-.212159v1.456181c.098145-.041443,.201782-.071533,.31665-.071533,.11438,0,.217651,.029907,.315552,.071106Z"/><path class="cls-1" d="M9.951294,12.417088c-.608398,0-.830566,.490663-.830566,.490663,0,0-.289185-.73517-.828979-.962527-.0979-.041199-.201172-.071106-.315552-.071106-.114868,0-.218506,.03009-.31665,.071533-.539551,.227845-.827881,.9621-.827881,.9621,0,0-.222046-.490663-.830444-.490663-.410522,0-.710083,.363832-.902954,.702333,.005981,.009399,.009888,.020813,.015869,.030151,.749756,1.173953,1.931152,1.902044,2.862061,2.350409,.931152-.448366,2.112793-1.176456,2.862549-2.35047,.005859-.009094,.009766-.020142,.015381-.029297-.192627-.338685-.492188-.703127-.902832-.703127Z"/></svg>