<?xml version="1.0" encoding="UTF-8"?><svg id="flags_22px" xmlns="http://www.w3.org/2000/svg" viewBox="0 0 22 22"><defs><style>.cls-1{fill:#006dd9;}.cls-2{fill:#fff;}.cls-3{fill:#ffd500;}</style></defs><path class="cls-2" d="M11.000061,0C4.9241,.001282,.001221,4.924086,0,11.000031c.001221,6.075823,4.923978,10.998688,11.000061,10.999969,6.075961-.001282,10.998718-4.924147,10.999939-10.999969C21.998779,4.924086,17.0759,.001282,11.000061,0Z"/><path class="cls-1" d="M19.819324,9.200404c-.83289-4.10432-4.458521-7.194112-8.8073-7.19991h-.02417c-.243043,.000305-.482058,.017151-.720219,.036377v7.163533h9.551689Z"/><path class="cls-1" d="M6.667884,3.111764c-2.277234,1.253421-3.954246,3.462717-4.487085,6.08864H6.667884V3.111764Z"/><path class="cls-1" d="M10.267635,19.963068c.242189,.019531,.48511,.036987,.732304,.036987,4.353906,0,7.98503-3.091744,8.819263-7.199483H10.267635v7.162495Z"/><path class="cls-1" d="M2.18092,12.800573c.533206,2.625557,2.209973,4.834364,4.486963,6.087602v-6.087602H2.18092Z"/><path class="cls-3" d="M10.267635,9.200404V2.036871c-1.29676,.104737-2.516616,.4787-3.599751,1.074893v6.08864H2.180798c-.118043,.581545-.180665,1.18317-.180665,1.799566,0,.616701,.062622,1.218753,.180787,1.800603H6.667884v6.087602c1.083136,.596193,2.302991,.970157,3.599751,1.074893v-7.162495h9.551567c.118165-.58185,.180787-1.183902,.180787-1.800603,0-.616396-.062622-1.218021-.180665-1.799566H10.267635Z"/></svg>