<?xml version="1.0" encoding="UTF-8"?><svg id="flags_22px" xmlns="http://www.w3.org/2000/svg" viewBox="0 0 22 22"><defs><style>.cls-1{fill:#005fd9;}.cls-2{fill:#f5f5f5;}.cls-3{fill:#fff;}.cls-4{fill:#f20000;}</style></defs><path class="cls-3" d="M11.000122,22c6.075941-.001282,10.998657-4.924121,10.999878-11C21.998779,4.924121,17.076063,.001282,11.000122,0,4.924182,.001282,.001221,4.924059,0,11c.001221,6.075941,4.924182,10.998718,11.000122,11Z"/><path class="cls-1" d="M11.000122,19.99965c3.910243,0,7.228554-2.498408,8.470403-5.982311H2.529719c1.241849,3.483903,4.56016,5.982311,8.470403,5.982311Z"/><path class="cls-2" d="M2.529719,14.01734H19.470525c.336677-.944601,.529553-1.95738,.529553-3.017584,0-1.04641-.187748-2.046737-.516003-2.980901H2.516169c-.328254,.934164-.516003,1.934491-.516003,2.980901,0,1.060204,.192875,2.072983,.529553,3.017584Z"/><path class="cls-4" d="M11.375008,2.018355h-.749773c-3.759361,.155216-6.91739,2.609982-8.109067,6.000499H19.484075c-1.191677-3.390517-4.349706-5.845284-8.109067-6.000499Z"/></svg>