<?xml version="1.0" encoding="UTF-8"?><svg id="Layer_1" xmlns="http://www.w3.org/2000/svg" viewBox="0 0 128 128"><defs>
<style>
.punk-hair {fill: #ff1693;}
</style></defs><path class="punk-hair" d="M18.21,127.29c.02-.19,.13-.34,.24-.32,.67,.11,1.2-.08,1.2-.43,0-.53,.84-.77,.84-.47,0,.27,.9,.78,.65,.14-.21-.55,.1-.15,.97-.63,.86-.48,1.41,.13,1.14-.17-.11-.12-.08-.36,.06-.54,1.24-1.55,1.66-1.96,1.67-1.61,.01,.49,1.42-1.09,1.42-1.6,0-.54,.72-.45,.96-1.08,.29-.75-.6,.42-.25-.7,.49-1.55,6.32-10.1,7.76-10.1,.33,0,.36-.84-.08-.84-.18,0-.25-.07-.16-.16,.35-.35-.86-2.47-4.92-8.65-3.71-5.65-6.68-11.07-6.68-12.22,0-.5-.74-.27-.5-.51,.09-.09-.08-1.07-.37-2.18-.29-1.11-.68-3.57-.85-5.45-.27-2.89-.25-4.08,.15-7.6,.88-7.79,1.74-11.12,4.08-15.85,2.5-5.05,3.39-6.36,6.23-9.24,1.55-1.57,2.94-2.86,3.08-2.86s.58-.3,.98-.67c1.11-1.02,3.34-2.02,6.76-3.01,1.7-.49,4.05-1.18,5.21-1.53,4.76-1.43,6.61-1.68,12.24-1.66,5.2,.02,13.53,.77,21.57,1.94,5.67,.83,8.88,1.88,12.47,4.08,1.47,.9,1.75,.99,1.64,.55-.99-3.8,5.89,5.65,6.12,5.65,.15,0,.26,.1,.24,.21-.27,1.74,2.53,4.42,2.77,4.18,1.44-1.44,1.7,6.17,2.82,5.99,1.69-.28,.97,.9,1.47,2.14,.22,.54,.31-.12,.33-2.2,0-.36,.1-.43,.34-.24,1,.82,3.3-.02,3.88-1.42,.53-1.28,.51-.25,1.06-1.76,.29-.81,.53-1.01,1.39-1.16,1.58-.28,1.93-.56,2.11-1.65,.23-1.39,1.8-2.41,1.47-2.41-.12,0,.27-.49,.87-1.1,.6-.6,1.45-1.55,1.89-2.11,.44-.56,.9-.95,1.03-.87,.31,.19,1.47-1.83,1.3-2.27-.24-.62,.84-.26,.55-1.39-.27-1.09,.96-2.78,.96-3.8,0-.33,.11-.81,.24-1.07,.39-.77,.63-2.35,.32-2.16-.36,.22,0-.74,.25-.58,.11,.07,.19-.14,.19-.45,0-.56,0-.56-.48,.02-.6,.74-.92,.77-.53,.04,.16-.3,.27-.65,.23-.77-.08-.28,.56-2.16,1.07-3.13,.45-.86,.5-1.27,.14-1.05-.33,.2-.66-.61-.3-.83,.15-.09,.27-.49,.27-.89,0-.61-.06-.67-.43-.37-.36,.3-.4,.28-.25-.11,.31-.81,1.54-.23,.62-.76-.82-.48,.2-1.71-.61-.72-.38,.46-.48,.48-.84,.12-.27-.27-.32-.55-.16-.81,.42-.67-.6-1.95-.62-1.95-.55,0,.15-1.46-.76-.42l-1.82,1.69c.09-.17,.72-1.27,.46-1.27-.35,0,1.77-1.62,1.33-2.06-.49-.49-.95,.63-1.28,.1-.24-.38-.71-.38-.71,0,0,.16,.13,.22,.28,.12,.41-.25,.35,.3-.07,.65-.61,.51-.35-1.6-.23-1.58,.09,0,.35,0,.58-.02,.37-.03,.37-.07,.01-.3-.73-.46,.38-.76,.6-1.65,.13-.51,1.96-2.35,1.78-2.54-.26-.26,1.07-1.25-.05-.66-.95,.51-1.48,1.74-2.3,1.74s-.81,.65-1.17,.42c-.32-.2-.83,.62-.28,.28,.23-.14,.3-.12,.19,.06-.24,.39-1.57,.63-1.76,.32-.31-.5-1.28,.33-1.87-1.89-.08-.29-.2-.26-.51,.12-.62,.76,.29-.07,.29,.35,0,.36-.92,.68-.71,.34,.09-.15-.09-.4-.41-.57-.46-.25-.57-.22-.57,.14,0,.73-.45-.29-.74,.9-.07,.26-.13,.52-.2,.79-1.04-2.44-.43-.88-1.12-.62-.57,.22-.27-3.04,.39-4.34,.53-1.05,.53-1.05-.02-.95-.64,.12-.72-.15-.21-.66,.61-.61-.63,.01-.63,.2,0,.27-1.3,1.73-1.54,1.73-.31,0,.5-.67,.23-.94-.27-.27,.32,.06,.78-.82,.11-.21,.22-.42,.33-.63l-1.33,1.13c1.55-2.47,.34-.89,.97-2.18,.29-.61,.29-.61-.13-.09-.71,.88-.1-.24-1,.58-.8,.73-.44,1.55-.81,1.55-.13,0-.18-.35-.1-.77,.14-.72,.11-.75-.37-.35-.38,.31-.32,.09,.24-.87,.58-1,.66-1.29,.33-1.29-.66,0-.2,.82-.84,.57-.63-.24,.03-.53-.41-.8-.4-.25-.53,1.26-.85,1.26-.12,0-.38,.38-.57,.85-1.5,3.62,.24-2.15-2.26,1.26,.32-1.21,.49-1.49-.51-.39-.48,.52-.87,.8-.88,.62-.01-.49-1.13,0-1.13-.36,0-.38-1.27-.24-1.27-.82,0-.46-.9-.96-.61-.13,.18,.5,.16,.5-.24-.02-.59-.77-.29-1-.82-1-.6,0-.67-.94-.7-.21-.03,.62-.48,.64-.81,.04-.22-.39-.27-.38-.41,.14-.25,.95,.59-.02,.24,.55-.11,.18-.33,.32-.49,.32-.28,0-.2-1.38,.2-3.47,.1-.51,.05-.73-.14-.62-.44,.27-1.22-2.58-.99-2.95,.23-.37-.54-.84-.87,1.68-.16,1.27-.44,1.51-1.11,.99-.45-.35-.46-.39-.06-.25,.5,.17,.7-.29,.24-.57-.38-.23,.35-2.3,.13-2.88-.22-.57,.54-.21,.24-.69-.26-.43-.34,.14-1.04,.39-.37,.14-.5,.03-.5-.44,0-.53-.1-.47-.55,.36-.86,1.56-.39,2.39-.84,1.69-.23-.36-.28-.35-.31,.07-.19,2.42-1.38,2.71-1.38,3.49,0,.23-.13,.67-.29,.97-.29,.54-.32,.53-1.2-.12-1.37-1.02-1.15-.12-2.39-.87-1.28-.78,1.69,1.74,1.13,1.42-.43-.24-1.48-.28-1.49,.01,0,.13-.16-.01-.34-.32-.32-.55-.34-2.3-.04-3.31,.18-.61-.43-.85-1.08,1.06-.16,.47-.32,.94-.48,1.41,0-.09-.07-2.48-.23-1.62-.17,.87-1.13,.61-.73,.45,.5-.21-.11-.79,.35-1.07,.36-.22,.49-.94-.16-.4-.41,.34-.44,.27-.26-.81,.36-2.11-.59-.36-.26-2.15,.1-.53,.09-1.38-.03-1.9-.2-.93-.21-.93-.46-.24-.41,1.12,.26,1.46-.38,2.86-.84,1.82,.04-.61-.45-.61-.22,0-.36,.64-.28,1.2,.06,.38-.66-.09-.38,.81,.13,.4,.09,.54-.12,.4-.45-.28-1.13,.5-1.33,1.51-.24,1.18-2.47,.46-1.88,1.49,.22,.37-1.32,.22-2.16-.21-.65-.34-.96-.36-1.54-.09-1.12,.51-.01,.45,0,1.14,.01,.66,1.84-.08,1.18,.63-.53,.57-.66-.04-.83,.49-.18,.53-1.51-1.19-1.81-1.19-.46,0-1.22-1.33-1.27-2.22-.03-.49-.23-4.91-.43-4.32-.22,.63-.64,.37-.67-.42-.06-1.53-.38,1.34-.83,1.34s.46-1-.42-.66c-.39,.15-.46,.09-.32-.28,.1-.26,.09-.45-.02-.44-1.14,.17,.13-.73-.39-1.46-.53-.75,.17,.48-.21,.63-.3,.12-.71,1.47-.4,1.28,.27-.17,.46,1.08-.24,1.08-.76,0,.18-.35-.14-1.18-.18-.47-.22-.45-.4,.18-.41,1.46-.02-1.93-.52-1.14-.36,.57,.26,1.14-.38,.61-.73-.59-.34,.34-.73-.28-.15-.24-.26,.48-.28,1.92-.03,1.79,.05,2.26,.32,2.09,.23-.14,.22-.04-.04,.28-.36,.45-.44,.45-.84,.04-.36-.36-.38-.49-.07-.68,.3-.19,.29-.27-.07-.4-.24-.09-1.37,1.85-1.57,2.27-.68,1.45-1.06,1.83-1.63,1.62-.55-.2,.14,.42-.34,.42-.17,0-.23,.13-.14,.29,.38,.62-1.25-.12-1.63-1.13-.1-.26-.17-.15-.18,.28-.02,.63-.08,.6-.6-.38-.83-1.55-1.05-4.29-1.48-3.87-.31,.31-1.6-2.17-1.6-3.08,0-.65-.69-1.14-.47-.38,.09,.29,.23,.91,.32,1.37,.27,1.43-.14-.22-.68-.55-.38-.24-.32,1.52,.08,2.04,.36,.48-.13,.87-.29,.42-.07-.19-.3-.35-.51-.35-.36,0-.96-1.57-.98-2.53,0-.47-.74-1.67-.45-.77,.18,.57-.54,.7-.76,.14-.08-.19-.16-.1-.19,.21-.1,1.19-.78-1.75-.85-.56-.05,.81-.32,1.49,.03,2.16,.21,.4,.18,.47-.16,.34-.43-.17-.59,.2-.23,.56,.36,.36,.31,5.34-.07,6.37-.2,.55-.37,.83-.39,.63-.04-.64-.8,.38-.7,.53,.13,.21-.23,2.12-.32,2.63-.29-.29-1.31-1.21-1.11-1.54,.09-.15,.05-.27-.1-.27-.39,0-1.04-2.25-1.44-2.25-.46,0,.35-1.1-.29-.7-.64,.39,.14-.58-.27-.84-.26-.16-.15,1.37,.14,1.83,.26,.42-.7,.05-.73,.77-.01,.27-.15,.06-.3-.47-.49-1.72-.42,.44-1.07-1.12-.52-1.25-.85-.31-.85-.95,0-.57-1.44-2.32-1.17-2.61,.1-.11,.03-.12-.17,0-.39,.22-.2,1.52,.29,2,.55,.54-.51-.89,.21-.22,.31,.28,.29,.44-.12,.89-.74,.81,.14,.43-.08,1.65-.27,1.54,.07,3.49-.38,2.39-.92-2.22-.08,3.35-1.76,1.29-.77-.94-.02,.05-.46,.05s-.53-1.97-.92-1.97c-.42,0,.43,.95-.51,.14-.61-.52-.64-.52-.47-.04,.33,.91-.14,1.11-.69,.28-.18-.27-.35-.53-.53-.8,.35,2.76-.07,1.12-.38,1.9-.08,.21-.15,.15-.16-.15-.02-.41-.09-.44-.4-.15-.28,.26-.31,.61-.12,1.35,1.22,4.73,1.18,5.49-.26,5.23-.58-.1-.64-.06-.35,.28,.56,.67-.15,.46-.75-.23-.82-.93-2.08-2.87-2.08-3.2,0-.41-1.27-1.55-1.49-1.33-.32,.32-.95-.74-.95-.05,0,.6,.33-.02,.61,.43,.3,.49-.59-.01-.18,.78,.29,.57,.27,1.73,.28,2.46-.2-.44-.4-.89-.61-1.33-.48-1.06-.69-1.28-1.03-1.06-.23,.15-.3,.28-.14,.28,.37,0,.1,2.07,.59,3.6,.46,1.41,.51,2.09,.11,1.47-.25-.39-.19,.71,.13,2.32,.14,.7-.57,.62-1.63-.2-.5-.38-1.44-.81-2.09-.96-1.13-.25-1.31-.21-1.22,.33,.05,.29-.61-.02-.36-.44,.11-.17,.06-.23-.11-.12-.44,.27-1.22-.1-1-.48,.12-.2,.02-.19-.25,.03-.76,.62-.79-.5-1.45-.5-.37,0-1.74-1.4-2.18-1.82,.24,.48,.85,1.78,1.15,1.96,.38,.24,1.13,1.87,.98,2.13-.23,.36,1.21,.94,.73,1.24-.45,.28,.23,.9-.24,.61-.58-.36,.42-1.03-.74-.81-.47,.09-.72,.01-.72-.22,0-.4-.76-.57,.91,1.62,.69,.9,1.48,2.07,1.75,2.6,.47,.92,.47,.98,0,1.32-.41,.3-.67,.28-1.51-.09-1.21-.53-2.85-.74-2.85-.36s.96,.14,.69,.57c-.23,.37-1.26-.49-1.17-.97,.09-.46-.55,.05-1.09-.66-.36-.47-.38-.47-.39-.01,0,.27-.1,.48-.22,.46-.59-.09-.64,.08-.16,.53,.78,.71-.19-.16-.19,.3,0,.46,.57,.48,.54,.98-.02,.24-.06,.23-.17-.02-.19-.46-1.22-1.02-1.22-.66,0,.15,.17,.44,.38,.65,.41,.41,.53,1.42,.14,1.18-.36-.22,.25-.73-.31-.52-.7,.27-.43,1.09,.78,2.38,1.75,1.84,1.97,2.38,1.19,2.89-1.05,.69-1.83,.84-2.08,.4-.13-.22-.68-.62-1.22-.9-.9-.46-.95-.46-.59-.02,.52,.62,.08,.37-.54,.42-.77,.07,.31,.08,.38,1.24,.07,1.08,.66,.38,.52,1.02-.14,.65,.99,.86,.16,.87-.27,0-.49-.17-.49-.38,0-.64-.81-1.17-1.19-.78-.25,.25-.24,.41,.03,.68,.66,.66-.22-.93,.16-.59,.36,.33,.43,2.23,.07,2.02-.49-.28,1.13,1.16,.68,1.44-.47,.29-.1,1.7-.72,1.94-.69,.26,.06,.59-1.46,1.67-.81,.58-1.12,.67-1.43,.41-.82-.68-.31,.88-1.47-.36-1.34-1.43-1.51-.38-.43,.47,1.07,.84,.4,.93,1.2,1.53,.83,.63-.38,.11-.12,.79,.17,.46-.54,.83-1.03,.53-.19-.11-.17,0,.05,.27,.39,.48,.21,1.62-.24,1.62-.5,0-.88,1.1-.51,1.5,.29,.31,.47,.24,1.03-.35,.96-1.02-.12,.26,.19,.26s-.48,.64-.39,1.18c.37,2.21-2.07,3.2-2.43,5.09-.14,.73-.89,1.44-.57,.77,.26-.53-.94,.92-.89,1.12,.02,.08-.18,.55-.44,1.05-.58,1.09-.63,1.65-.06,.65,.55-.97,.55-.1,0,1.22-1.27,3.04,.85-.66,1.16-.66,.25,0-1.58,3.19-2.1,3.66-.47,.42-.59,1.61-.21,2.21,.19,.3-.18,.46-.82,.34-.16-.03-.14,.09,.04,.27,.24,.24,.18,.69-.23,1.78-.61,1.61-1.35,3.91-1.34,4.13,0,.08,.37-.28,.8-.79,.78-.91,.79-.91,.72-.22-.11,.98-1.37,4.25-1.14,4.83,.09,.23,.05,.36-.08,.27-.32-.2-.58,1.52-.75,2.07-.32,1.04,.48,.32,.29,0-.19-.31,.51-.57,.28,.51-.15,.7-.13,.73,.24,.28,.56-.69,.7-.62,.57,.28-.11,.74-.09,.73,.45-.21,.68-1.18,.71-1.09,.2,.72-.54,1.91-.54,6.22,0,6.42,.23,.09,.4,.55,.4,1.11,0,1.4,.31,2.73,.6,2.56,.37-.23,.29,.36,.41,1.71,.27,3.12,.43,3.8,.87,3.8,.34,0,1.37,5.35,1.75,5.35,.17,0,.31,.22,.32,.49,0,.75,.72,2.63,.92,2.43,.24-.24,.46,2.66,.85,2.89,.42,.26-.21-.36,.2-.61,.42-.26,.13,.7,.6,.7s-.08-.88,.28-1.45c.49-.78,.07,.93,.56-.1,.5-1.07-.22,.98,.25,.98,.54,0,.11,1.79,.75-.42,.07,.34,.39,1.54,0,1.46-.38-.07-.25,3.18,.14,3.59,.34,.36,.02-3.01,0-3.36,.17,1.06,.77,4.36-.03,4.36-.39,0,.24,2.18,.69,.41,.21-.82,.75-.68,.58,.16-.07,.35,.05,.56,.3,.56,.73,0-.22-1.65,.34-1.31,.45,.28,2.39,4.71,2.39,6.34,0,.66,.08,1.1,.17,.97,.4-.55,.86-.36,.64,.26-.34,.98,.06,2.32,.59,1.99,.19-.12,.23,.08,.11,.56-.39,1.56,.88-.26,1.26,1.45,.1,.46,.2,.69,.22,.49,0,0,0,0,0,0h0Z"/></svg>
