<?xml version="1.0" encoding="utf-8"?>
<!-- Generator: Adobe Illustrator 27.0.0, SVG Export Plug-In . SVG Version: 6.00 Build 0)  -->
<svg version="1.1" id="Layer_1" xmlns="http://www.w3.org/2000/svg" xmlns:xlink="http://www.w3.org/1999/xlink" x="0px" y="0px"
	 viewBox="0 0 128 128" style="enable-background:new 0 0 128 128;" xml:space="preserve">
<style type="text/css">
	.st0{fill:#21B24B;}
</style>
<path class="st0" d="M18.2,127.3c0-0.2,0.1-0.3,0.2-0.3c0.7,0.1,1.2-0.1,1.2-0.4c0-0.5,0.8-0.8,0.8-0.5c0,0.3,0.9,0.8,0.6,0.1
	c-0.2-0.6,0.1-0.2,1-0.6c0.9-0.5,1.4,0.1,1.1-0.2c-0.1-0.1-0.1-0.4,0.1-0.5c1.2-1.6,1.7-2,1.7-1.6c0,0.5,1.4-1.1,1.4-1.6
	c0-0.5,0.7-0.4,1-1.1c0.3-0.8-0.6,0.4-0.2-0.7c0.5-1.6,6.3-10.1,7.8-10.1c0.3,0,0.4-0.8-0.1-0.8c-0.2,0-0.2-0.1-0.2-0.2
	c0.3-0.3-0.9-2.5-4.9-8.7C26,94.5,23,89.1,23,87.9c0-0.5-0.7-0.3-0.5-0.5c0.1-0.1-0.1-1.1-0.4-2.2s-0.7-3.6-0.9-5.4
	c-0.3-2.9-0.2-4.1,0.1-7.6c0.9-7.8,1.7-11.1,4.1-15.8c2.5-5,3.4-6.4,6.2-9.2c1.6-1.6,2.9-2.9,3.1-2.9s0.6-0.3,1-0.7
	c1.1-1,3.3-2,6.8-3c1.7-0.5,4-1.2,5.2-1.5c4.8-1.4,6.6-1.7,12.2-1.7c5.2,0,13.5,0.8,21.6,1.9c5.7,0.8,8.9,1.9,12.5,4.1
	c1.5,0.9,1.8,1,1.6,0.5c-1-3.8,5.9,5.7,6.1,5.7c0.2,0,0.3,0.1,0.2,0.2c-0.3,1.7,2.5,4.4,2.8,4.2c1.4-1.4,1.7,6.2,2.8,6
	c1.7-0.3,1,0.9,1.5,2.1c0.2,0.5,0.3-0.1,0.3-2.2c0-0.4,0.1-0.4,0.3-0.2c1,0.8,3.3,0,3.9-1.4c0.5-1.3,0.5-0.2,1.1-1.8
	c0.3-0.8,0.5-1,1.4-1.2c1.6-0.3,1.9-0.6,2.1-1.7c0.2-1.4,1.8-2.4,1.5-2.4c-0.1,0,0.3-0.5,0.9-1.1c0.6-0.6,1.4-1.5,1.9-2.1
	s0.9-1,1-0.9c0.3,0.2,1.5-1.8,1.3-2.3c-0.2-0.6,0.8-0.3,0.6-1.4c-0.3-1.1,1-2.8,1-3.8c0-0.3,0.1-0.8,0.2-1.1
	c0.4-0.8,0.6-2.3,0.3-2.2c-0.4,0.2,0-0.7,0.2-0.6c0.1,0.1,0.2-0.1,0.2-0.5c0-0.6,0-0.6-0.5,0c-0.6,0.7-0.9,0.8-0.5,0
	c0.2-0.3,0.3-0.7,0.2-0.8c-0.1-0.3,0.6-2.2,1.1-3.1c0.4-0.9,0.5-1.3,0.1-1c-0.3,0.2-0.7-0.6-0.3-0.8c0.2-0.1,0.3-0.5,0.3-0.9
	c0-0.6-0.1-0.7-0.4-0.4c-0.4,0.3-0.4,0.3-0.2-0.1c0.3-0.8,1.5-0.2,0.6-0.8c-0.8-0.5,0.2-1.7-0.6-0.7c-0.4,0.5-0.5,0.5-0.8,0.1
	c-0.3-0.3-0.3-0.5-0.2-0.8c0.4-0.7-0.6-2-0.6-2c-0.6,0,0.2-1.5-0.8-0.4l-1.8,1.7c0.1-0.2,0.7-1.3,0.5-1.3c-0.3,0,1.8-1.6,1.3-2.1
	c-0.5-0.5-0.9,0.6-1.3,0.1c-0.2-0.4-0.7-0.4-0.7,0c0,0.2,0.1,0.2,0.3,0.1c0.4-0.2,0.3,0.3-0.1,0.6c-0.6,0.5-0.3-1.6-0.2-1.6
	c0.1,0,0.3,0,0.6,0c0.4,0,0.4-0.1,0-0.3c-0.7-0.5,0.4-0.8,0.6-1.6c0.1-0.5,2-2.4,1.8-2.5c-0.3-0.3,1.1-1.2-0.1-0.7
	c-0.9,0.5-1.5,1.7-2.3,1.7s-0.8,0.6-1.2,0.4c-0.3-0.2-0.8,0.6-0.3,0.3c0.2-0.1,0.3-0.1,0.2,0.1c-0.2,0.4-1.6,0.6-1.8,0.3
	c-0.3-0.5-1.3,0.3-1.9-1.9c-0.1-0.3-0.2-0.3-0.5,0.1c-0.6,0.8,0.3-0.1,0.3,0.4c0,0.4-0.9,0.7-0.7,0.3c0.1-0.1-0.1-0.4-0.4-0.6
	c-0.5-0.2-0.6-0.2-0.6,0.1c0,0.7-0.4-0.3-0.7,0.9c-0.1,0.3-0.1,0.5-0.2,0.8c-1-2.4-0.4-0.9-1.1-0.6c-0.6,0.2-0.3-3,0.4-4.3
	c0.5-1.1,0.5-1.1,0-0.9c-0.6,0.1-0.7-0.1-0.2-0.7c0.6-0.6-0.6,0-0.6,0.2c0,0.3-1.3,1.7-1.5,1.7c-0.3,0,0.5-0.7,0.2-0.9
	c-0.3-0.3,0.3,0.1,0.8-0.8c0.1-0.2,0.2-0.4,0.3-0.6l-1.3,1.1c1.6-2.5,0.3-0.9,1-2.2c0.3-0.6,0.3-0.6-0.1-0.1c-0.7,0.9-0.1-0.2-1,0.6
	c-0.8,0.7-0.4,1.6-0.8,1.6c-0.1,0-0.2-0.4-0.1-0.8c0.1-0.7,0.1-0.8-0.4-0.4c-0.4,0.3-0.3,0.1,0.2-0.9c0.6-1,0.7-1.3,0.3-1.3
	c-0.7,0-0.2,0.8-0.8,0.6c-0.6-0.2,0-0.5-0.4-0.8c-0.4-0.2-0.5,1.3-0.8,1.3c-0.1,0-0.4,0.4-0.6,0.9c-1.5,3.6,0.2-2.2-2.3,1.3
	c0.3-1.2,0.5-1.5-0.5-0.4c-0.5,0.5-0.9,0.8-0.9,0.6c0-0.5-1.1,0-1.1-0.4c0-0.4-1.3-0.2-1.3-0.8c0-0.5-0.9-1-0.6-0.1
	c0.2,0.5,0.2,0.5-0.2,0c-0.6-0.8-0.3-1-0.8-1c-0.6,0-0.7-0.9-0.7-0.2c0,0.6-0.5,0.6-0.8,0c-0.2-0.4-0.3-0.4-0.4,0.1
	c-0.2,0.9,0.6,0,0.2,0.6c-0.1,0.2-0.3,0.3-0.5,0.3c-0.3,0-0.2-1.4,0.2-3.5c0.1-0.5,0.1-0.7-0.1-0.6c-0.4,0.3-1.2-2.6-1-2.9
	S97.5,4,97.2,6.5C97,7.8,96.7,8,96,7.5c-0.4-0.3-0.5-0.4-0.1-0.2c0.5,0.2,0.7-0.3,0.2-0.6c-0.4-0.2,0.3-2.3,0.1-2.9
	c-0.2-0.6,0.5-0.2,0.2-0.7c-0.3-0.4-0.3,0.1-1,0.4c-0.4,0.1-0.5,0-0.5-0.4c0-0.5-0.1-0.5-0.6,0.4c-0.9,1.6-0.4,2.4-0.8,1.7
	c-0.2-0.4-0.3-0.3-0.3,0.1C93.2,7.6,92,7.9,92,8.7c0,0.2-0.1,0.7-0.3,1c-0.3,0.5-0.3,0.5-1.2-0.1c-1.4-1-1.2-0.1-2.4-0.9
	c-1.3-0.8,1.7,1.7,1.1,1.4c-0.4-0.2-1.5-0.3-1.5,0c0,0.1-0.2,0-0.3-0.3c-0.3-0.6-0.3-2.3,0-3.3c0.2-0.6-0.4-0.8-1.1,1.1
	C86.1,8,86,8.4,85.8,8.9c0-0.1-0.1-2.5-0.2-1.6c-0.2,0.9-1.1,0.6-0.7,0.4c0.5-0.2-0.1-0.8,0.3-1.1c0.4-0.2,0.5-0.9-0.2-0.4
	c-0.4,0.3-0.4,0.3-0.3-0.8c0.4-2.1-0.6-0.4-0.3-2.2c0.1-0.5,0.1-1.4,0-1.9c-0.2-0.9-0.2-0.9-0.5-0.2c-0.4,1.1,0.3,1.5-0.4,2.9
	c-0.8,1.8,0-0.6-0.4-0.6c-0.2,0-0.4,0.6-0.3,1.2C83,5,82.2,4.5,82.5,5.4c0.1,0.4,0.1,0.5-0.1,0.4c-0.4-0.3-1.1,0.5-1.3,1.5
	c-0.2,1.2-2.5,0.5-1.9,1.5c0.2,0.4-1.3,0.2-2.2-0.2c-0.7-0.3-1-0.4-1.5-0.1c-1.1,0.5,0,0.4,0,1.1c0,0.7,1.8-0.1,1.2,0.6
	c-0.5,0.6-0.7,0-0.8,0.5c-0.2,0.5-1.5-1.2-1.8-1.2c-0.5,0-1.2-1.3-1.3-2.2c0-0.5-0.2-4.9-0.4-4.3c-0.2,0.6-0.6,0.4-0.7-0.4
	C71.6,1.1,71.3,4,70.8,4s0.5-1-0.4-0.7C70,3.5,70,3.4,70.1,3c0.1-0.3,0.1-0.5,0-0.4c-1.1,0.2,0.1-0.7-0.4-1.5
	c-0.5-0.8,0.2,0.5-0.2,0.6c-0.3,0.1-0.7,1.5-0.4,1.3c0.3-0.2,0.5,1.1-0.2,1.1c-0.8,0,0.2-0.3-0.1-1.2c-0.2-0.5-0.2-0.5-0.4,0.2
	c-0.4,1.5,0-1.9-0.5-1.1c-0.4,0.6,0.3,1.1-0.4,0.6c-0.7-0.6-0.3,0.3-0.7-0.3c-0.2-0.2-0.3,0.5-0.3,1.9c0,1.8,0.1,2.3,0.3,2.1
	c0.2-0.1,0.2,0,0,0.3c-0.4,0.4-0.4,0.4-0.8,0c-0.4-0.4-0.4-0.5-0.1-0.7c0.3-0.2,0.3-0.3-0.1-0.4c-0.2-0.1-1.4,1.8-1.6,2.3
	c-0.7,1.4-1.1,1.8-1.6,1.6c-0.5-0.2,0.1,0.4-0.3,0.4c-0.2,0-0.2,0.1-0.1,0.3c0.4,0.6-1.2-0.1-1.6-1.1c-0.1-0.3-0.2-0.1-0.2,0.3
	c0,0.6-0.1,0.6-0.6-0.4c-0.8-1.6-1-4.3-1.5-3.9c-0.3,0.3-1.6-2.2-1.6-3.1c0-0.6-0.7-1.1-0.5-0.4c0.1,0.3,0.2,0.9,0.3,1.4
	c0.3,1.4-0.1-0.2-0.7-0.5c-0.4-0.2-0.3,1.5,0.1,2c0.4,0.5-0.1,0.9-0.3,0.4c-0.1-0.2-0.3-0.3-0.5-0.3c-0.4,0-1-1.6-1-2.5
	c0-0.5-0.7-1.7-0.5-0.8c0.2,0.6-0.5,0.7-0.8,0.1c-0.1-0.2-0.2-0.1-0.2,0.2c-0.1,1.2-0.8-1.8-0.8-0.6c0,0.8-0.3,1.5,0,2.2
	C52,3.6,52,3.7,51.6,3.5c-0.4-0.2-0.6,0.2-0.2,0.6s0.3,5.3-0.1,6.4c-0.2,0.6-0.4,0.8-0.4,0.6c0-0.6-0.8,0.4-0.7,0.5
	c0.1,0.2-0.2,2.1-0.3,2.6c-0.3-0.3-1.3-1.2-1.1-1.5c0.1-0.1,0-0.3-0.1-0.3c-0.4,0-1-2.2-1.4-2.2c-0.5,0,0.3-1.1-0.3-0.7
	c-0.6,0.4,0.1-0.6-0.3-0.8c-0.3-0.2-0.2,1.4,0.1,1.8c0.3,0.4-0.7,0.1-0.7,0.8c0,0.3-0.2,0.1-0.3-0.5c-0.5-1.7-0.4,0.4-1.1-1.1
	c-0.5-1.2-0.8-0.3-0.8-0.9c0-0.6-1.4-2.3-1.2-2.6c0.1-0.1,0-0.1-0.2,0c-0.4,0.2-0.2,1.5,0.3,2c0.5,0.5-0.5-0.9,0.2-0.2
	c0.3,0.3,0.3,0.4-0.1,0.9c-0.7,0.8,0.1,0.4-0.1,1.6c-0.3,1.5,0.1,3.5-0.4,2.4c-0.9-2.2-0.1,3.3-1.8,1.3c-0.8-0.9,0,0.1-0.5,0.1
	s-0.5-2-0.9-2c-0.4,0,0.4,0.9-0.5,0.1c-0.6-0.5-0.6-0.5-0.5,0c0.3,0.9-0.1,1.1-0.7,0.3c-0.2-0.3-0.3-0.5-0.5-0.8
	c0.3,2.8-0.1,1.1-0.4,1.9c-0.1,0.2-0.2,0.1-0.2-0.1c0-0.4-0.1-0.4-0.4-0.1c-0.3,0.3-0.3,0.6-0.1,1.4c1.2,4.7,1.2,5.5-0.3,5.2
	c-0.6-0.1-0.6-0.1-0.3,0.3c0.6,0.7-0.2,0.5-0.8-0.2c-0.8-0.9-2.1-2.9-2.1-3.2c0-0.4-1.3-1.6-1.5-1.3c-0.3,0.3-1-0.7-1-0.1
	c0,0.6,0.3,0,0.6,0.4c0.3,0.5-0.6,0-0.2,0.8c0.3,0.6,0.3,1.7,0.3,2.5c-0.2-0.4-0.4-0.9-0.6-1.3c-0.5-1.1-0.7-1.3-1-1.1
	C29,16.8,29,17,29.1,17c0.4,0,0.1,2.1,0.6,3.6c0.5,1.4,0.5,2.1,0.1,1.5c-0.2-0.4-0.2,0.7,0.1,2.3c0.1,0.7-0.6,0.6-1.6-0.2
	c-0.5-0.4-1.4-0.8-2.1-1C25.1,23,24.9,23,25,23.5c0,0.3-0.6,0-0.4-0.4c0.1-0.2,0.1-0.2-0.1-0.1c-0.4,0.3-1.2-0.1-1-0.5
	c0.1-0.2,0-0.2-0.2,0c-0.8,0.6-0.8-0.5-1.5-0.5c-0.4,0-1.7-1.4-2.2-1.8c0.2,0.5,0.9,1.8,1.1,2c0.4,0.2,1.1,1.9,1,2.1
	c-0.2,0.4,1.2,0.9,0.7,1.2c-0.5,0.3,0.2,0.9-0.2,0.6c-0.6-0.4,0.4-1-0.7-0.8c-0.5,0.1-0.7,0-0.7-0.2c0-0.4-0.8-0.6,0.9,1.6
	c0.7,0.9,1.5,2.1,1.8,2.6c0.5,0.9,0.5,1,0,1.3c-0.4,0.3-0.7,0.3-1.5-0.1c-1.2-0.5-2.9-0.7-2.9-0.4s1,0.1,0.7,0.6
	c-0.2,0.4-1.3-0.5-1.2-1c0.1-0.5-0.5,0-1.1-0.7c-0.4-0.5-0.4-0.5-0.4,0c0,0.3-0.1,0.5-0.2,0.5c-0.6-0.1-0.6,0.1-0.2,0.5
	c0.8,0.7-0.2-0.2-0.2,0.3s0.6,0.5,0.5,1c0,0.2-0.1,0.2-0.2,0c-0.2-0.5-1.2-1-1.2-0.7c0,0.1,0.2,0.4,0.4,0.6c0.4,0.4,0.5,1.4,0.1,1.2
	c-0.4-0.2,0.2-0.7-0.3-0.5c-0.7,0.3-0.4,1.1,0.8,2.4c1.8,1.8,2,2.4,1.2,2.9c-1,0.7-1.8,0.8-2.1,0.4c-0.1-0.2-0.7-0.6-1.2-0.9
	c-0.9-0.5-0.9-0.5-0.6,0c0.5,0.6,0.1,0.4-0.5,0.4c-0.8,0.1,0.3,0.1,0.4,1.2c0.1,1.1,0.7,0.4,0.5,1c-0.1,0.7,1,0.9,0.2,0.9
	c-0.3,0-0.5-0.2-0.5-0.4c0-0.6-0.8-1.2-1.2-0.8c-0.2,0.2-0.2,0.4,0,0.7c0.7,0.7-0.2-0.9,0.2-0.6c0.4,0.3,0.4,2.2,0.1,2
	c-0.5-0.3,1.1,1.2,0.7,1.4c-0.5,0.3-0.1,1.7-0.7,1.9c-0.7,0.3,0.1,0.6-1.5,1.7c-0.8,0.6-1.1,0.7-1.4,0.4c-0.8-0.7-0.3,0.9-1.5-0.4
	C7.4,45,7.2,46,8.3,46.9c1.1,0.8,0.4,0.9,1.2,1.5c0.8,0.6-0.4,0.1-0.1,0.8c0.2,0.5-0.5,0.8-1,0.5c-0.2-0.1-0.2,0,0.1,0.3
	c0.4,0.5,0.2,1.6-0.2,1.6c-0.5,0-0.9,1.1-0.5,1.5c0.3,0.3,0.5,0.2,1-0.3c1-1-0.1,0.3,0.2,0.3s-0.5,0.6-0.4,1.2
	c0.4,2.2-2.1,3.2-2.4,5.1C5.9,60,5.2,60.7,5.5,60c0.3-0.5-0.9,0.9-0.9,1.1c0,0.1-0.2,0.5-0.4,1c-0.6,1.1-0.6,1.7-0.1,0.7
	c0.6-1,0.6-0.1,0,1.2c-1.3,3,0.8-0.7,1.2-0.7c0.2,0-1.6,3.2-2.1,3.7c-0.5,0.4-0.6,1.6-0.2,2.2c0.2,0.3-0.2,0.5-0.8,0.3
	c-0.2,0-0.1,0.1,0,0.3c0.2,0.2,0.2,0.7-0.2,1.8c-0.6,1.6-1.4,3.9-1.3,4.1c0,0.1,0.4-0.3,0.8-0.8c0.8-0.9,0.8-0.9,0.7-0.2
	C2,75.8,0.7,79,1,79.6c0.1,0.2,0,0.4-0.1,0.3c-0.3-0.2-0.6,1.5-0.8,2.1c-0.3,1,0.5,0.3,0.3,0c-0.2-0.3,0.5-0.6,0.3,0.5
	c-0.1,0.7-0.1,0.7,0.2,0.3c0.6-0.7,0.7-0.6,0.6,0.3c-0.1,0.7-0.1,0.7,0.5-0.2c0.7-1.2,0.7-1.1,0.2,0.7c-0.5,1.9-0.5,6.2,0,6.4
	c0.2,0.1,0.4,0.6,0.4,1.1c0,1.4,0.3,2.7,0.6,2.6c0.4-0.2,0.3,0.4,0.4,1.7c0.3,3.1,0.4,3.8,0.9,3.8c0.3,0,1.4,5.3,1.8,5.3
	c0.2,0,0.3,0.2,0.3,0.5c0,0.8,0.7,2.6,0.9,2.4c0.2-0.2,0.5,2.7,0.8,2.9c0.4,0.3-0.2-0.4,0.2-0.6c0.4-0.3,0.1,0.7,0.6,0.7
	s-0.1-0.9,0.3-1.4c0.5-0.8,0.1,0.9,0.6-0.1c0.5-1.1-0.2,1,0.2,1c0.5,0,0.1,1.8,0.8-0.4c0.1,0.3,0.4,1.5,0,1.5
	c-0.4-0.1-0.2,3.2,0.1,3.6c0.3,0.4,0-3,0-3.4c0.2,1.1,0.8,4.4,0,4.4c-0.4,0,0.2,2.2,0.7,0.4c0.2-0.8,0.8-0.7,0.6,0.2
	c-0.1,0.3,0.1,0.6,0.3,0.6c0.7,0-0.2-1.7,0.3-1.3c0.4,0.3,2.4,4.7,2.4,6.3c0,0.7,0.1,1.1,0.2,1c0.4-0.6,0.9-0.4,0.6,0.3
	c-0.3,1,0.1,2.3,0.6,2c0.2-0.1,0.2,0.1,0.1,0.6c-0.4,1.6,0.9-0.3,1.3,1.4c0.1,0.5,0.2,0.7,0.2,0.5l0,0l0,0L18.2,127.3z"/>
<g>
	<path d="M50.3,93.8c0,0.3-0.1,0.5-0.3,0.6c-1.5,0.5-3.6,0.8-6.1,0.8c-8.2,0-15.2-4.8-15.2-14.9c0-8.9,6.2-15.1,15.9-15.1
		c2.9,0,4.7,0.3,5.8,0.8c0.2,0.1,0.3,0.2,0.3,0.5v4.2c0,0.4-0.2,0.4-0.4,0.3c-1.4-0.7-3.5-1-5.8-1c-6.2,0-10.2,4-10.2,10.2
		c0,7.7,5.7,10.3,10.3,10.3c2.2,0,3.8-0.2,5.5-0.8c0.2-0.1,0.3,0,0.3,0.2V93.8z"/>
	<path d="M71.4,90.2c0,1,0,1.9,0.1,2.8c0,0.1,0,0.1-0.1,0.2c-3.6,1.6-6.2,2-9.2,2c-4.8,0-8.7-2.3-8.7-7.3c0-4.7,4.2-7,10-7
		c1.3,0,2.3,0,2.7,0.1v-0.5c0-1-0.6-3.3-4.5-3.3c-2.2,0-4.2,0.4-5.8,1.2c-0.1,0-0.4,0-0.4-0.3v-3.9c0-0.2,0-0.3,0.3-0.4
		c1.9-0.9,4.3-1.3,6.7-1.3c6.2,0,8.8,3.9,8.8,8.8V90.2z M66.2,85c-0.7-0.1-1.4-0.1-2.4-0.1c-3.5,0-5.1,1.2-5.1,3.1
		c0,1.6,1.2,3.1,4.3,3.1c1.2,0,2.2-0.1,3.1-0.5V85z"/>
	<path d="M93.3,90.2c0,1,0,1.9,0.1,2.8c0,0.1,0,0.1-0.1,0.2c-3.6,1.6-6.2,2-9.2,2c-4.8,0-8.7-2.3-8.7-7.3c0-4.7,4.2-7,10-7
		c1.3,0,2.3,0,2.7,0.1v-0.5c0-1-0.6-3.3-4.5-3.3c-2.2,0-4.2,0.4-5.8,1.2c-0.1,0-0.4,0-0.4-0.3v-3.9c0-0.2,0-0.3,0.3-0.4
		c1.9-0.9,4.3-1.3,6.7-1.3c6.2,0,8.8,3.9,8.8,8.8V90.2z M88.2,85c-0.7-0.1-1.4-0.1-2.4-0.1c-3.5,0-5.1,1.2-5.1,3.1
		c0,1.6,1.2,3.1,4.3,3.1c1.2,0,2.2-0.1,3.1-0.5V85z"/>
	<path d="M98,93.6c-0.2-0.1-0.3-0.3-0.3-0.7v-4.6c0-0.2,0.2-0.3,0.4-0.2c2.4,1.6,5.3,2.3,7.9,2.3c3.6,0,5.2-1.4,5.2-3.3
		c0-1.6-1.1-2.9-4.4-4.3l-2.1-0.9c-5.5-2.3-6.9-5.1-6.9-8.4c0-4.7,3.6-8.4,10.3-8.4c2.8,0,5.3,0.4,6.8,1.2c0.2,0.1,0.3,0.3,0.3,0.6
		v4.3c0,0.2-0.1,0.4-0.4,0.2c-1.7-1-4.1-1.5-6.7-1.5c-3.8,0-5,1.6-5,3.1c0,1.6,1,2.7,4.5,4.2l1.7,0.7c5.8,2.4,7.4,5.2,7.4,8.7
		c0,5.2-4.1,8.6-10.8,8.6C102.6,95.2,99.8,94.5,98,93.6z"/>
</g>
</svg>
