<?xml version="1.0" encoding="utf-8"?>
<svg version="1.1" id="Layer_1" xmlns="http://www.w3.org/2000/svg" xmlns:xlink="http://www.w3.org/1999/xlink" x="0px" y="0px"
	 viewBox="0 0 9 9" style="enable-background:new 0 0 9 9;" xml:space="preserve">
<style type="text/css"> .st0{fill:#006688;}</style>
<g>
	<path class="st0" d="M7.99,5.23C8.77,4.8,8.91,4.26,8,3.72L1.61,0.23C0.83-0.21,0.2,0.15,0.2,1.03v6.88c0,1.13,0.59,1.24,1.37,0.82
		L2.3,8.32c0.12-0.08,0.4-0.32,0.32-0.64C2.55,7.38,2.29,7.29,2,7.37c-0.44,0.24-0.71,0-0.71-0.49v-4.9c0-0.49,0.35-0.69,0.78-0.45
		l4.41,2.52C6.91,4.3,6.91,4.69,6.47,4.93L3.75,6.34V4.67c0-0.26-0.21-0.47-0.47-0.47c-0.26,0-0.47,0.21-0.47,0.47v2.37
		c0,0.26,0.22,0.44,0.47,0.53c0.1,0.04,0.3,0.05,0.44-0.03L7.99,5.23z"/>
	<path class="st0" d="M3.79,3.42c0,0.27-0.22,0.49-0.49,0.49c-0.27,0-0.49-0.22-0.49-0.49S3.03,2.93,3.3,2.93
		C3.57,2.93,3.79,3.15,3.79,3.42"/>
</g>
</svg>
