<svg width="12" height="12" viewBox="0 0 12 12" fill="none" xmlns="http://www.w3.org/2000/svg">
<path d="M6.58349 11.207L10.2837 7.50684C10.606 7.18457 10.606 6.66309 10.2837 6.34082C9.96142 6.01855 9.43994 6.01855 9.11767 6.34082L6.82568 8.63184V1.37403C6.82568 0.917978 6.45654 0.548828 6.00048 0.548828C5.54442 0.548828 5.17528 0.917968 5.17528 1.37403V8.63184L2.88329 6.34082C2.56102 6.01855 2.03954 6.01855 1.71727 6.34082C1.55614 6.50195 1.47508 6.71289 1.47508 6.92383C1.47508 7.13477 1.55613 7.34571 1.71727 7.50684L5.41747 11.207C5.73974 11.5293 6.26122 11.5293 6.58349 11.207Z" fill="white"/>
</svg>
