<svg width="12" height="12" viewBox="0 0 12 12" fill="none" xmlns="http://www.w3.org/2000/svg">
<path d="M6.583 11.207L10.2832 7.50684C10.6055 7.18457 10.6055 6.66309 10.2832 6.34082C9.96093 6.01855 9.43945 6.01855 9.11718 6.34082L6.82519 8.63184V1.37403C6.82519 0.917978 6.45605 0.548828 5.99999 0.548828C5.54393 0.548828 5.17479 0.917968 5.17479 1.37403V8.63184L2.8828 6.34082C2.56053 6.01855 2.03905 6.01855 1.71678 6.34082C1.55565 6.50195 1.47459 6.71289 1.47459 6.92383C1.47459 7.13477 1.55564 7.34571 1.71678 7.50684L5.41698 11.207C5.73925 11.5293 6.26073 11.5293 6.583 11.207Z" fill="white"/>
</svg>
