<svg width="20" height="20" viewBox="0 0 20 20" fill="none" xmlns="http://www.w3.org/2000/svg">
<path d="M11.75 18H4.25002C3.00979 18 2.00002 16.9902 2.00002 15.75V8.25002C2.00002 7.00979 3.00979 6.00002 4.25002 6.00002C4.66408 6.00002 5.00002 6.33596 5.00002 6.75002C5.00002 7.16408 4.66408 7.50002 4.25002 7.50002C3.83693 7.50002 3.50002 7.83693 3.50002 8.25002V15.75C3.50002 16.1631 3.83693 16.5 4.25002 16.5H11.75C12.1631 16.5 12.5 16.1631 12.5 15.75C12.5 15.336 12.836 15 13.25 15C13.6641 15 14 15.336 14 15.75C14 16.9902 12.9902 18 11.75 18Z" fill="#292929"/>
<path d="M6.75002 5.00002C6.33596 5.00002 6.00002 4.66408 6.00002 4.25002C6.00002 3.00979 7.00979 2.00002 8.25002 2.00002C8.66408 2.00002 9.00002 2.33596 9.00002 2.75002C9.00002 3.16408 8.66408 3.50002 8.25002 3.50002C7.83693 3.50002 7.50002 3.83693 7.50002 4.25002C7.50002 4.66408 7.16408 5.00002 6.75002 5.00002Z" fill="#292929"/>
<path d="M13 3.50002H11C10.586 3.50002 10.25 3.16408 10.25 2.75002C10.25 2.33596 10.586 2.00002 11 2.00002H13C13.4141 2.00002 13.75 2.33596 13.75 2.75002C13.75 3.16408 13.4141 3.50002 13 3.50002Z" fill="#292929"/>
<path d="M13 14H11C10.586 14 10.25 13.6641 10.25 13.25C10.25 12.836 10.586 12.5 11 12.5H13C13.4141 12.5 13.75 12.836 13.75 13.25C13.75 13.6641 13.4141 14 13 14Z" fill="#292929"/>
<path d="M15.75 14C15.336 14 15 13.6641 15 13.25C15 12.836 15.336 12.5 15.75 12.5C16.1631 12.5 16.5 12.1631 16.5 11.75C16.5 11.336 16.836 11 17.25 11C17.6641 11 18 11.336 18 11.75C18 12.9902 16.9902 14 15.75 14Z" fill="#292929"/>
<path d="M17.25 5.00002C16.836 5.00002 16.5 4.66408 16.5 4.25002C16.5 3.83693 16.1631 3.50002 15.75 3.50002C15.336 3.50002 15 3.16408 15 2.75002C15 2.33596 15.336 2.00002 15.75 2.00002C16.9902 2.00002 18 3.00979 18 4.25002C18 4.66408 17.6641 5.00002 17.25 5.00002Z" fill="#292929"/>
<path d="M17.25 9.75002C16.836 9.75002 16.5 9.41408 16.5 9.00002V7.00002C16.5 6.58596 16.836 6.25002 17.25 6.25002C17.6641 6.25002 18 6.58596 18 7.00002V9.00002C18 9.41408 17.6641 9.75002 17.25 9.75002Z" fill="#292929"/>
<path d="M6.75002 9.75002C6.33596 9.75002 6.00002 9.41408 6.00002 9.00002V7.00002C6.00002 6.58596 6.33596 6.25002 6.75002 6.25002C7.16408 6.25002 7.50002 6.58596 7.50002 7.00002V9.00002C7.50002 9.41408 7.16408 9.75002 6.75002 9.75002Z" fill="#292929"/>
<path d="M8.25002 14C7.00979 14 6.00002 12.9902 6.00002 11.75C6.00002 11.336 6.33596 11 6.75002 11C7.16408 11 7.50002 11.336 7.50002 11.75C7.50002 12.1631 7.83693 12.5 8.25002 12.5C8.66408 12.5 9.00002 12.836 9.00002 13.25C9.00002 13.6641 8.66408 14 8.25002 14Z" fill="#292929"/>
</svg>
