<svg width="20" height="20" viewBox="0 0 20 20" fill="none" xmlns="http://www.w3.org/2000/svg">
<path d="M17.2501 4.49814H7.75009C7.33603 4.49814 7.00009 4.1622 7.00009 3.74814C7.00009 3.33408 7.33603 2.99814 7.75009 2.99814H17.2501C17.6642 2.99814 18.0001 3.33408 18.0001 3.74814C18.0001 4.1622 17.6642 4.49814 17.2501 4.49814Z" fill="#292929"/>
<path d="M17.2501 10.4981H7.75009C7.33603 10.4981 7.00009 10.1622 7.00009 9.74814C7.00009 9.33408 7.33603 8.99814 7.75009 8.99814H17.2501C17.6642 8.99814 18.0001 9.33408 18.0001 9.74814C18.0001 10.1622 17.6642 10.4981 17.2501 10.4981Z" fill="#292929"/>
<path d="M17.2501 16.4981H7.75009C7.33603 16.4981 7.00009 16.1622 7.00009 15.7481C7.00009 15.3341 7.33603 14.9981 7.75009 14.9981H17.2501C17.6642 14.9981 18.0001 15.3341 18.0001 15.7481C18.0001 16.1622 17.6642 16.4981 17.2501 16.4981Z" fill="#292929"/>
<path d="M4.75009 4.49814H2.75009C2.33603 4.49814 2.00009 4.1622 2.00009 3.74814C2.00009 3.33408 2.33603 2.99814 2.75009 2.99814H4.75009C5.16415 2.99814 5.50009 3.33408 5.50009 3.74814C5.50009 4.1622 5.16415 4.49814 4.75009 4.49814Z" fill="#292929"/>
<path d="M4.75009 10.4981H2.75009C2.33603 10.4981 2.00009 10.1622 2.00009 9.74814C2.00009 9.33408 2.33603 8.99814 2.75009 8.99814H4.75009C5.16415 8.99814 5.50009 9.33408 5.50009 9.74814C5.50009 10.1622 5.16415 10.4981 4.75009 10.4981Z" fill="#292929"/>
<path d="M4.75009 16.4981H2.75009C2.33603 16.4981 2.00009 16.1622 2.00009 15.7481C2.00009 15.3341 2.33603 14.9981 2.75009 14.9981H4.75009C5.16415 14.9981 5.50009 15.3341 5.50009 15.7481C5.50009 16.1622 5.16415 16.4981 4.75009 16.4981Z" fill="#292929"/>
</svg>
