<svg xmlns="http://www.w3.org/2000/svg" width="22.046" height="15.512" viewBox="0 0 22.046 15.512">
  <g id="Group_596631" data-name="Group 596631" transform="translate(9291 9297.035)">
    <path id="Path_967884" data-name="Path 967884" d="M23.826,8.014a4.752,4.752,0,0,0-.883-2.185,3.157,3.157,0,0,0-2.2-.934c-3.083-.224-7.716-.224-7.716-.224h0s-4.628,0-7.716.224a3.157,3.157,0,0,0-2.2.934,4.725,4.725,0,0,0-.878,2.185A32.881,32.881,0,0,0,2,11.585v1.671a33.613,33.613,0,0,0,.219,3.576,4.777,4.777,0,0,0,.874,2.187,3.766,3.766,0,0,0,2.432.943c1.766.168,7.5.219,7.5.219s4.633-.009,7.716-.228a3.164,3.164,0,0,0,2.2-.934,4.752,4.752,0,0,0,.878-2.187,33.523,33.523,0,0,0,.224-3.576V11.585a33.6,33.6,0,0,0-.219-3.571Zm-13.082,7.27v-6.2L16.7,12.2Z" transform="translate(-9293 -9301.705)" fill="#444"/>
  </g>
</svg>
