<svg xmlns="http://www.w3.org/2000/svg" width="20.12" height="17.885" viewBox="0 0 20.12 17.885">
  <g id="Group_596628" data-name="Group 596628" transform="translate(9431.12 9298.408)">
    <circle id="Ellipse_24866" data-name="Ellipse 24866" cx="2" cy="2" r="2" transform="translate(-9419 -9295.408)" fill="#444"/>
    <path id="Path_129410" data-name="Path 129410" d="M13,9.277a2.517,2.517,0,0,1,1.309.693l2.044,1.863V7H13Z" transform="translate(-9429.589 -9298.701)" fill="#444" opacity="0.3"/>
    <path id="Path_129411" data-name="Path 129411" d="M6.963,7.734l2.486,2.487V7H5.19a2.515,2.515,0,0,1,1.774.734Z" transform="translate(-9430.509 -9298.701)" fill="#444" opacity="0.3"/>
    <path id="Path_129412" data-name="Path 129412" d="M5,7.019C5.07,7.013,5.141,7,5.212,7H5Z" transform="translate(-9430.531 -9298.701)" fill="#444" opacity="0.3"/>
    <path id="Path_129413" data-name="Path 129413" d="M5.353,7.471V3A3.353,3.353,0,0,0,2,6.353V7.471Z" transform="translate(-9430.885 -9299.173)" fill="#444" opacity="0.3"/>
    <path id="Path_129414" data-name="Path 129414" d="M14.531,1H5.589A5.6,5.6,0,0,0,0,6.589V13.3a5.6,5.6,0,0,0,5.589,5.589h8.942A5.6,5.6,0,0,0,20.12,13.3V6.589A5.6,5.6,0,0,0,14.531,1ZM5.589,3.236h8.942a3.353,3.353,0,0,1,3.353,3.353V12.54L15.84,10.677a2.5,2.5,0,0,0-3.509-.042l-1.354,1.208-3.4-3.4a2.513,2.513,0,0,0-3.539-.012l-1.8,1.737V6.589A3.353,3.353,0,0,1,5.589,3.236Zm8.942,13.414H5.589A3.353,3.353,0,0,1,2.236,13.3v-.013L5.6,10.024a.278.278,0,0,1,.393,0l4.15,4.152a1.118,1.118,0,0,0,1.536.042l2.186-1.96c.137-.134.224-.167.429.036l3.061,2.794a3.347,3.347,0,0,1-2.827,1.56Z" transform="translate(-9431.12 -9299.408)" fill="#444"/>
    <path id="Path_129415" data-name="Path 129415" d="M11.236,5.794a1.677,1.677,0,0,1,1.677-1.677,1.66,1.66,0,0,1,.559.1V3H9V7.471h3.912a1.677,1.677,0,0,1-1.677-1.677Z" transform="translate(-9430.06 -9299.173)" fill="#444" opacity="0.3"/>
    <path id="Path_129416" data-name="Path 129416" d="M12.5,7.011h.559v-.1a1.66,1.66,0,0,1-.559.1Z" transform="translate(-9429.647 -9298.712)" fill="#444" opacity="0.3"/>
  </g>
</svg>
