<svg xmlns="http://www.w3.org/2000/svg" width="19.206" height="17.605" viewBox="0 0 19.206 17.605">
  <g id="Group_596632" data-name="Group 596632" transform="translate(9237.5 9251.269)">
    <path id="Path_611353" data-name="Path 611353" d="M11.547,16.725c.248.36.416.712.664,1.072a1.732,1.732,0,0,0,1.249.72,2.048,2.048,0,0,0,1.745-.712,1.765,1.765,0,0,0,1.168.8h.256c.584,0,1.372-.336,2.24-2.057l.337-.632-1.08-1.248-.584,1.248c-.168.36-.416.984-.832.9a1.02,1.02,0,0,1-.584-.36,3.208,3.208,0,0,0,.5-2.417,1.13,1.13,0,0,0-.92-.712,1.242,1.242,0,0,0-1.249.712,3.89,3.89,0,0,0-.328,2.153.423.423,0,0,1-.584.36,4.642,4.642,0,0,1-.752-1.617v-.088c1.337-2.153-2.329-2.329-1.913-.176v.088c-.5.712-2.1,2.249-2.881,2.249H1.927L3.36,12.932,12.972,2.689a.256.256,0,0,1,.184-.088.285.285,0,0,1,.184.072l2.049,2.049a.332.332,0,0,1,.008.448L5.9,15.3a.8.8,0,0,0,1.168,1.088l9.5-10.131a1.947,1.947,0,0,0-.04-2.673L14.46,1.536A1.938,1.938,0,0,0,13.124,1a1.828,1.828,0,0,0-1.321.592L2.079,11.964a.771.771,0,0,0-.168.28l-1.865,5.3a.815.815,0,0,0,.1.728.823.823,0,0,0,.656.336h8A5.067,5.067,0,0,0,11.547,16.725Z" transform="translate(-9237.5 -9252.269)" fill="#444" fill-rule="evenodd"/>
    <path id="Path_611354" data-name="Path 611354" d="M4.2,13.3,13.864,2.921a.251.251,0,0,1,.182-.089.28.28,0,0,1,.182.072l2.037,2.171a.338.338,0,0,1,.008.451L6.905,15.522Z" transform="translate(-9238.339 -9252.635)" fill="#444" fill-rule="evenodd"/>
  </g>
</svg>
