<svg xmlns="http://www.w3.org/2000/svg" width="16" height="18.667" viewBox="0 0 16 18.667">
  <g id="Group_596629" data-name="Group 596629" transform="translate(9504.006 9250.722)">
    <path id="Path_625435" data-name="Path 625435" d="M17.222,5.711V17.889H4.778V2.778H14.2ZM14.289,1H4.778A1.783,1.783,0,0,0,3,2.778V17.889a1.783,1.783,0,0,0,1.778,1.778H17.222A1.783,1.783,0,0,0,19,17.889V5.444a1.64,1.64,0,0,0-.444-1.067l-3.2-2.933A1.472,1.472,0,0,0,14.289,1Z" transform="translate(-9507.006 -9251.722)" fill="#444"/>
    <path id="Path_625436" data-name="Path 625436" d="M17.5,5.943v12.22H5V3h9.462Z" transform="translate(-9507.254 -9251.97)" fill="#444" opacity="0.1"/>
    <path id="Path_625437" data-name="Path 625437" d="M8.719,12.745a7.7,7.7,0,0,1-.483.628c-.078.09-.154.172-.228.247a1.284,1.284,0,0,1-.748.462.244.244,0,0,1-.171-.06.339.339,0,0,1-.049-.054A.226.226,0,0,1,7,13.85a.259.259,0,0,1,0-.067.4.4,0,0,1,.022-.072.992.992,0,0,1,.239-.322q.044-.043.1-.087a6.669,6.669,0,0,1,1.611-.931Q8.843,12.568,8.719,12.745Zm5.613-1.653a3.91,3.91,0,0,1,.714.054.475.475,0,0,1,.39.268.324.324,0,0,1,.015.089.433.433,0,0,1-.009.105c-.037.187-.235.308-.506.308a1.043,1.043,0,0,1-.107-.013.932.932,0,0,1-.122-.015,3.75,3.75,0,0,1-1.448-.715c.111-.017.218-.03.32-.04a7.275,7.275,0,0,1,.751-.04Zm-2.156-.222c-.287.059-.583.127-.883.2-.216.056-.435.117-.653.182.116-.232.223-.462.316-.681.123-.289.238-.578.344-.861.093.143.189.281.288.414s.2.258.3.38.2.238.308.349l-.025.005ZM10.694,5.879a.311.311,0,0,1,.023-.031.266.266,0,0,1,.208-.115.245.245,0,0,1,.155.05.649.649,0,0,1,.153.5,3.456,3.456,0,0,1-.048.536,8.549,8.549,0,0,1-.208.932q-.035.127-.075.259a5.367,5.367,0,0,1-.233-.758,3.713,3.713,0,0,1-.088-.618,2.179,2.179,0,0,1,.021-.462.843.843,0,0,1,.094-.289Zm5.671,5.694a.817.817,0,0,0-.051-.212.751.751,0,0,0-.153-.247,1.165,1.165,0,0,0-.291-.218,3.231,3.231,0,0,0-1.507-.282c-.215,0-.445.01-.688.031s-.5.051-.764.092a7.081,7.081,0,0,1-.837-.953,8.663,8.663,0,0,1-.523-.794q.116-.356.2-.678c.034-.126.064-.247.092-.366q.058-.252.1-.479c.018-.1.033-.206.044-.3a3.994,3.994,0,0,0,.029-.465A1.544,1.544,0,0,0,11.5,5.418a.872.872,0,0,0-.168-.094,1.03,1.03,0,0,0-.4-.074.772.772,0,0,0-.381.106.8.8,0,0,0-.287.279,1.685,1.685,0,0,0-.186.866,3.6,3.6,0,0,0,.033.425,5.893,5.893,0,0,0,.492,1.65c-.048.137-.1.274-.146.411-.1.273-.206.547-.321.832-.058.142-.118.286-.181.435a14.864,14.864,0,0,1-.733,1.486,6.864,6.864,0,0,0-2.469,1.483,1.085,1.085,0,0,0-.242.472.763.763,0,0,0-.012.189.7.7,0,0,0,.12.346.812.812,0,0,0,.129.148.861.861,0,0,0,.2.13L7,14.532a1.051,1.051,0,0,0,.181.06,1.2,1.2,0,0,0,.272.031,1.4,1.4,0,0,0,.584-.138,2.3,2.3,0,0,0,.383-.226,4.364,4.364,0,0,0,.73-.688,8.684,8.684,0,0,0,.658-.878c.153-.231.3-.465.427-.692q.3-.1.6-.189c.2-.06.4-.116.606-.168l.128-.031c.4-.1.783-.185,1.147-.248q.1.088.206.167.2.158.4.282.1.062.194.117a3.6,3.6,0,0,0,1.778.517,1.334,1.334,0,0,0,.729-.173.785.785,0,0,0,.106-.081.7.7,0,0,0,.185-.272.739.739,0,0,0,.049-.235A.8.8,0,0,0,16.365,11.573Z" transform="translate(-9507.44 -9252.136)" fill="#444"/>
  </g>
</svg>
