<svg width="48" height="48" viewBox="0 0 48 48" fill="none" xmlns="http://www.w3.org/2000/svg">
<rect width="48" height="48" fill="white"/>
<path d="M46.9932 13.792L42.2822 9.01855C41.7998 8.52583 41.1388 8.24872 40.4492 8.25H26.2998C24.6055 8.26281 23.2412 9.64455 23.25 11.3389V13.0391L19.2822 9.01855C18.7998 8.52583 18.1388 8.24872 17.4492 8.25H3.2998C1.60551 8.26281 0.24124 9.64455 0.25 11.3389V35.6611C0.24124 37.3555 1.6055 38.7372 3.2998 38.75H21.7002C22.5889 38.7456 23.4304 38.3494 24 37.6672C24.5696 38.3494 25.4111 38.7456 26.2998 38.75H44.7002C46.3945 38.7372 47.7588 37.3555 47.75 35.6611V15.6436C47.7526 14.9506 47.4804 14.2848 46.9932 13.792ZM40.75 9.81055C40.9246 9.85707 41.0845 9.94711 41.2148 10.0723L45.9248 14.8447C46.036 14.9604 46.1209 15.0986 46.1738 15.25H41C40.862 15.2497 40.7503 15.138 40.75 15V9.81055ZM17.75 9.81055C17.9246 9.85707 18.0845 9.94711 18.2148 10.0723L22.9258 14.8457C23.0366 14.961 23.1212 15.099 23.1738 15.25H18C17.862 15.2497 17.7503 15.138 17.75 15V9.81055ZM46.25 35.6611C46.2596 36.5274 45.5664 37.238 44.7002 37.25H26.2998C25.4336 37.238 24.7404 36.5274 24.75 35.6611V30.127H23.25V35.6612C23.2596 36.5274 22.5664 37.238 21.7002 37.25H3.2998C2.43359 37.238 1.7404 36.5274 1.75 35.6611V11.3389C1.7404 10.4726 2.43359 9.76197 3.2998 9.75H16.25V15C16.2512 15.966 17.034 16.7488 18 16.75H23.25V22.127H24.75V11.3389C24.7404 10.4726 25.4336 9.76197 26.2998 9.75H39.25V15C39.2512 15.966 40.034 16.7488 41 16.75H46.25V35.6611Z" fill="#CE2783"/>
<path d="M38.1869 26.6455C38.3822 26.4503 38.3822 26.1337 38.1869 25.9384L35.0049 22.7565C34.8096 22.5612 34.4931 22.5612 34.2978 22.7565C34.1025 22.9517 34.1025 23.2683 34.2978 23.4636L37.1262 26.292L34.2978 29.1204C34.1025 29.3157 34.1025 29.6323 34.2978 29.8275C34.4931 30.0228 34.8096 30.0228 35.0049 29.8275L38.1869 26.6455ZM15.8333 26.792L37.8333 26.792V25.792L15.8333 25.792V26.792Z" fill="#1D09F7"/>
<path opacity="0.1" d="M46.4585 14.3186L41.7485 9.5459C41.4068 9.19633 40.9385 8.99949 40.4497 9H26.3001C25.0197 9.01215 23.9909 10.0583 24 11.3386V22.127H30.2139C30.1366 20.4771 31.4115 19.0771 33.0614 18.9998C33.9078 18.9602 34.7312 19.2815 35.3271 19.8838L39.4443 24.0206C40.6134 25.1947 40.6092 27.0943 39.435 28.2633C39.4348 28.2635 39.4351 28.2632 39.435 28.2633L35.2979 32.3799C34.1303 33.5487 32.2364 33.5497 31.0676 32.3822C30.4718 31.787 30.1545 30.9682 30.1936 30.127H24V35.6614C23.9909 36.9417 25.0198 37.9879 26.3001 38H44.7C45.9803 37.9878 47.0091 36.9417 47 35.6614V15.6438C47.0023 15.1478 46.8075 14.6711 46.4585 14.3186Z" fill="#CE2783"/>
</svg>
