<svg viewBox="0 0 36 36" fill="none" xmlns="http://www.w3.org/2000/svg">
  <path
    d="M29.5 4C30.1345 4.00025 30.7453 4.24167 31.2085 4.67535C31.6717 5.10903 31.9527 5.70256 31.9947 6.3357L32 6.5V13.5C31.9997 14.1345 31.7583 14.7453 31.3246 15.2085C30.891 15.6717 30.2974 15.9527 29.6643 15.9947L29.5 16H5.5C4.86547 15.9997 4.25475 15.7583 3.79155 15.3246C3.32835 14.891 3.0473 14.2974 3.00532 13.6643L3 13.5V6.5C3.00025 5.86547 3.24167 5.25475 3.67535 4.79155C4.10903 4.32835 4.70256 4.0473 5.3357 4.00532L5.5 4H29.5ZM29.5 5H5.5C5.12723 5.00025 4.76788 5.13918 4.4919 5.38976C4.21591 5.64034 4.04302 5.98464 4.00687 6.35565L4 6.5V13.5C4.00025 13.8728 4.13918 14.2321 4.38976 14.5081C4.64034 14.7841 4.98464 14.957 5.35565 14.9931L5.5 15H29.5C29.8728 14.9997 30.2321 14.8608 30.5081 14.6102C30.7841 14.3597 30.957 14.0154 30.9931 13.6444L31 13.5V6.5C30.9997 6.12723 30.8608 5.76788 30.6102 5.4919C30.3597 5.21591 30.0154 5.04302 29.6444 5.00687L29.5 5Z"
    fill="#CE2783"></path>
  <path
    d="M13.6786 19C14.2667 19.0002 14.8328 19.2236 15.2627 19.625C15.6926 20.0263 15.9541 20.5758 15.9946 21.1626L16 21.3214V29.6786C15.9998 30.2667 15.7764 30.8328 15.375 31.2627C14.9737 31.6926 14.4242 31.9541 13.8374 31.9946L13.6786 32H5.32143C4.73331 31.9998 4.16718 31.7764 3.73731 31.375C3.30745 30.9737 3.04586 30.4242 3.00536 29.8374L3 29.6786V21.3214C3.00023 20.7333 3.22358 20.1672 3.62496 19.7373C4.02633 19.3074 4.57584 19.0459 5.16257 19.0054L5.32143 19H13.6786ZM13.6786 20H5.32143C4.9944 20.0002 4.67905 20.1216 4.43626 20.3407C4.19348 20.5598 4.04049 20.8611 4.00683 21.1864L4 21.3214V29.6786C4.00023 30.0056 4.12162 30.321 4.34073 30.5637C4.55984 30.8065 4.86113 30.9595 5.18643 30.9932L5.32143 31H13.6786C14.0056 30.9998 14.321 30.8784 14.5637 30.6593C14.8065 30.4402 14.9595 30.1389 14.9932 29.8136L15 29.6786V21.3214C14.9998 20.9944 14.8784 20.679 14.6593 20.4363C14.4402 20.1935 14.1389 20.0405 13.8136 20.0068L13.6786 20Z"
    fill="#CE2783"></path>
  <path opacity="0.1" fill-rule="evenodd" clip-rule="evenodd"
    d="M29.5 4H5.5C4.83703 4.00024 4.20129 4.26371 3.7325 4.7325C3.26371 5.20129 3.00024 5.83703 3 6.5V13.5C3.00024 14.163 3.26371 14.7987 3.7325 15.2675C4.20129 15.7363 4.83703 15.9998 5.5 16H29.5C30.163 15.9998 30.7987 15.7363 31.2675 15.2675C31.7363 14.7987 31.9998 14.163 32 13.5V6.5C31.9998 5.83703 31.7363 5.20129 31.2675 4.7325C30.7987 4.26371 30.163 4.00024 29.5 4Z"
    fill="#CE2783"></path>
  <path opacity="0.1" fill-rule="evenodd" clip-rule="evenodd"
    d="M13.6786 19H5.32143C4.70582 19.0002 4.11548 19.2449 3.68018 19.6802C3.24488 20.1155 3.00023 20.7058 3 21.3214V29.6786C3.00023 30.2942 3.24488 30.8845 3.68018 31.3198C4.11548 31.7551 4.70582 31.9998 5.32143 32H13.6786C14.2942 31.9998 14.8845 31.7551 15.3198 31.3198C15.7551 30.8845 15.9998 30.2942 16 29.6786V21.3214C15.9998 20.7058 15.7551 20.1155 15.3198 19.6802C14.8845 19.2449 14.2942 19.0002 13.6786 19Z"
    fill="#CE2783"></path>
  <path fill-rule="evenodd" clip-rule="evenodd"
    d="M19.5 20H31.5C31.6326 20 31.7598 20.0527 31.8536 20.1464C31.9473 20.2402 32 20.3674 32 20.5C32 20.6326 31.9473 20.7598 31.8536 20.8536C31.7598 20.9473 31.6326 21 31.5 21H19.5C19.3674 21 19.2402 20.9473 19.1464 20.8536C19.0527 20.7598 19 20.6326 19 20.5C19 20.3674 19.0527 20.2402 19.1464 20.1464C19.2402 20.0527 19.3674 20 19.5 20Z"
    fill="#CE2783"></path>
  <path fill-rule="evenodd" clip-rule="evenodd"
    d="M19.5 25H31.5C31.6326 25 31.7598 25.0527 31.8536 25.1464C31.9473 25.2402 32 25.3674 32 25.5C32 25.6326 31.9473 25.7598 31.8536 25.8536C31.7598 25.9473 31.6326 26 31.5 26H19.5C19.3674 26 19.2402 25.9473 19.1464 25.8536C19.0527 25.7598 19 25.6326 19 25.5C19 25.3674 19.0527 25.2402 19.1464 25.1464C19.2402 25.0527 19.3674 25 19.5 25Z"
    fill="#CE2783"></path>
  <path fill-rule="evenodd" clip-rule="evenodd"
    d="M19.5 30H31.5C31.6326 30 31.7598 30.0527 31.8536 30.1464C31.9473 30.2402 32 30.3674 32 30.5C32 30.6326 31.9473 30.7598 31.8536 30.8536C31.7598 30.9473 31.6326 31 31.5 31H19.5C19.3674 31 19.2402 30.9473 19.1464 30.8536C19.0527 30.7598 19 30.6326 19 30.5C19 30.3674 19.0527 30.2402 19.1464 30.1464C19.2402 30.0527 19.3674 30 19.5 30Z"
    fill="#CE2783"></path>
</svg>