<svg width="20" height="20" viewBox="0 0 20 20" fill="none" xmlns="http://www.w3.org/2000/svg">
<g clip-path="url(#clip0_1489_198)">
<path d="M1.99899 15.7448C5.17418 20.1658 11.3271 21.172 15.7447 17.9992C20.1624 14.8265 21.1743 8.67456 17.9991 4.25351C14.8285 -0.161159 8.6713 -1.17384 4.25344 1.99907C-0.164485 5.17201 -1.17162 11.3301 1.99899 15.7448Z" fill="url(#paint0_linear_1489_198)"/>
<path d="M6.21595 13.2952L5.06307 7.96597C4.94444 7.41759 5.6278 7.04852 6.04871 7.43365L7.9524 9.17552L9.46507 6.07773C9.67843 5.64076 10.3215 5.64076 10.5349 6.07773L12.0476 9.17552L13.9513 7.43365C14.3722 7.04852 15.0556 7.41759 14.9369 7.96597L13.784 13.2952C13.7267 13.5602 13.4851 13.75 13.205 13.75H6.79495C6.51492 13.75 6.27327 13.5602 6.21595 13.2952Z" fill="white"/>
</g>
<defs>
<linearGradient id="paint0_linear_1489_198" x1="17.787" y1="17.7873" x2="2.89767" y2="2.89796" gradientUnits="userSpaceOnUse">
<stop stop-color="#3B63FB"/>
<stop offset="0.46817" stop-color="#7155FA"/>
<stop offset="1" stop-color="#B539C8"/>
</linearGradient>
<clipPath id="clip0_1489_198">
<rect width="20" height="20" fill="white"/>
</clipPath>
</defs>
</svg>
