<svg xmlns="http://www.w3.org/2000/svg" width="16" height="16" viewBox="0 0 16 16" fill="none">
  <path d="M15.914 7.7549C16.0287 7.47508 16.0287 7.15954 15.914 6.87972C15.8566 6.73995 15.7737 6.61359 15.6694 6.50813L10.3697 1.15283C9.92818 0.705567 9.2106 0.705567 8.7691 1.15283C8.32704 1.59896 8.32704 2.32408 8.7691 2.77021L12.1368 6.17325L1.1317 6.17325C0.506326 6.17325 0 6.68602 0 7.31738C0 7.94875 0.506326 8.46152 1.1317 8.46152L12.1368 8.46152L8.76911 11.8646C8.32705 12.3107 8.32705 13.0358 8.76911 13.4819C8.98986 13.7056 9.27991 13.8174 9.5694 13.8174C9.85889 13.8174 10.1489 13.7056 10.3697 13.4819L15.6694 8.12664C15.7738 8.02117 15.8566 7.89481 15.914 7.7549Z" fill="#292929"/>
</svg>