<?xml version="1.0" encoding="UTF-8"?><svg id="Layer_1" xmlns="http://www.w3.org/2000/svg" viewBox="0 0 48 48"><defs><style>.cls-1{fill:#fff;fill-rule:evenodd;opacity:.5;}</style></defs><path class="cls-1" d="m40.91,14.5l-.24-.29c-1.26-1.6-2.2-2.67-2.84-3.21-.05-.03-.07-.02-.06.03-.85-.64-1.66-1.16-2.44-1.57-.36-.24-1.22-.61-2.58-1.13-.2-.51-.72-.87-1.58-1.09-2.64-1.1-6.11-1.26-10.42-.48-3.57.84-6.64,2.69-9.2,5.53-.39.46-.64.79-.73,1,1.11-1.24,2.1-2.16,2.99-2.77-3.83,3.39-5.96,7.28-6.38,11.69-.22,2.39-.06,4.58.49,6.55.2.86.92,2.68,2.17,5.46.21.38.62.94,1.24,1.69,3.66,3.87,7.92,5.97,12.78,6.3,5.5.11,9.97-1.46,13.43-4.7,1.08-1.01,1.93-1.96,2.55-2.85.83-1.14,1.55-2.41,2.17-3.82-.09.37-.02.33.19-.13.72-1.49,1.17-3.61,1.32-6.34.21,3.69-1.16,7.56-4.1,11.6-2.64,3.26-6.07,5.4-10.28,6.42-3.91.94-7.96.49-12.16-1.35-2.27-1.15-3.88-2.19-4.83-3.12-1.61-1.45-2.97-3.2-4.09-5.26,1.74,3.63,4.58,6.45,8.51,8.47,3.59,1.81,7.6,2.35,12.03,1.6,6.01-1.3,10.55-4.82,13.61-10.58,2.5-6.04,2.37-11.76-.4-17.14.95,1.65,1.69,3.87,2.22,6.67.09-.49.09-.96,0-1.42-.33-1.53-.63-2.62-.9-3.26l.25.62c1.07,3.37,1.54,5.39,1.42,6.07l.15-1.62c.13.87.1,2.47-.1,4.81-.74,4.84-2.75,8.85-6.04,12.02,2.43-2.1,4.25-4.95,5.46-8.53-.21.8-.51,1.61-.89,2.44-3.08,6.66-8.37,10.7-15.86,12.11,2.99-.29,5.65-1.14,7.97-2.57,2.69-1.54,5-3.69,6.93-6.43-1.57,2.55-3.27,4.47-5.09,5.77-4.55,3.27-9.75,4.58-15.61,3.91-2.51-.33-4.98-1.14-7.42-2.42-.29-.14-.86-.48-1.73-1.03l-1.69-1.2c.16.16.04.09-.37-.23-.87-.67-1.78-1.57-2.76-2.7-4.11-5.08-5.81-10.71-5.12-16.9.95-6.3,3.91-11.24,8.88-14.81,3-2.18,6.18-3.47,9.56-3.88.91-.26,2.73-.29,5.45-.12.03-.1,1.33.17,3.91.81,1.57.38,3.01,1.03,4.32,1.96l-1.42-.38c3.16,1.43,5.63,3.21,7.42,5.35.88,1,1.49,1.8,1.84,2.39l-2.54-2.03,1.16,1.82c-.88-1.03-1.45-1.65-1.7-1.84-.48-.27-.89-.49-1.24-.66l-.09.27c.01.18.06.31.14.37.61.62,1.31,1.6,2.1,2.93.68,1.54.75,1.93.23,1.18h0Z"/></svg>