<?xml version="1.0" encoding="UTF-8"?><svg id="Layer_1" xmlns="http://www.w3.org/2000/svg" viewBox="0 0 48 48"><defs><style>.cls-1{fill:#fff;fill-rule:evenodd;isolation:isolate;opacity:.5;}</style></defs><path class="cls-1" d="m23.37,37.8c-.45.51.85-1.09.4-.59-.13.14-.15.13-.27.26-.2.2-.43.51-.62.72-.37.42-.8.87-1.16,1.31-.18.23-.38.51-.58.7-.37.35-.81.96-1.18,1.32l-1.4,1.48c-.12.14-.22.2-.32.23.33-.42,1.67-1.83,1.77-2.08-.15.09-.63.71-.8.83l.03-.07c.12-.19.82-1.03.99-1.26-.07.03,0-.01-.12.07l-.37.31c-.03-.1.03,0-.02-.12-.12.14-.28.37-.4.45-.22-.12.2-.38.37-.73l-.21.15c-.12.11-.11.1-.24.25,0,0-.06-.02-.07-.03-.08,0-.01-.02-.1.03-.07.03-.15.1-.2.2-.1.21.09,0-.09.21-.09.11-.15.11-.21.1.03-.03.13-.15.13-.16.05-.07.04.02.1-.17-.25.12-.32.35-.33.39-.09.32.14-.23-.02.09-.17.13-.21.22-.35.17.05-.2.27-.47.45-.66.24-.26.21-.14.57-.58.42-.52.79-.92,1.23-1.49-.25.15-.73.78-.93,1.02-.26-.08-.28-.08-.88.7-.22.28-.66.8-.89.98.03-.16.03-.06.13-.23.26-.44-.31.25.69-1.03-.08-.01-.04.02-.12-.04-.4.43-.5.6-.63.57l-.17.24s-.02,0-.03,0c-.1-.04-.98.85-1.29,1.19-.27.3-.32.19-.66.46-.22.17-.12.07-.33.2-.17.11-.2.19-.31.15.14-.21.22-.28.38-.46.15-.18.2-.3.35-.5l-.16.07c.01-.13.17-.36-.35.13-.27.26-.45.5-.43.24-.21.22-.48.5-.71.75-.19.2-.53.61-.71.74-.04-.11.09-.25.11-.39.02-.09.02-.13.14-.3h-.09s0-.01,0-.02c.36-.47.4-.36.67-.88l-.09.07s-.02.02-.03.03c-.13.12-.3.33-.43.41.16-.38.67-.6.81-.99-.1-.02-.19.09-.29.17-.05-.11.02-.14-.03-.23-.16.2-.62.78-.83.91,0,0,.01-.02,0-.03l-.02-.27.7-.89c-.08-.02-.09.03-.19.08-.13.06-.08.03-.2.02-.2.23-.25.27-.42.45-.14.14-.27.31-.38.31l.31-.45c-.01-.07.03-.02-.05-.05-.03-.01-.04,0-.05,0-.18,0,.07.03-.05,0h0s-.04-.02-.04-.02c-.16.15-.6.71-.79.69.08-.13,1.13-1.39,1.27-1.55.29-.31.97-1.2,1.1-1.51-.13.05-.11.07-.24.19l.13-.26c.21-.39,1.09-1.76,1.39-1.78-.33.38-.28.31-.55.58.12.04.22-.05.37-.24.19-.22.23-.32.36-.5.15-.2.16-.15.36-.4.22-.27.2-.27.43-.44l13.78-12.02.26-.35s-.6-.58-.67-.66c-.17-.18-.31-.25-.49-.38-.42-.32-.22-.17-.33-.37-.25-.04-.07.1-.47-.24-.31-.26-.53-.58-.86-.86l-.49-.36c.08.07.21.16.26.2.11.1.03.04.19.18.2.18.26.2.49.44-.27-.12-.2-.21-.23,0l-.23-.22c.22.1.02.05.23.09-.57-.51-.04.12-.5-.32-.05-.05-.13-.16-.26-.27-.46-.41-.15-.14-.64-.61-.21-.2-.37-.31-.56-.49l.28.34s.03.04.04.06c-.34-.31-.42-.45-.75-.69l-10.43-9.65-.93-1.1c-.08-.15-.02-.09,0-.17-.2-.21-.23-.22-.43-.4-.37-.33-.18-.16-.31-.37-.19-.32-.41-.46-.73-.77.23.13.18.1.7.56.26.24.47.47.74.71l-.06-.09c-.24-.32.24.26-.08-.1-.17-.19-.34-.31-.53-.5.02-.06.07,0,.18.09l-1.96-2.14c.18.09.18.14.28.1-.05-.05-.15-.15-.18-.19l-.1-.14s-.02-.03-.02-.06l-.46-.52c.43.23.89.96,1.25.97-.12-.22-.38-.37-.51-.6l.37.3c-.19-.22-.4-.36-.48-.55.58.45,1.15.99,1.77,1.41-.07-.19-.17-.2-.02-.15.09.03.22.15.32.23.2.17.45.43.66.52-.13-.3-.28-.41-.38-.69.27.04.45.22.79.5-.07-.1-.16-.21-.24-.32l-.21-.29c.11.08.2.15.27.19l.31.19-.66-.64h.19s-.2-.25-.2-.25c.33.17-.01-.09.41.27.22.18.17.19.34.17l-.32-.38.54.41c-.1-.16-.25-.26-.37-.43l-.12-.18c-.11-.14.04.04-.08-.1-.08-.09-.11-.11-.19-.21.2.06.98.76,1.29,1.03l1.26.95-.65-.62.12-.02,1.52,1.27c-.2-.36-1.91-1.89-2.35-2.37l-.3-.39s.17.14.19.16c.14.12.27.24.41.37.23.19.48.36.67.47-.34-.36-1.16-1.11-1.39-1.37-.1-.12-.05-.06-.09-.14.7.64,1.32,1.21,2.02,1.76l-1.08-1.13c-.43-.38-.74-.61-1.17-1.04.53.22,1.52,1.24,2.07,1.64,1.03.75,10.01,9.15,4.45,3.98-.42-.4-1.7-1.53-1.96-1.88.27.15,2.5,2.29,2.94,2.69,1.91,1.71,9.78,8.93,10.09,9.11l4.44,4.17-.7,1.3c-.3.33-10.75,8.98-11.03,9.39"/></svg>