<?xml version="1.0" encoding="UTF-8"?><svg id="Layer_1" xmlns="http://www.w3.org/2000/svg" viewBox="0 0 48 48"><defs><style>.cls-1{fill:#01a601;fill-rule:evenodd;}</style></defs><path class="cls-1" d="m40.9,14.5l-.24-.29c-1.26-1.6-2.2-2.67-2.84-3.21-.05-.03-.07-.02-.06.03-.17-.13-.34-.25-.51-.38,3.6,3.42,5.86,8.32,5.86,13.76,0,3.48-.92,6.74-2.53,9.53.62-.95,1.18-1.98,1.67-3.11-.09.37-.02.33.19-.13.72-1.49,1.17-3.61,1.32-6.34.21,3.69-1.16,7.56-4.1,11.6-1.69,2.08-3.7,3.71-6.03,4.88-1.77,1-3.71,1.69-5.77,2.04.32-.04.64-.09.97-.14,6.01-1.3,10.55-4.82,13.6-10.58,2.5-6.04,2.37-11.76-.39-17.14.95,1.65,1.69,3.87,2.21,6.67.09-.49.09-.96,0-1.42-.33-1.53-.63-2.62-.91-3.26l.25.62c1.07,3.37,1.54,5.39,1.43,6.07l.15-1.62c.13.87.1,2.47-.09,4.81-.74,4.84-2.76,8.85-6.04,12.02,2.43-2.1,4.26-4.95,5.47-8.53-.21.8-.51,1.61-.89,2.44-3.08,6.66-8.37,10.7-15.86,12.11,2.99-.29,5.65-1.14,7.97-2.57,2.69-1.54,5-3.69,6.93-6.43-1.57,2.55-3.26,4.47-5.09,5.77-4.55,3.27-9.75,4.58-15.61,3.91-2.51-.33-4.98-1.14-7.41-2.42-.29-.14-.87-.48-1.73-1.03l-1.69-1.2c.16.16.04.09-.37-.23-.86-.67-1.78-1.57-2.75-2.7-4.11-5.08-5.82-10.71-5.12-16.9.95-6.3,3.91-11.24,8.88-14.81,3-2.18,6.19-3.47,9.56-3.88.91-.26,2.73-.29,5.46-.12.02-.1,1.33.17,3.91.81,1.57.38,3.01,1.03,4.32,1.96l-1.42-.38c3.16,1.43,5.63,3.21,7.42,5.35.88,1,1.49,1.8,1.84,2.39l-2.54-2.03,1.17,1.82c-.89-1.03-1.45-1.65-1.7-1.84-.48-.27-.89-.49-1.25-.66l-.09.27c.02.18.06.31.14.37.61.62,1.31,1.6,2.1,2.93.68,1.54.75,1.93.22,1.18h-.02Zm-20.58,19.65l-1-.64c-.24-.26-.52-.58-.83-.84,0,.1.1.12.04.18-.16.15-1.39-1.35-1.58-1.55-.39-.39.82.75.45.35-.1-.11-.09-.13-.19-.23-.15-.17-.39-.38-.55-.54-.31-.32-.65-.69-.98-1.01-.17-.16-.39-.34-.52-.51-.26-.32-.72-.71-1-1.03l-1.11-1.21c-.1-.11-.14-.19-.16-.27.32.29,1.37,1.45,1.57,1.54-.07-.12-.53-.55-.62-.69l.05.03c.15.1.79.72.95.87-.02-.06.01,0-.05-.1l-.22-.32c.09-.02,0,.02.1,0-.11-.1-.28-.25-.34-.35.11-.17.29.18.56.34l-.11-.17q-.07-.1-.18-.2l.02-.05c0-.06.02,0-.01-.09-.03-.06-.07-.13-.16-.17-.16-.09,0,.07-.16-.08-.09-.08-.08-.13-.07-.18.03.02.12.11.12.12.05.04-.01.03.13.09-.08-.21-.26-.27-.3-.29-.25-.09.18.13-.07-.02-.09-.14-.17-.19-.12-.29.16.06.36.24.51.4.19.21.1.18.43.49.39.37.69.69,1.12,1.08-.1-.21-.58-.64-.77-.81.08-.2.08-.22-.51-.75-.21-.19-.6-.58-.73-.77.13.03.05.03.18.12.34.24-.18-.26.79.61.01-.07-.01-.03.04-.1-.32-.35-.45-.43-.42-.54l-.18-.15v-.02c.04-.08-.63-.84-.89-1.11-.23-.23-.13-.27-.33-.56-.13-.19-.04-.1-.14-.28-.08-.14-.14-.17-.1-.26.16.13.21.2.35.33s.23.18.38.31l-.04-.13c.1.02.28.16-.08-.29-.19-.23-.38-.39-.17-.36-.17-.18-.38-.41-.56-.62-.14-.16-.46-.46-.55-.61.09-.03.19.09.31.12.07.02.1.02.23.13v-.07h.02c.35.32.27.34.67.59l-.06-.08s-.01-.02-.02-.03c-.09-.11-.25-.26-.31-.37.29.15.45.58.75.71.02-.08-.06-.16-.12-.25.09-.03.11.02.18-.01-.14-.14-.59-.54-.68-.72,0,0,.02.01.03,0h.22l.68.62c.02-.07-.02-.07-.05-.16-.04-.11-.02-.06,0-.16-.17-.18-.2-.22-.33-.37-.11-.12-.24-.24-.23-.33l.34.27c.06,0,.02.02.04-.03.01-.03,0-.03,0-.04,0-.14-.03.06,0-.04h0l.02-.03c-.12-.14-.53-.52-.51-.67.1.07,1.06.99,1.17,1.11.23.25.91.85,1.15.97-.03-.1-.05-.09-.14-.21l.2.12c.3.19,1.35.98,1.35,1.22-.29-.29-.23-.24-.43-.48-.04.09.03.18.16.31.17.17.25.2.38.32.16.13.11.14.3.32.21.19.2.17.33.38l2.59,2.61.26.23s.51-.45.57-.5c.15-.13.22-.23.34-.37.28-.32.15-.17.31-.25.05-.2-.07-.06.23-.36.23-.23.49-.39.74-.64l.32-.37c-.06.06-.14.16-.18.19-.09.09-.03.02-.16.14-.16.15-.17.2-.38.36.11-.21.18-.15.01-.19l.19-.17c-.09.17-.04.01-.08.18.44-.43-.09-.04.29-.38.04-.04.13-.09.23-.19.35-.35.12-.11.53-.48.17-.16.27-.28.42-.42l-.29.21s-.03.02-.05.03c.26-.26.38-.31.59-.56l8.37-7.81.94-.68c.13-.06.07,0,.13,0,.18-.15.19-.17.35-.32.29-.28.14-.14.32-.23.27-.14.39-.3.66-.54-.12.18-.09.14-.49.53-.21.2-.41.35-.62.55l.08-.04c.27-.17-.22.17.08-.06.16-.12.27-.25.43-.39.04.02,0,.06-.08.14l1.83-1.45c-.09.14-.12.14-.1.22.04-.03.13-.11.17-.13l.12-.07s.03-.01.04-.01l.45-.34c-.2.33-.83.66-.85.95.18-.09.32-.29.52-.38l-.26.28c.18-.14.31-.3.46-.35-.39.44-.86.87-1.23,1.34.16-.04.17-.12.12,0-.03.07-.13.17-.2.25-.14.15-.37.34-.45.5.25-.09.35-.2.58-.26-.05.21-.2.35-.45.61.08-.05.17-.12.27-.17l.25-.15c-.07.08-.13.15-.17.2l-.18.24.56-.49v.16l.2-.15c-.16.26.07,0-.24.32-.16.16-.16.12-.16.26l.32-.24-.37.41c.14-.07.23-.19.37-.27l.15-.09c.12-.08-.04.03.08-.06.08-.06.1-.09.19-.14-.06.16-.67.74-.9.98l-.84.95.54-.48v.1l-1.1,1.15c.3-.14,1.63-1.42,2.04-1.75l.33-.22s-.13.13-.14.14c-.11.11-.22.2-.32.31-.17.17-.32.37-.42.51.3-.25.96-.87,1.18-1.03.1-.07.04-.04.12-.07-.55.53-1.05.99-1.53,1.52l.97-.8c.33-.32.53-.56.91-.88-.21.42-1.08,1.15-1.44,1.57-.66.79-7.94,7.51-3.46,3.35.34-.32,1.33-1.27,1.63-1.47-.13.21-1.99,1.87-2.33,2.21-1.49,1.43-7.75,7.34-7.92,7.57l-3.61,3.32h-.02Zm-8,3.71c-1.58-1.43-2.92-3.17-4.03-5.2,1.66,3.45,4.31,6.18,7.94,8.17-1.43-.81-2.75-1.81-3.91-2.97h0Z"/></svg>