<?xml version="1.0" encoding="UTF-8"?><svg id="Layer_1" xmlns="http://www.w3.org/2000/svg" viewBox="0 0 48 48"><defs><style>.cls-1{fill:none;}.cls-2{fill:#cbaaff;}</style></defs><path class="cls-1" d="m33.06,29.71c-.22.46-.46.82-.68,1.11.42-.47.96-1.37,1.19-2.37.09-.33.13-.66.15-.98-.11.8-.38,1.6-.77,2.36.04-.04.07-.08.11-.12Z"/><path class="cls-1" d="m33.54,27.34c-.18,1.11-.66,2.25-1.39,3.28.26-.21.54-.47.81-.78.39-.76.66-1.56.77-2.36.05-.61.03-1.16.04-1.53-.06.05-.12.1-.18.14.03.4.01.84-.04,1.25Z"/><path class="cls-1" d="m32.15,31.09c.08-.09.15-.16.23-.27-.05.06-.1.11-.15.16-.03.04-.05.07-.08.1Z"/><path class="cls-1" d="m31.61,31.64c.16-.13.34-.32.54-.54.03-.03.05-.07.08-.1-.47.51-.8.77-.62.65Z"/><path class="cls-1" d="m8.31,32.66c1.66,3.45,4.3,6.17,7.94,8.17-1.43-.81-2.75-1.81-3.92-2.97-1.58-1.43-2.92-3.17-4.02-5.2Z"/><path class="cls-2" d="m32.95,29.83c-.21.4-.45.79-.72,1.15-.47.51-.8.77-.62.65.16-.13.34-.32.54-.54.08-.09.15-.16.23-.27.42-.47.96-1.37,1.19-2.37.09-.33.13-.66.15-.98.05-.61.03-1.16.04-1.53-.06.05-.12.1-.18.14.03.4.01.84-.04,1.25-.18,1.11-.66,2.25-1.39,3.28.26-.21.54-.47.81-.78Z"/><path class="cls-2" d="m33.76,25.88s0,.05,0,.07c0,0,.02-.01.02-.02.11.14.22.28.32.42,0-.02,0-.06-.01-.08-.1-.13-.22-.26-.34-.38Z"/><path class="cls-2" d="m33.53,26.12s.03-.03.05-.04"/><path class="cls-2" d="m2.92,26.89c.74,4.84,2.75,8.85,6.03,12.02-2.43-2.1-4.25-4.94-5.46-8.53.21.8.51,1.61.89,2.44,3.08,6.66,8.36,10.7,15.86,12.11-2.99-.29-5.64-1.14-7.97-2.57-2.69-1.54-5-3.69-6.93-6.43,1.57,2.55,3.26,4.47,5.09,5.77,4.54,3.27,9.75,4.57,15.61,3.91,2.51-.33,4.98-1.14,7.41-2.42.29-.14.86-.48,1.73-1.03l1.69-1.2c-.16.16-.04.09.37-.23.86-.67,1.78-1.57,2.75-2.7,4.11-5.07,5.81-10.71,5.12-16.89-.95-6.29-3.91-11.23-8.88-14.8-3-2.18-6.18-3.47-9.56-3.88-.91-.26-2.72-.29-5.45-.12-.03-.1-1.33.17-3.91.81-1.57.37-3.01,1.03-4.32,1.96l1.42-.38c-3.16,1.43-5.63,3.21-7.42,5.35-.88,1-1.48,1.8-1.84,2.39l2.54-2.03-1.16,1.82c.88-1.03,1.45-1.64,1.7-1.84.48-.27.89-.49,1.25-.66l.08.27c-.01.18-.06.31-.14.37-.61.62-1.31,1.6-2.1,2.93-.68,1.54-.75,1.93-.22,1.18l.24-.29c1.25-1.6,2.2-2.67,2.84-3.21.05-.03.07-.02.06.03.17-.13.34-.25.51-.37-3.6,3.42-5.85,8.31-5.85,13.75,0,3.48.92,6.74,2.53,9.53-.63-.95-1.18-1.98-1.67-3.1.09.37.03.33-.19-.13-.73-1.49-1.17-3.6-1.33-6.34-.21,3.69,1.16,7.55,4.1,11.59,1.69,2.08,3.7,3.71,6.03,4.87,1.77.99,3.71,1.69,5.77,2.03-.32-.04-.65-.09-.97-.14-6.01-1.3-10.54-4.82-13.6-10.57-2.5-6.04-2.37-11.75.4-17.13-.95,1.64-1.69,3.87-2.22,6.67-.09-.49-.09-.96,0-1.41.33-1.53.63-2.62.9-3.26l-.25.62c-1.07,3.37-1.54,5.39-1.42,6.06l-.15-1.62c-.13.86-.1,2.47.09,4.81Zm28.83,13.94c1.43-.81,2.75-1.81,3.92-2.97,1.58-1.43,2.92-3.17,4.02-5.2-1.66,3.45-4.3,6.17-7.94,8.17Zm-15.91-9.13c1.05,1.62,3.33,2.37,5.16,3.2-2.27-.87-4.3-2.17-5.58-3.81-.73-.92-1.23-1.91-1.44-2.81-.2-.83-.17-1.53-.1-1.93-.51.67-.95,1.31-1.23,1.74-.34.53-.5.84-.5.84-.38.5-.57.78-.67.93.1-.28.36-.82.36-.82l-.16.32-.35.5.16-.35c-.15.16-.55.87-.55.87.05-.28.65-1.31,1.24-2.28.33-.54.63-1.02.85-1.38.19-.29.32-.5.36-.56-.16.12-.41.42-.7.79-.29.39-.64.9-.98,1.39-.63.97-1.29,1.97-1.29,1.97.03-.2.69-1.3,1.35-2.35.34-.53.66-1.04.9-1.41.34-.51.56-.84.56-.84-.05.05-.17.21-.35.45-.09.13-.22.31-.37.52-.27.41-.63.95-1,1.5-.68,1.06-1.37,2.12-1.37,2.12.06-.19.55-.96,1.19-1.92.33-.49.69-1.02,1.05-1.55.55-.79,1.11-1.58,1.61-2.29,1.58,1.12,2.79,1.97,2.79,1.97.88.64,1.42,1.28,1.42,1.28.85.76,1.12.98,1.2,1.04h0s.05.05,0,0l-.44.52-.3.37c-.34.48-.19.16-.19.16-1.61-1.83-2.87-2.86-4.01-3.76.42,1.78,1.06,3.76,2.19,5.25.7.92,1.79,1.52,2.89,2,.83.35,1.71.57,2.61.67.02,0,.06,0,.08,0-1.94-.29-3.82-1.17-5.16-2.53.04.03.09.06.13.09-.11-.1-.22-.2-.33-.31-.02-.04-.04-.08-.07-.12h0c.27.03,1.01.72,1.96,1.13.84.57,1.71.74,1.97.86.42.18,1.16.45,1.69.57.18.04.34-.03.47.06,0,.05.08.09.14.13.37.06.74-.12,1.03.02.22.06.69-.77.73-.63.21.51.06.14.5.03.05-.02.27.16.38.12.33-.21.49-.05.92-.11.25-.01.4-.07.53-.13,0,0,0,0,0,0,.13-.06.24-.13.38-.17.74-.37,1.42-.83,2.01-1.35,1.31-1.16,2.21-2.61,2.71-4.08,0,0,0,0,0,0l.25-.85.11-.49c.31-1.7.17-3.43-.37-4.96-.53-1.56-1.45-2.94-2.61-4.07-.67-.58-1.44-1.03-2.22-1.38-1.62-.74-3.45-.95-5.22-.73-.79.09-1.85.4-2.82.76-.97.34-1.87.71-2.6.5.39-.46,1.01-.76,1.43-1.15-.24.03-.54.05-.8.16.2-.16.4-.35.64-.43-.2.06-.41.1-.55.04.23-.22.71-.3.95-.35.15-.04.85-.07.99-.19-.53-.03-1.17.08-1.68.06.14-.1.3-.18.42-.29-.24,0-.61.2-.79.14.37-.25.76-.37,1.15-.6.32-.18.62-.34.97-.42-.43.06-.99.23-1.36.2.15-.15.36-.22.55-.29-.03,0-.06-.02-.07-.04.08-.04.18-.13.27-.16,0-.01,0-.03-.01-.05l-.03-.05.03.05h0s.05-.05.05-.05c.41-.24.89-.36,1.34-.43.94-.13,1.65-.8,2.63-.69,1.18.15,2.39-.19,3.6.25,1.09.39,2.08,1.01,2.99,1.68.92.66,1.74,1.41,2.55,2.17,1.56,1.43,2.57,3.32,3.08,5.32.44,1.81.5,3.71.17,5.68.06-.01.14-.03.14-.03.11.76.19,1.72-.26,2.32-.08.14-.29.33-.43.45-.07.06-.07.26-.09.33-.11.03-.2.02-.29,0-.23.47-.49.94-.81,1.38-.84,1.18-1.95,2.19-3.18,2.89-.88.53-2.29,1.26-3.79,1.57-1.5.33-3.01.27-3.84-.1,1.14.21,2.35.11,3.51-.16,1.15-.32,2.23-.8,3.15-1.43-.68.34-1.41.6-2.14.81-.43.15-.87.29-1.31.38-1.21.26-2.51.32-3.88-.1-.02,0-.03-.01-.04-.02-2.33-.41-4.97-1.69-6.18-3.55Z"/><path class="cls-2" d="m14.67,24.71c-.07.45-.1.92-.09,1.4.08.02.15.03.23.04-.08-.49-.13-.97-.14-1.43Z"/><path class="cls-2" d="m17.72,31.7c.16.64.71.71,1.3,1.11,0,0,.17.05.37.1-1.02-.63-1.9-1.43-2.6-2.31-.32-.4-.6-.83-.84-1.26.02.26.09.51.33.8.42.49.71,1.39,1.44,1.56Z"/><path class="cls-2" d="m29.36,32.46c-.39.27-.74.53-1.15.72.94-.37,1.83-.9,2.59-1.57-.21.13-.43.22-.63.36-.23.19-.55.33-.8.49Z"/></svg>