<?xml version="1.0" encoding="UTF-8"?><svg id="Layer_1" xmlns="http://www.w3.org/2000/svg" viewBox="0 0 48 48"><defs><style>.cls-1{fill:red;fill-rule:evenodd;}</style></defs><path class="cls-1" d="m40.9,14.51l-.24-.29c-1.25-1.6-2.2-2.67-2.84-3.21-.05-.03-.07-.02-.06.03-.17-.13-.34-.25-.51-.37,3.6,3.42,5.85,8.31,5.85,13.75,0,3.48-.92,6.74-2.53,9.53.63-.95,1.18-1.98,1.67-3.1-.09.37-.03.33.19-.13.73-1.49,1.17-3.6,1.33-6.34.21,3.69-1.16,7.55-4.1,11.59-1.69,2.08-3.7,3.71-6.03,4.87-1.77.99-3.71,1.69-5.77,2.03.32-.04.65-.09.97-.14,6.01-1.3,10.54-4.82,13.6-10.57,2.5-6.04,2.37-11.75-.4-17.13.95,1.64,1.69,3.87,2.22,6.67.09-.49.09-.96,0-1.41-.33-1.53-.63-2.62-.9-3.26l.25.62c1.07,3.37,1.54,5.39,1.42,6.06l.15-1.62c.13.86.1,2.47-.09,4.81-.74,4.84-2.75,8.85-6.03,12.02,2.43-2.1,4.25-4.94,5.46-8.53-.21.8-.51,1.61-.89,2.44-3.08,6.66-8.36,10.7-15.86,12.11,2.99-.29,5.64-1.14,7.97-2.57,2.69-1.54,5-3.69,6.93-6.43-1.57,2.55-3.26,4.47-5.09,5.77-4.54,3.27-9.75,4.57-15.61,3.91-2.51-.33-4.98-1.14-7.41-2.42-.29-.14-.86-.48-1.73-1.03l-1.69-1.2c.16.16.04.09-.37-.23-.86-.67-1.78-1.57-2.75-2.7-4.11-5.07-5.81-10.71-5.12-16.89.95-6.29,3.91-11.23,8.88-14.8,3-2.18,6.18-3.47,9.56-3.88.91-.26,2.72-.29,5.45-.12.03-.1,1.33.17,3.91.81,1.57.37,3.01,1.03,4.32,1.96l-1.42-.38c3.16,1.43,5.63,3.21,7.42,5.35.88,1,1.48,1.8,1.84,2.39l-2.54-2.03,1.16,1.82c-.88-1.03-1.45-1.64-1.7-1.84-.48-.27-.89-.49-1.25-.66l-.08.27c.01.18.06.31.14.37.61.62,1.31,1.6,2.1,2.93.68,1.54.75,1.93.22,1.18h0Zm-21.3,2.44c.24.31.54.44.75.75h0c-.06-.05-.11-.1-.16-.15-.2-.19-.38-.35-.58-.53-.71-.65-2.45-2.38-2.97-2.81-.2-.17-.22-.11-.39-.26l-.14-.1c.03.09.64.75.74.84.63.64,1.19,1.15,1.83,1.76.19.19.77.69.87.82-.06,0-.38-.32-.48-.4-.27-.22-1.25-1.15-1.51-1.41-.21-.2-.31-.25-.48-.42l-1.04-1c-.09-.09-.45-.46-.44-.36.01.05.1.13.16.19.21.2.42.4.62.61.03.11-.07-.01.01.1.03.05.07.06.12.14-.14-.09-1.07-1.03-1.33-1.27-.13-.13-.33-.35-.36-.21.02.06.34.35.39.41.14.14.29.28.44.42.15.15.71.67.78.79-.21-.16-.95-.93-1.04-.97-.01.12.41.4.42.54-.12-.08-.74-.69-.89-.86-.15-.16-.15-.15-.27-.19-.04.07.04.13-.02.18-.14-.06-.21-.15-.36-.18-.1-.01-.23.01-.27.08-.1.17.44.61.54.8-.12.06-.32-.26-.51-.43-.1.01-.16.1-.07.27l.1.15c-.08.03-.18-.11-.24.01.1.27.89,1.05,1.22,1.4l1.08,1.11c.1.1.28.27.35.39-.23-.19-.44-.45-.67-.62-.27-.2-1.06-1.15-1.21-1.18.19.29,1.57,1.54,1.7,1.82-.49-.42-1.83-1.89-2.16-2.15-.31.06.13.45.58.92.29.3.16.15.21.31,0,0,0,.01,0,.01-.31-.3-.61-.62-.89-.93-.1-.11-.2-.24-.28-.24,0,.07.07.12.16.22.07.08.17.17.2.24-.2.01-.68-.78-.79-.58.46.62,1.9,2.01,2.55,2.69.09.1.1.14.16.21.1.12.42.41.66.68-.08.07-.24-.13-.42-.31-.16-.16-.28-.26-.43-.4-.23-.21-.74-.65-.9-.84-.16-.18-.27-.25-.43-.39-.18-.16-.52-.53-.68-.63-.2-.13-.4-.42-.59-.41.11.19.33.39.49.58.06.07.08.12.14.19.22.25.6.58.82.83.14.16-.03.04.31.37.21.2,1.23,1.17,1.27,1.24,0,.02.04.18.03.2-.07,0-.09-.03-.14-.01.04.07.08.14.14.22.17.21.14.18.19.25.09.12,1.5,1.27,1.58,1.44-.09-.04-.8-.69-.95-.84-.17-.16-.3-.27-.47-.41-.12-.1-.39-.38-.48-.4-.01.07.32.4.42.49.17.16.35.32.53.49l4.07,3.88c-1.66,1.51-3.3,3.03-4.87,4.57-.77.76-1.57,1.47-2.33,2.22-.81.8-.37.43-.59.68l.52-.45c-.07.16-.23.28-.37.42l-.76.76c-.14.16-.08.09-.14.19,0,.01-.05.08-.06.1l.17.06v.18c.33-.19.48-.41.74-.63-.01,0,.05-.09-.03.02-.07.11-.16.04,0,.03.06,0,.07-.03.15-.06-.32.26-.66.58-.86.88l.65-.46c-.13.14-.2.22-.36.36-.07.07-.14.14-.21.2l-.16.2c.37-.31.47-.3.89-.68.58-.53,1.99-1.86,2.45-2.23-.28.36-2.64,2.44-3.04,2.91.1.01.21-.07.21-.07,0,0,.03-.01.04-.02-.16.17-.09.06-.13.19.37-.23.96-.91,1.72-1.5l-.17.2c.34-.27.65-.56.99-.82.37-.28.48-.51.86-.66l-1.31,1.25.28-.17c-.1.26.09.05-.2.35l-1.13,1.11c.67-.56,1.25-1.2,1.95-1.73-.23.28-1.34,1.33-1.73,1.69l-.5.5s-.01.03-.02.04c.33-.2,2.42-2.26,2.93-2.73,1.04-.96,2.06-1.89,3.13-2.81-.52.54-2.31,2.12-3.02,2.78l-2.8,2.68,1.87-1.59c-.14.17-.59.59-.79.78-.14.13-.24.23-.38.36-.24.22-.21.18-.27.36l3.1-2.8,1.65-1.34c-.14.09-1.57,1.44-1.87,1.72-.33.32-.23.27-.4.53-.13.21-1.55,1.43-1.73,1.71-.14.22.02.14-.42.53.13-.02.12-.03.31-.19-.04.07-.13.17-.19.27.28-.03.81-.52,1.13-.79l.66-.48c-.04.13-.06.13-.2.28.09.14.19-.04.04.22.46-.37.26-.02.64-.2l6.85-6.17,8.74,8.31-.55-.63.58.53c.09-.14-.18-.45-.32-.62-1.46-1.83-2.7-3.25-4.3-5l5.29,5.47c.16.19.03.05.16.13.18.13.17.21.35.32l-.09-.25c-.23-.45-1.1-1.65-1.25-1.93.14.13.24.25.38.32.03-.19-.72-1.02-.71-1.13,0-.1-.04,0,.03,0,.12-.02,0,.12.04,0-.14-.16-.27-.28-.4-.43-.11-.13-.17-.25-.29-.4-.23-.27-.52-.58-.75-.84.52.66,1.73,1.76,2.38,2.31-.05-.1-.04-.11-.1-.2.01.01.09.09.1.09l.14.08c-.9-1-.03-.22-.88-1.22-.13-.16-.2-.28-.31-.43-.32-.42-.81-.85-1.08-1.28-.11-.17-.24-.26-.35-.43l.9.94c-.05-.08-.13-.16-.21-.26-.16-.21-.03-.06-.14-.29-.06-.07-.36-.26-.49-.45-.14-.19-.08-.04-.07-.17.48.27,1.13,1.2,1.5,1.39.25.12.11,0,.52.42-.07-.16-.32-.39-.4-.54l1.05,1.03c-.17-.38-.75-.85-1.06-1.24.3.22.45.44.74.68l-.09-.14s-.1-.12-.14-.17c-.29-.31-.65-.66-.85-.98.55.51.27.26.43.5.24.04.18.04.57.43.74.74.8.77,1.53,1.34.22.17.84.23.44-.12-.14-.12-.14-.06-.29-.21-.06-.06-.19-.24-.26-.3-.15-.15-.22-.08-.43-.46l-7.04-6.79,5.33-4.8c-.28.16-1.18,1.01-1.49,1.28-4.05,3.61,2.43-2.09,3.15-2.95.32-.38,1.12-1.01,1.3-1.4-.35.28-.52.49-.83.78l-.89.69c.43-.48.88-.88,1.39-1.35-.07.03-.01,0-.11.06-.21.14-.81.68-1.09.89.09-.13.23-.31.38-.46.1-.1.19-.18.29-.27.01-.01.12-.12.13-.13l-.3.18c-.38.28-1.6,1.41-1.88,1.51l1-1.02v-.1s-.5.42-.5.42l.76-.85c.21-.21.76-.72.82-.87-.08.05-.1.07-.17.12-.11.07.03-.01-.07.05l-.14.07c-.13.07-.22.17-.34.23l.33-.37-.3.2c-.01-.14,0-.1.14-.24.28-.28.07-.05.21-.29l-.19.13v-.15s-.52.43-.52.43l.16-.22s.09-.11.15-.19l-.23.13c-.09.05-.17.11-.25.15.23-.22.37-.35.4-.55-.22.04-.31.14-.55.2.07-.15.28-.32.41-.45.07-.07.16-.15.19-.22.04-.11.03-.03-.12,0,.33-.42.76-.79,1.11-1.2-.14.04-.26.19-.43.3l.23-.25c-.19.07-.3.25-.48.32,0-.28.59-.54.77-.85l-.41.29s-.04,0-.04,0l-.11.06s-.12.09-.15.12c-.02-.08.01-.07.09-.21l-1.69,1.25c.08-.07.12-.1.07-.13-.15.12-.24.24-.39.35-.28.2.18-.1-.07.05l-.07.03c.19-.17.37-.3.56-.48.37-.34.35-.3.45-.47-.25.21-.36.36-.61.47-.17.07-.03-.05-.3.19-.14.13-.15.16-.32.29-.06-.02,0-.06-.13-.01l-.87.58c-2.17,1.95-4.41,3.91-6.64,5.88l-4.62-4.46Zm-7.26,20.9c-1.58-1.43-2.92-3.17-4.02-5.2,1.66,3.45,4.3,6.17,7.94,8.17-1.43-.81-2.75-1.81-3.92-2.97h0Z"/></svg>