<svg xmlns="http://www.w3.org/2000/svg" width="16" height="14" viewBox="0 0 16 14" fill="none">
<path d="M15.3483 1.10391L14.0489 0.0915315C13.9574 0.0207269 13.8416 -0.0109679 13.7269 0.00338006C13.6121 0.017728 13.5076 0.0769509 13.4364 0.168094L5.69397 10.1125L1.92578 6.34384C1.84374 6.26183 1.73248 6.21575 1.61647 6.21575C1.50046 6.21575 1.3892 6.26183 1.30716 6.34384L0.128094 7.52509C0.0460755 7.60714 0 7.7184 0 7.83441C0 7.95042 0.0460755 8.06168 0.128094 8.14372L5.56709 13.5871C5.61097 13.6312 5.66375 13.6655 5.72193 13.6876C5.7801 13.7097 5.84232 13.7192 5.90443 13.7153C5.96654 13.7115 6.02712 13.6944 6.08211 13.6653C6.13711 13.6361 6.18526 13.5956 6.22334 13.5464L15.4257 1.71772C15.4968 1.62605 15.5286 1.50989 15.5141 1.39478C15.4996 1.27967 15.4399 1.17504 15.3483 1.10391Z" fill="#292929"/>
</svg>