<svg focusable="false" xmlns="http://www.w3.org/2000/svg" viewBox="0 0 10 10.3">
<path d="M0.9,0C0.6,0.1,0.4,0.1,0.2,0.3C0,1.1-0.1,1.8,0,2.6v5.1c0,1-0.2,2.4,0.7,2.6c0.2,0,0.3,0,0.5-0.1
	C1.8,10,2.3,9.7,2.7,9.3C2.8,9.2,2.9,9,2.9,8.8C2.6,8,1.8,8.9,1.5,8.4C1.4,8,1.4,7.6,1.4,7.2V2.7c0-0.3,0-0.5,0.1-0.8
	c0-0.1,0.1-0.3,0.3-0.3C2.2,1.5,2.9,2,3.1,2.1l3.6,2C7,4.3,8,4.7,7.9,5.1C7.8,5.5,7.3,5.7,7,5.8C6.1,6.2,5.2,6.7,4.4,7.1V6.6
	C4.4,5.9,4.6,5,4,4.7c-0.2,0-0.3,0-0.5,0c-0.3,0.2-0.3,0.5-0.3,1v1.6c0,0.2,0,0.4,0,0.7c0.1,0.2,0.2,0.3,0.4,0.4
	C4.2,8.8,4.7,8.3,5.2,8l3.5-1.9c0.5-0.2,1.2-0.4,1.3-1c0-0.2-0.1-0.5-0.2-0.6c-0.4-0.4-1-0.8-1.5-1C6.7,2.6,5,1.6,3.4,0.8
	C3,0.7,2.7,0.4,2.4,0.3C1.7,0.1,1.3,0,0.9,0L0.9,0z M3,3.7c0,0.1,0,0.1,0,0.2c0,0.3,0.3,0.6,0.6,0.5c0.3,0,0.6-0.3,0.5-0.6
	c0-0.3-0.3-0.6-0.6-0.5C3.3,3.4,3.1,3.5,3,3.7z"/>
</svg>
