<svg width="8" height="8" viewBox="0 0 8 8" fill="none" xmlns="http://www.w3.org/2000/svg">
<g clip-path="url(#clip0_378_510)">
<path d="M6.57505 6.55498C6.63005 6.61101 6.66705 6.68498 6.57505 6.75499L5.42605 7.49602C5.33405 7.55205 5.29705 7.515 5.26005 7.42205L3.83405 4.94006L1.96305 7C1.94405 7.03601 1.88905 7.073 1.83405 7L0.945047 6.073C0.852047 6.01801 0.871047 5.96198 0.945047 5.90698L3.05605 4.14697L0.648047 3.23999C0.611047 3.23999 0.556047 3.16602 0.592047 3.073L1.22205 1.81403C1.23837 1.76331 1.29158 1.73432 1.34305 1.74805C1.36089 1.75354 1.37682 1.76398 1.38905 1.77808L3.50005 3.14808L3.63005 0.448073C3.62332 0.395463 3.65887 0.346693 3.71105 0.337053C3.72102 0.336013 3.73108 0.336013 3.74105 0.337053L5.27805 0.537063C5.37105 0.537063 5.38905 0.574053 5.37105 0.667063L4.64805 3.31403L7.09305 2.573C7.14805 2.53601 7.20405 2.53601 7.24105 2.64697L7.48205 4.01697C7.50005 4.10999 7.48205 4.14697 7.40805 4.14697L4.85205 4.34698L6.57505 6.55498Z" fill="#505050"/>
</g>
<defs>
<clipPath id="clip0_378_510">
<rect width="8" height="8" fill="white"/>
</clipPath>
</defs>
</svg>
