<svg width="10" height="6" viewBox="0 0 10 6" fill="none" xmlns="http://www.w3.org/2000/svg">
<path d="M4.82201 5.96534C4.88158 5.97779 4.93944 5.99903 4.99999 5.99903C5.06054 5.99903 5.1184 5.97779 5.17797 5.96534C5.22826 5.95484 5.28002 5.95484 5.32812 5.93531C5.38623 5.91187 5.43481 5.86719 5.48754 5.83082C5.52978 5.80177 5.57751 5.78443 5.61523 5.74708C5.61645 5.74586 5.61669 5.74415 5.61792 5.74293C5.61915 5.74171 5.62085 5.74147 5.62207 5.74024L9.69726 1.61524C10.0371 1.27149 10.0342 0.717779 9.69042 0.377939C9.34667 0.0380993 8.79198 0.0410293 8.45312 0.384779L5 3.88014L1.54688 0.384779C1.20801 0.0410293 0.653326 0.0380993 0.309576 0.377939C0.136726 0.548839 0.0498056 0.774419 0.0498056 1.00001C0.0498056 1.22169 0.133785 1.44435 0.302735 1.61524L4.37794 5.74024C4.37916 5.74146 4.38087 5.7417 4.38209 5.74293C4.38331 5.74416 4.38355 5.74586 4.38478 5.74708C4.4225 5.78443 4.47023 5.80177 4.51247 5.83082C4.5652 5.8672 4.61379 5.91187 4.67189 5.93531C4.71999 5.95484 4.77171 5.95484 4.82201 5.96534Z" fill="#292929"/>
</svg>
