<?xml version="1.0" encoding="UTF-8"?><svg id="a" xmlns="http://www.w3.org/2000/svg" viewBox="0 0 130 118"><g><path d="M67.8,3.99c1,0,1.81-.81,1.81-1.81s-.81-1.81-1.81-1.81-1.81,.81-1.81,1.81,.81,1.81,1.81,1.81Z"/><path d="M72.47,3.99c1,0,1.81-.81,1.81-1.81s-.81-1.81-1.81-1.81-1.81,.81-1.81,1.81,.81,1.81,1.81,1.81Z"/><path d="M77.13,3.99c1,0,1.81-.81,1.81-1.81s-.81-1.81-1.81-1.81-1.81,.81-1.81,1.81,.81,1.81,1.81,1.81Z"/><path d="M81.8,3.99c1,0,1.81-.81,1.81-1.81s-.81-1.81-1.81-1.81-1.81,.81-1.81,1.81,.81,1.81,1.81,1.81Z"/><path d="M86.47,3.99c1,0,1.81-.81,1.81-1.81s-.81-1.81-1.81-1.81-1.81,.81-1.81,1.81,.81,1.81,1.81,1.81Z"/><path d="M91.14,3.99c1,0,1.81-.81,1.81-1.81s-.81-1.81-1.81-1.81-1.81,.81-1.81,1.81,.81,1.81,1.81,1.81Z"/><path d="M95.81,3.99c1,0,1.81-.81,1.81-1.81s-.81-1.81-1.81-1.81-1.81,.81-1.81,1.81,.81,1.81,1.81,1.81Z"/><path d="M100.48,3.99c1,0,1.81-.81,1.81-1.81s-.81-1.81-1.81-1.81-1.81,.81-1.81,1.81,.81,1.81,1.81,1.81Z"/><path d="M67.8,8.66c1,0,1.81-.81,1.81-1.81s-.81-1.81-1.81-1.81-1.81,.81-1.81,1.81,.81,1.81,1.81,1.81Z"/><path d="M72.47,8.66c1,0,1.81-.81,1.81-1.81s-.81-1.81-1.81-1.81-1.81,.81-1.81,1.81,.81,1.81,1.81,1.81Z"/><path d="M77.13,8.66c1,0,1.81-.81,1.81-1.81s-.81-1.81-1.81-1.81-1.81,.81-1.81,1.81,.81,1.81,1.81,1.81Z"/><path d="M81.8,8.66c1,0,1.81-.81,1.81-1.81s-.81-1.81-1.81-1.81-1.81,.81-1.81,1.81,.81,1.81,1.81,1.81Z"/><path d="M86.47,8.66c1,0,1.81-.81,1.81-1.81s-.81-1.81-1.81-1.81-1.81,.81-1.81,1.81,.81,1.81,1.81,1.81Z"/><path d="M91.14,8.66c1,0,1.81-.81,1.81-1.81s-.81-1.81-1.81-1.81-1.81,.81-1.81,1.81,.81,1.81,1.81,1.81Z"/><path d="M95.81,8.66c1,0,1.81-.81,1.81-1.81s-.81-1.81-1.81-1.81-1.81,.81-1.81,1.81,.81,1.81,1.81,1.81Z"/><path d="M100.48,8.66c1,0,1.81-.81,1.81-1.81s-.81-1.81-1.81-1.81-1.81,.81-1.81,1.81,.81,1.81,1.81,1.81Z"/><path d="M63.13,13.33c1,0,1.81-.81,1.81-1.81s-.81-1.81-1.81-1.81-1.81,.81-1.81,1.81,.81,1.81,1.81,1.81Z"/><path d="M67.8,13.33c1,0,1.81-.81,1.81-1.81s-.81-1.81-1.81-1.81-1.81,.81-1.81,1.81,.81,1.81,1.81,1.81Z"/><path d="M72.47,13.33c1,0,1.81-.81,1.81-1.81s-.81-1.81-1.81-1.81-1.81,.81-1.81,1.81,.81,1.81,1.81,1.81Z"/><path d="M77.13,13.33c1,0,1.81-.81,1.81-1.81s-.81-1.81-1.81-1.81-1.81,.81-1.81,1.81,.81,1.81,1.81,1.81Z"/><path d="M81.8,13.33c1,0,1.81-.81,1.81-1.81s-.81-1.81-1.81-1.81-1.81,.81-1.81,1.81,.81,1.81,1.81,1.81Z"/><path d="M86.47,13.33c1,0,1.81-.81,1.81-1.81s-.81-1.81-1.81-1.81-1.81,.81-1.81,1.81,.81,1.81,1.81,1.81Z"/><path d="M91.14,13.33c1,0,1.81-.81,1.81-1.81s-.81-1.81-1.81-1.81-1.81,.81-1.81,1.81,.81,1.81,1.81,1.81Z"/><path d="M95.81,13.33c1,0,1.81-.81,1.81-1.81s-.81-1.81-1.81-1.81-1.81,.81-1.81,1.81,.81,1.81,1.81,1.81Z"/><path d="M100.48,13.33c1,0,1.81-.81,1.81-1.81s-.81-1.81-1.81-1.81-1.81,.81-1.81,1.81,.81,1.81,1.81,1.81Z"/><path d="M63.13,18c1,0,1.81-.81,1.81-1.81s-.81-1.81-1.81-1.81-1.81,.81-1.81,1.81,.81,1.81,1.81,1.81Z"/><path d="M67.8,18c1,0,1.81-.81,1.81-1.81s-.81-1.81-1.81-1.81-1.81,.81-1.81,1.81,.81,1.81,1.81,1.81Z"/><path d="M72.47,18c1,0,1.81-.81,1.81-1.81s-.81-1.81-1.81-1.81-1.81,.81-1.81,1.81,.81,1.81,1.81,1.81Z"/><path d="M77.13,18c1,0,1.81-.81,1.81-1.81s-.81-1.81-1.81-1.81-1.81,.81-1.81,1.81,.81,1.81,1.81,1.81Z"/><path d="M81.8,18c1,0,1.81-.81,1.81-1.81s-.81-1.81-1.81-1.81-1.81,.81-1.81,1.81,.81,1.81,1.81,1.81Z"/><path d="M86.47,18c1,0,1.81-.81,1.81-1.81s-.81-1.81-1.81-1.81-1.81,.81-1.81,1.81,.81,1.81,1.81,1.81Z"/><path d="M91.14,18c1,0,1.81-.81,1.81-1.81s-.81-1.81-1.81-1.81-1.81,.81-1.81,1.81,.81,1.81,1.81,1.81Z"/><path d="M95.81,18c1,0,1.81-.81,1.81-1.81s-.81-1.81-1.81-1.81-1.81,.81-1.81,1.81,.81,1.81,1.81,1.81Z"/><path d="M100.48,18c1,0,1.81-.81,1.81-1.81s-.81-1.81-1.81-1.81-1.81,.81-1.81,1.81,.81,1.81,1.81,1.81Z"/><path d="M105.15,18c1,0,1.81-.81,1.81-1.81s-.81-1.81-1.81-1.81-1.81,.81-1.81,1.81,.81,1.81,1.81,1.81Z"/><path d="M63.13,22.66c1,0,1.81-.81,1.81-1.81s-.81-1.81-1.81-1.81-1.81,.81-1.81,1.81,.81,1.81,1.81,1.81Z"/><path d="M67.8,22.66c1,0,1.81-.81,1.81-1.81s-.81-1.81-1.81-1.81-1.81,.81-1.81,1.81,.81,1.81,1.81,1.81Z"/><path d="M72.47,22.66c1,0,1.81-.81,1.81-1.81s-.81-1.81-1.81-1.81-1.81,.81-1.81,1.81,.81,1.81,1.81,1.81Z"/><path d="M77.13,22.66c1,0,1.81-.81,1.81-1.81s-.81-1.81-1.81-1.81-1.81,.81-1.81,1.81,.81,1.81,1.81,1.81Z"/><path d="M81.8,22.66c1,0,1.81-.81,1.81-1.81s-.81-1.81-1.81-1.81-1.81,.81-1.81,1.81,.81,1.81,1.81,1.81Z"/><path d="M86.47,22.66c1,0,1.81-.81,1.81-1.81s-.81-1.81-1.81-1.81-1.81,.81-1.81,1.81,.81,1.81,1.81,1.81Z"/><path d="M91.14,22.66c1,0,1.81-.81,1.81-1.81s-.81-1.81-1.81-1.81-1.81,.81-1.81,1.81,.81,1.81,1.81,1.81Z"/><path d="M95.81,22.66c1,0,1.81-.81,1.81-1.81s-.81-1.81-1.81-1.81-1.81,.81-1.81,1.81,.81,1.81,1.81,1.81Z"/><path d="M100.48,22.66c1,0,1.81-.81,1.81-1.81s-.81-1.81-1.81-1.81-1.81,.81-1.81,1.81,.81,1.81,1.81,1.81Z"/><path d="M105.15,22.66c1,0,1.81-.81,1.81-1.81s-.81-1.81-1.81-1.81-1.81,.81-1.81,1.81,.81,1.81,1.81,1.81Z"/><path d="M58.46,27.33c1,0,1.81-.81,1.81-1.81s-.81-1.81-1.81-1.81-1.81,.81-1.81,1.81,.81,1.81,1.81,1.81Z"/><path d="M63.13,27.33c1,0,1.81-.81,1.81-1.81s-.81-1.81-1.81-1.81-1.81,.81-1.81,1.81,.81,1.81,1.81,1.81Z"/><path d="M67.8,27.33c1,0,1.81-.81,1.81-1.81s-.81-1.81-1.81-1.81-1.81,.81-1.81,1.81,.81,1.81,1.81,1.81Z"/><path d="M72.47,27.33c1,0,1.81-.81,1.81-1.81s-.81-1.81-1.81-1.81-1.81,.81-1.81,1.81,.81,1.81,1.81,1.81Z"/><path d="M77.13,27.33c1,0,1.81-.81,1.81-1.81s-.81-1.81-1.81-1.81-1.81,.81-1.81,1.81,.81,1.81,1.81,1.81Z"/><path d="M81.8,27.33c1,0,1.81-.81,1.81-1.81s-.81-1.81-1.81-1.81-1.81,.81-1.81,1.81,.81,1.81,1.81,1.81Z"/><path d="M86.47,27.33c1,0,1.81-.81,1.81-1.81s-.81-1.81-1.81-1.81-1.81,.81-1.81,1.81,.81,1.81,1.81,1.81Z"/><path d="M91.14,27.33c1,0,1.81-.81,1.81-1.81s-.81-1.81-1.81-1.81-1.81,.81-1.81,1.81,.81,1.81,1.81,1.81Z"/><path d="M95.81,27.33c1,0,1.81-.81,1.81-1.81s-.81-1.81-1.81-1.81-1.81,.81-1.81,1.81,.81,1.81,1.81,1.81Z"/><path d="M100.48,27.33c1,0,1.81-.81,1.81-1.81s-.81-1.81-1.81-1.81-1.81,.81-1.81,1.81,.81,1.81,1.81,1.81Z"/><path d="M105.15,27.33c1,0,1.81-.81,1.81-1.81s-.81-1.81-1.81-1.81-1.81,.81-1.81,1.81,.81,1.81,1.81,1.81Z"/><path d="M58.46,32c1,0,1.81-.81,1.81-1.81s-.81-1.81-1.81-1.81-1.81,.81-1.81,1.81,.81,1.81,1.81,1.81Z"/><path d="M63.13,32c1,0,1.81-.81,1.81-1.81s-.81-1.81-1.81-1.81-1.81,.81-1.81,1.81,.81,1.81,1.81,1.81Z"/><path d="M67.8,32c1,0,1.81-.81,1.81-1.81s-.81-1.81-1.81-1.81-1.81,.81-1.81,1.81,.81,1.81,1.81,1.81Z"/><path d="M72.47,32c1,0,1.81-.81,1.81-1.81s-.81-1.81-1.81-1.81-1.81,.81-1.81,1.81,.81,1.81,1.81,1.81Z"/><path d="M77.13,32c1,0,1.81-.81,1.81-1.81s-.81-1.81-1.81-1.81-1.81,.81-1.81,1.81,.81,1.81,1.81,1.81Z"/><path d="M81.8,32c1,0,1.81-.81,1.81-1.81s-.81-1.81-1.81-1.81-1.81,.81-1.81,1.81,.81,1.81,1.81,1.81Z"/><path d="M86.47,32c1,0,1.81-.81,1.81-1.81s-.81-1.81-1.81-1.81-1.81,.81-1.81,1.81,.81,1.81,1.81,1.81Z"/><path d="M91.14,32c1,0,1.81-.81,1.81-1.81s-.81-1.81-1.81-1.81-1.81,.81-1.81,1.81,.81,1.81,1.81,1.81Z"/><path d="M95.81,32c1,0,1.81-.81,1.81-1.81s-.81-1.81-1.81-1.81-1.81,.81-1.81,1.81,.81,1.81,1.81,1.81Z"/><path d="M100.48,32c1,0,1.81-.81,1.81-1.81s-.81-1.81-1.81-1.81-1.81,.81-1.81,1.81,.81,1.81,1.81,1.81Z"/><path d="M105.15,32c1,0,1.81-.81,1.81-1.81s-.81-1.81-1.81-1.81-1.81,.81-1.81,1.81,.81,1.81,1.81,1.81Z"/><path d="M49.12,36.67c1,0,1.81-.81,1.81-1.81s-.81-1.81-1.81-1.81-1.81,.81-1.81,1.81,.81,1.81,1.81,1.81Z"/><path d="M53.79,36.67c1,0,1.81-.81,1.81-1.81s-.81-1.81-1.81-1.81-1.81,.81-1.81,1.81,.81,1.81,1.81,1.81Z"/><path d="M58.46,36.67c1,0,1.81-.81,1.81-1.81s-.81-1.81-1.81-1.81-1.81,.81-1.81,1.81,.81,1.81,1.81,1.81Z"/><path d="M63.13,36.67c1,0,1.81-.81,1.81-1.81s-.81-1.81-1.81-1.81-1.81,.81-1.81,1.81,.81,1.81,1.81,1.81Z"/><path d="M67.8,36.67c1,0,1.81-.81,1.81-1.81s-.81-1.81-1.81-1.81-1.81,.81-1.81,1.81,.81,1.81,1.81,1.81Z"/><path d="M72.47,36.67c1,0,1.81-.81,1.81-1.81s-.81-1.81-1.81-1.81-1.81,.81-1.81,1.81,.81,1.81,1.81,1.81Z"/><path d="M77.13,36.67c1,0,1.81-.81,1.81-1.81s-.81-1.81-1.81-1.81-1.81,.81-1.81,1.81,.81,1.81,1.81,1.81Z"/><path d="M81.8,36.67c1,0,1.81-.81,1.81-1.81s-.81-1.81-1.81-1.81-1.81,.81-1.81,1.81,.81,1.81,1.81,1.81Z"/><path d="M86.47,36.67c1,0,1.81-.81,1.81-1.81s-.81-1.81-1.81-1.81-1.81,.81-1.81,1.81,.81,1.81,1.81,1.81Z"/><path d="M91.14,36.67c1,0,1.81-.81,1.81-1.81s-.81-1.81-1.81-1.81-1.81,.81-1.81,1.81,.81,1.81,1.81,1.81Z"/><path d="M95.81,36.67c1,0,1.81-.81,1.81-1.81s-.81-1.81-1.81-1.81-1.81,.81-1.81,1.81,.81,1.81,1.81,1.81Z"/><path d="M100.48,36.67c1,0,1.81-.81,1.81-1.81s-.81-1.81-1.81-1.81-1.81,.81-1.81,1.81,.81,1.81,1.81,1.81Z"/><path d="M105.15,36.67c1,0,1.81-.81,1.81-1.81s-.81-1.81-1.81-1.81-1.81,.81-1.81,1.81,.81,1.81,1.81,1.81Z"/><path d="M49.12,41.34c1,0,1.81-.81,1.81-1.81s-.81-1.81-1.81-1.81-1.81,.81-1.81,1.81,.81,1.81,1.81,1.81Z"/><path d="M53.79,41.34c1,0,1.81-.81,1.81-1.81s-.81-1.81-1.81-1.81-1.81,.81-1.81,1.81,.81,1.81,1.81,1.81Z"/><path d="M58.46,41.34c1,0,1.81-.81,1.81-1.81s-.81-1.81-1.81-1.81-1.81,.81-1.81,1.81,.81,1.81,1.81,1.81Z"/><path d="M63.13,41.34c1,0,1.81-.81,1.81-1.81s-.81-1.81-1.81-1.81-1.81,.81-1.81,1.81,.81,1.81,1.81,1.81Z"/><path d="M67.8,41.34c1,0,1.81-.81,1.81-1.81s-.81-1.81-1.81-1.81-1.81,.81-1.81,1.81,.81,1.81,1.81,1.81Z"/><path d="M72.47,41.34c1,0,1.81-.81,1.81-1.81s-.81-1.81-1.81-1.81-1.81,.81-1.81,1.81,.81,1.81,1.81,1.81Z"/><path d="M77.13,41.34c1,0,1.81-.81,1.81-1.81s-.81-1.81-1.81-1.81-1.81,.81-1.81,1.81,.81,1.81,1.81,1.81Z"/><path d="M81.8,41.34c1,0,1.81-.81,1.81-1.81s-.81-1.81-1.81-1.81-1.81,.81-1.81,1.81,.81,1.81,1.81,1.81Z"/><path d="M86.47,41.34c1,0,1.81-.81,1.81-1.81s-.81-1.81-1.81-1.81-1.81,.81-1.81,1.81,.81,1.81,1.81,1.81Z"/><path d="M91.14,41.34c1,0,1.81-.81,1.81-1.81s-.81-1.81-1.81-1.81-1.81,.81-1.81,1.81,.81,1.81,1.81,1.81Z"/><path d="M95.81,41.34c1,0,1.81-.81,1.81-1.81s-.81-1.81-1.81-1.81-1.81,.81-1.81,1.81,.81,1.81,1.81,1.81Z"/><path d="M100.48,41.34c1,0,1.81-.81,1.81-1.81s-.81-1.81-1.81-1.81-1.81,.81-1.81,1.81,.81,1.81,1.81,1.81Z"/><path d="M105.15,41.34c1,0,1.81-.81,1.81-1.81s-.81-1.81-1.81-1.81-1.81,.81-1.81,1.81,.81,1.81,1.81,1.81Z"/><path d="M49.12,46.01c1,0,1.81-.81,1.81-1.81s-.81-1.81-1.81-1.81-1.81,.81-1.81,1.81,.81,1.81,1.81,1.81Z"/><path d="M53.79,46.01c1,0,1.81-.81,1.81-1.81s-.81-1.81-1.81-1.81-1.81,.81-1.81,1.81,.81,1.81,1.81,1.81Z"/><path d="M58.46,46.01c1,0,1.81-.81,1.81-1.81s-.81-1.81-1.81-1.81-1.81,.81-1.81,1.81,.81,1.81,1.81,1.81Z"/><path d="M63.13,46.01c1,0,1.81-.81,1.81-1.81s-.81-1.81-1.81-1.81-1.81,.81-1.81,1.81,.81,1.81,1.81,1.81Z"/><path d="M67.8,46.01c1,0,1.81-.81,1.81-1.81s-.81-1.81-1.81-1.81-1.81,.81-1.81,1.81,.81,1.81,1.81,1.81Z"/><path d="M72.47,46.01c1,0,1.81-.81,1.81-1.81s-.81-1.81-1.81-1.81-1.81,.81-1.81,1.81,.81,1.81,1.81,1.81Z"/><path d="M77.13,46.01c1,0,1.81-.81,1.81-1.81s-.81-1.81-1.81-1.81-1.81,.81-1.81,1.81,.81,1.81,1.81,1.81Z"/><path d="M81.8,46.01c1,0,1.81-.81,1.81-1.81s-.81-1.81-1.81-1.81-1.81,.81-1.81,1.81,.81,1.81,1.81,1.81Z"/><path d="M86.47,46.01c1,0,1.81-.81,1.81-1.81s-.81-1.81-1.81-1.81-1.81,.81-1.81,1.81,.81,1.81,1.81,1.81Z"/><path d="M91.14,46.01c1,0,1.81-.81,1.81-1.81s-.81-1.81-1.81-1.81-1.81,.81-1.81,1.81,.81,1.81,1.81,1.81Z"/><path d="M95.81,46.01c1,0,1.81-.81,1.81-1.81s-.81-1.81-1.81-1.81-1.81,.81-1.81,1.81,.81,1.81,1.81,1.81Z"/><path d="M100.48,46.01c1,0,1.81-.81,1.81-1.81s-.81-1.81-1.81-1.81-1.81,.81-1.81,1.81,.81,1.81,1.81,1.81Z"/><path d="M105.15,46.01c1,0,1.81-.81,1.81-1.81s-.81-1.81-1.81-1.81-1.81,.81-1.81,1.81,.81,1.81,1.81,1.81Z"/><path d="M49.12,50.68c1,0,1.81-.81,1.81-1.81s-.81-1.81-1.81-1.81-1.81,.81-1.81,1.81,.81,1.81,1.81,1.81Z"/><path d="M53.79,50.68c1,0,1.81-.81,1.81-1.81s-.81-1.81-1.81-1.81-1.81,.81-1.81,1.81,.81,1.81,1.81,1.81Z"/><path d="M58.46,50.68c1,0,1.81-.81,1.81-1.81s-.81-1.81-1.81-1.81-1.81,.81-1.81,1.81,.81,1.81,1.81,1.81Z"/><path d="M63.13,50.68c1,0,1.81-.81,1.81-1.81s-.81-1.81-1.81-1.81-1.81,.81-1.81,1.81,.81,1.81,1.81,1.81Z"/><path d="M67.8,50.68c1,0,1.81-.81,1.81-1.81s-.81-1.81-1.81-1.81-1.81,.81-1.81,1.81,.81,1.81,1.81,1.81Z"/><path d="M72.47,50.68c1,0,1.81-.81,1.81-1.81s-.81-1.81-1.81-1.81-1.81,.81-1.81,1.81,.81,1.81,1.81,1.81Z"/><path d="M77.13,50.68c1,0,1.81-.81,1.81-1.81s-.81-1.81-1.81-1.81-1.81,.81-1.81,1.81,.81,1.81,1.81,1.81Z"/><path d="M81.8,50.68c1,0,1.81-.81,1.81-1.81s-.81-1.81-1.81-1.81-1.81,.81-1.81,1.81,.81,1.81,1.81,1.81Z"/><path d="M86.47,50.68c1,0,1.81-.81,1.81-1.81s-.81-1.81-1.81-1.81-1.81,.81-1.81,1.81,.81,1.81,1.81,1.81Z"/><path d="M91.14,50.68c1,0,1.81-.81,1.81-1.81s-.81-1.81-1.81-1.81-1.81,.81-1.81,1.81,.81,1.81,1.81,1.81Z"/><path d="M95.81,50.68c1,0,1.81-.81,1.81-1.81s-.81-1.81-1.81-1.81-1.81,.81-1.81,1.81,.81,1.81,1.81,1.81Z"/><path d="M100.48,50.68c1,0,1.81-.81,1.81-1.81s-.81-1.81-1.81-1.81-1.81,.81-1.81,1.81,.81,1.81,1.81,1.81Z"/><path d="M105.15,50.68c1,0,1.81-.81,1.81-1.81s-.81-1.81-1.81-1.81-1.81,.81-1.81,1.81,.81,1.81,1.81,1.81Z"/><path d="M49.12,55.35c1,0,1.81-.81,1.81-1.81s-.81-1.81-1.81-1.81-1.81,.81-1.81,1.81,.81,1.81,1.81,1.81Z"/><path d="M53.79,55.35c1,0,1.81-.81,1.81-1.81s-.81-1.81-1.81-1.81-1.81,.81-1.81,1.81,.81,1.81,1.81,1.81Z"/><path d="M58.46,55.35c1,0,1.81-.81,1.81-1.81s-.81-1.81-1.81-1.81-1.81,.81-1.81,1.81,.81,1.81,1.81,1.81Z"/><path d="M63.13,55.35c1,0,1.81-.81,1.81-1.81s-.81-1.81-1.81-1.81-1.81,.81-1.81,1.81,.81,1.81,1.81,1.81Z"/><path d="M67.8,55.35c1,0,1.81-.81,1.81-1.81s-.81-1.81-1.81-1.81-1.81,.81-1.81,1.81,.81,1.81,1.81,1.81Z"/><path d="M72.47,55.35c1,0,1.81-.81,1.81-1.81s-.81-1.81-1.81-1.81-1.81,.81-1.81,1.81,.81,1.81,1.81,1.81Z"/><path d="M77.13,55.35c1,0,1.81-.81,1.81-1.81s-.81-1.81-1.81-1.81-1.81,.81-1.81,1.81,.81,1.81,1.81,1.81Z"/><path d="M81.8,55.35c1,0,1.81-.81,1.81-1.81s-.81-1.81-1.81-1.81-1.81,.81-1.81,1.81,.81,1.81,1.81,1.81Z"/><path d="M86.47,55.35c1,0,1.81-.81,1.81-1.81s-.81-1.81-1.81-1.81-1.81,.81-1.81,1.81,.81,1.81,1.81,1.81Z"/><path d="M91.14,55.35c1,0,1.81-.81,1.81-1.81s-.81-1.81-1.81-1.81-1.81,.81-1.81,1.81,.81,1.81,1.81,1.81Z"/><path d="M95.81,55.35c1,0,1.81-.81,1.81-1.81s-.81-1.81-1.81-1.81-1.81,.81-1.81,1.81,.81,1.81,1.81,1.81Z"/><path d="M100.48,55.35c1,0,1.81-.81,1.81-1.81s-.81-1.81-1.81-1.81-1.81,.81-1.81,1.81,.81,1.81,1.81,1.81Z"/><path d="M105.15,55.35c1,0,1.81-.81,1.81-1.81s-.81-1.81-1.81-1.81-1.81,.81-1.81,1.81,.81,1.81,1.81,1.81Z"/><path d="M58.46,60.02c1,0,1.81-.81,1.81-1.81s-.81-1.81-1.81-1.81-1.81,.81-1.81,1.81,.81,1.81,1.81,1.81Z"/><path d="M63.13,60.02c1,0,1.81-.81,1.81-1.81s-.81-1.81-1.81-1.81-1.81,.81-1.81,1.81,.81,1.81,1.81,1.81Z"/><path d="M67.8,60.02c1,0,1.81-.81,1.81-1.81s-.81-1.81-1.81-1.81-1.81,.81-1.81,1.81,.81,1.81,1.81,1.81Z"/><path d="M72.47,60.02c1,0,1.81-.81,1.81-1.81s-.81-1.81-1.81-1.81-1.81,.81-1.81,1.81,.81,1.81,1.81,1.81Z"/><path d="M77.13,60.02c1,0,1.81-.81,1.81-1.81s-.81-1.81-1.81-1.81-1.81,.81-1.81,1.81,.81,1.81,1.81,1.81Z"/><path d="M81.8,60.02c1,0,1.81-.81,1.81-1.81s-.81-1.81-1.81-1.81-1.81,.81-1.81,1.81,.81,1.81,1.81,1.81Z"/><path d="M86.47,60.02c1,0,1.81-.81,1.81-1.81s-.81-1.81-1.81-1.81-1.81,.81-1.81,1.81,.81,1.81,1.81,1.81Z"/><path d="M91.14,60.02c1,0,1.81-.81,1.81-1.81s-.81-1.81-1.81-1.81-1.81,.81-1.81,1.81,.81,1.81,1.81,1.81Z"/><path d="M95.81,60.02c1,0,1.81-.81,1.81-1.81s-.81-1.81-1.81-1.81-1.81,.81-1.81,1.81,.81,1.81,1.81,1.81Z"/><path d="M63.13,64.69c1,0,1.81-.81,1.81-1.81s-.81-1.81-1.81-1.81-1.81,.81-1.81,1.81,.81,1.81,1.81,1.81Z"/><path d="M67.8,64.69c1,0,1.81-.81,1.81-1.81s-.81-1.81-1.81-1.81-1.81,.81-1.81,1.81,.81,1.81,1.81,1.81Z"/><path d="M72.47,64.69c1,0,1.81-.81,1.81-1.81s-.81-1.81-1.81-1.81-1.81,.81-1.81,1.81,.81,1.81,1.81,1.81Z"/><path d="M77.13,64.69c1,0,1.81-.81,1.81-1.81s-.81-1.81-1.81-1.81-1.81,.81-1.81,1.81,.81,1.81,1.81,1.81Z"/><path d="M81.8,64.69c1,0,1.81-.81,1.81-1.81s-.81-1.81-1.81-1.81-1.81,.81-1.81,1.81,.81,1.81,1.81,1.81Z"/><path d="M86.47,64.69c1,0,1.81-.81,1.81-1.81s-.81-1.81-1.81-1.81-1.81,.81-1.81,1.81,.81,1.81,1.81,1.81Z"/><path d="M63.13,69.35c1,0,1.81-.81,1.81-1.81s-.81-1.81-1.81-1.81-1.81,.81-1.81,1.81,.81,1.81,1.81,1.81Z"/><path d="M67.8,69.35c1,0,1.81-.81,1.81-1.81s-.81-1.81-1.81-1.81-1.81,.81-1.81,1.81,.81,1.81,1.81,1.81Z"/><path d="M72.47,69.35c1,0,1.81-.81,1.81-1.81s-.81-1.81-1.81-1.81-1.81,.81-1.81,1.81,.81,1.81,1.81,1.81Z"/><path d="M77.13,69.35c1,0,1.81-.81,1.81-1.81s-.81-1.81-1.81-1.81-1.81,.81-1.81,1.81,.81,1.81,1.81,1.81Z"/><path d="M67.8,74.02c1,0,1.81-.81,1.81-1.81s-.81-1.81-1.81-1.81-1.81,.81-1.81,1.81,.81,1.81,1.81,1.81Z"/></g><g><path d="M105.42,12.97l2.86,2.86c.26-.21,.51-.42,.75-.62l-2.41-2.41c-.4,.06-.8,.11-1.2,.17Z"/><path d="M95.36,14.24l6.78,6.78c.24-.21,.49-.43,.73-.64l-6.3-6.3c-.4,.05-.81,.1-1.21,.16Z"/><path d="M85.71,15.92l10.57,10.57c.22-.23,.45-.46,.68-.68l-10.14-10.14c-.37,.08-.75,.16-1.12,.25Z"/><path d="M130,58.84l-16.59-16.59c-1.1-.73-2.22-1.41-3.4-2.03l19.53,19.53c.18-.32,.34-.61,.47-.9Z"/><path d="M77.13,18.67l14.19,14.19c.12-.29,.27-.59,.46-.91l-13.66-13.66c-.33,.13-.66,.25-.98,.39Z"/><path d="M125.02,65.19l-28.26-28.26c-.57-.09-1.12-.18-1.65-.28l29.24,29.23c.22-.23,.45-.46,.67-.69Z"/><path d="M69.4,22.26l49.27,49.27c.23-.23,.46-.45,.69-.68L70.31,21.81c-.3,.15-.61,.3-.91,.46Z"/><path d="M62.14,26.34l50.67,50.67c.24-.22,.47-.43,.71-.65L63,25.83c-.29,.17-.57,.34-.86,.51Z"/><path d="M55.21,30.73l51.58,51.58c.25-.21,.49-.42,.73-.64L56.04,30.19c-.28,.18-.55,.36-.83,.54Z"/><path d="M48.46,35.31l52.12,52.12c.25-.2,.51-.41,.76-.61L49.27,34.75c-.27,.18-.54,.37-.81,.56Z"/><path d="M42.08,39.76c-.1,.07-.2,.14-.3,.2l52.41,52.41c.26-.2,.52-.39,.78-.59L42.59,39.4c-.17,.12-.34,.24-.51,.36Z"/><path d="M35.06,44.57l52.57,52.56c.27-.19,.54-.37,.8-.56L35.88,44.02c-.27,.18-.54,.37-.82,.56Z"/><path d="M28.35,49.19l52.51,52.51c.27-.18,.55-.36,.83-.54L29.16,48.63c-.27,.19-.54,.37-.8,.56Z"/><path d="M21.78,53.95l63.69,63.69c.1-.01,.2-.02,.3-.04,0,0-.03-.43-.12-1.16L22.57,53.36c-.26,.2-.52,.39-.78,.59Z"/><path d="M15.47,58.97l58.28,58.28c.54,.08,1.07,.16,1.6,.23L16.22,58.34c-.25,.21-.5,.42-.74,.63Z"/><path d="M9.56,64.38l49.56,49.56c.62,.16,1.24,.33,1.86,.49L10.25,63.7c-.23,.23-.46,.45-.69,.68Z"/><path d="M4.22,70.37l40.12,40.12c.49,.09,.98,.16,1.47,.25,.06,.01,.12,.02,.18,.04L4.82,69.6c-.2,.25-.4,.51-.6,.76Z"/><path d="M0,77.48l5.95,5.95c.59,.15,1.2,.3,1.82,.45L.35,76.46c-.15,.36-.26,.7-.35,1.02Z"/><path d="M18.39,95.87l12.6,12.6c.53,.08,1.06,.15,1.59,.23l-14.05-14.04c-.03,.4-.08,.81-.15,1.22Z"/><path d="M15.47,104.28l2.11,2.11c.55,.1,1.11,.2,1.66,.29l-3.35-3.35c-.14,.32-.29,.63-.43,.94Z"/></g></svg>