<?xml version="1.0" encoding="UTF-8"?><svg id="a" xmlns="http://www.w3.org/2000/svg" viewBox="0 0 18 18"><defs><style>.c{fill:rgba(255,0,226,0);}.d{fill:#fff;}</style></defs><rect id="b" class="c" width="18" height="18"/><rect class="d" x="16" y="11" width="1" height="1" rx=".25" ry=".25"/><rect class="d" x="16" y="9" width="1" height="1" rx=".25" ry=".25"/><rect class="d" x="16" y="7" width="1" height="1" rx=".25" ry=".25"/><rect class="d" x="16" y="5" width="1" height="1" rx=".25" ry=".25"/><rect class="d" x="16" y="3" width="1" height="1" rx=".25" ry=".25"/><rect class="d" x="16" y="1" width="1" height="1" rx=".25" ry=".25"/><rect class="d" x="14" y="1" width="1" height="1" rx=".25" ry=".25"/><rect class="d" x="12" y="1" width="1" height="1" rx=".25" ry=".25"/><rect class="d" x="10" y="1" width="1" height="1" rx=".25" ry=".25"/><rect class="d" x="8" y="1" width="1" height="1" rx=".25" ry=".25"/><rect class="d" x="6" y="1" width="1" height="1" rx=".25" ry=".25"/><rect class="d" x="6" y="3" width="1" height="1" rx=".25" ry=".25"/><rect class="d" x="6" y="5" width="1" height="1" rx=".25" ry=".25"/><rect class="d" x="6" y="7" width="1" height="1" rx=".25" ry=".25"/><rect class="d" x="6" y="9" width="1" height="1" rx=".25" ry=".25"/><rect class="d" x="6" y="11" width="1" height="1" rx=".25" ry=".25"/><rect class="d" x="8" y="11" width="1" height="1" rx=".25" ry=".25"/><rect class="d" x="10" y="11" width="1" height="1" rx=".25" ry=".25"/><rect class="d" x="12" y="11" width="1" height="1" rx=".25" ry=".25"/><rect class="d" x="14" y="11" width="1" height="1" rx=".25" ry=".25"/><path class="d" d="M5,6H1.5c-.28,0-.5,.22-.5,.5v10c0,.28,.22,.5,.5,.5H11.5c.28,0,.5-.22,.5-.5v-3.5H5.5c-.28,0-.5-.22-.5-.5V6Z"/></svg>