<svg xmlns="http://www.w3.org/2000/svg" height="18" viewBox="0 0 18 18" width="18">
  <defs>
    <style>
      .fill {
        fill: #464646;
      }
    </style>
  </defs>
  <title>S Globe 18 N</title>
  <rect id="Canvas" fill="#ff13dc" opacity="0" width="18" height="18" /><path class="fill" d="M3.573,6.8845C3.05,4.991,4.4,4.176,4.267,2.558A8.036,8.036,0,0,0,1,9c0,4.556,3.9715,7.271,6.777,7.8655A3.4271,3.4271,0,0,0,8.3,16.95c1-2.55-.8865-5.3945-2.1315-7.247C5.131,8.159,4.189,9.113,3.573,6.8845Z" />
  <path class="fill" d="M16.3905,9.5155c-.8055-.3065-1.496.7375-1.557-2.082a2.88153,2.88153,0,0,1,.833-2,1.54141,1.54141,0,0,1,.3645-.1745c-.0955-.1745-.2-.342-.31-.509-.0185.01-.035.0225-.0545.031-.625.292-.7115.378-1,0a.788.788,0,0,1,.173-1.1625A7.99352,7.99352,0,0,0,9.013,1.0075c1.014.014,2.2235.765,1.6065,1.9645.093-.1905-2.0135-.645-2.3-.645-.386,0,.7875-1.4445.68-1.3195A8.04709,8.04709,0,0,0,5.692,1.719c.5465.3535,1.1555.23,1.7715.382a1.50711,1.50711,0,0,1,.55.226,1.86775,1.86775,0,0,0-.55-.226c-.9085-.105.44,2.389.389,2.057a1.152,1.152,0,0,1,2.283-.0735,1.871,1.871,0,0,1-.419,1.1325c-.705.927-.85,2.577-1.2,2.155-3.295-1.35-2.9325.4355-1.85,1.629,1.732,1.91.853.1955,3.121,1.196,1.824.804,4.0195.9945,3.484,1.6-1.621,1.835-1.28,3.05-4.1465,5.2.2385-.0065,1-.0825,1.1555-.108a8.1375,8.1375,0,0,0,6.6875-7.2A1.20007,1.20007,0,0,1,16.3905,9.5155Z" />
</svg>