<?xml version="1.0" encoding="UTF-8"?><svg id="a" xmlns="http://www.w3.org/2000/svg" viewBox="0 0 242 374"><defs><style>.b{fill:#cc009e;}.c{opacity:.7;}</style></defs><g class="c"><g><path class="b" d="M197.28,262.91v44.86h44.79v-44.86h-44.79Zm40.01,4.78v35.3h-35.23v-35.3h35.23Z"/><path class="b" d="M197.28,197.21v44.73h44.79v-44.73h-44.79Zm40.01,4.78v35.17h-35.23v-35.17h35.23Z"/><path class="b" d="M65.83,0V44.73h44.73V0h-44.73Zm39.96,4.78V39.95h-35.18V4.78h35.18Z"/><path class="b" d="M131.51,0V44.73h44.8V0h-44.8Zm40.01,4.78V39.95h-35.23V4.78h35.23Z"/><path class="b" d="M197.28,0V44.73h44.79V0h-44.79Zm40.01,4.78V39.95h-35.23V4.78h35.23Z"/><path class="b" d="M65.83,65.71v44.85h44.73v-44.85h-44.73Zm39.96,4.78v35.29h-35.18v-35.29h35.18Z"/><path class="b" d="M197.28,131.54v44.73h44.79v-44.73h-44.79Zm40.01,4.78v35.17h-35.23v-35.17h35.23Z"/><path class="b" d="M197.28,65.71v44.85h44.79v-44.85h-44.79Zm40.01,4.78v35.29h-35.23v-35.29h35.23Z"/><path class="b" d="M131.51,65.71v44.85h44.8v-44.85h-44.8Zm40.01,4.78v35.29h-35.23v-35.29h35.23Z"/><path class="b" d="M131.51,197.21v44.73h44.8v-44.73h-44.8Zm40.01,4.78v35.17h-35.23v-35.17h35.23Z"/><path class="b" d="M65.83,197.21v44.73h44.73v-44.73h-44.73Zm39.96,4.78v35.17h-35.18v-35.17h35.18Z"/><path class="b" d="M65.83,131.54v44.73h44.73v-44.73h-44.73Zm39.96,4.78v35.17h-35.18v-35.17h35.18Z"/><path class="b" d="M131.51,131.54v44.73h44.8v-44.73h-44.8Zm40.01,4.78v35.17h-35.23v-35.17h35.23Z"/><path class="b" d="M131.51,262.91v44.86h44.8v-44.86h-44.8Zm40.01,4.78v35.3h-35.23v-35.3h35.23Z"/><path class="b" d="M.08,0V44.73H44.87V0H.08ZM40.09,4.78V39.95H4.86V4.78H40.09Z"/><path class="b" d="M.08,328.74v44.74H44.87v-44.74H.08Zm40.01,4.78v35.18H4.86v-35.18H40.09Z"/><path class="b" d="M.08,65.71v44.85H44.87v-44.85H.08Zm40.01,4.78v35.29H4.86v-35.29H40.09Z"/><path class="b" d="M.08,131.54v44.73H44.87v-44.73H.08Zm40.01,4.78v35.17H4.86v-35.17H40.09Z"/><path class="b" d="M65.83,328.74v44.74h44.73v-44.74h-44.73Zm39.96,4.78v35.18h-35.18v-35.18h35.18Z"/><path class="b" d="M65.83,262.91v44.86h44.73v-44.86h-44.73Zm39.96,4.78v35.3h-35.18v-35.3h35.18Z"/><path class="b" d="M.08,262.91v44.86H44.87v-44.86H.08Zm40.01,4.78v35.3H4.86v-35.3H40.09Z"/><path class="b" d="M.08,197.21v44.73H44.87v-44.73H.08Zm40.01,4.78v35.17H4.86v-35.17H40.09Z"/><path class="b" d="M197.28,328.74v44.74h44.79v-44.74h-44.79Zm40.01,4.78v35.18h-35.23v-35.18h35.23Z"/><path class="b" d="M131.51,328.74v44.74h44.8v-44.74h-44.8Zm40.01,4.78v35.18h-35.23v-35.18h35.23Z"/></g></g></svg>