<svg id="Layer_1" data-name="Layer 1" xmlns="http://www.w3.org/2000/svg" xmlns:xlink="http://www.w3.org/1999/xlink" viewBox="0 0 1924 1151"><defs><style>.cls-1,.cls-3{fill:none;}.cls-2{clip-path:url(#clip-path);}.cls-3{stroke:#000;stroke-width:1.5px;}</style><clipPath id="clip-path"><rect class="cls-1" width="1924" height="1151"/></clipPath></defs><g class="cls-2"><path class="cls-3" d="M-1.36,183.81c24.22-26,66.84-21.86,82.71-68,20.74-60.25,78.41-25.49,105.27-83.26,6.95-15,2.7-12.72,10.06-27.46a79.65,79.65,0,0,0,3.83-8.91H1926.63v1156H63.77l-.19-.4c-25.09-52.69-16-57.42-36.42-112.09-8.5-22.78-18.51-35.38-28.52-45.88m0-397.86A176.19,176.19,0,0,0,.55,564.49a113.22,113.22,0,0,0-1.91-19.41"/><path class="cls-3" d="M-1.36,188C22.75,156,73.4,164.55,90.17,115.46c20.57-60.23,80.16-25.14,106.73-83,2.68-5.84,1.61-4.69,4.36-10.5,4.65-9.85,6.89-18.29,7.61-25.8H1926.63v1156H73.15c-2.18-7.17-2-11.42-7.09-22.79-19.24-42.63-9.69-46.94-26-90.78-12.64-34.06-27.77-45.53-41.44-61.17m0-348.11c5-17.93,13.46-29.88,12.78-64.94-.42-21.52-6-34.9-12.78-46"/><path class="cls-3" d="M-1.36,191.82c24.44-38.64,86.19-22.6,105.85-74.46,16.74-44.15,67.83-15.4,87.56-58.3,7.22-15.7,15.15-8.41,22.75-23.94,7.4-15.14,9.49-27.7,9-38.93H1926.63v1156H97.64c-14.51-37,.37-49.64-18.32-94.12-4.41-10.5-3.35-10.84-7.6-21.41-23.42-58.2-42.8-51.9-61.25-111.87-4.41-14.31-8.29-25.07-11.83-34.06m0-160.19c9.3-13.7,16.44-29.17,13.55-51.71C4.63,620,26.93,622.44,24.6,563.14c-1.29-32.78-14.75-46.37-26-62.05"/><path class="cls-3" d="M-1.36,192.55c23.92-42,94.86-23.08,114.21-76.21C125.91,80.5,166.46,102,181.47,67,191.69,43.06,210,56.25,221,32.74c6.65-14.1,8.69-25.95,8.35-36.55H1926.63v1156H104.17c-18.9-46.31-1-60.59-22.89-115.63l-.56-1.4C57.92,977.62,43.91,982.24,25.94,923c-10.52-34.68-19.26-48.15-27.3-65.84m0-110.62C12,728.17,27.39,710.61,23.38,678.86,16,620,39.81,622.42,37.54,563.13,36,522.43,12.26,511.2-1.36,488.86"/><path class="cls-3" d="M-1.36,192.89c23.17-45,104.33-23.31,123.3-77.51,9-25.71,33.65-13.09,43.63-38.42C179,43,212.34,63.41,227.42,30.12c5.89-13,7.9-24,7.76-33.93H1926.63v1156H111.51c-17.72-45.85,1.84-61.06-19.59-115.77-5.51-14.07-6.12-13.69-11.35-27.86-16.44-44.56-24.85-41.7-38.46-87.2C25.52,865.89,10.86,865.6-1.36,814.72m0-45.11c11-30,42.57-46.25,37-90.81C28.31,619.93,55.5,622.26,53.24,563c-1.72-45-38.48-54.17-54.6-82.07"/><path class="cls-3" d="M-1.36,194.5C19.53,145,112.94,170,131.47,114.29c4.65-14,12.79-9.55,17.72-23.41,16.29-45.82,65-19.22,84.29-63.87,5.05-11.69,7-21.76,7.13-30.82h1686v1156H119.44c-16.34-45.49,5.62-61.88-15.38-116.24-11.38-29.47-13.84-28.28-24-58.19-10-29.29-13.55-28-22.32-57.67-17.3-58.49-34-55-46.47-114.72C-1,746.69,56,738.2,48.59,678.71c-7.28-58.88,24.87-56.67,22.62-116-1.74-45.83-51.64-54.77-72.57-84"/><path class="cls-3" d="M-1.36,203.06c.2-.87.4-1.76.61-2.66C12.52,143,122.51,174.29,140.69,118.21c.75-2.31,1.11-1.93,1.87-4.24C162.29,53.82,215,84.18,240.5,26.25c5-11.4,7.13-21.23,7.46-30.06H1926.63v1156h-1799c-15-45.24,9.86-62.9-10.72-117-17.64-46.36-22.77-44.14-37.42-91.53-3.79-12.24-4.38-12-8-24.28-17-58.51-33.45-54.94-45.72-114.63C13.71,746.07,69.2,738.14,62,678.65c-7.16-58.89,31.27-56.81,29.08-116.09-1.67-45.19-64.32-54.88-92.41-83.34"/><path class="cls-3" d="M-1.36,225c2-7.43,4.08-15.92,6.4-26,8.4-36.77,87.64-17.07,98-53.33,6.52-22.76,43.29-9.74,50.6-32.26C173.19,53.2,222.73,81.94,248.08,24a88.42,88.42,0,0,0,7.56-27.83h1671v1156h-1790c-13.56-45.15,14.56-64.11-5.59-118C109.18,975.89,101.11,979.15,84,919.28c-2.34-8.15-2.94-7.92-5.19-16.09-13.89-50.56-27.91-47.52-38.32-98.91C28.56,745.56,83,738.07,75.91,678.59c-7-58.9,38.42-57,36.28-116.26-1.6-44.5-77.44-55-113.55-82.64"/><path class="cls-3" d="M-1.36,245.31a223.65,223.65,0,0,0,16-47.2c2.65-11.62,13.77-9.87,16.61-21.44,11.82-48,116.89-17.45,132.15-64.49,19.5-60.12,67.78-32.61,93-90.57,4.23-9.75,5.88-18,6-25.42H1926.63v1156H146.25c-12.3-45.21,19.2-65.36-.57-119.08C124.21,974.76,113.4,979,96.56,919.16c-9-32.07-16.73-30-24.37-62.47C65.86,829.88,59.92,831,54.56,804,42.91,745.22,97,738.06,90.06,678.59c-6.88-58.9,45.5-57.11,43.46-116.38C132,517.82,42.07,506.85-1.36,479.12"/><path class="cls-3" d="M-1.36,270a87.42,87.42,0,0,0,12.92-32.29c3.92-19.89,12.15-19.86,16.63-39.63,13.54-59.78,124.65-29.53,143.37-87.89,19.3-60.12,68.72-32.84,93.74-90.8,4.05-9.37,5-16.78,4.52-23.24H1926.63v1156H157.28c-11.18-45.48,23.82-66.58,4.46-120.28-21.06-58.38-34.4-53.2-50.94-113-16.18-58.57-30.56-55.4-42.21-115-1-5,0-5.2-1-10.18C57.48,739.81,111,733,104.75,678.58,98,619.66,156.32,621.31,154.32,562,152.8,516.83,47,506-1.36,476.92"/><path class="cls-3" d="M-1.36,281.87C11.86,254.3,32.51,244,41.16,199.75c11.64-59.46,120.6-35.46,135.11-94.28C191,45.84,248.1,67.29,266.5,8.7a91.31,91.31,0,0,0,3-12.51h1657.1v1156H170.55c-.32-1-.72-2-1.23-3.21-21.15-49.22,25.45-67.6,7.57-118.1-20.69-58.4-35.78-52.56-51.95-112.37-15.85-58.59-32.44-55-43.78-114.58-9.07-47.66,41.65-54.67,35.58-102.8-1.41-11.25,3.41-11.14,2.16-22.4-6.54-58.93,55.66-57.27,53.83-116.53-1.48-47.47-126.49-57.55-174.09-90.26"/><path class="cls-3" d="M-1.36,367.39c1.34-13.16,3.24-28.08,6.3-50.33,8.21-59.71,39.71-64.17,56.42-122,17.4-60.2,107.05-30.63,130.39-88.85,17.66-44,72.57-21,90.69-64.82,6.31-15.29,16.66-12.6,22.76-28A82.62,82.62,0,0,0,310-3.81H1926.63v1156H184c.52-12.88,8.16-21.87,1.15-39.49-13.9-35,19.83-47.07,7.52-82.65-20.21-58.43-36.28-52.23-52.09-112-15.5-58.61-35.88-54.2-47-113.8-10.93-58.78,46.6-66,40.17-125.39-6.38-59,56.74-57.25,55-116.51C187.23,509.23,28.64,502.71-1.36,459.12"/><path class="cls-3" d="M1926.63,1152.19H190.79c-.78-20.22,15-33,5.07-58.48-10.84-27.68,13.21-35.82,3.54-63.94-20.05-58.34-36.07-52-51.13-111.86-14.75-58.59-37.68-54-47.69-113.59C90.7,745.51,150.3,739.11,145,679.71c-5.26-59,58-56.29,57.3-115.51S4.63,500.82,8.39,441.77c3.77-59.33,7-65.68,15.34-124.55,8.4-59.62,36.72-62.64,52.05-120.82,15.81-60,102-34.47,122.88-92.89C211.33,68.14,255.85,85.13,269,49.92,277.84,26,301.31,33.05,309.84,9a86.4,86.4,0,0,0,3.49-12.85h1613.3Z"/><path class="cls-3" d="M1926.64,1152.19H207.19c-8.21-39.45,27.86-59.42,11.49-105.52-3-8.37-.25-8.93-3.12-17.34-19.9-58.34-35.29-52.1-50.19-111.91-14.59-58.61-42.94-53-52.8-112.59-9.72-58.81,54.07-65.7,48.92-125.08-5.12-59,58.87-56.13,58.24-115.35S20.38,500.68,24.22,441.63c3.86-59.33,12.22-64.91,20.57-123.79,8.44-59.56,32.3-61.81,46.43-120.27C105.67,137.81,189,160,207.48,101.32c7.15-22.66,30.09-14.91,37.44-37.51C256.8,27.29,303,40.56,314.29,3.86q1.2-3.91,2-7.67H1926.63Z"/><path class="cls-3" d="M1926.63,1152.19H226.17c-13.9-48.07,24.27-67.61,5.56-123-5-14.88-7.2-13.5-11.91-28.49-13.76-43.82-25.76-39.13-36.76-83.73-14.47-58.61-48.31-52-58.07-111.58-9.63-58.82,59.07-66.33,54-125.71-5-59,60.11-56,59.55-115.2s-202-63.94-198.07-123c3.92-59.34,18.34-64.07,26.75-122.95,8.5-59.51,27.14-61.26,40.18-119.95,13.23-59.55,95.2-40,111.23-98.87,1.16-4.25,2.09-3.94,3.25-8.19C236.93,36.65,304,53.23,318.05-1.93c.16-.63.31-1.25.46-1.88H1926.63Z"/><path class="cls-3" d="M1926.63,1152.19H246.36c-15.35-49.3,22.77-67.67,4-123.7-14.24-42.63-27.59-37-39.2-80.43-4.3-16.09-6.62-15.09-10.57-31.27-14.3-58.62-52.6-51.3-62.22-110.87-9.5-58.82,63.93-66.87,59-126.25-4.94-59,61.67-55.86,61.17-115.07S53.48,500.5,57.4,441.46c4-59.34,24.27-63.21,32.68-122.08,8.49-59.49,22.12-60.92,34.17-119.81,7.28-35.6,61-24.62,68.87-60.1,5.25-23.66,32.43-17.51,37.78-41.15,13.06-57.58,75-47.66,89-102.13H1926.63Z"/><path class="cls-3" d="M1926.63,1152.19H266.46c-16.41-50.51,23.53-68.44,4.8-125.07-19.32-58.39-39.54-50.48-54-110.27-4.48-18.57-13.45-16.23-17.47-34.91-8.67-40.33-40.19-35-46.69-75.69-9.38-58.83,67.5-67.21,62.63-126.58-4.85-59,63.21-55.7,62.8-114.91S70.69,500.35,74.7,441.31c4-59.34,28.75-62.57,37.23-121.44,7.66-53.11,17.39-54,27.21-106.75,1.17-6.31,1.35-6,2.49-12.34,10.7-59,89.12-45.77,97.61-105.11,7.92-55.36,66.84-51.54,80.62-99.48H1926.63Z"/><path class="cls-3" d="M1926.63,1152.19H285.5c-16.9-51.39,26.57-69.76,7.88-126.78-19.13-58.39-46.7-48.3-60.94-108.07-14-58.64-53.42-51.5-62.73-111.05-1.11-7.12,1.65-7.77.6-14.9-7.61-51.81,68-59.43,63.86-111.63-4.68-59,64.5-55.52,64.23-114.72S88.64,500.19,92.75,441.15c4.13-59.34,30.61-62.24,39.14-121.11.09-.56.09-.6.18-1.17,8.58-58.9,19.62-59.24,30.39-117.82,10.81-58.86,79-47.45,86.43-106.84,6.65-53.53,58.18-54.23,71.9-98H1926.63Z"/><path class="cls-3" d="M1926.63,1152.19H303.11c-19.78-53.13,31.56-72,13.25-128.5-18.93-58.4-55.68-45.75-69.72-105.51-13.77-58.65-53.1-51.92-62.23-111.47-9-58.85,72.59-67.45,68-126.81-4.53-59,65.27-55.41,65.12-114.6S107.48,500.06,111.68,441c4.23-59.35,33.87-61.69,42.46-120.56,8.68-59.49,21.7-59.59,32.88-118.69,11.12-58.72,62.8-49.64,69.08-109.08,5.48-51.9,51.49-56,64.71-96.51H1926.63Z"/><path class="cls-3" d="M1926.63,1152.19H322.8c-3.63-17.85,10.3-26.07,2.29-47.08-13.47-35.3,24.84-46.83,13.28-82.8-18.78-58.4-64.45-43.35-78.3-103.11-13.58-58.65-56.53-51.86-65.46-111.4-8.83-58.86,78.34-68.2,74-127.56-4.34-59-177-55.52-176.93-114.71S129.24,500.05,133.59,441C138,381.66,174.33,380.64,183,321.77c8.79-59.5,19.47-59.81,31-118.87,11.47-58.56,44-51.88,49.18-111.34,4.4-50.7,46.73-57,59.11-95.37H1926.63Z"/><path class="cls-3" d="M1926.63,1152.19H345.29c-14.2-43.91,31.88-61.5,16-108.92-3.48-10.43,1.21-11.08-2.11-21.56C340.7,963.28,288,980,274.35,920.22c-13.41-58.66-63.24-51.31-72-110.84-8.69-58.86,85-69.36,80.76-128.71-4.23-59-169-56.15-168.88-115.34s40.15-65,44.61-124.05c4.48-59.35,48.75-58.73,57.57-117.59,8.91-59.51,13.22-60.65,25.33-119.63,12-58.37,27.73-53.56,31.73-113C276.85,40.22,258.23,34.6,252-3.81H1926.63Z"/><path class="cls-3" d="M1926.63,1152.19H370.72c-21.21-55.86,26.81-71.54,8.39-130.58-6.22-19.92-21.54-13.91-27.19-34C341,948.72,299.1,960.38,290.23,921,277,862.29,218.59,870.5,210,811c-8.53-58.87,91-70.44,86.87-129.78-4.1-59-158.46-56.88-158.22-116.06s43.11-64.41,47.66-123.43C190.83,382.35,242,384.63,251,325.77c9-59.53,4.44-61.79,16.79-120.74,11.89-56.78,54.17-58.87,43.69-116.06C301.13,32.78,228,43.84,208.69-3.81h1718Z"/><path class="cls-3" d="M1926.63,1152.19H397.25l0-.07c-23.63-58.18,23.92-71.82,5.39-131.82-17.56-56.83-80.72-37.71-93.71-95.75-.36-1.66-.48-1.64-.85-3.3-13-58.68-79.29-49.68-87.71-109.19-8.33-58.88,94.6-71,90.69-130.35-3.9-59-148.25-57.73-147.82-116.9s45.68-63.74,50.39-122.76c4.73-59.36,59.7-55.86,68.73-114.72,7.86-51.17-5.77-54.9,5.3-105.46,1.81-8.29,1.06-8.72,3-17,12.84-55.84,55.41-63,39.69-118.17-.15-.54-.18-.61-.34-1.16C313.63,29,239.24,45.3,218.51-3.81H1926.63Z"/><path class="cls-3" d="M1926.63,1152.19H423c-.37-.9-.77-1.83-1.18-2.79-24.49-57.66,26.47-71.17,8.31-131.18-17.67-58.46-85.22-38.12-98.06-97.83-11.59-53.86-84.56-43.47-92.35-98-.7-4.92-1.94-5.2-2.61-10.13-8-58.89,94.87-70.79,91.29-130.12-3.56-59.07-140.91-58.23-140.44-117.4s46.77-63.24,51.39-122.27c2.48-31.55,34.06-34.56,41.74-65.35,7-28,30.11-22.33,37.44-50.24,14.75-56.14,56.7-77.41,35.46-125.94-.54-1.26-22.34,8.28-22.91,7-10-21.88,10.54-30.21,1.49-52.46-14.27-35.12-21.43-30.41-30.82-67.13C289,38.61,235.53,34.73,220.2-3.81H1926.64Z"/><path class="cls-3" d="M1926.64,1152.19H446.24c-.49-1.16-1.09-2.57-1.89-4.42-25.07-57.32,32.61-72,14.71-132.06-17.43-58.47-83.21-38-95.8-97.67-12.39-58.72-95.75-46.83-103.65-106.32-7.82-58.91,91.64-70.17,88.07-129.48C344.14,623.42,214.88,611.66,222.1,553c7.32-59.4,53.52-55.74,62.88-114.87,9.31-58.76,53.25-50.43,54.9-109.75C341.51,269.57,379.69,252.09,354,200c-12-24.32-11.87-22-21.45-47.41-12.64-33.47-18.67-29.31-26.86-64.14-11.62-49.41-61.6-54.54-76-92.24h1697Z"/><path class="cls-3" d="M1926.63,1152.19H465.55c-.56-1.41-1.17-2.85-1.81-4.31-6.47-14.83,4.52-17.56-1.14-32.71-16.26-43.57,37.75-56.9,24.66-101.53-17.16-58.48-75.44-39.11-87.76-98.8C387.38,856.11,294.72,870.11,287,810.63c-7.61-58.92,74.79-68.41,71.32-127.72C354.9,624,249,617.43,253.67,558.54c4.74-59.3,38.53-58.14,44.88-117.3,6.32-58.92,82.05-53.56,81.14-112.68-.9-59.39.51-73.55-24.14-127.84-13.05-28.71-13.4-26.11-23.26-56.07-9.62-29.25-13.82-26.08-20.23-56.19C301.53,39,320.25,33.64,326.11-3.81H1926.63Z"/><path class="cls-3" d="M1926.63,1152.19H482.36c-.41-1-.84-2-1.28-3-19.42-44.66,45.63-59.16,33.18-106.2-3.46-13.06,5.17-11.62,2.21-24.8-13.09-58.27-52.71-42.8-58.19-102.32-5.44-59-102.85-53.45-103.92-112.67s83.24-59.57,83.9-118.75S413,624.74,412.8,565.55s36.23-62.84,32-121.86c-4.31-59.48-28.08-62.29-41.38-120.34-14-60.94-21-64.21-45.77-122-14.79-34.57-15.7-31.49-25.85-67.69-6.55-23.38-9-21.13-13.52-45-9.47-49.9,5.5-54.53,10.86-92.43H1926.63Z"/><path class="cls-3" d="M1926.63,1152.19H496.92c-.13-.3-.25-.6-.38-.91-24.2-57.31,52.31-74,37.7-134.37-7.59-31.37-24.55-21.71-29.85-53.55-4.56-27.42-20.65-21.8-23.85-49.42C473.72,855,374.41,863.42,371.81,804.15s-7.59-60.34-8.4-119.54,51.59-60,50.13-119.15S455,502,449.72,443c-5.29-59.54-26.79-62.34-41-120.32-14.91-61-24.84-62.13-48.44-120.76-17.57-43.6-19.21-40-29.36-85.92-3.11-14.06-3.88-12.9-6.27-27.1-8.46-50.27,3.69-54.42,8.87-92.68H1926.63Z"/><path class="cls-3" d="M1926.63,1152.19H511.19c-21.95-56.59,50.88-74.79,35.59-134.65-14.89-58.29-39.59-45.38-47.82-105-6.45-46.69-94.76-36.25-98.54-83.23-1-12.3-11.21-11.91-12.07-24.22C384.23,746,373,745.21,370.65,686s48.91-61.22,46.1-120.39,44.86-64.46,38.53-123.43c-6.4-59.6-25.65-62.39-40.75-120.3C398.65,261,386,262,364.1,202.71c-21.08-57-23-53.32-31.69-113.43-1-7.19-2.93-6.47-3.78-13.69-5.17-43.56,6.52-47.72,12.26-79.4H1926.64Z"/><path class="cls-3" d="M1926.63,1152.19H526.6c-19-55.53,44.42-73,28.93-132.09-15.3-58.38-27.12-49.32-36.58-109C509.61,852.27,412.1,865.33,406.34,806c-5.73-59.1-19.88-59.2-23.95-118.44-2.41-35,29-37.17,26.58-72.16-1.64-24.2,16-25.38,14.23-49.57-4.45-59.28,45.41-65.6,37.84-124.56-7.67-59.64-24.93-62.2-40.84-120.11-16.69-60.77-31.5-58.14-52.44-117.86-20-57-21.38-53.53-28.51-113.5-6.07-51.14,4.82-54.34,11.25-93.59H1926.63Z"/><path class="cls-3" d="M1926.63,1152.19H544.26c-17.28-55.09,34.79-70.3,19.18-128.91s-12.28-53.92-22.76-113.53c-10.35-58.89-103.17-44.33-110.34-103.7-7.15-59.08-29.59-57.74-35.25-117s44-63.9,38-123.06c-3.45-34.17,27.89-37.94,23.69-72-3.09-25.09,15.55-28.7,11.76-53.7-9-59.71-24.24-62.29-41.3-120.14-17.84-60.48-35.07-55.82-54.31-116-18.31-57.21-19.08-54.1-24.71-113.89-4.85-51.53,5.65-54.4,12.8-94.09H1926.63Z"/><path class="cls-3" d="M1926.63,1152.19H561.73c-3.54-17.13,7.52-22.44,1.25-41.93-12.14-37.73,21.7-46,11.5-84.25-15.61-58.54.42-57.37-10.31-117C553.6,850.23,471,863.57,464.86,804.15c-6.05-59-49-59-50.88-118.3S445.79,626,443.22,566.91c-2.61-59.48,69.18-74,53.16-131.29-10.17-36.38-15.92-40.3-30.68-75.1-10.08-23.75-16.25-22.64-27.29-46C411.16,257,396.55,266.14,379,205.13c-16.5-57.45-16.6-54.73-20.76-114.35C354.65,39,364,36.17,371.71-3.81H1926.63Z"/><path class="cls-3" d="M1926.63,1152.19H570.92c-10.17-50.76,36.44-66,21.93-120.87-.54-2-.37-1.94-.91-4-15.3-58.53,7.51-58.79-2.87-118.4-10.25-58.8-79.93-47-85.77-106.39-5.8-59-72.68-57.44-74.3-116.69s12.32-59.06,10.21-118.18c-2.12-59.55,90.59-78.24,69.23-133.9-17.85-46.47-22.33-50.47-46.37-94.23-7.82-14.24-9.95-12.38-17.51-26.76-29.34-55.74-43.28-45.71-58.93-106.73-14.77-57.62-14.17-55.26-16.55-114.7-2.08-52.11,5.42-55,13.81-95.17H1926.64Z"/><path class="cls-3" d="M1926.63,1152.19H575c-5.48-50.47,46-67.29,32-122.78-11.62-46,15.94-48.85,7.13-95.48-2.42-12.82.33-12.09-1.87-24.95-10-58.8-69.5-48.1-75-107.5-5.46-59-90.87-56.71-92.09-115.94s-4.81-59.59-5.65-118.76c-.85-59.4,106.15-80.5,78.75-133.76-26.85-52.2-27.57-54.19-57.53-104.83-5.2-8.79-5.39-6.82-10.18-15.84-29.18-54.93-43.89-44.6-57.8-105.45-13.2-57.76-11.91-55.75-12.57-115-.58-52.26,4.69-55.55,13.72-95.7H1926.63Z"/><path class="cls-3" d="M1926.63,1152.19H577.53c-2.13-48.6,44.69-63.07,31.92-117.63-13.79-58.94,32.51-67.93,20.33-127.23-8.4-40.89-48.66-32.48-56.85-73.41-3.65-18.28-16.24-15.75-19.88-34-11.78-59.21-97.5-41.82-109.55-101s11.2-63-2.05-122c-13.34-59.46,76.88-81.68,60.84-140.46-14.6-53.51-19.91-55.44-39-107.5-2.29-6.25-2.85-6.61-5.23-12.82-22.09-57.62-44.22-47.79-55.7-108.22-11-58-40.16-57-39.07-116.1,1-52.23,28-55.89,43.21-95.6H1926.63Z"/><path class="cls-3" d="M1926.64,1152.19H581.75c-1.19-47.92,35.28-57.37,23.55-111.75-12.73-59.06,45.52-71,33.51-130.16s-50.46-51.68-63.3-110.77c-7.08-32.57-59.47-20.8-66.86-53.3-6.06-26.68-43.26-17.51-49.56-44.13C445,642.71,456,641.88,440.46,582.9c-15.7-59.46,86.19-87.86,68.26-146.69-18.19-59.7-20.55-61.37-42.31-119.85-1.66-4.44-2.18-4.53-3.87-9-20-52.66-41.57-43.14-50.34-98.79C403,150.39,377,150.19,380.06,91.33c2.75-52.3,26.37-55.86,42.15-95.14H1926.63Z"/><path class="cls-3" d="M1926.63,1152.19H589.48c-1-49.45,23.45-52.25,13.08-107.48-11.1-59.18,50.55-70.84,39.26-130C630.49,855.34,613.6,858,600.2,799c-13.5-59.43-103.94-36-119.58-94.94-4.18-15.75-7-14.19-11.29-29.9-12-43.63-12.94-41.1-26.13-84.39-18.13-59.51,93-94.56,72.84-153.42-20.35-59.47-17.93-60.87-39.14-120-7-19.54-13.78-14.81-19.26-34.83-10.56-38.6-28.43-32.58-33.24-72.31-7.06-58.44-30.57-59.65-25.4-118.3,4.4-50,30.76-46.14,43.39-94.7a0,0,0,0,0,0,0H1926.64Z"/><path class="cls-3" d="M1926.63,1152.19H703c-6.94-48.59-95-55.73-97.94-110.8C601.92,982,656,977.22,645.79,918.57c-10.37-59.49-5.91-61.37-19.68-120.16-14-59.6-97.14-36.21-114.45-94.91-14-47.46-34.45-37.64-50.34-84.5-4.09-12-4.06-11.21-8.25-23.22C432.31,536.27,545.63,496,523.32,437S510,376.53,490.69,316.53C473.4,262.9,445,273,439.48,216.88c-.36-3.7-.59-3.54-.9-7.24C434.4,159.9,412,158.69,416.76,109c.87-9.08.77-9.5,1.92-18.55,6.8-53.52,32.57-54,51.73-94.25H1926.63Z"/><path class="cls-3" d="M1926.63,1152.19h-1207c-9.68-46.11-101.32-58.7-101.84-112.61-.58-59.23,48.57-60.43,39.77-119-8.94-59.56,8.92-64.15-5-122.74-14.25-59.81-82.69-39.25-101.92-97.64-19.73-59.89-56.28-41.79-79.8-100.3-4-10,2.37-12-1.71-22-20.19-49.29,81.34-90.82,61.21-140.13-23.78-58.22-5.08-60.94-22.21-121.34-16.25-57.25-50.14-46.9-52.61-106.38-2.44-58.92-19.7-61.13-9.67-119.27,9.57-55.43,39.51-51.1,61.27-94.58H1926.64Z"/><path class="cls-3" d="M1926.63,1152.19H734.53c5.46-43.66-6.81-58.51-4.81-111.33,2.24-59-44.09-61.47-51-120.12-4.73-40,11-43.12,3.38-82.65-3.76-19.45,1-21.17-3.47-40.47-13.89-60-63.45-45.36-84.07-103.39C573.15,634,525.48,658.34,499,600.17c-13.2-29,26.47-46.51,12.91-75.32-14.22-30.22,41-55.64,27.45-86.18-25.34-57.27,5-61.26-9.19-122-13.5-57.61-54.72-47-54.74-106.18s-4.56-59.17,7.77-117.09c12.26-57.68,39.78-48.79,63.47-97.17h1380Z"/><path class="cls-3" d="M1926.63,1152.19H745.23c5.56-41.38-9.36-57.75-4.78-109.5,5.21-58.75-36-63.08-40.37-121.92-4.48-59.51,15.09-64.39,2.2-122.66-7.07-32-23-28.82-32.61-60.09-8.55-27.83-25.91-21.49-36.37-48.66C609.94,628.7,562.08,654.82,532.18,597c-22.32-43.1,36.12-73.36,14.21-116.67-8.13-16.05,10.24-24.63,2.69-40.95-26-56.18,17.91-61.58,6.51-122.29-10.87-57.9-85.57-48.36-82.86-107.24,2.73-59.49,39.74-53.86,54.85-111.48C543.16,39,558.24,48.63,584.51-3.81H1926.63Z"/><path class="cls-3" d="M1926.63,1152.19H755.24c4.81-39.71-14-57.75-6.91-108.56,8.11-58.49-25.83-63.83-27.83-122.85-2-59.36,12.35-63,.07-121.11-12.8-60.46-35.92-54.63-60-111.56-1.94-4.58-2-4.38-4-8.94C631.8,623,595.6,644.59,565,591.29c-31.83-55.41,25.4-87.15-2.13-144.72-1.55-3.23-.68-3.4-2.18-6.66-25.63-55.35,31.21-60.84,22.79-121.27-8.11-58.23-95.23-51-89.66-109.52C499.49,149.31,552,161.33,570.05,104c7-22.35,8.63-18.64,17.3-40.41,14.87-37.33,13.8-33.52,32.29-67.4h1307Z"/><path class="cls-3" d="M1926.63,1152.19H762.92c3.85-38.45-18.12-58.33-8.39-108.26C765.86,985.76,743.22,980,744,920.76s3.33-61.19-8-119.09C724.09,741,713.12,743,686.88,686.89,674.6,660.61,669.6,664,655.3,638.71c-19.28-34-39.11-20.82-60-53.86-36.43-57.61,6.46-82.84-21-144.88-5.43-12.27,1.26-13.21-3.21-25.85-15.72-44.47,44.43-45.32,40.28-92.5C606.19,263,509.13,266.5,517.5,208.26c5.21-36.22,42.42-28.23,52.27-63.48,6.58-23.58,25.25-14.84,33.72-37.8C626.12,45.58,622.93,51.86,657-3.81H1926.63Z"/><path class="cls-3" d="M1926.63,1152.19h-1157c2.92-37.79-21.51-59.37-9.13-108.6,14.55-57.85-.42-63.16,3.24-122.7,3.63-58.84-1.85-59.79-11.3-117.77-9.91-60.83-5.85-64.75-33.87-119.86-22.24-43.72-37-34.52-64.5-75.23-11.58-17.17-18.31-12.35-30.08-29.39-39-56.52-6.13-76.42-32.21-139.37-22.58-54.51,45.53-53.76,43.56-113.26-2-58.95-101-60.81-88.88-118.57,12.76-60.57,76.07-37.39,101.17-94C675.05,51.59,662.8,53.46,701.1-2.31l.2-.29.83-1.21h1224.5Z"/><path class="cls-3" d="M1926.63,1152.19H776.19c2.24-37.57-23.88-60.62-9-109.3,17.58-57.59,8.49-62,15.13-121.84,6.51-58.58-2.92-59.39-9.33-117.77-6.64-60.62,8.88-71.18-20.7-124.94-32.08-58.27-58.17-41.84-98.42-95.11-3.09-4.09-3.57-3.77-6.64-7.86-41.39-55-10.9-73.33-34.23-137.1-20-54.58-123-52.66-121.41-111.62,1.58-59.38,79.5-60,94.8-117.48,16.23-60.94,79.72-31.55,108.23-87.85,13.6-26.85,5.07-25.73,20.93-51.32,21.1-34,5.23-39,29.75-70.7.82-1.07,1.63-2.1,2.43-3.11H1926.64Z"/><path class="cls-3" d="M1926.63,1152.19H781.57c2-37.62-24.82-61.62-7.44-109.88,11.16-31,6.88-33.11,15.1-65,7.08-27.41,4.66-28.35,9.23-56.28,9.55-58.29-2.69-59.4-4.17-118.45-1.07-43.16,22.22-52.78,4.82-92.42-7.34-16.71-5.22-20.25-14.48-36-37.49-63.68-70.5-42.22-117.71-99.7-5.76-7-5.45-7.53-11.1-14.63-37.14-46.68-1.55-65.85-18-122-16.25-55.39-117.84-57.28-112.56-115.7,5.42-59.85,90.25-51.32,109.61-108.28,16.58-48.76,63.46-22.35,87.9-67.71,6.46-12,8-8.18,14.95-19.9,37-62.67,11-70.79,58.71-125.84,1.45-1.68,2.68-3.05,3.76-4.22H1926.63Z"/><path class="cls-3" d="M1926.63,1152.19H786.54c2.08-37.86-24.93-62.26-5.14-110.23,5.35-13,4.32-13.64,9.24-26.79,16.82-45,9.7-47.91,19.94-94.79,12.65-58,29.8-58.3,31.31-117.63,1.49-58.77,1.79-79.17-28.47-129.13-5.45-9-3.89-11.79-9.94-20.4-38.2-54.3-64.32-35.57-109.06-85.08-16-17.76-14.56-19.39-29.08-38.41-27.27-35.69,9.84-47.77.79-91C654.31,382.17,554.65,377,563.62,319c9.34-60.33,92.6-44.32,115.74-100.87,2.81-6.86,4.24-5.68,7.22-12.47,23.95-54.6,43.79-37.67,77.16-87.13C791.3,77.68,780,75.05,812.39,37.87c18-20.62,17.93-17.62,37.1-37.12q2.26-2.29,4.18-4.56h1073Z"/><path class="cls-3" d="M1926.63,1152.19H790.91c2.45-38.23-24.32-62.44-2.26-110.26,1.12-2.44,1-2.43,2.18-4.86C818.49,978.26,804,971,833.35,912.88c25.71-50.86,29.5-53.6,8.16-98.17-22.83-47.7-6.84-60.16-47.68-99.51-20-19.27-18.89-18.6-36.76-39.86-44.18-52.6-70.76-40.65-96.79-104.07-4.16-10.14-.69-12.25-4.28-22.62-16.15-46.68,41.82-54.57,39.35-103.86-3-58.76-106.64-71.67-93.26-129.06,3.53-15.15,16.07-15.24,20.56-30.14,13.67-45.37,82.9-20.23,104.13-62.62,31.26-62.43,27.49-60.24,70.37-115.43,3.74-4.81,3.37-4.64,7.18-9.39C850.84,40,853.74,47.46,908.56-3l.93-.85H1926.63Z"/><path class="cls-3" d="M1926.63,1152.19H794.1c.64-35.49-25.41-57.83-2.75-101.31,2.17-4.16,1.33-4.65,3.48-8.83,30.33-59.13,10.79-68.45,38.62-128.74,24.18-52.4,28.57-53.08,8.46-99.44-6-13.8,17.09-23.8,7.64-36.09-32.39-28.72-24.68-36-54.26-67.34-16.36-17.35-14.46-17.09-28.95-36-40.31-52.71-63.18-43.3-84.27-106.1-18.79-56-62.39-63.54-60.8-122.44,1.6-59.41,8-73.7,25.21-130.64C665.11,253.78,752,289.62,784.18,234c18.82-32.47,10-32.9,32.23-63.14,21.13-28.74,4.43-39,28.06-65.73,34.48-39,36.37-34.12,75-69C945,13.1,951,23.1,978,1.78c2.59-2,5-3.9,7.21-5.59h941.47Z"/><path class="cls-3" d="M1926.63,1152.19H797.43c-2.85-21.75-16.31-37.46,3.24-64.74,13.29-18.55-4.91-31.61,8.48-50.08,40.66-56.12,20.36-65.14,46.76-128.5,20.5-49.2,27.37-49.22-2.84-87.15-39.86-50-14.49-70.47-55.38-119.86-11.43-13.8-9.4-13.56-19.62-28.28-36.72-52.92-49.4-47-65.75-109.19-14.85-56.47-69.61-64.67-63.21-122.66,6.64-60.09,53.21-58.09,75.16-114.49,22.06-56.66,74.6-25.08,107.87-76,3.23-4.94,2.87-4,6.19-8.89,43.11-63.58,4-89.57,58.63-143.73,6.29-6.23,6.27-6,12.67-12.12C964.91,33.64,983.71,60.84,1046,16.38c6.06-4.33,6.22-3.21,12.34-7.46,7.44-5.18,13.89-9.33,19.64-12.73h848.68Z"/><path class="cls-3" d="M1926.63,1152.19H802.22c-3.52-24.72-23.06-39.69-2.94-69.89,11.27-16.9-3.55-26.78,8.05-43.47,39.78-57.22,17.91-67.86,46.89-130.72,22.42-48.65,30.67-49.53,1.63-86-7.36-9.24,16.4-28.18,7.95-36.55-39.51-40.87-31.39-46.57-63.65-92.51-6.83-9.72-5.24-9.25-11.4-19.4-32.24-53.17-27.76-50.9-38.37-112.11-9.94-57.37-80.74-66-70-123.32,11.33-60.78,93.58-37.79,120.59-93.52,7.82-16.13,13.18-10.47,22-26.07C848.66,273.25,853.46,285,886,244.15c27.82-34.9,4.13-50.56,35.52-82.31,26.56-26.85,15.48-36.79,44-61.56,30.64-26.6,38.54-15,71-39.38,47.4-35.63,67.72-.55,117.74-32.43,10.28-6.55,9.86-4.71,20.26-11C1186.66,10,1195.29,3,1202-3.81h724.67Z"/><path class="cls-3" d="M1926.63,1152.19H808c-4.46-24.56-26.16-38.8-7.74-68.94,10.73-17.56-4.68-27,6.68-44.15,38.42-58,16.24-69.11,46.53-131.4,23.65-48.65,33.13-49.54,5.17-85.47-47.24-60.71-18.62-81.78-54.57-148.14-.52-.94-.43-.85-.93-1.79-28.19-52.8-4.86-51.58-10.78-111-5.77-58-93.45-70.4-77.73-126.86,9.41-33.81,60.29-19.28,74.73-51.27,12.1-26.8,45.58-6.61,60.54-31.93C887.36,287.78,889,299.47,939,245.28c.94-1,.8-.92,1.75-1.94,54.33-58.44,26.21-83,89.06-132.25,5.48-4.29,4.83-4.89,10.36-9.13,51.78-39.64,63.11-20,118.37-54.62,37.34-23.42,37.25-18.76,76.11-39.57,7.7-4.12,11.76-7.91,14.89-11.58h677.07Z"/><path class="cls-3" d="M1926.63,1152.19H815.47c-5.52-20.56-24.72-32.59-10.2-59.39,11.84-21.84-10.25-34.09,3.32-54.91,38.72-59.38,17.78-70.84,52.21-132.58,8.18-14.69,15-7.74,21.24-23.34,12.84-32.09,11.19-22.42-5.67-48.92-4.75-7.47-.83-.17-7.35-6.18-.82-.75,21.8-25.26,21-26-45.29-58.45-42.73-59.63-72.85-125-8.58-18.64,2.35-19.4-3.64-39-11.68-38.34,16.81-32.11,16.12-72.18-.78-45.34-104.42-59.55-92-103.3,3.93-13.86,7.28-16.23,12.14-29.79,22.3-62.26,114-16.53,151.52-71.14,22.06-32.08,19.55-26.39,45.06-55.83s2.1-46.81,30.28-74c31-29.82,14.84-46.18,48.1-73.43,39.34-32.22,21.43-57.49,63.13-86.6,18.39-12.83,18.88-13.5,37.64-25.8,57.21-37.5,81.45,2.63,142.24-28.75,11.32-5.85,15.45-12.83,19.06-19.82h639.86Z"/><path class="cls-3" d="M1926.63,1152.19H824.35c-5.25-13.56-17.07-22-8.27-42.67,12.7-29.78-22.94-46.56-5.33-73.81C850,975,832.66,964.06,871.43,903.07c2-3.16,2-2.43,4-5.63,23.42-38.43,30.59-34.05,33.38-85-2.79-2.33-24.64,23.27-27.39,20.91-3.12-2.66-3.86-3.07-6.91-5.81-52.15-46.78-20.2-83.68-44.84-149-20.62-54.71-93.88-58.54-89.86-116.86,4.14-60,39.89-69.95,64.24-125.28,27.73-63,104.54-14,147.39-68.05l1.46-1.84c50.53-63.28,1-105.1,62.44-158,2.28-2,2.19-2.09,4.49-4.05,56.42-48,35.35-80.47,96.7-122.08,18.75-12.72,20.82-11.57,39.9-23.78,39.23-25.12,50.85-10.12,91.84-32.28,20-10.82,32.19-20.69,42.08-30.06h636.33Z"/><path class="cls-3" d="M1926.63,1152.19H833.81c-1.56-3.76-2.43-8,.06-15.63,13.89-42.17-44.94-65.77-21.48-103.32,35.71-57.13,22.83-69,64-122.7,3.94-5.15,4.32-4,8.15-9.19,26.05-35.53,34.91-29,43.37-77.46-11.46-10.77-36.37,13.36-47.3,2.08-.9-.92-1.08-1.11-2-2C833,776.1,861.05,744.52,841.84,681.54c-16.87-55.31-68.57-65.66-59.55-122.78,9.62-61,61.23-54,90.46-108.77,15.87-29.76,44.16-9.18,63.65-36.71,22.54-31.83,29.89-19.29,56-48.31,32.65-36.35.93-63.39,37.4-95.92,28.87-25.75-4-66.93,26.53-90.65,28.81-22.36,16.19-44.41,46.15-65.21,57.32-39.78,72.24-27,133.17-60.95,1-.55,1.06-.56,2-1.11C1294.41,19.6,1304,30,1363.46,3.84c5.86-2.58,11.08-5.12,15.8-7.65h547.37Z"/><path class="cls-3" d="M1926.63,1152.19H851.4c-4.16-49.22-66-74-37.85-121.82,30.14-51.18,21.76-66.22,62.29-110.25C887.05,908,891.1,912.8,902,900.33c25.94-29.75,34.37-22.41,45.31-65.22-16.83-16.37-43.5,6.95-58.92-10.66-5.39-6.16-6.5-7.79-11.52-14.25-35-45-11.84-70.51-23.69-126.15-12-56.35-30.93-67.49-16.81-123.46,14.5-57.45,53.2-44.28,83.7-95.29,2.41-4,2.61-3.48,5.09-7.47,40.06-64.27,52.82-47.93,106.8-101.3,8.42-8.33,5.47-9.93,14.12-18,55.36-51.83-12.32-140.65,49.73-184.34,4.66-3.28,4.77-4.25,9.46-7.49,53-36.64,68.75-22.37,124.54-54.6,45.93-26.52,64.55,1.86,112.35-21.13,12.22-5.88,13.49-4.19,25.82-9.83,58-26.53,57.27-35.36,117.46-56.42a219.85,219.85,0,0,1,30.37-8.51h410.85Z"/><path class="cls-3" d="M1926.63,1152.19H862c-4.61-50.77-74-75.21-48.08-124.63,24.45-46.68,22.46-64.84,60.85-101.74,18.29-17.58,28-7.94,46.44-25.32,25.66-24.15,32.35-17,45.65-54.32-20.58-21.91-48.63-.56-66.75-24.36-12.54-16.46-13.35-22-23.18-40.17-20.54-38-4.14-53.7-9.81-96.52-7.58-57.29,1.22-65.35,20.39-120.22,6-17.17,11.3-15,18.91-31.56,20.53-44.58,51.41-22.1,80.75-61.54,30.48-41,31.7-31.9,68-67.91,21.52-21.37,10.54-29.32,33.41-49.22,35.66-31-1.6-77.12,36.43-105.2,42.17-31.13,16.81-74,61-102.32,15.84-10.15,18.53-9,34.61-18.83,57.67-35.09,88.11,11.47,148.67-18.37,35.84-17.65,40.48-9.41,77.28-25,22.68-9.6,24-6.92,47-15.65,58.07-22,59-21.52,119.06-37.5,37.43-10,49.66-24.35,69.38-35.65h244.6Z"/><path class="cls-3" d="M1926.63,1152.19H868.52c-4.06-52.15-77-73.76-55.29-126.19,18-43.62,25.38-65.51,60.93-97.35,24.22-21.69,39.89-7.59,66-27,25.69-19.07,30.38-12.76,46.57-44.62-24.71-27.33-54.29-7.75-74.41-38.12-24.66-37.24-17.91-54.13-25.88-98-3-16.7.71-19.54.21-36.5-.71-24.09,20.57-23.52,24.72-47.27,6.26-35.85,2.56-36.56,17.21-70C956.5,503.48,1009.87,546,1055,492.88c10-11.72,8.25-8.89,18.72-20.13,48.33-51.9,14.07-79,70.14-122.56,6.35-4.93,4.81-6.34,11.22-11.17,56.89-42.9,8.33-118.94,69.3-155.84,24.27-14.69,34.34,0,58.91-14.21,34.29-19.77,55.75,16.71,91-1.2,57.86-29.38,63.19-18.06,123.53-41.94,37.27-14.75,35.57-18.83,73.69-31.21,21.35-6.94,21.59-5.81,43.17-12,58.39-16.66,50.63-60.21,110.41-70.73a117.18,117.18,0,0,0,42-15.74h90.66c3,20.55,5.8,42.41,10.51,42.34,22.45,6.26,40.81-2.07,58.33-11.17Z"/><path class="cls-3" d="M1926.63,1152.19H871.71c-3.63-53.93-78.51-75-58.75-128.76,21.55-58.58,36.51-49.59,50.66-110.12,4.62-19.79,20.69-14.87,23.82-34.94,6.06-38.87,54.83-34.92,56.9-74.25,3.11-59.33-21.77-59.72-10.17-117.75,6.05-30.3-3.92-32.29,4.18-62.19,13.6-29.29,33.55-18,49.38-46.07,23.83-42.21,54.49-11.34,85.79-48.43,16.88-20,18.23-11.59,36.58-30.26,39-39.69,12.14-59.59,55.66-94.29,28.71-22.89,7.67-48.62,37.68-69.78,29.3-20.65,10-50.22,40.28-69.48,57.5-36.64,72-14.55,132.56-46,10.29-5.34,12.63-.73,23-5.94,48.12-24.19,63.9,13.33,113.47-7.71,58.15-24.69,44.14-55.91,104.24-75.37,51.44-16.65,38.84-69.82,91.62-81.53,7-1.55,7.27-3.31,14.29-4.77,43.27-8.94,57.16-34.43,85.68-48.4h96c7.49,2.75,14.81,6,22.09,9.48Z"/><path class="cls-3" d="M1926.63,1152.19H872.72c-4.13-55.06-76.67-75.58-59.2-130.31,15.67-49.1,39.63-41.31,55.1-90.46,3.36-10.72,6.24-8.54,9.2-19.37,15.81-57.71,76.75-46.46,83.72-106.06s-18.26-62.26-1.19-119.65c18.29-61.47,48.78-42.8,82.12-97.48,8.24-13.52,11.49-8,20.53-21,34.28-49.3,46.31-25.33,89.16-67.48,19.43-19.1,9-23.79,29.63-41.57,51.39-44.28,4.57-101.53,61.31-138.76,4.76-3.12,4.28-4,9.06-7.11,57.36-36.89,61.92-31.19,122.57-62.41,45.87-23.62,71.61,34.81,119,14.34,12.49-5.4,13.74.44,26.33-4.73,58.17-23.92,42.87-54.64,102.91-73.4,58.35-18.22,41-87.87,100.85-100.35,58.51-12.21,59.73-58.28,119.26-63.47,32.12-2.8,58,5.11,83.58,16.59Z"/><path class="cls-3" d="M1926.63,1152.19H858.24c-5.52-54.56-56.64-75.63-41.58-130.6,8.86-32.37,26.84-33.27,39.16-64.56,10.69-27.13,28.17-18.09,37-45.87,18.51-58,72.21-43.66,85.1-103.24,13-60-10.63-65.39,10.59-123,14.74-40,41.84-24.44,63.13-61.3,12.1-20.94,13.26-16.2,27.28-35.9,39.8-55.88,57.73-26.84,108.42-73.21,8.66-7.92,7.91-5.73,16.79-13.4,47.65-41.16-.63-98.61,51.93-133.33,33.91-22.4,30.31-29.47,65.62-49.6,24.26-13.82,25.08-13.33,49.87-26.19,58-30.09,85.1,31.06,145.3,5.6,45.93-19.43,41.83-21.16,88.85-37.76,12.66-4.46,11.07-6.39,23.8-10.64,58.39-19.49,36.26-93.87,96.1-108.32,58.51-14.12,55.72-58,115.36-66.11,21.34-2.88,30.91,67.89,52.31,65.47,12.62,1.85,23.34-2.89,33.32-9.53Z"/><path class="cls-3" d="M1926.63,1152.19H891.44c-9.1-54.46-79-73.16-66.72-128.75,3.31-14.91,9.51-18.68,13.91-33.3,13.62-45.27,54.26-34.7,70.4-79.23,21.21-58.54,65.51-43.1,85.08-102.24,19.92-60.21,1.36-66.63,27-124.63.31-.7.32-.69.63-1.39,27.73-62.78,25-68.93,69.52-121.46,20.57-24.3,29.61-16.17,52.41-38.4,39.58-38.59,51.38-22.56,95.61-55.78,16.75-12.58,7.93-23.66,25.17-35.58,57-39.42,45.4-59.2,106.27-92.43,20.08-11,23.65-4.76,44-15.16,38.45-19.6,51.79,9.47,91.22-8.08,58.2-25.9,61-12.3,121.09-33.58,53.3-18.9,35.06-74.9,89.6-89.82,5.22-1.43,5-2.81,10.23-4.2,58.51-15.54,55.06-48.83,114.75-58.88,24.8-4.18,33.74,48.9,58.64,45.28,11.54-.3,19.52-5.78,26.33-12.84Z"/><path class="cls-3" d="M1926.63,1152.19H916.46c-11.9-54.31-87.26-69.49-77.45-125.66,10.6-60.68,63.2-58.16,86.89-115.46,24.78-59.94,61.9-43.9,89.61-102.55,9.6-20.31,5.36-22.35,14.88-42.69,13.82-29.54,4.9-33.71,18.58-63.31,4.73-9.27-15-19.93-10.09-29.09,32.51-60.24,32.14-71.53,79-121.68,3.22-3.45,3.58-3.69,6.84-7.09,50.92-53,76.48-29.07,136.06-72.29,15.55-11.27,18.27-7,34.23-17.69,42.21-28.31,31.52-46.38,76-71.05,58-32.17,70.31-8,130.48-35.84,6.13-2.84,5.87-3.17,12-6,52.29-23.69,50.63-25.79,104.37-46,58.35-21.93,47.45-57.26,107.37-74.4,58.43-16.71,57-39.84,116.76-50.74,22.4-4.09,24.89-1.83,47.46-4.9,16.92-2.31,27.3-2.56,37.23-2.2Z"/><path class="cls-3" d="M1926.63,1152.19H954.3C941,1096,850.91,1088.41,857.76,1030.67c7.16-60.31,60.17-62.91,84.75-118.58,23.57-53.37,57.57-36.74,89.18-86.2,5.43-8.5,5.88-8.5,11.14-17.1,35.24-57.59-42.56-106.37-6.58-163.44,19-30.12,29.44-35.27,52.54-62.38,27.57-32.38,36.32-36.29,67.87-64.82,28.24-25.53,36.56-24.25,67-47.16,50.34-37.93,80.12-1.05,134.38-33.17,6.61-3.92,6.33-4.65,13-8.49,57.76-33.33,66.92-16.75,127.23-45.24,55.77-26.35,51-37.49,108.46-60,2.55-1,2.55-1.05,5.1-2.05,58.38-22.71,49.41-53.92,109.31-72.24,58.47-17.88,60.09-26.83,119.87-39.6,42.12-9,57.87-9.45,85.66-10.31Z"/><path class="cls-3" d="M1926.63,1152.19H1007.42c-.89-2.41-1.75-5-2.6-7.85-16.73-56.17-129.69-51.11-125.93-109.63,3.84-59.83,58.06-64.09,79.64-120.25,10.39-27,41.5-42,63.26-40.47,15.09,1,14.84,4.6,29.87,6.55,17.54-39.09,21.19-38.68,25.73-79.23,6.88-61.38-56.91-127.4-19.05-178,.22-.3.32-.42.54-.71,49.48-66,73.53-82.09,138.42-133.45l.63-.5c56.12-44.34,106.19,13.52,167.6-23.25,32.29-19.34,39.56-8.13,72.77-25.85,26.19-14,28.56-9.86,55.2-22.95,58.17-28.59,57.37-31.8,117.46-56.11,51.39-20.79,40.53-55.32,93.15-72.78,7.14-2.37,7.12-3.75,14.28-6.05,58.46-18.82,62.68-17.69,122.47-31.67,33.22-7.77,43.07,34.33,76.49,27.44a22.84,22.84,0,0,0,9.28-3.6Z"/><path class="cls-3" d="M1926.63,1152.19h-853c-4.62-2.46-8.85-6.59-14.25-21-20.8-55.34-156-33.27-155.73-92.41S956.73,972.4,976,916.29c8.11-23.61,28.16-39.62,45.45-40.46,19.12-.93,19.41,5,38.65,6.59,26.6-40,19.76-42.08,33-86.12,9.27-30.95-24.38-59-7.54-86.62,19-31.1-7.8-68.39,16-96,34.08-39.63,49-50.58,89.17-84.11,28.55-23.81,51.82-6.36,82.26-27.7,29-20.29,49.32,3.43,79.5-15,57.51-35.08,79.78-.12,140.25-29.84,15.71-7.71,15-9.48,30.87-16.89,42.92-20.07,41.85-23.86,85.71-41.78,58.46-23.89,51.43-47.34,111.26-67.56,58.61-19.81,59.63-24.83,119.33-41.05l.72-.19c43.45-11.79,57.2-13,86.09-17Z"/><path class="cls-3" d="M1926.63,1152.19h-808.9c-3.77-7.35-8.58-17.62-15.86-32.88-.09-.2,0-.09-.14-.29-25.69-54-46.36-24-50.1-83.7-3.67-58.54-73.66-61-57.52-117.54,5.84-20.41,10.23-27.5,25-39.38,55.19-44.32,58.21-39.08,100.27-92.09l.34-.45c46.13-58.42-26.43-134.3,25.59-186.75,13.34-13.46,18.52-18.09,32.62-30.76,54.81-49.26,105.46-8.6,167.69-48.23,2.77-1.76,3.23-1.65,6-3.4,54.69-34.39,86.53,16,144.29-13s51.58-43.51,111-69.11l1.32-.57c58.37-25.11,57.78-29.94,117.7-51.12,58.48-20.66,56.7-32.71,116.51-49.15,37.26-10.24,45.57,20,83.09,10.68q.56-.12,1.08-.27Z"/><path class="cls-3" d="M1926.63,1152.19H1166.18c-9.15-6.9-12.4-11.32-31.24-41.12-26.82-42.46-41.8-12.77-53.5-61.56-2.94-12.25-5-6.78-6.92-19.23-3.87-25.27-96.74-28.84-89.83-53.84,9.13-33,44-23,48.4-56.63,2-14.87.51-15.06-6-31,56.49-24.59,56.67-24.35,105.35-59.69,21.36-15.51,17-15.58,33-36.52,38.19-49.8-29.54-125.06,15.63-168.08,11.71-11.14,14-16.94,26.21-27.5,44.48-38.38,92.53,6.26,141.73-25.93,38.89-25.44,64.38,12.61,105-10,19.22-10.7,26.52,3,46-7.22,58.12-30.34,57-31.52,117.11-57.72,49.92-21.77,44.69-34.59,95.64-53.84,8.71-3.29,8.81-3.14,17.55-6.37,58.66-21.63,59-21.61,118.69-40.26,38.22-11.94,40.56-6.94,77.63-17.68Z"/><path class="cls-3" d="M1926.63,1152.19H1208.08a53.33,53.33,0,0,0-9.18-11.53c-21.61-20.66-14.26-9.81-32.33-33.62-35-46.16-52.06-9.43-53.34-69-1.27-59.23-35-64.54-54.7-117.63-5.75-15.48-11.52-13.34-22.23-27,51.86-14.07,56.61-2.6,105.87-23,43.78-18.09,50-26.85,77.54-65.89,18.85-26.76-11.55-55.51,11.07-79.2,35.22-36.86,26.46-59.06,67-90.08,20.46-15.67,34.89-.54,56.18-15.07,57-38.93,86.06,5.06,146.81-27.88,15.65-8.48,19.91.21,35.72-8,42.68-22.1,52.26,2.64,96.26-16.75,58.44-25.76,43.56-58.14,103.37-80.55,40.66-15.23,39.66-17.14,80.77-31.12,18.27-6.21,19-3.78,37.3-9.77,41.37-13.53,50.06-30,72.46-43.93Z"/><path class="cls-3" d="M1926.63,1152.19H1224c-.49-17.57-4.66-34.78-18.78-50-2.86-3.08-1.57-1.83-4.36-5-41.14-46.27-64.7-8.72-79.93-68.58-14.8-58.18-44.61-51-62.09-108.14-3.69-12-6.62-11.14-12.58-22.48,46.9-8.25,51.34,11,97.67.31,63.56-14.65,80.44-34.39,123.51-86.22,1.4-1.69,1.13-1.71,2.54-3.38,50.59-59.59,22.59-97.56,86.73-142.87,7.5-5.3,7.64-6.23,15.24-11.39,50-34,75.65,4.89,128.47-24.67,52.48-29.36,76.36,23.18,130.83-2.27,5.71-2.66,5.65-1.62,11.37-4.25,58.34-26.75,50.71-35,110.59-58.12,58.68-22.64,43.69-59.32,103.31-79.35,31.86-10.7,27.36-23.86,59.4-34,4.22-1.34,7.73-2.65,10.75-3.95Z"/><path class="cls-3" d="M1926.63,1152.19h-693.1a37,37,0,0,0-2.62-3.07c-48.51-51.34-33.74-58.82-66.67-121.81-.82-1.57-.86-1.47-1.68-3-30.54-58.79-52.4-48.33-93.89-98.82-8-9.71-3-13.77-11.81-22.83,41.58-4.62,43.7,18.6,85.36,14.8,60.82-5.56,103.3-3.73,142.69-45.58,4.64-4.93-22.15-30.13-17.84-35.36,14.74-17.06,38.54,5.63,54.09-10.67,36.63-38.41,18.89-54,61.5-85.79,34.55-25.77,25.47-39.21,62.2-61.78,23.12-14.21,31.25-.25,55-13.43,57.87-32.16,81.24,19.59,141.36-8.18,35.28-16.29,45.32,12.17,81.07-3.08,23.59-10,24.25-3.76,48-13.38,58.7-23.77,35.8-75.33,95.45-96.59,37.83-13.48,44.82-36.64,60.91-56.33Z"/><path class="cls-3" d="M1926.63,1152.19H1249.41c-53.61-43.17-33.53-66.43-75.13-126.64-7.51-10.87-9.63-8.53-16.75-19.65-30.65-47.86-51.84-33.81-86-78.95-5.38-7.1,2.44-13-3.34-19.83,35.92-2.92,36.3,22.31,72.25,21.78,59.36-.89,96,32.86,147.34,6.29,47-24.35,61.77-39.8,102.17-77.4,18.53-17.25,11.07-16.87,31-32.55,55.66-43.9,17.6-91,79.11-126.41,5.81-3.34,5.93-3,11.77-6.23,52.21-29.39,70.93,12.35,125.29-12.85,58.57-27.16,76.53,23.33,136.28-1.1,15.13-6.18,13-8.43,28.19-14.45,43.79-17.37,30.15-46,74.44-62.05,34.68-12.61,40-42.47,50.66-68.81Z"/><path class="cls-3" d="M1926.63,1152.19h-650.5c-4.65-10.8-10.81-21.65-23.94-31.29-43.61-32-26.67-51.7-62.83-92-20-22.33-26.23-16.17-44.19-40.21-26.44-35.39-40.52-24.26-68.33-58.5-3.89-4.79,7.53-14.07,3.39-18.65,29.9-2.58,28.82,22.88,58.56,24.13,58.94,2.47,82.69,52.15,139.1,37.45,32.54-8.48,10.84-91.72,41.13-108.82,28.91-29.28,88.13,40.21,119.34,13.64,2-1.72,1.23-1.29,3.27-3,53-44.27,5.54-96.15,65.37-130.8,36.62-21.21,40.06-11.09,78-29.9,21.76-10.8,26.92.91,48.81-9.61,58.59-28.15,80,27.09,139.79,1.56,53.62-22.89,43.49-37,98-57.59,5.11-1.92,4.54-2.33,9.66-4.23,38.9-14.47,17.66-82.83,45.36-106.92Z"/><path class="cls-3" d="M1926.63,1089.14c-7.82,19.8-9.27,42.37-12.74,63H1301.11c-12.13-20.76-21.88-43.62-51.49-63.32-25.57-17-18.18-28.74-42-48.16-36.76-30-41.61-26.81-73.41-62-22.8-25.27-31.81-19.18-52.67-46.1-1.88-2.43,13.4-14.25,11.48-16.65,23.48-2.27,21.52,24.13,44.7,25.85,58.94,4.38,71.41,59,129.81,52.47,62.27-7,132.92-26.75,181.85-72.2,23.89-22.18,1.41-33.3,27.58-52.76,32.82-24.42,7.78-51,42.74-72.28,57.4-34.9,52.76-35,113.23-64.33,9.33-4.52,10.37-1.22,19.74-5.65,49.32-23.28,68.09,26.61,118.37,5.49,58.78-24.68,50-38.67,109.54-61.46,33.52-12.83,18.08-58.16,46-74.43Z"/><path class="cls-3" d="M1926.63,1043.47c-26.59,28.75-18.08,52-63.4,76.66-3.36,1.11,0,17,2.93,32.06H1649.9a130.41,130.41,0,0,0-35.82-6.78,76.41,76.41,0,0,0-36.91,6.78h-89c1.59-9.6,2.69-17.47,1.63-17.71-31.61-10.17-53.52,5.64-76.34,17.71H1337.7c-44-25.13-37.15-65.39-88.55-95.43-1.51-.88-1.55-1-3.05-1.86-61.24-36.15-67.62-37-119.93-85-17.43-16-23.48-15.83-38-34.4-.23-.3,18.71-15.1,18.47-15.4,16.69-8.43,19.23,13.31,36.67,11.28,10.19-1.2,6.91-29.22,17.12-30.29,49,3.71,44,85.3,93,88.31,58.17,3.56,179.58,17.23,214.91-19.29,43.56-45-8.61-77,43.84-111.63,10-6.6,6.55-8.78,16.71-15.11,57.21-35.67,41.58-53.82,102.12-83.56,43.18-21.21,61.61,24.44,105.63,5,15.52-6.86,18.16,1.64,33.75-5,58.85-25.23,47.59-46.89,107-70.63,34-13.56,39.41-41.85,49.15-67.84Z"/><path class="cls-3" d="M1926.63,1013.81c-31.27,40.26-8.35,105.9-63.28,123.22-57.13,18-68.74,9.14-128.49,14.29-58.75,5.06-63.62-14.27-122.36-19.59-32.84-3-52.19,10.34-72.63,20.46h-92c-33.17-8-47-10.94-92.93-27-31.11-10.91-24.8-35.69-55.28-48.25-28.71-11.83-24.21-26.72-52.19-40.18-61.92-29.79-71.12-30.08-124.14-73.12-10.33-8.4,7.22-30-2.29-39.41-1-1.72-28,7.76-28.62,5.92-.89-2.55,41.37,8.68,52.65,6.75,58.1-10,56.59,43.69,115.85,41.83s62.22,53.76,121.41,51.34c60-2.44,121.33-71.76,167.58-109.27,29.4-23.85,4.73-58.21,32.86-83.63,28.63-25.87,12.79-34.57,46.35-53.39,57.27-32.11,82.88,29.75,142.74,2.53,16.69-7.59,12.89-13.47,29.67-20.87,42.21-18.62,29.58-43.13,72.29-60.59,39-16,23.75-63.77,52.85-85.23Z"/><path class="cls-3" d="M1926.63,1001.2c-1.77,4.47-4.92,8.58-11.83,11.89-23.44,11.22-11.59,36-35.64,45.92-14.33,4.33-6.94,31.56-21.38,35.48-57.58,15.59-63.11,36.42-122.69,40.15-58.87,3.7-68.51,6.26-127.14-.38-59.76-6.77-72.09,13.09-130.61-1.37-42.06-10.39-41.48-16.63-83.4-27.59-17.23-4.5-17.52-5.55-34.7-10.19-59.59-16.1-54.39-44.45-112.9-64-41.83-14-20.37-67.91-41.18-61.56,33-10.07,29.36,22.73,63.71,18.25,58.9-7.67,57.19,46.47,116.5,42.68,59.51-3.8,81.31-33.13,138.39-49.18,61.4-17.27,50.18-91.11,106.14-122,23.68-13.08,29.17-7.77,52.12-22.1,36.37-22.71,59.26,9.29,94.93-14.52,55.63-37.11,37-58.33,95.12-91.31,2.65-1.51,2.27-1.48,4.94-3,38-21.22,20.47-60.36,49.62-82.89Z"/><path class="cls-3" d="M1926.63,939.38c-39.06,34.71-7.42,101.86-61.64,119.66-4,1.3-4,2.17-8,3.42-57.54,18-58.12,53-118,60.44-58.61,7.29-68.73,13.45-127.75,11.16-59.38-2.29-68.2,7.85-127.07-.93-58.26-8.69-60.28-17.37-118-28.86l-2.36-.47c-59.75-12-55.85-49.39-113.85-67.85-26.57-8.46.87-43.76-1.8-43,15-4.16,11.3,4.3,26.55,1.22,58.42-11.78,54.27,42.39,113.71,37.24,15.35-1.32,3.8-134.73,19.16-135.94,43.85-6.34,70.56,101.75,113.36,91.17,61-15.06,53.36-85.38,109.92-113,34.44-16.8,44-5.34,77.32-24.35,25.54-14.58,37.64,3.72,62.9-11.34,58.7-35,43.57-55.53,103.9-87.55,20-10.58,6.6-33.46,27-43.2,19.61-9.38,21.88-30.64,24.68-51.36Z"/><path class="cls-3" d="M1926.63,944.6c-33.52,32.57-2.93,94.27-51.57,111-1.63.56-7.32-15.95-9-15.4-7.8,2.36-1.7,23.62-9.54,25.86-57.67,16.55-59.07,51-118.79,57.09-58.77,6-67.75,13.15-126.78,10.66-59.35-2.51-67.53,7.27-126.4-1.17-57.64-8.27-60-17.07-117.12-28.36l-3.66-.74c-59.85-12-57.09-48.53-114.71-68.31-17.67-6.07,14.73-33.61,21.4-35.43,4.74-1.3,3-.08,7.79-1.26,58-14.34,53.3,40.62,112.85,34.25,59.35-6.35,70.32-31.06,128.24-44.39,60.58-13.95,54.08-80.4,111.31-104.94,44.41-19.05,56.73-1.35,99.82-23.26,15.55-7.92,20.09-.53,35.58-8.59,59.05-30.75,44.94-55.33,104.75-84.54,45.6-22.27,9.51-103.37,55.78-123.09Z"/><path class="cls-3" d="M1926.63,917.65c-50.27,37.22-8.13,114.8-68.94,136.16-8.56,3-8.56,5.21-17.21,8-49.3,15.66-48.86,50.18-100,57.64-58.46,8.53-69.59,15.9-128.65,14.17-59.34-1.75-69.2,6.34-128-2.71-49.41-7.61-51.28-16.07-100.29-25.94-10-2-10.71-2.65-20.66-4.79-60-12.89-59.58-45.31-116.51-67.73-13.58-5.34,24.71-27.75,35.5-30.93,2.34-.68,1.26-.13,3.61-.79,55.39-15.45,50,40.33,107.24,33.56,59.14-7,59.57-29.38,118.45-38,59.68-8.71,59-59.45,117.44-74.4,59.91-15.33,69.69-4.53,128-25.15,33.42-11.82,25.7-39.77,58.55-53.08,26.24-10.63,20.83-26.51,46.69-38,55.38-24.63,25-94.69,64.82-130.3Z"/><path class="cls-3" d="M1926.63,914.54c-51,37-8,115.83-68.94,137.29-11.61,4.08-11.35,8-23.11,11.58-46.42,14.24-46,47.62-94,54.66-58.45,8.55-69.93,17-129,15.07-59.34-1.89-68.67,4.89-127.51-3.91-44.87-6.72-46.89-14.75-91.4-23.54-14.51-2.86-15.71-4.1-30.16-7.27-60.26-13.23-64.08-42.37-119.56-68.37-13.1-6.14,33.59-20.27,45-24.69,12.08-4.66,6.65,4,19.11.52,45.83-12.93,41.18,37.16,88.43,30.58,59-8.21,55.78-30.06,114.8-38.17,59.62-8.2,59.28-57.11,117.83-71,59.81-14.23,68.49-5,126.92-24.18,43-14.09,32.42-52.63,74.59-69.07,16.66-6.5,14.4-13.85,30.92-20.7,56-23.2,24.45-97.41,66.05-132Z"/><path class="cls-3" d="M1926.63,912.84c-51,36.63-8.2,116-69.08,137-15.19,5.24-14.54,11.67-30,16.11-43,12.37-42.83,43.88-87.15,50.22-58.47,8.36-69.91,18.12-129,16.22-59.34-1.91-68.36,3.28-127.21-5.32-38.47-5.63-40.55-12.62-78.73-19.93-20.92-4-22.87-6.29-43.64-11-60.67-13.79-73.27-38.4-125.41-70.2-12-7.31,48.57-13.17,59.78-19.17,18.78-10,8.63,13.07,29.18,7.13,38.34-11.07,32.82,30.8,72.31,24.65,59-9.17,55.32-30.9,114.3-39.95,59.66-9.16,58-59.58,116.55-74.32,59.78-15,68.1-4.68,126.62-24,39.68-13.14,29.78-48.21,68.86-63,19.9-7.54,16.63-17.71,36.36-25.66,38.94-15.69,30.5-40.11,66.18-57.11Z"/><path class="cls-3" d="M1926.63,909.34c-51.75,36.36-8.05,117.1-69.08,138.26-18.81,6.53-17.67,16.08-36.86,21.37-39.48,10.88-39.73,39.86-80.28,45.59-58.46,8.27-70.68,19.35-129.66,16.88-59.37-2.48-67.34,1.31-126.26-7.09-30.51-4.36-32.46-9.58-62.79-15.06-28.89-5.22-31.94-8.93-60.51-15.67-61.73-14.56-113.49-40.89-145.9-85.57-5.68-7.82,94.79-4.41,100.53-12,19.21-25.55,4.21,43.58,37.87,33.83,27-7.8,21.1,17.64,48.7,12.39,58.66-11.15,47.56-32.44,106.87-39.92,59.5-7.51,59.14-53,117.89-65.08,59.65-12.26,66.63-6,125.23-22.52,59.87-16.89,48.65-64.91,107-86.55,2.68-1,2.57-1.55,5.25-2.55,51.93-19.51,25.09-101.22,62-133.28Z"/><path class="cls-3" d="M1926.63,906.9c-51.94,36-8.24,117.5-69.29,138.1-24.28,8.2-22.47,23.21-47.34,29.37-34.13,8.45-35,32.73-69.85,37.44-58.5,7.92-70.63,20.56-129.61,18-59.37-2.58-67.33-.63-126.23-9.15-18.71-2.7-20.11-5.09-38.75-8.23-40.77-6.85-45.73-12.08-85.8-22.19-26.92-6.79,22.5-46.15,21.67-45.91,15.65-4.57,10.37,5.77,26.26,2.12,58.4-13.45,42.63-34.56,102.13-42.32s56.56-50.5,115.56-60.56c59.45-10.13,64.25-4.87,123.11-17.94,59.64-13.25,50.41-63.33,109-80.68,29.88-8.85,12.55-62.12,42-72.39,26.11-9.11,11.84-47.33,27.18-65.18Z"/><path class="cls-3" d="M1926.63,902.21c-52.89,35.54-8.16,118.8-69.4,139.3-31.52,10.55-29,33.53-61.45,40.65-26.87,5.9-28.47,22.95-55.74,26.55-58.51,7.74-71.11,21.8-130,18.87-59.42-3-68-3.16-126.8-12.54l-1.49-.24c-59-9.45-67.82-13-125.15-29.38-19.3-5.52,38.06-32.79,44-34.55,7.43-2.2,3.79.91,11.28-1.06,58.13-15.24,39.47-35,99.07-43.29,59.39-8.27,56.56-51.83,115.52-62.76,59.46-11,63.89-6.14,122.79-19.84,59.57-13.85,49.49-63.53,108.21-80.62,28.1-8.18,13-56.94,40.8-66,27.38-9,12.91-50.25,28.43-69.46Z"/><path class="cls-3" d="M1926.63,897.26c-54.1,35.19-8,120.32-69.47,140.89-39.13,13.08-36.45,44.16-77,51.88-19.08,3.64-21.11,13.2-40.38,15.66-58.5,7.45-72.2,22.73-131,18.9-45.07-2.92-50.6-3.32-95.38-9.45-14.28-2-15.77-2.11-30-4.34-59.81-9.37-73.66-9.67-131-28.67-13-4.29,54-25.06,66.59-29.11,1.61-.51.42-.16,2-.66,56-17.41,32.85-34.4,91-43,59.37-8.8,55.86-51.79,114.84-62.9,59.44-11.2,63.59-7.37,122.49-21.16,59.58-13.95,49.44-63.8,108.13-81.1,29.18-8.6,12.82-60.23,41.66-69.91,26.36-8.85,12.68-47.81,27.51-66.31Z"/><path class="cls-3" d="M1926.63,892.17c-54.76,34.56-8.07,121.34-69.65,141.66-51.8,17.09-50.66,57.28-104.67,65-5.86.83-6.89,1.91-12.77,2.63-58.51,7.17-72.79,23.3-131.57,18.93-9.26-.69-3.54-77.54-12.8-78.38-15.09-1.42-23,75.31-38.07,73.76-34.95-3.59-38.85-3.74-73.57-9.07-60-9.21-81.94-5.74-137.77-28.38-12.47-5.06,71.71-16.81,84.59-22.28,12.51-5.31.55-1.72,13.5-5.87,45.26-14.49,24.38-29.32,71.28-37.52,59.11-10.34,53-50.17,112-61.21,59.48-11.13,63.73-9.34,122.58-23.41,59.62-14.26,49.23-64.51,107.88-82.34,30.71-9.34,12.36-64.9,42.66-75.51,24.83-8.68,12.52-44.12,26.35-61.49Z"/><path class="cls-3" d="M1926.63,885.23l-.56.35c-54.79,34-7.91,122.23-69.42,141.95-57.44,18.41-57.29,60.21-117.18,67.47-58.55,7.1-72,23.45-130.8,19.64-59.41-3.86-67.53-4-126.29-13.77-60.36-10-102.17-.86-153.32-31.37-10.46-6.24,108.38-9.17,119.16-16.07,22.09-14.13-7.21.31,17.92-7.86,34.19-11.11,18.06-21.41,53.26-28.85,18.76-4-5.31-117.71,13.51-121.37,40.38-7,54.73,67.08,95,59.29,59.48-11.51,63.32-11.09,122.19-25.42,59.56-14.5,48.62-65,107.37-82.43,33.58-10,13-73.76,46.24-84.93,21.55-7.25,12.39-35.23,23-50.59Z"/><path class="cls-3" d="M1926.63,881.52l-1.56,1c-54.54,34.36-7,123-68.59,142.39-57.38,18.1-58.06,60.42-117.9,66.77-58.59,6.21-72.14,21.4-131,16.79-59.41-4.66-68.07-2-126.67-12.6-34.37-6.22,11-57.68,1.64-54.49,26.28-8.9,11.81-14.63,38.88-20.82,25.94-5.92-.1-119.8,26-125,33.1-6.65,48.49,67.45,81.54,60.59,59.4-12.33,62-12.18,121-26.47,59.57-14.44,48.78-64.85,107.48-82.47,33.56-10.07,12.5-73.35,45.56-85,21.62-7.61,12.68-36,23.58-51.41Z"/><path class="cls-3" d="M1926.63,873.5c-.63.43-1.31.86-2,1.31-54.68,33.79-6.92,123.81-68.41,142.9-57.44,17.83-57.76,61.38-117.58,67.69-58.61,6.18-71.63,21.08-130.5,16.85-59.42-4.27-70.08.49-128.5-10.78-20.74-4,27.85-55.08,30.5-56,12.74-4.5,5.84-5,18.8-8.87,33.13-9.75-.09-122.45,33.46-130.78,25.66-4.77,40.82,72.35,66.43,67.32,59.48-11.69,62.76-14.23,121.62-28.73,59.63-14.7,48.66-66,107.26-84.34,36.6-11.48,11.57-82.1,47.49-95.57,19.19-7.2,11.55-30.16,21.47-43.23Z"/><path class="cls-3" d="M1926.63,867.18c-.65.44-1.37.89-2.15,1.37-54.92,33.25-7.08,124.38-68.52,143.36-57.41,17.73-58,62.75-117.76,68.6-58.62,5.73-72.1,19.94-130.93,15.12-59.5-4.88-74.19,3.38-132.12-10.4-12.46-3,44.23-48.42,53.88-51.94,3.64-1.33,1.38-.77,5-2,57.63-19.76,37.63-52.4,97.2-65.92,59.32-13.47,60.3-16.48,119.33-31.19,59.52-14.84,48-65.91,106.77-83.55,39-11.72,12.69-88.79,51-102.58,15.71-5.65,12-22.09,18.25-33.24Z"/><path class="cls-3" d="M1926.63,859.38c-.81.58-1.78,1.22-3,1.93-54.64,33.11-6.79,124.43-68.19,142.6-57.56,17-57.43,64-117.18,69.81-42.25,4.12-48.75-62.43-91.27-61.17-16.68-1.37-24.19,77.72-40.86,76.14-59.65-5.67-82.91,7.16-139.54-11.15-9.43-3,63.62-37.91,75.17-42.79,4.88-2.06.52-.69,5.47-2.57,52.3-19.78,29.64-48.3,84.43-60.66,59.38-13.4,60.65-18.66,119.6-33.88,59.59-15.38,47.71-67,106.36-85.59,25-7.94,17.73-30.91,42.63-39.28,14.82-5.21-5.92-61.68,8.83-67.09,15-5.52,11.35-20.64,17.5-31Z"/><path class="cls-3" d="M1926.63,851.23a19.86,19.86,0,0,1-3.91,2.84c-54.53,33.43-6,124.66-67.44,142.95-57.49,17.11-57.6,66.26-117.35,71.63-58.69,5.28-72.07,18.94-130.91,14-59.82-5-110.41,10.06-160.58-18.28-8.19-4.63,108.79-23.59,117.9-30.25,16.47-12.05-8.87-.58,10.17-8.3,37.26-15.1-4.16-117.26,34.31-129.39,2.43-.56,21.52,81.26,23.94,80.7,59.48-13.87,60.78-21.42,119.69-37.55,59.52-16.29,46.39-68.1,105.19-86.8,41.58-13.23,12.48-96.1,53.48-111,12.21-4.44,11.58-15.31,15.51-24Z"/><path class="cls-3" d="M1926.63,946.7c-23.13,15.85-30.35,30.59-71.71,42.63-57.56,16.75-57.37,68.47-117.09,73.62-58.72,5.06-72.65,18.62-131.44,13.35-35.43-3.18-1.16-62.73-15-56.79,31.18-13.4,11.08-28.1,44-36.67,5.57-1.45-16.15-84.75-10.57-86.16,53.63-14.64,74.68,60.18,128.19,45.13,59.42-16.7,45.51-68.73,104.42-87.12,45.53-14.21,14-105.22,58.86-121.31,6.49-2.32,8.58-6.31,10.33-10.45V845l-1.42.91c-2.22,1.43-1.11.93-3.36,2.33-1.37.86.85,6.68,4.78,14.84Z"/><path class="cls-3" d="M1926.63,838.57l-4.26,2.61c-3.16,1.94-1.29,1.65-4.49,3.53-51.83,30.43-5.34,120.4-63.29,136.94-57.59,16.43-57.22,70.79-116.9,75.66-25.21,2.06-30.9-67.53-56.2-66.57-33.91-2.9-45.15,81.26-78.84,76.76-26.79-3.57,13.12-58.07,5.79-54.83,22.24-9.84,6.9-16.8,30.26-23.71,13.61-4-11.33-88.31,2.36-92.05,45.51-13.28,67.27,61.24,112.78,48,59.33-17.3,44.46-69.69,103.47-88,49.67-15.43,16-113,65-130.42a15.36,15.36,0,0,0,4.35-2.28Z"/><path class="cls-3" d="M1926.63,826.66l-3.9,2.36c-13.71,8.34-2.78,17.22-17,24.68-43.23,22.7-4.52,103.08-51,118-57.11,18.29-57.92,76.43-117.66,80.64-58.72,4.14-78.66,17.32-136.82,8-15.58-2.5,29.32-54.19,30.77-54.88,11.25-5.36,2.51-5.48,14.19-9.84,57.75-21.53,49.59-27.31,108.88-44.66s44.31-71.22,103.26-90.2c53.69-17.29,19.85-115.58,69.3-138.15Z"/><path class="cls-3" d="M1926.63,820.25c-1.31.65-2.62,1.37-3.94,2.18-20,12.17-1.07,32.44-22.1,42.73-37.28,18.22-6.58,86.37-46.14,98.92-57.07,18.09-58.52,79.18-118.18,82.62-58.78,3.39-87.59,18-144.12,3.57-5.44-1.39,54.59-43.53,63.89-48.4l.31-.16C1684.7,987,1644.17,909,1674,897.16c29-8.29,51.34,67.42,80.29,58.9,59.45-17.52,43.88-72.52,102.83-91.66,54.92-17.82,27.83-106.88,69.47-137.43Z"/><path class="cls-3" d="M1926.63,814l-4.17,2.57c-26,16,1.48,50.19-26.38,62.73-31.24,14.07-9.17,67.43-41.91,77.52-57.09,17.61-59.36,81.46-118.92,84-58.71,2.5-173.14-8.87-195.79-42.51-2.54-3.77,150.78-12.25,153.12-16.41,6-10.61-25.24,23.83-14.1,17.49,45-25.63,27.21-24.11,77.23-39.77,59.24-18.55,42.06-73.8,101.2-92.68,54.12-17.28,29.82-104.43,69.72-135.09Z"/><path class="cls-3" d="M1926.63,807.14q-2.6,1.33-4.82,2.73c-33.45,20.94,4,74.14-32.57,89-23.38,9.51-11.12,42.76-35.27,50.11-57.09,17.38-60.08,83.93-119.55,85.75-1.5,0-3.83-76.22-5.33-76.18-36.76-18.92-8.67,25.74-26.49,36.94,23.87-15-21.12-86.54,4.8-98.3,12.34-4,36.65,71.65,49,67.68,59.16-19,41-75.26,100.24-94.12,53.49-17,31.35-102.47,70-133.21Z"/><path class="cls-3" d="M1926.63,805.42c-3.24-1.53-6-1.87-7.94-.51-39.11,26.87,7,93.54-37.7,110-16.13,5.92-10.74,22.93-27.22,27.77-57,16.74-62.58,85.63-121.78,85.55-28.18,0,5.6-46.54-5.77-38.25,21.45-15.64-26.22-81-2-92.81,3.92-1.32,29.21,74.41,33.14,73.1,58.92-19.67,39.47-76.58,98.82-95,53.44-16.55,31.93-100.83,70.42-131.37Z"/><path class="cls-3" d="M1926.63,781.08c-5.47,8.35-10.53,15.41-13.75,18-44.39,36.25,9,111.06-46.1,129.31-6.83,2.26-6.12,5.52-13,7.57-56.66,16.88-65.87,87.19-124.68,85-18.32-.7,29.59-45.33,25.87-41.61,14-14-11.13,3.1,7.78-4.71,4.46-1.84-26.16-75.93-21.68-77.71,54.72-18,59.88-1.36,114.91-18.36,47.48-14.66,42.55-88.73,70.66-122.32Z"/><path class="cls-3" d="M1926.63,818.91c-23.7,1.7-41.4,3.15-41.63,3.85-2.78,8.41,22.7,20.69,41.63,31.78v30c-28.48,18.44-30.81,34.1-72.89,46.57-1,.3-1.06.37-2.08.66-40.15,11.66-44.9-4.7-86.61,1.59-16.48-.23-29,81.39-45.16,78.91-7.54-1.15,68.44-50,69.4-51.72,4.11-7.3-23.17,22.24-15.63,17.7,12.19-7.33-28.7-75.28-15.83-81.48,46.34-15.82,51.08-.34,97.87-14.68,18.24-5.59,44.06-16.53,70.93-28.34Z"/><path class="cls-3" d="M1774.57,896.37c38-12.76,42,1.43,80.48-9.46-5.29,1.49,4.71,33.55-1.06,35.36-18.38,5.78-16.82,21.43-35.73,25.09-32.41,6.26-89.21,55.23-113.58,40.22C1709.64,990.64,1760.22,908.55,1774.57,896.37Z"/></g></svg>