<?xml version="1.0" encoding="UTF-8"?><svg id="a" xmlns="http://www.w3.org/2000/svg" viewBox="0 0 222 155"><defs><style>.b{fill:#fff;}</style></defs><path class="b" d="M28.29,2.39s-5.02,5.18-6.61,6.82c-1.64-1.59-6.81-6.62-6.81-6.62C11.87-.32,7.06-.25,4.15,2.75c-1.43,1.47-2.14,3.38-2.14,5.29s.77,3.95,2.3,5.44c0,0,5.18,5.03,6.81,6.62-1.59,1.63-6.61,6.81-6.61,6.81-1.38,1.43-2.14,3.3-2.14,5.28v.12c.03,2.03,.85,3.92,2.3,5.32,3,2.91,7.81,2.84,10.72-.16,0,0,5.02-5.17,6.61-6.81,1.64,1.59,6.81,6.61,6.81,6.61,3,2.91,7.81,2.84,10.72-.16,1.43-1.46,2.14-3.37,2.14-5.28s-.77-3.96-2.29-5.44c0,0-5.18-5.02-6.81-6.61,1.59-1.64,6.61-6.81,6.61-6.81,1.38-1.43,2.14-3.3,2.14-5.28v-.12c-.03-2.03-.85-3.92-2.3-5.32-2.99-2.91-7.8-2.84-10.72,.16Zm2.21,2.14c1.73-1.78,4.59-1.82,6.36-.09,.87,.84,1.35,1.96,1.37,3.16,.02,1.21-.43,2.34-1.27,3.21l-8.75,9.02,9.02,8.75h0c1.78,1.73,1.82,4.59,.09,6.37-1.73,1.78-4.58,1.83-6.37,.1l-9.02-8.75-8.75,9.02c-1.73,1.78-4.59,1.82-6.37,.09-.86-.84-1.35-1.96-1.37-3.16-.02-1.2,.43-2.34,1.27-3.21l8.76-9.02L6.46,11.26c-1.78-1.72-1.83-4.58-.09-6.36,1.73-1.78,4.59-1.82,6.37-.09l9.02,8.75L30.5,4.53Z"/><path class="b" d="M89.25,4.75s-5.02,5.18-6.61,6.82c-1.63-1.59-6.81-6.61-6.81-6.61-3-2.91-7.81-2.84-10.72,.15-1.43,1.47-2.14,3.37-2.14,5.28s.77,3.96,2.3,5.44c0,0,5.18,5.03,6.81,6.62-1.59,1.63-6.61,6.81-6.61,6.81-1.38,1.43-2.14,3.3-2.14,5.28v.12c.03,2.03,.85,3.91,2.3,5.32,2.99,2.9,7.8,2.84,10.72-.16,0,0,5.02-5.17,6.61-6.81,1.64,1.59,6.81,6.61,6.81,6.61,3,2.91,7.81,2.84,10.72-.16,1.43-1.47,2.14-3.37,2.14-5.28s-.77-3.96-2.3-5.44c0,0-5.17-5.02-6.81-6.61,1.59-1.64,6.61-6.82,6.61-6.82,1.39-1.42,2.14-3.29,2.14-5.27v-.12c-.03-2.03-.85-3.91-2.3-5.32-3-2.91-7.8-2.84-10.72,.16Zm2.21,2.15c1.73-1.78,4.59-1.82,6.37-.1,.86,.84,1.35,1.96,1.37,3.16,.02,1.2-.43,2.35-1.27,3.21l-8.76,9.02,9.02,8.76h0c1.78,1.73,1.82,4.58,.09,6.36-1.73,1.78-4.58,1.82-6.37,.1l-9.02-8.75-8.75,9.02c-1.73,1.78-4.59,1.82-6.36,.09-.86-.84-1.35-1.96-1.37-3.16-.02-1.2,.43-2.34,1.27-3.21l8.76-9.02-9.03-8.76c-1.78-1.73-1.82-4.59-.09-6.37,1.73-1.78,4.59-1.83,6.37-.09l9.02,8.75,8.75-9.02Z"/><path class="b" d="M150.21,7.11s-5.02,5.18-6.61,6.81c-1.64-1.59-6.81-6.61-6.81-6.61-3-2.91-7.81-2.84-10.72,.16-1.43,1.47-2.14,3.38-2.14,5.28s.77,3.96,2.29,5.44c0,0,5.18,5.03,6.81,6.62-1.59,1.63-6.61,6.81-6.61,6.81-1.38,1.42-2.14,3.3-2.14,5.28v.12c.03,2.02,.85,3.91,2.3,5.32,3,2.91,7.8,2.84,10.72-.16,0,0,5.02-5.17,6.61-6.81,1.64,1.59,6.81,6.61,6.81,6.61,3,2.91,7.81,2.84,10.72-.16,1.42-1.47,2.14-3.38,2.14-5.28s-.77-3.96-2.3-5.44c0,0-5.17-5.02-6.81-6.61,1.59-1.63,6.61-6.81,6.61-6.81,1.38-1.42,2.14-3.29,2.14-5.27v-.12c-.03-2.02-.85-3.91-2.3-5.32-3-2.91-7.81-2.84-10.72,.16Zm2.21,2.15c1.73-1.78,4.59-1.82,6.37-.09,.86,.83,1.35,1.96,1.37,3.16v.07c0,1.18-.45,2.29-1.27,3.14l-8.75,9.02,9.02,8.75c.91,.88,1.36,2.06,1.36,3.23s-.42,2.26-1.27,3.14c-1.73,1.78-4.58,1.82-6.37,.09l-9.02-8.75-8.75,9.02c-1.73,1.78-4.59,1.82-6.36,.1-.87-.84-1.35-1.96-1.37-3.16-.02-1.2,.43-2.35,1.27-3.21l8.75-9.02-9.02-8.76c-1.78-1.73-1.82-4.59-.09-6.37,1.73-1.78,4.59-1.82,6.37-.09l9.02,8.75,8.75-9.02Z"/><path class="b" d="M86.71,62.47s-5.03,5.18-6.61,6.81c-1.64-1.59-6.81-6.61-6.81-6.61-3-2.91-7.81-2.84-10.72,.16-1.43,1.47-2.14,3.37-2.14,5.28s.77,3.96,2.3,5.44c0,0,5.18,5.03,6.82,6.62-1.59,1.63-6.61,6.81-6.61,6.81-1.38,1.42-2.14,3.3-2.14,5.28v.12c.03,2.02,.85,3.92,2.3,5.32,3,2.91,7.81,2.84,10.72-.16,0,0,5.02-5.18,6.61-6.81,1.63,1.59,6.81,6.61,6.81,6.61,3,2.91,7.81,2.84,10.72-.16,1.43-1.47,2.14-3.38,2.14-5.28s-.77-3.96-2.3-5.44c0,0-5.18-5.02-6.81-6.61,1.59-1.64,6.61-6.81,6.61-6.81,1.38-1.43,2.14-3.3,2.14-5.28v-.12c-.03-2.02-.85-3.92-2.3-5.32-3-2.91-7.81-2.84-10.72,.16Zm2.21,2.15c1.73-1.78,4.59-1.83,6.37-.1,.86,.84,1.35,1.96,1.37,3.16v.07c0,1.18-.45,2.29-1.27,3.14l-8.76,9.02,9.02,8.75c.91,.88,1.37,2.05,1.37,3.23s-.42,2.26-1.27,3.14c-1.72,1.78-4.58,1.82-6.36,.09l-9.02-8.75-8.75,9.02c-1.73,1.78-4.59,1.82-6.37,.09-.86-.84-1.35-1.96-1.37-3.16-.02-1.2,.43-2.34,1.28-3.21l8.75-9.02-9.02-8.76c-1.78-1.73-1.82-4.59-.09-6.37,1.73-1.78,4.59-1.83,6.37-.09l9.02,8.76,8.75-9.02Z"/><path class="b" d="M147.67,64.83s-5.02,5.18-6.61,6.82c-1.64-1.59-6.81-6.61-6.81-6.61-3-2.91-7.81-2.84-10.72,.15-1.43,1.47-2.14,3.38-2.14,5.28s.77,3.96,2.3,5.44c0,0,5.18,5.03,6.81,6.62-1.59,1.63-6.61,6.81-6.61,6.81-1.39,1.43-2.14,3.3-2.14,5.28v.12c.03,2.03,.85,3.92,2.3,5.33,3,2.91,7.8,2.84,10.72-.16,0,0,5.02-5.17,6.61-6.81,1.63,1.59,6.81,6.61,6.81,6.61,3,2.91,7.81,2.84,10.72-.16,1.43-1.47,2.14-3.38,2.14-5.28s-.77-3.96-2.3-5.44c0,0-5.18-5.02-6.81-6.61,1.59-1.64,6.61-6.81,6.61-6.81,1.38-1.43,2.14-3.3,2.14-5.28v-.12c-.03-2.02-.85-3.91-2.3-5.32-2.99-2.91-7.8-2.84-10.72,.16Zm2.21,2.14c1.73-1.78,4.59-1.82,6.37-.09,.86,.84,1.35,1.96,1.37,3.16,.02,1.2-.43,2.34-1.27,3.21l-8.75,9.02,9.02,8.76h0c1.78,1.72,1.82,4.59,.09,6.36-1.73,1.78-4.58,1.83-6.37,.1l-9.02-8.75-8.75,9.02c-1.73,1.78-4.59,1.82-6.37,.09-.86-.84-1.35-1.96-1.37-3.16-.02-1.2,.43-2.34,1.27-3.21l8.75-9.02-9.02-8.76c-1.78-1.72-1.83-4.58-.09-6.36,1.73-1.78,4.58-1.82,6.37-.09l9.02,8.75,8.75-9.02Z"/><path class="b" d="M208.62,67.19s-5.02,5.18-6.61,6.81c-1.64-1.59-6.81-6.61-6.81-6.61-3-2.91-7.81-2.84-10.72,.16-1.43,1.47-2.13,3.37-2.13,5.28s.76,3.96,2.29,5.45c0,0,5.18,5.02,6.81,6.61-1.59,1.64-6.61,6.81-6.61,6.81-1.38,1.42-2.14,3.3-2.14,5.28v.12c.03,2.03,.85,3.91,2.3,5.32,2.99,2.91,7.8,2.84,10.72-.16,0,0,5.03-5.17,6.61-6.81,1.64,1.59,6.81,6.61,6.81,6.61,3,2.91,7.81,2.84,10.72-.16,1.43-1.47,2.14-3.38,2.14-5.28s-.77-3.96-2.29-5.44c0,0-5.18-5.02-6.81-6.61,1.59-1.64,6.61-6.81,6.61-6.81,1.38-1.43,2.14-3.3,2.14-5.28v-.12c-.03-2.03-.85-3.92-2.3-5.32-3-2.91-7.8-2.84-10.72,.16Zm2.21,2.15c1.73-1.78,4.59-1.82,6.37-.09,.86,.83,1.35,1.96,1.37,3.16,.02,1.2-.43,2.34-1.27,3.21l-8.75,9.02,9.02,8.76h0c1.78,1.72,1.82,4.59,.09,6.37-1.73,1.78-4.58,1.82-6.37,.09l-9.02-8.75-8.75,9.02c-1.73,1.78-4.59,1.82-6.37,.09-.86-.84-1.35-1.96-1.37-3.16-.02-1.2,.43-2.34,1.27-3.21l8.75-9.02-9.02-8.76c-1.78-1.73-1.82-4.59-.09-6.37,1.73-1.78,4.59-1.82,6.37-.09l9.02,8.76,8.75-9.03Z"/><path class="b" d="M26.28,112.82s-5.02,5.18-6.61,6.81c-1.64-1.59-6.81-6.61-6.81-6.61-3-2.91-7.81-2.84-10.72,.16-1.43,1.47-2.14,3.38-2.14,5.28s.77,3.96,2.29,5.44c0,0,5.18,5.03,6.82,6.62-1.59,1.64-6.61,6.81-6.61,6.81-1.38,1.43-2.14,3.29-2.14,5.28v.12c.03,2.02,.85,3.91,2.3,5.32,2.99,2.91,7.8,2.84,10.72-.16,0,0,5.02-5.18,6.61-6.81,1.63,1.59,6.81,6.6,6.81,6.6,3,2.92,7.81,2.84,10.72-.15,1.43-1.47,2.14-3.38,2.14-5.28s-.77-3.95-2.3-5.44c0,0-5.17-5.02-6.81-6.61,1.59-1.64,6.61-6.81,6.61-6.81,1.38-1.43,2.14-3.3,2.14-5.28,0-.04,0-.08,0-.12-.03-2.03-.85-3.92-2.3-5.32-2.99-2.91-7.81-2.84-10.72,.16Zm2.21,2.15c1.73-1.78,4.58-1.82,6.37-.09,.86,.83,1.35,1.96,1.37,3.16,.02,1.2-.43,2.34-1.27,3.2l-8.76,9.03,9.02,8.75h0c1.78,1.73,1.82,4.58,.09,6.36-1.73,1.78-4.59,1.83-6.37,.09l-9.02-8.75-8.76,9.02c-1.73,1.78-4.59,1.82-6.37,.1-.86-.84-1.35-1.96-1.37-3.16-.02-1.2,.43-2.34,1.27-3.21l8.76-9.02-9.03-8.76c-1.78-1.73-1.82-4.59-.09-6.37,1.73-1.77,4.58-1.82,6.37-.09l9.02,8.75,8.76-9.02Z"/><path class="b" d="M87.24,115.18s-5.02,5.17-6.61,6.81c-1.64-1.59-6.81-6.61-6.81-6.61-3-2.91-7.81-2.84-10.72,.16-1.43,1.47-2.14,3.38-2.14,5.28s.77,3.96,2.3,5.44c0,0,5.18,5.03,6.81,6.61-1.59,1.64-6.61,6.81-6.61,6.81-1.39,1.42-2.14,3.3-2.14,5.28v.12c.03,2.02,.85,3.91,2.3,5.32,2.99,2.91,7.8,2.84,10.72-.16,0,0,5.02-5.18,6.61-6.82,1.64,1.59,6.81,6.61,6.81,6.61,3,2.91,7.81,2.84,10.72-.16,1.43-1.47,2.14-3.38,2.14-5.28s-.77-3.95-2.3-5.44c0,0-5.17-5.02-6.81-6.61,1.58-1.64,6.61-6.82,6.61-6.82,1.38-1.42,2.14-3.3,2.14-5.28,0-.04,0-.08,0-.12-.03-2.03-.85-3.92-2.3-5.32-3-2.91-7.81-2.84-10.72,.16Zm2.21,2.14c1.73-1.78,4.58-1.82,6.36-.09,.87,.84,1.35,1.96,1.37,3.15,.02,1.21-.43,2.35-1.27,3.21l-8.75,9.02,9.02,8.76h0c1.78,1.73,1.83,4.58,.09,6.37-1.73,1.78-4.58,1.82-6.37,.09l-9.01-8.75-8.75,9.02c-1.73,1.78-4.59,1.83-6.37,.1-.87-.84-1.35-1.96-1.37-3.16-.02-1.2,.43-2.34,1.27-3.21l8.75-9.02-9.02-8.76c-1.78-1.73-1.82-4.59-.09-6.37,1.73-1.78,4.58-1.82,6.37-.09l9.02,8.75,8.76-9.02Z"/><path class="b" d="M148.2,117.54s-5.02,5.18-6.61,6.82c-1.63-1.59-6.81-6.61-6.81-6.61-3-2.91-7.81-2.84-10.72,.16-1.43,1.47-2.14,3.38-2.14,5.28s.77,3.96,2.3,5.44c0,0,5.18,5.02,6.81,6.61-1.59,1.63-6.61,6.81-6.61,6.81-1.38,1.43-2.14,3.3-2.14,5.28,0,.04,0,.08,0,.12,.03,2.02,.85,3.91,2.3,5.32,3,2.91,7.81,2.84,10.72-.16,0,0,5.02-5.18,6.61-6.81,1.64,1.58,6.81,6.61,6.81,6.61,3,2.91,7.81,2.84,10.72-.16,1.43-1.47,2.14-3.37,2.14-5.28s-.77-3.96-2.3-5.44c0,0-5.18-5.03-6.81-6.61,1.59-1.64,6.61-6.81,6.61-6.81,1.38-1.43,2.14-3.3,2.14-5.28v-.12c-.03-2.02-.85-3.91-2.3-5.32-3-2.91-7.8-2.84-10.72,.15Zm2.21,2.15c1.73-1.78,4.59-1.82,6.37-.09,.86,.83,1.35,1.96,1.37,3.16,.02,1.2-.43,2.34-1.27,3.2l-8.75,9.03,9.02,8.76h0c1.78,1.73,1.82,4.59,.09,6.37-1.73,1.78-4.59,1.82-6.37,.09l-9.02-8.75-8.76,9.02c-1.73,1.78-4.58,1.83-6.36,.09-.86-.83-1.35-1.95-1.37-3.16-.02-1.2,.43-2.34,1.27-3.21l8.75-9.02-9.02-8.76c-1.78-1.73-1.82-4.59-.09-6.37,1.72-1.78,4.58-1.82,6.36-.09l9.02,8.75,8.75-9.02Z"/></svg>