<?xml version="1.0" encoding="UTF-8"?>
<svg id="Layer_2" data-name="Layer 2" xmlns="http://www.w3.org/2000/svg" version="1.1" viewBox="0 0 100 100">
  <defs>
    <style>
      .cls-1 {
        fill: #fefefe;
      }

      .cls-1, .cls-2, .cls-3 {
        stroke-width: 0px;
      }

      .cls-2 {
        fill: #3f8640;
      }

      .cls-3 {
        fill: #999;
      }
    </style>
  </defs>
  <path class="cls-1" d="M52.3.5c15.4,0,30.9,0,46.3,0,.8,0,1,.2,1,1,0,32.3,0,64.6,0,96.9,0,.8-.2,1-1,1-15,0-29.9,0-44.9,0,.1-.3.4-.2.6-.2,6.4-.6,12.6-2,18.3-5,3.7-1.9,7.2-4.2,10.3-7.1,2.4-2.2,4.5-4.5,6.5-7,2.7-3.4,4.7-7.1,6.4-11,1.9-4.4,2.8-9,3.2-13.7.4-4.7.1-9.4-.8-14-.3-1.4-1.3-2.1-2.8-2.2-1.7,0-3.4,1-3.2,3.8.4,6.5-.3,12.9-2.7,19-3.4,8.7-9,15.6-16.9,20.5-6.4,4-13.5,6.1-21.1,6.1-5.5,0-10.7-1.1-15.8-3.2-5.9-2.4-10.7-6-14.8-10.6-3-3.4-5.4-7.3-7-11.7-2.4-6.4-3.3-13-2.5-19.7.6-5,2.2-9.6,4.5-14,2.1-4,4.9-7.6,8.3-10.7,3.1-2.8,6.5-5.1,10.3-6.9,4.7-2.2,9.6-3.5,14.8-3.9,5.2-.4,10.3,0,15.3,1.4,3.8,1,7.2,2.7,10.6,4.6,1.5.9,3.1.2,3.3-1.4.1-1.1-.5-1.7-1.3-2.3-1.9-1.5-3.9-2.8-6.1-3.9-4.6-2.3-9.3-4.2-14.4-4.8-1.5-.2-3-.1-4.4-.6ZM98.6,14.6c-.1-.7.4-1.5-.4-2.1-.8-.6-1.7-.8-2.7-.3-1.4.8-2.5,1.8-3.7,2.8-2.9,2.3-5.6,4.8-8.6,7.1-3.4,2.6-6.6,5.4-10,8-3.6,2.8-7.1,5.7-10.6,8.6-5.3,4.3-10.7,8.6-16,12.9-1.6,1.3-1.6,1.3-2.7-.3-.3-.4-.5-.8-.8-1.2-1.7-1.8-2.9-3.9-4.5-5.7-2.3-2.7-4.2-5.7-6.5-8.2-1.8-2-4.7-2.3-6.7-.9-2.2,1.5-3,4.3-1.8,6.7,1.8,3.6,4.1,6.8,6.1,10.3,2.6,4.6,5.6,8.9,8.1,13.5,2.5,4.4,6.9,4.8,9.7,3,1.5-.9,2.5-2.3,3.7-3.5,3.4-3.5,6.8-7,10.2-10.4,2.8-2.9,5.6-5.8,8.4-8.6,2.1-2.1,4.2-4.1,6.2-6.3,3.8-4.2,7.9-8.2,11.9-12.3,3.1-3.3,6.3-6.5,9.5-9.7.9-.9,1.5-1.8,1.2-3.1Z"/>
  <path class="cls-3" d="M52.3.5c1.4.5,3,.5,4.4.6,5.1.7,9.9,2.5,14.4,4.8,2.2,1.1,4.2,2.5,6.1,3.9.8.6,1.4,1.2,1.3,2.3-.2,1.6-1.8,2.3-3.3,1.4-3.4-1.9-6.8-3.6-10.6-4.6-5-1.4-10.1-1.8-15.3-1.4-5.2.4-10.1,1.7-14.8,3.9-3.8,1.8-7.2,4.1-10.3,6.9-3.4,3.1-6.2,6.7-8.3,10.7-2.3,4.4-3.9,9.1-4.5,14-.8,6.8,0,13.3,2.5,19.7,1.6,4.4,4,8.3,7,11.7,4.1,4.6,9,8.3,14.8,10.6,5.1,2.1,10.4,3.2,15.8,3.2,7.6,0,14.6-2.1,21.1-6.1,7.9-4.9,13.6-11.8,16.9-20.5,2.4-6.1,3.1-12.5,2.7-19-.2-2.7,1.5-3.8,3.2-3.8,1.4,0,2.5.8,2.8,2.2.9,4.6,1.3,9.3.8,14-.4,4.7-1.3,9.3-3.2,13.7-1.7,3.9-3.7,7.7-6.4,11-2,2.5-4.1,4.8-6.5,7-3.1,2.9-6.6,5.1-10.3,7.1-5.8,3-11.9,4.5-18.3,5-.2,0-.5,0-.6.2h-6.2c-1.6-.5-3.3-.5-5-.8-8.1-1.4-15.6-4.5-22.2-9.5-4.9-3.7-9-8.1-12.1-13.4-3.3-5.5-5.6-11.3-6.6-17.7-.3-1.7-.3-3.4-.9-5v-7.2c.3-.1.2-.4.2-.6.6-4.2,1.2-8.4,2.7-12.3,2-5.4,4.7-10.4,8.4-14.8,4.3-5,9.2-9.3,15.1-12.2,4.6-2.3,9.4-4.1,14.6-4.7,1.4-.2,2.9-.2,4.3-.7h6.2Z"/>
  <path class="cls-1" d="M.7,53c.6,1.6.6,3.3.9,5,1,6.4,3.3,12.2,6.6,17.7,3.1,5.3,7.2,9.7,12.1,13.4,6.6,5,14,8.1,22.2,9.5,1.7.3,3.4.3,5,.8-15.3,0-30.5,0-45.8,0-.9,0-1-.2-1-1,0-15.1,0-30.2,0-45.3Z"/>
  <path class="cls-1" d="M46.1.5c-1.4.5-2.9.5-4.3.7-5.2.6-9.9,2.5-14.6,4.7-6,2.9-10.9,7.2-15.1,12.2-3.7,4.4-6.4,9.4-8.4,14.8-1.5,4-2.1,8.2-2.7,12.3,0,.2,0,.5-.2.6,0-14.8,0-29.5,0-44.3,0-.9.2-1,1-1,14.8,0,29.5,0,44.3,0Z"/>
  <path class="cls-2" d="M98.6,14.6c.3,1.3-.3,2.2-1.2,3.1-3.2,3.2-6.4,6.4-9.5,9.7-3.9,4.1-8,8.1-11.9,12.3-2,2.2-4.1,4.2-6.2,6.3-2.8,2.9-5.6,5.8-8.4,8.6-3.4,3.5-6.8,6.9-10.2,10.4-1.2,1.2-2.3,2.6-3.7,3.5-2.8,1.8-7.2,1.4-9.7-3-2.6-4.6-5.5-8.9-8.1-13.5-2-3.5-4.3-6.7-6.1-10.3-1.2-2.4-.4-5.2,1.8-6.7,2.1-1.4,5-1,6.7.9,2.4,2.6,4.3,5.6,6.5,8.2,1.6,1.9,2.8,3.9,4.5,5.7.3.3.6.8.8,1.2,1.1,1.7,1.1,1.6,2.7.3,5.3-4.3,10.6-8.6,16-12.9,3.5-2.9,7-5.8,10.6-8.6,3.4-2.6,6.6-5.4,10-8,2.9-2.2,5.7-4.7,8.6-7.1,1.2-1,2.4-2,3.7-2.8,1-.6,1.8-.3,2.7.3.8.6.3,1.4.4,2.1Z"/>
</svg>