<?xml version="1.0" encoding="UTF-8"?>
<svg id="Layer_3" data-name="Layer 3" xmlns="http://www.w3.org/2000/svg" version="1.1" viewBox="0 0 100 100">
  <defs>
    <style>
      .cls-1 {
        fill: #999;
      }

      .cls-1, .cls-2, .cls-3 {
        stroke-width: 0px;
      }

      .cls-2 {
        fill: #bc2427;
      }

      .cls-3 {
        fill: #fefefd;
      }
    </style>
  </defs>
  <path class="cls-3" d="M51.8.5c15.4,0,30.9,0,46.3,0,.8,0,1,.2,1,1,0,15.6,0,31.2,0,46.8,0-.1-.2-.3-.2-.4-.2-2-.4-4-.9-6-.5-2-1.7-2.9-3.5-2.6-1.8.3-2.9,1.7-2.6,3.7.5,4.4,0,8.7-.9,13-1.1,5.8-3.5,11.1-6.9,15.8-4.5,6.1-10.1,10.8-17.1,13.7-5,2.1-10.1,3.3-15.4,3.4-7,.1-13.6-1.5-19.8-4.7-4.4-2.3-8.3-5.4-11.5-9.2-4.3-5-7.1-10.8-8.6-17.3-1.9-8.5-1.1-16.8,2.2-24.8,1.5-3.5,3.4-6.8,5.8-9.8,3.3-4.2,7.3-7.6,12-10.1,5.3-2.9,11-4.7,17.1-5.2,6.6-.5,13,.3,19.1,2.6,2.4.9,4.7,2.2,7,3.4,1.2.7,2.2.5,2.9-.4.8-1.1.7-2.1-.5-3-1-.9-2.1-1.8-3.2-2.4-5.5-3.2-11.2-5.8-17.6-6.6-1.5-.2-3.1-.1-4.6-.7ZM53.9,51.2c1.1,1.8,2.1,3.4,3.1,5.1,3.3,5.6,6.7,11.2,9.2,17.2,1.9,4.4,6.5,4.9,9.5,3.6,2.2-1,3-3.4,1.7-5.2-2.4-3.5-4.9-6.9-7.3-10.4-3.3-4.8-6.5-9.6-9.5-14.5-.3-.5-.3-.7.2-1,3.3-2.5,6.6-5.1,9.9-7.5,6-4.5,12.2-8.6,18.5-12.6,1.2-.8,2-1.8,1.8-3.4-.2-1.5-1.1-2.6-2.5-3.1-2.9-1-5.7-1-8.2,1.2-2.1,1.8-4.1,3.6-6.2,5.3-5.5,4.8-11.2,9.4-16.9,14-.5.4-.8.5-1.1-.2-1.4-2.5-2.8-5-4.3-7.5-2.7-4.6-5.2-9.3-7.4-14.1-1.5-3.4-5.2-4.3-7.9-3.8-3,.6-4.9,3.9-2.6,6.5,1.4,1.6,2.5,3.5,3.7,5.3,3.8,5.8,7.6,11.6,11.4,17.4,1.1,1.7,1.1,1.7-.5,2.9-.2.1-.3.3-.5.4-6.6,5.1-13.4,10-20.2,14.8-2.3,1.6-4.6,3.3-6.9,4.9-1.8,1.4-1.9,3.8-.2,5.1,2.5,2,6.6,2.1,9,0,4.4-3.9,8.7-7.7,13.2-11.5,3.6-3,7.2-5.9,10.9-8.9Z"/>
  <path class="cls-1" d="M51.8.5c1.5.5,3,.5,4.6.7,6.4.8,12.1,3.4,17.6,6.6,1.2.7,2.2,1.6,3.2,2.4,1.2,1,1.3,1.9.5,3-.7.9-1.6,1.1-2.9.4-2.3-1.3-4.5-2.5-7-3.4-6.2-2.4-12.6-3.1-19.1-2.6-6.1.5-11.8,2.3-17.1,5.2-4.7,2.5-8.7,5.9-12,10.1-2.4,3-4.3,6.2-5.8,9.8-3.3,8.1-4.1,16.3-2.2,24.8,1.5,6.5,4.3,12.3,8.6,17.3,3.2,3.8,7.1,6.9,11.5,9.2,6.2,3.2,12.8,4.9,19.8,4.7,5.3-.1,10.5-1.3,15.4-3.4,7.1-3,12.7-7.7,17.1-13.7,3.5-4.7,5.9-10,6.9-15.8.8-4.3,1.4-8.6.9-13-.2-2,.8-3.4,2.6-3.7,1.7-.3,3,.7,3.5,2.6.5,2,.7,4,.9,6,0,.1.1.3.2.4v6.7c-.3.2-.3.5-.3.7-.2,2.9-.8,5.8-1.5,8.6-1.4,5.1-3.7,9.7-6.7,14.1-2.8,4.1-6.1,7.7-10,10.7-4.1,3.2-8.5,5.7-13.4,7.5-4.9,1.8-9.9,2.8-15.1,3-6.7.3-13.2-.8-19.5-3.1-8.5-3.2-15.7-8.2-21.4-15.3-4.1-5.1-7.1-10.8-8.9-16.9C.2,57.1-.4,49.9.7,42.6c.8-4.9,2-9.7,4.2-14.2,2.8-5.7,6.4-10.8,11.1-15.1,2.8-2.6,5.8-4.9,9.3-6.7,5.3-2.8,10.8-4.9,16.8-5.5,1.2-.1,2.4,0,3.5-.6h6.2Z"/>
  <path class="cls-3" d="M45.6.5c-1.1.5-2.3.4-3.5.6-6,.7-11.5,2.8-16.8,5.5-3.4,1.8-6.4,4.2-9.3,6.7-4.7,4.3-8.4,9.4-11.1,15.1-2.2,4.5-3.4,9.2-4.2,14.2-1.1,7.3-.5,14.5,1.6,21.5,1.8,6.2,4.8,11.9,8.9,16.9,5.8,7.1,12.9,12.2,21.4,15.3,6.3,2.3,12.8,3.4,19.5,3.1,5.1-.2,10.2-1.2,15.1-3,4.9-1.8,9.4-4.3,13.4-7.5,3.9-3.1,7.2-6.7,10-10.7,3-4.3,5.3-9,6.7-14.1.8-2.8,1.3-5.7,1.5-8.6,0-.3,0-.6.3-.7,0,14.6,0,29.3,0,43.9,0,.8-.2,1-1,1-32.4,0-64.8,0-97.2,0-.8,0-1-.2-1-1C0,66.4,0,33.9,0,1.5,0,.6.2.5,1,.5c14.9,0,29.7,0,44.6,0Z"/>
  <path class="cls-2" d="M53.9,51.2c-3.7,3-7.3,5.9-10.9,8.9-4.5,3.7-8.9,7.6-13.2,11.5-2.4,2.1-6.5,2.1-9,0-1.7-1.3-1.6-3.8.2-5.1,2.3-1.7,4.6-3.3,6.9-4.9,6.8-4.8,13.6-9.7,20.2-14.8.2-.1.3-.3.5-.4,1.6-1.3,1.6-1.2.5-2.9-3.8-5.8-7.6-11.6-11.4-17.4-1.2-1.8-2.3-3.7-3.7-5.3-2.2-2.6-.4-5.9,2.6-6.5,2.7-.6,6.4.4,7.9,3.8,2.2,4.8,4.7,9.5,7.4,14.1,1.4,2.5,2.9,5,4.3,7.5.4.7.6.6,1.1.2,5.7-4.5,11.4-9.2,16.9-14,2.1-1.8,4.1-3.6,6.2-5.3,2.5-2.1,5.3-2.2,8.2-1.2,1.4.5,2.3,1.6,2.5,3.1.2,1.6-.6,2.6-1.8,3.4-6.3,4.1-12.5,8.2-18.5,12.6-3.3,2.5-6.6,5-9.9,7.5-.5.3-.5.6-.2,1,3,4.9,6.2,9.8,9.5,14.5,2.4,3.5,4.9,6.9,7.3,10.4,1.3,1.9.5,4.3-1.7,5.2-3,1.3-7.6.8-9.5-3.6-2.5-6-5.9-11.6-9.2-17.2-1-1.7-2-3.3-3.1-5.1Z"/>
</svg>