<?xml version="1.0" encoding="UTF-8"?>
<svg id="Layer_1" data-name="Layer 1" xmlns="http://www.w3.org/2000/svg" version="1.1" viewBox="0 0 100 100">
  <defs>
    <style>
      .cls-1 {
        fill: #999;
        stroke-width: 0px;
      }
    </style>
  </defs>
  <path class="cls-1" d="M1,47c.2-1.4.5-2.9.7-4.3,1.2-9.2,4.9-17.3,10.8-24.4,5.4-6.5,12.1-11.3,20-14.3,6.1-2.3,12.4-3.2,18.9-3,7.2.2,14.1,2.1,20.5,5.6,2.1,1.1,4,2.5,5.9,3.9,1.1.8,1.3,2,.6,3.1-.6.9-1.6,1.1-2.9.4-3.6-2.1-7.3-3.9-11.4-4.9-6.2-1.5-12.5-1.7-18.8-.6-6.2,1.1-11.8,3.5-16.9,7.2-5.6,4-9.8,9.1-12.8,15.3-3.1,6.6-4.6,13.4-4,20.7.3,3.7,1.2,7.2,2.4,10.7,1.6,4.7,4.2,8.8,7.3,12.6,1.9,2.3,4.2,4.2,6.6,6,5.3,4,11.3,6.3,17.7,7.3,5.9.9,11.7.6,17.4-1.2,3.8-1.2,7.5-2.6,10.7-4.9,2.7-1.9,5.3-3.9,7.6-6.4,2.9-3.1,5.3-6.6,7.1-10.4,1.6-3.1,2.6-6.5,3.2-10,.4-2.2.7-4.5.8-6.8.2-1.9,0-3.8,0-5.7,0-2.6,2-4.1,4.3-3.2.9.3,1.5.9,1.7,1.9.5,2,.8,4.1,1,6.1,0,.3-.1.7.2.9v6.2c-.5,1.1-.3,2.2-.5,3.4-1.3,8.4-4.5,16-9.8,22.8-3.5,4.4-7.5,8.1-12.2,11.1-5.8,3.7-12.2,6-19.1,6.9-1.6.2-3.3.4-4.9.7h-3.8c-.2-.3-.6-.2-.9-.2-5,0-9.8-1.3-14.5-2.9-4.9-1.6-9.3-4.2-13.4-7.3-5.1-3.8-9.2-8.5-12.4-14-3.1-5.3-5.3-11-6.2-17.1-.3-1.8-.4-3.6-.9-5.4,0-1.9,0-3.8,0-5.8Z"/>
</svg>