<?xml version="1.0" standalone="no"?>
<!DOCTYPE svg PUBLIC "-//W3C//DTD SVG 20010904//EN" "http://www.w3.org/TR/2001/REC-SVG-20010904/DTD/svg10.dtd">
<svg version="1.0" xmlns="http://www.w3.org/2000/svg" viewBox="0 0 145.000000 111.000000" preserveAspectRatio="xMidYMid meet">
  <g transform="translate(0.000000,111.000000) scale(0.100000,-0.100000)" fill="#ff2095" stroke="none">
    <path d="M40 1103 c-30 -11 -40 -37 -40 -103 0 -109 -50 -100 588 -100 493 0
    552 2 567 16 12 13 15 33 13 92 -3 70 -5 78 -28 89 -19 10 -147 13 -555 12
    -292 0 -537 -3 -545 -6z"/>
    <path d="M20 720 c-16 -16 -20 -33 -20 -81 0 -105 -15 -99 253 -99 l232 0 78
    78 c42 42 77 83 77 89 0 28 -45 33 -319 33 -268 0 -282 -1 -301 -20z"/>
    <path d="M803 644 c-29 -31 -53 -63 -53 -72 0 -9 46 -63 102 -119 l102 -103
    -102 -103 c-56 -57 -102 -112 -102 -122 0 -23 102 -125 125 -125 10 0 65 46
    122 102 l103 102 103 -102 c56 -56 109 -102 118 -102 22 0 119 102 119 126 0
    11 -40 59 -99 118 l-100 99 100 106 c59 64 99 114 99 127 0 22 -99 124 -121
    124 -7 0 -60 -47 -118 -105 l-106 -104 -106 104 c-58 58 -112 105 -120 105 -7
    0 -37 -25 -66 -56z"/>
    <path d="M20 350 c-16 -16 -20 -33 -20 -83 0 -100 -11 -97 300 -97 l263 0 74
    76 c121 127 127 124 -274 124 -310 0 -324 -1 -343 -20z"/>
  </g>
</svg>
