<?xml version="1.0" encoding="utf-8"?>
<!-- Generator: Adobe Illustrator 28.1.0, SVG Export Plug-In . SVG Version: 6.00 Build 0)  -->
<svg version="1.1" id="Layer_1" xmlns="http://www.w3.org/2000/svg" xmlns:xlink="http://www.w3.org/1999/xlink" x="0px" y="0px"
	 viewBox="0 0 9.5 13" style="enable-background:new 0 0 9.5 13;" xml:space="preserve">
<style type="text/css">
	.st0{fill:white;}
</style>
<path class="st0" d="M7,5.6l1.5,0c0.4,0,0.7-0.3,0.7-0.8c0-0.4-0.3-0.5-0.5-0.7L5.4,0.9C5.1,0.7,5,0.5,4.6,0.5
	C4.3,0.5,4.1,0.7,3.9,1L0.7,4.3C0.5,4.5,0.3,4.7,0.3,5.1c0,0.4,0.4,0.7,0.8,0.7l1.5,0l0,1.5c0,1.4-0.3,3.3-1.5,3.8
	c-0.4,0.2-0.6,0.5-0.6,0.8c0,0.4,0.3,0.7,0.8,0.7C5.6,12.4,7.1,9.4,7,5.6z"/>
</svg>
