<svg width="18" height="18" viewBox="0 0 18 18" fill="none" xmlns="http://www.w3.org/2000/svg">
<path d="M9 0C4.02948 0 0 4.02948 0 9C0 13.2206 2.90592 16.7623 6.82596 17.735V11.7504H4.97016V9H6.82596V7.81488C6.82596 4.75164 8.21232 3.3318 11.2198 3.3318C11.79 3.3318 12.7739 3.44376 13.1764 3.55536V6.04836C12.964 6.02604 12.595 6.01488 12.1367 6.01488C10.661 6.01488 10.0908 6.57396 10.0908 8.02728V9H13.0306L12.5255 11.7504H10.0908V17.9341C14.5472 17.3959 18.0004 13.6015 18.0004 9C18 4.02948 13.9705 0 9 0Z" fill="white"/>
</svg>
