<svg xmlns="http://www.w3.org/2000/svg" viewBox="0 0 25 24">
  <g id="spectrum-ExperienceCloud">
    <rect fill="rgb(250, 15, 0)" width="24.62" height="24" rx="4.36" ry="4.36"></rect>
    <path fill="#FFF" d="M19.14,18.05h-2.92c-.26,0-.5-.15-.6-.39l-3.17-7.42c-.02-.07-.1-.12-.17-.1-.04.01-.08.05-.09.09l-1.98,4.71c-.04.09,0,.18.09.22.02,0,.04.01.06.01h2.17c.13,0,.26.08.31.2l.95,2.12c.08.2,0,.43-.21.51-.05.02-.1.03-.15.03h-7.92c-.2,0-.36-.16-.36-.36,0-.05.01-.1.03-.14l5.03-11.99c.11-.26.36-.43.64-.43h2.9c.28,0,.53.17.64.43l5.07,11.99c.08.18,0,.4-.19.47-.04.02-.09.03-.14.03h0Z"></path>
  </g>
</svg>