<?xml version="1.0" encoding="UTF-8"?><svg id="Layer_1" xmlns="http://www.w3.org/2000/svg" viewBox="0 0 48 48"><defs><style>.cls-1{fill:none;}.cls-2{fill:#ff8315;}</style></defs><path class="cls-1" d="m8.29,32.66c1.66,3.45,4.31,6.18,7.94,8.17-1.43-.81-2.75-1.81-3.91-2.97-1.58-1.43-2.92-3.17-4.03-5.2Z"/><polygon class="cls-2" points="40.9 14.5 40.89 14.49 40.89 14.49 40.9 14.5"/><path class="cls-2" d="m45.17,22.08l-.15,1.62c.11-.68-.36-2.7-1.43-6.07l-.25-.62c.28.64.58,1.73.91,3.26.09.46.09.93,0,1.42-.52-2.8-1.26-5.02-2.21-6.67,2.76,5.38,2.89,11.1.39,17.14-3.05,5.76-7.59,9.28-13.6,10.58-.33.05-.65.1-.97.14,2.06-.35,4-1.04,5.77-2.04,2.33-1.17,4.34-2.8,6.03-4.88,2.94-4.04,4.31-7.91,4.1-11.6-.15,2.73-.6,4.85-1.32,6.34-.21.46-.28.5-.19.13-.49,1.13-1.05,2.16-1.67,3.11,1.61-2.79,2.53-6.05,2.53-9.53,0-5.44-2.26-10.34-5.86-13.76.17.13.34.25.51.38-.01-.05.01-.06.06-.03.64.54,1.58,1.61,2.84,3.21l.23.28h.02c.53.75.46.36-.22-1.18-.79-1.33-1.49-2.31-2.1-2.93-.08-.06-.12-.19-.14-.37l.09-.27c.36.17.77.39,1.25.66.25.19.81.81,1.7,1.84l-1.17-1.82,2.54,2.03c-.35-.59-.96-1.39-1.84-2.39-1.79-2.14-4.26-3.92-7.42-5.35l1.42.38c-1.31-.93-2.75-1.58-4.32-1.96-2.58-.64-3.89-.91-3.91-.81-2.73-.17-4.55-.14-5.46.12-3.37.41-6.56,1.7-9.56,3.88-4.97,3.57-7.93,8.51-8.88,14.81-.7,6.19,1.01,11.82,5.12,16.9.97,1.13,1.89,2.03,2.75,2.7.41.32.53.39.37.23l1.69,1.2c.86.55,1.44.89,1.73,1.03,2.43,1.28,4.9,2.09,7.41,2.42,5.86.67,11.06-.64,15.61-3.91,1.83-1.3,3.52-3.22,5.09-5.77-1.93,2.74-4.24,4.89-6.93,6.43-2.32,1.43-4.98,2.28-7.97,2.57,7.49-1.41,12.78-5.45,15.86-12.11.38-.83.68-1.64.89-2.44-1.21,3.58-3.04,6.43-5.47,8.53,3.28-3.17,5.3-7.18,6.04-12.02.19-2.34.22-3.94.09-4.81Zm-13.12-7.6c1.82,0,3.3,1.48,3.3,3.3s-1.48,3.3-3.3,3.3-3.3-1.48-3.3-3.3,1.48-3.3,3.3-3.3Zm-16.1,0c1.82,0,3.3,1.48,3.3,3.3s-1.48,3.3-3.3,3.3-3.3-1.48-3.3-3.3,1.48-3.3,3.3-3.3Zm-7.66,18.18c1.11,2.03,2.45,3.77,4.03,5.2,1.16,1.16,2.48,2.16,3.91,2.97-3.63-1.99-6.28-4.72-7.94-8.17Zm15.71-3c-3.45,0-6.68,1.87-8.42,4.87l-1.73-1c2.1-3.62,5.98-5.87,10.15-5.87s8.05,2.25,10.15,5.87l-1.73,1c-1.74-3-4.97-4.87-8.42-4.87Z"/></svg>