<svg width="1440" height="339" viewBox="0 0 1440 339" fill="none" xmlns="http://www.w3.org/2000/svg">
<path d="M118.073 10.3137H219.648L363.101 352.729H255.742L165.043 125.369L105.116 274.574H176.38L204.84 352.729H-27L118.073 10.3137ZM482.723 81.3636C493.135 81.3636 504.472 82.2804 515.81 85.0307V0.229177H605.584V337.602C584.992 346.77 540.567 358 496.143 358C415.624 358 346.442 312.62 346.442 222.088C346.442 131.557 413.079 81.5928 482.723 81.5928V81.3636ZM494.061 284.658C502.39 284.658 509.1 283.054 515.81 280.991V156.768C509.1 154.247 502.39 153.101 493.598 153.101C464.213 153.101 436.91 174.645 436.91 220.026C436.91 265.406 464.676 284.429 494.061 284.429V284.658ZM765.466 81.3636C840.2 81.3636 903.829 131.328 903.829 219.338C903.829 307.348 840.432 357.312 765.466 357.312C690.499 357.312 626.639 307.348 626.639 219.338C626.639 131.328 689.574 81.3636 765.466 81.3636ZM765.466 283.283C791.148 283.283 814.98 262.885 814.98 219.338C814.98 175.791 791.148 155.393 765.466 155.393C739.783 155.393 716.414 175.791 716.414 219.338C716.414 262.885 738.626 283.283 765.466 283.283ZM925.347 0.229177H1015.58V85.0307C1026.46 82.968 1037.8 81.3636 1049.13 81.3636C1119.24 81.3636 1184.26 126.744 1184.26 215.671C1184.26 309.64 1115.08 357.312 1033.17 357.312C997.999 357.312 953.112 350.207 925.347 337.373V0V0.229177ZM1035.25 284.2C1066.26 284.2 1094.48 262.197 1094.48 216.817C1094.48 174.416 1066.72 154.476 1036.64 154.476C1028.31 154.476 1021.6 155.393 1015.58 158.143V280.762C1020.67 282.825 1027.38 284.429 1035.25 284.429V284.2ZM1337.43 81.3636C1404.99 81.3636 1467 124.223 1467 210.629C1467 222.318 1466.54 233.548 1464.92 244.779H1296.71C1305.96 275.032 1332.8 289.242 1366.35 289.242C1393.65 289.242 1418.87 282.595 1447.33 270.448V338.519C1420.96 351.812 1389.49 357.312 1357.1 357.312C1271.49 357.312 1204.85 306.202 1204.85 219.338C1204.85 132.474 1265.24 81.3636 1337.43 81.3636ZM1382.78 189.085C1378.15 159.977 1358.48 148.288 1338.35 148.288C1318.22 148.288 1301.8 160.665 1295.09 189.085H1382.78Z" fill="white"/>
</svg>
