<?xml version="1.0" encoding="utf-8"?>
<svg version="1.1" xmlns="http://www.w3.org/2000/svg" xmlns:xlink="http://www.w3.org/1999/xlink">

<symbol id="footer-icon-globe" viewBox="0 0 50 50">
  <path d="M50 23.8c-.2-3.3-1-6.5-2.4-9.5A24.81 24.81 0 0 0 26.2 0h-2.4C14.6.4 6.3 5.9 2.4 14.3 1 17.3.2 20.5 0 23.8v2.4c.2 3.3 1 6.5 2.4 9.5 4 8.4 12.2 13.9 21.4 14.3h2.4c9.2-.4 17.5-5.9 21.4-14.3 1.4-3 2.2-6.2 2.4-9.5v-2.4zm-2.4 0h-9.5c0-3.2-.4-6.4-1.2-9.5H45c1.6 2.9 2.5 6.2 2.6 9.5zm-14-11.9h-7.4V2.6c3.1.7 5.7 4.5 7.4 9.3zm-9.8-9.3v9.3h-7.4c1.7-4.8 4.3-8.6 7.4-9.3zm0 11.7v9.5h-9.5c.1-3.2.6-6.4 1.4-9.5h8.1zm0 11.9v9.5h-8.1c-.8-3.1-1.3-6.3-1.4-9.5h9.5zm0 11.9v9.3c-3.1-.7-5.7-4.5-7.4-9.3h7.4zm2.4 9.3v-9.3h7.4c-1.7 4.8-4.3 8.6-7.4 9.3zm0-11.7v-9.5h9.5c-.1 3.2-.6 6.4-1.4 9.5h-8.1zm0-11.9v-9.5h8.1c.8 3.1 1.3 6.3 1.4 9.5h-9.5zm17.1-11.9h-7.1c-.9-3.1-2.4-6.1-4.5-8.6 4.7 1.5 8.8 4.5 11.6 8.6zM18.6 3.3c-2.2 2.5-3.8 5.4-4.8 8.6H6.7c2.9-4.1 7.1-7.1 11.9-8.6zM5 14.3h8.1c-.7 3.1-1.1 6.3-1.2 9.5H2.4c.1-3.3 1-6.6 2.6-9.5zM2.4 26.2h9.5c0 3.2.4 6.4 1.2 9.5H5c-1.6-2.9-2.5-6.2-2.6-9.5zm4 11.9h7.4c.9 3.1 2.4 6.1 4.5 8.6-4.7-1.5-8.8-4.5-11.7-8.6h-.2zm25 8.6c2.2-2.5 3.8-5.4 4.8-8.6h7.4c-3 4.1-7.3 7.2-12.2 8.6zm13.6-11h-8.1c.7-3.1 1.1-6.3 1.2-9.5h9.5c-.1 3.3-1 6.6-2.6 9.5z"/>
</symbol>

<symbol id="footer-icon-adchoices" viewBox="0 0 9 9">
  <path d="M7.99 5.23c.78-.43.92-.97.01-1.51L1.61.23C.83-.21.2.15.2 1.03v6.88c0 1.13.59 1.24 1.37.82l.73-.41c.12-.08.4-.32.32-.64-.07-.3-.33-.39-.62-.31-.44.24-.71 0-.71-.49v-4.9c0-.49.35-.69.78-.45l4.41 2.52c.43.25.43.64-.01.88L3.75 6.34V4.67a.47.47 0 1 0-.94 0v2.37c0 .26.22.44.47.53.1.04.3.05.44-.03l4.27-2.31z"/><path d="M3.79 3.42a.5.5 0 1 1-.98 0 .5.5 0 0 1 .98 0"/>
</symbol>

<symbol id="footer-icon-facebook" viewBox="0 0 18 18">
  <path fill="currentColor" d="M9 0C4.02948 0 0 4.02948 0 9C0 13.2206 2.90592 16.7623 6.82596 17.735V11.7504H4.97016V9H6.82596V7.81488C6.82596 4.75164 8.21232 3.3318 11.2198 3.3318C11.79 3.3318 12.7739 3.44376 13.1764 3.55536V6.04836C12.964 6.02604 12.595 6.01488 12.1367 6.01488C10.661 6.01488 10.0908 6.57396 10.0908 8.02728V9H13.0306L12.5255 11.7504H10.0908V17.9341C14.5472 17.3959 18.0004 13.6015 18.0004 9C18 4.02948 13.9705 0 9 0Z"/>
</symbol>

<symbol id="footer-icon-instagram" viewBox="0 0 18 18">
  <path fill="currentColor" d="M9 1.6207C11.4047 1.6207 11.6895 1.63125 12.6352 1.67344C13.5141 1.71211 13.9887 1.85977 14.3051 1.98281C14.7234 2.14453 15.0258 2.34141 15.3387 2.6543C15.6551 2.9707 15.8484 3.26953 16.0102 3.68789C16.1332 4.0043 16.2809 4.48242 16.3195 5.35781C16.3617 6.30703 16.3723 6.5918 16.3723 8.99297C16.3723 11.3977 16.3617 11.6824 16.3195 12.6281C16.2809 13.507 16.1332 13.9816 16.0102 14.298C15.8484 14.7164 15.6516 15.0187 15.3387 15.3316C15.0223 15.648 14.7234 15.8414 14.3051 16.0031C13.9887 16.1262 13.5105 16.2738 12.6352 16.3125C11.6859 16.3547 11.4012 16.3652 9 16.3652C6.59531 16.3652 6.31055 16.3547 5.36484 16.3125C4.48594 16.2738 4.01133 16.1262 3.69492 16.0031C3.27656 15.8414 2.97422 15.6445 2.66133 15.3316C2.34492 15.0152 2.15156 14.7164 1.98984 14.298C1.8668 13.9816 1.71914 13.5035 1.68047 12.6281C1.63828 11.6789 1.62773 11.3941 1.62773 8.99297C1.62773 6.58828 1.63828 6.30351 1.68047 5.35781C1.71914 4.47891 1.8668 4.0043 1.98984 3.68789C2.15156 3.26953 2.34844 2.96719 2.66133 2.6543C2.97773 2.33789 3.27656 2.14453 3.69492 1.98281C4.01133 1.85977 4.48945 1.71211 5.36484 1.67344C6.31055 1.63125 6.59531 1.6207 9 1.6207ZM9 0C6.55664 0 6.25078 0.0105469 5.29102 0.0527344C4.33477 0.0949219 3.67734 0.249609 3.10781 0.471094C2.51367 0.703125 2.01094 1.00898 1.51172 1.51172C1.00898 2.01094 0.703125 2.51367 0.471094 3.1043C0.249609 3.67734 0.0949219 4.33125 0.0527344 5.2875C0.0105469 6.25078 0 6.55664 0 9C0 11.4434 0.0105469 11.7492 0.0527344 12.709C0.0949219 13.6652 0.249609 14.3227 0.471094 14.8922C0.703125 15.4863 1.00898 15.9891 1.51172 16.4883C2.01094 16.9875 2.51367 17.2969 3.1043 17.5254C3.67734 17.7469 4.33125 17.9016 5.2875 17.9437C6.24727 17.9859 6.55312 17.9965 8.99648 17.9965C11.4398 17.9965 11.7457 17.9859 12.7055 17.9437C13.6617 17.9016 14.3191 17.7469 14.8887 17.5254C15.4793 17.2969 15.982 16.9875 16.4813 16.4883C16.9805 15.9891 17.2898 15.4863 17.5184 14.8957C17.7398 14.3227 17.8945 13.6687 17.9367 12.7125C17.9789 11.7527 17.9895 11.4469 17.9895 9.00352C17.9895 6.56016 17.9789 6.2543 17.9367 5.29453C17.8945 4.33828 17.7398 3.68086 17.5184 3.11133C17.2969 2.51367 16.991 2.01094 16.4883 1.51172C15.9891 1.0125 15.4863 0.703125 14.8957 0.474609C14.3227 0.253125 13.6688 0.0984375 12.7125 0.05625C11.7492 0.0105469 11.4434 0 9 0Z"/>
  <path fill="currentColor" d="M9 4.37695C6.44766 4.37695 4.37695 6.44766 4.37695 9C4.37695 11.5523 6.44766 13.623 9 13.623C11.5523 13.623 13.623 11.5523 13.623 9C13.623 6.44766 11.5523 4.37695 9 4.37695ZM9 11.9988C7.34414 11.9988 6.00117 10.6559 6.00117 9C6.00117 7.34414 7.34414 6.00117 9 6.00117C10.6559 6.00117 11.9988 7.34414 11.9988 9C11.9988 10.6559 10.6559 11.9988 9 11.9988Z"/>
  <path fill="currentColor" d="M14.8852 4.19356C14.8852 4.79121 14.4 5.27285 13.8059 5.27285C13.2082 5.27285 12.7266 4.7877 12.7266 4.19356C12.7266 3.5959 13.2117 3.11426 13.8059 3.11426C14.4 3.11426 14.8852 3.59941 14.8852 4.19356Z"/>
</symbol>

<symbol id="footer-icon-twitter" viewBox="0 0 17 15">
  <path fill="currentColor" d="M12.9947 0H15.5248L9.99729 6.31762L16.5 14.9145H11.4084L7.42053 9.70053L2.85746 14.9145H0.325824L6.23808 8.15707L0 0H5.22083L8.82555 4.76575L12.9947 0ZM12.1067 13.4001H13.5087L4.45905 1.43485H2.9546L12.1067 13.4001Z"/>
</symbol>

<symbol id="footer-icon-x" viewBox="0 0 17 15">
  <path fill="currentColor" d="M12.9947 0H15.5248L9.99729 6.31762L16.5 14.9145H11.4084L7.42053 9.70053L2.85746 14.9145H0.325824L6.23808 8.15707L0 0H5.22083L8.82555 4.76575L12.9947 0ZM12.1067 13.4001H13.5087L4.45905 1.43485H2.9546L12.1067 13.4001Z"/>
</symbol>

<symbol id="footer-icon-linkedin" viewBox="0 0 18 18">
  <path fill="currentColor" d="M16.6676 0H1.32891C0.594141 0 0 0.580078 0 1.29727V16.6992C0 17.4164 0.594141 18 1.32891 18H16.6676C17.4023 18 18 17.4164 18 16.7027V1.29727C18 0.580078 17.4023 0 16.6676 0ZM5.34023 15.3387H2.66836V6.74648H5.34023V15.3387ZM4.0043 5.57578C3.14648 5.57578 2.45391 4.8832 2.45391 4.02891C2.45391 3.17461 3.14648 2.48203 4.0043 2.48203C4.85859 2.48203 5.55117 3.17461 5.55117 4.02891C5.55117 4.87969 4.85859 5.57578 4.0043 5.57578ZM15.3387 15.3387H12.6703V11.1621C12.6703 10.1672 12.6527 8.88398 11.2816 8.88398C9.89297 8.88398 9.68203 9.97031 9.68203 11.0918V15.3387H7.01719V6.74648H9.57656V7.9207H9.61172C9.9668 7.2457 10.8387 6.53203 12.1359 6.53203C14.8395 6.53203 15.3387 8.31094 15.3387 10.6242V15.3387V15.3387Z"/>
</symbol>

<symbol id="footer-icon-pinterest" viewBox="0 0 35 35">
  <path fill="currentColor" d="M27.7 0H7.3C3.3 0 0 3.3 0 7.3v20.4c0 4 3.3 7.3 7.3 7.3h20.4c4 0 7.3-3.3 7.3-7.3V7.3c0-4-3.3-7.3-7.3-7.3zm-10 29.3c-1.2 0-2.4-.2-3.4-.5.5-.8 1.2-2.1 1.5-3.2.1-.5.7-2.8.7-2.8.4.7 1.5 1.3 2.7 1.3 3.5 0 6-3.2 6-7.2S22 10.3 18 10.3c-5 0-7.7 3.4-7.7 7 0 1.7.9 3.8 2.4 4.5.2.1.3.1.4-.2 0-.2.2-1 .3-1.3 0-.1 0-.2-.1-.3-.5-.6-.9-1.7-.9-2.7 0-2.6 1.9-5 5.3-5 2.9 0 4.9 2 4.9 4.7 0 3.1-1.6 5.3-3.7 5.3-1.1 0-2-.9-1.7-2.1.3-1.4 1-2.9 1-3.9 0-.9-.5-1.6-1.5-1.6-1.2 0-2.1 1.2-2.1 2.8 0 1 .3 1.7.3 1.7s-1.2 4.9-1.4 5.8c-.2 1.1-.1 2.6 0 3.5C9.1 26.9 6 22.6 6 17.6 6 11.2 11.2 6 17.6 6s11.7 5.2 11.7 11.7-5.2 11.6-11.6 11.6z"/>
</symbol>

<symbol id="footer-icon-discord" viewBox="0 0 35 35">
  <g fill="currentColor"><path d="M22.1 15.7c-1.4 0-2.5 1.3-2.5 2.8s1.1 2.8 2.5 2.8 2.5-1.3 2.5-2.8c0-1.5-1.1-2.8-2.5-2.8zM12.9 15.7c-1.4 0-2.5 1.3-2.5 2.8s1.1 2.8 2.5 2.8 2.5-1.3 2.5-2.8c0-1.5-1.1-2.8-2.5-2.8z"/><path d="M27.7 0H7.3C3.3 0 0 3.3 0 7.3v20.4c0 4 3.3 7.3 7.3 7.3h20.4c4 0 7.3-3.3 7.3-7.3V7.3c0-4-3.3-7.3-7.3-7.3zm3.6 24.5c-.1 0-.1 0 0 0-2.4 1.8-4.7 2.9-7 3.6h-.1c-.5-.7-1-1.5-1.4-2.3v-.1c.8-.3 1.5-.6 2.2-1 .1 0 .1-.1 0-.1-.1-.1-.3-.2-.4-.3h-.1c-4.5 2.1-9.4 2.1-13.9 0h-.1c-.1.1-.3.2-.4.3-.1 0 0 .1 0 .1.7.4 1.4.7 2.2 1 0 0 .1.1 0 .1-.4.8-.9 1.6-1.4 2.3h-.1c-2.3-.7-4.6-1.8-6.9-3.5v-.1c-.6-5.2.3-10.4 3.9-15.8 1.8-.8 3.7-1.4 5.6-1.8h.1l.7 1.4c2.1-.3 4.2-.3 6.3 0l.7-1.4h.1c2 .3 3.9.9 5.6 1.8 3.4 4.6 4.9 9.8 4.4 15.8z"/></g>
</symbol>

<symbol id="footer-icon-behance" viewBox="0 0 35 35">
  <path fill="currentColor" d="M12 21.9H8.8V19H12c2.8 0 3 2.9 0 2.9zm9.9-3.9h4.4c-.2-2.5-4-2.9-4.4 0zm-10-4.9H8.8V16h3.5c2.4 0 2.8-2.9-.4-2.9zM35 7.3v20.4c0 4-3.3 7.3-7.3 7.3H7.3c-4 0-7.3-3.3-7.3-7.3V7.3C0 3.3 3.3 0 7.3 0h20.4c4 0 7.3 3.3 7.3 7.3zm-14.6 4.4h7.3v-1.5h-7.3v1.5zm-5.2 5.2c2.8-1.4 2.7-6.6-2.6-6.7H5.8v14.6h6.3c6.6 0 6.5-6.6 3.1-7.9zm13.9.9c-.4-2.6-2.2-4.3-5.2-4.3-3.1 0-4.9 2-4.9 5.8s2 5.5 5 5.5 4.5-1.7 5-2.9h-3.1c-1.1 1.2-4.2.8-4-2h7.4c-.1-.9-.2-1.6-.2-2.1z"/>
</symbol>

<symbol id="footer-icon-youtube" viewBox="0 0 35 35">
  <path fill="currentColor" d="M27.7 0H7.3C3.3 0 0 3.3 0 7.3v20.4c0 4 3.3 7.3 7.3 7.3h20.4c4 0 7.3-3.3 7.3-7.3V7.3c0-4-3.3-7.3-7.3-7.3zm2.6 23.9a3.3 3.3 0 0 1-2.3 2.4c-3.3.8-17.9.7-20.9 0-1.2-.3-2.1-1.2-2.4-2.4-.8-3.1-.7-9.8 0-12.8A3.3 3.3 0 0 1 7 8.7c4.4-.9 19.4-.6 20.9 0 1.2.3 2.1 1.2 2.4 2.4.8 3.3.8 9.5 0 12.8z"/><path fill="currentColor" d="m14.9 21.5 7-4-7-4z"/>
</symbol>

<symbol id="footer-icon-weibo" viewBox="0 0 18 18">
  <path fill="currentColor" d="M15.94 3.35a4.1 4.1 0 0 0-3.9-1.26.6.6 0 1 0 .25 1.16A2.92 2.92 0 0 1 15.67 7a.6.6 0 0 0 1.13.37 4.1 4.1 0 0 0-.86-4.02Z"/><path fill="currentColor" d="M14.38 4.77a2 2 0 0 0-1.9-.62.51.51 0 1 0 .21 1 .98.98 0 0 1 1.14 1.26.51.51 0 1 0 .97.31 2 2 0 0 0-.42-1.95Zm-6.23 5.82a.37.37 0 0 1-.44.16.26.26 0 0 1-.11-.39.37.37 0 0 1 .43-.16.26.26 0 0 1 .12.39Zm-.82 1.04a.98.98 0 0 1-1.18.4A.68.68 0 0 1 5.9 11a.98.98 0 0 1 1.16-.39.68.68 0 0 1 .29 1.03Zm.94-2.8a2.8 2.8 0 0 0-3.13 1.37 1.9 1.9 0 0 0 1.21 2.71 2.77 2.77 0 0 0 3.31-1.4 1.91 1.91 0 0 0-1.4-2.68Z"/><path fill="currentColor" d="M8.01 13.64c-2.56.25-4.78-.91-4.95-2.6s1.78-3.25 4.35-3.5 4.78.9 4.94 2.59-1.77 3.25-4.34 3.5Zm5.13-5.6c-.22-.06-.36-.1-.25-.4a1.61 1.61 0 0 0 0-1.54c-.5-.72-1.88-.68-3.46-.02 0 0-.5.22-.37-.17A1.79 1.79 0 0 0 8.9 4.1c-.86-.86-3.13.03-5.09 1.99a6.7 6.7 0 0 0-2.31 4.34c0 2.57 3.29 4.13 6.5 4.13 4.21 0 7.02-2.45 7.02-4.4a2.35 2.35 0 0 0-1.88-2.12Z"/>
</symbol>

<symbol id="footer-icon-social-media" viewBox="0 0 24 24">
  <path fill="currentColor" d="M16.5 8.1c-1-2.6-3.9-4.5-7.4-4.5-4.3 0-7.7 2.8-7.7 6.4 0 1.9 1 3.7 2.7 4.8L3 17.2l2.9-1.5c1 .4 2.1.6 3.2.6h.8c-.4-.7-.6-1.5-.6-2.4 0-3.2 3.1-5.8 6.9-5.8h.3zM5.8 7.5c0-.4.3-.8.8-.8.4 0 .8.3.8.8 0 .4-.3.8-.8.8-.4-.1-.8-.4-.8-.8zm4.8 0c0-.4.3-.8.8-.8.4 0 .8.3.8.8 0 .4-.3.8-.8.8-.4-.1-.8-.4-.8-.8zm7.7 11.6c-.7.2-1.4.3-2.1.3-3.6 0-6.5-2.5-6.5-5.5s2.9-5.5 6.5-5.5 6.5 2.5 6.5 5.5c0 1.8-1.1 3.4-2.7 4.4l.8 2.1-2.5-1.3zm-4.6-6.6c.4 0 .7-.3.7-.7s-.3-.7-.7-.7c-.4 0-.7.3-.7.7s.3.7.7.7zm4.5 0c.4 0 .7-.3.7-.7s-.3-.7-.7-.7-.7.3-.7.7.3.7.7.7z"/>
</symbol>

</svg>
