<?xml version="1.0" encoding="utf-8"?>
<svg version="1.1" xmlns="http://www.w3.org/2000/svg" xmlns:xlink="http://www.w3.org/1999/xlink">

<symbol id="facebook" viewBox="0 0 35 35">
  <path fill="currentColor" d="M28.438,0a6.324,6.324,0,0,1,4.637,1.925A6.324,6.324,0,0,1,35,6.563V28.438A6.574,6.574,0,0,1,28.438,35H24.154V21.442h4.535l.684-5.286H24.154V12.783a2.919,2.919,0,0,1,.535-1.914,2.657,2.657,0,0,1,2.085-.638l2.78-.023V5.492A30.537,30.537,0,0,0,25.5,5.286a6.769,6.769,0,0,0-4.956,1.823,6.892,6.892,0,0,0-1.857,5.15v3.9H14.128v5.286h4.557V35H6.563a6.324,6.324,0,0,1-4.637-1.925A6.324,6.324,0,0,1,0,28.438V6.563A6.324,6.324,0,0,1,1.925,1.925,6.324,6.324,0,0,1,6.563,0Z"/>
</symbol>

<symbol id="linkedin" viewBox="0 0 35 35">
  <path fill="currentColor" d="M5.4,29.3h5.264V13.49H5.4Zm5.605-20.69a2.7,2.7,0,0,0-.82-1.96,2.906,2.906,0,0,0-2.119-.775,3.027,3.027,0,0,0-2.153.775,2.565,2.565,0,0,0-.832,1.96,2.6,2.6,0,0,0,.809,1.948A2.9,2.9,0,0,0,8,11.348h.023a3,3,0,0,0,2.165-.786A2.59,2.59,0,0,0,11.006,8.613ZM24.336,29.3H29.6V20.234a7.564,7.564,0,0,0-1.663-5.309,5.7,5.7,0,0,0-4.4-1.8,5.3,5.3,0,0,0-4.762,2.666h.046v-2.3H13.558q.068,1.5,0,15.814h5.264V20.462a3.753,3.753,0,0,1,.16-1.276,3.517,3.517,0,0,1,1.025-1.356,2.584,2.584,0,0,1,1.686-.558q2.642,0,2.643,3.577ZM35,6.563V28.438A6.574,6.574,0,0,1,28.438,35H6.563a6.324,6.324,0,0,1-4.637-1.925A6.324,6.324,0,0,1,0,28.438V6.563A6.324,6.324,0,0,1,1.925,1.925,6.324,6.324,0,0,1,6.563,0H28.438a6.324,6.324,0,0,1,4.637,1.925A6.324,6.324,0,0,1,35,6.563Z"/>
</symbol>

<symbol id="twitter" viewBox="0 0 35 35">
  <path fill="none" class="st0" d="M28.3,6.5h-3.8l-6.3,7.1l-5.3-7.1H5.2l9.2,12.1l-8.8,10h4.1l6.7-7.7l5.9,7.7h7.5l-9.7-12.6L28.3,6.5z
		 M25.3,26.3h-2.1L9.7,8.7h1.9L25.3,26.3z"/>
	<g>
		<polygon fill="currentColor" points="9.7,8.7 23.3,26.3 25.3,26.3 11.6,8.7 		"/>
		<path fill="currentColor" d="M33.1,1.9c-1.2-1.3-2.9-2-4.6-1.9H6.6C4.8,0,3.1,0.7,1.9,1.9C0.7,3.1,0,4.8,0,6.6v21.9c0,1.7,0.7,3.4,1.9,4.6
			c1.2,1.3,2.9,2,4.6,1.9h21.9c3.6,0,6.6-2.9,6.6-6.6V6.6C35,4.8,34.3,3.1,33.1,1.9z M22.3,28.5l-5.9-7.7l-6.7,7.7H5.6l8.8-10
			L5.2,6.5h7.7l5.3,7.1l6.3-7.1h3.8l-8.2,9.5l9.7,12.6H22.3z"/>
	</g>
</symbol>

<symbol id="pinterest" viewBox="0 0 35 35">
  <path fill="currentColor" d="M27.7,0H7.3C3.3,0,0,3.3,0,7.3v20.4c0,4,3.3,7.3,7.3,7.3h20.4c4,0,7.3-3.3,7.3-7.3V7.3C35,3.3,31.7,0,27.7,0z M17.7,29.3
	c-1.2,0-2.4-0.2-3.4-0.5c0.5-0.8,1.2-2.1,1.5-3.2c0.1-0.5,0.7-2.8,0.7-2.8c0.4,0.7,1.5,1.3,2.7,1.3c3.5,0,6-3.2,6-7.2
	S22,10.3,18,10.3c-5,0-7.7,3.4-7.7,7c0,1.7,0.9,3.8,2.4,4.5c0.2,0.1,0.3,0.1,0.4-0.2c0-0.2,0.2-1,0.3-1.3c0-0.1,0-0.2-0.1-0.3
	c-0.5-0.6-0.9-1.7-0.9-2.7c0-2.6,1.9-5,5.3-5c2.9,0,4.9,2,4.9,4.7c0,3.1-1.6,5.3-3.7,5.3c-1.1,0-2-0.9-1.7-2.1c0.3-1.4,1-2.9,1-3.9
	c0-0.9-0.5-1.6-1.5-1.6c-1.2,0-2.1,1.2-2.1,2.8c0,1,0.3,1.7,0.3,1.7s-1.2,4.9-1.4,5.8c-0.2,1.1-0.1,2.6,0,3.5
	C9.1,26.9,6,22.6,6,17.6C6,11.2,11.2,6,17.6,6s11.7,5.2,11.7,11.7S24.1,29.3,17.7,29.3L17.7,29.3z"/>
</symbol>

<symbol id="reddit" viewBox="0 0 35 35">
  <path fill="currentColor" d="m33.08,1.93C31.86.67,30.18-.02,28.44,0H6.56c-1.75-.03-3.42.67-4.64,1.92C.67,3.14-.03,4.82,0,6.56v21.88c-.03,1.75.67,3.42,1.93,4.64,1.21,1.25,2.89,1.95,4.64,1.92h21.88c3.62,0,6.56-2.94,6.56-6.56V6.56c.03-1.75-.67-3.42-1.92-4.64Zm-4.23,18.33c.02.28.02.57,0,.85,0,4.35-5.06,7.88-11.31,7.88s-11.31-3.53-11.31-7.88c-.02-.28-.02-.57,0-.85-.28-.13-.53-.3-.76-.51-1.14-1.07-1.19-2.86-.12-4,1.07-1.14,2.86-1.19,4-.12,2.24-1.52,4.86-2.35,7.57-2.39l1.44-6.73s0,0,0,0c.07-.32.39-.53.72-.46l4.75.95c.31-.53.86-.89,1.47-.95,1.07-.11,2.02.66,2.14,1.72.11,1.07-.66,2.02-1.72,2.14-1.07.11-2.02-.66-2.14-1.72l-4.15-.87-1.26,6.05c2.67.06,5.26.89,7.47,2.39.5-.48,1.16-.76,1.86-.79,1.56-.06,2.88,1.16,2.93,2.73.02,1.09-.59,2.09-1.57,2.58Z"/>
  <path fill="currentColor" d="m21.54,24.25c-1.18.84-2.61,1.26-4.05,1.18-1.44.06-2.87-.37-4.03-1.22-.19-.16-.47-.16-.66,0-.22.18-.26.51-.07.74,1.38,1.04,3.07,1.57,4.79,1.49,1.72.07,3.42-.46,4.79-1.49v.08c.21-.21.22-.55,0-.77-.21-.21-.55-.22-.77,0Z"/>
  <path fill="currentColor" d="m14.9,19.61c0-1.07-.87-1.94-1.94-1.94s-1.94.87-1.94,1.94.87,1.94,1.94,1.94,1.94-.87,1.94-1.94Z"/>
  <path fill="currentColor" d="m21.94,17.75c-1.07,0-1.94.87-1.94,1.94s.87,1.94,1.94,1.94l-.02.08s.07,0,.1,0c1.07-.04,1.9-.95,1.86-2.02,0-1.07-.87-1.94-1.94-1.94Z"/>
</symbol>

<symbol id="clipboard" viewBox="0 0 37 37" style="enable-background:new 0 0 37 37" xml:space="preserve">
  <path fill="currentColor" d="M31 0H6C2.7 0 0 2.7 0 6v25c0 3.3 2.7 6 6 6h25c3.3 0 6-2.7 6-6V6c0-3.3-2.7-6-6-6zM15.34 30.58a6.296 6.296 0 0 1-8.83 0c-2.48-2.44-2.52-6.43-.08-8.91l6.31-6.31a6.423 6.423 0 0 1 9.01-.04c.43.43.79.93 1.08 1.47l-1.52 1.51c-.11.11-.24.2-.38.28a3.68 3.68 0 0 0-3.32-2.44c-1.1-.04-2.17.37-2.96 1.13l-6.31 6.31a3.591 3.591 0 0 0 0 5.09 3.591 3.591 0 0 0 5.09 0c.19-.19 2.81-2.85 3.26-3.3 1.04.43 2.16.61 3.29.53-.96.95-4.31 4.34-4.64 4.68zm15.19-15.2-5.94 5.94c-2.54 2.57-6.63 2.73-9.38.38-.43-.43-.79-.93-1.08-1.47l1.44-1.5a2 2 0 0 1 .37-.28c.24.56.61 1.05 1.09 1.43.64.62 1.49.97 2.37.97 1.1.04 2.17-.37 2.96-1.14l6.26-6.26a3.591 3.591 0 0 0 0-5.09 3.591 3.591 0 0 0-5.09 0c-.19.19-2.87 2.83-3.32 3.29a7.267 7.267 0 0 0-3.29-.53c.96-.96 4.36-4.32 4.7-4.66a6.301 6.301 0 0 1 8.91 0l.01.01c2.46 2.47 2.46 6.46-.01 8.91z" />
</symbol>
</svg>
