<?xml version="1.0" encoding="utf-8"?>
<svg version="1.1" xmlns="http://www.w3.org/2000/svg" xmlns:xlink="http://www.w3.org/1999/xlink">

<symbol id="facebook" viewBox="0 0 35 35">
  <path fill="currentColor" d="M28.438,0a6.324,6.324,0,0,1,4.637,1.925A6.324,6.324,0,0,1,35,6.563V28.438A6.574,6.574,0,0,1,28.438,35H24.154V21.442h4.535l.684-5.286H24.154V12.783a2.919,2.919,0,0,1,.535-1.914,2.657,2.657,0,0,1,2.085-.638l2.78-.023V5.492A30.537,30.537,0,0,0,25.5,5.286a6.769,6.769,0,0,0-4.956,1.823,6.892,6.892,0,0,0-1.857,5.15v3.9H14.128v5.286h4.557V35H6.563a6.324,6.324,0,0,1-4.637-1.925A6.324,6.324,0,0,1,0,28.438V6.563A6.324,6.324,0,0,1,1.925,1.925,6.324,6.324,0,0,1,6.563,0Z"/>
</symbol>

<symbol id="linkedin" viewBox="0 0 35 35">
  <path fill="currentColor" d="M5.4,29.3h5.264V13.49H5.4Zm5.605-20.69a2.7,2.7,0,0,0-.82-1.96,2.906,2.906,0,0,0-2.119-.775,3.027,3.027,0,0,0-2.153.775,2.565,2.565,0,0,0-.832,1.96,2.6,2.6,0,0,0,.809,1.948A2.9,2.9,0,0,0,8,11.348h.023a3,3,0,0,0,2.165-.786A2.59,2.59,0,0,0,11.006,8.613ZM24.336,29.3H29.6V20.234a7.564,7.564,0,0,0-1.663-5.309,5.7,5.7,0,0,0-4.4-1.8,5.3,5.3,0,0,0-4.762,2.666h.046v-2.3H13.558q.068,1.5,0,15.814h5.264V20.462a3.753,3.753,0,0,1,.16-1.276,3.517,3.517,0,0,1,1.025-1.356,2.584,2.584,0,0,1,1.686-.558q2.642,0,2.643,3.577ZM35,6.563V28.438A6.574,6.574,0,0,1,28.438,35H6.563a6.324,6.324,0,0,1-4.637-1.925A6.324,6.324,0,0,1,0,28.438V6.563A6.324,6.324,0,0,1,1.925,1.925,6.324,6.324,0,0,1,6.563,0H28.438a6.324,6.324,0,0,1,4.637,1.925A6.324,6.324,0,0,1,35,6.563Z"/>
</symbol>

<symbol id="twitter" viewBox="0 0 35 35">
  <path fill="currentColor" d="M29.167,10.983a10.11,10.11,0,0,1-2.757.775,4.662,4.662,0,0,0,2.119-2.666,9.545,9.545,0,0,1-3.053,1.162,4.55,4.55,0,0,0-3.486-1.5A4.785,4.785,0,0,0,17.2,13.535a4.436,4.436,0,0,0,.114,1.094A13.544,13.544,0,0,1,11.8,13.148,13.581,13.581,0,0,1,7.428,9.616a4.747,4.747,0,0,0-.661,2.415,4.512,4.512,0,0,0,2.074,3.988,5.644,5.644,0,0,1-2.279-.592v.046A4.554,4.554,0,0,0,7.7,18.514a4.777,4.777,0,0,0,2.8,1.652,4.468,4.468,0,0,1-1.162.182,6.279,6.279,0,0,1-.889-.091,4.856,4.856,0,0,0,1.7,2.37,4.56,4.56,0,0,0,2.769.957,9.452,9.452,0,0,1-5.947,2.051,9.193,9.193,0,0,1-1.139-.068,13.419,13.419,0,0,0,7.337,2.142,13.919,13.919,0,0,0,4.785-.809,12.343,12.343,0,0,0,3.828-2.165,14.371,14.371,0,0,0,2.746-3.122A13.789,13.789,0,0,0,26.8,14.082a5.856,5.856,0,0,0-.023-.615A9.289,9.289,0,0,0,29.167,10.983ZM35,6.563V28.438A6.574,6.574,0,0,1,28.438,35H6.563a6.324,6.324,0,0,1-4.637-1.925A6.324,6.324,0,0,1,0,28.438V6.563A6.324,6.324,0,0,1,1.925,1.925,6.324,6.324,0,0,1,6.563,0H28.438a6.324,6.324,0,0,1,4.637,1.925A6.324,6.324,0,0,1,35,6.563Z"/>
</symbol>

<symbol id="pinterest" viewBox="0 0 35 35">
  <path fill="currentColor" d="M27.7,0H7.3C3.3,0,0,3.3,0,7.3v20.4c0,4,3.3,7.3,7.3,7.3h20.4c4,0,7.3-3.3,7.3-7.3V7.3C35,3.3,31.7,0,27.7,0z M17.7,29.3
	c-1.2,0-2.4-0.2-3.4-0.5c0.5-0.8,1.2-2.1,1.5-3.2c0.1-0.5,0.7-2.8,0.7-2.8c0.4,0.7,1.5,1.3,2.7,1.3c3.5,0,6-3.2,6-7.2
	S22,10.3,18,10.3c-5,0-7.7,3.4-7.7,7c0,1.7,0.9,3.8,2.4,4.5c0.2,0.1,0.3,0.1,0.4-0.2c0-0.2,0.2-1,0.3-1.3c0-0.1,0-0.2-0.1-0.3
	c-0.5-0.6-0.9-1.7-0.9-2.7c0-2.6,1.9-5,5.3-5c2.9,0,4.9,2,4.9,4.7c0,3.1-1.6,5.3-3.7,5.3c-1.1,0-2-0.9-1.7-2.1c0.3-1.4,1-2.9,1-3.9
	c0-0.9-0.5-1.6-1.5-1.6c-1.2,0-2.1,1.2-2.1,2.8c0,1,0.3,1.7,0.3,1.7s-1.2,4.9-1.4,5.8c-0.2,1.1-0.1,2.6,0,3.5
	C9.1,26.9,6,22.6,6,17.6C6,11.2,11.2,6,17.6,6s11.7,5.2,11.7,11.7S24.1,29.3,17.7,29.3L17.7,29.3z"/>
</symbol>

</svg>
