<?xml version="1.0" encoding="utf-8"?>
<svg version="1.1" xmlns="http://www.w3.org/2000/svg" xmlns:xlink="http://www.w3.org/1999/xlink">

<symbol id="facebook" viewBox="0 0 35 35">
  <path fill="currentColor" d="M28.438,0a6.324,6.324,0,0,1,4.637,1.925A6.324,6.324,0,0,1,35,6.563V28.438A6.574,6.574,0,0,1,28.438,35H24.154V21.442h4.535l.684-5.286H24.154V12.783a2.919,2.919,0,0,1,.535-1.914,2.657,2.657,0,0,1,2.085-.638l2.78-.023V5.492A30.537,30.537,0,0,0,25.5,5.286a6.769,6.769,0,0,0-4.956,1.823,6.892,6.892,0,0,0-1.857,5.15v3.9H14.128v5.286h4.557V35H6.563a6.324,6.324,0,0,1-4.637-1.925A6.324,6.324,0,0,1,0,28.438V6.563A6.324,6.324,0,0,1,1.925,1.925,6.324,6.324,0,0,1,6.563,0Z"/>
</symbol>

<symbol id="linkedin" viewBox="0 0 35 35">
  <path fill="currentColor" d="M5.4,29.3h5.264V13.49H5.4Zm5.605-20.69a2.7,2.7,0,0,0-.82-1.96,2.906,2.906,0,0,0-2.119-.775,3.027,3.027,0,0,0-2.153.775,2.565,2.565,0,0,0-.832,1.96,2.6,2.6,0,0,0,.809,1.948A2.9,2.9,0,0,0,8,11.348h.023a3,3,0,0,0,2.165-.786A2.59,2.59,0,0,0,11.006,8.613ZM24.336,29.3H29.6V20.234a7.564,7.564,0,0,0-1.663-5.309,5.7,5.7,0,0,0-4.4-1.8,5.3,5.3,0,0,0-4.762,2.666h.046v-2.3H13.558q.068,1.5,0,15.814h5.264V20.462a3.753,3.753,0,0,1,.16-1.276,3.517,3.517,0,0,1,1.025-1.356,2.584,2.584,0,0,1,1.686-.558q2.642,0,2.643,3.577ZM35,6.563V28.438A6.574,6.574,0,0,1,28.438,35H6.563a6.324,6.324,0,0,1-4.637-1.925A6.324,6.324,0,0,1,0,28.438V6.563A6.324,6.324,0,0,1,1.925,1.925,6.324,6.324,0,0,1,6.563,0H28.438a6.324,6.324,0,0,1,4.637,1.925A6.324,6.324,0,0,1,35,6.563Z"/>
</symbol>

<symbol id="twitter" viewBox="0 0 35 35">
  <path fill="currentColor" d="M29.167,10.983a10.11,10.11,0,0,1-2.757.775,4.662,4.662,0,0,0,2.119-2.666,9.545,9.545,0,0,1-3.053,1.162,4.55,4.55,0,0,0-3.486-1.5A4.785,4.785,0,0,0,17.2,13.535a4.436,4.436,0,0,0,.114,1.094A13.544,13.544,0,0,1,11.8,13.148,13.581,13.581,0,0,1,7.428,9.616a4.747,4.747,0,0,0-.661,2.415,4.512,4.512,0,0,0,2.074,3.988,5.644,5.644,0,0,1-2.279-.592v.046A4.554,4.554,0,0,0,7.7,18.514a4.777,4.777,0,0,0,2.8,1.652,4.468,4.468,0,0,1-1.162.182,6.279,6.279,0,0,1-.889-.091,4.856,4.856,0,0,0,1.7,2.37,4.56,4.56,0,0,0,2.769.957,9.452,9.452,0,0,1-5.947,2.051,9.193,9.193,0,0,1-1.139-.068,13.419,13.419,0,0,0,7.337,2.142,13.919,13.919,0,0,0,4.785-.809,12.343,12.343,0,0,0,3.828-2.165,14.371,14.371,0,0,0,2.746-3.122A13.789,13.789,0,0,0,26.8,14.082a5.856,5.856,0,0,0-.023-.615A9.289,9.289,0,0,0,29.167,10.983ZM35,6.563V28.438A6.574,6.574,0,0,1,28.438,35H6.563a6.324,6.324,0,0,1-4.637-1.925A6.324,6.324,0,0,1,0,28.438V6.563A6.324,6.324,0,0,1,1.925,1.925,6.324,6.324,0,0,1,6.563,0H28.438a6.324,6.324,0,0,1,4.637,1.925A6.324,6.324,0,0,1,35,6.563Z"/>
</symbol>

<symbol id="pinterest" viewBox="0 0 35 35">
  <path fill="currentColor" d="M27.7,0H7.3C3.3,0,0,3.3,0,7.3v20.4c0,4,3.3,7.3,7.3,7.3h20.4c4,0,7.3-3.3,7.3-7.3V7.3C35,3.3,31.7,0,27.7,0z M17.7,29.3
	c-1.2,0-2.4-0.2-3.4-0.5c0.5-0.8,1.2-2.1,1.5-3.2c0.1-0.5,0.7-2.8,0.7-2.8c0.4,0.7,1.5,1.3,2.7,1.3c3.5,0,6-3.2,6-7.2
	S22,10.3,18,10.3c-5,0-7.7,3.4-7.7,7c0,1.7,0.9,3.8,2.4,4.5c0.2,0.1,0.3,0.1,0.4-0.2c0-0.2,0.2-1,0.3-1.3c0-0.1,0-0.2-0.1-0.3
	c-0.5-0.6-0.9-1.7-0.9-2.7c0-2.6,1.9-5,5.3-5c2.9,0,4.9,2,4.9,4.7c0,3.1-1.6,5.3-3.7,5.3c-1.1,0-2-0.9-1.7-2.1c0.3-1.4,1-2.9,1-3.9
	c0-0.9-0.5-1.6-1.5-1.6c-1.2,0-2.1,1.2-2.1,2.8c0,1,0.3,1.7,0.3,1.7s-1.2,4.9-1.4,5.8c-0.2,1.1-0.1,2.6,0,3.5
	C9.1,26.9,6,22.6,6,17.6C6,11.2,11.2,6,17.6,6s11.7,5.2,11.7,11.7S24.1,29.3,17.7,29.3L17.7,29.3z"/>
</symbol>

<symbol id="clipboard" viewBox="0 0 37 37" style="enable-background:new 0 0 37 37" xml:space="preserve">
  <path fill="currentColor" d="M31 0H6C2.7 0 0 2.7 0 6v25c0 3.3 2.7 6 6 6h25c3.3 0 6-2.7 6-6V6c0-3.3-2.7-6-6-6zM15.34 30.58a6.296 6.296 0 0 1-8.83 0c-2.48-2.44-2.52-6.43-.08-8.91l6.31-6.31a6.423 6.423 0 0 1 9.01-.04c.43.43.79.93 1.08 1.47l-1.52 1.51c-.11.11-.24.2-.38.28a3.68 3.68 0 0 0-3.32-2.44c-1.1-.04-2.17.37-2.96 1.13l-6.31 6.31a3.591 3.591 0 0 0 0 5.09 3.591 3.591 0 0 0 5.09 0c.19-.19 2.81-2.85 3.26-3.3 1.04.43 2.16.61 3.29.53-.96.95-4.31 4.34-4.64 4.68zm15.19-15.2-5.94 5.94c-2.54 2.57-6.63 2.73-9.38.38-.43-.43-.79-.93-1.08-1.47l1.44-1.5a2 2 0 0 1 .37-.28c.24.56.61 1.05 1.09 1.43.64.62 1.49.97 2.37.97 1.1.04 2.17-.37 2.96-1.14l6.26-6.26a3.591 3.591 0 0 0 0-5.09 3.591 3.591 0 0 0-5.09 0c-.19.19-2.87 2.83-3.32 3.29a7.267 7.267 0 0 0-3.29-.53c.96-.96 4.36-4.32 4.7-4.66a6.301 6.301 0 0 1 8.91 0l.01.01c2.46 2.47 2.46 6.46-.01 8.91z" />
</symbol>

<symbol id="social-link" viewBox="0 0 35 35">
  <g fill="currentColor">
    <path d="M32.74,2.27c-3.03-3.03-7.93-3.03-10.96,0-.42,.42-4.6,4.56-5.78,5.73,1.38-.1,2.76,.13,4.04,.65,.56-.56,3.85-3.81,4.08-4.04,1.73-1.73,4.53-1.73,6.26,0,1.73,1.73,1.73,4.53,0,6.26l-7.69,7.68c-.97,.94-2.29,1.45-3.65,1.4-1.09-.01-2.13-.44-2.92-1.2-.59-.46-1.05-1.06-1.34-1.75-.17,.09-.32,.21-.46,.34l-1.76,1.85c.35,.66,.8,1.27,1.32,1.8,3.37,2.88,8.4,2.68,11.52-.47l7.3-7.31c3.02-3.02,3.03-7.93,0-10.95,0,0,0,0,0,0h0Z"/>
    <path d="M14.9,26.32c-.56,.56-3.78,3.83-4.01,4.06-1.73,1.73-4.53,1.73-6.26,0-1.73-1.73-1.73-4.53,0-6.26l7.76-7.76c.97-.94,2.28-1.45,3.63-1.39,1.85,.08,3.46,1.26,4.08,3,.17-.09,.32-.21,.46-.34l1.87-1.86c-.35-.66-.8-1.27-1.32-1.81-3.09-3.02-8.03-2.99-11.08,.05l-7.76,7.76c-3.03,3.03-3.03,7.93,0,10.96,3.03,3.03,7.93,3.03,10.96,0,.42-.42,4.52-4.58,5.7-5.75-1.38,.1-2.76-.13-4.04-.65h.01Z"/>
  </g>
</symbol>

<symbol id="social-facebook" viewBox="0 0 17.41 35">
  <path fill="currentColor" d="M14.35,5.55c-2.17,0-2.79,.96-2.79,3.08v3.5h5.77l-.57,5.67h-5.2v17.19H4.66V17.81H0v-5.67H4.66v-3.4C4.66,3.01,6.96,0,13.39,0c1.38,0,3.03,.11,4.02,.25V5.57"/>
</symbol>

<symbol id="social-instagram" viewBox="0 0 35 35">
    <g fill="currentColor">
      <path d="M6.03,.92C3.69,1.83,1.83,3.68,.92,6.03,.41,7.38,.13,8.82,.11,10.27c-.09,1.86-.11,2.46-.11,7.21s.02,5.34,.11,7.21c.03,1.45,.3,2.88,.81,4.24,.91,2.35,2.77,4.21,5.12,5.12,1.36,.51,2.79,.78,4.24,.81,1.86,.09,2.46,.11,7.21,.11s5.34-.02,7.21-.11c1.45-.03,2.88-.3,4.24-.81,2.35-.91,4.21-2.77,5.12-5.12,.51-1.36,.78-2.79,.81-4.24,.09-1.86,.11-2.46,.11-7.21s-.02-5.34-.11-7.21c-.03-1.45-.3-2.88-.81-4.24-.91-2.35-2.76-4.2-5.11-5.11-1.36-.51-2.79-.78-4.24-.81-1.86-.09-2.46-.11-7.21-.11s-5.34,.02-7.21,.11c-1.45,.02-2.89,.3-4.25,.81ZM24.54,3.25c1.11,.01,2.21,.22,3.25,.6,1.53,.59,2.73,1.79,3.32,3.32,.39,1.04,.59,2.14,.6,3.25,.09,1.84,.1,2.39,.1,7.06s-.02,5.22-.1,7.06c-.01,1.11-.22,2.21-.6,3.25-.59,1.53-1.79,2.73-3.32,3.32-1.04,.39-2.14,.59-3.25,.6-1.84,.09-2.39,.1-7.06,.1s-5.22-.02-7.06-.1c-1.11-.01-2.21-.22-3.25-.6-1.53-.59-2.73-1.79-3.32-3.32-.39-1.04-.59-2.14-.6-3.25-.09-1.84-.1-2.39-.1-7.06s.02-5.22,.1-7.06c.01-1.11,.22-2.21,.6-3.25,.59-1.53,1.79-2.73,3.32-3.32,1.04-.39,2.14-.59,3.25-.6,1.84-.09,2.39-.1,7.06-.1s5.22,.01,7.06,.1h0Z"/>
      <path class="g" d="M9.65,17.48c0,4.32,3.51,7.83,7.83,7.83s7.83-3.51,7.83-7.83-3.51-7.83-7.83-7.83-7.83,3.51-7.83,7.83h0Zm12.91,0c0,2.81-2.28,5.08-5.08,5.08s-5.08-2.28-5.08-5.08,2.28-5.08,5.08-5.08c2.81,0,5.08,2.28,5.08,5.08h0s0,0,0,0Z"/>
      <circle cx="26.65" cy="8.32" r="2.38"/>
    </g>
</symbol>

<symbol id="social-twitter" viewBox="0 0 35 35">
  <path fill="currentColor" d="M35,6.7c-1.3,0.6-2.7,1-4.1,1.1c1.5-0.9,2.6-2.3,3.2-4c-1.4,0.8-3,1.4-4.6,1.8     c-2.7-2.9-7.3-3-10.2-0.3c-1.9,1.8-2.7,4.4-2.1,6.9c-5.8-0.3-11.2-3-14.8-7.5c-1.9,3.3-0.9,7.5,2.2,9.6c-1.1,0-2.3-0.3-3.3-0.9     c0,0,0,0.1,0,0.1c0,3.4,2.4,6.4,5.8,7c-1.1,0.3-2.2,0.3-3.2,0.1c0.9,2.9,3.6,4.9,6.7,5c-3,2.4-6.8,3.4-10.6,3     c9.5,6.1,22.1,3.3,28.2-6.2c2.1-3.3,3.2-7.1,3.2-11c0-0.3,0-0.6,0-0.9C32.8,9.4,34,8.1,35,6.7z"/>
</symbol>

<symbol id="social-linkedin" viewBox="0 0 35 35">
  <path fill="currentColor" d="M32.64,0H2.36C1.07,0,0,1.04,0,2.34v30.32c0,1.3,1.07,2.34,2.36,2.34h30.27c1.3,0,2.35-1.04,2.36-2.34V2.34C34.99,1.04,33.93,0,32.64,0ZM10.21,29.17H4.38V13.13h5.83V29.17ZM7.29,10.75c-1.58-.12-2.77-1.49-2.66-3.07,.12-1.58,1.49-2.77,3.07-2.66,1.5,.11,2.66,1.36,2.66,2.86-.06,1.64-1.44,2.92-3.08,2.86ZM30.62,29.17h-5.83v-8.75c0-2.7-1.22-3.57-2.92-3.57-1.5,0-2.92,1.19-2.92,3.57v8.75h-5.83V13.13h5.83v1.9c1.17-1.64,3.09-2.58,5.1-2.48,5.24,0,6.56,4.37,6.56,7.87v8.75Z"/>
</symbol>

<symbol id="social-pinterest" viewBox="0 0 35 35">
  <path fill="currentColor" d="M17.5,0C7.83,0,0,7.83,0,17.5s7.83,17.5,17.5,17.5,17.5-7.83,17.5-17.5S27.17,0,17.5,0Zm0,3.5c7.73,0,14,6.27,14,14s-6.27,14-14,14c-1.29,0-2.53-.19-3.71-.51,.37-.75,.71-1.54,.89-2.24,.2-.77,1.03-3.91,1.03-3.91,.54,1.02,2.1,1.89,3.77,1.89,4.96,0,8.53-4.56,8.53-10.23s-4.43-9.5-10.14-9.5c-7.1,0-10.86,4.76-10.86,9.95,0,2.41,1.28,5.41,3.34,6.37,.31,.15,.48,.08,.55-.22,.06-.23,.33-1.35,.46-1.87,.04-.16,.02-.31-.11-.47-.68-.82-1.22-2.34-1.22-3.75,0-3.63,2.75-7.14,7.42-7.14,4.04,0,6.87,2.75,6.87,6.69,0,4.45-2.25,7.53-5.17,7.53-1.61,0-2.83-1.33-2.44-2.97,.46-1.95,1.36-4.07,1.36-5.48,0-1.26-.67-2.31-2.08-2.31-1.65,0-2.98,1.7-2.98,3.99,0,1.46,.49,2.44,.49,2.44,0,0-1.63,6.89-1.93,8.17-.15,.63-.2,1.38-.2,2.13-4.65-2.28-7.86-7.04-7.86-12.57,0-7.73,6.27-14,14-14Z"/>
</symbol>

<symbol id="discord" viewBox="0 0 35 35">
  <path fill="currentColor" d="M29.6,6.4c-2.2-1-4.6-1.8-7.1-2.2c0,0-0.1,0-0.1,0c-0.3,0.6-0.6,1.3-0.9,1.8c-2.7-0.4-5.4-0.4-8,0c-0.2-0.6-0.6-1.3-0.9-1.8     c0,0-0.1-0.1-0.1,0C10,4.6,7.6,5.3,5.4,6.4c0,0,0,0-0.1,0c-4.5,6.8-5.8,13.4-5.2,19.9c0,0,0,0.1,0,0.1c3,2.2,5.9,3.5,8.7,4.4     c0.1,0,0.1,0,0.1,0c0.7-0.9,1.3-1.9,1.8-2.9c0-0.1,0-0.1-0.1-0.1c-0.9-0.4-1.9-0.8-2.7-1.3c-0.1,0-0.1-0.1,0-0.2     c0.2-0.1,0.4-0.3,0.5-0.4c0,0,0.1,0,0.1,0c5.7,2.6,11.9,2.6,17.6,0c0,0,0.1,0,0.1,0c0.2,0.1,0.4,0.3,0.5,0.4c0.1,0,0.1,0.1,0,0.2     c-0.9,0.5-1.8,0.9-2.7,1.3c-0.1,0-0.1,0.1-0.1,0.2c0.5,1,1.1,2,1.8,2.9c0,0,0.1,0.1,0.1,0c2.9-0.9,5.8-2.2,8.8-4.4c0,0,0,0,0-0.1     C35.6,18.8,33.6,12.2,29.6,6.4C29.7,6.4,29.7,6.4,29.6,6.4L29.6,6.4z M11.7,22.4c-1.7,0-3.2-1.6-3.2-3.5s1.4-3.5,3.1-3.5     s3.2,1.6,3.1,3.5C14.9,20.8,13.5,22.4,11.7,22.4z M23.3,22.4c-1.7,0-3.1-1.6-3.1-3.5s1.4-3.5,3.1-3.5s3.2,1.6,3.1,3.5     C26.5,20.8,25.1,22.4,23.3,22.4z"/>
</symbol>

<symbol id="behance" viewBox="0 0 35 35">
  <path fill="currentColor" d="M26.25,11.81h-5.83v-1.28h5.83v1.28Zm1.23,8.93c-1.12,3.29-8.68,4.33-8.68-2.27s8.03-6.38,8.83-1.27c.07,.43,.09,1.01,.08,1.82h-6.43c-.15,2.5,2.57,2.82,3.51,1.73h2.69Zm-6.14-3.4h3.83c-.17-2.46-3.44-2.64-3.83,0Zm-8.54,5.94H7.29V10.56h5.91c4.66,.07,4.75,4.63,2.31,5.87,2.94,1.07,3.04,6.86-2.73,6.86Zm-2.76-7.49h2.87c2.13,0,2.47-2.71-.27-2.71h-2.6v2.71Zm2.7,2.12h-2.7v2.84h2.66c2.6,0,2.44-2.84,.04-2.84ZM17.5,2.92c8.04,0,14.58,6.54,14.58,14.58s-6.54,14.58-14.58,14.58S2.92,25.54,2.92,17.5,9.46,2.92,17.5,2.92Zm0-2.92C7.84,0,0,7.84,0,17.5s7.84,17.5,17.5,17.5,17.5-7.84,17.5-17.5S27.16,0,17.5,0Z"/>
</symbol>

<symbol id="youtube" viewBox="0 0 35 35">
  <path fill="currentColor" d="M34.3,9.1L34.3,9.1c-0.4-1.5-1.6-2.7-3.1-3.1c-2.7-0.7-13.7-0.7-13.7-0.7S6.6,5.2,3.8,5.9  C2.3,6.4,1.1,7.5,0.7,9.1C0,11.8,0,17.5,0,17.5s0,5.7,0.7,8.5c0.4,1.5,1.6,2.7,3.1,3.1c2.7,0.7,13.7,0.7,13.7,0.7s10.9,0,13.7-0.7  c1.5-0.4,2.7-1.6,3.1-3.1c0.7-2.8,0.7-8.5,0.7-8.5S35,11.8,34.3,9.1z M13.9,22.7V12.3l9.1,5.2C23.1,17.5,13.9,22.7,13.9,22.7z"/>
</symbol>

<symbol id="video" viewBox="0 0 35 35">
  <g fill="currentColor">
    <path d="M30.8,6.18C28.13,2.98,24.68,1.01,20.58,.29c-4.89-.86-9.4,.18-13.43,3.11C3.64,5.96,1.44,9.4,.42,13.6c-.21,.85-.36,1.71-.39,2.59,0,.06-.03,.16-.03,.16v2.3s0,.02,0,.04c.03,.32,.06,.65,.08,.96,.2,1.61,.64,3.15,1.27,4.64,1.52,3.61,4,6.36,7.35,8.34,1.96,1.16,4.08,1.92,6.34,2.2,5.9,.74,10.94-1.04,15.09-5.27,2.44-2.48,3.96-5.48,4.56-8.9,.96-5.41-.36-10.27-3.89-14.48Zm.82,11.46c-.04,7.94-6.44,14.3-14.4,14.23-7.85-.07-14.11-6.49-14.09-14.25,.03-8.15,6.55-14.24,14.22-14.25,7.9-.02,14.27,6.36,14.28,14.27h-.01Z"/>
    <path d="M26.07,16.83c-.1-.06-.17-.12-.25-.17-3.31-2.05-6.63-4.08-9.95-6.11-.78-.47-1.59-.92-2.37-1.39-.7-.4-1.35,.04-1.4,.8-.02,.36-.04,.74-.04,1.1l.03,13.17c0,.43,.01,.85,.07,1.27,.1,.62,.68,.91,1.22,.62,.34-.18,.66-.36,.98-.56,3.23-1.96,6.47-3.91,9.69-5.87,.67-.4,1.32-.83,1.98-1.26,.2-.13,.41-.28,.47-.56,.11-.49-.02-.79-.43-1.06Zm-11.76,5.33V12.87c0-.28,.32-.45,.58-.3l8.24,4.77c.24,.14,.24,.47,0,.61l-8.24,4.52c-.25,.14-.57-.03-.57-.31Z"/>
  </g>
</symbol>

</svg>
