<?xml version="1.0" encoding="utf-8"?>
<svg version="1.1" xmlns="http://www.w3.org/2000/svg" xmlns:xlink="http://www.w3.org/1999/xlink">

<symbol id="facebook" viewBox="0 0 24 24">
  <path fill="currentColor" d="M19,0H5C2.25,0,0,2.25,0,5v14C0,21.75,2.25,24,5,24h14c2.75,0,5-2.25,5-5V5C24,2.25,21.75,0,19,0Zm-3.65,8.09h-1.61c-.52,0-.62,.21-.62,.74v.93h2.24l-.2,2.23h-2.04v6.7h-2.79v-6.7h-1.67v-2.24h1.67v-1.89c0-1.69,.89-2.58,2.9-2.58h2.13v2.79Z"/>
</symbol>

<symbol id="linkedin" viewBox="0 0 24 24">
  <path fill="currentColor"  d="M19,0H5C2.25,0,0,2.25,0,5v14C0,21.75,2.25,24,5,24h14c2.75,0,5-2.25,5-5V5C24,2.25,21.75,0,19,0ZM7.39,6.42c.67,0,1.21,.55,1.2,1.21h0c0,.66-.55,1.19-1.21,1.19-.66,0-1.19-.55-1.19-1.21,0-.66,.54-1.18,1.2-1.19Zm1.21,11.17h-2.43v-7.77h2.43v7.77Zm9.22,0h-2.42v-4.08c0-2.45-2.93-2.27-2.93,0v4.08h-2.41v-7.77h2.41v1.05c1.02-1.89,5.35-2.03,5.35,1.8v4.92Z"/>
</symbol>

<symbol id="twitter" viewBox="0 0 24 24">
  <path fill="currentColor"  d="M19,0H5C2.25,0,0,2.25,0,5v14C0,21.75,2.25,24,5,24h14c2.75,0,5-2.25,5-5V5C24,2.25,21.75,0,19,0Zm-1.54,9.2c0,.15,.01,.31,.01,.46-.03,4.4-3.62,7.95-8.02,7.92-1.53,0-3.03-.44-4.32-1.27,1.49,.18,2.99-.24,4.17-1.17-1.21-.02-2.26-.81-2.63-1.96,.42,.08,.86,.06,1.27-.05-1.33-.27-2.28-1.44-2.26-2.8,.39,.22,.83,.34,1.28,.35-1.24-.83-1.62-2.48-.87-3.76,1.43,1.76,3.55,2.83,5.82,2.95-.23-.98,.08-2,.81-2.69,1.13-1.07,2.92-1.02,3.99,.11,.63-.12,1.24-.36,1.79-.68-.21,.65-.65,1.21-1.24,1.56,.56-.07,1.1-.22,1.62-.44-.38,.57-.85,1.06-1.41,1.46Z"/>
</symbol>

<symbol id="pinterest" viewBox="0 0 24 24">
  <path fill="currentColor"  d="M19,0H5C2.25,0,0,2.25,0,5v14C0,21.75,2.25,24,5,24h14c2.75,0,5-2.25,5-5V5C24,2.25,21.75,0,19,0Zm-7,18.7c-.69,0-1.35-.1-1.97-.3,.27-.43,.71-1.2,.86-1.81,.08-.31,.42-1.59,.42-1.59,.22,.41,.85,.77,1.53,.77,2.01,0,3.46-1.85,3.46-4.15s-1.8-3.85-4.11-3.85c-2.88,0-4.41,1.93-4.41,4.04,0,.98,.52,2.2,1.35,2.58,.13,.06,.19,.03,.22-.09,.02-.09,.13-.55,.19-.76,.02-.07,0-.13-.05-.19-.28-.33-.5-.95-.5-1.52,0-1.47,1.11-2.89,3.01-2.89,1.64,0,2.79,1.12,2.79,2.71,0,1.8-.91,3.05-2.1,3.05-.65,0-1.14-.54-.99-1.21,.19-.79,.55-1.65,.55-2.22,0-.51-.27-.94-.84-.94-.67,0-1.21,.69-1.21,1.62,0,.59,.2,.99,.2,.99,0,0-.66,2.79-.78,3.32-.14,.61-.08,1.47-.01,1.99-2.52-.96-4.32-3.4-4.32-6.26,0-3.7,3-6.7,6.7-6.7s6.7,3,6.7,6.7-3,6.7-6.7,6.7Z"/>
</symbol>

</svg>
