<?xml version="1.0" encoding="UTF-8"?>
<svg id="flags_22px" data-name="flags 22px" xmlns="http://www.w3.org/2000/svg" viewBox="0 0 18 18">
  <defs>
    <style>
      .cls-1 {
        fill: #00973d;
      }

      .cls-2 {
        fill: #f5f5f5;
      }

      .cls-3 {
        fill: #e50017;
      }
    </style>
  </defs>
  <path class="cls-2" d="m6.57,6v6h10.9c.33-.94.52-1.95.52-3s-.19-2.06-.52-3H6.57Z"/>
  <path class="cls-1" d="m17.48,6C16.24,2.51,12.92,0,9,0c-.84,0-1.65.12-2.43.34v5.66h10.9Z"/>
  <path d="m6.57,17.66c.77.22,1.58.34,2.42.34h0c3.92,0,7.24-2.51,8.47-6H6.57v5.66Z"/>
  <path class="cls-3" d="m6.57,6V.34C2.78,1.4,0,4.87,0,9s2.78,7.6,6.57,8.66V6Z"/>
</svg>