<?xml version="1.0" encoding="UTF-8"?><svg id="flags_22px" xmlns="http://www.w3.org/2000/svg" viewBox="0 0 22 22"><defs><style>.cls-1{fill:#f5f5f5;}.cls-2{fill:#fff;}.cls-3{fill:#ff0005;}</style></defs><path class="cls-2" d="M11,0C4.924005,.001282,.001221,4.924086,0,11.000031c.001221,6.075823,4.924005,10.998688,11,10.999969,6.075995-.001282,10.998779-4.924147,11-10.999969C21.998779,4.924086,17.075873,.001282,11,0Z"/><path class="cls-3" d="M11.012207,2.000494h-.02417c-4.964899,.006592-8.988015,4.032909-8.988015,8.999476,0,4.970656,4.029464,9.000086,9.0001,9.000086,4.970392,0,8.999856-4.02943,8.999856-9.000086,0-4.966567-4.023116-8.992884-8.987771-8.999476Zm5.577577,10.687224h-3.913251v3.937389h-3.353797v-3.937389h-3.912153v-3.374948h3.912153v-3.937389h3.353797v3.937389h3.913251v3.374948Z"/><polygon class="cls-1" points="12.676532 5.375381 9.322735 5.375381 9.322735 9.31277 5.410583 9.31277 5.410583 12.687718 9.322735 12.687718 9.322735 16.625107 12.676532 16.625107 12.676532 12.687718 16.589784 12.687718 16.589784 9.31277 12.676532 9.31277 12.676532 5.375381"/></svg>