<?xml version="1.0" encoding="UTF-8"?><svg id="flags_22px" xmlns="http://www.w3.org/2000/svg" viewBox="0 0 22 22"><defs><style>.cls-1{fill:#0037a6;}.cls-2{fill:#f5f5f5;}.cls-3{fill:#e60026;}.cls-4{fill:#fff;}</style></defs><path class="cls-4" d="M11.000137,22c6.075873-.001279,10.99866-4.924067,10.999939-10.999939C21.998796,4.924127,17.076009,.001279,11.000137,0,4.924203,.001279,.001355,4.924067,.000076,11.000061c.001279,6.075933,4.924127,10.99866,11.000061,10.999939Z"/><path class="cls-1" d="M2.57478,7.848266c-.00329,.008833-.006457,.017728-.009747,.026622l.029607-.026622h-.01986Z"/><path class="cls-1" d="M9.710652,2.099044c-1.072732,.154248-2.087896,.486991-3.003517,.984643v1.71982l3.003517-2.704463Z"/><path class="cls-1" d="M4.562097,4.712006c-.015961,.016387-.030277,.034237-.046116,.050685l.046116,.041547v-.092232Z"/><path class="cls-1" d="M10.99904,20.003849h.002437c4.971767-.000609,9.002265-4.031473,9.002265-9.003788C20.003742,6.027259,15.972695,1.996212,11.000258,1.996212c-.000731,0-.001523,.000122-.002254,.000122v1.057198l-2.325604,2.09411h2.325604v2.702209h-2.321461l2.321461,2.091977v1.055858h-1.172275l-3.116888-2.808391v2.812595h-2.14583v-2.812717l-2.540163,2.287286c-.010052,.17423-.026439,.346815-.026439,.523604,0,4.972315,4.030499,9.003179,9.002631,9.003788Z"/><path class="cls-2" d="M4.563011,11.001889h.4293v-3.69203h-.001706v-.00262H2.794577c-.079866,.177093-.151324,.358024-.219798,.541027h.01986l-.029607,.026622c-.169722,.457689-.308314,.929815-.402252,1.419121l1.605474-1.445743h.782451l-2.509276,2.259567c-.01194,.121352-.011514,.245932-.01858,.368624l2.540163-2.287286v2.812717Z"/><path class="cls-3" d="M3.768255,7.848266l-1.605474,1.445743c-.051355,.267681-.094243,.538346-.121352,.813824l2.509276-2.259567h-.782451Z"/><polygon class="cls-2" points="6.27948 7.309859 6.27948 7.802455 6.27948 11.001889 6.708841 11.001889 6.708841 8.189294 9.825729 10.997685 10.998004 10.997685 7.504329 7.84985 8.285866 7.84985 10.998004 10.294003 10.998004 9.941827 8.676543 7.84985 10.998004 7.84985 10.998004 7.309859 6.627453 7.309859 6.27948 7.309859"/><polygon class="cls-3" points="7.504329 7.84985 10.998004 10.997685 10.998004 10.294003 8.285866 7.84985 7.504329 7.84985"/><path class="cls-2" d="M6.278628,5.689216h4.719377v-.541575h-2.325604l2.325604-2.09411V1.996334h-.000183l-3.496539,3.148688h-.782451l3.450179-3.106836c-.154736,.014194-.305938,.038928-.458359,.060859l-3.003517,2.704463v-1.71982c-.147303,.079987-.286322,.172463-.428508,.260309v2.34522Z"/><path class="cls-3" d="M7.501283,5.145022l3.496539-3.148688c-.279743,.000061-.555525,.016814-.828811,.041852l-3.450179,3.106836h.782451Z"/><path class="cls-2" d="M4.990605,5.686109v-1.377269c-.146024,.131221-.291317,.262807-.428508,.403166v.092232l-.046116-.041547c-.11989,.124641-.236246,.252451-.348886,.383854-.148887,.173621-.288271,.354856-.423817,.539564h1.247328Z"/><path class="cls-3" d="M4.990605,7.307239v.00262h.001706v3.69203h1.287169v-3.69203h4.718524v-1.620643H6.278628V3.343996c-.458724,.28352-.888877,.60615-1.288022,.964844v1.377269h-1.247328c-.369599,.503866-.689061,1.045197-.9487,1.62113h2.196028Z"/><polygon class="cls-2" points="5.298371 15.865523 6.123831 14.996993 6.949961 15.865523 6.785661 14.678323 7.979197 14.574577 6.948499 13.962944 7.611852 12.964595 6.491115 13.389204 6.123831 12.24812 5.757217 13.389204 4.63648 12.964595 5.299833 13.962944 4.269135 14.574577 5.462732 14.678323 5.298371 15.865523"/><polygon class="cls-2" points="15.424541 16.024706 15.817959 15.611245 16.210647 16.024706 16.132487 15.459494 16.701354 15.409723 16.210647 15.118588 16.525906 14.643355 15.992738 14.845303 15.817959 14.302023 15.643181 14.845303 15.109282 14.643355 15.425333 15.118588 14.934504 15.409723 15.50264 15.459494 15.424541 16.024706"/><polygon class="cls-2" points="12.330985 10.437713 12.252947 11.003229 12.646305 10.589402 13.038931 11.003229 12.960832 10.437713 13.52976 10.388246 13.038931 10.097111 13.354251 9.621939 12.821083 9.823826 12.646305 9.280546 12.471587 9.823826 11.937628 9.621939 12.253678 10.097111 11.762849 10.388246 12.330985 10.437713"/><polygon class="cls-2" points="15.50264 7.002032 15.424541 7.567244 15.817959 7.153783 16.210647 7.567244 16.132487 7.002032 16.701354 6.952627 16.210647 6.661431 16.525906 6.185954 15.992738 6.388146 15.817959 5.844987 15.643181 6.388146 15.109282 6.185954 15.425333 6.661431 14.934504 6.952627 15.50264 7.002032"/><polygon class="cls-2" points="18.321814 9.592149 18.243715 10.1573 18.637073 9.7439 19.02976 10.1573 18.951661 9.592149 19.520528 9.542743 19.02976 9.251548 19.34508 8.77601 18.811851 8.978324 18.637073 8.435043 18.462355 8.978324 17.928395 8.77601 18.244507 9.251548 17.753678 9.542743 18.321814 9.592149"/><polygon class="cls-2" points="16.862791 11.580685 16.775737 11.935724 17.086609 11.743158 17.39669 11.935724 17.309696 11.580685 17.589317 11.344927 17.224165 11.318183 17.086609 10.979836 16.948322 11.318183 16.58317 11.344927 16.862791 11.580685"/></svg>