<?xml version="1.0" encoding="UTF-8"?><svg id="flags_22px" xmlns="http://www.w3.org/2000/svg" viewBox="0 0 22 22"><defs><style>.cls-1{fill:#050807;}.cls-2{fill:#fff;}.cls-3{fill:#ffdc00;}.cls-4{fill:#ff0005;}</style></defs><path class="cls-2" d="M11.000101,22c6.075907-.001282,10.998718-4.92408,10.999939-10.999969C21.998819,4.924018,17.075885,.001282,11.000101,0,4.924072,.001282,.00126,4.92408,.00004,11.000031c.001221,6.075829,4.92391,10.998688,11.000061,10.999969Z"/><path class="cls-1" d="M11.239607,2.011869h-.478768c-3.816714,.100648-7.034297,2.572606-8.242325,6.000022H19.481443c-1.207784-3.427416-4.425367-5.899374-8.241836-6.000022Z"/><path class="cls-4" d="M19.472654,14.011913c.335455-.943067,.527475-1.954068,.527475-3.012249,0-1.048965-.188724-2.051664-.518685-2.987773H2.518514c-.329839,.936109-.518563,1.938809-.518563,2.987773,0,1.058181,.192142,2.069182,.527597,3.012249H19.472654Z"/><path class="cls-3" d="M11.000223,19.99985c3.912297,0,7.232176-2.501011,8.472431-5.987937H2.527548c1.240133,3.486926,4.560135,5.987937,8.472675,5.987937Z"/></svg>