<?xml version="1.0" encoding="UTF-8"?><svg id="flags_22px" xmlns="http://www.w3.org/2000/svg" viewBox="0 0 22 22"><defs><style>.cls-1{fill:#0048b3;}.cls-2{fill:#f5f5f5;}.cls-3{fill:#fff;}</style></defs><path class="cls-3" d="M11.00007,0C4.924065,.001282,.001321,4.924133,.00004,11.000061c.001282,6.075867,4.924086,10.998657,11.000031,10.999939,6.075884-.001282,10.998688-4.924072,10.999969-10.999939C21.998758,4.924133,17.076015,.001282,11.00007,0Z"/><polygon class="cls-2" points="8.697146 12.320312 9.517583 12.320312 9.10706 11.609192 8.697146 12.320312"/><polygon class="cls-2" points="11.768139 9.660889 10.232063 9.660889 9.464849 10.99054 10.232063 12.320312 11.768139 12.320312 12.535841 10.99054 11.768139 9.660889"/><polygon class="cls-2" points="10.999826 8.331116 10.589791 9.042236 11.410838 9.042236 10.999826 8.331116"/><polygon class="cls-2" points="12.482008 12.320312 13.303055 12.320312 12.893081 11.609192 12.482008 12.320312"/><polygon class="cls-2" points="10.999826 13.649719 11.410838 12.93866 10.589791 12.93866 10.999826 13.649719"/><polygon class="cls-2" points="9.517583 9.660889 8.697146 9.660889 9.10706 10.371643 9.517583 9.660889"/><polygon class="cls-2" points="12.482008 9.660889 12.893081 10.371643 13.303055 9.660889 12.482008 9.660889"/><path class="cls-2" d="M10.795785,19.989807h.408693c1.881292-.042358,3.616526-.660889,5.042678-1.6875H5.753107c1.426151,1.026611,3.161386,1.645142,5.042678,1.6875Z"/><path class="cls-2" d="M11.000131,1.999939c-1.948675,0-3.74763,.625732-5.220901,1.678284h10.441801c-1.473271-1.052551-3.272226-1.678284-5.220901-1.678284Z"/><path class="cls-2" d="M3.219531,6.490662c-.770815,1.326965-1.219486,2.864197-1.219486,4.509338,0,1.637146,.443971,3.167603,1.207828,4.490173h15.584516c.763857-1.322571,1.207828-2.853027,1.207828-4.490173,0-1.645142-.448671-3.182373-1.219486-4.509338H3.219531Z"/><path class="cls-1" d="M16.221032,3.678223H5.77923c-1.040957,.743591-1.914556,1.701904-2.559699,2.812439h15.5612c-.645143-1.110535-1.518742-2.068848-2.559699-2.812439Z"/><path class="cls-1" d="M5.753107,18.302307h10.494048c1.035342-.7453,1.904546-1.70282,2.545234-2.812134H3.207873c.640688,1.109314,1.509892,2.066833,2.545234,2.812134Z"/><path class="cls-1" d="M12.125317,9.042236l-1.125491-1.948425-1.124454,1.948425h-2.249945l1.124942,1.948303-1.124942,1.94812h2.249945l1.124454,1.948669,1.125491-1.948669h2.249884l-1.125491-1.94812,1.125491-1.948303h-2.249884Zm-1.125491-.711121l.411012,.711121h-.821047l.410035-.711121Zm-2.30268,1.329773h.820437l-.410524,.710754-.409913-.710754Zm0,2.659424l.409913-.711121,.410524,.711121h-.820437Zm2.30268,1.329407l-.410035-.71106h.821047l-.411012,.71106Zm.768313-1.329407h-1.536076l-.767214-1.329773,.767214-1.329651h1.536076l.767702,1.329651-.767702,1.329773Zm1.534916,0h-.821047l.411073-.711121,.409974,.711121Zm-.409974-1.948669l-.411073-.710754h.821047l-.409974,.710754Z"/></svg>