<?xml version="1.0" encoding="UTF-8"?><svg id="flags_22px" xmlns="http://www.w3.org/2000/svg" viewBox="0 0 22 22"><defs><style>.cls-1{fill:#0043bf;}.cls-2{fill:#fff;}.cls-3{fill:#ffd100;}.cls-4{fill:#e10017;}</style></defs><path class="cls-2" d="M11.00007,22c6.075875-.001282,10.998688-4.924094,10.999969-10.999969C21.998758,4.924094,17.075946,.001282,11.00007,0,4.924134,.001282,.001321,4.924094,.00004,11.000031c.001282,6.075875,4.924094,10.998688,11.000031,10.999969Z"/><path class="cls-3" d="M20.000078,10.999542c0-4.794999-3.753025-8.702999-8.48015-8.973884h-1.03996C5.752843,2.296543,2.000123,6.204543,2.000123,10.999542c0,.008545,.001282,.016724,.001282,.02527H19.998797c0-.008545,.001282-.016724,.001282-.02527Z"/><path class="cls-1" d="M18.771084,15.524389c.772493-1.323602,1.223134-2.857541,1.227712-4.499577H2.001405c.004578,1.642036,.455219,3.175974,1.227651,4.499577h15.542029Z"/><path class="cls-4" d="M10.999948,19.999367c3.318864,0,6.210708-1.801467,7.771136-4.474979H3.229056c1.560307,2.673512,4.452029,4.474979,7.770892,4.474979Z"/></svg>