<?xml version="1.0" encoding="UTF-8"?><svg id="flags_22px" xmlns="http://www.w3.org/2000/svg" viewBox="0 0 22 22"><defs><style>.cls-1{fill:#009958;}.cls-2{fill:#f5f5f5;}.cls-3{fill:#fff;}.cls-4{fill:red;}</style></defs><path class="cls-3" d="M11.00004,22c6.075899-.001282,10.998779-4.924074,11-10.999939C21.998819,4.924135,17.075938,.001282,11.00004,0,4.924019,.001282,.00126,4.924135,.00004,11.000061c.001221,6.075865,4.923979,10.998657,11,10.999939Z"/><path class="cls-2" d="M19.49453,13.953028c.321917-.925889,.505521-1.916417,.505521-2.951991,0-1.071404-.197032-2.094404-.540435-3.047393H2.540708c-.343403,.952989-.540435,1.97599-.540435,3.047393,0,1.035574,.183604,2.026102,.505521,2.951991H19.49453Z"/><path class="cls-4" d="M11.000162,2.001199c-3.899264,0-7.209384,2.484072-8.459454,5.952446H19.459615c-1.250069-3.468374-4.56019-5.952446-8.459454-5.952446Z"/><path class="cls-1" d="M10.067127,19.952534h1.86607c3.523999-.363055,6.43627-2.762772,7.561333-5.999506H2.505794c1.125062,3.236734,4.037333,5.636451,7.561333,5.999506Z"/></svg>