<?xml version="1.0" encoding="UTF-8"?><svg id="flags_22px" xmlns="http://www.w3.org/2000/svg" viewBox="0 0 22 22"><defs><style>.cls-1{fill:#ed0014;}.cls-2{fill:#f5f5f5;}.cls-3{fill:#fff;}</style></defs><path class="cls-3" d="M11.000032,0C4.924086,.001282,.001281,4.924072,0,11c.001281,6.075867,4.924026,10.998718,11.000032,11,6.075942-.001282,10.998687-4.924133,10.999968-11C21.998719,4.924072,17.075914,.001282,11.000032,0Z"/><path class="cls-1" d="M11.000152,2.000061C6.029497,2.000061,2.000068,6.02948,2.000068,11.000122c0,4.970337,4.029429,9.000061,9.000084,9.000061,4.970351,0,8.99978-4.029724,8.99978-9.000061,0-4.970642-4.029429-9.000061-8.99978-9.000061Z"/><path class="cls-2" d="M5.819964,11.000793c0-1.656738,1.342472-2.999268,2.998847-2.999268,.885317,0,1.680058,.383301,2.228646,.993042-.664615-1.046692-1.833014-1.742981-3.165906-1.742981-2.070439,0-3.748788,1.678772-3.748788,3.749207,0,2.070068,1.678349,3.749268,3.748788,3.749268,1.332892,0,2.501291-.695435,3.165906-1.74292-.548588,.60968-1.343328,.992981-2.228646,.992981-1.656375,0-2.998847-1.342957-2.998847-2.999329Z"/><polygon class="cls-2" points="12.945592 10.319885 12.144688 9.217896 12.144688 10.580566 10.849701 11.000793 12.144688 11.421936 12.144688 12.783325 12.945592 11.681702 14.240639 12.102417 13.439735 11.000793 14.240639 9.899231 12.945592 10.319885"/></svg>