<?xml version="1.0" encoding="UTF-8"?><svg id="flags_22px" xmlns="http://www.w3.org/2000/svg" viewBox="0 0 22 22"><defs><style>.cls-1{fill:#f5f5f5;}.cls-2{fill:#fff;}.cls-3{fill:red;}</style></defs><path class="cls-2" d="M11.00004,0C4.924086,.001282,.001321,4.924094,.00004,11.000031c.001282,6.075875,4.924047,10.998688,11,10.999969,6.075953-.001282,10.998718-4.924094,11-10.999969C21.998758,4.924094,17.075993,.001282,11.00004,0Z"/><path class="cls-3" d="M16.215725,3.673798v14.651061c2.287638-1.631782,3.784165-4.301204,3.784165-7.325439s-1.496526-5.693779-3.784165-7.325622Z"/><path class="cls-3" d="M2.000251,10.99942c0,3.024235,1.496526,5.693657,3.784165,7.325439V3.673798c-2.287638,1.631843-3.784165,4.301387-3.784165,7.325622Z"/><path class="cls-1" d="M11.660347,2.032616h-1.320493c-1.692031,.123113-3.251731,.71115-4.555439,1.641182v14.651061c1.472294,1.050215,3.269371,1.674386,5.215686,1.674386s3.74333-.624171,5.215625-1.674386V3.673798c-1.303708-.930031-2.863347-1.518069-4.555378-1.641182Z"/><path class="cls-3" d="M15.559751,11.063876l-.453145-.214242c-.199777-.071841-.144049-.184456-.072452-.456562l.33461-1.222707-1.272639,.269054c-.124456,.018922-.207224-.060305-.226389-.13587l-.163154-.575769-1.00627,1.133653c-.143134,.181221-.43282,.181221-.342911-.238291l.42989-2.29575-.576381,.300489c-.1623,.090702-.323745,.1059-.414508-.056826l-.796544-1.49463-.796483,1.49463c-.090336,.162726-.252208,.147528-.414081,.056826l-.576381-.300489,.429462,2.29575c.090275,.419512-.19935,.419512-.342911,.238291l-1.00627-1.133653-.163154,.575769c-.018739,.075565-.101567,.154792-.225962,.13587l-1.272212-.269054,.334121,1.222707c.071231,.272106,.127386,.384721-.071964,.456562l-.453633,.214242,2.190283,1.790358c.086979,.067813,.130255,.189583,.099492,.299817l-.191476,.633022c.754123-.087406,1.429934-.219125,2.183996-.300305l.17817,.181465-.099919,2.319249h.366227l-.057437-2.314244,.167305-.18647c.754489,.08118,1.429934,.212899,2.184423,.300305l-.191842-.633022c-.030824-.110234,.01294-.232004,.099919-.299817l2.190222-1.790358Z"/></svg>