<?xml version="1.0" encoding="UTF-8"?><svg id="flags_22px" xmlns="http://www.w3.org/2000/svg" viewBox="0 0 22 22"><defs><style>.cls-1{fill:#f5f5f5;}.cls-2{fill:#fff;}.cls-3{fill:#ff1800;}.cls-4{fill:#009dff;}</style></defs><path class="cls-2" d="M11.00004,22c6.075818-.001282,10.998779-4.924073,11-10.999969C21.998819,4.924012,17.075858,.001282,11.00004,0,4.924221,.001282,.00126,4.924012,.00004,11.000031c.001221,6.075896,4.924059,10.998688,11,10.999969Z"/><path class="cls-4" d="M10.999918,19.999401c3.909144,0,7.226479-2.496461,8.469426-5.978482H2.53098c1.242703,3.482021,4.56016,5.978482,8.468938,5.978482Z"/><path class="cls-1" d="M2.514988,8.021441c-.327766,.933373-.515026,1.932665-.515026,2.97798,0,1.061672,.193364,2.075796,.531018,3.021499H19.469344c.33741-.945702,.530896-1.959827,.530896-3.021499,0-1.045314-.187382-2.044607-.515026-2.97798H2.514988Z"/><path class="cls-3" d="M11.425586,2.020924h-.851215c-3.73812,.175297-6.873932,2.624089-8.059383,6.000516H19.485213c-1.185573-3.376427-4.321263-5.825219-8.059627-6.000516Z"/></svg>