<?xml version="1.0" encoding="UTF-8"?><svg id="flags_22px" xmlns="http://www.w3.org/2000/svg" viewBox="0 0 22 22"><defs><style>.cls-1{fill:#0095ff;}.cls-2{fill:#f5f5f5;}.cls-3{fill:#fff;}</style></defs><path class="cls-3" d="M11.000101,22c6.075907-.001282,10.998718-4.92408,10.999939-10.999969C21.998819,4.92408,17.076007,.001282,11.000101,0,4.924072,.001282,.00126,4.92408,.00004,11.000031c.001221,6.07589,4.924032,10.998688,11.000061,10.999969Z"/><path class="cls-1" d="M3.557838,16.059244h14.884525c.419196-.615365,.755506-1.289202,1.0132-2.000943H2.544638c.257695,.711741,.594004,1.385578,1.0132,2.000943Z"/><path class="cls-1" d="M5.505014,3.883172c-.788221,.609567-1.474512,1.342548-2.023837,2.17691h2.023837V3.883172Z"/><path class="cls-1" d="M5.505014,12.059005v-4.000727H2.501912c-.319585,.922864-.501717,1.909817-.501717,2.941386,0,.359014,.026856,.711314,.067628,1.059341h3.437191Z"/><path class="cls-1" d="M11.000101,19.99985c2.106602,0,4.039862-.72938,5.573213-1.94186H5.426888c1.533351,1.21248,3.46661,1.94186,5.573213,1.94186Z"/><path class="cls-1" d="M11.547717,6.060082v-2.000882h5.181849c-1.486109-1.228227-3.375667-1.978482-5.438079-2.044706h-.582773c-1.127338,.036194-2.204504,.270695-3.190239,.684702v3.360886h4.029242Z"/><path class="cls-1" d="M11.547717,8.058278h7.950572c-.245854-.710093-.573252-1.381367-.979264-1.998197h-6.971307v1.998197Z"/><path class="cls-1" d="M11.547717,8.058278H7.518475v4.000727h12.413903c.040772-.348027,.067628-.700327,.067628-1.059341,0-.317692-.017456-.631234-.049561-.940443H11.547717v-2.000943Z"/><path class="cls-2" d="M5.505014,12.059005H2.067823c.081666,.694712,.246342,1.362263,.476815,1.999295H19.455564c.230473-.637033,.395148-1.304584,.476815-1.999295H7.518475v-4.000727h4.029242v-1.998197H7.518475V2.699195c-.726208,.304997-1.398827,.708689-2.013461,1.183976v2.17691H3.481177c-.406013,.61683-.733411,1.288104-.979264,1.998197h3.003102v4.000727Z"/><path class="cls-2" d="M11.547717,6.060082h6.971307c-.49537-.752513-1.097186-1.428731-1.789458-2.000882h-5.181849v2.000882Z"/><path class="cls-2" d="M11.547717,10.059222h8.402728c-.072267-.694773-.230961-1.362324-.452156-2.000943h-7.950572v2.000943Z"/><path class="cls-2" d="M5.426888,18.05799h11.146426c.718884-.568428,1.352195-1.239763,1.86905-1.998746H3.557838c.516854,.758983,1.150166,1.430318,1.86905,1.998746Z"/></svg>