<?xml version="1.0" encoding="UTF-8"?><svg id="flags_22px" xmlns="http://www.w3.org/2000/svg" viewBox="0 0 22 22"><defs><style>.cls-1{fill:#0037a6;}.cls-2{fill:#f5f5f5;}.cls-3{fill:#e60026;}.cls-4{fill:#fff;}</style></defs><path class="cls-4" d="M11.00003,22c6.075856-.001279,10.998629-4.924067,10.99997-10.999939C21.99866,4.924127,17.075886,.001279,11.00003,0,4.924053,.001279,.001279,4.924127,0,11.000061c.001279,6.075873,4.924114,10.99866,11.00003,10.999939Z"/><path class="cls-1" d="M9.710611,2.098922c-1.072547,.154248-2.087464,.486991-3.003021,.98446v1.719637l3.003021-2.704097Z"/><path class="cls-1" d="M2.574941,7.847779c-.003411,.009077-.00664,.018154-.009991,.027231l.030216-.027231h-.020225Z"/><path class="cls-1" d="M4.561765,4.712249c-.015717,.016083-.029729,.033689-.045324,.049893l.045324,.040877v-.09077Z"/><path class="cls-1" d="M11.000152,20.003788c4.972423,0,9.003519-4.031047,9.003519-9.003849C20.003672,6.027502,15.972575,1.996151,11.000152,1.996151c-.000548,0-.001157,.000061-.001706,.000061v1.057259l-2.326268,2.093683h2.326268v2.701599h-2.322247l2.322247,2.092587v1.055797h-1.172272l-3.117732-2.809122v2.813326h-2.144972v-2.812717l-2.540704,2.287834c-.010052,.17423-.026439,.346754-.026439,.523482,0,4.972802,4.031097,9.003849,9.003824,9.003849Z"/><path class="cls-2" d="M4.563471,11.00134h.428446v-3.69203h-.000792v-.003168H2.795042c-.079926,.177276-.151507,.358512-.220102,.541636h.020225l-.030216,.027231c-.16966,.457506-.308252,.92945-.40219,1.418634l1.605348-1.445865h.782327l-2.509026,2.259811c-.012001,.121352-.011575,.246115-.018641,.368868l2.540704-2.287834v2.812717Z"/><path class="cls-3" d="M3.768108,7.847779l-1.605348,1.445865c-.051416,.267681-.094242,.538346-.121351,.813946l2.509026-2.259811h-.782327Z"/><polygon class="cls-2" points="6.279936 7.309311 6.279936 7.801906 6.279936 11.00134 6.708443 11.00134 6.708443 8.188014 9.826175 10.997137 10.998447 10.997137 7.50338 7.848753 8.285767 7.848753 10.998447 10.294003 10.998447 9.94134 8.6762 7.848753 10.998447 7.848753 10.998447 7.309311 6.627054 7.309311 6.279936 7.309311"/><polygon class="cls-3" points="7.50338 7.848753 10.998447 10.997137 10.998447 10.294003 8.285767 7.848753 7.50338 7.848753"/><path class="cls-2" d="M6.27823,5.688668h4.720217v-.541514h-2.326268l2.326268-2.093683V1.996212c-.000244,0-.000426,.000061-.00067,.000061l-3.496103,3.148749h-.782327l3.449621-3.106897c-.154735,.014194-.305998,.038867-.458357,.060798l-3.003021,2.704097v-1.719637c-.147608,.08017-.28693,.172829-.42936,.260858v2.344428Z"/><path class="cls-3" d="M7.501674,5.145022l3.496103-3.148749c-.279803,.000061-.555524,.016814-.828808,.041852l-3.449621,3.106897h.782327Z"/><path class="cls-2" d="M4.991125,5.685561v-1.377269c-.146328,.131464-.291926,.263294-.42936,.403958v.09077l-.045324-.040877c-.119889,.124641-.236306,.252572-.348946,.383915-.148948,.173621-.288331,.354735-.423816,.539504h1.247446Z"/><path class="cls-3" d="M4.991125,7.306143v.003168h.000792v3.69203h1.288019v-3.69203h4.718511v-1.620643H6.27823V3.34424c-.458357,.283337-.888266,.605601-1.287105,.964052v1.377269h-1.247446c-.369537,.503683-.688937,1.044892-.948637,1.620582h2.196083Z"/><path class="cls-2" d="M15.27249,7.746591l.656163-.477,.656467,.477-.250927-.771851,.656102-.476939h-.811081l-.250805-.771485-.250501,.771485h-.811446l.656589,.477061-.250561,.771729Zm-.033993-1.127438h.527014l.162898-.501429,.162898,.501429h.526953l-.426375,.309593,.162716,.50082-.426192-.309471-.426253,.309471,.162716-.50082-.426375-.309593Z"/><polygon class="cls-3" points="15.502156 7.429566 15.928409 7.120095 16.354601 7.429566 16.191885 6.928746 16.61826 6.619153 16.091307 6.619153 15.928409 6.117724 15.76551 6.619153 15.238497 6.619153 15.664871 6.928746 15.502156 7.429566"/><path class="cls-2" d="M15.201275,16.122238l.727377-.528355,.727621,.528355-.278097-.854945,.726951-.528051h-.898683l-.278036-.854884-.277792,.854884h-.898987l.727377,.528173-.277731,.854823Zm-.077611-1.262497h.614798l.189947-.584706,.189947,.584706h.614738l-.497346,.361436,.190008,.584828-.497346-.361436-.497407,.361436,.190008-.584828-.497346-.361436Z"/><polygon class="cls-3" points="15.431002 15.806004 15.928409 15.444569 16.425755 15.806004 16.235747 15.221177 16.733093 14.859741 16.118355 14.859741 15.928409 14.275035 15.738462 14.859741 15.123664 14.859741 15.621009 15.221177 15.431002 15.806004"/><path class="cls-2" d="M18.075695,10.02413l.585557-.425158,.585496,.425158-.223635-.687965,.585192-.424914h-.723296l-.223757-.688269-.223757,.688269h-.723296l.585131,.424914-.223635,.687965Zm.010478-.99238h.439533l.135546-.41736,.135485,.41736h.439472l-.355586,.258482,.135607,.417604-.355038-.258116-.355038,.258116,.135607-.417604-.355586-.258482Z"/><polygon class="cls-3" points="18.306153 9.707835 18.661191 9.449719 19.016229 9.707835 18.880623 9.290232 19.236209 9.03175 18.796737 9.03175 18.661252 8.61439 18.525707 9.03175 18.086173 9.03175 18.44176 9.290232 18.306153 9.707835"/><path class="cls-2" d="M12.084274,10.954188l.656345-.476878,.656345,.476878-.250805-.771546,.656772-.477183h-.811934l-.250805-.771607-.250501,.771607h-.811385l.656528,.477-.250561,.771729Zm-.03314-1.127438h.526161l.162898-.501429,.163264,.501429h.526587l-.425948,.309289,.163142,.501063-.426618-.309776-.426618,.309776,.162838-.501246-.425705-.309106Z"/><polygon class="cls-3" points="12.314001 10.637102 12.740619 10.327326 13.167238 10.637102 13.004095 10.136039 13.430044 9.82675 12.903457 9.82675 12.740193 9.325321 12.577294 9.82675 12.051134 9.82675 12.476838 10.135856 12.314001 10.637102"/></svg>