<?xml version="1.0" encoding="UTF-8"?><svg id="flags_22px" xmlns="http://www.w3.org/2000/svg" viewBox="0 0 22 22"><defs><style>.cls-1{fill:#f5f5f5;}.cls-2{fill:#e60013;}.cls-3{fill:#fff;}</style></defs><path class="cls-3" d="M11.00004,0C4.924051,.001282,.001321,4.924133,.00004,11.000061c.001282,6.075867,4.924072,10.998657,11,10.999939,6.075867-.001282,10.998718-4.924011,11-10.999939C21.998758,4.924072,17.075967,.001282,11.00004,0Z"/><path class="cls-1" d="M11.000162,1.999939C6.02952,1.999939,2.000101,6.029358,2.000101,11c0,4.880066,3.886292,8.843323,8.731628,8.986572h.536865c4.845032-.14325,8.731689-4.106506,8.731689-8.986572C20.000284,6.029358,15.970499,1.999939,11.000162,1.999939Zm.000061,13.541687c-2.515381,0-4.554626-2.039062-4.554626-4.554443,0-2.515259,2.039246-4.55426,4.554626-4.55426,2.514587,0,4.553833,2.039001,4.553833,4.55426,0,2.515381-2.039246,4.554443-4.553833,4.554443Z"/><path class="cls-2" d="M11.000223,6.432922c-2.515381,0-4.554626,2.039001-4.554626,4.55426,0,2.515381,2.039246,4.554443,4.554626,4.554443,2.514587,0,4.553833-2.039062,4.553833-4.554443,0-2.515259-2.039246-4.55426-4.553833-4.55426Z"/></svg>