<?xml version="1.0" encoding="UTF-8"?><svg id="flags_22px" xmlns="http://www.w3.org/2000/svg" viewBox="0 0 22 22"><defs><style>.cls-1{fill:#00b174;}.cls-2{fill:#f5f5f5;}.cls-3{fill:#fff;}.cls-4{fill:#f30;}</style></defs><path class="cls-3" d="M10.999734,22c6.076096-.001343,10.998962-4.924046,11.000305-10.999786C21.998819,4.924107,17.076075,.001282,11.000223,0,4.924004,.001221,.00126,4.923924,.00004,10.999786c.001221,6.075924,4.923721,10.998749,10.999695,11.000214Z"/><path class="cls-2" d="M11.000101,2.000466c-3.909166,0-7.226885,2.496875-8.469351,5.979181l16.938702,.000366c-1.242466-3.482551-4.559941-5.979547-8.469351-5.979547Z"/><path class="cls-1" d="M19.484711,13.97952c.32789-.933612,.515395-1.933204,.515395-2.978818,0-1.061361-.193243-2.075236-.530654-3.020689l-16.938702-.000366c-.337412,.945392-.530654,1.959144-.530654,3.020444,0,1.045736,.187505,2.045389,.515395,2.979062l16.969221,.000366Z"/><path class="cls-4" d="M10.572721,19.978782h.854272c3.737408-.175724,6.872139-2.62383,8.057719-5.999262l-16.969221-.000366c1.185458,3.375676,4.320066,5.823844,8.05723,5.999628Z"/></svg>