<?xml version="1.0" encoding="UTF-8"?><svg id="flags_22px" xmlns="http://www.w3.org/2000/svg" viewBox="0 0 22 22"><defs><style>.cls-1{fill:#0000c2;}.cls-2{fill:#f5f5f5;}.cls-3{fill:#fff;}.cls-4{fill:red;}</style></defs><path class="cls-3" d="M11.000061,0C4.924133,.001282,.001282,4.924011,0,11c.001282,6.075928,4.924072,10.998718,11.000061,11,6.075867-.001282,10.998657-4.924072,10.999939-11C21.998718,4.924011,17.075867,.001282,11.000061,0Z"/><path class="cls-4" d="M11.014465,2.000793h-.014771V11.000549H2v.002014c.001343,4.963196,4.020691,8.986816,8.981812,8.996704h.036255c4.962219-.009888,8.981934-4.034912,8.981934-8.999146,0-4.965759-4.021606-8.991394-8.985535-8.999329Z"/><path class="cls-1" d="M10.999695,2.000793h-.014282c-1.666321,.002686-3.22113,.465698-4.558655,1.257629l.367859,1.372742c-.130432-.027954-.265015-.042725-.403381-.042725-.138306,0-.272888,.014771-.402771,.042725l.353516-1.321228c-.392517,.238281-.769165,.49939-1.119324,.79303l.578735,.57782c-.261841,.083862-.49823,.223145-.69751,.403625l-.189514-.701294c-.223877,.205994-.43689,.422241-.638916,.649719l.693237,.185669c-.180725,.198364-.320557,.433716-.404907,.694885l-.565857-.561707c-.274719,.340088-.520203,.703552-.743713,1.081909l1.259766-.334961c-.028076,.129761-.042908,.263794-.042908,.402039,0,.137146,.014832,.27124,.042908,.401001l-1.329895-.352661c-.749451,1.312866-1.183655,2.828735-1.184082,4.448669v.002869H10.999695V2.000793Zm-2.912964,1.577148l-.408081,1.505981c-.19928-.179993-.435669-.319275-.69751-.402649l1.105591-1.103333Zm1.240234,1.235291l-1.107727,1.100159c-.084839-.261169-.224731-.496521-.404907-.694885l1.512634-.405273Zm-2.93573,0c.936523,0,1.695496,.755615,1.695496,1.687439s-.758972,1.6875-1.695496,1.6875c-.935913,0-1.694397-.755676-1.694397-1.6875s.758484-1.687439,1.694397-1.687439Zm-1.827454,2.274231c.084351,.260681,.224182,.495972,.405518,.694397l-1.513733,.406311,1.108215-1.100708Zm.133057,2.335388l.407043-1.50647c.19928,.179932,.435669,.319275,.698059,.403687l-1.105103,1.102783Zm1.694397,.452759l-.402771-1.50592c.129883,.027405,.264465,.043213,.402771,.043213,.138367,0,.272949-.015808,.403381-.043213l-.403381,1.50592Zm.589905-1.555542c.261841-.084412,.49823-.223755,.69751-.403137l.408081,1.50592-1.105591-1.102783Zm.832642-.53772c.180725-.198914,.320618-.433716,.405457-.694885l1.107727,1.100708-1.513184-.405823Zm.455322-.880676c.027466-.129761,.043396-.263855,.043396-.401001,0-.138245-.01593-.272278-.043396-.402039l1.512085,.402039-1.512085,.401001Z"/><path class="cls-2" d="M8.086731,3.577942l-1.105591,1.103333c.261841,.083374,.49823,.222656,.69751,.402649l.408081-1.505981Z"/><path class="cls-2" d="M8.3125,6.500671c0,.137146-.01593,.27124-.043396,.401001l1.512085-.401001-1.512085-.402039c.027466,.129761,.043396,.263794,.043396,.402039Z"/><path class="cls-2" d="M6.391235,4.58844c.138367,0,.272949,.014771,.403381,.042725l-.367859-1.372742c-.028503,.016846-.056458,.034302-.084778,.051514l-.353516,1.321228c.129883-.027954,.264465-.042725,.402771-.042725Z"/><path class="cls-2" d="M7.813782,7.782349l1.513184,.405823-1.107727-1.100708c-.084839,.261169-.224731,.495972-.405457,.694885Z"/><path class="cls-2" d="M5.801392,4.680786l-.578735-.57782c-.106506,.089294-.206116,.186096-.308289,.280151l.189514,.701294c.19928-.180481,.435669-.319763,.69751-.403625Z"/><path class="cls-2" d="M4.696838,9.422852l1.105103-1.102783c-.26239-.084412-.498779-.223755-.698059-.403687l-.407043,1.50647Z"/><path class="cls-2" d="M4.968689,5.218506l-.693237-.185669c-.093628,.105469-.188843,.209045-.277527,.318848l.565857,.561707c.084351-.261169,.224182-.496521,.404907-.694885Z"/><path class="cls-2" d="M6.98114,8.320068l1.105591,1.102783-.408081-1.50592c-.19928,.179382-.435669,.318726-.69751,.403137Z"/><path class="cls-2" d="M4.563782,7.087463l-1.108215,1.100708,1.513733-.406311c-.181335-.198425-.321167-.433716-.405518-.694397Z"/><path class="cls-2" d="M8.219238,5.913391l1.107727-1.100159-1.512634,.405273c.180176,.198364,.320068,.433716,.404907,.694885Z"/><path class="cls-2" d="M4.471069,6.500671c0-.138245,.014832-.272278,.042908-.402039l-1.259766,.334961c-.022949,.038757-.047791,.076233-.070129,.115417l1.329895,.352661c-.028076-.129761-.042908-.263855-.042908-.401001Z"/><path class="cls-2" d="M5.988464,8.36969l.402771,1.50592,.403381-1.50592c-.130432,.027405-.265015,.043213-.403381,.043213-.138306,0-.272888-.015808-.402771-.043213Z"/><path class="cls-2" d="M6.391235,8.188171c.936523,0,1.695496-.755676,1.695496-1.6875s-.758972-1.687439-1.695496-1.687439c-.935913,0-1.694397,.755615-1.694397,1.687439s.758484,1.6875,1.694397,1.6875Z"/></svg>