<?xml version="1.0" encoding="UTF-8"?><svg id="flags_22px" xmlns="http://www.w3.org/2000/svg" viewBox="0 0 22 22"><defs><style>.cls-1{fill:#f5f5f5;}.cls-2{fill:#fff;}.cls-3{fill:#ffb700;}.cls-4{fill:#cc6d29;}.cls-5{fill:#41aaff;}</style></defs><path class="cls-2" d="M11.000156,22c6.075903-.001282,10.998677-4.924094,10.999958-10.999969C21.998833,4.924094,17.076059,.001282,11.000156,0,4.924131,.001282,.001357,4.924094,.000076,11.000031c.001282,6.075875,4.924055,10.998688,11.000081,10.999969Z"/><path class="cls-5" d="M11.000156,2.000449c-3.912412,0-7.232206,2.500959-8.472376,5.987737H19.472532c-1.24017-3.486778-4.559964-5.987737-8.472376-5.987737Z"/><path class="cls-5" d="M10.746238,19.987587h.507836c3.810112-.106572,7.020954-2.576279,8.227308-5.999456H2.51893c1.206355,3.423177,4.417196,5.892884,8.227308,5.999456Z"/><path class="cls-1" d="M19.481383,13.988131c.32991-.936135,.51864-1.938862,.51864-2.987856,0-1.05815-.192087-2.069056-.52749-3.012088H2.52778c-.335404,.943032-.52749,1.953939-.52749,3.012088,0,1.048994,.188729,2.051721,.51864,2.987856H19.481383Z"/><polygon class="cls-3" points="10.459787 13.413522 10.471323 13.403451 10.470835 13.403451 10.459787 13.413522"/><path class="cls-3" d="M10.672626,12.62931c.005188-.010621,.005371-.017335,.011109-.028321,.00238-.004578,.00238-.007813,.004639-.01233-.002686,.00409-.003845,.008728-.006775,.012757-.004029,.009522-.004395,.01825-.008973,.027894Z"/><path class="cls-3" d="M10.068595,12.379238c.008973-.007996,.012086-.014283,.021791-.022462,.003601-.002991,.0047-.005738,.008179-.008728-.004273,.00293-.007202,.006836-.011658,.009583-.007202,.007019-.010621,.01471-.018311,.021607Z"/><path class="cls-3" d="M9.611603,11.91468c.009644-.003296,.014039-.007263,.024171-.010498,.002075-.00061,.00293-.001648,.004944-.002258-.003906,.000732-.006958,.002808-.010926,.003418-.006775,.002625-.011231,.006775-.018189,.009339Z"/><polygon class="cls-3" points="9.343952 11.310773 9.349628 11.245951 9.34383 11.310773 9.343952 11.310773"/><path class="cls-3" d="M9.35561,10.659257c.011719,.005677,.019166,.005982,.031374,.012269,.004273,.002258,.007264,.002197,.011475,.004334-.004395-.002869-.009217-.00409-.01355-.007202-.01001-.004273-.019166-.004517-.029298-.0094Z"/><path class="cls-4" d="M8.524456,11.086643l.019532,.000732,1.10613,.041384c-.081547,.02881-.160896,.053042-.244945,.051089l-.049624-.002136v.000061l-.071475-.003357c-.286817-.000061-.465659,.161689-.547877,.184273l-.044924,.007325-.124151-.026612-.073246,.047976-.002258-.00116-.000732,.003113-.001038,.000671,.000793,.000366-.008362,.035219,.083317,.112981,.165535,.037111,.075016-.005554c.186837-.033388,.215647-.126104,.471152-.125371l.100285,.004395,.086674,.003479c.032228-.000366,.055484-.005982,.083744-.008789l-.87205,.400407-.042299,.061404-.059573,.086307,.157905,.030336,.018678,.003601,1.053882-.390458c-.075626,.067935-.150825,.128912-.250622,.157172-.315933,.098149-.430623,.347915-.503319,.404497l-.09235,.035707-.052004,.005249-.07233,.077518-.000244,.003967v.001709c.016419,.09882,.091008,.103703,.153999,.108281l.207956-.063662c.179757-.1153,.145942-.221262,.482078-.331435,.064639-.021424,.11054-.046755,.157417-.07178l-.655609,.706328-.014283,.073367-.019593,.099797,.099919-.019471,.053835-.01056,.019105-.003784,.824989-.765291c-.044069,.092045-.090336,.177437-.171883,.242076-.254223,.21174-.264966,.485677-.310622,.566186l-.06647,.065371-.041567,.021302-.050295,.07825,.005554,.02997,.101445,.06177c.077823-.001709,.168892-.049379,.250683-.156928,.122076-.174873,.049441-.259166,.31874-.490011,.051211-.044496,.083683-.085331,.117315-.126287l-.334793,.902076,.014039,.073978,.019288,.101445,.086003-.057436,.046511-.031129,.016053-.010804,.469382-1.022381c-.005249,.101811-.015137,.198373-.065921,.289197-.070865,.134588-.089726,.261302-.089543,.367691,.000305,.112615,.019471,.205331,.0188,.258434l-.000366,.017213-.033083,.080814-.055667,.099675,.021485,.054568-.000427,.000366,.000671,.000305,.000305,.000793,.000488-.000427,.068546,.02997c.099919-.009278,.175667-.096134,.220042-.250865l.013673-.117864-.003357-.116582c.000549-.079715,.010987-.172248,.09705-.340346,.030275-.061038,.04468-.111394,.06-.162299l.036257,.962626,.041262,.062014,.056826,.085575,.087712-.131353,.010743-.016175,.042543-1.125413c.028932,.081974,.053347,.161872,.051394,.246592l-.001892,.047915-.003357,.07178c-.000061,.286694,.161751,.46584,.183785,.547386l.007569,.045107-.026979,.124151,.045595,.075626,.002075,.001038,.037905,.008423,.113531-.084293,.037477-.167243-.005249-.072635c-.034364-.187447-.126837-.215829-.126165-.473103l.004273-.099308,.003601-.087955c-.000366-.031556-.005982-.054324-.008667-.082096l.400775,.872961,.062564,.042055,.085758,.057559,.030153-.156379,.003601-.018861-.390765-1.053572c.068118,.075626,.129217,.150946,.157478,.250926,.096989,.316053,.34694,.430194,.403949,.503378l.035768,.091557,.004944,.051638,.079166,.072574,.002991,.000122h.000793c.098576-.015626,.10468-.091557,.108709-.153571l-.063602-.207894c-.114935-.179878-.221324-.145392-.331375-.482015-.021546-.064456-.046877-.110112-.071903-.156928l.706576,.654812,.072513,.014954,.100163,.020692-.019105-.10059-.010499-.054873-.003723-.01941-.765233-.824375c.091984,.043947,.177315,.090153,.241832,.17176,.211802,.254771,.485984,.264598,.565944,.31056l.06586,.066592,.021485,.041628,.078312,.04999,.022401-.002991,.003418-.000916,.003296-.001099,.062381-.101994c-.001587-.077701-.049013-.169319-.156807-.250621-.17524-.121892-.260083-.049379-.490928-.318617-.044253-.051028-.084904-.083316-.125677-.116887l.902691,.334548,.074039-.014954,.101567-.02057-.058841-.085331-.031679-.0459-.010804-.015626-1.020494-.468403c.101445,.005371,.19758,.015443,.287916,.06586,.134161,.070193,.260205,.08881,.366106,.088627,.113714-.000305,.207163-.020142,.260266-.019471l.013856,.000549,.08411,.03351,.099614,.056399,.052004-.018494,.001343-.001099,.001953-.001648,.030336-.070254c-.009217-.100285-.09644-.176094-.25111-.220468l-.115179-.013367-.119329,.003357c-.079471-.000488-.172188-.011109-.339859-.096317-.060794-.030275-.110906-.044619-.16169-.06l.961348-.036256,.062564-.041078,.086247-.056704-.085758-.057314-.046511-.031129-.016297-.010865-1.125662-.04236c.081913-.029054,.161506-.05353,.245922-.051577l.048098,.002319,.073001,.003296c.286329,0,.464987-.161994,.546961-.184151l.044802-.007447,.124701,.02649,.075687-.045229,.000793-.001648,.001038-.002136,.007752-.036562-.083866-.113225-.166939-.037477-.074833,.005982c-.185678,.033632-.21461,.126226-.469931,.125494l-.100713-.004273-.087345-.003784c-.031984,.000366-.055056,.005982-.083134,.008728l.872294-.40059,.042421-.061343,.059573-.086429-.102971-.019654-.054873-.01056-.018861-.003662-1.053943,.390824c.075687-.068057,.151008-.129156,.250866-.157477,.315933-.098027,.430501-.347366,.503441-.404558l.091923-.03528,.052065-.005066,.072574-.077518,.000244-.002747v-.002869c-.01587-.098576-.09113-.104619-.153999-.108891l-.208262,.064456c-.179574,.115239-.144477,.220468-.481834,.331191-.064578,.021424-.110296,.046694-.157112,.071658l.655365-.706694,.014222-.07294,.019227-.098942-.098943,.018555-.053774,.01001-.019471,.003601-.825111,.765596c.044069-.091923,.090336-.177131,.171761-.241465,.254223-.211923,.264111-.486531,.310439-.566369l.066715-.065799,.041628-.021546,.04999-.078128-.004273-.026673-.102727-.065127c-.077823,.001648-.169197,.049379-.250622,.157416-.121893,.174995-.049441,.259471-.318618,.490377-.051394,.044558-.083988,.085514-.117681,.126592l.335221-.90348-.014222-.073184-.019715-.101201-.085575,.057375-.046389,.031129-.01587,.010621-.468772,1.020672c.005493-.101262,.015687-.197396,.066226-.287793,.070011-.134283,.088566-.260387,.088383-.366348-.000305-.113347-.019898-.206613-.019227-.259899l.00061-.013795,.033266-.08411,.055545-.099797-.021546-.055666-.0694-.030031c-.100224,.0094-.17585,.096562-.21992,.251842l-.013428,.116033,.003235,.117742c-.000488,.079776-.011109,.172615-.096318,.341079-.030702,.061343-.045473,.112126-.060916,.163276l-.036318-.963907-.04114-.062381-.057315-.086735-.087528,.133306-.010437,.015809-.042177,1.126634c-.029298-.082584-.05408-.162971-.052126-.248301l.002075-.046206,.003296-.073123c.000061-.286877-.161995-.466206-.18348-.547081l-.007813-.045534,.026674-.124395-.046633-.07587-.038942-.009095-.113592,.08411-.037416,.167121,.005677,.07355c.034242,.186958,.126654,.214975,.125982,.472249l-.004151,.100041-.003723,.087223c.000366,.031679,.005921,.054507,.008606,.08234l-.400653-.8729-.062564-.041811-.085697-.057314-.030031,.155524-.003662,.018739,.390704,1.053633c-.067752-.075565-.128546-.15058-.156379-.250132-.099187-.316603-.347855-.430743-.40517-.503683l-.035219-.091923-.005249-.051882-.078251-.072269-.002442-.000183h-.002258c-.09882,.01587-.104619,.091496-.108831,.154181l.063724,.207955c.115972,.179207,.221019,.144537,.331314,.481893,.021546,.064395,.046938,.110173,.071964,.156928l-.707003-.655606-.072879-.014283-.099675-.019471,.019349,.099736,.010621,.054385,.003662,.019105,.765233,.824619c-.091984-.043947-.177376-.090092-.241955-.171516-.21168-.25471-.485801-.265026-.566127-.310621l-.065433-.066409-.021119-.041384-.078129-.050478-.027223,.005921-.000366-.00116-.000916,.001465-.005982,.001282,.002197,.0047-.059817,.095219c.001648,.077884,.049563,.168891,.157844,.250377,.17408,.121343,.258923,.049379,.48983,.318128,.044558,.051394,.085575,.083988,.126593,.117681l-.903423-.334792-.073673,.014161-.10291,.019776,.059512,.086307,.031679,.0459,.010621,.015443,1.021348,.469197c-.101628-.005432-.198007-.015381-.288527-.065982-.134345-.070499-.260632-.089359-.366716-.089176-.113348,.000305-.206553,.019776-.259778,.019105l-.016724-.000366-.081119-.033266-.099553-.056155-.053042,.022218-.001282-.001526-.00116,.002564-.002808,.00116,.001587,.001587-.029176,.065493c.009217,.09998,.096196,.176094,.251415,.220224l.115728,.013245,.117071-.003479c.079777,.000488,.172615,.011109,.341385,.097111,.060794,.030275,.111089,.044619,.161873,.06l-.961653,.036195-.062442,.041261-.08588,.056643,.131964,.088444,.015992,.010743Zm1.935331,2.326879l.011048-.010071h.000488l-.011536,.010071Zm-1.115835-2.102749h-.000122l.005799-.064822-.005677,.064822Zm1.656143-1.230398c.500878,.000855,.907207,.406755,.908062,.90757-.000855,.501181-.407123,.906593-.908062,.907447-.500878-.000855-.90617-.406084-.907024-.907447,.000855-.500997,.406208-.906715,.907024-.90757Zm.915814,2.274081c-.00061-.003723-.002442-.006775-.003174-.010437,.001099,.003357,.002686,.004883,.003723,.008301,.002808,.008728,.006165,.012452,.009034,.020814-.002625-.00708-.006836-.011841-.009583-.018678Zm-2.280135-.450275c-.010132,.003235-.014527,.007202-.024171,.010498,.006958-.002564,.011414-.006714,.018189-.009339,.003967-.00061,.007019-.002686,.010926-.003418-.002014,.00061-.002869,.001648-.004944,.002258Zm.454611,.452595c-.009705,.008179-.012818,.014466-.021791,.022462,.007691-.006897,.011109-.014588,.018311-.021607,.004456-.002747,.007386-.006653,.011658-.009583-.003479,.002991-.004578,.005738-.008179,.008728Zm.59335,.244212c-.005738,.010987-.005921,.017701-.011109,.028321,.004578-.009644,.004944-.018372,.008973-.027894,.00293-.004028,.00409-.008667,.006775-.012757-.002258,.004517-.002258,.007752-.004639,.01233Zm1.684648-.70352c.006836,.008118,.012086,.010621,.0188,.01825-.005738-.006226-.012086-.009278-.017884-.015198-.002258-.003723-.005615-.006165-.007996-.009705,.002442,.002869,.004639,.003723,.00708,.006653Zm.244823-.592737c.012024,.006226,.019471,.006531,.031007,.012085-.010132-.004822-.019227-.005127-.029237-.0094-.004273-.003052-.008973-.004212-.013306-.007019,.004212,.002136,.007264,.002075,.011536,.004334Zm-.248791-1.232656c.007325-.002319,.010376-.005188,.017396-.007569-.005493,.002075-.009217,.005249-.014527,.007447-.002991,.000488-.005432,.002075-.008423,.002625,.002258-.000732,.003296-.001831,.005554-.002503Zm-.454611-.452472c.009461-.007996,.012574-.014222,.021363-.022035-.007508,.006836-.011109,.014344-.018128,.021302-.004334,.002625-.007141,.006531-.011292,.009339,.003418-.00293,.004517-.005677,.008057-.008606Zm-.592374-.244151c.005371-.010437,.005554-.016785,.010437-.026857-.003784,.007996-.004029,.015259-.007447,.023133-.00238,.003296-.003235,.00708-.005493,.010376,.001282-.002442,.001221-.004151,.002503-.006653Zm-1.233944,.243113c.000793,.00531,.003418,.009644,.004517,.014832-.001221-.003845-.003052-.005615-.004273-.009522-.004151-.013062-.009156-.018861-.013428-.031129,.00354,.01001,.0094,.016297,.013184,.025819Zm-.451681,.459675c-.00531-.006287-.009339-.008118-.014588-.0141,.004944,.005249,.010193,.007813,.015137,.012818,.001892,.003052,.004639,.005127,.006592,.008057-.002442-.002869-.0047-.003784-.007141-.006775Zm-.244823,.593286c-.012208-.006287-.019654-.006592-.031374-.012269,.010132,.004883,.019288,.005127,.029298,.0094,.004334,.003113,.009156,.004334,.01355,.007202-.004212-.002136-.007202-.002075-.011475-.004334Z"/><path class="cls-3" d="M9.617219,10.06414c.005249,.005982,.009278,.007813,.014588,.0141,.002442,.002991,.0047,.003906,.007141,.006775-.001953-.00293-.0047-.005005-.006592-.008057-.004944-.005005-.010193-.007569-.015137-.012818Z"/><path class="cls-3" d="M10.088005,9.633396c-.001099-.005188-.003723-.009522-.004517-.014832-.003784-.009522-.009644-.015809-.013184-.025819,.004273,.012269,.009278,.018067,.013428,.031129,.001221,.003906,.003052,.005677,.004273,.009522Z"/><path class="cls-3" d="M11.327869,9.348595c-.004883,.010071-.005066,.016419-.010437,.026857-.001282,.002503-.001221,.004212-.002503,.006653,.002258-.003296,.003113-.00708,.005493-.010376,.003418-.007874,.003662-.015137,.007447-.023133Z"/><path class="cls-3" d="M11.931168,9.597567c-.008789,.007813-.011902,.014039-.021363,.022035-.00354,.00293-.004639,.005677-.008057,.008606,.004151-.002808,.006958-.006714,.011292-.009339,.007019-.006958,.010621-.014466,.018128-.021302Z"/><path class="cls-3" d="M12.381812,10.064506c-.007019,.00238-.010071,.005249-.017396,.007569-.002258,.000671-.003296,.00177-.005554,.002503,.002991-.000549,.005432-.002136,.008423-.002625,.00531-.002197,.009034-.005371,.014527-.007447Z"/><path class="cls-3" d="M12.644214,11.316816c-.011536-.005554-.018983-.00586-.031007-.012085-.004273-.002258-.007325-.002197-.011536-.004334,.004334,.002808,.009034,.003967,.013306,.007019,.01001,.004273,.019105,.004578,.029237,.0094Z"/><path class="cls-3" d="M12.387183,11.915718c-.006714-.00763-.011963-.010132-.0188-.01825-.002442-.00293-.004639-.003784-.00708-.006653,.00238,.00354,.005738,.005982,.007996,.009705,.005799,.005921,.012147,.008973,.017884,.015198Z"/><path class="cls-3" d="M11.912735,12.34402c.000732,.003662,.002564,.006714,.003174,.010437,.002747,.006836,.006958,.011597,.009583,.018678-.002869-.008362-.006226-.012085-.009034-.020814-.001038-.003418-.002625-.004944-.003723-.008301Z"/><path class="cls-3" d="M11.000095,11.377305h-.001038l-.130865-.006836-.122381,.07648,.027101-.000977,.123785-.023805,.102361,.008973h.001038c.045412,0,.077091-.030092,.231151,.015809-.13935-.030641-.16993,.01532-.231151,.01532h-.001038c-.059756,0-.094182-.039369-.219493-.015626,.127203,.000855,.091557,.08472,.219493,.08472h.001038c.138312,0,.084477-.099675,.254345-.084415l-.123419-.07648-.130926,.006836Z"/><path class="cls-3" d="M11.000095,11.895392c.500939-.000855,.907207-.406267,.908062-.907447-.000855-.500814-.407184-.906715-.908062-.90757-.500817,.000855-.90617,.406572-.907024,.90757,.000855,.501364,.406147,.906593,.907024,.907447Zm-.206797-1.10698l-.138312-.038515c-.13819,0-.21522,.114995-.229991,.10767-.015809-.007935,.076969-.130865,.229991-.130865,.100285,0,.123541,.023194,.169991,.061709l.07703,.038515-.015809,.022706-.0929-.061221Zm.047488,.069156c-.05176,.037965-.115179,.051821-.175667,.055361l-.00586,.005799-.002991-.002991c-.070621,.002319-.136786-.013795-.177437-.050234l.171944-.091312,.190011,.083377Zm-.370439,.038576c.15406,.06116,.245861,.06116,.308181,.03058l.091801-.045961-.061221,.061221c-.07703,.04645-.207895,.053835-.338761-.045839Zm.529749,.690092l-.13819,.109746,.13819-.138739,.138312,.138739-.138312-.109746Zm0-.031068h-.001038c-.169869,0-.091862-.092899-.253247-.10822l.176217-.116094,.07703,.023744h.001038l.075992-.023744,.178353,.116094c-.161445,.01532-.085453,.10822-.254345,.10822Zm.20051-.613185l-.062198-.061221,.092839,.045961c.06116,.03058,.15406,.03058,.307082-.03058-.129767,.099675-.260632,.092289-.337723,.045839Zm-.031618-.07648l.172005-.091312,.18995,.083377c-.056277,.041323-.125799,.059329-.191049,.060183l-.000977,.000977-.000488-.000488c-.067508,.00061-.130377-.017701-.169441-.052737Zm.18464-.115605l-.13819,.038515-.091862,.061221-.015809-.022706,.07703-.038515c.04645-.038515,.069644-.061709,.168831-.061709,.154121,0,.24696,.12293,.23109,.130865-.015748,.007325-.092839-.10767-.23109-.10767Zm-.292311-.054324c.16993-.13825,.399982-.15351,.569912,.077518-.177315-.153998-.399982-.177253-.523462-.061648l-.056948,.12824c-.01587,.087528,.011597,.182014,.080204,.279064l-.03058,.01587c-.061221-.117131-.083439-.236948-.063357-.350967l.024232-.088077Zm-.056948,.538719l.096074-.061709,.046389,.043764,.045351-.046389-.029542-.043276,.055911,.068606-.069583,.068545-.055972-.029542-.083378,.022157h-.009522l-.083317-.022157-.055972,.029542-.069644-.068545,.055911-.068606-.03058,.043276,.04645,.046389,.046389-.043764,.095036,.061709Zm-.056948-.538719l.024232,.088077c.02002,.114018-.001099,.233835-.06232,.350967l-.031618-.01587c.069705-.09705,.09705-.191536,.081242-.279064l-.056948-.12824c-.12348-.115605-.346146-.09235-.523462,.061648,.168831-.231028,.399982-.215768,.568874-.077518Z"/><polygon class="cls-3" points="10.648822 10.79061 10.509411 10.865503 10.601212 10.860254 10.590652 10.849634 10.648822 10.79061"/><polygon class="cls-3" points="10.725363 10.853174 10.786951 10.849634 10.684346 10.805076 10.728903 10.849634 10.725363 10.853174"/><polygon class="cls-3" points="11.40435 10.853784 11.477107 10.849634 11.355947 10.797019 11.408561 10.849634 11.40435 10.853784"/><polygon class="cls-3" points="11.315784 10.803123 11.200605 10.865503 11.280626 10.860926 11.269273 10.849634 11.315784 10.803123"/><path class="cls-4" d="M11.353627,10.726704c-.099187,0-.122381,.023194-.168831,.061709l-.07703,.038515,.015809,.022706,.091862-.061221,.13819-.038515c.138251,0,.215342,.114995,.23109,.10767,.01587-.007935-.076969-.130865-.23109-.130865Z"/><path class="cls-4" d="M11.131022,11.118749c-.068607-.09705-.096074-.191536-.080204-.279064l.056948-.12824c.12348-.115605,.346146-.09235,.523462,.061648-.16993-.231028-.399982-.215768-.569912-.077518l-.024232,.088077c-.020081,.114018,.002136,.233835,.063357,.350967l.03058-.01587Z"/><path class="cls-4" d="M11.338917,10.918728l.000977-.000977c.06525-.000855,.134772-.018861,.191049-.060183l-.18995-.083377-.172005,.091312c.039064,.035036,.101933,.053347,.169441,.052737l.000488,.000488Zm.13819-.069095l-.072757,.004151,.004212-.004151-.052615-.052614,.12116,.052614Zm-.276502,.01587l.115179-.062381-.046511,.046511,.011353,.011292-.080021,.004578Z"/><path class="cls-4" d="M11.231246,10.926724l-.092839-.045961,.062198,.061221c.077091,.04645,.207956,.053835,.337723-.045839-.153022,.06116-.245922,.06116-.307082,.03058Z"/><polygon class="cls-4" points="10.862943 11.216348 10.816493 11.169959 10.847073 11.126684 10.791162 11.19529 10.860806 11.263835 10.916778 11.234293 11.000095 11.25645 11.009617 11.25645 11.092995 11.234293 11.148967 11.263835 11.21855 11.19529 11.162639 11.126684 11.192182 11.169959 11.14683 11.216348 11.100442 11.172584 11.004368 11.234293 10.909332 11.172584 10.862943 11.216348"/><polygon class="cls-4" points="11.000095 11.354598 10.999057 11.354598 10.922028 11.330855 10.745811 11.446949 10.868192 11.370468 10.999057 11.377305 11.000095 11.377305 11.131022 11.370468 11.25444 11.446949 11.076087 11.330855 11.000095 11.354598"/><path class="cls-4" d="M10.999057,11.531364c-.127936,0-.092289-.083866-.219493-.08472,.125311-.023744,.159736,.015626,.219493,.015626h.001038c.061221,0,.091801-.045961,.231151-.01532-.15406-.0459-.185739-.015809-.231151-.015809h-.001038l-.102361-.008973-.123785,.023805-.027101,.000977c.161384,.01532,.083378,.10822,.253247,.10822h.001038c.168892,0,.0929-.092899,.254345-.10822-.169869-.015259-.116033,.084415-.254345,.084415h-.001038Z"/><polygon class="cls-4" points="10.861905 11.695982 11.000095 11.586237 11.138407 11.695982 11.000095 11.557244 10.861905 11.695982"/><path class="cls-4" d="M10.902007,10.711444l.056948,.12824c.015809,.087528-.011536,.182014-.081242,.279064l.031618,.01587c.061221-.117131,.08234-.236948,.06232-.350967l-.024232-.088077c-.168892-.13825-.400043-.15351-.568874,.077518,.177315-.153998,.399982-.177253,.523462-.061648Z"/><path class="cls-4" d="M10.902007,10.826928l-.07703-.038515c-.04645-.038515-.069705-.061709-.169991-.061709-.153022,0-.2458,.12293-.229991,.130865,.014771,.007325,.091801-.10767,.229991-.10767l.138312,.038515,.0929,.061221,.015809-.022706Z"/><path class="cls-4" d="M10.478831,10.865503c.040651,.03644,.106816,.052553,.177437,.050234l.002991,.002991,.00586-.005799c.060489-.00354,.123907-.017396,.175667-.055361l-.190011-.083377-.171944,.091312Zm.03058,0l.139411-.074893-.058169,.059023,.01056,.010621-.091801,.005249Zm.27754-.01587l-.061587,.00354,.00354-.00354-.044558-.044558,.102605,.044558Z"/><path class="cls-4" d="M10.870328,10.880763l-.091801,.045961c-.06232,.03058-.154121,.03058-.308181-.03058,.130865,.099675,.261731,.092289,.338761,.045839l.061221-.061221Z"/></svg>