<?xml version="1.0" encoding="UTF-8"?><svg id="flags_22px" xmlns="http://www.w3.org/2000/svg" viewBox="0 0 22 22"><defs><style>.cls-1{fill:#f5f5f5;}.cls-2{fill:#fff;}.cls-3{fill:#f2a73d;}.cls-4{fill:#78a500;}</style></defs><path class="cls-2" d="M11.00004,0C4.924044,.001282,.00126,4.924052,.00004,11.000031c.001221,6.075917,4.924005,10.998688,11,10.999969,6.075873-.001282,10.998779-4.924052,11-10.999969C21.998819,4.924052,17.075913,.001282,11.00004,0Z"/><path class="cls-1" d="M18.007564,5.432662l-.020874,.208071-.292606,.020874-.041749,.250673-.062623,.104554-.082643,.04126h-.208987l-.084474,.125428-.208132,.145753-.145265,.188051-.292484-.020874-.187136,.250307-.126344-.020935-.18799,.312991-.145387,.188051-.083497,.124879-.146364,.041748-.041749,.166688-.58509,.146302-.123414,.146241s-.355229,.70954,.020874,.959786c.375126,.250307,.396,.521428,.396,.521428l.187136,.125367,.146242,.250246,.062745,.292544-.146364,.020447-.228884-.041321-.167116-.14673-.31348-.020447c-.066407,.083131-.249759,.240786-.249759,.39606,0,.117311-.070313,.041809-.417851-.166627l-.228884-.062256-.020996-.104981-.146242,.083619-.125368,.083619c-.096925-.048035-.158571-.041382-.312381-.041382,0,0-.3335,.250246-.292606,1.063791l-.375126,.062684-.292606,.271181h-.270633l-.146364,.125367-.271609,.104005-.125368,.167177-.333378,.020386-.146242,.104981-.062623,.145753-.229861-.145753-.312503-.083619c-.218508,.051331-.31348,.05365-.438848,.145814-.128175,.097352-.458745,.085938-.458745,.229372l-.041749,.229372v.31293c-.024781,.015259-.00293,.290164-.416997,.188051-.060792-.015198-.079713-.103516-.062623-.438297l-.3335-.312991-.208865-.08307-.229006,.020874-.396977,.250246s.041871,.145814-.103517,.041809c-.428349-.304873-.602057-.276369-.688606-.31293l-.188967-.229433-.478643-.020813-.417973-.480107-.124391-.125428-.021851-.375613-.271609-.041321v-.208498l-.103639-.208986,.041871-.375552-.250735-.104554-.104493-.354251-.083619-.54279s.167238,.438358,.355229,.438358c.188112,0,.688606,.04126,.688606,.04126,0,0,.250735-.04126,.333378-.270632,.083619-.229921,.31348-1.189646,1.460832-.605535,1.147352,.5846,1.210096-1.001534,1.210096-1.001534l-.187136-.271181,.041749-.521428s.625007,.438358,1.021007,.416935c.396977-.020386,.689583,.125367,.81495,.125367,.124391,0,.522345,.125428,.522345,.125428l1.021007,.04126s.167238-.145753,.334354-.124879c.16614,.020874,.16614-.104493,.47962-.104493s.625984-.395999,.625984-.395999c0,0,.083497-.083619,.542242,0,0,0,.31348-.250307,.772225-.396549,.458745-.146302,.396123-.333865,.396123-.333865,0,0,.334232-.062745,.47962-.041809,.146242,.020935,.230715-.250307,.230715-.250307l.353397-.041748,.147218-.208925,.354252-.062256s.417851-.292544,.47962-.480107c.014282-.042603,.0542-.063904,.100953-.077759-1.648944-1.861466-4.050094-3.041285-6.732497-3.041285C6.029526,2.0002,2.000062,6.029652,2.000062,11.000031c0,4.924968,3.957075,8.920118,8.864356,8.9933h.270999c4.907525-.073182,8.864722-4.068332,8.864722-8.9933,0-2.104021-.727669-4.034885-1.937522-5.567368h-.055054Z"/><path class="cls-3" d="M17.151841,5.599351l-.354252,.062256-.147218,.208925-.353397,.041748s-.084474,.271242-.230715,.250307c-.145387-.020935-.47962,.041809-.47962,.041809,0,0,.062623,.187563-.396123,.333865-.458745,.146241-.772225,.396549-.772225,.396549-.458745-.083619-.542242,0-.542242,0,0,0-.312503,.395999-.625984,.395999s-.31348,.125367-.47962,.104493c-.167116-.020874-.334354,.124879-.334354,.124879l-1.021007-.04126s-.397954-.125428-.522345-.125428c-.125368,0-.417973-.145753-.81495-.125367-.396,.021424-1.021007-.416935-1.021007-.416935l-.041749,.521428,.187136,.271181s-.062745,1.586134-1.210096,1.001534c-1.147352-.584111-1.377213,.375613-1.460832,.605535-.082643,.229372-.333378,.270632-.333378,.270632,0,0-.500494-.04126-.688606-.04126-.18799,0-.355229-.438358-.355229-.438358l.083619,.54279,.104493,.354251,.250735,.104554-.041871,.375552,.103639,.208986v.208498l.271609,.041321,.021851,.375613,.124391,.125428,.417973,.480107,.478643,.020813,.188967,.229433c.086549,.03656,.260257,.008057,.688606,.31293,.145387,.104005,.103517-.041809,.103517-.041809l.396977-.250246,.229006-.020874,.208865,.08307,.3335,.312991c-.01709,.334781,.001831,.423099,.062623,.438297,.414067,.102113,.392216-.172792,.416997-.188051v-.31293l.041749-.229372c0-.143434,.33057-.13202,.458745-.229372,.125368-.092164,.220339-.094483,.438848-.145814l.312503,.083619,.229861,.145753,.062623-.145753,.146242-.104981,.333378-.020386,.125368-.167177,.271609-.104005,.146364-.125367h.270633l.292606-.271181,.375126-.062684c-.040894-.813544,.292606-1.063791,.292606-1.063791,.15381,0,.215456-.006653,.312381,.041382l.125368-.083619,.146242-.083619,.020996,.104981,.228884,.062256c.347538,.208437,.417851,.283938,.417851,.166627,0-.155275,.183352-.31293,.249759-.39606l.31348,.020447,.167116,.14673,.228884,.041321,.146364-.020447-.062745-.292544-.146242-.250246-.187136-.125367s-.020874-.27112-.396-.521428c-.376103-.250246-.020874-.959786-.020874-.959786l.123414-.146241,.58509-.146302,.041749-.166688,.146364-.041748,.083497-.124879,.145387-.188051,.18799-.312991,.126344,.020935,.187136-.250307,.292484,.020874,.145265-.188051,.208132-.145753,.084474-.125428h.208987l.082643-.04126,.062623-.104554,.041749-.250673,.292606-.020874,.020874-.208071h.055054c-.105958-.134217-.216921-.263369-.330204-.391178-.046753,.013855-.086671,.035157-.100953,.077759-.061768,.187563-.47962,.480107-.47962,.480107Z"/><path class="cls-4" d="M15.97031,13.406178c.022827-.024719,.46253-.283022,.44544-.84864l-.000977-.0271c-.192751,.150087-.43311,.284976-.583136,.743231-.03711,.095399,.045533,.17383,.138673,.132508Z"/><path class="cls-4" d="M14.931236,14.249081c-.072144,.122987,.050294,.217043,.15381,.149598,.551886-.247439,.60218-.766486,.612678-.791144-.099733,.04889-.286868,.092103-.53089,.335757l-.235598,.305789Z"/><path class="cls-4" d="M13.853221,15.23499c.63343-.066041,.850107-.65296,.870005-.677191-.274539,.06598-.588874,.109681-.926036,.465336-.016113,.014282-.047486,.211855,.056031,.211855Z"/><path class="cls-4" d="M12.349664,15.573555c-.093019,.080262-.042725,.208071,.08838,.208071h.008545c.677132,.053101,.988658-.454044,1.013439-.465458l-.026612-.003296c-.459722-.050843-.94691,.137208-1.083752,.260683Z"/><path class="cls-4" d="M15.90671,13.791314c.505255-.040406,.711312-.510991,.73597-.529057-.024658,.004761-.246951,.003296-.522345,.162416-.202273,.117311-.437871,.303469-.213625,.366641Z"/><path class="cls-4" d="M14.942588,14.812318c.574713,.036072,.88148-.409854,.905161-.421695l-.028443-.002869c-.851084-.092591-1.267104,.521916-.876719,.424564Z"/><path class="cls-4" d="M13.53498,15.45008c-.118654,.057984-.07776,.201845,.038941,.215639,.136842,.043213,.275516,.057007,.418828,.047913,.413213-.027039,.664924-.253115,.689583-.266848l-.027588-.009461c-.387455-.134889-.913706-.087891-1.119763,.012756Z"/><path class="cls-4" d="M12.0866,15.900767c-.162477,.008118-.189944,.138673-.108278,.213686,.169924,.125856,.439702,.221804,.731331,.221804,.332401,0,.549933-.116822,.573615-.124452l-.024658-.015625c-.36475-.233706-.747445-.295413-1.17201-.295413Z"/><path class="cls-4" d="M13.08954,15.822886c-.011353,.085511,.098756,.137269,.191897,.141542,.159548,.009033,.275394-.098328,.196535-.186647-.094972-.106385-.370365-.084046-.388432,.045105Z"/><path class="cls-4" d="M14.708943,15.199345c.114992,0,.253665-.078309,.237551-.169984l-.213747-.076966c-.2251,.047486-.230838,.24695-.023804,.24695Z"/><path class="cls-4" d="M15.758515,14.198299c.130983,0,.268802-.122987,.231692-.212282l-.213625-.027588c-.17383,.080811-.168093,.23987-.018067,.23987Z"/><path class="cls-4" d="M15.759492,13.163012c.053101-.291079-.062745-.481083-.069459-.505314-.011353,.024231-.258304,.283083-.215579,.741339l.08838,.11255c.10254,0,.178591-.248354,.196657-.348575Z"/><path class="cls-4" d="M14.898887,14.089534c.12256-.29822,.038941-.548528,.03711-.574162-.018067,.024231-.385624,.304446-.414189,.813056l.178591,.063172c.084596-.088807,.150148-.185732,.198489-.302066Z"/><path class="cls-4" d="M13.450506,15.146671c.512945-.316836,.463506-.850532,.469121-.875251-.023682,.016663-.242068,.100221-.457769,.394168-.103517,.141542-.186159,.329593-.195681,.363284l.027588,.123963,.15674-.006165Z"/><path class="cls-4" d="M12.040945,15.567879c.64112-.195192,.722908-.78266,.735238-.806891-.375248,.13733-.557623,.189516-.90333,.640691-.063599,.121095,.061768,.226076,.168093,.1662Z"/><path class="cls-4" d="M13.087709,15.138554c.095948-.10492,.08252-.251162-.032349-.251162-.135744,0-.267825,.207521-.186159,.296816l.218508-.045655Z"/><path class="cls-4" d="M14.356644,14.430967c.06543-.123963,.014282-.227907-.064698-.227907-.130983,0-.235476,.253603-.124391,.322879l.189089-.094971Z"/><path class="cls-4" d="M15.214198,13.710563c.135866,0,.200442-.29114,.065552-.331485-.158571-.048401-.230715,.331485-.065552,.331485Z"/><path class="cls-4" d="M11.180462,16.264112c.114015,.091615,.216555,.191347,.299198,.296267,.127321-.00708,.254519-.018921,.38184-.033203-.132936-.134889-.304935-.264529-.494879-.382755-.024658,.01471-.061646,.028504-.186159,.119691Z"/><path class="cls-4" d="M12.15496,15.651497c-.053223,.013733-.468267,.049805-1.041882,.349063l.000977,.211733c.480596-.358523,1.030529-.403629,1.067517-.417423l-.026612-.143373Z"/><path class="cls-4" d="M6.288195,13.453664l.079713-.160036c-.161501-.470646-.463506-.622625-.581305-.724188,.00293,.024658-.03125,.290103,.165285,.585027,.044678,.066468,.244143,.299197,.336307,.299197Z"/><path class="cls-4" d="M7.17236,14.445738c.098756,.028015,.171022-.080262,.109254-.168153-.003784-.005188-.494879-.502934-.771249-.636358,.012329,.024231,.094117,.608342,.661995,.804511Z"/><path class="cls-4" d="M7.518067,14.587707l-.026612-.003296c.014282,.024231,.101686,.310061,.442632,.517094,.17383,.106873,.289676,.12256,.431157,.153871,.368656,0-.172731-.581243-.847177-.667669Z"/><path class="cls-4" d="M8.776626,15.35462c.397832,.534733,1.027599,.428898,1.052258,.431705,.111207-.031311,.126344-.158571,.018067-.221254-.468267-.252199-.645881-.23987-1.08656-.231813l.016236,.021362Z"/><path class="cls-4" d="M6.302356,13.82647l.082643-.049927-.031372-.114381c-.353275-.294985-.427373-.29114-.79017-.359988,.020874,.02417,.204226,.440189,.698128,.518559l.040772,.005737Z"/><path class="cls-4" d="M7.397461,14.762452l-.062745-.117738c-.48438-.262148-.634406-.222292-.968761-.219423,.023804,.016602,.394169,.492436,.944102,.414127l.087403-.076966Z"/><path class="cls-4" d="M8.639784,15.453437c-.574591-.176637-1.001964,.001404-1.100842,.019959,.024781,.013245,.271732,.23694,.691536,.26166,.179445,.011353,.35706-.022278,.466314-.067444,.040894-.022827,.073121-.204225-.057007-.214174Z"/><path class="cls-4" d="M8.943742,16.227979l.026612,.011414c.597419,.257387,1.396134-.019043,1.315444-.244631l-.158571-.085877c-.711434-.027588-1.159803,.308657-1.183485,.319094Z"/><path class="cls-4" d="M9.134663,15.837595c-.01709-.126771-.29346-.150026-.389409-.042237-.166262,.196108,.419804,.270205,.389409,.042237Z"/><path class="cls-4" d="M7.48584,14.979007c-.297367-.064148-.278323,.24695,.022705,.24695,.083619,0,.201418-.20038-.022705-.24695Z"/><path class="cls-4" d="M6.434315,13.99267c-.30579-.133485-.280154,.239809,.019043,.239809,.054078,0,.155763-.160524-.019043-.239809Z"/><path class="cls-4" d="M6.733635,13.433645c.033203-.474308-.209963-.717963-.221316-.742682-.007691,.024719-.121583,.217531-.066529,.50623,.079713,.414615,.287845,.405094,.287845,.236452Z"/><path class="cls-4" d="M7.686282,14.311276c-.074098-.52802-.396123-.74317-.414189-.767401-.001953,.024231-.086427,.26874,.041749,.573674,.188112,.45496,.414189,.369937,.372441,.193727Z"/><path class="cls-4" d="M8.854508,15.196477c.093995,0,.131959-.110108,.083497-.184694-.2251-.549443-.620124-.69953-.644905-.719427,.003784,.024597-.027466,.312442,.189944,.610662,.056031,.074097,.278323,.293459,.371464,.293459Z"/><path class="cls-4" d="M10.341829,15.396918c-.035157-.05365-.157717-.205141-.311527-.331485-.292606-.237001-.51856-.265932-.590827-.291567l.005737,.023255c.148195,.666265,1.021984,1.035714,.896616,.599797Z"/><path class="cls-4" d="M9.350241,15.196965c.080811-.089783-.050294-.295352-.188112-.295352-.109132,0-.133913,.142457-.029419,.251711l.217532,.04364Z"/><path class="cls-4" d="M8.048103,14.548766c.129152-.083619-.037964-.387515-.170046-.31061-.143434,.081727,.037964,.397953,.170046,.31061Z"/><path class="cls-4" d="M7.021358,13.736198c.138673-.050843,.043702-.369937-.093995-.326236-.150148,.044617-.052247,.374149,.093995,.326236Z"/><path class="cls-4" d="M10.371248,16.532852c.126344,.013794,.253543,.023743,.379887,.030396,.097901-.125367,.219485-.244997,.362919-.349978l-.000977-.210817c-.24512,.125367-.542364,.324344-.74183,.5304Z"/><path class="cls-4" d="M10.148101,15.672799l-.076905-.013245-.025757,.143861,.078004,.013306v.00238c.287723,.046997,.52796,.127748,.735116,.236452l.167116-.095399c-.269778-.130616-.561286-.233156-.87855-.284976l.000977-.00238Z"/></svg>