<?xml version="1.0" encoding="UTF-8"?><svg id="flags_22px" xmlns="http://www.w3.org/2000/svg" viewBox="0 0 22 22"><defs><style>.cls-1{fill:#002dc2;}.cls-2{fill:#008c47;}.cls-3{fill:#f5f5f5;}.cls-4{fill:#fff;}.cls-5{fill:#ffbf00;}.cls-6{fill:#e00000;}</style></defs><path class="cls-4" d="M11.000031,0C4.924086,.001282,.001282,4.924072,0,11c.001282,6.075867,4.924025,10.998718,11.000031,11,6.075884-.001282,10.998688-4.924072,10.999969-11C21.998718,4.924011,17.075853,.001282,11.000031,0Z"/><path class="cls-3" d="M19.818475,9.194885c-.083985-.412415-.20514-.81012-.343446-1.199951h-4.865187L7.021687,2.936218c-.401063,.198303-.787234,.420776-1.151798,.674316l8.376976,5.584351h5.57161Z"/><path class="cls-3" d="M5.862321,18.383972c.364015,.253784,.749453,.476868,1.150028,.675476l7.597494-5.065002h4.869093c.137696-.389709,.257691-.787598,.341126-1.19989h-5.573197l-8.384545,5.589417Z"/><path d="M2.789986,7.325439c-.50348,1.122986-.789858,2.364319-.789858,3.674683,0,1.307068,.284791,2.545654,.785952,3.666504l5.507706-3.671875L2.789986,7.325439Z"/><path class="cls-5" d="M3.358408,6.262329c-.211609,.340515-.403016,.694214-.568422,1.06311l5.503799,3.669312-5.507706,3.671875c.16504,.36908,.356507,.722778,.567751,1.063538l7.102864-4.735413L3.358408,6.262329Z"/><path class="cls-6" d="M19.47503,7.994934c-1.238224-3.490479-4.56001-5.994873-8.475121-5.994873-1.43018,0-2.777412,.342468-3.978221,.936157l7.588156,5.058716h4.865187Z"/><path class="cls-1" d="M7.012349,19.059448c1.168216,.579285,2.476447,.915649,3.864207,.934509h.246705c3.865062-.05249,7.133565-2.540527,8.355675-5.999512h-4.869093l-7.597494,5.065002Z"/><path class="cls-2" d="M14.246866,9.194885L5.869889,3.610535c-1.008609,.70166-1.861638,1.606018-2.511482,2.651794l7.098286,4.732422L3.35383,15.730164c.648683,1.046326,1.500798,1.951233,2.508491,2.653809l8.384545-5.589417h5.573197c.117371-.579956,.179932-1.179871,.179932-1.794434,0-.618347-.062744-1.221985-.181519-1.805237h-5.57161Z"/></svg>