<?xml version="1.0" encoding="UTF-8"?><svg id="flags_22px" xmlns="http://www.w3.org/2000/svg" viewBox="0 0 22 22"><defs><style>.cls-1{fill:#f5f5f5;}.cls-2{fill:#fff;}.cls-3{fill:#151513;}.cls-4{fill:#4ea2ff;}</style></defs><path class="cls-2" d="M11.000101,0C4.924072,.001282,.00126,4.92408,.00004,11.000031c.001221,6.07589,4.924032,10.998688,11.000061,10.999969,6.075907-.001282,10.998718-4.92408,10.999939-10.999969C21.998819,4.92408,17.076007,.001282,11.000101,0Z"/><path class="cls-4" d="M11.280501,2.013944h-.561044c-3.798769,.117372-6.998285,2.583715-8.201308,5.999534H19.482053c-1.203023-3.415819-4.402539-5.882162-8.201553-5.999534Z"/><path class="cls-3" d="M2.518148,8.013478c-.329595,.935682-.518075,1.937771-.518075,2.986186,0,1.058547,.192264,2.069853,.527963,3.013225H19.472166c.335699-.943372,.527963-1.954678,.527963-3.013225,0-1.048415-.18848-2.050505-.518075-2.986186H2.518148Z"/><path class="cls-1" d="M10.999979,19.99985c3.912052,0,7.231688-2.500584,8.472187-5.98696H2.528036c1.240499,3.486376,4.560012,5.98696,8.471943,5.98696Z"/></svg>