<?xml version="1.0" encoding="UTF-8"?><svg id="flags_22px" xmlns="http://www.w3.org/2000/svg" viewBox="0 0 22 22"><defs><style>.cls-1{fill:#f5f5f5;}.cls-2{fill:#fff;}.cls-3{fill:#ff0005;}</style></defs><path class="cls-2" d="M11.000101,22c6.07573-.001282,10.998718-4.924026,10.999939-10.999939C21.998819,4.924087,17.075953,.001282,11.000101,0,4.924004,.001282,.00126,4.924148,.00004,11.000061c.001221,6.075852,4.924087,10.998657,11.000061,10.999939Z"/><path class="cls-3" d="M19.900372,9.731349c-.618303-4.367919-4.361815-7.730805-8.900271-7.730805-.440198,0-.869653,.042299-1.292883,.103335v7.62747h10.193154Z"/><path class="cls-3" d="M2.09165,12.215549c.418347,3.091883,2.401922,5.680089,5.131368,6.94581v-6.94581H2.09165Z"/><path class="cls-3" d="M9.707218,19.897219c.246955,.035584,.49684,.060793,.749899,.07593h1.085968c4.309202-.257759,7.794894-3.540076,8.365589-7.7576H9.707218v7.681671Z"/><path class="cls-3" d="M7.223018,2.839739c-2.713576,1.258275-4.688851,3.823653-5.123067,6.89161H7.223018V2.839739Z"/><path class="cls-1" d="M7.223018,12.215549v6.94581c.775046,.359385,1.608565,.609514,2.4842,.73586v-7.681671h10.201455c.053835-.398388,.091433-.801841,.091433-1.215,0-.431958-.040895-.853478-.099734-1.2692H9.707218V2.103879c-.875635,.126346-1.709154,.376475-2.4842,.73586v6.89161H2.099951c-.05884,.415722-.099734,.837242-.099734,1.2692,0,.413158,.037477,.816612,.091433,1.215H7.223018Z"/></svg>