<?xml version="1.0" encoding="UTF-8"?><svg id="flags_22px" xmlns="http://www.w3.org/2000/svg" viewBox="0 0 22 22"><defs><style>.cls-1{fill:#f5f5f5;}.cls-2{fill:#fff;}.cls-3{fill:#a6004f;}</style></defs><path class="cls-2" d="M11.000031,22c6.075945-.001282,10.998688-4.924147,10.999969-11.000031C21.998718,4.924025,17.075914,.001282,11.000031,0,4.924086,.001282,.001282,4.924025,0,10.999969c.001282,6.075884,4.924025,10.998749,11.000031,11.000031Z"/><path class="cls-1" d="M8.618859,19.67138l1.453984-.674135-2.15766-.999453,2.15766-1.000369-2.15766-.999453,2.15766-.999881-2.15766-.999881,2.15766-.999942-2.15766-.999942,2.15766-.999942-2.15766-.999881,2.15766-1.00043-2.15766-.999392,2.15766-1.00043-2.15766-.999392,2.15766-1.000491-2.15766-.999942,2.15766-.999881-1.44904-.671144C4.808302,3.370981,2.000189,6.85329,2.000189,11.000031c0,4.14497,2.805672,7.62612,6.618671,8.67135Z"/><path class="cls-3" d="M7.915183,3.998424l2.15766,.999942-2.15766,1.000491,2.15766,.999392-2.15766,1.00043,2.15766,.999392-2.15766,1.00043,2.15766,.999881-2.15766,.999942,2.15766,.999942-2.15766,.999942,2.15766,.999881-2.15766,.999881,2.15766,.999453-2.15766,1.000369,2.15766,.999453-1.453984,.674135c.744509,.204102,1.524418,.321961,2.332709,.326295h.09668c4.948195-.026367,8.951746-4.043346,8.951746-8.997645C19.999994,6.029375,15.970625,1.999945,10.999908,1.999945c-.823855,0-1.618046,.120118-2.376105,.327455l1.44904,.671144-2.15766,.999881Z"/></svg>