<?xml version="1.0" encoding="UTF-8"?><svg id="flags_22px" xmlns="http://www.w3.org/2000/svg" viewBox="0 0 22 22"><defs><style>.cls-1{fill:#0040ab;}.cls-2{fill:#f5f5f5;}.cls-3{fill:#fff;}.cls-4{fill:#ff0006;}</style></defs><path class="cls-3" d="M11.00007,0C4.924126,.001282,.001321,4.924025,.00004,10.999969c.001282,6.075884,4.924025,10.998749,11.000031,11.000031,6.075945-.001282,10.998688-4.924147,10.999969-11.000031C21.998758,4.924025,17.075954,.001282,11.00007,0Z"/><path class="cls-2" d="M11.010934,2.000494h-.021729c-4.965651,.005981-8.989222,4.032543-8.989222,8.999537,0,4.966567,4.023021,8.992884,8.988001,8.999476h.02417c4.96498-.006592,8.988001-4.032909,8.988001-8.999476,0-4.966994-4.023571-8.993555-8.989222-8.999537Z"/><rect x="4.316697" y="7.369222" width="3.299915" height=".550326" transform="translate(-3.703529 8.369046) rotate(-56.312578)"/><rect x="3.630473" y="6.911656" width="3.299771" height=".55008" transform="translate(-3.628537 7.589644) rotate(-56.283475)"/><rect x="5.003073" y="7.826725" width="3.300093" height=".550207" transform="translate(-3.778449 9.143954) rotate(-56.312578)"/><rect x="16.460102" y="13.794777" width="1.512344" height=".549928" transform="translate(-4.043337 20.580243) rotate(-56.283475)"/><rect x="14.095687" y="14.366875" width="1.512522" height=".54981" transform="translate(-5.568368 18.881206) rotate(-56.320191)"/><rect x="15.468533" y="15.282088" width="1.512505" height=".549894" transform="translate(-5.717692 20.43481) rotate(-56.329327)"/><rect x="14.782218" y="14.824778" width="1.51242" height=".549716" transform="translate(-5.644449 19.652382) rotate(-56.309291)"/><rect x="15.773597" y="13.33734" width="1.512395" height=".549699" transform="translate(-3.965694 19.813863) rotate(-56.306403)"/><rect x="15.087156" y="12.879954" width="1.512378" height=".549674" transform="translate(-3.890475 19.040065) rotate(-56.309291)"/><path class="cls-4" d="M12.830825,8.254295c-1.516484-1.010745-3.56544-.60132-4.576185,.915591-.505372,.758059-.300233,1.782293,.457399,2.287665,.758425,.505372,1.78272,.300721,2.28852-.457399,.505372-.758364,1.52924-.963076,2.287665-.457765,.758486,.5058,.963198,1.529667,.457399,2.288153,1.011538-1.516117,.60132-3.565501-.914797-4.576246Z"/><path class="cls-1" d="M13.288223,10.542388c-.758425-.505311-1.782293-.300599-2.287665,.457765-.5058,.75812-1.530095,.962771-2.28852,.457399-.757631-.505372-.962771-1.529606-.457399-2.287665-1.010745,1.516056-.60132,3.565012,.91553,4.575757,1.516179,1.011172,3.564707,.601381,4.575452-.915103,.5058-.758486,.301087-1.782354-.457399-2.288153Z"/><rect x="15.568508" y="8.089386" width=".549674" height="1.512378" transform="translate(-2.245741 10.274121) rotate(-33.690709)"/><rect x="15.949754" y="5.686896" width=".550063" height="1.512505" transform="translate(-.849149 10.081634) rotate(-33.688785)"/><rect x="16.941301" y="7.174059" width=".549945" height="1.51237" transform="translate(-1.507572 10.880914) rotate(-33.687502)"/><rect x="14.577027" y="6.601929" width=".549843" height="1.512522" transform="translate(-1.587256 9.473817) rotate(-33.688785)"/><polygon points="15.751121 7.715476 16.720606 9.169886 17.177944 8.864527 16.339257 7.606527 16.339013 7.606161 15.347616 6.119097 14.890279 6.424029 15.694846 7.631064 15.751121 7.715476"/><rect x="6.378024" y="12.248457" width=".55019" height="3.299763" transform="translate(-6.59283 6.026067) rotate(-33.695946)"/><rect x="5.195682" y="12.856001" width=".550334" height="1.512378" transform="translate(-6.625733 5.311912) rotate(-33.64777)"/><polygon points="5.432977 14.546305 4.593985 13.287879 4.136221 13.593238 5.966914 16.338729 6.424313 16.033736 5.508783 14.660868 5.432977 14.546305"/><rect x="6.187411" y="14.343434" width=".550097" height="1.512404" transform="translate(-7.290302 6.120553) rotate(-33.689426)"/></svg>