<?xml version="1.0" encoding="UTF-8"?><svg id="flags_22px" xmlns="http://www.w3.org/2000/svg" viewBox="0 0 22 22"><defs><style>.cls-1{fill:#fff;}.cls-2{fill:#ff0;}.cls-3{fill:#e80000;}</style></defs><path class="cls-1" d="M11.000031,0C4.924086,.001282,.001282,4.924086,0,11.000031c.001282,6.075884,4.924086,10.998688,11.000031,10.999969,6.075823-.001282,10.998688-4.924025,10.999969-10.999969C21.998718,4.924025,17.075853,.001282,11.000031,0Z"/><path class="cls-3" d="M10.999969,1.999883C6.029314,1.999883,1.999883,6.029314,1.999883,10.999969s4.02943,9.000086,9.000086,9.000086,9.000086-4.02943,9.000086-9.000086S15.970625,1.999883,10.999969,1.999883Zm2.116461,11.913363l-2.1164-1.537114-2.116461,1.537114,.808413-2.487373-2.115973-1.537114h2.615608l.808413-2.487922,.807864,2.487922h2.616157l-2.115973,1.537114,.808352,2.487373Z"/><polygon class="cls-2" points="11.807894 9.88876 11.000031 7.400838 10.191618 9.88876 7.57601 9.88876 9.691982 11.425874 8.88357 13.913247 11.000031 12.376133 13.11643 13.913247 12.308079 11.425874 14.424051 9.88876 11.807894 9.88876"/></svg>