<?xml version="1.0" encoding="UTF-8"?><svg id="flags_22px" xmlns="http://www.w3.org/2000/svg" viewBox="0 0 22 22"><defs><style>.cls-1{fill:#f6f900;}.cls-2{fill:#fff;}.cls-3{fill:red;}</style></defs><path class="cls-2" d="M11.00007,0C4.924126,.001282,.001321,4.924086,.00004,11.000031c.001282,6.075823,4.924025,10.998688,11.000031,10.999969,6.075884-.001282,10.998688-4.924086,10.999969-10.999969C21.998758,4.924025,17.075893,.001282,11.00007,0Z"/><path class="cls-3" d="M11.012277,2.000616h-.02417c-4.96498,.006592-8.988001,4.032909-8.988001,8.999476,0,4.968703,4.026867,8.997156,8.995264,8.999842h.009644c4.968092-.002686,8.994959-4.031139,8.994959-8.999842,0-4.966567-4.023021-8.992884-8.987696-8.999476Z"/><polygon class="cls-1" points="6.736142 5.935502 6.255001 4.45509 5.773859 5.935502 4.217459 5.935502 5.476556 6.850422 4.995842 8.331078 6.255001 7.416158 7.514526 8.331078 7.033445 6.850422 8.292604 5.935502 6.736142 5.935502"/><polygon class="cls-1" points="9.719183 4.706129 9.986334 5.151015 10.031562 4.634046 10.537361 4.517713 10.060004 4.31477 10.105231 3.797923 9.764837 4.189404 9.287053 3.986339 9.554204 4.430982 9.213322 4.822523 9.719183 4.706129"/><polygon class="cls-1" points="11.058298 6.073259 11.131968 6.587054 11.374461 6.128557 11.885265 6.217302 11.524303 5.845048 11.766796 5.386184 11.30073 5.614823 10.939767 5.242324 11.013071 5.755936 10.547005 5.984514 11.058298 6.073259"/><polygon class="cls-1" points="11.406688 7.799704 11.228708 7.312276 11.085886 7.810996 10.567513 7.829917 10.997995 8.119651 10.8556 8.61831 11.263865 8.298424 11.694347 8.588159 11.516368 8.100792 11.925061 7.780844 11.406688 7.799704"/><polygon class="cls-1" points="10.07801 8.785852 9.753485 9.191188 9.268193 9.008204 9.55335 9.441616 9.229252 9.846707 9.72962 9.709561 10.014838 10.142972 10.039069 9.624538 10.539498 9.487453 10.053778 9.304408 10.07801 8.785852"/></svg>