<?xml version="1.0" encoding="UTF-8"?><svg id="flags_22px" xmlns="http://www.w3.org/2000/svg" viewBox="0 0 22 22"><defs><style>.cls-1{fill:#f5f5f5;}.cls-2{fill:#fff;}.cls-3{fill:#f00014;}</style></defs><path class="cls-2" d="M11.000061,0C4.9241,.001282,.001221,4.924025,0,10.999969c.001221,6.075884,4.923978,10.998749,11.000061,11.000031,6.075961-.001282,10.998718-4.924147,10.999939-11.000031C21.998779,4.924025,17.0759,.001282,11.000061,0Z"/><path class="cls-1" d="M11.009705,2.000433h-.019287c-4.966092,.005249-8.990406,4.032238-8.990406,8.999598v.000183H20.000233v-.000183c0-4.96736-4.024314-8.994349-8.990528-8.999598Z"/><path class="cls-3" d="M10.99884,20.000055h.002441c4.969998-.00061,8.998829-4.029674,8.998951-8.999842H2.000011c.000122,4.970168,4.028953,8.999232,8.998829,8.999842Z"/></svg>