<?xml version="1.0" encoding="UTF-8"?><svg id="flags_22px" xmlns="http://www.w3.org/2000/svg" viewBox="0 0 22 22"><defs><style>.cls-1{fill:#f5f5f5;}.cls-2{fill:#fff;}.cls-3{fill:red;}</style></defs><path class="cls-2" d="M11.00007,22c6.075884-.001282,10.998688-4.924072,10.999969-10.999939C21.998758,4.924133,17.076015,.001282,11.00007,0,4.924126,.001282,.001321,4.924072,.00004,11.000061c.001282,6.075928,4.924086,10.998657,11.000031,10.999939Z"/><path class="cls-1" d="M11.012277,2.000549h-.02417c-.038757,.000061-.076233,.005249-.114868,.005798h.253907c-.038635-.000549-.076111-.005737-.114868-.005798Z"/><path class="cls-1" d="M10.989328,19.999573h.021729c4.964308-.005981,8.987208-4.031067,8.988794-8.996582H2.000228c.001587,4.965515,4.024486,8.990601,8.9891,8.996582Z"/><path class="cls-3" d="M11.127146,2.006348h-.253907c-4.911452,.068604-8.873133,4.065857-8.873133,8.993652,0,.001038,.000122,.001953,.000122,.002991H19.999851c0-.001038,.000122-.001953,.000122-.002991,0-4.927795-3.961681-8.925049-8.872827-8.993652Z"/></svg>