<?xml version="1.0" encoding="UTF-8"?><svg id="flags_22px" xmlns="http://www.w3.org/2000/svg" viewBox="0 0 22 22"><defs><style>.cls-1{fill:#04c;}.cls-2{fill:#fff;}.cls-3{fill:#ffda00;}.cls-4{fill:#ff0009;}</style></defs><path class="cls-2" d="M11.000061,0C4.923978,.001282,.001221,4.924086,0,11.000031c.001221,6.075884,4.9241,10.998688,11.000061,10.999969,6.075839-.001282,10.998718-4.924086,10.999939-10.999969C21.998779,4.924147,17.076022,.001282,11.000061,0Z"/><path class="cls-3" d="M11.03009,2.001531h-.060303c-1.02503,.003418-2.005871,.185486-2.92299,.504457V19.49389c.926275,.322144,1.917125,.505983,2.953141,.505983,1.062628,0,2.077648-.193726,3.024065-.531862V2.531867c-.937261-.334901-1.942272-.526857-2.993913-.530336Z"/><path class="cls-1" d="M2.07069,9.921964v2.156256c.413577,3.457407,2.785294,6.305926,5.976107,7.41567V2.505988c-3.190814,1.109744-5.562531,3.958385-5.976107,7.415975Z"/><path class="cls-4" d="M14.024004,2.531867V19.468011c3.48061-1.243534,5.975985-4.560071,5.975985-8.467858,0-3.908092-2.495375-7.224751-5.975985-8.468285Z"/></svg>