<?xml version="1.0" encoding="UTF-8"?><svg id="flags_22px" xmlns="http://www.w3.org/2000/svg" viewBox="0 0 22 22"><defs><style>.cls-1{fill:#0040ab;}.cls-2{fill:#f5f5f5;}.cls-3{fill:#fff;}.cls-4{fill:#ffd000;}.cls-5{fill:#f00000;}</style></defs><path class="cls-3" d="M11.000031,22c6.075884-.001282,10.998688-4.924086,10.999969-11.000031C21.998718,4.924025,17.075853,.001282,11.000031,0,4.924086,.001282,.001282,4.924025,0,10.999969c.001282,6.075884,4.924025,10.998749,11.000031,11.000031Z"/><path class="cls-2" d="M15.790266,10.998383L4.68794,4.58888c-1.657842,1.632451-2.687813,3.900646-2.687813,6.411151,0,2.509467,1.029056,4.776869,2.685676,6.409136l11.104462-6.410784Z"/><path class="cls-1" d="M19.999933,10.998383c-.000854-4.969862-4.029918-8.998438-9.000025-8.998438-2.459968,0-4.687391,.989261-6.311968,2.588935l11.102326,6.409503h4.209667Z"/><path class="cls-5" d="M4.685804,17.409167c1.613896,1.590275,3.824107,2.575508,6.265764,2.588508h.09668c4.948134-.026367,8.951746-4.043346,8.951746-8.997645,0-.000549-.000061-.001099-.000061-.001648h-4.209667l-11.104462,6.410784Z"/><path class="cls-4" d="M5.616776,10.529326l-.140381,.139954,1.20972,.159363c-.003906,.028809-.015015,.05481-.016968,.084168l-1.31525-.086182-.171326,.171753,.171326,.171753,1.31525-.086182c.001953,.029297,.013123,.055237,.016968,.083985l-1.20972,.159241,.140381,.139954,1.086124-.215943c.034607,.172364,.097412,.327271,.192078,.468324l-.919619,.614443v.197693l.967044-.741762c.017456,.022705,.029114,.049561,.047974,.071045l-.990603,.868472v.242676h.243531l.868228-.989932c.021423,.018799,.048279,.030335,.070923,.047791l-.742251,.966983h.198487l.614382-.919314c.141053,.094605,.296021,.157532,.468446,.192139l-.215943,1.086185,.139527,.14032,.159424-1.209781c.028809,.003906,.05481,.015076,.084168,.017029l-.086182,1.314518,.171753,.172059,.171692-.172059-.086182-1.314518c.029358-.001953,.05542-.013123,.084229-.017029l.159424,1.209781,.139527-.14032-.215943-1.086185c.172425-.034607,.327393-.097534,.468446-.192139l.614382,.919314h.19806l-.741945-.966861c.022705-.017456,.049561-.029053,.071045-.047913l.868228,.989932h.24347v-.242676l-.990542-.868411c.01886-.021545,.030396-.04834,.047852-.071045l.966739,.741701v-.197693l-.919253-.614321c.094666-.141053,.157532-.296082,.192139-.468446l1.086124,.215943,.14032-.139954-1.209659-.159241c.003845-.028748,.015015-.054688,.016968-.083985l1.315189,.086182,.171387-.171753-.171387-.171753-1.315189,.086182c-.001953-.029358-.013062-.055359-.016968-.084168l1.209659-.159363-.14032-.139954-1.086124,.216126c-.034607-.172364-.097473-.327332-.192017-.468385l.919131-.614198v-.198487l-.966739,.742067c-.017395-.022644-.028992-.049439-.047791-.070862l.990481-.868533v-.242676h-.24347l-.868166,.990054c-.021484-.01886-.048279-.030457-.070984-.047852l.741823-.966677h-.19806l-.61426,.919192c-.141114-.094544-.296143-.15741-.468568-.192078l.215943-1.086429-.139527-.140015-.159424,1.20972c-.02887-.003906-.054871-.015015-.084229-.016968l.086182-1.31525-.171692-.171326-.171753,.171326,.086182,1.31525c-.029358,.001953-.055359,.013062-.084168,.016968l-.159424-1.20972-.139527,.140015,.215943,1.086429c-.172425,.034668-.327455,.097534-.468568,.192078l-.61426-.919192h-.198487l.742129,.9668c-.022644,.017395-.049439,.028931-.070862,.04773l-.868166-.990054h-.243531v.242676l.990542,.868533c-.01886,.021484-.030396,.048279-.047852,.070984l-.967105-.74219v.198487l.919497,.614321c-.094544,.140992-.157349,.295899-.191956,.468263l-1.086124-.216126Z"/><polygon class="cls-4" points="13.164892 11.277924 13.482825 11.696627 13.492896 11.170929 13.989907 10.998383 13.492896 10.825531 13.482825 10.299467 13.164892 10.718902 12.660924 10.566191 12.961767 10.998383 12.660924 11.429902 13.164892 11.277924"/><polygon class="cls-4" points="4.919325 16.120833 5.380264 16.374374 5.176345 15.889754 5.560196 15.530072 5.035231 15.574201 4.811903 15.098186 4.691785 15.6107 4.169933 15.675764 4.620435 15.947981 4.521192 16.465134 4.919325 16.120833"/><polygon class="cls-4" points="4.691785 6.386187 4.811903 6.898274 5.035231 6.422625 5.560196 6.466815 5.176345 6.106645 5.380264 5.621659 4.919325 5.875199 4.521192 5.531693 4.620435 6.048112 4.169933 6.320269 4.691785 6.386187"/></svg>