<?xml version="1.0" encoding="UTF-8"?><svg id="flags_22px" xmlns="http://www.w3.org/2000/svg" viewBox="0 0 22 22"><defs><style>.cls-1{fill:#00702c;}.cls-2{fill:#f5f5f5;}.cls-3{fill:#fff;}</style></defs><path class="cls-3" d="M11.000061,0C4.924133,.001282,.001282,4.924025,0,10.999969c.001282,6.075945,4.924072,10.998749,11.000061,11.000031,6.075928-.001282,10.998657-4.924147,10.999939-11.000031C21.998718,4.924025,17.075928,.001282,11.000061,0Z"/><polygon class="cls-1" points="11.419006 8.678857 11.425354 8.670922 11.42688 8.668237 11.427979 8.666162 11.429016 8.662988 11.431152 8.659814 11.431152 8.656152 11.352478 8.548974 11.252258 8.522118 11.219543 8.534264 11.213745 8.540551 11.213196 8.541589 11.210571 8.545861 11.20636 8.557458 11.205322 8.560632 11.283936 8.667199 11.419006 8.678857"/><polygon class="cls-1" points="8.320007 6.684772 8.222961 6.611469 8.216614 6.612506 8.191833 6.716449 8.295227 6.787678 8.320007 6.684772"/><path class="cls-1" d="M10.609009,9.669277c-.183594-.018494-.394653-.022705-.537659-.061768h-.014771l-.134521,.139283c.033752,.317689,.272278,.465394,.357178,.526613l.116089,.04541,.006836-.001038,.006409-.003723,.002563-.001038,.001099-.001648,.001038-.001038,.001038-.001038,.001038-.001038,.004761-.00531c.015381-.024231,.019043-.075989,.001099-.174622,.000549-.198975,.132996-.235902,.271179-.283387,.139343-.049561,.065979-.16626-.083374-.17566Z"/><path class="cls-1" d="M11.015808,2.000738h-.031494c-4.963257,.008606-8.984314,4.033947-8.984314,8.999293,0,4.964919,4.020447,8.989954,8.983154,8.999232h.033813c4.962708-.009277,8.983154-4.034313,8.983154-8.999232,0-4.965346-4.021057-8.990687-8.984314-8.999293Z"/><path class="cls-1" d="M12.102295,7.221456l-.039551-.185792-.016907-.085449c-.06012,.017456-.186768-.032715-.062805,.113953l.119263,.157288Z"/><polygon class="cls-1" points="6.381409 8.806543 6.319702 8.833948 6.311218 8.843408 6.310181 8.843958 6.266357 8.955347 6.36084 9.001734 6.465881 8.990137 6.46637 8.988001 6.46637 8.986963 6.486938 8.871973 6.395691 8.805444 6.381409 8.806543"/><path class="cls-1" d="M14.487366,15.181744l-.012146,.300233h.418396l.001099-.013184,.001038-.008484,.002625-.005249,.001648-.004211,.002563-.003723,.252197,.011047,.002136,.023804c.106628,.002625,.168335-.002625,.275452,0h.008972l.005798-.002136,.007935-.279115c-.328735-.015808-.637451-.003174-.966675-.018982h-.001038Z"/><path class="cls-2" d="M14.261475,10.378935c.103455,.000549,.222717-.23639,.273865-.470155,.027954-.322389-.018982-.519228-.026917-.70862-.008423-.190003-.215271-1.728642-.256409-1.872137-.050659-.271241,.200012-.03595,.173035-.193177-.086487-.199402-.303406-.488588-.37146-.661684l-.049072-.085449h-.000488l-.064941,.066529c-.084961,.276429-.114502,.502809-.082275,.674868,.217896,1.134952,.440552,2.169195,.404663,3.249826Z"/><path class="cls-2" d="M4.554688,10.531951c-.093994,.189942-.132996,.060181-.141418-.045349-.013733-.2016,.005249-.387269,.027405-.533449l.002136-.101868-.050659,.058045c-.21106,.33661-.230042,.83948-.113464,.989871l.239563,.079712c.132446-.057556,.191589-.326661,.159912-.425294l-.123474-.021668Z"/><path class="cls-2" d="M15.08728,7.083699c.2005,.2464,.405762,.509218,.612061,.783022,.043274,.558839,.054932,1.070682,.099182,1.629948-.006287,.239625-.080139,.557253-.14978,.587282l-.177856-.006897-.258545-.345521c-.106079-.097107-.176758-.069153-.252197,0-.207947,.200989-.301819,.576723-.443237,.836306-.036438,.058045-.138794,.106568-.252747-.005249-.289673-.395265-.120361-.958743-.156738-.813723-.257507,.290223-.143555,.772524-.085449,.875979,.085449,.170411,.154053,.279664,.319763,.363587,.15033,.110718,.268005,.041626,.332947-.036438,.151367-.157227,.153503-.559328,.224792-.638491,.05011-.146668,.17511-.121399,.236328-.055908l.21582,.18628c.141418,.125,.310791,.147156,.477051,.033203,.113953-.063294,.187866-.14618,.254272-.310243,.071777-.191041,.035889-1.192508,.020081-1.7497,.107605,.149781,.212708,.303895,.317627,.459596,.045959,.489076,.066528,.971377,.051758,1.433598-.010559,.091309,.320862-.274354,.318726-.448488-.002136-.15149,0-.289124,0-.416871,.160339,.25647,.31604,.517641,.463257,.781985,.090698-.048523,.06012-.564577,.002075-.635866-.154053-.258546-.351379-.53766-.503845-.753969-.030151-.272279-.071289-.594179-.090271-.692812-.029541-.153565-.058044-.384645-.102356-.566713l-.036926-.320802,.119263-.057495c.049561-.054382-.173645-.633242-.287109-.798403-.041138-.073853-.113953-.048523-.20575,.072266-.084412,.079163-.053833,.259644-.021118,.431703,.083374,.437928,.158325,.884341,.217896,1.329655-.109192-.163514-.243225-.360902-.375671-.551393l-.016907-.086548-.033752-.441652,.02478-.039551,.066528,.043823,.048523-.117127c-.118164-.217469-.23584-.434816-.353516-.652285l-.048523-.031677-.060669,.039124-.088135,.193665c.010498,.154541,.037964,.312867,.048523,.466981l.011597,.061707-.039551-.045899c-.30072-.316102,.138245-.051758-.057556-.296021-.165649-.181519-.213684-.239564-.355652-.348756-.070679-.04596-.113953-.133545-.137146,.015808-.008972,.131409-.018982,.282777-.01001,.393617l.118164,.245362Z"/><path class="cls-2" d="M4.354187,9.366908c.374634-.179932,.74292-.353578,1.124939-.539796-.061768-.091858-.004211-.174683-.235291-.18097-.355652,.006287-.875916,.465883-.889648,.720766Z"/><path class="cls-2" d="M11.520325,6.970234c.247986,.333497,.487,.669069,.71759,1.01575,.036438,.257508,.062805,.509218,.079712,.760378,.037476,.549806,.049072,1.234745,.014771,1.814641,.103394,.003662,.268555-.16626,.32605-.416383,.038025-.345582-.013184-1.05054-.016846-1.254703-.002075-.084473-.007385-.185242-.013184-.291322,.268005,.439027,.528137,.903384,.784058,1.41309,.092896-.044312,.072327-.568788,.017944-.642153-.204712-.440065-.487-.874331-.577209-1.042117-.032227-.060181-.143066-.228516-.274414-.42267-.024292-.277039-.05011-.511354-.067505-.582521-.042297-.292909,.120789,.033203,.097595-.137757-.052734-.292298-.213745-.490724-.404724-.758791-.061218-.087586-.060181-.104981-.155151,.021118-.057007,.128785-.055908,.23639-.039612,.336671l-.10022-.132996c-.164612-.141419-.174622-.148743-.31134-.264344l-.187805-.071778-.078613,.08075c-.01532,.13086-.007385,.202088,.014221,.310243l.174683,.264893Zm.525513-.02002l.016907,.085449,.039551,.185792-.119263-.157288c-.123962-.146668,.002686-.096497,.062805-.113953Z"/><path class="cls-2" d="M7.843018,9.665005l.013184,.245423c.044373,.017883,.105042-.120911,.128235-.250123,.012695-.07074-.055359-.317689-.170959-.362001l-.05481-.004211-.083374,.111878c-.003723,.056946,.157776,.126587,.167725,.259034Z"/><path class="cls-2" d="M7.378662,7.625082h.001099l.001038,.001038h.001099l.000977,.001099,.412659,.001587,.001587-.001587,.001099,.000488v-.001587c.119202-.043762,.683838-.689638,.683838-.689638l-.08551-.068604v-.08075c.139832-.081787,.09552-.260621,.022705-.341859l-.168823-.033753-.135132,.036865c-.098083,.094483-.121338,.244813-.043762,.338746l.100281,.152527c-.212646,.227967-.766174,.607301-.794128,.676455l-.001099,.002136-.000549,.002075v.001038l.001648,.002686,.000977,.001038Zm.837952-1.012576l.006348-.001038,.097046,.073303-.02478,.102906-.103394-.071228,.02478-.103943Z"/><path class="cls-2" d="M8.998108,8.003928c.173035,.071778,.282288-.256959,.352966-.617861,.048584-.100281,.08551-.111878,.110291-.060242-.006348,.479188,.034851,.585756,.157776,.731447,.274353,.211548,.50177,.026367,.519714,.008423l.213745-.213685,.177795-.008972c.06543,.05957,.057007,.161438,.196838,.233155,.117676,.046509,.369385,.011658,.427368-.09021,.078613-.134522,.097656-.18097,.134094-.231629l.151917-.017944-.027405,.157227,.121338,.006897c.139343-.066467,.244324-.368898,.244324-.368898,.006348-.112854-.058044-.104431-.098633-.081238l-.110291,.076538c-.068115,.010071-.200012,.05542-.265442-.045899-.067078-.121399-.067505-.291261-.118225-.414186l-.006836-.204774,.145142-.043762c.043213-.072876-.093994-.279664-.187927-.383119-.081238-.089722-.193604-.10022-.302795-.009522l-.079712,.222657c-.019531,.08551-.015869,.191102,.07074,.303956,.075928,.149903,.214722,.342469,.168823,.61426,0,0-.0802,.129212-.221619,.112366-.058594-.012695-.154602-.038513-.205811-.415284-.038452-.284913,.010071-.684938-.111328-.871707l-.089661-.134034-.092346,.106079c-.029053,.07544-.152466,.190491-.063354,.42743,.073364,.15033,.102905,.394166,.069641,.665834l-.128174,.181031c-.092896,.100281-.193665,.07489-.27124,.037476-.071777-.049072-.128723-.073853-.161499-.228455,.005859-.246461,.020081-.650148-.02478-.735598-.066467-.132996-.17572-.085449-.223206-.04541-.224792,.205811-.335571,.553041-.403625,.828982-.062317,.2016-.128723,.143494-.175232,.062317-.113953-.106629-.121826-.938723-.259094-.802065-.219482,.627321,.12616,1.315494,.365723,1.248417Z"/><path class="cls-2" d="M4.593689,8.338463c.432739,.041687,.194214-.730837,.350403-.870669l.088623,.016907v.655947c-.004211,.213135,.136169,.27649,.244873,.320741,.113953-.008972,.188904-.005737,.233215,.104554,.017944,.377809,.036438,.756655,.053772,1.134403,0,0,.262329,.075989,.274414-.637392,.012695-.418946-.082825-.769839-.026367-.851626l.175171-.044861c.112915,.079712,.163574,.177796,.338806,.138245,.266968-.073364,.428406-.203126,.432129-.408448-.015808-.194642-.037964-.389894-.122986-.585146l-.039001-.162537h.137207c-.04541-.149842-.11615-.293336-.230652-.355653-.094421-.083374-.232666-.06543-.283325,.107666-.023743,.200501,.072266,.43744,.217896,.631044,.031128,.075989,.074402,.201661,.055481,.315614l-.219604-.043274-.212585-.194214c.056396-.361451,.012146-.403138-.018982-.503358-.022217-.138306-.088196-.181519-.140869-.27649h-.159424c-.093872,.163025-.050598,.51288,.017944,.669069,.048584,.144532,.124023,.234315,.088684,.234315-.029541,.081177-.089722,.062744-.134033-.031677-.062317-.194214-.07489-.4834-.07489-.61426-.019043-.161438-.040161-.50702-.146729-.595155l-.094971-.048035-.099243,.084473c-.007324,.160889-.008423,.320802,.009521,.469056,.073303,.259583,.096008,.48755,.131897,.753542,.009521,.35608-.20575,.153992-.195251-.022217,.049072-.229554,.035889-.590456-.008423-.681765-.03479-.091797-.075928-.113953-.1604-.099182-.068542-.004211-.242737,.186768-.291748,.501771,0,0-.040649,.161988-.058594,.305604-.024231,.162964-.131958,.278565-.206848-.022156-.06543-.218445-.105042-.757204-.214233-.631105-.03064,.420533-.067505,1.160282,.289124,1.236271Z"/><polygon class="cls-2" points="6.263245 6.408831 6.263611 6.409075 6.263794 6.408831 6.263245 6.408831"/><path class="cls-2" d="M12.911743,7.223531c.050659,.023254,.121399-.152466,.147766-.314454,.03009-.131409-.063354-.400026-.19635-.455934l-.031067-.003174c-.075989-.002625-.159912,.045349-.127136,.14032-.019043,.051758,.162964,.228028,.192017,.323976,.052795,.147828-.0401,.289185,.014771,.309266Z"/><path class="cls-2" d="M5.925537,6.762348c.148254,.070679,.426331,.04065,.414246-.197815l-.006897-.111389-.069275-.044068-.062134,.063049-.011108,.074951-.056946-.061157-.024841-.056519-.032654-.007935-.031677,.023804-.011597,.05481-.029053,.034851-.030579-.007935-.02002-.031677-.01062-.058045-.035828-.02002-.082336,.127686c-.005859,.006897-.008423,.171509,.101318,.217408Z"/><path class="cls-2" d="M8.162842,7.53536l-.069702,.021668c-.130859,.070679-.181458,.280701-.10022,.403138,.075989,.108643,.196289,.069092,.212646,.069092,.128235,.015808,.204712-.241151,.204712-.241151,0,0,.003662-.071717-.148804,.064392l-.088623-.047485,.020569-.2016-.030579-.068054Z"/><path class="cls-2" d="M13.487976,10.147306c-.238037,.248536-.581482,.555116-.955078,.695986-.0401,.045349,.10022,.237916,.28125,.237488,.303345-.034912,.569885-.205323,.816772-.653322,.065979-.104431,.182068-.328675,.185791-.502321,.022705-1.016238-.05127-1.806707-.203735-2.541694l.008972-.177857,.121338-.057556c.051758-.053223-.138184-.491151-.246338-.660036l-.053833-.074402-.060669,.083374c-.067078,.109192-.112366,.299744-.107178,.478029,.144592,1.000979,.188904,1.877386,.283386,2.878426,.007935,.097107-.006348,.237427-.070679,.293885Z"/><path class="cls-2" d="M12.797302,7.839804c.148254,.07074,.426819,.0401,.415222-.198853l-.007935-.111389-.070129-.043823-.061768,.063904-.01001,.074402-.058594-.060669-.02478-.057007-.032776-.008484-.031067,.024292-.011108,.054871-.028442,.03479-.031677-.008423-.020081-.031128-.01001-.058533-.035889-.019043-.081299,.127198c-.005798,.006897-.01001,.172547,.100342,.217896Z"/><path class="cls-2" d="M4.763611,7.008259c.043274,.018982,.103455-.125611,.126648-.259583,.012146-.073914,.002625-.324586-.167786-.375733l-.027466-.003174-.108643,.116577,.153015,.266541,.024231,.255372Z"/><path class="cls-2" d="M16.555725,10.761993l-.133972-.017944-.054871-.068543,.053772-.103394-.069641-.098206-.088623-.007874-.096069,.007874-.067505,.082337,.103394,.108704-.002075,.132935-.13031,.112366,.032166,.117188c.128723,.036377,.425293-.156739,.425293-.16095l.028442-.104492Z"/><path class="cls-2" d="M16.845947,7.672568c.046509,.02478,.11084-.165162,.135071-.340882,.013733-.096558-.057983-.433717-.178833-.493898l-.028992-.004211c-.069702-.002625-.144592,.05011-.115051,.152466-.017456,.05603,.147705,.24701,.174072,.351441l.013733,.335084Z"/><path class="cls-2" d="M7.206177,10.025418c.154114-.512331-.002686-.899111,.048523-.946658l.002625-.001038,.002136-.001038,.001587-.001099,.007385-.001526c.189941,.204712,.456482,.026367,.515015-.044861l.131348-.012146c.148804,.106568,.408447,.056458,.46283-.131348,.031067-.184205,.057434-.373597,.063782-.569887-.096558,.030579-.174133,.052735-.20575,.085999l-.014832,.026917-.02478,.163025-.004211,.012146-.017944,.016846-.096558-.041138c-.046448-.208985-.235291-.23639-.350342,.087586-.077026,.062256-.217957,.074951-.232727-.018982,.019043-.217408-.068604-.2464-.244263-.144593-.055969-.429506-.111938-.840579-.168396-1.270572l.206848-.032776c-.072266-.225281-.225281-.682741-.311829-.726015l-.002075-.001099-.012207-.012085-.005737-.004272-.00531-.003662-.011597-.004211-.023315-.002563-.073242,.021545c-.091797,.029541-.177856,.108704-.15094,.262757,.108704,.660158,.179443,1.164066,.288086,1.823613l-.131348,.168885c-.142456-.096009-.177307-.290223-.419983-.282349-.175232,.002686-.375183,.193116-.400513,.37732-.029053,.14563-.039551,.303956,0,.431581,.123474,.147767,.27124,.132447,.400513,.099243,.106567-.044312,.194153-.148804,.232117-.124573h.001099v.001587c.023193,.04065-.002075,.384156-.501831,.64905-.307617,.137696-.551392,.17096-.68335-.079651-.081238-.156739,.006348-.753542-.194153-.615236-.593079,1.528569,1.389343,1.741765,1.610962,.062744l.088623-.082825,.03009,.058045c-.04541,1.520756-1.533386,1.624638-1.786133,1.14661-.062805-.112915-.081726-.364137-.088135-.514467-.011597-.09076-.033752-.143555-.06012-.163575-.060181-.04541-.141418,.072266-.159363,.277528-.02478,.164612-.017944,.210023-.017944,.368836,.079712,1.200931,1.994568,.684389,2.305359-.307618Zm-.739807-1.038455v.001038l-.000488,.002136-.105042,.011597-.094482-.046387,.043823-.111389,.001038-.000549,.008484-.00946,.061707-.027405,.014282-.001099,.091248,.066529-.020569,.114991Z"/><path class="cls-2" d="M15.608093,14.707866l-.22113,.08551c-.069641-.069153-.61261-.037476-.935486-.049622l.017944-.245911-.076538-.018982h-.002625l-.001587-.001587-.003723-.001099-.005249-.005737-.002075-.002136-.036438-.096497-.001099-.001587-.001038-.001099-.002075-.001038h-.002625l-.001099,.001038c-.213196,.054871-.206848,.27649-.069641,.373597-2.253113,0-5.234436-.030579-6.452209-.038025-.414795-.003174-1.7276-.049561-1.752869-.049561,.28125,.411561,.689087,.496034,1.223083,.503847,1.000427,0,5.637512-.012085,6.957214-.012085-.093384,.166749,.008972,.510805,.082336,.560426l.005737,.003113,.008972,.003174h.003174l.155151-.088684c.141968,.012695,.93927,.024292,1.012573-.000977l.001099-.001099c.049072,.072266,.098083,.141419,.192017,.128724,.164612-.034851,.294434-.052796,.298706-.386232,0,0-.016907-.692812-.390503-.657473Zm-.16095,.771975l-.005798,.002136h-.008972c-.107117-.002625-.168823,.002625-.275452,0l-.002136-.023804-.252197-.011047-.002563,.003723-.001648,.004211-.002625,.005249-.001038,.008484-.001099,.013184h-.418396l.012146-.300233h.001038c.329224,.015808,.637939,.003174,.966675,.018982l-.007935,.279115Z"/><path class="cls-2" d="M17.237488,6.446307l-.053833-.07544-.061218,.084412c-.066406,.109253-.089661,.304994-.062744,.478029,.16095,1.086978,.280151,2.140204,.304993,3.103707-.014282,.091797-.018494,.139832-.060669,.255433-.094971,.121338-.199463,.273804-.298706,.347169-.098145,.073853-.308167,.143494-.376709,.198365-.217407,.125611-.218445,.270203-.042236,.275452,.302856-.03479,.661682-.06012,.90863-.432679,.066467-.104981,.143494-.388307,.147766-.561403,.023193-1.017337-.013794-2.01148-.16571-2.745979l-.029541-.257508,.154114-.053284c.051697-.053284-.256531-.447999-.364136-.616274Z"/><path class="cls-2" d="M9.079346,6.766559l.08075-.118225c.02002-.10022-.10553,.047547-.121338-.063782-.028015-.103943,.051697-.14618,.128174-.246461l-.027954-.086487-.064392,.024292c-.065979,.044251-.196289,.18042-.199951,.33661l.036926,.144043,.167786,.01001Z"/><path class="cls-2" d="M9.967896,6.820392c.085022-.230103,.08551-.327638,.09137-.425294l-.082397-.106629-.110229,.128235-.057495,.389955c-.022705,.098206,.102295,.139283,.158752,.013733Z"/><path class="cls-2" d="M11.58783,10.797882l.12616,.015869c.143494-.054871,.233215-.108216,.433716-.151978l-.033752-.147217c-.108765,.00531-.208984,.011047-.318237,.096558l-.093323-.061707c-.016968-.09076,.038452-.154664,.026855-.223206l-.080688-.032227-.049622,.010071-.199524,.169861-.016296,.080261,.107666,.011047,.084412,.103455c-.027405,.09021,.012634,.123963,.012634,.129212Z"/><path class="cls-2" d="M12.266968,9.364284l.001038-.001099,.001038-.000488,.001099-.001099v-.002686l-.001099-.011047-.06543-.038513-1.28595-.005798-.03479-.017944-.002075-.002075-.001099-.001099-.000977-.001038-.001099-.002075-.001587-.001587v-.001038l-.001038-.00061v-.00946l.001038-.001038,.001587-.002075,.040039-.023804c.30719-.041687,.852783-.131348,.889099-.655886-.005737-.273316-.117126-.45215-.452148-.501771-.246399,.018982-.422119,.257508-.394165,.519716l-.048523,.224793c-.472229,.043274-.987793,.339784-1.005249,.551393h-.000977l-.001099,.001099-.002625,.001587h-.001587l-.003662,.001038h-.006348l-.00531-.001038-.064331-.130921c-.017456-.366151-.136719-.780886-.323486-1.100101l-.114502-.096558h-.009521l-.005249,.003113-.003723,.002075-.069641,.063355c-.064331,.072815-.075989,.124024-.072266,.270692,.003723,.015869,.122437,.345643,.223206,.577211,.067505,.241212,.13031,.516603,.083862,.777285-.158264,.344544-.47699,.653261-.784607,.821047-.157227,.050659-.292358,.033753-.328674-.001038l-.001099-.001099c-.09021-.06012-.091797-.167786-.086548-.186768v-.001038l.001099-.001099c.259583-.180909,.556152-.327088,.788269-.815676,.068604-.186829,.089722-.298707,.021667-.586794-.026917-.107666-.059631-.196351-.132996-.27234l.001038-.000977,.176758,.009949c-.027405-.137696-.120239-.322389-.225769-.417299-.092896-.084473-.193176-.093994-.278137-.016907-.095459,.052796-.11554,.243775-.069641,.410524,.051208,.12555,.188354,.147705,.28656,.400453v.001038l-.015869,.259095c-.039551,.124573-.555115,.530885-.591431,.555666l-.003235,.002136-.001038,.001038-.001587,.001038-.001038,.001587h-.002136l-.001038-.001587v-.001038l-.001099-.002686v-.076966l.025879-.278138v-.001587l-.001099-.000488v-.001099h-.001526c-.169922,.109803-.226379,.446962-.257507,.546144-.430542,.298097-.920288,.520326-1.202026,.821597-.147217,.229493,1.011536-.263306,1.146057-.322999l.003174,.003784,.104492,.214722c.1203,.163025,.376709,.263245,.625854,.20105,.417358-.15094,.658447-.435365,.90332-.751406l.140381-.051697c.168274,.37671,.654236,.645326,1.281128,.672731,.14563-.176758,.075989-.263245,.016846-.300233-.017944-.012085-.311829-.126587-.357727-.240601-.028503-.106568,.041138-.200501,.181519-.27118,.402588-.048584,.798889-.102967,1.181946-.225892,.004211-.129273,.079712-.321839,.13092-.405214l.066467-.072266Zm-1.060608-.806826l.004211-.011597,.002625-.004272,.000549-.001038,.005798-.006287,.032715-.012146,.10022,.026856,.078674,.107178v.003662l-.002136,.003174-.001038,.003174-.001099,.002075-.001526,.002686-.006348,.007935-.135071-.011658-.078613-.106568,.001038-.003174Zm-.513977,1.287479c-.138184,.047485-.27063,.084412-.271179,.283387,.017944,.098633,.014282,.150391-.001099,.174622l-.004761,.00531-.001038,.001038-.001038,.001038-.001038,.001038-.001099,.001648-.002563,.001038-.006409,.003723-.006836,.001038-.116089-.04541c-.0849-.061218-.323425-.208924-.357178-.526613l.134521-.139283h.014771c.143005,.039063,.354065,.043274,.537659,.061768,.149353,.009399,.222717,.126099,.083374,.17566Z"/><path class="cls-2" d="M15.341614,9.110438c-.017456,.055908,.085449,.252259,.112366,.35669l.018982,.306031c.046448,.024353,.167358-.124451,.163086-.311829,.013672-.096558-.034302-.450624-.155151-.510744l-.043762-.003723c-.063354,.007935-.123474,.068054-.09552,.163575Z"/><polygon class="cls-2" points="15.557922 8.45089 14.855103 8.956324 14.855103 9.204371 15.582214 8.701013 15.570618 8.449792 15.557922 8.45089"/><path class="cls-2" d="M15.184387,8.455651c.002625-.139832,.016357-.324525,.023743-.439576l.054871-.102356,.11499-.003723-.075378-.28119-.111389-.06073c-.072815-.003662-.149841,.043762-.169861,.143006l.021606,.143555-.113953,.014771-.048035-.095581-.186768,.034851-.016968,.22638c.083374,.154114,.370483,.417909,.507141,.420594Z"/><polygon class="cls-2" points="6.915955 6.446307 6.916382 6.446368 6.916504 6.446307 6.915955 6.446307"/><path class="cls-2" d="M10.681824,8.401818l-.007874-.111389-.07019-.044251-.061707,.063294-.01001,.07489-.058594-.06012-.02478-.057495-.031677-.007935-.032227,.023193-.011047,.054871-.028503,.0354-.03064-.007935-.021057-.031677-.008972-.058045-.037476-.018982-.08075,.126648c-.005798,.006836-.01001,.172547,.100281,.218445,.148254,.070679,.500732,.028992,.415222-.198914Z"/></svg>