<?xml version="1.0" encoding="UTF-8"?><svg id="flags_22px" xmlns="http://www.w3.org/2000/svg" viewBox="0 0 22 22"><defs><style>.cls-1{fill:#fff;}.cls-2{fill:#ffdd1f;}.cls-3{fill:#ff0009;}.cls-4{fill:#151513;}</style></defs><path class="cls-1" d="M11.000101,0C4.924046,.001282,.00126,4.92404,.00004,11c.001221,6.075899,4.924007,10.998718,11.000061,11,6.075932-.001282,10.998718-4.924101,10.999939-11C21.998819,4.92404,17.076033,.001282,11.000101,0Z"/><path class="cls-4" d="M2.000284,11.000122c0,3.916355,2.506012,7.239293,5.998657,8.476422V2.523761C4.506296,3.760829,2.000284,7.083523,2.000284,11.000122Z"/><path class="cls-2" d="M11.012064,2.000843h-.024171c-1.049625,.001404-2.052738,.191295-2.988952,.522917V19.476545c.934383,.331012,1.935543,.520537,2.982848,.522612h.036379c1.046695-.002075,2.047366-.191356,2.981383-.522002V2.52315c-.935848-.331256-1.938473-.520903-2.987487-.522307Z"/><path class="cls-3" d="M13.999551,2.52315V19.477155c3.493499-1.236641,6.000366-4.560067,6.000366-8.477033,0-3.91721-2.506867-7.240331-6.000366-8.476972Z"/></svg>