<?xml version="1.0" encoding="UTF-8"?>
<svg id="flags_22px" data-name="flags 22px" xmlns="http://www.w3.org/2000/svg" viewBox="0 0 18 18">
  <defs>
    <style>
      .cls-1 {
        fill: #f5f5f5;
      }

      .cls-2 {
        fill: #909090;
      }
    </style>
  </defs>
  <path class="cls-1" d="m8.98,0C4.02,0,0,4.03,0,9s4.02,9,8.98,9,8.98-4.03,8.98-9S13.94,0,8.98,0Z"/>
  <path class="cls-2" d="m9.03.02C4.08.02.07,4.04.07,9s4.01,8.98,8.97,8.98,8.97-4.02,8.97-8.98S13.99.02,9.03.02Zm7.25,8.46h-2.94c-.03-1.07-.18-2.13-.45-3.17h2.4c.57.97.91,2.05.99,3.17Zm-1.75-4.23h-1.97c-.27-.77-.66-1.49-1.16-2.14,1.21.42,2.29,1.16,3.13,2.14Zm-6.03,5.28v3.17h-2.25c-.29-1.03-.45-2.1-.48-3.17h2.73Zm-2.73-1.06c.03-1.07.19-2.14.48-3.17h2.25v3.17h-2.73Zm3.79,1.06h2.73c-.03,1.07-.19,2.14-.48,3.17h-2.25v-3.17Zm0-1.06v-3.17h2.25c.29,1.03.45,2.1.48,3.17h-2.73Zm1.88-4.23h-1.88V1.93c.89.51,1.56,1.34,1.88,2.32Zm-2.94-2.32v2.32h-1.88c.32-.98.99-1.81,1.88-2.32Zm-1.85.18c-.5.65-.89,1.37-1.16,2.14h-1.97c.84-.97,1.92-1.71,3.13-2.14Zm-3.89,3.19h2.4c-.27,1.04-.42,2.1-.45,3.17H1.78c.08-1.12.42-2.21.99-3.17Zm-.99,4.23h2.94c.03,1.07.18,2.13.45,3.17h-2.4c-.57-.97-.91-2.05-.99-3.17Zm1.75,4.23h1.97c.27.77.66,1.49,1.16,2.14-1.21-.42-2.29-1.16-3.13-2.14Zm3.1,0h1.88v2.32c-.89-.51-1.56-1.34-1.88-2.32Zm2.94,2.32v-2.32h1.88c-.32.98-.99,1.81-1.88,2.32Zm1.85-.18c.5-.65.89-1.37,1.16-2.14h1.97c-.84.98-1.92,1.71-3.13,2.14Zm3.89-3.19h-2.4c.27-1.04.42-2.1.45-3.17h2.94c-.08,1.12-.42,2.21-.99,3.17Z"/>
</svg>