<?xml version="1.0" encoding="UTF-8"?><svg id="flags_22px" xmlns="http://www.w3.org/2000/svg" viewBox="0 0 22 22"><defs><style>.cls-1{fill:#fc0000;}.cls-2{fill:#0048f2;}.cls-3{fill:#f5f5f5;}.cls-4{fill:#fff;}</style></defs><path class="cls-4" d="M11,0C4.92408,.001282,.001282,4.924033,0,11.000031c.001282,6.075936,4.92408,10.998688,11,10.999969,6.075859-.001282,10.998718-4.924033,11-10.999969C21.998718,4.924033,17.075859,.001282,11,0Z"/><path class="cls-3" d="M11.0188,9.187333h8.79856c-.271007-1.32525-.841402-2.537947-1.625124-3.581204H4.815739l6.203061,3.581204Z"/><path class="cls-3" d="M10.999939,2.000266c-.041628,0-.081851,.005677-.123357,.006226h.246714c-.041506-.000549-.081729-.006226-.123357-.006226Z"/><path class="cls-3" d="M4.841741,16.368723h13.369416c.778839-1.044355,1.343253-2.257418,1.610109-3.581753H11.071658l-6.229917,3.581753Z"/><path class="cls-1" d="M18.192235,5.606129c-1.618837-2.154814-4.175638-3.560329-7.068939-3.599637h-.246714c-2.711043,.036806-5.130876,1.269645-6.756854,3.197826l.696011,.401811h13.376496Z"/><path class="cls-1" d="M11.0188,9.187333l3.150391,1.818801-3.097532,1.780836h8.749607c.116399-.577661,.178779-1.174915,.178779-1.786879,0-.620936-.06293-1.227224-.182685-1.812759H11.0188Z"/><path class="cls-1" d="M4.112525,16.78793c1.524962,1.812636,3.751977,3.007449,6.262267,3.18043h1.250293c2.69737-.18586,5.062452-1.556644,6.586071-3.599637H4.841741l-.729215,.419207Z"/><path class="cls-2" d="M11.071658,12.78697l3.097532-1.780836-3.150391-1.818801-6.203061-3.581204-.696011-.401811c-1.32073,1.566166-2.119589,3.586636-2.119589,5.795773,0,2.205292,.795807,4.222771,2.112387,5.787839l.729215-.419207,6.229917-3.581753Zm-4.946664-2.642993l.605065-1.863115,.605065,1.863115h1.959366l-1.584778,1.151293,.605065,1.862626-1.584717-1.150866-1.584717,1.150866,.605065-1.862626-1.58429-1.151293h1.958877Z"/><polygon class="cls-3" points="5.145341 13.157896 6.730059 12.00703 8.314776 13.157896 7.709711 11.29527 9.294489 10.143977 7.335124 10.143977 6.730059 8.280862 6.124994 10.143977 4.166116 10.143977 5.750406 11.29527 5.145341 13.157896"/></svg>