<?xml version="1.0" encoding="UTF-8"?><svg id="flags_22px" xmlns="http://www.w3.org/2000/svg" viewBox="0 0 22 22"><defs><style>.cls-1{fill:#0062d9;}.cls-2{fill:#f5f5f5;}.cls-3{fill:#fff;}.cls-4{fill:red;}</style></defs><path class="cls-3" d="M11,0C4.92395,.001282,.001221,4.924086,0,11.000031c.001221,6.075884,4.924072,10.998688,11,10.999969,6.075806-.001282,10.998779-4.924025,11-10.999969C21.998779,4.924086,17.075806,.001282,11,0Z"/><path class="cls-4" d="M11.000122,19.999872c3.916626,0,7.239868-2.506416,8.476807-5.999345H2.523438c1.236816,3.49293,4.559814,5.999345,8.476685,5.999345Z"/><path class="cls-1" d="M2.522949,8.000999c-.33252,.939395-.522827,1.945867-.522827,2.999154,0,1.053714,.190552,2.060675,.523315,3.000375H19.476929c.332886-.9397,.523315-1.946661,.523315-3.000375,0-1.053287-.19043-2.059759-.522827-2.999154H2.522949Z"/><path class="cls-2" d="M11.030273,2.001531h-.060303c-3.904175,.013001-7.213867,2.514777-8.447021,5.999467H19.477417c-1.233398-3.48469-4.543091-5.986467-8.447144-5.999467Z"/></svg>