<?xml version="1.0" encoding="UTF-8"?><svg id="flags_22px" xmlns="http://www.w3.org/2000/svg" viewBox="0 0 22 22"><defs><style>.cls-1{fill:#ed2939;}.cls-2{fill:#f5f5f5;}.cls-3{fill:#fff;}</style></defs><path class="cls-3" d="M11.000031,0C4.924086,.001282,.001282,4.924086,0,11.000031c.001282,6.075884,4.924086,10.998688,11.000031,10.999969,6.075823-.001282,10.998688-4.924025,10.999969-10.999969C21.998718,4.924025,17.075853,.001282,11.000031,0Z"/><path class="cls-2" d="M10.999969,20.000055c4.932448,0,8.93313-3.969127,8.994349-8.886988H2.005621c.061218,4.91786,4.061901,8.886988,8.994349,8.886988Z"/><path class="cls-1" d="M10.999969,1.999883C6.029314,1.999883,1.999883,6.029314,1.999883,10.999969c0,.038208,.005249,.075012,.005737,.113098H19.994318c.000488-.038086,.005737-.07489,.005737-.113098C20.000055,6.029314,15.970625,1.999883,10.999969,1.999883Z"/><path class="cls-2" d="M6.124773,6.556476c0-1.591252,1.108096-2.923714,2.594734-3.26777-.244019-.056519-.498231-.086365-.759463-.086365-1.852422,0-3.354135,1.501652-3.354135,3.354135,0,1.852422,1.501713,3.354135,3.354135,3.354135,.261231,0,.515443-.029846,.759463-.086365-1.486637-.344117-2.594734-1.676518-2.594734-3.26777Z"/><polygon class="cls-2" points="10.112638 4.73567 10.625945 4.362683 9.991422 4.362683 9.795376 3.759227 9.59927 4.362683 8.964747 4.362683 9.478115 4.73567 9.282008 5.339126 9.795376 4.966139 10.308683 5.339126 10.112638 4.73567"/><polygon class="cls-2" points="11.821139 5.692093 11.625093 5.088576 11.428987 5.692093 10.794464 5.692093 11.307832 6.065019 11.111725 6.668476 11.625093 6.29555 12.1384 6.668476 11.942355 6.065019 12.455662 5.692093 11.821139 5.692093"/><polygon class="cls-2" points="8.86062 7.843039 8.664514 7.239583 8.468468 7.843039 7.833945 7.843039 8.347252 8.216026 8.151207 8.819482 8.664514 8.446496 9.177882 8.819482 8.981775 8.216026 9.495144 7.843039 8.86062 7.843039"/><polygon class="cls-2" points="11.122284 7.843039 10.926178 7.239583 10.730132 7.843039 10.095609 7.843039 10.608916 8.216026 10.412871 8.819482 10.926178 8.446496 11.439546 8.819482 11.243439 8.216026 11.756808 7.843039 11.122284 7.843039"/><polygon class="cls-2" points="8.161705 5.692093 7.965598 5.088637 7.769553 5.692093 7.13503 5.692093 7.648337 6.065019 7.452291 6.668476 7.965598 6.29555 8.478966 6.668476 8.28286 6.065019 8.796228 5.692093 8.161705 5.692093"/></svg>