<?xml version="1.0" encoding="UTF-8"?><svg id="flags_22px" xmlns="http://www.w3.org/2000/svg" viewBox="0 0 22 22"><defs><style>.cls-1{fill:#0030bf;}.cls-2{fill:#f5f5f5;}.cls-3{fill:#fff;}.cls-4{fill:#f70;}.cls-5{fill:#178c00;}</style></defs><path class="cls-3" d="M11.00007,0C4.924065,.001282,.001321,4.924133,.00004,11.000061c.001282,6.075867,4.924086,10.998657,11.000031,10.999939,6.075884-.001282,10.998688-4.924072,10.999969-10.999939C21.998758,4.924133,17.076015,.001282,11.00007,0Z"/><path class="cls-2" d="M2.522874,8.000305c-.332581,.939514-.522951,1.946228-.522951,2.999695s.190369,2.060242,.522951,2.999756H19.477144c.332581-.939514,.522951-1.946289,.522951-2.999756s-.190369-2.060181-.522951-2.999695H2.522874Z"/><path class="cls-4" d="M11.012094,2.000549h-.02417c-3.911815,.005188-7.229573,2.51001-8.46505,5.999756H19.477144c-1.235416-3.489746-4.553174-5.994568-8.46505-5.999756Z"/><path class="cls-5" d="M10.987924,19.999512h.02417c3.911876-.005188,7.229634-2.509949,8.46505-5.999756H2.522874c1.235477,3.489807,4.553235,5.994568,8.46505,5.999756Z"/><path class="cls-1" d="M11.000314,8.600037c-1.325443,0-2.399787,1.074585-2.399787,2.400024,0,1.325195,1.074344,2.39978,2.399787,2.39978,1.325016,0,2.399848-1.074585,2.399848-2.39978,0-1.325439-1.074832-2.400024-2.399848-2.400024Zm1.195499,4.123413c-.047485,.03302-.099671,.05835-.149842,.087402l-.563295-1.119263-.258729-.345337c.018738-.012146,.038757-.022278,.055237-.03717l.263612,.335754,.929263,.828552c-.042114,.042114-.080567,.087891-.126465,.126526l-.131104-.017395-.018677,.14093Zm-.971743-2.069763l.258607-.345154,.563356-1.119324c.050171,.029053,.102295,.054382,.149781,.087341l.018677,.140808,.130799-.017395c.04596,.038635,.084412,.084412,.126587,.126587l-.92908,.828674-.263551,.335693c-.01648-.014832-.036438-.025085-.055176-.037231Zm.133484-.41687l-.168152,.393555c-.020081-.010315-.040405-.0177-.062195-.024719l.159668-.398376,.2547-1.227722c.0578,.015503,.114685,.032654,.170411,.052856l.051331,.124756,.12677-.052612c.053467,.025208,.104187,.054688,.155091,.084167l-.687624,1.048096Zm-.728029-1.299194l.110169,.084473,.079407-.103577c.060669-.005249,.119141-.01825,.181214-.01825,.06189,0,.120179,.012939,.180726,.018188l.079407,.103638,.11023-.084473c.058228,.010437,.113587,.02655,.170044,.041687l-.39264,1.190979-.061463,.427185c-.021729-.0047-.04242-.011963-.065247-.013184l.05072-.424011-.071778-1.26001-.072266,1.26001,.051087,.424011c-.022949,.001221-.043762,.008484-.065552,.013245l-.061463-.427246-.39264-1.190857c.056458-.015137,.111817-.031372,.170044-.041809Zm-.843813,3.644897l-.13086,.017334c-.045899-.038696-.084473-.084534-.126648-.126648l.928652-.828369,.264161-.335999c.016541,.014893,.036682,.025146,.05542,.037354l-.258363,.345398-.563844,1.119141c-.050293-.029114-.102417-.054565-.149964-.087585l-.018555-.140625Zm.018555-3.305603c.047485-.03302,.099732-.058533,.149964-.087585l.563844,1.119202,.25824,.345276c-.018799,.012207-.038818,.022339-.055359,.037292l-.2641-.335876-.928469-.828552c.042236-.042175,.08075-.088013,.126709-.126709l.130616,.017395,.018555-.140442Zm.306031-.172241l.126526,.05249,.05127-.124573c.055725-.020142,.112671-.037415,.170472-.052917l.254761,1.2276,.159668,.398438c-.02179,.007019-.042175,.014465-.062195,.02478l-.168213-.393677-.687502-1.047913c.050903-.029419,.101685-.059021,.155213-.084229Zm-.833498,.699585l.140564-.018616-.017334-.130615c.038757-.046021,.084656-.084656,.126953-.126953l.828066,.928772,.336122,.264099c-.014893,.016479-.025086,.036499-.037232,.055298l-.345399-.258728-1.119083-.563538c.029053-.050171,.054321-.102295,.087342-.149719Zm-.08783,.150635l1.047854,.687683,.3938,.168274c-.010315,.02002-.017639,.040405-.024658,.062134l-.398683-.159973-1.22742-.255066c.015442-.057556,.032654-.114319,.052735-.1698l.124634-.051331-.052551-.126709c.025208-.053528,.05481-.104248,.08429-.155212Zm-.270509,1.225769c-.005249-.060486-.018189-.118713-.018189-.180603,0-.062012,.013001-.120361,.01825-.180969l.103638-.079468-.084534-.110107c.010437-.058472,.026856-.114075,.041992-.170715l1.190189,.39325,.42798,.061523c-.0047,.02179-.011963,.04248-.013184,.065369l-.424318-.050903-1.260013,.072021,1.260013,.072021,.424318-.050903c.001221,.022888,.008484,.043518,.013184,.065308l-.42798,.061584-1.190372,.392761c-.015137-.056519-.031433-.111938-.041809-.170227l.084534-.110168-.103699-.079773Zm.114075,.531067c-.020142-.055603-.037354-.112366-.052796-.170044l1.227542-.254883,.398622-.15979c.007019,.02179,.014404,.042175,.024719,.062195l-.3938,.168335-1.047916,.6875c-.02948-.050903-.059021-.101685-.084229-.155212l.052551-.126526-.124695-.051575Zm.244385,.484131c-.03302-.047485-.058411-.099731-.087525-.149963l1.119144-.563538,.345399-.258606c.012146,.018738,.0224,.038757,.037293,.055298l-.336183,.263977-.828188,.928833c-.042236-.042236-.088135-.080872-.126831-.126831l.017334-.130615-.140442-.018555Zm1.365665-.432556l.168335-.39386c.02002,.010254,.040344,.0177,.062073,.024719l-.159668,.398438-.254822,1.227783c-.057739-.015503-.114685-.032715-.170411-.052917l-.05127-.124573-.126465,.052551c-.053528-.025208-.104248-.054749-.155213-.084229l.687441-1.047913Zm.728151,1.299194l-.110291-.084534-.079407,.103699c-.060547,.005249-.118836,.018188-.180726,.018188-.062073,0-.120545-.013-.181214-.01825l-.079407-.103638-.11023,.084473c-.058228-.010437-.113587-.026733-.170044-.041809l.392701-1.190857,.061463-.427429c.021851,.004761,.042542,.011963,.065552,.013184l-.051087,.424316,.072266,1.26001,.071778-1.26001-.050781-.424255c.022827-.001221,.043579-.008484,.065308-.013184l.061463,.427368,.392701,1.19104c-.056458,.015076-.111817,.03125-.170044,.041687Zm.519289-.166931l-.126709-.052673-.051331,.124756c-.055664,.020142-.112549,.037354-.17035,.052856l-.254761-1.227905-.159668-.398376c.021729-.007019,.042053-.014404,.062073-.024658l.168274,.393738,.687563,1.048035c-.050903,.02948-.101563,.059021-.155091,.084229Zm.833315-.699707l-.140564,.018555,.017334,.130859c-.038696,.045959-.084473,.084473-.126648,.126709l-.82831-.928955-.335938-.263855c.014893-.016479,.025086-.036438,.037293-.055176l.345094,.258362,1.119266,.563599c-.029114,.050232-.054505,.102417-.087525,.149902Zm.087952-.150818l-1.047977-.6875-.393434-.168152c.010376-.020081,.017761-.040466,.02478-.062195l.398255,.159607,1.227542,.254761c-.015442,.057739-.032654,.114563-.052796,.170227l-.124695,.051514,.052551,.126587c-.025147,.053467-.05481,.104248-.084229,.155151Zm.270325-1.225952c.005249,.060608,.01825,.118958,.01825,.180969,0,.06189-.012939,.120178-.018189,.180664l-.103638,.079712,.084473,.110168c-.010376,.058228-.026672,.113586-.041748,.170044l-1.190921-.392578-.426942-.061462c.004761-.02179,.011963-.04248,.013184-.06543l.423768,.050903,1.260013-.072021-1.260013-.072021-.423768,.050903c-.001221-.022949-.008484-.04364-.013245-.065491l.427003-.061401,1.190799-.393127c.015137,.05658,.031433,.112183,.04187,.170593l-.084473,.110107,.103577,.079468Zm-.114014-.531006c.020081,.055542,.037293,.112305,.052735,.169922l-1.22742,.255005-.398255,.15979c-.00708-.021729-.014404-.041992-.02478-.062073l.393434-.168152,1.047916-.687744c.02948,.050903,.059021,.101685,.084229,.155212l-.05249,.12677,.124634,.05127Zm-1.276005,.229431l-.345094,.258545c-.012146-.018738-.0224-.038696-.037293-.055237l.335938-.263977,.828127-.928894c.042236,.042236,.088135,.080811,.126831,.126831l-.017334,.130859,.140686,.018677c.032959,.047363,.058289,.099487,.087342,.149658l-1.119205,.563538Z"/><path class="cls-2" d="M8.979435,11.540833l1.190372-.392761,.42798-.061584c-.0047-.02179-.011963-.042419-.013184-.065308l-.424318,.050903-1.260013-.072021c0,.06189,.012939,.120117,.018189,.180603l.103699,.079773-.084534,.110168c.010376,.058289,.026672,.113708,.041809,.170227Z"/><path class="cls-2" d="M10.979135,11.415527c-.02301-.001221-.043701-.008423-.065552-.013184l-.061463,.427429-.392701,1.190857c.056458,.015076,.111817,.031372,.170044,.041809l.11023-.084473,.079407,.103638c.060669,.005249,.119141,.01825,.181214,.01825l-.072266-1.26001,.051087-.424316Z"/><path class="cls-2" d="M11.346507,11.223999c-.012207,.018738-.0224,.038696-.037293,.055176l.335938,.263855,.82831,.928955c.042175-.042236,.087952-.08075,.126648-.126709l-.017334-.130859,.140564-.018555c.03302-.047485,.058411-.09967,.087525-.149902l-1.119266-.563599-.345094-.258362Z"/><path class="cls-2" d="M12.472059,12.473389l-.929263-.828552-.263612-.335754c-.01648,.014893-.036499,.025024-.055237,.03717l.258729,.345337,.563295,1.119263c.050171-.029053,.102356-.054382,.149842-.087402l.018677-.14093,.131104,.017395c.045899-.038635,.084351-.084412,.126465-.126526Z"/><path class="cls-2" d="M10.584603,10.978943c.001221-.022888,.008484-.043579,.013184-.065369l-.42798-.061523-1.190189-.39325c-.015137,.056641-.031555,.112244-.041992,.170715l.084534,.110107-.103638,.079468c-.005249,.060608-.01825,.118958-.01825,.180969l1.260013-.072021,.424318,.050903Z"/><path class="cls-2" d="M11.18928,11.369568c-.02002,.010254-.040344,.017639-.062073,.024658l.159668,.398376,.254761,1.227905c.0578-.015503,.114685-.032715,.17035-.052856l.051331-.124756,.126709,.052673c.053528-.025208,.104187-.054749,.155091-.084229l-.687563-1.048035-.168274-.393738Z"/><path class="cls-2" d="M11.086618,11.402405c-.021729,.0047-.042481,.011963-.065308,.013184l.050781,.424255-.071778,1.26001c.06189,0,.120179-.012939,.180726-.018188l.079407-.103699,.110291,.084534c.058228-.010437,.113587-.026611,.170044-.041687l-.392701-1.19104-.061463-.427368Z"/><path class="cls-2" d="M10.236823,12.842896l.05127,.124573c.055725,.020203,.112671,.037415,.170411,.052917l.254822-1.227783,.159668-.398438c-.021729-.007019-.042053-.014465-.062073-.024719l-.168335,.39386-.687441,1.047913c.050964,.02948,.101685,.059021,.155213,.084229l.126465-.052551Z"/><path class="cls-2" d="M11.416087,11.021179c-.001221,.022949-.008423,.04364-.013184,.06543l.426942,.061462,1.190921,.392578c.015076-.056458,.031372-.111816,.041748-.170044l-.084473-.110168,.103638-.079712c.005249-.060486,.018189-.118774,.018189-.180664l-1.260013,.072021-.423768-.050903Z"/><path class="cls-2" d="M9.188908,12.045044l1.047916-.6875,.3938-.168335c-.010315-.02002-.0177-.040405-.024719-.062195l-.398622,.15979-1.227542,.254883c.015442,.057678,.032654,.114441,.052796,.170044l.124695,.051575-.052551,.126526c.025208,.053528,.054749,.104309,.084229,.155212Z"/><path class="cls-2" d="M9.526861,12.471863l.828188-.928833,.336183-.263977c-.014893-.016541-.025147-.03656-.037293-.055298l-.345399,.258606-1.119144,.563538c.029114,.050232,.054505,.102478,.087525,.149963l.140442,.018555-.017334,.130615c.038696,.045959,.084595,.084595,.126831,.126831Z"/><path class="cls-2" d="M10.518074,11.691589l.258363-.345398c-.018738-.012207-.03888-.022461-.05542-.037354l-.264161,.335999-.928652,.828369c.042175,.042114,.08075,.087952,.126648,.126648l.13086-.017334,.018555,.140625c.047547,.03302,.099671,.058472,.149964,.087585l.563844-1.119141Z"/><path class="cls-2" d="M12.967666,11.711792c.020142-.055664,.037354-.112488,.052796-.170227l-1.227542-.254761-.398255-.159607c-.007019,.021729-.014404,.042114-.02478,.062195l.393434,.168152,1.047977,.6875c.029419-.050903,.059082-.101685,.084229-.155151l-.052551-.126587,.124695-.051514Z"/><path class="cls-2" d="M13.020645,10.458923l-1.190799,.393127-.427003,.061401c.004761,.021851,.012024,.042542,.013245,.065491l.423768-.050903,1.260013,.072021c0-.062012-.013001-.120361-.01825-.180969l-.103577-.079468,.084473-.110107c-.010437-.058411-.026733-.114014-.04187-.170593Z"/><path class="cls-2" d="M11.021371,10.58429c.022827,.001221,.043518,.008484,.065247,.013184l.061463-.427185,.39264-1.190979c-.056458-.015137-.111817-.03125-.170044-.041687l-.11023,.084473-.079407-.103638c-.060547-.005249-.118836-.018188-.180726-.018188l.071778,1.26001-.05072,.424011Z"/><path class="cls-2" d="M11.763317,9.157166l-.051331-.124756c-.055725-.020203-.11261-.037354-.170411-.052856l-.2547,1.227722-.159668,.398376c.02179,.007019,.042114,.014404,.062195,.024719l.168152-.393555,.687624-1.048096c-.050903-.02948-.101624-.05896-.155091-.084167l-.12677,.052612Z"/><path class="cls-2" d="M12.471876,9.52655c-.042175-.042175-.080628-.087952-.126587-.126587l-.130799,.017395-.018677-.140808c-.047485-.032959-.09961-.058289-.149781-.087341l-.563356,1.119324-.258607,.345154c.018738,.012146,.038696,.0224,.055176,.037231l.263551-.335693,.92908-.828674Z"/><path class="cls-2" d="M12.582777,9.785645l.017334-.130859c-.038696-.046021-.084595-.084595-.126831-.126831l-.828127,.928894-.335938,.263977c.014893,.016541,.025147,.036499,.037293,.055237l.345094-.258545,1.119205-.563538c-.029053-.050171-.054382-.102295-.087342-.149658l-.140686-.018677Z"/><path class="cls-2" d="M12.811232,9.954834l-1.047916,.687744-.393434,.168152c.010376,.020081,.0177,.040344,.02478,.062073l.398255-.15979,1.22742-.255005c-.015442-.057617-.032654-.11438-.052735-.169922l-.124634-.05127,.05249-.12677c-.025208-.053528-.054749-.104309-.084229-.155212Z"/><path class="cls-2" d="M10.913583,10.597534c.02179-.004761,.042603-.012024,.065552-.013245l-.051087-.424011,.072266-1.26001c-.062073,0-.120545,.013-.181214,.01825l-.079407,.103577-.110169-.084473c-.058228,.010437-.113587,.026672-.170044,.041809l.39264,1.190857,.061463,.427246Z"/><path class="cls-2" d="M10.653939,10.776245c.012146-.018799,.022339-.038818,.037232-.055298l-.336122-.264099-.828066-.928772c-.042297,.042297-.088196,.080933-.126953,.126953l.017334,.130615-.140564,.018616c-.03302,.047424-.058289,.099548-.087342,.149719l1.119083,.563538,.345399,.258728Z"/><path class="cls-2" d="M9.528386,9.526672l.928469,.828552,.2641,.335876c.016541-.014954,.03656-.025085,.055359-.037292l-.25824-.345276-.563844-1.119202c-.050232,.029053-.102478,.054565-.149964,.087585l-.018555,.140442-.130616-.017395c-.04596,.038696-.084473,.084534-.126709,.126709Z"/><path class="cls-2" d="M9.032596,10.288147c-.020081,.055481-.037293,.112244-.052735,.1698l1.22742,.255066,.398683,.159973c.007019-.021729,.014343-.042114,.024658-.062134l-.3938-.168274-1.047854-.687683c-.02948,.050964-.059082,.101685-.08429,.155212l.052551,.126709-.124634,.051331Z"/><path class="cls-2" d="M10.8108,10.630493c.02002-.010315,.040405-.017761,.062195-.02478l-.159668-.398438-.254761-1.2276c-.0578,.015503-.114746,.032776-.170472,.052917l-.05127,.124573-.126526-.05249c-.053528,.025208-.104309,.05481-.155213,.084229l.687502,1.047913,.168213,.393677Z"/></svg>