<?xml version="1.0" encoding="UTF-8"?><svg id="flags_22px" xmlns="http://www.w3.org/2000/svg" viewBox="0 0 22 22"><defs><style>.cls-1{fill:#f5f5f5;}.cls-2{fill:#fff;}.cls-3{fill:#f20000;}.cls-4{fill:#e50000;}</style></defs><path class="cls-2" d="M11.00007,0C4.924126,.001282,.001321,4.924086,.00004,11.000031c.001282,6.075823,4.924025,10.998688,11.000031,10.999969,6.075945-.001282,10.998688-4.924147,10.999969-10.999969C21.998758,4.924086,17.075954,.001282,11.00007,0Z"/><path class="cls-3" d="M10.999948,2.000006C6.029597,2.000006,2.000167,6.029436,2.000167,11.000092c0,4.733595,3.656932,8.605737,8.298485,8.964686h1.402653c4.641859-.358949,8.298729-4.231091,8.298729-8.964686,0-4.970656-4.02943-9.000086-9.000086-9.000086Z"/><polygon class="cls-3" points="11.017099 10.967926 11.019724 10.966583 11.019235 10.963714 11.016428 10.963287 11.015085 10.965912 11.017099 10.967926"/><path class="cls-1" d="M10.386848,8.14254l.065857,.041748c-.307557,.489137-.395692,1.09119-.242127,1.651067,.114746,.417909,.361146,.768801,.667971,.986575-.515626-.565614-.314393-1.473759,.485536-1.83405,.528139-.237427,.954531-1.215152,.564027-1.822515-.348817-.54297-.260682-1.128665,.350404-1.442692-2.91401-.199524-4.306714,3.615428-1.564152,5.082717-.268006-.229554-.472474-.561037-.579225-.949527-.159424-.580934-.067566-1.205692,.25171-1.713323Zm.16565-.769289l.242188,.224732,.307618-.121338-.138245,.300294,.210023,.255372-.328187-.039063-.177796,.278626-.063904-.323976-.320802-.082886,.289124-.161988-.02002-.329774Z"/><polygon class="cls-4" points="10.604195 7.947898 10.668099 8.271874 10.845895 7.993247 11.174082 8.03231 10.964059 7.776938 11.102304 7.476644 10.794686 7.597983 10.552498 7.37325 10.572518 7.703024 10.283393 7.865012 10.604195 7.947898"/><path class="cls-1" d="M11.076853,10.624663c.135743-.324769,.387513-.620302,.723024-.841067,.503908-.331361,1.126041-.437379,1.707524-.290711l-.019531,.075989c-.559816-.141419-1.159793-.039063-1.644719,.279664-.362672,.238709-.620302,.581728-.732424,.941287,.378114-.665895,1.30463-.756045,1.894353-.106018,.389405,.428956,1.451054,.53235,1.908514-.026917,.407899-.499696,.992556-.596315,1.480168-.112366-.710634-2.832283-4.767225-2.97828-5.316909,.080139Zm2.956612-.695436l-.177796,.278626-.064331-.323976-.319825-.082825,.288636-.161499-.020569-.330323,.243226,.224793,.307679-.121399-.138855,.300294,.210572,.254884-.328736-.038574Z"/><polygon class="cls-4" points="14.290485 9.412624 13.982805 9.534023 13.73958 9.30923 13.760149 9.639553 13.471513 9.801053 13.791338 9.883878 13.855669 10.207853 14.033465 9.929227 14.362201 9.967801 14.151629 9.712918 14.290485 9.412624"/><path class="cls-4" d="M11.843151,9.848538c.484926-.318726,1.084903-.421083,1.644719-.279664l.019531-.075989c-.581484-.146668-1.203617-.04065-1.707524,.290711-.335511,.220765-.587282,.516298-.723024,.841067-.037781,.090393-.060913,.184022-.080017,.277955-.041077-.02301-.079163-.052918-.118286-.080689-.306825-.217774-.553224-.568666-.667971-.986575-.153565-.559877-.06543-1.161929,.242127-1.651067l-.065857-.041748c-.319276,.507631-.411134,1.132388-.25171,1.713323,.106751,.38849,.311219,.719973,.579225,.949527,.07367,.063111,.154541,.113648,.237183,.16034-.034485,.031921-.074646,.058777-.113098,.087403-.301942,.224671-.711489,.350709-1.144962,.330872-.579958-.026856-1.125491-.297059-1.495427-.740847l-.06012,.05011c.384095,.460695,.949771,.740358,1.551823,.768862,.401063,.018555,.77875-.072571,1.079349-.255372,.083863-.051026,.157654-.113098,.228394-.177979,.019714,.042603,.032898,.089051,.048218,.134339,.120606,.356751,.113709,.785464-.039429,1.191287-.204712,.542909-.630068,.978213-1.16669,1.192996l.029053,.072815c.556703-.223206,.998294-.674318,1.211002-1.238407,.141602-.375978,.171387-.763491,.090393-1.106082-.022522-.095215-.058655-.184327-.098267-.271424,.046753-.005554,.095093-.003723,.143067-.004272,.376283-.004211,.781374,.134583,1.120059,.405091,.453248,.362977,.736086,.902285,.774111,1.47852l.078125-.00531c-.040161-.598329-.333009-1.157169-.803103-1.53394-.314515-.251038-.67383-.399232-1.024966-.427858-.097412-.007935-.193238-.001099-.28827,.009705,.009094-.045899,.025696-.090943,.039917-.136414,.112122-.359559,.369752-.702578,.732424-.941287Zm-.823916,1.115176l.000488,.002869-.002625,.001343-.002014-.002014,.001343-.002625,.002808,.000427Z"/><path class="cls-1" d="M13.187149,12.878332l-.078125,.00531c-.038025-.576235-.320863-1.115543-.774111-1.47852-.338685-.270509-.743776-.409303-1.120059-.405091,.749209,.154725,1.120487,1.007205,.685305,1.76856-.288087,.502809-.058533,1.544499,.614748,1.806707,.601442,.233765,.87427,.759829,.564577,1.372929,2.474128-1.551091,1.359257-5.455093-1.720403-5.031691,.351136,.028626,.710451,.176819,1.024966,.427858,.470094,.376771,.762942,.935611,.803103,1.53394Zm.318665,.719729l-.328187-.039002-.177857,.278565-.064331-.323976-.320313-.082886,.288636-.161988-.02002-.329774,.242676,.224793,.307618-.121338-.138733,.300721,.210511,.254884Z"/><polygon class="cls-4" points="13.126419 13.163794 12.883742 12.939001 12.903762 13.268775 12.615126 13.430762 12.935439 13.513648 12.999771 13.837624 13.177627 13.559059 13.505814 13.59806 13.295304 13.343177 13.434037 13.042456 13.126419 13.163794"/><path class="cls-1" d="M11.07966,12.381809c-.212708,.564088-.654299,1.015201-1.211002,1.238407l-.029053-.072815c.536623-.214783,.961978-.650087,1.16669-1.192996,.153138-.405824,.160035-.834536,.039429-1.191287,.084961,.760622-.611635,1.377628-1.470463,1.198612-.566713-.118164-1.486943,.422181-1.52808,1.143436-.036438,.64374-.45276,1.065921-1.131351,.96094,2.239752,1.873723,5.60756-.392335,4.254223-3.190378,.080994,.342591,.051209,.730105-.090393,1.106082Zm-1.61945,1.484806l-.177247,.278626-.064331-.324525-.320313-.082276,.288636-.161988-.020081-.329835,.242737,.224305,.307557-.120911-.138733,.300294,.210511,.254884-.328736-.038574Z"/><polygon class="cls-4" points="9.717169 13.350013 9.409612 13.470924 9.166874 13.246619 9.186955 13.576454 8.898319 13.738441 9.218632 13.820717 9.282963 14.145242 9.46021 13.866616 9.788946 13.90519 9.578435 13.650306 9.717169 13.350013"/><path class="cls-1" d="M8.137941,10.693267l.06012-.05011c.369935,.443788,.915469,.713991,1.495427,.740847,.433473,.019836,.84302-.106201,1.144962-.330872-.697084,.315797-1.499272-.155823-1.594548-1.027896-.062805-.575624-.860598-1.283756-1.559208-1.100101-.624269,.164612-1.153995-.10083-1.263797-.778811-1.089725,2.708809,2.105719,5.211257,4.348218,3.060433-.300599,.182801-.678286,.273927-1.079349,.255372-.602052-.028503-1.167728-.308167-1.551823-.768862Zm-.296082,.012146l-.064331-.324525-.320252-.082825,.288636-.161438-.020081-.329835,.242737,.224305,.307618-.12085-.138245,.300233,.209962,.254884-.328187-.039063-.177857,.279115Z"/><polygon class="cls-4" points="8.137941 10.210478 8.276186 9.910245 7.968568 10.031095 7.72583 9.80679 7.745911 10.136625 7.457275 10.298063 7.777527 10.380888 7.841858 10.705413 8.019715 10.426298 8.347902 10.465361 8.137941 10.210478"/></svg>