<?xml version="1.0" encoding="UTF-8"?><svg id="flags_22px" xmlns="http://www.w3.org/2000/svg" viewBox="0 0 22 22"><defs><style>.cls-1{fill:#00973d;}.cls-2{fill:#f5f5f5;}.cls-3{fill:#fff;}.cls-4{fill:#e50017;}</style></defs><path class="cls-3" d="M11,0C4.924072,.001282,.001282,4.924072,0,11c.001282,6.075867,4.924011,10.998718,11,11,6.075928-.001282,10.998718-4.924072,11-11C21.998718,4.924011,17.075867,.001282,11,0Z"/><path class="cls-2" d="M8.573608,8.000549v6.000061h10.903015c.332825-.939758,.523315-1.946716,.523315-3.000488,0-1.053467-.190369-2.06012-.522949-2.999573H8.573608Z"/><path class="cls-1" d="M19.47699,8.000549c-1.236633-3.493469-4.559937-6.000488-8.477112-6.000488-.841919,0-1.653381,.124084-2.42627,.340332v5.660156h10.903381Z"/><path d="M8.573608,19.65979c.772156,.216064,1.582764,.340027,2.423828,.340271h.004883c3.915833-.001038,7.23761-2.507324,8.474304-5.999451H8.573608v5.65918Z"/><path class="cls-4" d="M8.573608,8.000549V2.340393C4.783569,3.400635,2.000122,6.87146,2.000122,11.000122c0,4.128418,2.783447,7.599304,6.573486,8.659668V8.000549Z"/></svg>