<?xml version="1.0" encoding="UTF-8"?><svg id="flags_22px" xmlns="http://www.w3.org/2000/svg" viewBox="0 0 22 22"><defs><style>.cls-1{fill:#0049bf;}.cls-2{fill:#f5f5f5;}.cls-3{fill:#fff;}.cls-4{fill:#ff0009;}</style></defs><path class="cls-3" d="M11.000122,22c6.075818-.001282,10.998657-4.924059,10.999878-10.999939C21.998779,4.924059,17.075941,.001282,11.000122,0,4.924182,.001282,.001221,4.924059,0,11.000061c.001221,6.075879,4.924182,10.998657,11.000122,10.999939Z"/><path class="cls-4" d="M4.350316,17.05c1.556065,1.709327,3.756919,2.812623,6.221818,2.928837h.85622c4.770125-.22492,8.571846-4.152436,8.571846-8.978349,0-.007019-.001099-.013855-.001099-.020874h-6.543358l-9.105427,6.070386Z"/><path class="cls-2" d="M19.999101,10.979614c-.011475-4.960803-4.03549-8.979081-8.998857-8.979081-2.625424,0-4.980946,1.131068-6.626124,2.924198l9.081622,6.054883h6.543358Z"/><path class="cls-1" d="M13.455743,10.979614L4.374121,4.924731c-1.469637,1.601842-2.374198,3.730613-2.374198,6.075757,0,2.332388,.894917,4.45066,2.350394,6.049512l9.105427-6.070386Z"/></svg>