<?xml version="1.0" encoding="UTF-8"?><svg id="flags_22px" xmlns="http://www.w3.org/2000/svg" viewBox="0 0 22 22"><defs><style>.cls-1{fill:#008c3a;}.cls-2{fill:#e60026;}.cls-3{fill:#fff;}.cls-4{fill:#ffd000;}</style></defs><path class="cls-3" d="M11.000101,22c6.075974-.001282,10.998718-4.924134,10.999939-10.999969C21.998819,4.924073,17.075953,.001282,11.000101,0,4.924126,.001282,.00126,4.924073,.00004,11.000031c.001221,6.075835,4.923965,10.998688,11.000061,10.999969Z"/><path class="cls-4" d="M11.457267,2.022511h-.91421c-3.724591,.187505-6.846015,2.632268-8.028177,5.999478H19.485321c-1.18204-3.367211-4.303464-5.811974-8.028055-5.999478Z"/><path class="cls-2" d="M11.000101,19.999706c3.908678,0,7.225664-2.496156,8.468741-5.977749H2.531482c1.243076,3.481593,4.560185,5.977749,8.468619,5.977749Z"/><path class="cls-1" d="M20.000106,10.99942c0-1.045131-.187261-2.04424-.514785-2.97743H2.51488c-.327524,.93319-.514785,1.932299-.514785,2.97743,0,1.062038,.193487,2.076529,.531387,3.022536H19.468841c.337778-.946008,.531265-1.960498,.531265-3.022536Z"/></svg>