<?xml version="1.0" encoding="UTF-8"?><svg id="flags_22px" xmlns="http://www.w3.org/2000/svg" viewBox="0 0 22 22"><defs><style>.cls-1{fill:#004aaf;}.cls-2{fill:#f5f5f5;}.cls-3{fill:#fff;}.cls-4{fill:#ff0005;}</style></defs><path class="cls-3" d="M11.000101,22c6.075907-.001282,10.998718-4.92408,10.999939-10.999969C21.998819,4.924018,17.075885,.001282,11.000101,0,4.924194,.001282,.00126,4.924018,.00004,11.000031c.001221,6.07589,4.924032,10.998688,11.000061,10.999969Z"/><path class="cls-4" d="M20.000128,11.002106v-.004883c-.000977-3.915765-2.507244-7.237649-5.999612-8.474239V19.47665c3.492368-1.236589,5.998635-4.558596,5.999612-8.474544Z"/><path class="cls-2" d="M11.000101,19.99985c1.053728,0,2.060703-.190432,3.000416-.523201V2.522984c-.86769-.307255-1.794219-.485602-2.761032-.511115h-.478768c-.966569,.025513-1.892854,.203799-2.760422,.510932V19.476833c.939591,.332646,1.946321,.523018,2.999806,.523018Z"/><path class="cls-1" d="M8.000295,2.522801C4.507073,3.759513,2.000195,7.08274,2.000195,10.999664c0,3.917108,2.506878,7.240396,6.0001,8.477168V2.522801Z"/></svg>