<?xml version="1.0" encoding="UTF-8"?><svg id="flags_22px" xmlns="http://www.w3.org/2000/svg" viewBox="0 0 22 22"><defs><style>.cls-1{fill:#0067cc;}.cls-2{fill:#f5f5f5;}.cls-3{fill:#fff;}</style></defs><path class="cls-3" d="M11.000162,22c6.075873-.001282,10.998657-4.924161,10.999878-11C21.998819,4.924039,17.075913,.001282,11.000162,0,4.924167,.001282,.00126,4.923978,.00004,11c.001221,6.075839,4.924005,10.998718,11.000122,11Z"/><path class="cls-2" d="M10.914345,19.9959h.171633c.046143-.000488,.090821-.005798,.13672-.006897h-.445073c.045899,.001099,.090577,.006409,.13672,.006897Z"/><path class="cls-2" d="M11.000162,2.000011c-.024903,0-.048951,.00354-.073853,.003723h.147585c-.024781-.000183-.048829-.003723-.073731-.003723Z"/><path class="cls-2" d="M12.118826,19.923511c3.618815-.44971,6.565625-3.043779,7.534996-6.474279h-7.534996v6.474279Z"/><path class="cls-2" d="M2.346135,13.449232c.716561,2.536208,2.513944,4.612208,4.866387,5.706758v-5.706758H2.346135Z"/><path class="cls-2" d="M7.212522,2.844254c-2.350246,1.093512-4.146408,3.16646-4.864434,5.699311H7.212522V2.844254Z"/><path class="cls-2" d="M19.651991,8.543565c-.971568-3.426899-3.916792-6.017428-7.533165-6.466833v6.466833h7.533165Z"/><path class="cls-1" d="M2.346135,13.449232H7.212522v5.706758c1.088635,.506534,2.292872,.801823,3.565103,.833012h.445073c.302738-.007446,.601569-.02887,.896128-.065491v-6.474279h7.534996c.220339-.779606,.346195-1.598947,.346195-2.44911,0-.852849-.126466-1.674753-.348026-2.456557h-7.533165V2.076733c-.343143-.042664-.690804-.07013-1.044933-.072998h-.147585c-1.327407,.010803-2.582426,.314089-3.713786,.84052v5.699311H2.348088c-.221682,.781804-.348148,1.603708-.348148,2.456557,0,.850163,.125978,1.669504,.346195,2.44911Z"/></svg>