<?xml version="1.0" encoding="UTF-8"?><svg id="flags_22px" xmlns="http://www.w3.org/2000/svg" viewBox="0 0 22 22"><defs><style>.cls-1{fill:#0037a6;}.cls-2{fill:#f5f5f5;}.cls-3{fill:#fff;}.cls-4{fill:red;}</style></defs><path class="cls-3" d="M11.00007,0C4.924073,.001282,.001321,4.92408,.00004,11c.001282,6.075859,4.924033,10.998718,11.000031,11,6.075936-.001282,10.998688-4.924141,10.999969-11C21.998758,4.92408,17.076007,.001282,11.00007,0Z"/><path class="cls-4" d="M2.001283,11.02356c.013184,4.959299,4.036484,8.975812,8.99891,8.975812s8.98542-4.016513,8.998604-8.975812H2.001283Z"/><path class="cls-2" d="M11.482634,2.023821h-.482564V11.02356h8.998727c0-.008118,.001221-.01587,.001221-.023988,0-4.807621-3.772679-8.723544-8.517383-8.975751Z"/><path class="cls-1" d="M11.00007,2.023821h-.48232C5.773046,2.276028,2.000062,6.191952,2.000062,10.999573c0,.008118,.001221,.01587,.001221,.023988H11.00007V2.023821Z"/><polygon class="cls-2" points="7.686578 6.368839 7.181125 4.814152 6.676099 6.368839 5.040899 6.368839 6.363769 7.329691 5.858804 8.884195 7.181125 7.923648 8.503384 8.884195 7.99848 7.329691 9.32074 6.368839 7.686578 6.368839"/></svg>