<?xml version="1.0" encoding="UTF-8"?><svg id="flags_22px" xmlns="http://www.w3.org/2000/svg" viewBox="0 0 22 22"><defs><style>.cls-1{fill:#0062d9;}.cls-2{fill:#f5f5f5;}.cls-3{fill:#ff3b0a;}.cls-4{fill:#fff;}.cls-5{fill:#fd0;}.cls-6{fill:red;}</style></defs><path class="cls-4" d="M11.000061,0C4.9241,.001282,.001221,4.924086,0,11.000031c.001221,6.075884,4.9241,10.998688,11.000061,10.999969,6.075839-.001282,10.998718-4.924086,10.999939-10.999969C21.998779,4.924086,17.0759,.001282,11.000061,0Z"/><path class="cls-6" d="M11.000061,19.999933c3.916892,0,7.239908-2.506538,8.476854-5.999345H2.523329c1.236945,3.492808,4.559962,5.999345,8.476732,5.999345Z"/><path class="cls-1" d="M8.647265,8.001121l-.0271,.398378c-.087525,1.285343-.961309,2.382331-2.195081,2.75544-1.232551-.373109-2.107434-1.470097-2.193982-2.75544l-.026978-.398378h-1.681406c-.332521,.939334-.522708,1.945806-.522708,2.999032,0,1.053775,.190553,2.060736,.523318,3.000436H19.476915c.332766-.9397,.523318-1.946661,.523318-3.000436,0-1.053226-.190309-2.059698-.522708-2.999032H8.647265Z"/><path class="cls-2" d="M4.036888,5.537979l.167848-.074951,.000366,.00647c1.416878-.614992,3.022478-.614992,4.440943,.000061l.000488-.006531,.167848,.074951-.167115,2.463142h10.83026c-1.233283-3.48469-4.542994-5.986528-8.44719-5.999528h-.060547c-3.904074,.013001-7.213785,2.514839-8.447068,5.999528h1.681406l-.167237-2.463142Z"/><path class="cls-1" d="M4.713405,9.499721c.049317,.098145,.104004,.192261,.163697,.283875,.358889,.550294,.894536,.980777,1.547982,1.19086,.653568-.210084,1.188971-.640627,1.54786-1.190982,.059327-.091004,.11377-.18451,.162843-.281861,.17212-.341737,.285036-.716677,.31238-1.113773l.197877-2.918282c-1.418465-.615053-3.024065-.615053-4.440943-.000061l.197999,2.918343c.026611,.396363,.138917,.770693,.310304,1.111881Zm3.098162,.190491c-.157716,.054321-.334963,.048767-.49158-.04126-.184693-.107117-.411501-.107117-.596195,0-.184693,.106629-.411623,.106629-.597293,0-.184693-.107117-.411623-.107117-.597293,0-.155274,.089905-.332155,.095642-.489871,.041565-.056763-.086182-.124146-.164246-.171021-.256715,.185914,.141907,.446169,.167115,.660892,.043091,.18567-.107056,.4126-.107056,.597293,0,.18567,.106079,.4126,.106079,.597293,0,.184693-.107056,.411501-.107056,.596195,0,.216798,.124329,.47742,.098328,.662968-.044617-.047119,.092896-.114503,.171387-.171388,.257935Zm-1.386482,1.102725c-.50635-.174439-.928838-.498598-1.250373-.905459,.119752,.011658,.242799-.001648,.354494-.065979,.18567-.107117,.4126-.107117,.597293,0,.18567,.106568,.4126,.106568,.597293,0,.184693-.107117,.411501-.107117,.596195,0,.112672,.064392,.236085,.077759,.355959,.065979-.321657,.406861-.744389,.73102-1.250861,.905459Zm.47803-5.401687l.148805,.034851,.044434-.146668,.04541,.146668,.148682-.034851-.103394,.111817,.103394,.111939-.148682-.033753-.04541,.14563-.044434-.14563-.148805,.033753,.104493-.111939-.104493-.111817Zm-.672245,.895999l.149903,.034851,.044312-.147828,.04541,.147828,.148805-.034851-.104493,.111817,.104493,.111939-.148805-.034851-.04541,.146668-.044312-.146668-.149903,.034851,.104615-.111939-.104615-.111817Zm-.671146-.895999l.148805,.034851,.044312-.146668,.04541,.146668,.149903-.034851-.104493,.111817,.104493,.111939-.149903-.033753-.04541,.14563-.044312-.14563-.148805,.033753,.104493-.111939-.104493-.111817Zm-.030518,2.201422l.358767,.477479,.537112-1.073733,.538211,1.073733,.356691-.477479,.896001,1.194095c-.027466,.123902-.083619,.234986-.127076,.352113-.17798,.237549-.503421,.31775-.768925,.165528-.184693-.107666-.411501-.107666-.596195,0-.184693,.106629-.411623,.106629-.597293,0-.184693-.107666-.411623-.107666-.597293,0-.262819,.151795-.587772,.072266-.766972-.163514-.043823-.117737-.100342-.229493-.128052-.354127l.895024-1.194095Z"/><path class="cls-2" d="M7.319987,9.476894c-.184693-.107056-.411501-.107056-.596195,0-.184693,.106079-.411623,.106079-.597293,0-.184693-.107056-.411623-.107056-.597293,0-.214723,.124024-.474978,.098816-.660892-.043091,.046875,.092469,.114258,.170533,.171021,.256715,.157716,.054077,.334597,.04834,.489871-.041565,.18567-.107117,.4126-.107117,.597293,0,.18567,.106629,.4126,.106629,.597293,0,.184693-.107117,.411501-.107117,.596195,0,.156617,.090027,.333864,.095581,.49158,.04126,.056885-.086548,.124268-.16504,.171388-.257935-.185548,.142945-.446169,.168946-.662968,.044617Z"/><path class="cls-2" d="M6.723792,9.821499c-.184693,.106568-.411623,.106568-.597293,0-.184693-.107117-.411623-.107117-.597293,0-.111695,.064331-.234743,.077637-.354494,.065979,.321535,.406861,.744023,.73102,1.250373,.905459,.506473-.174439,.929204-.498598,1.250861-.905459-.119874,.01178-.243287-.001587-.355959-.065979-.184693-.107117-.411501-.107117-.596195,0Z"/><path class="cls-2" d="M5.529205,9.304408c.18567-.107666,.4126-.107666,.597293,0,.18567,.106629,.4126,.106629,.597293,0,.184693-.107666,.411501-.107666,.596195,0,.265504,.152222,.590946,.072022,.768925-.165528,.043457-.117127,.09961-.228211,.127076-.352113l-.896001-1.194095-.356691,.477479-.538211-1.073733-.537112,1.073733-.358767-.477479-.895024,1.194095c.02771,.124634,.084229,.23639,.128052,.354127,.1792,.235779,.504153,.315308,.766972,.163514Z"/><polygon class="cls-5" points="6.380773 6.476153 6.425084 6.622821 6.470495 6.476153 6.619299 6.511004 6.514807 6.399066 6.619299 6.287249 6.470495 6.3221 6.425084 6.174273 6.380773 6.3221 6.23087 6.287249 6.335484 6.399066 6.23087 6.511004 6.380773 6.476153"/><polygon class="cls-5" points="5.708528 5.581253 5.75284 5.726884 5.79825 5.581253 5.948153 5.615006 5.84366 5.503067 5.948153 5.39125 5.79825 5.426101 5.75284 5.279434 5.708528 5.426101 5.559723 5.39125 5.664216 5.503067 5.559723 5.615006 5.708528 5.581253"/><polygon class="cls-5" points="7.051919 5.581253 7.096353 5.726884 7.141763 5.581253 7.290446 5.615006 7.187052 5.503067 7.290446 5.39125 7.141763 5.426101 7.096353 5.279434 7.051919 5.426101 6.903114 5.39125 7.007607 5.503067 6.903114 5.615006 7.051919 5.581253"/><path class="cls-3" d="M8.646532,5.463028l-.000488,.006531-.197877,2.918282c-.027344,.397096-.14026,.772036-.31238,1.113773-.049073,.097351-.103516,.190857-.162843,.281861-.358889,.550356-.894292,.980899-1.54786,1.190982-.653446-.210084-1.189094-.640566-1.547982-1.19086-.059693-.091614-.114381-.18573-.163697-.283875-.171388-.341187-.283693-.715517-.310304-1.111881l-.197999-2.918343-.000366-.00647-.167848,.074951,.167237,2.463142,.026978,.398378c.086548,1.285343,.961431,2.382331,2.193982,2.75544,1.233771-.373109,2.107556-1.470097,2.195081-2.75544l.0271-.398378,.167115-2.463142-.167848-.074951Z"/></svg>