<?xml version="1.0" encoding="UTF-8"?><svg id="flags_22px" xmlns="http://www.w3.org/2000/svg" viewBox="0 0 22 22"><defs><style>.cls-1{fill:#0020bf;}.cls-2{fill:#f5f5f5;}.cls-3{fill:#e60013;}.cls-4{fill:#fff;}</style></defs><path class="cls-4" d="M11.000031,0C4.924033,.001282,.001282,4.924094,0,11.000031c.001282,6.075875,4.924094,10.998688,11.000031,10.999969,6.075875-.001282,10.998688-4.924094,10.999969-10.999969C21.998718,4.924094,17.075967,.001282,11.000031,0Z"/><path class="cls-2" d="M6.218826,18.615216H15.781296c.6235-.392289,1.19579-.855993,1.703745-1.384579H4.515019c.507956,.528586,1.080306,.99229,1.703806,1.384579Z"/><path class="cls-2" d="M11.239665,4.769486h6.245377c-.508017-.528647-1.080245-.992229-1.703806-1.384579h-4.541571v1.384579Z"/><path class="cls-2" d="M3.424337,15.846057h15.151448c.280895-.438251,.529441-.898841,.732086-1.384579H2.692251c.202645,.485738,.451191,.946328,.732086,1.384579Z"/><path class="cls-2" d="M2.035241,11.69232c.036073,.473103,.109135,.934731,.215585,1.384579H19.749296c.10645-.449848,.179512-.911476,.215585-1.384579H2.035241Z"/><path class="cls-2" d="M11.239665,7.538644h8.068207c-.202584-.485738-.45113-.946389-.732086-1.384579h-7.336121v1.384579Z"/><path class="cls-2" d="M11.239665,10.307802h8.725278c-.036134-.473103-.109135-.934731-.215585-1.384579H11.239665v1.384579Z"/><path class="cls-3" d="M15.781235,3.384906c-1.322565-.832249-2.874082-1.328669-4.541571-1.372677v1.372677h4.541571Z"/><path class="cls-3" d="M11.239665,6.154065h7.336121c-.318678-.497152-.683378-.960672-1.090744-1.384579h-6.245377v1.384579Z"/><path class="cls-3" d="M11.239665,8.923223h8.509693c-.112737-.476399-.256358-.940774-.441486-1.384579H11.239665v1.384579Z"/><path class="cls-3" d="M11.239665,10.307802v1.384518h8.725217c.017518-.229258,.034975-.458637,.034975-.692412,0-.233652-.017457-.46291-.034914-.692106H11.239665Z"/><path class="cls-3" d="M2.692251,14.461478H19.307871c.185127-.443744,.328688-.908119,.441425-1.384579H2.250826c.112737,.47646,.256297,.940835,.441425,1.384579Z"/><path class="cls-3" d="M4.515019,17.230636h12.970022c.407366-.423907,.772066-.887427,1.090744-1.384579H3.424337c.318678,.497152,.683317,.960672,1.090683,1.384579Z"/><path class="cls-3" d="M10.993988,19.999734h.012085c1.756726-.00116,3.3904-.513144,4.775223-1.384518H6.218826c1.384823,.871374,3.018436,1.383358,4.775162,1.384518Z"/><path class="cls-1" d="M3.180919,6.554777c-.023377,.040956-.0506,.079288-.073306,.12061h.034059l.039247-.12061Z"/><path class="cls-1" d="M7.731462,2.621569c-.135137,.052737-.269115,.106999-.400957,.166023h.346999l.053957-.166023Z"/><path class="cls-1" d="M11.239665,10.307802V2.01223c-.079166-.002075-.156379-.011841-.236033-.011902h-.007202c-1.10582,.000427-2.160429,.209848-3.138925,.575097l.069034,.212167h.402605l-.325575,.236399,.124517,.383073-.326124-.236399-.326063,.236399,.124517-.383073-.303357-.220285c-1.671456,.756501-3.065862,2.007591-4.004988,3.568081l.098698,.303602h.402605l-.325575,.236338,.124517,.383134-.326063-.236399-.325575,.236399,.123968-.383134-.055727-.040468c-.13056,.252208-.249766,.510702-.35646,.776094h.006958l-.009461,.006897c-.074527,.185738-.144659,.373673-.206918,.56527l.015381,.047304-.025819-.018739c-.1106,.344497-.199166,.69821-.267955,1.05937l.092167,.283703h.402605l-.325514,.236399,.124517,.383134-.326063-.236399-.078189,.056765c-.03412,.318495-.053896,.641262-.053896,.968851,0,.233774,.017457,.463154,.034975,.692412H11.239665v-1.384518Z"/><path class="cls-2" d="M7.475897,3.407063l.326063-.236399,.326124,.236399-.124517-.383073,.325575-.236399h-.402605l-.069034-.212167c-.041933,.015687-.084415,.029908-.126043,.046144l-.053957,.166023h-.346999c-.011353,.005066-.022157,.010987-.033449,.016114l.303357,.220285-.124517,.383073Z"/><polygon class="cls-2" points="10.069877 2.40458 9.945299 2.787592 9.542206 2.787592 9.86827 3.023991 9.743753 3.407063 10.069877 3.170664 10.395391 3.407063 10.271363 3.023991 10.596999 2.787592 10.194394 2.787592 10.069877 2.40458"/><polygon class="cls-2" points="6.668063 3.376483 6.543546 3.759556 6.140942 3.759556 6.467005 3.995955 6.342488 4.378966 6.668063 4.142567 6.993638 4.378966 6.86961 3.995955 7.195185 3.759556 6.792641 3.759556 6.668063 3.376483"/><polygon class="cls-2" points="8.935919 3.376483 8.811402 3.759556 8.408797 3.759556 8.734372 3.995955 8.610344 4.378966 8.935919 4.142567 9.261494 4.378966 9.137465 3.995955 9.46304 3.759556 9.060436 3.759556 8.935919 3.376483"/><polygon class="cls-2" points="5.534166 4.348387 5.409588 4.731459 5.007044 4.731459 5.332558 4.967919 5.208041 5.350992 5.534166 5.114593 5.860229 5.350992 5.735712 4.967919 6.061776 4.731459 5.658622 4.731459 5.534166 4.348387"/><polygon class="cls-2" points="7.80196 4.348387 7.677505 4.731459 7.274839 4.731459 7.600414 4.967919 7.475897 5.350992 7.80196 5.114593 8.128085 5.350992 8.003568 4.967919 8.329143 4.731459 7.926538 4.731459 7.80196 4.348387"/><polygon class="cls-2" points="10.069877 4.348387 9.945299 4.731459 9.542206 4.731459 9.86827 4.967919 9.743753 5.350992 10.069877 5.114593 10.395391 5.350992 10.271363 4.967919 10.596999 4.731459 10.194394 4.731459 10.069877 4.348387"/><polygon class="cls-2" points="4.400696 5.320351 4.275691 5.703423 3.873025 5.703423 4.19921 5.939822 4.074632 6.322895 4.400146 6.086496 4.726271 6.322895 4.601754 5.939822 4.927329 5.703423 4.524724 5.703423 4.400696 5.320351"/><polygon class="cls-2" points="6.668063 5.320351 6.543546 5.703423 6.140942 5.703423 6.467005 5.939822 6.342488 6.322895 6.668063 6.086496 6.993638 6.322895 6.86961 5.939822 7.195185 5.703423 6.792641 5.703423 6.668063 5.320351"/><polygon class="cls-2" points="8.935919 5.320351 8.811402 5.703423 8.408797 5.703423 8.734372 5.939822 8.610344 6.322895 8.935919 6.086496 9.261494 6.322895 9.137465 5.939822 9.46304 5.703423 9.060436 5.703423 8.935919 5.320351"/><path class="cls-2" d="M2.940674,7.294859l.325575-.236399,.326063,.236399-.124517-.383134,.325575-.236338h-.402605l-.098698-.303602c-.036806,.061221-.075748,.120855-.11115,.182991l-.039247,.12061h-.034059c-.035158,.063968-.065066,.130926-.098698,.19587l.055727,.040468-.123968,.383134Z"/><polygon class="cls-2" points="5.534166 6.292315 5.409588 6.675388 5.007044 6.675388 5.332558 6.911726 5.208041 7.294859 5.534166 7.05846 5.860229 7.294859 5.735712 6.911726 6.061776 6.675388 5.658622 6.675388 5.534166 6.292315"/><polygon class="cls-2" points="7.80196 6.292315 7.677505 6.675388 7.274839 6.675388 7.600414 6.911726 7.475897 7.294859 7.80196 7.05846 8.128085 7.294859 8.003568 6.911726 8.329143 6.675388 7.926538 6.675388 7.80196 6.292315"/><polygon class="cls-2" points="10.069877 6.292315 9.945299 6.675388 9.542206 6.675388 9.86827 6.911726 9.743753 7.294859 10.069877 7.05846 10.395391 7.294859 10.271363 6.911726 10.596999 6.675388 10.194394 6.675388 10.069877 6.292315"/><path class="cls-2" d="M2.443034,8.219519c-.003113,.009705-.007325,.018861-.010437,.028566l.025819,.018739-.015381-.047304Z"/><polygon class="cls-2" points="2.652454 7.647352 2.649952 7.654249 2.659412 7.647352 2.652454 7.647352"/><polygon class="cls-2" points="4.400696 7.264279 4.275691 7.647352 3.873025 7.647352 4.19921 7.883751 4.074632 8.266824 4.400146 8.030425 4.726271 8.266824 4.601754 7.883751 4.927329 7.647352 4.524724 7.647352 4.400696 7.264279"/><polygon class="cls-2" points="6.668063 7.264279 6.543546 7.647352 6.140942 7.647352 6.467005 7.883751 6.342488 8.266824 6.668063 8.030425 6.993638 8.266824 6.86961 7.883751 7.195185 7.647352 6.792641 7.647352 6.668063 7.264279"/><polygon class="cls-2" points="8.935919 7.264279 8.811402 7.647352 8.408797 7.647352 8.734372 7.883751 8.610344 8.266824 8.935919 8.030425 9.261494 8.266824 9.137465 7.883751 9.46304 7.647352 9.060436 7.647352 8.935919 7.264279"/><polygon class="cls-2" points="3.266249 8.236183 3.141671 8.619255 2.739128 8.619255 3.064642 8.855654 2.940674 9.238727 3.266249 9.002328 3.592313 9.238727 3.467796 8.855654 3.793371 8.619255 3.390766 8.619255 3.266249 8.236183"/><polygon class="cls-2" points="5.534166 8.236183 5.409588 8.619255 5.007044 8.619255 5.332558 8.855654 5.208041 9.238727 5.534166 9.002328 5.860229 9.238727 5.735712 8.855654 6.061776 8.619255 5.658622 8.619255 5.534166 8.236183"/><polygon class="cls-2" points="7.80196 8.236183 7.677505 8.619255 7.274839 8.619255 7.600414 8.855654 7.475897 9.238727 7.80196 9.002328 8.128085 9.238727 8.003568 8.855654 8.329143 8.619255 7.926538 8.619255 7.80196 8.236183"/><polygon class="cls-2" points="10.069877 8.236183 9.945299 8.619255 9.542206 8.619255 9.86827 8.855654 9.743753 9.238727 10.069877 9.002328 10.395391 9.238727 10.271363 8.855654 10.596999 8.619255 10.194394 8.619255 10.069877 8.236183"/><path class="cls-2" d="M2.458415,10.210691l-.124517-.383134,.325514-.236399h-.402605l-.092167-.283703c-.045412,.238352-.084293,.478963-.110478,.723602l.078189-.056765,.326063,.236399Z"/><polygon class="cls-2" points="4.524724 9.591158 4.400696 9.208086 4.275691 9.591158 3.873025 9.591158 4.19921 9.827557 4.074632 10.210691 4.400146 9.974292 4.726271 10.210691 4.601754 9.827557 4.927329 9.591158 4.524724 9.591158"/><polygon class="cls-2" points="6.792641 9.591158 6.668063 9.208086 6.543546 9.591158 6.140942 9.591158 6.467005 9.827557 6.342488 10.210691 6.668063 9.974292 6.993638 10.210691 6.86961 9.827557 7.195185 9.591158 6.792641 9.591158"/><polygon class="cls-2" points="9.060436 9.591158 8.935919 9.208086 8.811402 9.591158 8.408797 9.591158 8.734372 9.827557 8.610344 10.210691 8.935919 9.974292 9.261494 10.210691 9.137465 9.827557 9.46304 9.591158 9.060436 9.591158"/><polygon class="cls-2" points="3.390766 10.563184 3.266249 10.180111 3.141671 10.563184 2.739128 10.563184 3.064642 10.799583 2.940674 11.182594 3.266249 10.946195 3.592313 11.182594 3.467796 10.799583 3.793371 10.563184 3.390766 10.563184"/><polygon class="cls-2" points="5.658622 10.563184 5.534166 10.180111 5.409588 10.563184 5.007044 10.563184 5.332558 10.799583 5.208041 11.182594 5.534166 10.946195 5.860229 11.182594 5.735712 10.799583 6.061776 10.563184 5.658622 10.563184"/><polygon class="cls-2" points="7.926538 10.563184 7.80196 10.180111 7.677505 10.563184 7.274839 10.563184 7.600414 10.799583 7.475897 11.182594 7.80196 10.946195 8.128085 11.182594 8.003568 10.799583 8.329143 10.563184 7.926538 10.563184"/><polygon class="cls-2" points="10.194394 10.563184 10.069877 10.180111 9.945299 10.563184 9.542206 10.563184 9.86827 10.799583 9.743753 11.182594 10.069877 10.946195 10.395391 11.182594 10.271363 10.799583 10.596999 10.563184 10.194394 10.563184"/></svg>