<?xml version="1.0" encoding="UTF-8"?><svg id="flags_22px" xmlns="http://www.w3.org/2000/svg" viewBox="0 0 22 22"><defs><style>.cls-1{fill:#0037a6;}.cls-2{fill:#f5f5f5;}.cls-3{fill:#fff;}.cls-4{fill:#ff0015;}</style></defs><path class="cls-3" d="M11.000122,0C4.924194,.001282,.001221,4.924025,0,10.999969c.001221,6.075945,4.924072,10.998749,11.000122,11.000031,6.075928-.001282,10.998657-4.924147,10.999878-11.000031C21.998779,4.924025,17.075928,.001282,11.000122,0Z"/><path class="cls-4" d="M2.295166,13.25022c.529663,2.053472,1.761353,3.819774,3.429321,5.030654v-5.030654H2.295166Z"/><path class="cls-4" d="M10.224365,19.960932c.255859,.021851,.513184,.039063,.774658,.039124h.002441c4.191284-.000488,7.703247-2.870613,8.703735-6.749836H10.224365v6.710712Z"/><path class="cls-4" d="M5.724487,3.719188c-1.668213,1.210941-2.899902,2.977486-3.429443,5.031142h3.429443V3.719188Z"/><path class="cls-4" d="M19.705322,8.750329c-.999634-3.876781-4.50769-6.745441-8.695435-6.749897h-.019287c-.258545,.000305-.513184,.017029-.766235,.038696v6.7112h9.480957Z"/><path class="cls-2" d="M6.849976,12.125217H2.077881c.047974,.383607,.122681,.757998,.217285,1.125003h3.429321v5.030654c.357178,.259278,.731445,.494996,1.125488,.700319v-6.855976Z"/><path class="cls-2" d="M6.849976,8.750329V3.018868c-.394043,.205323-.768311,.441041-1.125488,.700319v5.031142H2.295044c-.094604,.367005-.169312,.741396-.217285,1.124942H6.849976v-1.124942Z"/><path class="cls-2" d="M9.099365,9.875272h10.82312c-.047852-.383546-.122559-.757937-.217163-1.124942H10.224365V2.039129c-.382202,.032715-.757935,.087097-1.125,.166077v7.670065Z"/><path class="cls-2" d="M9.099365,13.25022v6.544635c.367065,.07898,.742798,.133362,1.125,.166077v-6.710712h9.480835c.094727-.367005,.169434-.741396,.217285-1.125003H9.099365v1.125003Z"/><path class="cls-1" d="M9.099365,9.875272V2.205206c-.794312,.170899-1.548218,.448243-2.24939,.813662v6.856403H2.077759c-.046143,.369264-.077637,.742983-.077637,1.124759,0,.381898,.031494,.7558,.077759,1.125186H6.849976v6.855976c.701172,.365418,1.455078,.642763,2.24939,.813662v-7.669638h10.82312c.046143-.369386,.077759-.743288,.077759-1.125186,0-.381776-.031616-.755495-.077759-1.124759H9.099365Z"/></svg>