<?xml version="1.0" encoding="UTF-8"?><svg id="flags_22px" xmlns="http://www.w3.org/2000/svg" viewBox="0 0 22 22"><defs><style>.cls-1{fill:#f5f5f5;}.cls-2{fill:#fff;}.cls-3{fill:#ff0005;}</style></defs><path class="cls-2" d="M11.000137,22c6.075932-.001282,10.998718-4.924101,10.999939-11C21.998855,4.92404,17.076069,.001282,11.000137,0,4.924082,.001282,.001296,4.924101,.000076,11c.001221,6.075899,4.924007,10.998718,11.000061,11Z"/><path class="cls-3" d="M11.000259,2.001271c-3.896356,0-7.204663,2.480545-8.456937,5.944971H19.456952c-1.252274-3.464426-4.560581-5.944971-8.456693-5.944971Z"/><path class="cls-3" d="M10.020829,19.945626h1.958738c3.505219-.37966,6.399438-2.773591,7.517671-5.999417H2.503158c1.118354,3.225826,4.01233,5.619758,7.517671,5.999417Z"/><path class="cls-1" d="M19.497237,13.946208c.320332-.92394,.50296-1.912093,.50296-2.944988,0-1.074217-.19801-2.099848-.543246-3.054979H2.543322c-.345236,.955131-.543124,1.980762-.543124,3.054979,0,1.032894,.18275,2.021047,.50296,2.944988H19.497237Z"/></svg>