<?xml version="1.0" encoding="UTF-8"?><svg id="flags_22px" xmlns="http://www.w3.org/2000/svg" viewBox="0 0 22 22"><defs><style>.cls-1{fill:#f5f5f5;}.cls-2{fill:#fff;}.cls-3{fill:#ff6a00;}.cls-4{fill:#1ba600;}</style></defs><path class="cls-2" d="M11.000101,0C4.924139,.001282,.00126,4.924039,.00004,11c.001221,6.0759,4.9241,10.998718,11.000061,11,6.075839-.001282,10.998718-4.9241,10.999939-11C21.998819,4.924039,17.07594,.001282,11.000101,0Z"/><path class="cls-1" d="M11.044901,2.00233h-.0896c-1.037237,.005127-2.029064,.192933-2.955217,.520816V19.476915c.93958,.332643,1.946422,.523074,3.000017,.523074s2.060436-.190431,3.000017-.523074V2.523146c-.926153-.327883-1.917979-.515689-2.955217-.520816Z"/><path class="cls-4" d="M2.000051,10.997437v.004883c.001099,3.916098,2.50746,7.238077,6.000033,8.474595V2.523146C4.507511,3.759664,2.001149,7.081582,2.000051,10.997437Z"/><path class="cls-3" d="M14.000117,2.523146V19.476915c3.488911-1.235236,5.993075-4.551783,5.999301-8.46251v-.029053c-.006226-3.910483-2.51039-7.226969-5.999301-8.462205Z"/></svg>