<?xml version="1.0" encoding="UTF-8"?><svg id="flags_22px" xmlns="http://www.w3.org/2000/svg" viewBox="0 0 22 22"><defs><style>.cls-1{fill:#0033bf;}.cls-2{fill:#f5f5f5;}.cls-3{fill:#fff;}.cls-4{fill:#f20012;}.cls-5{fill:#ffd500;}</style></defs><path class="cls-3" d="M11.000009,0C4.924065,.001282,.001321,4.924086,.00004,11.000031c.001282,6.075884,4.924025,10.998688,10.999969,10.999969,6.075884-.001282,10.998749-4.924025,11.000031-10.999969C21.998758,4.924025,17.075893,.001282,11.000009,0Z"/><path class="cls-2" d="M10.999765,7.143208h8.122764c-.21399-.449769-.459352-.880801-.742067-1.285648h-7.380697v1.285648Z"/><path class="cls-2" d="M10.999765,12.285557h8.898157c.060364-.420961,.102234-.847781,.102234-1.285404H10.999765v1.285404Z"/><path class="cls-2" d="M10.999765,8.428612v1.285892h8.898157c-.062988-.439088-.151368-.869692-.275391-1.285892H10.999765Z"/><path class="cls-2" d="M10.990427,19.999445h.019287c1.687566-.00177,3.260751-.476198,4.609815-1.285892H6.380612c1.349064,.809695,2.922249,1.284122,4.609815,1.285892Z"/><path class="cls-2" d="M10.999765,4.571912h6.29378c-.503175-.492738-1.066959-.921145-1.674321-1.285648h-4.619459v1.285648Z"/><path class="cls-2" d="M4.706657,17.428149h12.586827c.401429-.393067,.764651-.823855,1.087161-1.285892H3.619495c.322511,.462037,.685732,.892825,1.087161,1.285892Z"/><path class="cls-2" d="M2.877611,14.856853H19.122529c.196717-.413392,.367555-.840762,.500123-1.285953H2.377488c.132569,.445192,.303407,.872561,.500123,1.285953Z"/><path class="cls-4" d="M15.619224,3.286264c-1.348698-.80945-2.921273-1.283634-4.608289-1.285648h-.011169v1.285648h4.619459Z"/><path class="cls-4" d="M10.999765,5.85756h7.380697c-.32245-.461915-.685549-.892703-1.086917-1.285648h-6.29378v1.285648Z"/><path class="cls-4" d="M10.999765,8.428612h8.622766c-.132508-.44507-.303407-.872195-.500001-1.285404H10.999765v1.285404Z"/><path class="cls-4" d="M10.999765,11.000153h9.000391c0-.437684-.04187-.864626-.102234-1.285648H10.999765v1.285648Z"/><path class="cls-4" d="M2.102218,12.285557c.062927,.438905,.151368,.869265,.275269,1.285343H19.622653c.123902-.416078,.212342-.846438,.275269-1.285343H2.102218Z"/><path class="cls-4" d="M3.619495,16.142257h14.761149c.282594-.404786,.527956-.835757,.741884-1.285404H2.877611c.213929,.449647,.459291,.880618,.741884,1.285404Z"/><path class="cls-4" d="M6.380612,18.713553H15.619529c.607179-.364442,1.170841-.792849,1.673955-1.285404H4.706657c.503114,.492555,1.066775,.920962,1.673955,1.285404Z"/><path class="cls-1" d="M10.999765,11.000153V2.000616h-.010559c-4.965651,.005981-8.989222,4.032482-8.989222,8.999537,0,.437623,.04187,.864443,.102234,1.285404H10.999765v-1.285404Z"/><path class="cls-5" d="M3.597523,8.629296c0-1.360722,1.103458-2.46363,2.463996-2.46363,.355714,0,.693178,.075867,.998843,.211609-.455079-.326661-1.012454-.519716-1.614629-.519716-1.531193,0-2.771919,1.240909-2.771919,2.771736,0,1.530644,1.240726,2.771736,2.771919,2.771736,.602541,0,1.159549-.193421,1.614629-.519838-.305665,.135682-.643129,.211548-.998843,.211548-1.360538,0-2.463996-1.102847-2.463996-2.463447Z"/><polygon class="cls-5" points="9.049625 8.228294 10.023017 7.189107 8.793277 7.90676 9.219487 6.548297 8.422793 7.728537 8.216859 6.319659 8.011353 7.728537 7.215025 6.548297 7.641296 7.90676 6.411129 7.189107 7.384948 8.228294 5.965266 8.115318 7.293151 8.629296 5.965266 9.143275 7.384948 9.030115 6.411129 10.069303 7.641296 9.351711 7.215025 10.710174 8.011353 9.530117 8.216859 10.938812 8.422793 9.530117 9.219487 10.710174 8.793277 9.351711 10.023017 10.069303 9.049625 9.030115 10.468941 9.143275 9.140995 8.629296 10.468941 8.115318 9.049625 8.228294"/></svg>