<?xml version="1.0" encoding="UTF-8"?><svg id="flags_22px" xmlns="http://www.w3.org/2000/svg" viewBox="0 0 22 22"><defs><style>.cls-1{fill:#fa000d;}.cls-2{fill:#00973d;}.cls-3{fill:#f5f5f5;}.cls-4{fill:#fff;}</style></defs><path class="cls-4" d="M11.00007,22c6.075823-.001282,10.998688-4.924025,10.999969-10.999969C21.998758,4.924025,17.075893,.001282,11.00007,0,4.924126,.001282,.001321,4.924086,.00004,11.000031c.001282,6.075884,4.924086,10.998688,11.000031,10.999969Z"/><path class="cls-3" d="M9.910651,13.999917h9.566372c.332643-.939578,.523012-1.946294,.523012-2.999764s-.190369-2.060186-.522951-2.999703H9.910651v5.999467Z"/><path class="cls-2" d="M19.477083,8.000449c-1.235538-3.490183-4.553785-5.995134-8.466271-5.999834h-.021729c-2.433723,.00293-4.637708,.975222-6.255999,2.54737l5.177566,3.452463h9.566433Z"/><path class="cls-1" d="M4.733207,17.452136c1.618291,1.572087,3.822215,2.544319,6.255877,2.547248h.021729c3.912364-.0047,7.230611-2.509589,8.46621-5.999467H9.910651l-5.177444,3.452219Z"/><path d="M9.910651,13.999917v-5.999467l-5.177566-3.452463c-1.683415,1.635381-2.732918,3.919689-2.732918,6.452166,0,2.532356,1.049624,4.816603,2.73304,6.451983l5.177444-3.452219Z"/></svg>