<?xml version="1.0" encoding="UTF-8"?><svg id="flags_22px" xmlns="http://www.w3.org/2000/svg" viewBox="0 0 22 22"><defs><style>.cls-1{fill:#f5f5f5;}.cls-2{fill:#fff;}.cls-3{fill:#d90024;}</style></defs><path class="cls-2" d="M11.00004,22c6.076008-.001282,10.998779-4.924134,11-10.999969C21.998819,4.924073,17.075926,.001282,11.00004,0,4.924032,.001282,.00126,4.924073,.00004,11.000031c.001221,6.075835,4.923992,10.998688,11,10.999969Z"/><path class="cls-3" d="M11.000162,19.999401c4.345848,0,7.971945-3.080338,8.814869-7.176815H2.185293c.842924,4.096477,4.469021,7.176815,8.814869,7.176815Z"/><path class="cls-3" d="M11.457208,2.022511h-.914093c-4.1559,.209234-7.569954,3.226765-8.365879,7.200436H19.823087c-.795925-3.973671-4.209979-6.991202-8.365879-7.200436Z"/><path class="cls-1" d="M19.823087,9.222948H2.177236c-.114994,.574477-.17713,1.16812-.17713,1.776473,0,.62471,.064089,1.234345,.185187,1.823166H19.81503c.121098-.588821,.185187-1.198455,.185187-1.823166,0-.608353-.062136-1.201995-.17713-1.776473Z"/></svg>