<?xml version="1.0" encoding="UTF-8"?><svg id="flags_22px" xmlns="http://www.w3.org/2000/svg" viewBox="0 0 22 22"><defs><style>.cls-1{fill:#fb000b;}.cls-2{fill:#0043a6;}.cls-3{fill:#f5f5f5;}.cls-4{fill:#fff;}</style></defs><path class="cls-4" d="M11.000031,0C4.924147,.001282,.001282,4.924011,0,11c.001282,6.075928,4.924086,10.998718,11.000031,11,6.075945-.001282,10.998688-4.924133,10.999969-11C21.998718,4.924072,17.075914,.001282,11.000031,0Z"/><path class="cls-3" d="M4.305615,17.000366h13.388831c.77643-.865601,1.385563-1.880188,1.781865-2.998718H2.523811c.396302,1.11853,1.005435,2.133118,1.781804,2.998718Z"/><path class="cls-3" d="M17.695484,5.000854H4.304577c-.776491,.866089-1.385685,1.881165-1.781743,3.000244H19.477288c-.396058-1.11908-1.005252-2.134155-1.781804-3.000244Z"/><path class="cls-1" d="M10.999847,2.000061c-2.662483,0-5.04756,1.163086-6.69527,3.000793h13.390906c-1.647771-1.837708-4.03297-3.000793-6.695636-3.000793Z"/><path class="cls-1" d="M10.997406,20.000061h.004883c2.661201-.000732,5.044875-1.163086,6.692157-2.999695H4.305615c1.647221,1.836609,4.030773,2.998962,6.691791,2.999695Z"/><path class="cls-2" d="M2.522834,8.001099c-.332459,.939331-.522707,1.945801-.522707,2.999023,0,1.054138,.190674,2.061462,.523683,3.001526H19.476311c.333009-.940063,.523683-1.947388,.523683-3.001526,0-1.053223-.190247-2.059692-.522707-2.999023H2.522834Z"/></svg>