<?xml version="1.0" encoding="UTF-8"?><svg id="flags_22px" xmlns="http://www.w3.org/2000/svg" viewBox="0 0 22 22"><defs><style>.cls-1{fill:#003397;}.cls-2{fill:#00993a;}.cls-3{fill:#009a26;}.cls-4{fill:#f5f5f5;}.cls-5{fill:#fff;}.cls-6{fill:#ffd500;}</style></defs><path class="cls-5" d="M11.00007,0C4.924134,.001282,.001321,4.924094,.00004,11.000031c.001282,6.075875,4.924094,10.998688,11.000031,10.999969,6.075875-.001282,10.998688-4.924094,10.999969-10.999969C21.998758,4.924094,17.075946,.001282,11.00007,0Z"/><path class="cls-3" d="M11.033824,2.00167h-.067752c-4.918234,.018372-8.901799,3.981367-8.960395,8.890079L10.999521,5.148591l8.995125,5.743952c-.058108-4.909018-4.042282-8.872501-8.960822-8.890873Z"/><path class="cls-3" d="M2.005738,11.110081c.059573,4.919333,4.060777,8.889835,8.99421,8.889835,4.933677,0,8.935553-3.971051,8.994637-8.89069l-8.995064,5.744074L2.005738,11.110081Z"/><path class="cls-6" d="M2.005677,10.89175c-.000427,.03644-.005493,.07178-.005493,.108342,0,.037111,.005127,.073001,.005554,.10999l8.993782,5.74322,8.995064-5.744074c.000427-.036745,.005493-.072269,.005493-.109135,0-.036317-.005005-.071353-.005432-.107548L10.999521,5.148591,2.005677,10.89175Z"/><path class="cls-1" d="M7.273658,10.02831c-.081546,.312513-.138617,.634548-.138617,.972575,0,2.134793,1.729869,3.864907,3.86448,3.864907,1.735729,0,3.186839-1.151598,3.674958-2.72692-1.561283-1.393796-3.620573-2.242037-5.878479-2.242037-.51937,0-1.027875,.045656-1.522341,.131475Z"/><path class="cls-1" d="M7.470443,9.438076c.433001-.061099,.875586-.09351,1.325556-.09351,2.289463,0,4.385803,.820774,6.015448,2.182342,.023866-.173652,.052981-.34584,.052981-.526023,0-2.134366-1.730297-3.864968-3.864907-3.864968-1.577214,0-2.928283,.947793-3.529078,2.302159Z"/><polygon class="cls-4" points="8.050973 9.534088 8.05726 9.628758 8.198684 9.619053 8.243119 9.568513 8.192397 9.524505 8.050973 9.534088"/><path class="cls-4" d="M7.470443,9.438076c-.000427,.000061-.000977,.000061-.001404,.000122-.000977,.002197-.001404,.004578-.00238,.006775-.045229,.102604-.074588,.211984-.110967,.319044-.030092,.088932-.068789,.173957-.092411,.265636,.003418-.00061,.006958-.000732,.010376-.001343,.494466-.085819,1.002971-.131475,1.522341-.131475,2.257906,0,4.317196,.848241,5.878479,2.242037,.006287,.005615,.013306,.010437,.019593,.016053,.028932-.092838,.042665-.191841,.0647-.287671,.011353-.049318,.023744-.097538,.033205-.147528,.011353-.059817,.03119-.116399,.039858-.17707-.006592-.005493-.013795-.010254-.020387-.015748-1.629645-1.361568-3.725985-2.182342-6.015448-2.182342-.44997,0-.892554,.032411-1.325556,.09351Z"/><polygon class="cls-4" points="8.533171 9.508208 8.536772 9.739297 8.636507 9.737527 8.735327 9.636265 8.734412 9.60477 8.632906 9.506194 8.533171 9.508208"/><polygon class="cls-4" points="14.538181 11.661862 14.53458 11.510733 14.386319 11.540397 14.390409 11.691771 14.538181 11.661862"/><polygon class="cls-4" points="11.638524 10.004689 11.6077 9.94536 11.472624 9.902756 11.444608 9.993153 11.579623 10.035513 11.638524 10.004689"/><polygon class="cls-4" points="12.072686 10.231749 12.022452 10.089226 11.890488 10.163814 11.941271 10.305666 12.072686 10.231749"/><polygon class="cls-4" points="11.178117 9.868086 11.144546 9.809856 11.007273 9.774455 10.983163 9.866499 11.120986 9.901596 11.178117 9.868086"/><polygon class="cls-4" points="7.584645 9.700599 7.695184 9.803692 7.777219 9.676794 7.666618 9.573702 7.584645 9.700599"/><polygon class="cls-4" points="12.968719 10.557812 12.947417 10.494394 12.820519 10.430732 12.778342 10.515696 12.90524 10.578931 12.968719 10.557812"/><path class="cls-2" d="M7.6585,9.50595c-.090641,.010865-.15412,.102177-.141424,.203011,.01178,.100407,.096073,.173347,.186714,.162482,.090641-.011109,.15412-.102177,.141424-.202767-.012696-.100895-.096073-.17408-.186714-.162726Zm.036684,.297742l-.110539-.103093,.081974-.126897,.1106,.103093-.082035,.126897Z"/><path class="cls-2" d="M8.193252,9.455899l-.210275,.01471,.019959,.367752,.068912-.004944-.01001-.136236,.145941-.010376,.04529,.133673,.062564-.004273-.048952-.150519,.049868-.102604-.123296-.107182Zm.005432,.163154l-.141424,.009705-.006287-.094669,.141424-.009583,.050722,.044008-.044435,.050539Z"/><path class="cls-2" d="M8.463344,9.440945l.006348,.368179,.17408-.003113,.154547-.160468-.000488-.052553-.161323-.155036-.173164,.002991Zm.271984,.195321l-.09882,.101262-.099736,.00177-.003601-.231089,.099736-.002014,.101506,.098576,.000916,.031495Z"/><polygon class="cls-2" points="9.270994 9.747537 9.002734 9.738442 9.006335 9.643956 9.216182 9.65122 9.218441 9.587984 9.008166 9.580721 9.010852 9.506865 9.262876 9.51596 9.265562 9.44772 8.950119 9.436367 8.937423 9.80418 9.268248 9.815716 9.270994 9.747537"/><polygon class="cls-2" points="9.489448 9.578524 9.540232 9.836103 9.598217 9.841108 9.693375 9.596102 9.671646 9.847883 9.734148 9.853132 9.766376 9.486723 9.674331 9.478483 9.579174 9.723244 9.527963 9.46536 9.435979 9.457486 9.40424 9.824322 9.46723 9.829999 9.489448 9.578524"/><polygon class="cls-2" points="10.449327 9.895004 10.239479 9.858992 10.254006 9.775797 10.424851 9.805035 10.435716 9.743203 10.264444 9.713966 10.274393 9.656652 10.477893 9.691504 10.488269 9.629673 10.222755 9.584139 10.166539 9.910202 10.43889 9.956896 10.449327 9.895004"/><path class="cls-2" d="M10.96595,9.932481l.143255,.036684,.140509-.083194-.083011-.140753-.203439-.052309-.097416,.354385,.065677,.016968,.034425-.13178Zm.041323-.158027l.137274,.035402,.033571,.05823-.057131,.03351-.137823-.035097,.02411-.092045Z"/><path class="cls-2" d="M11.423733,10.058158l.139593,.044008-.007263,.140936,.059817,.018983,.009949-.15766,.083439-.077457-.075259-.144842-.20118-.063723-.115178,.349685,.064395,.020631,.041689-.13056Zm.048891-.155402l.135076,.042604,.030824,.059329-.058901,.030824-.135015-.04236,.028016-.090397Z"/><path class="cls-2" d="M12.136592,10.255798c.035829-.095402-.004944-.198739-.090214-.230478-.086063-.032167-.184395,.019288-.220224,.114018-.03528,.095341,.005493,.198678,.091129,.230661,.085636,.031923,.18354-.019288,.219308-.114202Zm-.11414-.166572l.050234,.142523-.131414,.073917-.050783-.141852,.131963-.074588Z"/><path class="cls-2" d="M12.748007,10.576612l.130987,.06531-.029481,.138189,.056155,.028321,.034486-.154547,.094731-.063418-.052126-.155219-.188057-.093815-.169074,.327223,.061648,.03058,.060733-.122625Zm.072513-.14588l.126897,.063662,.021302,.063418-.063479,.021119-.126897-.063235,.042177-.084964Z"/><polygon class="cls-2" points="13.364365 10.983856 13.130957 10.851953 13.17759 10.769491 13.360764 10.873499 13.391588 10.818382 13.208475 10.714862 13.244731 10.650529 13.464955 10.775168 13.498526 10.715351 13.223918 10.560132 13.042575 10.880275 13.330795 11.043917 13.364365 10.983856"/><path class="cls-2" d="M13.788577,11.195107c.069766-.109746-.158637-.206918-.124212-.258128l.082523-.000244,.038026,.087955,.067569,.043215-.053957-.167182c-.040346-.025636-.145941-.099064-.208505-.004578-.071109,.1106,.161384,.202584,.121465,.265392l-.087894-.007263-.044374-.093571-.069827-.044435,.077945,.186287,.201241-.007447Z"/><path class="cls-2" d="M14.175556,11.467213c.076175-.106022-.146796-.214853-.109624-.264659l.082462,.004273,.032655,.089481,.065249,.046694-.045351-.169258c-.038515-.02765-.140448-.107182-.207101-.015626-.07703,.106267,.150519,.210519,.107426,.271435l-.08704-.011536-.039919-.096256-.067935-.048281,.067935,.19056,.201241,.003174Z"/><path class="cls-2" d="M14.59165,11.704467l-.014527-.247447-.244761,.041017,.015443,.247203,.243846-.040773Zm-.05707-.193734l.003601,.151129-.147772,.029908-.00409-.151373,.148261-.029664Z"/><polygon class="cls-4" points="7.882387 10.255798 7.845215 10.141535 7.807616 10.255798 7.687493 10.255798 7.784482 10.326235 7.74731 10.441108 7.845215 10.370183 7.942204 10.441108 7.905032 10.326235 8.002021 10.255798 7.882387 10.255798"/><polygon class="cls-4" points="8.224076 11.880988 8.186904 11.76587 8.149305 11.880988 8.029243 11.880988 8.126171 11.951425 8.08906 12.065871 8.186904 11.995189 8.283893 12.065871 8.246721 11.951425 8.34371 11.880988 8.224076 11.880988"/><polygon class="cls-4" points="7.744564 12.236288 7.713312 12.140886 7.682061 12.236288 7.582325 12.236288 7.663017 12.295006 7.632193 12.390408 7.712885 12.331446 7.794431 12.390408 7.763607 12.295189 7.845215 12.236288 7.744564 12.236288"/><polygon class="cls-4" points="8.583038 11.670713 8.56491 11.616572 8.547698 11.670713 8.490566 11.670713 8.536772 11.704467 8.518705 11.759095 8.56491 11.72528 8.611604 11.759095 8.593903 11.704467 8.640109 11.670713 8.583038 11.670713"/><polygon class="cls-4" points="8.910262 12.427275 8.990953 12.368435 9.072439 12.427275 9.041248 12.331934 9.122368 12.272972 9.021716 12.272972 8.990953 12.177387 8.960129 12.272972 8.859905 12.272972 8.941025 12.331934 8.910262 12.427275"/><polygon class="cls-4" points="8.835429 12.712626 8.810526 12.788984 8.875348 12.741619 8.94017 12.788984 8.915694 12.712626 8.980943 12.665261 8.900312 12.665261 8.875775 12.588903 8.850445 12.665261 8.770668 12.665261 8.835429 12.712626"/><polygon class="cls-4" points="12.10174 9.936266 12.198728 9.865584 12.295717 9.936266 12.258545 9.821637 12.355962 9.750894 12.2359 9.750894 12.198728 9.636509 12.161556 9.750894 12.041007 9.750894 12.138912 9.821637 12.10174 9.936266"/><polygon class="cls-4" points="13.610469 12.49167 13.707885 12.420988 13.804874 12.49167 13.767702 12.37698 13.864691 12.306542 13.745057 12.306542 13.707885 12.192341 13.670714 12.306542 13.550164 12.306542 13.647153 12.37698 13.610469 12.49167"/><polygon class="cls-4" points="14.17928 12.483979 14.244529 12.436614 14.308802 12.483979 14.284387 12.407377 14.349209 12.360256 14.268944 12.360256 14.244529 12.284325 14.219076 12.360256 14.1393 12.360256 14.203695 12.407377 14.17928 12.483979"/><polygon class="cls-4" points="13.734193 12.656655 13.815312 12.7158 13.783999 12.811202 13.865607 12.751996 13.946299 12.811202 13.915475 12.7158 13.997082 12.656655 13.896431 12.656655 13.865607 12.561497 13.834783 12.656655 13.734193 12.656655"/><polygon class="cls-4" points="12.85409 13.620623 12.934721 13.561966 13.016267 13.620623 12.984528 13.525404 13.066135 13.466564 12.965545 13.466564 12.934721 13.371345 12.903897 13.466564 12.803307 13.466564 12.884853 13.525404 12.85409 13.620623"/><polygon class="cls-4" points="12.95468 13.864224 12.929289 13.787866 12.904813 13.864224 12.824121 13.864224 12.889431 13.911101 12.864467 13.987948 12.929289 13.940583 12.994538 13.987948 12.969574 13.911101 13.034457 13.864224 12.95468 13.864224"/><polygon class="cls-4" points="13.253765 13.293644 13.31816 13.246279 13.383348 13.293644 13.358933 13.21753 13.423267 13.170348 13.343551 13.170348 13.319014 13.093807 13.293623 13.170348 13.213907 13.170348 13.278241 13.21753 13.253765 13.293644"/><polygon class="cls-4" points="13.547417 13.12164 13.629025 13.062738 13.709656 13.12164 13.678832 13.025811 13.760439 12.967092 13.659849 12.967092 13.629025 12.871629 13.597285 12.967092 13.497611 12.967092 13.579218 13.025811 13.547417 13.12164"/><polygon class="cls-4" points="12.85409 13.219972 12.919339 13.17285 12.983673 13.219972 12.959136 13.143613 13.024019 13.096736 12.943755 13.096736 12.919339 13.020134 12.893887 13.096736 12.814172 13.096736 12.878994 13.143613 12.85409 13.219972"/><polygon class="cls-4" points="9.446417 11.270305 9.527536 11.211343 9.608594 11.270305 9.577343 11.174904 9.65895 11.116185 9.55836 11.116185 9.527536 11.0206 9.496712 11.116185 9.396061 11.116185 9.477668 11.174904 9.446417 11.270305"/><polygon class="cls-4" points="11.986561 10.895656 12.051872 10.84884 12.116205 10.895656 12.091729 10.819786 12.156124 10.772421 12.076348 10.772421 12.051444 10.69588 12.02648 10.772421 11.945849 10.772421 12.011099 10.819786 11.986561 10.895656"/><polygon class="cls-4" points="11.036693 12.684976 10.999521 12.570775 10.962349 12.684976 10.842227 12.684976 10.939704 12.755658 10.902532 12.870287 10.999521 12.79991 11.096998 12.870287 11.059826 12.755658 11.157242 12.684976 11.036693 12.684976"/><polygon class="cls-4" points="11.365747 12.080398 11.446378 12.021435 11.527985 12.080398 11.497161 11.984996 11.577792 11.926033 11.478117 11.926033 11.446378 11.830448 11.415554 11.926033 11.314964 11.926033 11.396571 11.98524 11.365747 12.080398"/><polygon class="cls-4" points="10.91889 11.733215 10.999521 11.674314 11.081128 11.733215 11.050304 11.637874 11.130996 11.578668 11.031199 11.578668 10.999521 11.48351 10.968697 11.578668 10.868107 11.578668 10.949714 11.637874 10.91889 11.733215"/><polygon class="cls-4" points="10.5454 12.057692 10.61065 12.010388 10.675899 12.057692 10.650568 11.981578 10.715818 11.934701 10.636102 11.934701 10.61065 11.857854 10.586235 11.934701 10.505482 11.934701 10.570792 11.981822 10.5454 12.057692"/><polygon class="cls-4" points="10.758483 12.300683 10.805543 12.266868 10.851749 12.300683 10.833681 12.246054 10.880375 12.212483 10.822756 12.212483 10.805543 12.157916 10.787476 12.212483 10.730345 12.212483 10.77655 12.246054 10.758483 12.300683"/><polygon class="cls-4" points="12.025565 13.561233 12.106256 13.619952 12.075432 13.715353 12.156124 13.656635 12.237732 13.715353 12.206907 13.619952 12.287538 13.561233 12.187803 13.561233 12.156612 13.466076 12.1253 13.561233 12.025565 13.561233"/><polygon class="cls-4" points="12.422615 13.351386 12.487864 13.303837 12.553052 13.351386 12.527783 13.275028 12.593032 13.228151 12.51234 13.228151 12.487864 13.151792 12.463388 13.228151 12.382757 13.228151 12.447518 13.275028 12.422615 13.351386"/><polygon class="cls-4" points="11.786297 13.256655 11.851546 13.209351 11.916856 13.256655 11.891465 13.180541 11.956714 13.13342 11.876938 13.13342 11.851546 13.057062 11.826643 13.13342 11.746439 13.13342 11.811688 13.180541 11.786297 13.256655"/><polygon class="cls-4" points="9.351686 13.18579 9.448675 13.115292 9.545664 13.18579 9.508492 13.071284 9.606396 13.000419 9.485847 13.000419 9.448675 12.886156 9.411503 13.000419 9.290893 13.000419 9.38837 13.071284 9.351686 13.18579"/><polygon class="cls-4" points="11.012217 14.007663 10.999521 13.969392 10.987252 14.007663 10.947395 14.007663 10.979562 14.031224 10.967781 14.069067 10.999521 14.045689 11.032176 14.069067 11.01948 14.031224 11.052135 14.007663 11.012217 14.007663"/><path class="cls-2" d="M12.474253,10.544933l-.019898,.046022,.047976,.021058,.052614-.120794,.020875-.048281-.048037-.021241-.079776-.034303-.020875,.048281,.0553,.023622-.104252,.023805-.04352-.145087,.135992-.06708,.053408,.080265,.067141,.029481-.093388-.172493-.000855-.000244c-.083866-.036012-.184029,.009766-.224802,.10291-.040834,.093144-.005432,.198067,.0788,.234934l.123296-.000855Z"/></svg>