<?xml version="1.0" encoding="utf-8"?>
<svg version="1.1" id="_x32_" xmlns="http://www.w3.org/2000/svg" xmlns:xlink="http://www.w3.org/1999/xlink" 
	 width="800px" height="800px" viewBox="0 0 512 512"  xml:space="preserve">
<style type="text/css">
<![CDATA[
	.st0{fill:#000000;}
]]>
</style>
<g>
	<path class="st0" d="M230.141,316.094c0,2.234-1.891,4.047-4.219,4.047h-8.891c-2.328,0-4.219-1.813-4.219-4.047v-1.844
		c0-2.219,1.891-4.031,4.219-4.031h8.891c2.328,0,4.219,1.813,4.219,4.031V316.094z"/>
	<path class="st0" d="M191.469,300.438h-0.75c-2.328,0-4.219,1.813-4.219,4.031v5.563c0,2.219,1.078,4.031,2.938,4.031h0.469
		c2.016,0,1.563,1.813,1.563,4.031v2.594c0,2.25,1.875,4.031,4.219,4.031h6.453c2.328,0,4.219-1.781,4.219-4.031v-6.625v-9.594
		c0-2.219-1.891-4.031-4.219-4.031H191.469z"/>
	<path class="st0" d="M243.922,266.516c-1.984,0-3.703,1.328-4.125,3.172l-2.359,10.391c-0.406,1.859-2.141,3.172-4.125,3.172
		h-26.453c-2.328,0-4.234,1.813-4.234,4.031v3.063c0,2.219,1.906,4.016,4.234,4.016h0.859c2.344,0,4.234,1.813,4.234,4.047v2
		c0,2.219,1.891,4.031,4.219,4.031h32.75c1.984,0,3.703-1.313,4.125-3.172l6.844-29.859c0.281-1.188-0.047-2.438-0.828-3.375
		c-0.813-0.953-2.016-1.516-3.297-1.516H243.922z"/>
	<path class="st0" d="M269.969,257.781c-0.375,1.891-2.109,3.25-4.156,3.25h-18.359c-1.266,0-2.453-0.531-3.25-1.453
		c-0.813-0.922-1.141-2.141-0.906-3.328l2.656-13.266c0.391-1.891,2.125-3.266,4.156-3.266h18.359c1.266,0,2.453,0.531,3.266,1.469
		c0.797,0.906,1.125,2.125,0.891,3.313L269.969,257.781z"/>
	<path class="st0" d="M219.203,350.656c0.938-0.688,2.172-0.781,3.188-0.25c1.031,0.531,1.672,1.563,1.672,2.719v-1.156
		c0,1.672,1.375,3.047,3.047,3.047h12.563c1.672,0,3.047-1.375,3.047-3.047l0,0c0-1.688,1.359-3.063,3.047-3.063h1.297
		c0.891,0,1.734,0.391,2.313,1.031L266,368.859c0.484,0.547,0.75,1.266,0.75,2.016v17.281c0,0.828-0.328,1.625-0.922,2.188
		l-9.672,9.375c-0.563,0.531-1.328,0.844-2.125,0.844h-12.453c-1.078,0-2.078-0.563-2.609-1.484l-2.906-4.906
		c-0.531-0.922-1.547-1.484-2.625-1.484h-32.875c-1.688,0-3.047-1.375-3.047-3.047v-21.594c0-0.984,0.453-1.891,1.25-2.469
		L219.203,350.656z"/>
	<path class="st0" d="M114.078,385.563c-0.969,3.031-3.781,5.109-6.984,5.109H105c-2.328,0-4.516-1.109-5.906-2.984
		c-1.375-1.875-1.766-4.313-1.078-6.531l3.375-10.75c0.969-3.063,3.797-5.125,7-5.125h2.078c2.344,0,4.531,1.094,5.906,2.969
		c1.375,1.891,1.781,4.313,1.078,6.531L114.078,385.563z"/>
	<path class="st0" d="M327.313,121.172c0-6.078,4.906-10.984,10.984-10.984h142.641c4.938,0,9.281,3.313,10.594,8.094l15.688,57.531
		c0.969,3.531,0.094,7.328-2.313,10.094l-36.063,41.469c-2.094,2.406-5.109,3.781-8.281,3.781h-5.594
		c-4.297,0-8.188,2.5-9.984,6.406s-1.141,8.5,1.672,11.75l8.063,9.344c2.078,2.438,5.125,3.828,8.313,3.828h37.984
		c6.078,0,10.984,4.922,10.984,10.984v41.813c0,2.188-0.656,4.344-1.875,6.156l-51.016,75.531c-2.047,3.031-5.453,4.844-9.109,4.844
		h-15.672c-3.078,0-6.016-1.313-8.094-3.563c-2.078-2.281-3.109-5.313-2.859-8.375l9.266-107.422
		c0.328-3.703-1.234-7.313-4.172-9.609l-47.156-36.875c-2.203-1.688-3.656-4.172-4.094-6.922l-6.469-40.922
		c-0.844-5.344-5.438-9.266-10.844-9.266h-21.609c-6.078,0-10.984-4.922-10.984-10.984V121.172z"/>
	<path class="st0" d="M44.031,174.844c0,1.156-0.938,2.078-2.078,2.078H23.75c-1.141,0-2.063-0.922-2.063-2.078v-33.875
		c0-1.141,0.922-2.063,2.063-2.063h18.203c1.141,0,2.078,0.922,2.078,2.063V174.844z"/>
	<path class="st0" d="M14.703,174.844c0,1.156-0.938,2.078-2.078,2.078H6.531c-1.156,0-2.078-0.922-2.078-2.078v-11.063
		c0-1.141,0.922-2.063,2.078-2.063h6.094c1.141,0,2.078,0.922,2.078,2.063V174.844z"/>
	<path class="st0" d="M161.531,110.188c-2.844,0-5.422,1.656-6.625,4.219l-12.922,27.719c-1.203,2.578-3.797,4.219-6.641,4.219
		h-8.016c-2.594,0-4.984-1.375-6.313-3.594l-10.938-18.609c-1.313-2.234-3.719-3.609-6.313-3.609H89.094
		c-2.766,0-5.281,1.547-6.531,4l-21.906,43.313c-1.719,3.406-0.531,7.594,2.766,9.578l8.266,4.984c3.313,2,7.625,1.063,9.813-2.125
		l5.016-7.313c1.734-2.547,4.875-3.719,7.844-2.969l-5.234-1.328c3.891,0.984,6.25,4.938,5.297,8.828l-1.969,8.063
		c-0.797,3.25-3.734,5.563-7.109,5.563H34.063c-1.313,0-2.609,0.344-3.734,1.031L3.594,207.938C1.375,209.266,0,211.656,0,214.25
		v17.781c0,4.031,3.281,7.313,7.328,7.313h9.203c4.031,0,7.313,1.016,7.313,3.656c0,4.906,3.281,7.328,7.328,7.328h-0.703
		c4.031,0,7.313-2.266,7.313-7.328c0-3,3.281-3.656,7.328-3.656h6.609c4.047,0,7.328,3.281,7.328,7.313v1.938
		c0,4.031-3.281,7.313-7.328,7.313H7.328c-4.047,0-7.328,3.281-7.328,7.328v51.859c0,4.063,3.281,7.344,7.328,7.344h22.703
		c4.031,0,7.313,3.281,7.313,7.313v55.094c0,4.063,3.281,7.328,7.328,7.328h35.203c3.156,0,5.969-2.047,6.953-5.047l28.063-86.375
		c0.688-2.094,0.391-4.344-0.766-6.188L98.5,269.969c-2.047-3.188-1.313-7.422,1.719-9.719l-0.563,0.406
		c1.281-0.969,2.859-1.5,4.453-1.5h18.359c2.75,0,5.25,1.531,6.516,3.969l15.063,29.281c1.172,2.25,3.438,3.75,5.969,3.938
		c2.547,0.203,5.016-0.969,6.5-3.031l22.891-31.969c1.375-1.922,3.594-3.063,5.938-3.063h17.609c2.484,0,4.813-1.25,6.156-3.359
		l16.406-25.563c1.75-2.734,4.75-7.141,6.859-9.609c2.594-3,6.625-3.656,6.625-1.5l0,0c0,4.031,3.281,7.313,7.328,7.313h0.266
		c3.438,0,6.422-2.406,7.156-5.75l4.734-21.781c0.484-2.188,1.922-4.031,3.938-5.016l31.5-15.391
		c2.516-1.219,4.109-3.781,4.109-6.563v-53.547c0-4.047-3.281-7.328-7.313-7.328H161.531z"/>
</g>
</svg>
