<svg xmlns="http://www.w3.org/2000/svg" xmlns:xlink="http://www.w3.org/1999/xlink" width="47.275" height="46" viewBox="0 0 47.275 46">
  <defs>
    <clipPath id="clip-path">
      <path id="Path_616482" data-name="Path 616482" d="M0,0H47.275V46H0Z" fill="#323232"/>
    </clipPath>
  </defs>
  <g id="Mask_Group_181524" data-name="Mask Group 181524">
    <path id="Path_616379" data-name="Path 616379" d="M4.351,0c.2,1.994.155,3.264-.368,3.9A54.094,54.094,0,0,0,.289,9.338a4.888,4.888,0,0,0,4.433,6.488C7.148,15.727,9.8,14.2,9.8,9.757,9.8,5.946,6.678,2.946,4.364,0Z" transform="translate(35.137 22.445)" fill="currentColor"/>
    <path id="Path_616380" data-name="Path 616380" d="M16.909,42.524a2.54,2.54,0,0,1-1.8-.732L.745,27.414a2.54,2.54,0,0,1,0-3.6L11.338,13.223C9.827,9.654,6.689,2.231,10.876.254A2.736,2.736,0,0,1,12.047,0,3.137,3.137,0,0,1,13.2.229c.978.394,2.558,1.445,5.1,6.036L19.6,4.956a2.553,2.553,0,0,1,3.582,0L37.563,19.335a2.54,2.54,0,0,1,0,3.592L18.708,41.792a2.54,2.54,0,0,1-1.8.732Zm.721-32L2.543,25.62,16.912,39.989l18.86-18.863L21.4,6.758l-1.872,1.88c.965,1.951,2,4.265,3.066,6.859a3.183,3.183,0,1,1-2.345.983C19.338,14.262,18.456,12.258,17.631,10.528ZM12.049,2.54a.193.193,0,0,0-.091.02c-1.207.564-.762,3.5,1.336,8.711l3.14-3.142c-2.144-4.065-3.458-5.251-4.182-5.541a.572.572,0,0,0-.2-.048Z" transform="translate(0.002 1.282)" fill="currentColor"/>
  </g>
</svg>
