<svg xmlns="http://www.w3.org/2000/svg" width="46.456" height="46.835" viewBox="0 0 46.456 46.835">
  <g id="Group_598034" data-name="Group 598034" transform="translate(7661.035 -5811)">
    <g id="Smock_ImageAdd_18_N" transform="translate(-7661.035 5811.464)">
      <rect id="Canvas" width="42" height="42" transform="translate(0 -0.463)" fill="#ff13dc" opacity="0"/>
      <circle id="Ellipse_24884" data-name="Ellipse 24884" cx="2.934" cy="2.934" r="2.934" transform="translate(24.996 11.769)" fill="currentColor"/>
      <path id="Path_616442" data-name="Path 616442" d="M17.251,28.992a14.349,14.349,0,0,1,1.481-6.337c-2.474-2.767-5.052-6.572-7.249-6.572-3.136,0-9.136,9.388-9.136,9.388V4.348H39.9V17.131a14.512,14.512,0,0,1,2.347,2.045v-16A1.253,1.253,0,0,0,40.926,2H1.32A1.253,1.253,0,0,0,0,3.175V33.686A1.253,1.253,0,0,0,1.32,34.86H18.505A14.364,14.364,0,0,1,17.251,28.992Z" transform="translate(0 2.609)" fill="currentColor"/>
      <path id="Path_616443" data-name="Path 616443" d="M10.444,0A10.444,10.444,0,1,0,20.889,10.444,10.444,10.444,0,0,0,10.444,0Zm5.868,11.031a.587.587,0,0,1-.587.587H11.618v4.107a.587.587,0,0,1-.587.587H9.858a.587.587,0,0,1-.587-.587V11.618H5.163a.587.587,0,0,1-.587-.587V9.858a.587.587,0,0,1,.587-.587H9.271V5.163a.587.587,0,0,1,.587-.587h1.174a.587.587,0,0,1,.587.587V9.271h4.107a.587.587,0,0,1,.587.587Z" transform="translate(16.915 31.601) rotate(-45)" fill="currentColor"/>
    </g>
  </g>
</svg>
