<svg xmlns="http://www.w3.org/2000/svg" width="12" height="12" viewBox="0 0 12 12" fill="none" aria-hidden="true">
  <g transform="rotate(90, 6, 6)">
    <path d="M11.208 5.41699L7.50781 1.71679C7.18554 1.39452 6.66406 1.39452 6.34179 1.71679C6.01952 2.03906 6.01952 2.56054 6.34179 2.88281L8.63281 5.1748H1.375C0.91895 5.1748 0.5498 5.54394 0.5498 6C0.5498 6.45606 0.91894 6.8252 1.375 6.8252H8.63281L6.34179 9.11719C6.01952 9.43946 6.01952 9.96094 6.34179 10.2832C6.50292 10.4443 6.71386 10.5254 6.9248 10.5254C7.13574 10.5254 7.34668 10.4444 7.50781 10.2832L11.208 6.58301C11.5303 6.26074 11.5303 5.73926 11.208 5.41699Z" fill="#000"/>
  </g>
</svg>
