<svg width="32" height="32" viewBox="0 0 32 32" fill="none" xmlns="http://www.w3.org/2000/svg">
	<path d="M20.7822 2.66673C21.1357 2.66704 21.4746 2.80772 21.7245 3.05784L26.2756 7.59117C26.5257 7.84098 26.6664 8.17989 26.6667 8.5334V27.5556C26.6667 28.0271 26.4794 28.4793 26.146 28.8127C25.8126 29.1461 25.3604 29.3334 24.8889 29.3334H7.11112C6.63963 29.3334 6.18744 29.1461 5.85405 28.8127C5.52065 28.4793 5.33335 28.0271 5.33335 27.5556V4.44451C5.33335 3.97301 5.52065 3.52083 5.85405 3.18743C6.18744 2.85403 6.63963 2.66673 7.11112 2.66673H20.7822ZM20.7822 1.77784H7.11112C6.40388 1.77784 5.7256 2.05879 5.22551 2.55889C4.72541 3.05899 4.44446 3.73726 4.44446 4.44451V27.5556C4.44446 28.2629 4.72541 28.9411 5.22551 29.4412C5.7256 29.9413 6.40388 30.2223 7.11112 30.2223H24.8889C25.5961 30.2223 26.2744 29.9413 26.7745 29.4412C27.2746 28.9411 27.5556 28.2629 27.5556 27.5556V8.5334C27.5523 7.94274 27.3159 7.37727 26.8978 6.96006L22.3467 2.42673C22.1419 2.22037 21.8981 2.05675 21.6295 1.94536C21.361 1.83397 21.073 1.77703 20.7822 1.77784Z" fill="#3DA74E" />
	<path opacity="0.1" d="M20.7822 2.66675C21.1357 2.66706 21.4746 2.80774 21.7244 3.05786L26.2755 7.59119C26.5257 7.841 26.6663 8.17991 26.6666 8.53342V27.5556C26.6666 28.0271 26.4793 28.4793 26.1459 28.8127C25.8125 29.1461 25.3604 29.3334 24.8889 29.3334H7.11109C6.63959 29.3334 6.18741 29.1461 5.85401 28.8127C5.52061 28.4793 5.33331 28.0271 5.33331 27.5556V4.44453C5.33331 3.97303 5.52061 3.52084 5.85401 3.18745C6.18741 2.85405 6.63959 2.66675 7.11109 2.66675H20.7822Z" fill="#3DA74E" />
	<path d="M23.065 7.11342H8.95105C8.83429 7.10494 8.71701 7.11961 8.60594 7.15659C8.49487 7.19356 8.3922 7.25212 8.30382 7.3289C8.21545 7.40567 8.14312 7.49915 8.09098 7.60396C8.03884 7.70877 8.00792 7.82285 8 7.93965V16.3797C8 17.348 8.40889 17.7745 9.2977 17.7745H22.6917C22.8744 17.7818 23.0565 17.7509 23.2264 17.6835C23.3964 17.6162 23.5503 17.514 23.6783 17.3836C23.9091 17.102 24.0236 16.7429 23.9983 16.3797V7.93965C23.9571 7.71761 23.8429 7.51571 23.6738 7.36602C23.5047 7.21632 23.2904 7.12742 23.065 7.11342ZM16.8889 9.77869L23.1111 9.77776V11.5555L16.8889 11.5564V9.77869ZM16.8889 12.4454L23.1111 12.4444V14.2222L16.8889 14.2231V12.4454ZM12.4444 16.8889H9.2977C9.23935 16.8889 9.18156 16.8774 9.12765 16.8551C9.07373 16.8328 9.02474 16.8001 8.98347 16.7588C8.9422 16.7176 8.90946 16.6686 8.88712 16.6147C8.86477 16.5608 8.85327 16.503 8.85325 16.4447L8.86114 15.0996L12.4445 15.1148L12.4444 16.8889ZM12.4445 14.2236L8.86116 14.2084V12.4316L12.4445 12.4468V14.2236ZM12.4445 11.5583L8.86116 11.5431V9.76626L12.4445 9.78146V11.5583ZM15.9999 16.8898L13.3333 16.8889L13.3334 15.1149L16 15.112L15.9999 16.8898ZM16 14.2231L13.3333 14.2236V12.4467L16 12.4439V14.2231ZM16 11.5555L13.3333 11.5583V9.7815L16 9.77869V11.5555ZM23.1051 16.4886C23.1051 16.547 23.0936 16.6048 23.0712 16.6587C23.0489 16.7126 23.0162 16.7615 22.9749 16.8028C22.9336 16.844 22.8846 16.8768 22.8307 16.8991C22.7768 16.9214 22.719 16.9329 22.6607 16.9329L16.8889 16.8889V15.112L23.1111 15.1111L23.1051 16.4886Z" fill="#3DA74E" />
</svg>
