<svg width="20" height="20" viewBox="0 0 20 20" fill="none" xmlns="http://www.w3.org/2000/svg">
<path d="M18.5304 17.4698L13.4471 12.3865C14.4165 11.1851 15.0001 9.66009 15.0001 8.00006C15.0001 4.14068 11.8595 1.00006 8.00009 1.00006C4.14071 1.00006 1.00009 4.14067 1.00009 8.00005C1.00009 11.8594 4.14071 15.0001 8.00009 15.0001C9.66012 15.0001 11.1852 14.4164 12.3866 13.4471L17.4698 18.5303C17.6163 18.6768 17.8077 18.7501 18.0001 18.7501C18.1925 18.7501 18.3839 18.6768 18.5304 18.5303C18.8233 18.2374 18.8233 17.7628 18.5304 17.4698ZM8.00009 13.5001C4.96786 13.5001 2.50009 11.0323 2.50009 8.00005C2.50009 4.96782 4.96786 2.50005 8.00009 2.50005C11.0323 2.50005 13.5001 4.96782 13.5001 8.00005C13.5001 11.0323 11.0323 13.5001 8.00009 13.5001Z" fill="#292929"/>
</svg>
