<svg width="20" height="20" viewBox="0 0 20 20" fill="none" xmlns="http://www.w3.org/2000/svg">
<path d="M10.0001 18.75C5.17489 18.75 1.25009 14.8252 1.25009 10C1.25009 5.17481 5.17489 1.25001 10.0001 1.25001C14.8253 1.25001 18.7501 5.17481 18.7501 10C18.7501 14.8252 14.8253 18.75 10.0001 18.75ZM10.0001 2.75001C6.00204 2.75001 2.75009 6.00196 2.75009 10C2.75009 13.9981 6.00204 17.25 10.0001 17.25C13.9981 17.25 17.2501 13.9981 17.2501 10C17.2501 6.00196 13.9981 2.75001 10.0001 2.75001Z" fill="#292929"/>
<path d="M9.18272 13.9434C8.97081 13.9434 8.76768 13.8535 8.6251 13.6953L5.98155 10.7559C5.70421 10.4473 5.7296 9.97364 6.03721 9.6963C6.34482 9.41896 6.81846 9.44435 7.09678 9.75196L9.12315 12.0059L12.8233 6.95997C13.0665 6.62696 13.5353 6.55079 13.8712 6.79884C14.2052 7.04298 14.2774 7.51271 14.0323 7.84669L9.78721 13.6367C9.6544 13.8193 9.44541 13.9316 9.21983 13.9424C9.20811 13.9434 9.19542 13.9434 9.18272 13.9434Z" fill="#292929"/>
</svg>
