<svg width="20" height="20" viewBox="0 0 20 20" fill="none" xmlns="http://www.w3.org/2000/svg">
<path d="M5.12311 15.0801C5.06354 15.0801 5.03522 15.0547 5.03522 15.002V9.46979C4.87311 9.55768 4.67877 9.63874 4.45221 9.711C4.22467 9.78522 4.03424 9.836 3.87994 9.8653C3.82135 9.87311 3.79205 9.85163 3.79205 9.79987V8.8653C3.79205 8.81354 3.81353 8.78425 3.85748 8.77643C4.11432 8.711 4.37994 8.6192 4.65533 8.50202C4.93072 8.38484 5.17388 8.25593 5.38678 8.11725C5.42291 8.08795 5.47858 8.07233 5.55182 8.07233H6.31061C6.34772 8.07233 6.3653 8.09772 6.3653 8.14948V15.002C6.3653 15.0547 6.34382 15.0801 6.29987 15.0801H5.12311Z" fill="#292929"/>
<path d="M10.3917 15.1895C9.93658 15.1895 9.54791 15.0958 9.22564 14.9092C8.90337 14.7227 8.63775 14.4649 8.42779 14.1387C8.21881 13.8126 8.06549 13.4317 7.96588 12.9952C7.86725 12.5587 7.81744 12.088 7.81744 11.5821C7.81744 11.0684 7.87408 10.5938 7.98834 10.1573C8.10162 9.72077 8.26666 9.34381 8.48346 9.0235C8.69928 8.70514 8.96686 8.45612 9.28619 8.27545C9.60553 8.09674 9.96978 8.00592 10.3809 8.00592C10.8868 8.00592 11.3028 8.1153 11.629 8.33112C11.9551 8.54694 12.2139 8.82624 12.4044 9.16706C12.5958 9.50788 12.7276 9.89167 12.8008 10.3165C12.8741 10.7423 12.9112 11.1641 12.9112 11.5821C12.9112 12.043 12.8672 12.4913 12.7784 12.9239C12.6905 13.3565 12.546 13.7413 12.3438 14.0782C12.1426 14.4161 11.8819 14.6856 11.5635 14.8868C11.2442 15.0889 10.8536 15.1895 10.3917 15.1895ZM10.3585 9.12896C10.0069 9.12896 9.71686 9.32134 9.48932 9.70611C9.26276 10.0919 9.1485 10.7051 9.1485 11.5489C9.1485 12.334 9.25104 12.9454 9.45709 13.3858C9.66217 13.8262 9.97369 14.045 10.3917 14.045C10.8096 14.045 11.1143 13.835 11.3048 13.4131C11.4952 12.9922 11.5909 12.377 11.5909 11.5704C11.5909 10.7276 11.4883 10.1094 11.2823 9.71684C11.0772 9.32426 10.7696 9.12896 10.3585 9.12896Z" fill="#292929"/>
<path d="M13.7501 19H3.25006C2.00983 19 1.00006 17.9903 1.00006 16.75V6.25005C1.00006 5.00982 2.00983 4.00005 3.25006 4.00005H13.7501C14.9903 4.00005 16.0001 5.00982 16.0001 6.25005V16.75C16.0001 17.9903 14.9903 19 13.7501 19ZM3.25006 5.50005C2.83697 5.50005 2.50006 5.83696 2.50006 6.25005V16.75C2.50006 17.1631 2.83697 17.5 3.25006 17.5H13.7501C14.1632 17.5 14.5001 17.1631 14.5001 16.75V6.25005C14.5001 5.83696 14.1632 5.50005 13.7501 5.50005H3.25006Z" fill="#292929"/>
<path d="M18.2501 14.75C17.836 14.75 17.5001 14.4141 17.5001 14V3.25005C17.5001 2.83696 17.1632 2.50005 16.7501 2.50005H6.00006C5.586 2.50005 5.25006 2.16411 5.25006 1.75005C5.25006 1.33599 5.586 1.00005 6.00006 1.00005H16.7501C17.9903 1.00005 19.0001 2.00982 19.0001 3.25005V14C19.0001 14.4141 18.6641 14.75 18.2501 14.75Z" fill="#292929"/>
</svg>
