<svg width="20" height="20" viewBox="0 0 20 20" fill="none" xmlns="http://www.w3.org/2000/svg">
<path d="M18.7795 1.21879C18.5676 1.00785 18.2522 0.943402 17.9748 1.05277L1.4748 7.56156C1.20527 7.66703 1.02168 7.91996 1.00214 8.20902C0.982605 8.49808 1.13105 8.7725 1.38398 8.91312L7.63886 12.4082L11.1603 18.6202C11.2941 18.8555 11.5441 19 11.8127 19C11.8303 19 11.8488 18.9991 11.8664 18.9981C12.1555 18.9776 12.4064 18.792 12.5109 18.5225L18.9484 2.0225C19.0568 1.74516 18.9904 1.42875 18.7795 1.21879ZM15.1693 3.77152L8.05634 10.9231L3.49726 8.37601L15.1693 3.77152ZM11.6877 16.5079L9.12128 11.9812L16.2497 4.814L11.6877 16.5079Z" fill="#292929"/>
</svg>
