<svg width="20" height="20" viewBox="0 0 20 20" fill="none" xmlns="http://www.w3.org/2000/svg">
<path d="M18.0138 2.38871C17.3966 1.97074 16.6173 1.8848 15.924 2.16019C12.964 3.33792 10.713 4.01273 9.75012 4.01273H5.00012C2.79407 4.01273 1.00012 5.8057 1.00012 8.0098C1.00012 10.2129 2.79407 12.0059 5.00012 12.0059H5.16272L7.42395 17.458C7.82239 18.419 8.755 19 9.73547 19C10.0538 19 10.3771 18.9385 10.6896 18.8096C11.3058 18.5537 11.7863 18.0743 12.0421 17.458C12.298 16.8409 12.298 16.1621 12.0421 15.543L10.6205 12.1175C11.7853 12.3518 13.6386 12.9554 15.9327 13.8565C16.1984 13.961 16.4767 14.0117 16.754 14.0117C17.1984 14.0117 17.6388 13.8799 18.0167 13.6221C18.6329 13.2031 19.0001 12.5078 19.0001 11.7627V4.25099C19.0001 3.50392 18.631 2.80765 18.0138 2.38871ZM2.50012 8.00981C2.50012 6.63286 3.62121 5.51274 5.00012 5.51274H9.00012V10.5059H5.00012C3.62121 10.5059 2.50012 9.38578 2.50012 8.00981ZM10.6574 16.8829C10.5548 17.129 10.3624 17.3213 10.1154 17.4239C9.60755 17.6348 9.02161 17.3926 8.80872 16.8838L6.78577 12.0059H8.95093L10.6574 16.1192C10.7589 16.3653 10.7589 16.6368 10.6574 16.8829ZM17.5001 11.7627C17.5001 12.0147 17.381 12.2413 17.173 12.3829C16.965 12.5235 16.712 12.5508 16.4816 12.46C13.7759 11.397 11.7789 10.7713 10.5001 10.5774V5.44292C11.7941 5.25103 13.7905 4.62285 16.4786 3.55474C16.712 3.46197 16.965 3.48931 17.171 3.62994C17.38 3.77154 17.5001 3.9981 17.5001 4.25103L17.5001 11.7627Z" fill="#292929"/>
</svg>
