<svg width="20" height="20" viewBox="0 0 20 20" fill="none" xmlns="http://www.w3.org/2000/svg">
<path d="M1.00009 13.5C1.00009 10.4678 3.46738 8 6.50009 8C9.5328 8 12.0001 10.4678 12.0001 13.5C12.0001 16.5322 9.5328 19 6.50009 19C3.46738 19 1.00009 16.5322 1.00009 13.5ZM2.50009 13.5C2.50009 15.706 4.29452 17.5 6.50009 17.5C8.70566 17.5 10.5001 15.706 10.5001 13.5C10.5001 11.294 8.70566 9.5 6.50009 9.5C4.29452 9.5 2.50009 11.294 2.50009 13.5Z" fill="#292929"/>
<path d="M14.0973 12.7207C14.1793 12.7207 14.2623 12.707 14.3438 12.6787C15.9327 12.126 17.0001 10.6289 17.0001 8.9541C17.0001 6.77344 15.2262 5 13.046 5C11.8663 5 10.7559 5.52637 9.99863 6.44434C9.8834 6.58496 9.82724 6.75391 9.82724 6.92188C9.82724 7.1377 9.9205 7.35254 10.1002 7.50098C10.42 7.76465 10.8927 7.71875 11.1558 7.39942C11.627 6.82813 12.316 6.50001 13.046 6.50001C14.399 6.50001 15.5001 7.6006 15.5001 8.95411C15.5001 9.99122 14.837 10.919 13.8507 11.2627C13.5411 11.3701 13.3473 11.6602 13.3473 11.9707C13.3468 12.0518 13.3604 12.1358 13.3888 12.2178C13.4967 12.5273 13.7872 12.7207 14.0973 12.7207Z" fill="#292929"/>
<path d="M17.8854 5.83203C18.1266 5.83203 18.3634 5.71582 18.5084 5.50098C18.8287 5.02344 18.9982 4.46778 18.9982 3.89161C18.9982 2.29981 17.7027 1.00391 16.1109 1.00391C15.0636 1.00391 14.0968 1.58008 13.5875 2.50879C13.3883 2.87109 13.5211 3.32715 13.8844 3.52637C14.2481 3.72657 14.7037 3.59375 14.9029 3.2295C15.1485 2.78223 15.6114 2.50391 16.1109 2.50391C16.8761 2.50391 17.4981 3.12598 17.4981 3.89161C17.4981 4.16798 17.4171 4.43556 17.2633 4.66309C17.0323 5.00684 17.1236 5.47364 17.4674 5.70411C17.5958 5.79102 17.7413 5.83203 17.8854 5.83203Z" fill="#292929"/>
</svg>
