<svg width="32" height="32" viewBox="0 0 32 32" fill="none" xmlns="http://www.w3.org/2000/svg">
	<path d="M20.7822 2.66673C21.1357 2.66704 21.4746 2.80772 21.7245 3.05784L26.2756 7.59117C26.5257 7.84098 26.6664 8.17989 26.6667 8.5334V27.5556C26.6667 28.0271 26.4794 28.4793 26.146 28.8127C25.8126 29.1461 25.3604 29.3334 24.8889 29.3334H7.11112C6.63963 29.3334 6.18744 29.1461 5.85405 28.8127C5.52065 28.4793 5.33335 28.0271 5.33335 27.5556V4.44451C5.33335 3.97301 5.52065 3.52083 5.85405 3.18743C6.18744 2.85403 6.63963 2.66673 7.11112 2.66673H20.7822ZM20.7822 1.77784H7.11112C6.40388 1.77784 5.7256 2.05879 5.22551 2.55889C4.72541 3.05899 4.44446 3.73726 4.44446 4.44451V27.5556C4.44446 28.2629 4.72541 28.9411 5.22551 29.4412C5.7256 29.9413 6.40388 30.2223 7.11112 30.2223H24.8889C25.5961 30.2223 26.2744 29.9413 26.7745 29.4412C27.2746 28.9411 27.5556 28.2629 27.5556 27.5556V8.5334C27.5523 7.94274 27.3159 7.37727 26.8978 6.96006L22.3467 2.42673C22.1419 2.22037 21.8981 2.05675 21.6295 1.94536C21.361 1.83397 21.073 1.77703 20.7822 1.77784Z" fill="#0265DC" />
	<path opacity="0.1" d="M20.7822 2.66675C21.1357 2.66706 21.4746 2.80774 21.7244 3.05786L26.2755 7.59119C26.5257 7.841 26.6663 8.17991 26.6666 8.53342V27.5556C26.6666 28.0271 26.4793 28.4793 26.1459 28.8127C25.8125 29.1461 25.3604 29.3334 24.8889 29.3334H7.11109C6.63959 29.3334 6.18741 29.1461 5.85401 28.8127C5.52061 28.4793 5.33331 28.0271 5.33331 27.5556V4.44453C5.33331 3.97303 5.52061 3.52084 5.85401 3.18745C6.18741 2.85405 6.63959 2.66675 7.11109 2.66675H20.7822Z" fill="#0265DC" />
	<path fill-rule="evenodd" clip-rule="evenodd" d="M9.17407 8C9.10143 7.99986 9.03148 8.02744 8.97848 8.07712C8.92549 8.1268 8.89346 8.19484 8.88892 8.26733V10.3615C8.88892 10.3965 8.89603 10.4311 8.90981 10.4633C8.9236 10.4954 8.94377 10.5245 8.96911 10.5486C8.99435 10.5744 9.02507 10.5942 9.05901 10.6066C9.09294 10.6189 9.12922 10.6235 9.16516 10.6199H9.48596C9.52174 10.6217 9.55754 10.6164 9.59121 10.6041C9.62489 10.5919 9.65576 10.573 9.68199 10.5486C9.72755 10.4934 9.75272 10.4241 9.75328 10.3525V8.82874H11.9899V14.2378H10.9741C10.8967 14.2442 10.8243 14.2784 10.7702 14.3341C10.7161 14.3898 10.6841 14.4633 10.68 14.5408V14.8438C10.6888 14.9178 10.7245 14.986 10.7804 15.0353C10.8363 15.0846 10.9085 15.1116 10.983 15.1111H13.9325C13.97 15.1111 14.0071 15.1037 14.0417 15.0894C14.0763 15.0751 14.1077 15.0541 14.1342 15.0276C14.1606 15.0011 14.1816 14.9697 14.196 14.9351C14.2103 14.9005 14.2177 14.8634 14.2177 14.8259V14.4784C14.2143 14.4432 14.2041 14.4091 14.1874 14.3779C14.1708 14.3467 14.1482 14.3191 14.1208 14.2968C14.0935 14.2744 14.062 14.2577 14.0281 14.2475C13.9943 14.2374 13.9588 14.2341 13.9236 14.2378H12.8632V8.89113H15.1266V10.3971C15.123 10.4323 15.1267 10.4679 15.1374 10.5016C15.1482 10.5353 15.1657 10.5665 15.189 10.5932C15.2136 10.6173 15.2429 10.6361 15.2751 10.6484C15.3073 10.6607 15.3417 10.6661 15.3761 10.6644H15.7504C15.7834 10.666 15.8165 10.6604 15.8472 10.6481C15.878 10.6358 15.9057 10.6171 15.9286 10.5932C15.9523 10.5683 15.9709 10.5389 15.9831 10.5068C15.9953 10.4746 16.001 10.4404 15.9999 10.406V8.26735C15.9977 8.19716 15.9688 8.13044 15.9191 8.08078C15.8695 8.03112 15.8027 8.00223 15.7326 8H9.17407Z" fill="#0265DC" />
	<path d="M22.6933 12.4443H16.4178C16.187 12.4443 16 12.6314 16 12.8621V12.9154C16 13.1462 16.187 13.3332 16.4178 13.3332H22.6933C22.9241 13.3332 23.1111 13.1462 23.1111 12.9154V12.8621C23.1111 12.6314 22.9241 12.4443 22.6933 12.4443Z" fill="#0265DC" />
	<path d="M22.6933 14.2222H16.4178C16.187 14.2222 16 14.4092 16 14.6399V14.6933C16 14.924 16.187 15.1111 16.4178 15.1111H22.6933C22.9241 15.1111 23.1111 14.924 23.1111 14.6933V14.6399C23.1111 14.4092 22.9241 14.2222 22.6933 14.2222Z" fill="#0265DC" />
	<path d="M22.6934 16H11.0845C10.8537 16 10.6667 16.187 10.6667 16.4178V16.4711C10.6667 16.7018 10.8537 16.8889 11.0845 16.8889H22.6934C22.9241 16.8889 23.1111 16.7018 23.1111 16.4711V16.4178C23.1111 16.187 22.9241 16 22.6934 16Z" fill="#0265DC" />
</svg>
