<svg xmlns="http://www.w3.org/2000/svg" width="42.156" height="8.504" viewBox="0 0 42.156 8.504"><g transform="translate(-296.882 1801.759) rotate(-90)"><g transform="translate(1793.255 296.882)"><path d="M1801.519,628.144l-3.646-3.615-3.625,3.615a.4.4,0,0,1-.51,0,.371.371,0,0,1,0-.5l3.88-3.833.012-.012a.357.357,0,0,1,.462-.024c.011,0,.011.012.024.024l.012.012,3.865,3.833a.323.323,0,0,1,.11.243.344.344,0,0,1-.11.254A.352.352,0,0,1,1801.519,628.144Z" transform="translate(-1793.597 -586.079)"/><path d="M1801.439,562.783l-3.646-3.615-3.626,3.615a.4.4,0,0,1-.509,0,.37.37,0,0,1,0-.5l3.88-3.834.012-.012a.366.366,0,0,1,.243-.1.36.36,0,0,1,.219.073c.012,0,.012.012.024.024l.012.012,3.865,3.834a.322.322,0,0,1,.11.243.344.344,0,0,1-.109.254A.354.354,0,0,1,1801.439,562.783Z" transform="translate(-1793.527 -528.242)"/><path d="M1801.364,497.413l-3.646-3.615-3.625,3.615a.4.4,0,0,1-.509,0,.37.37,0,0,1,0-.5l3.88-3.833.012-.012a.36.36,0,0,1,.243-.1.366.366,0,0,1,.218.073c.012,0,.013.012.025.025l.012.012,3.864,3.833a.322.322,0,0,1,.11.242.345.345,0,0,1-.109.255A.353.353,0,0,1,1801.364,497.413Z" transform="translate(-1793.46 -470.398)"/><path d="M1801.289,432.054l-3.645-3.615-3.626,3.615a.406.406,0,0,1-.51,0,.374.374,0,0,1,0-.5l3.88-3.833.012-.012a.36.36,0,0,1,.461-.024c.012,0,.012.013.024.024l.012.012,3.865,3.833a.327.327,0,0,1,.109.243.352.352,0,0,1-.109.255A.357.357,0,0,1,1801.289,432.054Z" transform="translate(-1793.394 -412.563)"/><path d="M1801.211,366.684l-3.645-3.615-3.626,3.615a.4.4,0,0,1-.51,0,.371.371,0,0,1,0-.5l3.88-3.832.012-.013a.363.363,0,0,1,.243-.1.368.368,0,0,1,.219.072c.012,0,.012.013.025.025l.011.013,3.864,3.832a.327.327,0,0,1,.11.242.347.347,0,0,1-.11.255A.353.353,0,0,1,1801.211,366.684Z" transform="translate(-1793.326 -354.719)"/><path d="M1801.132,301.322l-3.645-3.615-3.626,3.615a.4.4,0,0,1-.51,0,.371.371,0,0,1,0-.5l3.88-3.833.012-.013a.361.361,0,0,1,.462-.024c.011,0,.011.013.024.024l.012.013,3.863,3.833a.324.324,0,0,1,.111.243.351.351,0,0,1-.109.254A.356.356,0,0,1,1801.132,301.322Z" transform="translate(-1793.255 -296.882)"/></g></g></svg>