<svg xmlns="http://www.w3.org/2000/svg" width="887.647" height="628.181" viewBox="0 0 887.647 628.181"><defs><style>.a{opacity:0.3;isolation:isolate;}</style></defs><g class="a" transform="translate(-964.068 -419.681)"><circle cx="9.66" cy="9.66" r="9.66" transform="translate(1399.84 419.681)"/><path d="M1441.968,438.945a9.538,9.538,0,1,0-9.539-9.539A9.537,9.537,0,0,0,1441.968,438.945Z" transform="translate(39.979 -0.065)"/><path d="M1441.968,505.7a9.538,9.538,0,1,0-9.539-9.539A9.537,9.537,0,0,0,1441.968,505.7Z" transform="translate(39.979 -23.273)"/><path d="M1508.782,505.639a9.418,9.418,0,1,0-9.419-9.419A9.418,9.418,0,0,0,1508.782,505.639Z" transform="translate(45.585 -23.338)"/><path d="M1575.6,505.583a9.3,9.3,0,1,0-9.3-9.3A9.3,9.3,0,0,0,1575.6,505.583Z" transform="translate(51.164 -23.402)"/><path d="M1041.081,572.784a10.262,10.262,0,1,0-10.263-10.263A10.263,10.263,0,0,0,1041.081,572.784Z" transform="translate(-23.208 -46.096)"/><path d="M1107.961,572.672a10.021,10.021,0,1,0-10.02-10.023A10.023,10.023,0,0,0,1107.961,572.672Z" transform="translate(-46.546 -46.224)"/><path d="M1241.589,572.558a9.78,9.78,0,1,0-9.779-9.781A9.78,9.78,0,0,0,1241.589,572.558Z" transform="translate(22.961 -46.353)"/><path d="M1375.218,572.445a9.538,9.538,0,1,0-9.539-9.539A9.537,9.537,0,0,0,1375.218,572.445Z" transform="translate(34.281 -46.482)"/><path d="M1508.847,572.333a9.3,9.3,0,1,0-9.3-9.3A9.3,9.3,0,0,0,1508.847,572.333Z" transform="translate(45.493 -46.611)"/><path d="M1575.661,572.276a9.176,9.176,0,1,0-9.175-9.177A9.174,9.174,0,0,0,1575.661,572.276Z" transform="translate(51.059 -46.675)"/><path d="M974.331,639.534a10.262,10.262,0,1,0-10.263-10.263A10.263,10.263,0,0,0,974.331,639.534Z" transform="translate(0 -69.304)"/><path d="M1107.961,639.422a10.021,10.021,0,1,0-10.02-10.023A10.023,10.023,0,0,0,1107.961,639.422Z" transform="translate(-46.546 -69.433)"/><circle cx="9.66" cy="9.66" r="9.66" transform="translate(1254.917 550.307)"/><path d="M1308.468,639.2a9.538,9.538,0,1,0-9.539-9.539A9.537,9.537,0,0,0,1308.468,639.2Z" transform="translate(28.583 -69.69)"/><path d="M1375.282,639.139a9.418,9.418,0,1,0-9.419-9.419A9.418,9.418,0,0,0,1375.282,639.139Z" transform="translate(34.217 -69.754)"/><path d="M1508.911,639.026a9.176,9.176,0,1,0-9.176-9.177A9.174,9.174,0,0,0,1508.911,639.026Z" transform="translate(45.402 -69.883)"/><path d="M1575.725,638.971a9.056,9.056,0,1,0-9.056-9.057A9.055,9.055,0,0,0,1575.725,638.971Z" transform="translate(50.955 -69.947)"/><path d="M1041.211,706.172a10.022,10.022,0,1,0-10.02-10.023A10.023,10.023,0,0,0,1041.211,706.172Z" transform="translate(-23.338 -92.64)"/><path d="M1108.025,706.114a9.9,9.9,0,1,0-9.9-9.9A9.9,9.9,0,0,0,1108.025,706.114Z" transform="translate(-46.61 -92.704)"/><path d="M1308.532,705.889a9.418,9.418,0,1,0-9.419-9.419A9.418,9.418,0,0,0,1308.532,705.889Z" transform="translate(28.532 -92.962)"/><path d="M1442.161,705.776a9.176,9.176,0,1,0-9.175-9.177A9.174,9.174,0,0,0,1442.161,705.776Z" transform="translate(39.744 -93.091)"/><path d="M1508.975,705.72a9.056,9.056,0,1,0-9.056-9.057A9.055,9.055,0,0,0,1508.975,705.72Z" transform="translate(45.311 -93.155)"/><path d="M1575.79,705.665a8.934,8.934,0,1,0-8.935-8.936A8.936,8.936,0,0,0,1575.79,705.665Z" transform="translate(50.851 -93.22)"/><path d="M1642.6,705.609a8.814,8.814,0,1,0-8.814-8.816A8.815,8.815,0,0,0,1642.6,705.609Z" transform="translate(113.696 -93.284)"/><path d="M974.461,772.922a10.022,10.022,0,1,0-10.02-10.023A10.023,10.023,0,0,0,974.461,772.922Z" transform="translate(-0.13 -115.849)"/><path d="M1108.089,772.808a9.78,9.78,0,1,0-9.779-9.781A9.78,9.78,0,0,0,1108.089,772.808Z" transform="translate(-46.674 -115.977)"/><circle cx="9.66" cy="9.66" r="9.66" transform="translate(1182.456 637.39)"/><path d="M1241.718,772.695a9.538,9.538,0,1,0-9.539-9.539A9.537,9.537,0,0,0,1241.718,772.695Z" transform="translate(22.886 -116.106)"/><path d="M1308.6,772.582a9.3,9.3,0,1,0-9.3-9.3A9.3,9.3,0,0,0,1308.6,772.582Z" transform="translate(28.481 -116.235)"/><path d="M1509.04,772.415a8.934,8.934,0,1,0-8.935-8.936A8.936,8.936,0,0,0,1509.04,772.415Z" transform="translate(45.22 -116.429)"/><path d="M1575.854,772.359a8.814,8.814,0,1,0-8.814-8.816A8.815,8.815,0,0,0,1575.854,772.359Z" transform="translate(50.746 -116.493)"/><path d="M1709.482,772.244a8.572,8.572,0,1,0-8.573-8.573A8.573,8.573,0,0,0,1709.482,772.244Z" transform="translate(90.36 -116.621)"/><circle cx="9.66" cy="9.66" r="9.66" transform="translate(1051.755 680.932)"/><path d="M1442.29,839.165a8.934,8.934,0,1,0-8.935-8.936A8.936,8.936,0,0,0,1442.29,839.165Z" transform="translate(39.589 -139.637)"/><path d="M1509.1,839.109a8.814,8.814,0,1,0-8.814-8.816A8.815,8.815,0,0,0,1509.1,839.109Z" transform="translate(45.128 -139.701)"/><path d="M1575.918,839.051a8.693,8.693,0,1,0-8.694-8.694A8.694,8.694,0,0,0,1575.918,839.051Z" transform="translate(50.643 -139.765)"/><path d="M1642.732,838.994a8.572,8.572,0,1,0-8.573-8.573A8.573,8.573,0,0,0,1642.732,838.994Z" transform="translate(113.568 -139.829)"/><path d="M1776.362,838.881a8.332,8.332,0,1,0-8.331-8.332A8.331,8.331,0,0,0,1776.362,838.881Z" transform="translate(67.022 -139.957)"/><path d="M974.589,906.308a9.78,9.78,0,1,0-9.779-9.781A9.78,9.78,0,0,0,974.589,906.308Z" transform="translate(-0.258 -162.393)"/><path d="M1108.218,906.195a9.538,9.538,0,1,0-9.539-9.539A9.537,9.537,0,0,0,1108.218,906.195Z" transform="translate(-46.803 -162.522)"/><path d="M1175.032,906.14a9.418,9.418,0,1,0-9.419-9.419A9.418,9.418,0,0,0,1175.032,906.14Z" transform="translate(17.163 -162.587)"/><path d="M1375.475,905.97a9.056,9.056,0,1,0-9.056-9.057A9.054,9.054,0,0,0,1375.475,905.97Z" transform="translate(34.022 -162.78)"/><path d="M1509.168,905.8a8.693,8.693,0,1,0-8.694-8.694A8.694,8.694,0,0,0,1509.168,905.8Z" transform="translate(45.038 -162.973)"/><path d="M1575.982,905.744a8.572,8.572,0,1,0-8.573-8.573A8.573,8.573,0,0,0,1575.982,905.744Z" transform="translate(50.538 -163.037)"/><path d="M1642.8,905.689a8.452,8.452,0,1,0-8.451-8.453A8.452,8.452,0,0,0,1642.8,905.689Z" transform="translate(113.503 -163.102)"/><path d="M1776.426,905.576a8.211,8.211,0,1,0-8.21-8.212A8.211,8.211,0,0,0,1776.426,905.576Z" transform="translate(66.958 -163.23)"/><circle cx="9.66" cy="9.66" r="9.66" transform="translate(964.672 768.015)"/><path d="M1108.282,972.889a9.418,9.418,0,1,0-9.419-9.419A9.418,9.418,0,0,0,1108.282,972.889Z" transform="translate(-46.867 -185.795)"/><path d="M1241.911,972.776a9.176,9.176,0,1,0-9.175-9.177A9.174,9.174,0,0,0,1241.911,972.776Z" transform="translate(22.772 -185.924)"/><path d="M1308.725,972.72a9.056,9.056,0,1,0-9.056-9.057A9.055,9.055,0,0,0,1308.725,972.72Z" transform="translate(28.378 -185.988)"/><path d="M1375.54,972.665a8.934,8.934,0,1,0-8.935-8.936A8.936,8.936,0,0,0,1375.54,972.665Z" transform="translate(33.958 -186.053)"/><path d="M1642.862,972.381a8.332,8.332,0,1,0-8.331-8.332A8.331,8.331,0,0,0,1642.862,972.381Z" transform="translate(113.438 -186.374)"/><path d="M1709.676,972.326a8.211,8.211,0,1,0-8.21-8.212A8.211,8.211,0,0,0,1709.676,972.326Z" transform="translate(90.166 -186.439)"/><path d="M974.718,1039.695a9.538,9.538,0,1,0-9.539-9.539A9.537,9.537,0,0,0,974.718,1039.695Z" transform="translate(-0.386 -208.939)"/><path d="M1108.346,1039.582a9.3,9.3,0,1,0-9.3-9.3A9.3,9.3,0,0,0,1108.346,1039.582Z" transform="translate(-46.931 -209.067)"/><path d="M1241.975,1039.47a9.056,9.056,0,1,0-9.056-9.057A9.055,9.055,0,0,0,1241.975,1039.47Z" transform="translate(22.734 -209.196)"/><path d="M1442.418,1039.3a8.693,8.693,0,1,0-8.694-8.694A8.694,8.694,0,0,0,1442.418,1039.3Z" transform="translate(39.433 -209.39)"/><path d="M1576.112,1039.131a8.332,8.332,0,1,0-8.331-8.332A8.331,8.331,0,0,0,1576.112,1039.131Z" transform="translate(50.328 -209.582)"/><path d="M1642.926,1039.076a8.211,8.211,0,1,0-8.21-8.212A8.211,8.211,0,0,0,1642.926,1039.076Z" transform="translate(113.374 -209.647)"/><path d="M974.718,1106.445a9.538,9.538,0,1,0-9.539-9.539A9.537,9.537,0,0,0,974.718,1106.445Z" transform="translate(-0.386 -232.147)"/><path d="M1041.6,1106.332a9.3,9.3,0,1,0-9.3-9.3A9.3,9.3,0,0,0,1041.6,1106.332Z" transform="translate(-23.723 -232.276)"/><path d="M1242.04,1106.165a8.934,8.934,0,1,0-8.935-8.936A8.936,8.936,0,0,0,1242.04,1106.165Z" transform="translate(22.696 -232.47)"/><path d="M1375.668,1106.051a8.693,8.693,0,1,0-8.694-8.694A8.694,8.694,0,0,0,1375.668,1106.051Z" transform="translate(33.829 -232.598)"/><path d="M1442.482,1105.994a8.572,8.572,0,1,0-8.573-8.573A8.573,8.573,0,0,0,1442.482,1105.994Z" transform="translate(39.356 -232.662)"/><path d="M1509.3,1105.939a8.452,8.452,0,1,0-8.451-8.453A8.452,8.452,0,0,0,1509.3,1105.939Z" transform="translate(44.854 -232.726)"/><path d="M1576.176,1105.826a8.211,8.211,0,1,0-8.21-8.212A8.211,8.211,0,0,0,1576.176,1105.826Z" transform="translate(50.224 -232.855)"/><path d="M1642.99,1105.768a8.09,8.09,0,1,0-8.09-8.09A8.089,8.089,0,0,0,1642.99,1105.768Z" transform="translate(113.31 -232.919)"/><path d="M1709.8,1105.712a7.968,7.968,0,1,0-7.969-7.969A7.968,7.968,0,0,0,1709.8,1105.712Z" transform="translate(90.038 -232.984)"/><path d="M1776.619,1105.656a7.848,7.848,0,1,0-7.848-7.849A7.847,7.847,0,0,0,1776.619,1105.656Z" transform="translate(66.765 -233.048)"/><path d="M974.782,1173.139a9.418,9.418,0,1,0-9.419-9.419A9.418,9.418,0,0,0,974.782,1173.139Z" transform="translate(-0.45 -255.42)"/><path d="M1041.661,1173.026a9.176,9.176,0,1,0-9.176-9.177A9.174,9.174,0,0,0,1041.661,1173.026Z" transform="translate(-23.788 -255.548)"/><path d="M1108.475,1172.97a9.056,9.056,0,1,0-9.056-9.057A9.055,9.055,0,0,0,1108.475,1172.97Z" transform="translate(-47.06 -255.613)"/><path d="M1175.29,1172.915a8.934,8.934,0,1,0-8.935-8.936A8.935,8.935,0,0,0,1175.29,1172.915Z" transform="translate(17.065 -255.678)"/><path d="M1442.548,1172.689a8.452,8.452,0,1,0-8.451-8.453A8.452,8.452,0,0,0,1442.548,1172.689Z" transform="translate(39.277 -255.935)"/><path d="M1509.362,1172.631a8.332,8.332,0,1,0-8.331-8.332A8.331,8.331,0,0,0,1509.362,1172.631Z" transform="translate(44.764 -255.999)"/><path d="M1576.176,1172.576a8.211,8.211,0,1,0-8.21-8.212A8.211,8.211,0,0,0,1576.176,1172.576Z" transform="translate(50.224 -256.063)"/><path d="M1709.869,1172.406a7.848,7.848,0,1,0-7.848-7.849A7.847,7.847,0,0,0,1709.869,1172.406Z" transform="translate(89.973 -256.257)"/><path d="M974.846,1239.832a9.3,9.3,0,1,0-9.3-9.3A9.3,9.3,0,0,0,974.846,1239.832Z" transform="translate(-0.515 -278.692)"/><path d="M1108.475,1239.72a9.056,9.056,0,1,0-9.056-9.057A9.055,9.055,0,0,0,1108.475,1239.72Z" transform="translate(-47.06 -278.821)"/><path d="M1175.354,1239.609a8.814,8.814,0,1,0-8.814-8.816A8.815,8.815,0,0,0,1175.354,1239.609Z" transform="translate(17.04 -278.95)"/><path d="M1242.168,1239.551a8.693,8.693,0,1,0-8.694-8.694A8.694,8.694,0,0,0,1242.168,1239.551Z" transform="translate(22.62 -279.015)"/><path d="M974.911,1306.526a9.176,9.176,0,1,0-9.175-9.177A9.173,9.173,0,0,0,974.911,1306.526Z" transform="translate(-0.58 -301.965)"/><path d="M1175.354,1306.359a8.814,8.814,0,1,0-8.814-8.816A8.815,8.815,0,0,0,1175.354,1306.359Z" transform="translate(17.04 -302.158)"/><circle cx="8.572" cy="8.572" r="8.572" transform="translate(1256.242 986.812)"/><path d="M1309.048,1306.186a8.451,8.451,0,1,0-8.451-8.451A8.449,8.449,0,0,0,1309.048,1306.186Z" transform="translate(28.121 -302.351)"/><path d="M1041.79,1373.165a8.934,8.934,0,1,0-8.935-8.936A8.936,8.936,0,0,0,1041.79,1373.165Z" transform="translate(-23.916 -325.303)"/><path d="M1108.6,1373.109a8.814,8.814,0,1,0-8.814-8.816A8.815,8.815,0,0,0,1108.6,1373.109Z" transform="translate(-47.189 -325.367)"/><path d="M1242.3,1372.936a8.451,8.451,0,1,0-8.451-8.451A8.449,8.449,0,0,0,1242.3,1372.936Z" transform="translate(22.543 -325.559)"/></g></svg>