<svg xmlns="http://www.w3.org/2000/svg" width="1535.799" height="1231.609" viewBox="0 0 1535.799 1231.609"><g transform="translate(-1892.58 -773.279)"><path d="M3372.914,773.279q3.012,55.441,5.853,108.994l9.552,176.325,11.633,202.26c5.7,97.956,11.594,199.245,16.69,293.85,3.607,66.487,5.722,113.6,6.661,148.3l.36,13.545c.729,27.451,1.556,58.569,3.811,103.373-66.288,17.673-127.8,62.206-187.287,105.279-16.693,12.088-33.957,24.592-51.151,36.379a807.923,807.923,0,0,1-70.324,43.3h1.925q34.109-18.681,68.866-42.5c17.2-11.8,34.47-24.308,51.164-36.4,59.531-43.11,121.082-87.683,187.361-105.242l.351-.1-.013-.4c-2.273-45-3.1-76.2-3.835-103.731l-.356-13.547c-.941-34.706-3.057-81.834-6.665-148.329-5.094-94.6-10.984-195.891-16.691-293.855l-11.63-202.248c0-.01-9.554-176.334-9.554-176.334q-2.859-53.568-5.85-108.933Z"/><path d="M3052.372,2004.888a443.451,443.451,0,0,0,138.4-56.386c34.2-21.18,67.3-46.974,99.315-71.91,43.319-33.746,88.11-68.639,136.278-92.656l-.356-.859c-48.245,24.06-93.077,58.976-136.426,92.756-32,24.915-65.088,50.693-99.246,71.849a442.015,442.015,0,0,1-142.418,57.206Z"/><path d="M2834.059,2004.888c-34.321-4.1-68.463-9.12-102.067-14.053-92.6-13.613-188.362-27.676-281.612-21.566-64.525,4.3-128.146,18.62-190.472,35.619h3.557c61.217-16.586,123.668-30.464,186.967-34.678,93.169-6.11,188.879,7.953,281.444,21.55,31.091,4.571,62.643,9.208,94.372,13.128Z"/><path d="M1982.555,2004.888c32.317-12.051,64.911-25.067,96.518-37.674,116.208-46.363,236.359-94.3,361.578-102.7,127.216-8.458,253.244,21.107,386.664,52.39,38.913,9.125,79.159,18.567,118.978,26.847,94.684,19.673,177.072,13.617,244.873-17.983,52.185-24.377,99-62.609,148.561-103.1,27.556-22.515,56.049-45.8,85.622-66.536l-.476-.8c-29.6,20.774-58.1,44.064-85.668,66.585-49.52,40.448-96.3,78.658-148.39,102.991-67.633,31.524-149.85,37.557-244.36,17.92-39.807-8.283-80.041-17.716-118.956-26.841-133.483-31.309-259.571-60.885-386.9-52.417-125.349,8.416-245.567,56.367-361.828,102.756-32.378,12.914-65.807,26.253-98.9,38.559Z"/><path d="M1892.58,1960.634c26.323-10.943,51.446-23.932,74.988-36.979,82.79-45.943,156.812-80.5,226.317-105.668,83.635-30.293,161.479-47.536,237.953-52.7,180.935-12.124,366.781,43.714,508.482,93.7,82.582,29.136,170.028,53.236,250.028,32.6,72.6-18.789,137.4-74.086,206.014-132.642l28.405-24.136-.531-.747-28.415,24.146c-68.525,58.484-133.257,113.731-205.666,132.46-79.8,20.589-167.1-3.487-249.571-32.574-141.767-50.015-327.719-105.873-508.8-93.746-76.564,5.169-154.475,22.428-238.189,52.747-69.527,25.183-143.6,59.762-226.427,105.722-23.423,12.985-48.413,25.911-74.591,36.811Z"/><path d="M1892.58,1875.24c15.3-9.913,30.437-20.254,45.452-30.512l20.746-14.128c128.083-86.567,285.14-136.724,466.81-149.075,182.228-12.3,353.056,15.873,507.725,83.744l29.153,12.973c77.944,34.85,151.55,67.774,225.766,66.024,85.738-2.015,167.46-66.075,236.1-128.487l-.563-.723c-68.517,62.311-150.083,126.271-235.556,128.272-74.027,1.74-147.563-31.141-225.42-65.961l-29.153-12.969c-154.794-67.923-325.748-96.126-508.108-83.817-181.818,12.363-339.014,62.561-467.212,149.219l-20.752,14.139c-14.863,10.154-29.846,20.389-44.989,30.208Z"/><path d="M1892.58,1777.1c18.5-14.73,37.478-29.573,56.881-43.084,131.114-91.307,291.667-101.984,446.941-112.3l26.682-1.78,19.429-1.341c159.709-11.016,324.855-22.421,483.486,49.378,28.729,13.018,57.213,27.953,84.758,42.389,59.184,31.025,115.085,60.333,174.066,72.81,73.93,15.563,158.794-15.615,238.96-87.781l-.554-.72c-79.963,71.985-164.569,103.089-238.24,87.577-58.865-12.458-114.72-41.736-173.849-72.742-27.563-14.437-56.051-29.374-84.8-42.4-158.818-71.89-324.07-60.477-483.88-49.447L2423.034,1619l-26.688,1.78c-155.38,10.329-316.054,21.006-447.357,112.443-19.242,13.4-38.068,28.1-56.409,42.7Z"/><path d="M1892.58,1678.677a479.366,479.366,0,0,1,48.81-34.341c101.218-61.145,223.373-59.34,341.522-57.6,46.808.694,95.224,1.415,141.835-1.765,45.525-3.114,92.462-10.084,137.868-16.813,118.109-17.508,240.249-35.613,356.857,9.495,46.487,18.031,91.77,44.2,135.559,69.508,40.614,23.471,82.609,47.749,125.445,65.452,80.388,33.168,171.031,17.913,242.485-40.826l-.527-.748c-71.209,58.543-161.547,73.755-241.644,40.7-42.79-17.685-84.767-41.944-125.349-65.41-43.816-25.322-89.122-51.514-135.667-69.554-116.818-45.2-239.063-27.068-357.285-9.54-45.376,6.715-92.3,13.678-137.8,16.8-46.583,3.17-94.972,2.46-141.777,1.764-118.249-1.738-240.53-3.545-341.955,57.728a479.144,479.144,0,0,0-48.38,33.994Z"/><path d="M1892.58,1588.186a283.172,283.172,0,0,1,42.916-22.853c91.543-38.479,195.707-23.346,296.44-8.692,65.443,9.5,133.114,19.344,197.9,14.931,63.458-4.365,127.787-22.921,189.993-40.875,96.542-27.855,196.374-56.667,294.439-32.575,65.058,16.088,125.942,53.878,190.411,93.882,23.032,14.3,46.849,29.074,70.778,42.713,41.936,23.887,85.747,37.765,126.694,40.129,44.823,2.594,85.054-8.142,119.58-31.895l-.476-.8c-34.36,23.652-74.416,34.338-119.058,31.755-40.825-2.36-84.513-16.192-126.337-40.024-23.91-13.633-47.719-28.4-70.743-42.688-64.524-40.055-125.468-77.874-190.658-93.984-98.28-24.155-198.213,4.69-294.851,32.576-62.178,17.939-126.462,36.49-189.832,40.844-64.691,4.405-132.319-5.429-197.721-14.932-100.849-14.657-205.123-29.82-296.871,8.759a283.464,283.464,0,0,0-42.6,22.635Z"/><path d="M1892.58,1511.058a193.873,193.873,0,0,1,39.811-11.861c70.774-12.7,147.491,8.924,221.679,29.865l31.778,8.866c100.574,27.454,180.394,38,251.2,33.165,70.877-4.86,145.837-26.042,235.916-66.642l25.018-11.417c68.674-31.51,139.688-64.106,212.714-61.417,86.105,3.271,174.148,62.562,259.294,119.9,103.077,69.474,187.181,88.277,250,55.893l-.376-.842c-62.528,32.232-146.357,13.444-249.159-55.855-85.243-57.4-173.4-116.753-259.728-120.04-73.224-2.693-144.325,29.937-213.087,61.487l-25.014,11.423c-89.987,40.561-164.855,61.717-235.631,66.566-70.714,4.834-150.445-5.7-250.932-33.135l-31.769-8.879c-74.281-20.942-151.087-42.609-222.044-29.876a194.587,194.587,0,0,0-39.667,11.781Z"/><path d="M1892.58,1450.934a169.1,169.1,0,0,1,39.714-2.08c61.471,4.171,121.1,28.466,184.233,54.192,25.144,10.26,51.151,20.851,77.034,29.927,88.741,31.14,173.082,44.253,250.7,38.989,77.588-5.34,156.2-29.665,233.629-72.289,22.27-12.283,44.48-26.138,65.965-39.54,52.583-32.786,106.95-66.7,165.077-79.028,69.2-14.583,152.826,14.307,255.673,88.322,94.088,67.655,178.085,121.666,253.2,97.031l-.249-.9c-74.757,24.523-158.568-29.381-252.471-96.916-103.039-74.159-186.89-103.093-256.33-88.456-58.265,12.349-112.7,46.3-165.336,79.144-21.469,13.382-43.671,27.235-65.923,39.5-77.325,42.574-155.815,66.866-233.3,72.186-77.5,5.259-161.737-7.84-250.364-38.935-25.859-9.073-51.859-19.666-77-29.914-63.2-25.763-122.878-50.078-184.488-54.253a169.931,169.931,0,0,0-39.765,2.065Z"/><path d="M1892.58,1403.242a187.613,187.613,0,0,1,42.214,7.369c50.392,14.917,99.748,39.772,147.48,63.8,38.79,19.537,78.9,39.718,119.21,54.387,77.694,28.17,161.251,39.439,248.338,33.464,87.321-5.99,165.756-28.391,233.116-66.585,34.822-19.766,68.234-45.253,100.547-69.9,39.717-30.315,80.8-61.651,125.156-82.958,70.958-33.976,162.346-17.387,250.734,45.512,15.683,11.172,31.393,22.937,46.595,34.334,72.6,54.414,141.176,105.8,209.2,96.552l-.111-.934c-67.69,9.21-136.13-42.094-208.586-96.385-15.209-11.394-30.928-23.187-46.616-34.346-88.647-63.092-180.334-79.709-251.566-45.589-44.44,21.346-85.549,52.707-125.307,83.038-32.291,24.638-65.675,50.108-100.442,69.835-67.258,38.135-145.572,60.511-232.779,66.5-86.975,5.954-170.412-5.29-247.995-33.425-40.274-14.652-80.356-34.836-119.127-54.357-47.764-24.043-97.151-48.9-147.615-63.848a188.5,188.5,0,0,0-42.444-7.4Z"/><path d="M1892.58,1365.314a256.1,256.1,0,0,1,46.5,17c34.993,16.711,69.218,36.2,102.321,55.056,56.769,32.335,110.4,62.861,166.435,79.784,82.1,24.695,165.69,21.512,244.281,16.117,82.028-5.644,161.7-13.648,234.646-49.093,49.17-23.925,92.7-61.486,138.8-101.239,26.887-23.189,54.687-47.164,83.835-68.336,72.664-52.722,166.643-53.307,245.265-1.519,27.7,18.252,54.447,39.51,80.3,60.072,60,47.671,116.666,92.705,177.269,95.259l.041-.938c-60.345-2.539-116.909-47.494-176.788-95.082-25.882-20.571-52.637-41.833-80.363-60.117-78.929-51.98-173.267-51.386-246.208,1.541-29.186,21.192-57,45.173-83.9,68.374-46.046,39.726-89.543,77.249-138.611,101.126-72.813,35.369-152.4,43.368-234.341,49.013-78.512,5.38-162.037,8.578-243.995-16.092-55.956-16.889-109.537-47.394-166.267-79.7-33.109-18.862-67.357-38.359-102.378-55.082a256.912,256.912,0,0,0-46.846-17.1Z"/><path d="M1892.58,1332.348a391.989,391.989,0,0,1,51.734,26.666c15.115,9.2,30.226,18.647,44.833,27.785,76.82,48.048,149.377,93.426,222.606,105.414,56.015,9.144,112.6,2.215,167.326-4.495,23.453-2.875,47.7-5.843,71.481-7.484,24.077-1.659,48.767-2.014,72.646-2.352,55.162-.782,112.188-1.59,165.464-18.574,67.519-21.567,126.209-77.233,188.346-136.189,10.98-10.414,22.325-21.172,33.683-31.7,30.138-27.925,70.4-61.4,114.606-72.389,37.343-9.257,81.8-.693,125.177,24.106,36.688,21.024,70.845,49.458,103.865,76.959,51.5,42.879,100.149,83.387,154.751,94.4l.162-.924c-54.4-10.954-102.963-51.4-154.387-94.222-33.049-27.521-67.231-55.978-103.984-77.033-43.567-24.912-88.232-33.5-125.784-24.2-44.388,11.034-84.762,44.6-114.969,72.6-11.358,10.529-22.714,21.3-33.69,31.71-62.071,58.872-120.692,114.483-188.02,136-53.161,16.933-110.137,17.742-165.229,18.531-23.892.331-48.587.685-72.687,2.345-23.808,1.652-48.07,4.618-71.529,7.488-54.666,6.7-111.2,13.624-167.1,4.506-73.072-11.97-145.551-57.311-222.3-105.294-14.6-9.144-29.716-18.6-44.836-27.805a392.441,392.441,0,0,0-52.164-26.853Z"/><path d="M1892.58,1300.527a663.918,663.918,0,0,1,57.2,35.778c86.8,60.217,178.615,118.664,263.045,114.439,40.094-2.046,79.87-13.432,118.331-24.457,37.03-10.608,75.321-21.579,113.991-24.271,39.354-2.723,79.816,2.781,118.938,8.1,40.863,5.558,83.113,11.308,124.24,7.7,80.456-7.095,155.088-75.793,223.753-148.953,48.845-52.047,144.284-133.129,234.668-91.412,44,20.378,83.862,54.754,122.41,87.988,45.1,38.879,87.71,75.608,136.607,92.211l.264-.888c-48.745-16.554-91.285-53.24-136.329-92.07-38.591-33.264-78.5-67.667-122.611-88.111-90.846-41.938-186.621,39.4-235.62,91.613-68.553,73.038-143.037,141.6-223.222,148.683-41.024,3.593-83.236-2.146-124.06-7.7-39.163-5.324-79.652-10.833-119.094-8.109-38.752,2.7-77.085,13.678-114.156,24.3-38.414,11.005-78.148,22.383-118.152,24.422-84.175,4.209-175.852-54.157-262.541-114.293a662.824,662.824,0,0,0-57.666-36.038Z"/><path d="M1892.58,1268.386c20.99,13.692,41.841,28.6,62.069,43.464,48.549,35.658,93.455,61.071,133.464,75.518,46.228,16.693,87.673,19.434,123.178,8.129,30.433-9.719,60.1-24.869,88.786-39.523,43.779-22.356,89.05-45.495,136.921-48.858,49.391-3.451,97.949,12.167,149.356,28.7,32.457,10.44,66.016,21.228,99.61,26.655,89.3,14.344,172.833-56.211,227.175-117.926,64.871-73.685,149.7-154.672,230.4-126.722,49.512,17.233,93.858,56.433,136.735,94.342,38.527,34.045,78.357,69.259,122.176,88.995l.337-.874c-43.709-19.672-83.491-54.846-121.953-88.853-42.956-37.964-87.359-77.222-137.031-94.505-81.164-28.116-166.241,53.083-231.3,126.971-54.2,61.551-137.486,131.931-226.414,117.645-33.533-5.415-67.061-16.208-99.485-26.627-51.484-16.562-100.122-32.187-149.662-28.741-48.037,3.385-93.386,26.552-137.238,48.946-28.66,14.638-58.3,29.778-88.662,39.471-35.339,11.252-76.608,8.518-122.656-8.119-39.935-14.414-84.767-39.785-133.258-75.406-20.381-14.973-41.4-30-62.552-43.78Z"/><path d="M1892.58,1234.219c15.346,11.065,30.71,22.579,45.891,33.958l20.154,15.072c40.3,29.986,87.7,61.916,133.8,71.4,47,9.655,88.754-8,115.506-24.5,22.972-14.208,45.321-31.251,66.924-47.728,50.205-38.3,97.625-74.469,152.748-78.4,57.226-4.009,113.755,24.612,173.595,54.917,26.317,13.317,53.525,27.1,81.026,38.025,45.121,17.892,87.114,20.655,121.421,7.992,42.629-15.781,79.534-53.81,110.022-88.935l4.311-4.959c71.374-82.29,145.184-167.371,222.712-149.024,53.356,12.732,99.185,53.961,147.7,97.61,35.009,31.5,71.217,64.076,110.769,85.3l.388-.839c-39.459-21.173-75.63-53.717-110.6-85.182-48.6-43.724-94.51-85.02-148.072-97.807-78.012-18.457-152,66.821-223.535,149.3l-4.307,4.959c-30.413,35.035-67.231,72.969-109.673,88.7-34.121,12.593-75.908,9.818-120.842-7.993-27.461-10.918-54.657-24.682-80.956-37.995-59.945-30.35-116.577-59.02-174.023-55-55.36,3.944-102.881,40.2-153.192,78.564-21.591,16.467-43.916,33.5-66.847,47.673-26.622,16.437-68.175,34.006-114.909,24.406-45.955-9.454-93.259-41.329-133.484-71.255l-20.149-15.071c-15.346-11.5-30.875-23.14-46.386-34.316Z"/><path d="M1892.58,1196.181q9.369,7.2,18.825,14.544c16.381,12.692,33.33,25.826,50.18,38.2,54.308,39.9,94.806,58.466,131.333,60.2,35.107,1.625,73.445-15.527,110.844-49.586,16.426-14.969,32.594-31.193,48.24-46.875,53.978-54.131,104.958-105.274,166.675-109.729,63.969-4.5,127.765,37.7,195.315,82.393,20.774,13.748,42.253,27.957,63.906,40.844,48.748,29.01,89.492,39.86,124.54,33.185,34.59-6.634,70.951-32.029,111.15-77.632,10.957-12.435,22.011-25.472,32.69-38.08,30.415-35.866,61.865-72.964,93.5-98.922,35.362-29.011,67.5-40.977,98.285-36.608,55.775,8.063,104.371,52.286,155.819,99.1,32.372,29.46,65.849,59.926,102.034,81.648l.42-.815c-36.11-21.692-69.554-52.123-101.886-81.553-51.549-46.914-100.243-91.222-156.282-99.316-31.006-4.414-63.365,7.614-98.906,36.791-31.709,26.006-63.182,63.136-93.623,99.034-10.686,12.6-21.73,25.637-32.678,38.064-40.079,45.459-76.28,70.761-110.674,77.345-34.848,6.649-75.4-4.17-123.98-33.07-21.63-12.879-43.1-27.081-63.86-40.827-67.671-44.772-131.59-87.044-195.832-82.527-62.021,4.471-113.117,55.729-167.212,109.985-15.628,15.679-31.79,31.882-48.2,46.833-37.237,33.912-75.361,50.994-110.252,49.374-36.349-1.725-76.719-20.233-130.882-60.031-16.843-12.379-33.783-25.5-50.168-38.189q-9.707-7.518-19.324-14.928Z"/><path d="M1892.58,1155.246l4.954,3.945c21.42,17.064,43.565,34.7,65.869,50.775,51.611,37.162,93.911,53.817,129.293,50.907,33.989-2.835,70.11-25.8,107.37-68.25,9.918-11.3,19.864-23,29.468-34.305,58.736-69.085,114.206-134.345,182.788-139.311,70.34-5,141.816,49.358,217.483,106.906,14.408,10.953,29.3,22.286,44.18,33.178,51.184,37.441,91.474,53.938,126.822,51.9,35.376-2.081,73.081-25.051,112.064-68.27,15.965-17.722,31.718-36.83,46.957-55.323,57.333-69.579,111.5-135.29,175.8-130.435,57.051,4.455,107.536,50.709,160.974,99.681,30.641,28.066,62.321,57.091,96.257,78.858l.438-.81c-33.875-21.721-65.518-50.732-96.131-78.769-53.558-49.077-104.136-95.43-161.479-99.9-64.727-4.889-119.029,60.992-176.513,130.746-15.225,18.472-30.979,37.589-46.924,55.287-38.823,43.052-76.333,65.925-111.5,67.99-35.141,2.03-75.259-14.413-126.277-51.732-14.874-10.9-29.764-22.223-44.166-33.172-75.8-57.652-147.4-112.1-218.044-107.078-68.927,4.99-124.513,70.379-183.366,139.62-9.611,11.3-19.548,22.986-29.457,34.29-37.108,42.278-73.048,65.134-106.816,67.954-35.181,2.89-77.292-13.713-128.744-50.742-22.28-16.074-44.42-33.706-65.827-50.757l-5.475-4.361Z"/><path d="M1892.58,1110.443c23.248,18.827,47.256,38.231,71.607,55.563,50.957,36.23,92.842,51.153,128.052,45.643,33.546-5.3,68.029-30.941,105.425-78.383,11.535-14.627,22.7-30.076,33.487-45.018,20.441-28.276,41.574-57.507,65.323-81.188,29.047-28.923,67.107-45.263,113.13-48.564,46.062-3.334,88.356,7.234,125.714,31.415,30.687,19.888,60.423,45.564,89.179,70.386,15.152,13.084,30.818,26.6,46.624,39.3,52.846,42.429,92.3,61.57,127.931,62.047,35.445.453,74.341-21.34,112.506-62.992,18.262-19.976,36.019-41.924,53.194-63.148,54.575-67.453,106.128-131.163,168.518-128.633,57.587,2.479,109.038,49.847,163.519,100.005,29.7,27.341,60.423,55.614,93.152,77.328l.458-.794c-32.679-21.682-63.37-49.933-93.045-77.264-54.593-50.252-106.165-97.731-164.057-100.216-62.8-2.548-114.479,61.332-169.2,128.956-17.166,21.213-34.915,43.154-53.152,63.1-37.991,41.477-76.683,63.164-111.883,62.714-35.431-.473-74.735-19.552-127.423-61.865-15.79-12.689-31.449-26.2-46.6-39.279-28.781-24.846-58.539-50.537-89.267-70.456-37.519-24.281-79.986-34.905-126.226-31.55-46.222,3.316-84.467,19.734-113.657,48.809-23.814,23.731-44.961,53.007-65.426,81.308-10.782,14.933-21.943,30.361-33.463,44.984-37.253,47.258-71.556,72.8-104.89,78.068-34.987,5.48-76.674-9.4-127.441-45.505-24.517-17.442-48.691-37.011-72.088-55.964Z"/><path d="M1892.58,1060.688c23.177,18.858,47.12,38.282,71.408,55.63,50.852,36.32,92.662,51.288,127.826,45.759,33.481-5.315,67.905-31.02,105.231-78.578,11.507-14.658,22.635-30.136,33.4-45.1,20.406-28.347,41.5-57.672,65.218-81.4,28.977-28.974,66.967-45.352,112.917-48.676,46-3.336,88.217,7.257,125.493,31.484,30.641,19.947,60.33,45.674,89.035,70.56,15.12,13.117,30.757,26.666,46.532,39.389,52.749,42.529,92.135,61.721,127.7,62.206,35.376.453,74.216-21.386,112.3-63.15,18.237-20.028,35.962-42.038,53.108-63.321,54.445-67.6,105.879-131.446,168.167-128.912,57.5,2.466,108.839,49.944,163.2,100.2,29.655,27.417,60.325,55.777,93.039,77.548l.453-.8c-32.645-21.742-63.295-50.069-92.929-77.469-54.479-50.361-105.93-97.941-163.736-100.421-62.7-2.548-114.264,61.461-168.851,129.232-17.138,21.272-34.86,43.268-53.07,63.281-37.915,41.573-76.528,63.316-111.669,62.861-35.367-.479-74.6-19.6-127.193-62.011-15.761-12.71-31.389-26.257-46.5-39.36-28.739-24.91-58.447-50.663-89.142-70.644-37.428-24.326-79.815-34.966-126-31.615-46.147,3.339-84.314,19.8-113.452,48.928-23.764,23.785-44.883,53.131-65.31,81.516-10.755,14.949-21.887,30.423-33.376,45.07-37.181,47.373-71.431,72.979-104.7,78.246-34.941,5.5-76.553-9.422-127.218-45.6-24.445-17.471-48.558-37.046-71.885-56.019Z"/><path d="M1892.58,1007.7l4.667,3.763c21.315,17.186,43.362,34.969,65.559,51.171,51.323,37.43,93.4,54.2,128.619,51.272,33.82-2.854,69.75-25.97,106.8-68.745,9.9-11.428,19.812-23.245,29.4-34.669,58.334-69.509,113.433-135.17,181.667-140.185,69.968-5.033,141.046,49.7,216.3,107.641,14.343,11.042,29.171,22.461,43.991,33.449,50.929,37.709,91.017,54.326,126.156,52.264,35.192-2.1,72.687-25.233,111.45-68.767,15.882-17.853,31.542-37.109,46.689-55.743,56.958-70.048,110.761-136.2,174.75-131.3,56.856,4.489,107.06,51.056,160.2,100.355,30.457,28.261,61.961,57.477,95.752,79.433l.449-.809c-33.727-21.912-65.2-51.108-95.636-79.34-53.255-49.407-103.556-96.066-160.7-100.59-64.418-4.924-118.359,61.412-175.47,131.638-15.143,18.62-30.794,37.873-46.661,55.711-38.609,43.359-75.907,66.395-110.868,68.474-34.941,2.044-74.853-14.507-125.616-52.1-14.819-10.989-29.645-22.41-43.982-33.439-75.39-58.047-146.589-112.864-216.865-107.815-68.59,5.051-123.793,70.841-182.248,140.494-9.59,11.42-19.5,23.238-29.4,34.656-36.9,42.589-72.637,65.619-106.234,68.451-35.02,2.918-76.9-13.8-128.065-51.119-22.177-16.191-44.207-33.965-65.527-51.143l-5.184-4.18Z"/><path d="M1892.58,950.766q9.14,7.172,18.363,14.48c16.229,12.818,33,26.081,49.673,38.594,53.821,40.385,93.973,59.172,130.191,60.921,34.78,1.649,72.769-15.7,109.86-50.193,16.338-15.2,32.4-31.661,47.936-47.573,53.373-54.712,103.785-106.389,165.007-110.894,63.4-4.555,126.6,38.136,193.522,83.318,20.612,13.928,41.931,28.316,63.429,41.385,47.684,28.946,89.226,40.249,123.483,33.583,34.267-6.7,70.285-32.4,110.1-78.556,10.859-12.6,21.817-25.8,32.405-38.575,30.11-36.285,61.241-73.815,92.559-100.061a205.8,205.8,0,0,1,34.569-23.916h-1.942a209.688,209.688,0,0,0-33.162,23.165c-31.38,26.307-62.538,63.868-92.671,100.186-10.588,12.773-21.536,25.957-32.4,38.555-39.682,46-75.537,71.611-109.625,78.279-34.04,6.614-75.394-4.641-122.891-33.477-21.485-13.061-42.795-27.449-63.4-41.367-67.033-45.274-130.357-88.033-194.041-83.453-61.536,4.529-112.055,56.317-165.543,111.144-15.53,15.913-31.578,32.365-47.9,47.547-36.923,34.325-74.707,51.6-109.259,49.958-36.046-1.74-76.051-20.466-129.733-60.751-16.668-12.51-33.435-25.757-49.655-38.579q-9.482-7.5-18.876-14.883Z"/><path d="M3168.164,773.279c38.794,18.389,74.995,52.021,112.744,87.1,32.092,29.81,65.278,60.64,101.263,82.688l.429-.826c-35.91-22-69.069-52.8-101.128-82.581-37.219-34.578-72.937-67.761-111.161-86.378Z"/><path d="M1892.58,888.975c15.269,11.33,30.555,23.122,45.659,34.776l19.071,14.679c41.81,32.03,86.761,62.985,132.161,72.614,46.408,9.814,87.655-8.144,114.077-24.927,22.766-14.487,44.856-31.865,66.216-48.647,49.452-38.875,96.159-75.594,150.645-79.6,56.525-4.069,112.317,25.017,171.391,55.793,26,13.562,52.893,27.575,80.116,38.713,44.582,18.2,86.06,21.007,119.93,8.135,42.033-16.023,78.462-54.713,108.561-90.437l3.94-4.69c27.223-32.349,54.8-65.122,82.809-92.1h-1.3c-27.792,26.877-55.145,59.382-82.146,91.472l-3.949,4.683c-30.014,35.646-66.35,74.224-108.2,90.183-33.676,12.807-74.948,10-119.339-8.12-27.181-11.124-54.058-25.131-80.047-38.68-59.18-30.839-115.07-59.976-171.825-55.885-54.731,4.019-101.536,40.819-151.093,79.773-21.351,16.772-43.424,34.133-66.15,48.6-26.294,16.707-67.319,34.579-113.468,24.817-45.239-9.595-90.093-40.5-131.826-72.467l-19.069-14.671c-15.271-11.78-30.726-23.7-46.163-35.147Z"/><path d="M3226.589,773.279c14.5,12.387,28.954,25.776,43.653,39.4,34.587,32.028,70.332,65.145,109.6,86.807l.4-.845c-39.183-21.6-74.891-54.686-109.436-86.682-14.415-13.356-28.591-26.489-42.814-38.679Z"/><path d="M1892.58,824.963c21.018,14.182,41.471,29.364,60.442,43.827,47.7,36.368,91.9,62.311,131.377,77.113,45.581,17.072,86.361,19.888,121.22,8.369,30.044-9.968,59.239-25.466,87.469-40.45,42.983-22.81,87.431-46.4,134.587-49.857,48.575-3.509,96.317,12.434,146.863,29.3,31.965,10.669,65.024,21.7,98.167,27.261,87.9,14.658,170.01-57.427,223.411-120.477,7.522-8.884,15.316-17.871,23.345-26.766h-1.221c-7.824,8.686-15.425,17.453-22.766,26.122-53.252,62.889-135.106,134.788-222.63,120.192-33.079-5.555-66.109-16.577-98.047-27.237-50.621-16.891-98.442-32.855-147.181-29.336-47.327,3.475-91.849,27.107-134.917,49.962-28.192,14.969-57.359,30.447-87.335,40.38-34.683,11.47-75.278,8.664-120.673-8.348-39.41-14.769-83.54-40.68-131.175-76.99-19.116-14.584-39.74-29.893-60.936-44.174Z"/><path d="M3264.158,773.279c35.721,32.716,72.737,65.563,113.5,84.587l.344-.86c-40.346-18.832-77.069-51.291-112.5-83.727Z"/><path d="M1916.665,773.279c10.812,6.973,21.269,14.193,31.226,21.417,85.116,61.835,175.149,121.838,257.99,117.5,39.382-2.106,78.371-13.8,116.074-25.117,36.271-10.884,73.777-22.146,111.712-24.912,38.587-2.795,78.255,2.86,116.619,8.319,40.087,5.694,81.533,11.6,121.856,7.9,36.13-3.348,73.108-19.751,113.025-50.111,21.3-16.214,42.209-35.569,61.461-55h-1.27c-19.04,19.176-39.674,38.236-60.692,54.226-39.79,30.277-76.622,46.614-112.6,49.948-40.221,3.689-81.621-2.209-121.663-7.9-38.411-5.459-78.123-11.123-116.792-8.319-38.024,2.776-75.571,14.043-111.884,24.947-37.663,11.293-76.6,22.987-115.879,25.082-82.582,4.323-172.472-55.6-257.475-117.338-9.586-6.956-19.637-13.908-30.021-20.642Z"/><path d="M3300.913,773.279c23.874,18.562,48.247,34,74.588,43.349l.272-.89c-25.876-9.187-49.867-24.285-73.366-42.459Z"/><path d="M2028.583,773.279c59.5,38.27,116.912,70.82,174.965,80.873,54.668,9.4,109.962,2.254,163.446-4.65,22.936-2.964,46.648-6.024,69.9-7.723,23.514-1.711,47.66-2.08,71.007-2.445,53.945-.825,109.725-1.681,161.62-19.143,29.04-9.795,56.312-26.322,82.876-46.912h-1.5c-26.186,20.181-53.061,36.377-81.633,46.024-51.775,17.407-107.491,18.266-161.382,19.09-23.35.366-47.506.736-71.037,2.439-23.286,1.7-47,4.772-69.945,7.726-53.424,6.909-108.657,14.043-163.209,4.653-57.5-9.954-114.427-42.063-173.405-79.932Z"/><path d="M3370.21,773.279q1.526.359,3.059.685s.073-.408.122-.685Z"/><path d="M2177.706,773.279q10.333,3.995,20.775,7.359c79.945,25.626,161.349,22.312,237.87,16.717,55-4.021,108.928-9.2,160.387-24.076h-3.43c-50.423,14.152-103.2,19.2-157.018,23.136-76.446,5.594-157.759,8.9-237.56-16.667q-9.264-2.974-18.438-6.469Z"/><path d="M3298.518,773.279c.561,13.555,1.095,26.371,1.095,26.371,2.573,59.387,5.741,124.447,9.414,193.382,4.115,77.389,8.988,163.566,14.883,263.487l6.92,116.616,10.7,181.784c2.235,39.294,4.79,84.507,6.744,123.781,1.811,36.811,2.864,62.4,3.414,82.95.448,17.236.351,32.485.259,47.211-.079,13.505-.162,27.479.18,42.651l.873-.036c-.347-15.146-.263-29.11-.176-42.608.089-14.743.18-29.982-.267-47.245-.55-20.572-1.6-46.158-3.414-82.973-1.955-39.273-4.508-84.487-6.745-123.8l-10.709-181.783-6.915-116.618c-5.893-99.905-10.766-186.093-14.883-263.471-3.671-68.936-6.836-133.991-9.415-193.383,0,0-.529-12.784-1.089-26.32Z"/><path d="M3222.094,773.279c1.656,41.1,3.894,89.338,6.957,150.309,4.077,81.008,8.957,170.038,14.523,264.62,4.666,80.078,9.787,162.752,15.216,250.278l5,80.914c3.788,61.016,6.923,113.228,9.585,159.6,2.722,48.054,4.8,86.788,6.076,119.653,1.141,29.367,1.547,50.233,1.264,65.647-.175,8.032-.608,15.232-1.03,22.191l-.633,11.4.868.049.634-11.394c.421-6.962.854-14.168,1.03-22.227.281-15.446-.119-36.329-1.267-65.71-1.278-32.875-3.352-71.608-6.073-119.682-2.661-46.37-5.8-98.571-9.585-159.6l-5-80.918c-5.423-87.522-10.55-170.2-15.216-250.263-5.561-94.592-10.449-183.618-14.525-264.616-3.059-60.943-5.3-109.173-6.951-150.258Z"/><path d="M3145.3,773.279c1.511,33.992,3.223,70.388,5.135,110.279,4.37,92.751,8.4,172.034,12.666,249.508,4.9,89.377,11.277,194.262,20.058,330.047l5.512,84.811c6.129,93.929,11.917,182.651,16.01,260.762,2.425,45.5,3.589,76.18,3.792,99.47.148,17.329-.453,30.864-1.829,41.376l.859.129c1.387-10.559,1.991-24.13,1.839-41.508-.2-23.314-1.368-54-3.788-99.52-4.1-78.114-9.89-166.847-16.011-260.773l-5.516-84.8c-8.781-135.8-15.156-240.664-20.057-330.049-4.268-77.467-8.3-156.76-12.667-249.5-1.912-39.871-3.622-76.25-5.131-110.229Z"/><path d="M3071.109,773.279c2.826,60.164,5.688,121.087,5.688,121.087l4.662,109.648,4.776,112.534c3.75,84.823,9.173,182.744,16.1,291.038,3.741,58.076,7.829,118.241,11.778,176.428,4.727,69.642,9.615,141.66,13.883,209.771,2.836,45.524,5.931,97.623,7.348,138.93,1.11,32.1.994,51.208-.387,63.91l.868.109c1.382-12.749,1.5-31.9.389-64.049-1.415-41.323-4.514-93.436-7.346-138.966-4.272-68.118-9.159-140.134-13.9-209.769-3.944-58.186-8.032-118.352-11.769-176.429-6.929-108.29-12.352-206.2-16.1-291.022l-4.778-112.525-4.66-109.653s-2.861-60.891-5.686-121.042Z"/><path d="M2998.952,773.279c3.552,65.734,6.539,124.368,8.9,180.168,3.114,74.289,4.637,139.185,5.719,192.862.6,29.005,1.288,60.176,2.508,94.426,1.358,38.316,3.4,80.849,6.231,130.026,4.986,86.9,11.845,183.912,19.125,286.6l7.336,104.308c4.186,60.171,8.44,123.179,11.206,176.276,1.354,25.973,2.338,48.312,2.634,66.939h.873c-.3-18.65-1.285-41.009-2.638-67-2.767-53.1-7.021-116.1-11.206-176.277L3042.3,1657.3c-7.276-102.69-14.136-199.7-19.12-286.6-2.836-49.163-4.873-91.687-6.231-130-1.219-34.236-1.908-65.416-2.509-94.413-1.08-53.676-2.6-118.582-5.719-192.885-2.359-55.786-5.347-114.405-8.9-180.119Z"/><path d="M2928.746,773.279c6.831,111.944,11.146,193.349,13.875,261.881,2.821,71.059,3.792,128.281,2.952,174.92l-.412,20.912c-.763,36.615-1.631,78.117.4,131.965,1.5,40.079,4.158,88.168,8.352,151.337,4.341,65.472,9.525,136.042,14.911,208.612l1.341,18.125c4.9,66.338,9.529,128.992,13.188,186.617,1.856,28.929,3.39,54.617,4.429,77.24h.872c-1.039-22.643-2.571-48.354-4.428-77.3-3.663-57.629-8.3-120.284-13.2-186.624l-1.331-18.132c-5.386-72.575-10.572-143.139-14.911-208.6-4.194-63.153-6.845-111.234-8.352-151.3-2.027-53.826-1.164-95.314-.4-131.914l.412-20.908c.841-46.658-.12-103.893-2.952-174.969-2.728-68.538-7.037-149.926-13.87-261.851Z"/><path d="M2858.638,773.279c1.224,18.285,2.42,36.481,3.563,54.436,6.48,101.47,11.345,195.032,14.439,278.075,2.342,63.3,4.453,129.2,2.472,178.119-.61,14.988-2.019,28.566-3.506,42.938-1.8,17.394-3.669,35.375-4.019,56.242-.42,26.437.647,61.717,3.373,110.989,3.224,58.492,8.231,126.931,13.164,192.172l6.486,84.9c3.484,45.282,7.1,92.124,10.32,136.571,2.623,36.25,4.849,68.494,6.548,97.171h.872c-1.7-28.7-3.927-60.964-6.55-97.247-3.226-44.447-6.833-91.279-10.321-136.579l-6.494-84.882c-4.926-65.24-9.932-133.671-13.157-192.152-2.725-49.257-3.788-84.5-3.363-110.923.342-20.819,2.207-38.781,4.009-56.157,1.488-14.388,2.9-27.97,3.506-42.989,1.982-48.972-.129-114.884-2.47-178.21-3.1-83.051-7.956-176.617-14.441-278.1-1.144-17.935-2.338-36.109-3.558-54.371Z"/><path d="M2789,773.279c2.745,39.452,5.246,77.45,7.362,113.679,5.179,88.8,7.793,164.846,10.315,238.393l.374,10.68,1.5,41.408c2.205,59.952,4.292,116.572,3.535,164.442-.454,29.176-4.759,48.668-8.209,64.321-1.187,5.393-2.319,10.483-3.155,15.4-2.486,14.487-3.119,36.45-2.074,71.2,1.44,47.694,5.594,107.685,9.871,165.415,3.5,47.228,7.489,97.112,11.346,145.354l6.424,80.955c3.63,46.165,6.629,85.562,8.985,120.356h.872c-2.356-34.813-5.354-74.234-8.983-120.432l-6.43-80.958c-3.858-48.242-7.844-98.132-11.344-145.361-4.279-57.715-8.432-117.685-9.873-165.364-1.044-34.684-.412-56.581,2.055-71,.841-4.884,1.964-9.969,3.151-15.349,3.464-15.706,7.779-35.249,8.24-64.52.749-47.908-1.33-104.539-3.543-164.491l-1.5-41.413-.374-10.684c-2.522-73.549-5.136-149.608-10.319-238.405-2.11-36.215-4.608-74.2-7.35-113.628Z"/><path d="M2718.749,773.279c3.942,56.913,6.59,103.471,8.088,142.049,1.432,37.389,1.842,73.024,2.24,107.489.342,29.871.7,60.762,1.718,92.742,1.2,37.76,3.122,77.674,4.975,116.287,2.214,45.953,4.5,93.467,5.6,137.815.833,33.726.847,58.088-1.648,75.343a45.416,45.416,0,0,1-8.906,21.619c-4.306,5.988-6.624,18.776-7.087,39.089-.749,32.41,1.752,77.393,5.733,134.945,4.222,60.917,9.706,127.093,15.508,197.146l2.1,25.47c4.1,49.583,8.053,97.366,11.331,141.615h.873c-3.278-44.272-7.228-92.085-11.33-141.694l-2.107-25.481c-5.8-70.049-11.285-136.2-15.508-197.123-3.978-57.535-6.48-102.484-5.732-134.854.457-19.817,2.78-32.786,6.915-38.545a46.292,46.292,0,0,0,9.064-22.04c2.508-17.329,2.493-41.739,1.663-75.514-1.1-44.354-3.388-91.882-5.594-137.841-1.858-38.6-3.78-78.524-4.971-116.268-1.026-31.975-1.381-62.855-1.728-92.716-.4-34.48-.8-70.124-2.246-107.519-1.492-38.576-4.138-85.129-8.085-142.014Z"/><path d="M2648.54,773.279q.784,11.712,1.485,22.976c3.2,51.662,4.443,88.517,3.889,115.983-.291,14.653-1.178,29.226-2.1,44.638-1.662,27.7-3.552,59.078-2.4,98.8,1.65,56.711,5.835,120.842,10.269,188.733,2.614,39.969,5.312,81.287,7.558,122.281,2.3,42.323,4.245,82.689,2.766,111.333-.872,16.667-3.967,27.435-8.494,29.556-6.191,2.83-9.812,8.728-11.046,18.038-2.846,21.287-1.579,55.431,1.572,107.2,3.912,64.351,10.365,139.906,16.61,212.965l2.652,30.976c3.814,44.526,7.491,87.438,10.707,128.13h.872c-3.218-40.715-6.9-83.66-10.715-128.216l-2.647-30.969c-6.241-73.072-12.7-148.621-16.62-212.939-3.142-51.719-4.407-85.814-1.575-107.021,1.588-11.912,6.777-15.583,10.532-17.307,4.919-2.3,8.111-13.078,9.021-30.354,1.478-28.706-.467-69.1-2.767-111.454-2.244-40.985-4.942-82.32-7.557-122.289-4.435-67.889-8.62-132.005-10.27-188.7-1.15-39.673.739-71.024,2.4-98.7.929-15.428,1.8-30,2.1-44.684.554-27.5-.679-64.375-3.889-116.057q-.7-11.23-1.48-22.922Z"/><path d="M2577.5,773.279c.867,13.955,1.6,27.323,2.165,39.968,1.579,35.5,1.885,62.238-1.732,77.309a53.477,53.477,0,0,1-4.776,11.769,55.715,55.715,0,0,0-4.768,11.558c-3.224,12.648-4.147,33.075-3.178,70.53,1.211,46.459,5.119,103.4,9.146,158.027l7.66,99.326c2.688,34.24,5.468,69.645,7.983,103.829,4.106,55.762,7.788,109.109,7.857,148.9.023,19.256-.753,41.748-7.114,44.883a15.026,15.026,0,0,1-4.716,1.105c-3.4.464-7.262.965-8.921,5.564-5.165,14.373-4.171,43.307-2.06,85.807,2.826,56.636,8.652,125.447,15.424,203l4.869,55.382q5.254,59.439,9.94,114.649h.871q-4.6-55.267-9.947-114.738l-4.872-55.383c-6.765-77.546-12.584-146.348-15.416-202.965-2.1-42.377-3.1-71.218,2-85.412,1.477-4.073,4.749-4.505,8.218-4.968a16.347,16.347,0,0,0,4.97-1.186c5.382-2.659,7.669-16.339,7.622-45.742-.069-39.83-3.755-93.2-7.852-148.979-2.513-34.186-5.3-69.591-7.987-103.83l-7.655-99.31c-4.033-54.611-7.942-111.543-9.152-157.986-.969-37.355-.055-57.708,3.16-70.252a54.514,54.514,0,0,1,4.68-11.362,54.241,54.241,0,0,0,4.855-11.99c3.645-15.181,3.349-41.993,1.76-77.587-.564-12.631-1.3-25.983-2.161-39.919Z"/><path d="M2506.54,773.279c.983,16.987,1.674,32.724,1.981,47,.467,21.791.2,47.033-6.023,48.759-1.822.5-4.014-.166-6.145-.821-3.08-.929-6.26-1.9-7.949,1.051-5.655,9.847-5.12,32.509-4.389,63.859l.087,3.855c.919,39.614,3.955,90.915,9.567,161.45,3.576,44.938,7.715,92.356,11.719,138.22l7.623,88.229c5.765,68.354,10.643,128.8,11.908,176.438.8,30.022.87,53.406-5.853,58.657-1.764,1.38-4.416.935-6.975.5-3.112-.53-6.324-1.056-8.259,1.516-6.7,8.913-6.25,33.45-4.694,72.8,2.126,53.953,7.822,120.535,14.493,195.657l6.576,73c3.173,34.926,6.234,68.643,9.07,101.432h.876c-2.84-32.819-5.9-66.562-9.077-101.521l-6.578-73c-6.67-75.109-12.366-141.681-14.49-195.606-1.544-39.125-2.005-63.517,4.5-72.166,1.617-2.159,4.445-1.679,7.441-1.185,2.735.461,5.573.94,7.624-.659,7.068-5.52,7.011-29.146,6.213-59.452-1.266-47.662-6.145-108.134-11.914-176.5l-7.617-88.228c-4.006-45.857-8.154-93.276-11.72-138.21-5.608-70.518-8.652-121.8-9.563-161.395l-.087-3.854c-.734-31.2-1.262-53.738,4.254-63.342,1.349-2.345,3.955-1.549,6.976-.634,2.236.684,4.549,1.394,6.6.814,5.464-1.509,7.4-15.907,6.674-49.687-.307-14.275-1-30-1.978-46.978Z"/><path d="M2434.764,773.279c1.111,19.165,1.8,36.565,1.911,51.8.148,22.906-3.189,35.86-6.371,38.186a1.567,1.567,0,0,1-1.631.249,35.37,35.37,0,0,1-6.614-4.335c-3.951-3-7.677-5.829-9.841-2.715-6.647,9.69-5.289,35.5-3.238,74.56l.339,6.349c-1.378,34.955,2.591,87.907,7.515,148.439,4.019,49.337,8.642,99.834,13.548,153.293l7.3,80.352c6.444,72.23,11.908,136.125,13.576,186.522,1.114,33.6,1.358,57.868-5.685,64.151-1.889,1.688-4.727,1.016-7.739.305-3.15-.739-6.412-1.515-8.661.609-7.581,7.206-7.317,32.907-6.111,68.452,1.786,52.807,7.505,118.6,14.231,192.89l7.245,78.534c3,32.284,5.905,63.507,8.62,93.971h.874c-2.719-30.49-5.627-61.737-8.635-94.057l-7.234-78.537c-6.732-74.274-12.436-140.043-14.233-192.833-1.192-35.279-1.474-60.776,5.816-67.709,1.921-1.815,4.828-1.13,7.9-.395s6.26,1.48,8.481-.505c7.346-6.559,7.118-31.04,6-64.907-1.669-50.421-7.134-114.332-13.577-186.587l-7.3-80.347c-4.9-53.457-9.54-103.946-13.55-153.288-4.924-60.5-8.888-113.418-7.516-148.353,0-.046-.336-6.4-.336-6.4-2.042-38.864-3.391-64.541,3.071-73.945,1.65-2.385,4.888.076,8.634,2.92a36.046,36.046,0,0,0,6.792,4.439,2.406,2.406,0,0,0,2.452-.344c4.176-3.065,6.877-18.723,6.744-38.965-.107-15.237-.8-32.637-1.907-51.8Z"/><path d="M2362.511,773.279c1.325,21.052,2.229,40.457,2.5,57.458.494,31.484-1.907,47.462-7.34,48.812-2.073.529-4.536-.146-6.915-.807-3.479-.959-7.068-1.95-9.132,1.162-6.523,9.893-6.095,33.789-5.516,66.859l.018.905c.707,39.664,3.734,90.927,9.511,161.322,3.683,44.8,7.992,92.081,12.155,137.793l7.953,88.384c5.994,68.3,11.032,128.694,12.057,176.273.7,32.67-.257,53.893-7.2,58.687-2.116,1.46-5.114,1-8,.554-3.478-.545-7.068-1.1-9.388,1.6-7.7,8.958-7.348,35.84-6,72.85,1.959,53.836,7.886,120.372,14.842,195.455l6.892,73.1c2.973,31.3,5.854,61.634,8.548,91.2h.875c-2.7-29.592-5.581-59.96-8.559-91.3l-6.888-73.1c-6.956-75.07-12.884-141.589-14.842-195.4-1.335-36.766-1.7-63.465,5.769-72.16,2.005-2.345,5.222-1.85,8.625-1.318,3.048.474,6.2.965,8.593-.681,7.289-5.03,8.31-26.5,7.6-59.507-1.028-47.608-6.07-108.033-12.06-176.34l-7.955-88.382c-4.167-45.727-8.467-93-12.15-137.789-5.788-70.378-8.808-121.616-9.506-161.256l-.028-.911c-.577-32.884-1-56.645,5.354-66.284,1.714-2.589,4.721-1.765,8.21-.8,2.479.685,5.049,1.395,7.325.815,5.979-1.5,8.528-17.307,8.014-49.753-.271-17-1.173-36.4-2.5-57.441Z"/><path d="M2290.023,773.279c1.526,21.649,2.745,42.2,3.485,60.841,1.654,41.91.578,64.3-3.7,77.278-1.516,4.571-4.015,8.275-6.44,11.858-2.378,3.521-4.844,7.155-6.43,11.663-4.445,12.734-6.028,33.182-5.465,70.6.73,46.774,4.948,106.01,8.981,157.772,2.563,32.976,5.414,66.922,8.176,99.75,2.85,33.952,5.8,69.066,8.421,102.981,4.311,55.757,8.112,109.093,7.455,148.647-.457,27.006-3.967,42.563-10.162,45a23,23,0,0,1-6.287,1.144c-4.5.425-9.143.851-11.544,5.78-6.984,14.447-6.13,46.038-4.287,85.846,2.62,56.508,8.939,125.174,16.311,202.582l5.253,54.613q4.749,49.065,9.075,95.249h.877q-4.262-46.24-9.084-95.351l-5.252-54.61c-7.382-77.4-13.693-146.061-16.307-202.527-1.838-39.664-2.7-71.14,4.186-85.367,2.18-4.469,6.388-4.861,10.836-5.265a24.783,24.783,0,0,0,6.528-1.2c6.647-2.624,10.265-18.051,10.73-45.874.653-39.6-3.158-92.956-7.464-148.746-2.623-33.91-5.567-69.026-8.417-102.981-2.762-32.83-5.612-66.775-8.18-99.745-4.029-51.748-8.246-110.959-8.977-157.707-.549-36.8,1.068-57.806,5.415-70.25,1.537-4.39,3.972-7.98,6.31-11.454,2.465-3.63,5-7.393,6.56-12.094,4.324-13.1,5.415-35.593,3.75-77.644-.738-18.626-1.958-39.159-3.483-60.789Z"/><path d="M2216.077,773.279c1.467,18.861,2.768,37.051,3.853,54.382,3.2,51.527,3.931,88.308,2.283,115.768-.888,14.753-2.635,29.365-4.5,44.834-3.317,27.66-7.077,59.009-6.564,98.715.739,56.5,5.039,120.356,9.6,187.958,2.693,39.969,5.483,81.288,7.582,122.276,2.539,49.343,3.552,85.153.761,111.16-1.784,16.451-6.892,27.605-13.669,29.835-6.412,2.11-14.136,6.095-16.949,18.362-4.883,21.372-4.027,55.467-.91,107.133,3.807,62.824,10.874,135.41,18.358,212.27l2.753,28.175c3.4,34.645,6.692,68.319,9.685,100.741h.877c-2.994-32.455-6.3-66.162-9.692-100.834l-2.759-28.182c-7.48-76.839-14.556-149.429-18.353-212.239-3.113-51.567-3.968-85.578.888-106.829,2.687-11.753,9.784-15.538,16.351-17.692,7.124-2.34,12.459-13.794,14.284-30.637,2.8-26.08,1.783-61.92-.749-111.317-2.106-41-4.9-82.323-7.593-122.288-4.56-67.594-8.861-131.421-9.6-187.907-.514-39.62,3.247-70.95,6.554-98.581,1.862-15.482,3.618-30.1,4.509-44.89,1.645-27.5.92-64.326-2.3-115.891-1.081-17.313-2.378-35.482-3.84-54.322Z"/><path d="M2141.283,773.279q1.282,15.608,2.472,30.926c4.8,61.917,7.575,111.848,8.475,152.633.818,37.348-.044,72.963-.873,107.394-.723,29.81-1.472,60.636-1.131,92.566.411,37.549,1.946,77.253,3.423,115.643,1.77,45.958,3.609,93.487,3.54,137.809-.056,32.681-1.114,58-6.136,75.339-3.317,11.389-10.061,16.939-16.006,21.841l-.221.181c-7.332,6.028-12.274,20.049-13.892,39.47-2.707,32.494-.4,77.314,3.9,134.624,4.569,60.578,11.051,126.307,17.911,195.9l2.475,25.2c3.453,35.114,6.815,69.324,9.8,102.086h.876c-2.985-32.8-6.348-67.031-9.8-102.175l-2.484-25.206c-6.856-69.584-13.336-135.327-17.905-195.888-4.3-57.241-6.6-102.018-3.909-134.439,1.6-19.172,6.412-32.954,13.554-38.828l.221-.166c5.751-4.749,12.906-10.643,16.306-22.308,5.06-17.462,6.126-42.858,6.177-75.618.07-44.359-1.769-91.891-3.537-137.849-1.48-38.4-3.012-78.091-3.424-115.628-.342-31.911.405-62.727,1.132-92.529.83-34.447,1.7-70.068.877-107.441-.9-40.81-3.677-90.743-8.481-152.694q-1.182-15.276-2.464-30.84Z"/><path d="M2064.274,773.279c4.852,58.273,9.114,113.848,12.008,165.811,4.856,87.2,5.457,162.145,6.038,234.621l.116,13.683.458,41c.743,60.023,1.454,116.689-2.905,164.447-2.686,29.271-11.782,47.7-19.8,63.965-2.8,5.679-5.447,11.05-7.585,16.443-5.751,14.473-8.428,37.165-8.446,71.406-.012,48.121,4.851,110.258,9.61,164.705,4.175,47.832,9.164,98.35,13.983,147.213l7.6,77.808c2.24,23.359,4.485,47.109,6.532,70.5h.875c-2.051-23.429-4.3-47.215-6.539-70.6l-7.6-77.81c-4.826-48.861-9.8-99.379-13.992-147.211-4.749-54.408-9.612-116.519-9.595-164.606.015-33.646,2.75-56.885,8.371-71.031,2.125-5.365,4.764-10.712,7.553-16.378,8.061-16.336,17.194-34.854,19.891-64.315,4.37-47.8,3.659-104.514,2.916-164.54l-.458-41.019-.115-13.669c-.579-72.483-1.183-147.454-6.038-234.665-2.895-51.955-7.151-107.512-12-165.761Z"/><path d="M1986.062,773.279c3.116,39.262,6.171,78.942,8.761,117.506,6.939,103.5,10.537,194.048,11.013,276.857.41,74.424-.891,133.16-8.647,177.913-2.652,15.253-6.977,28.821-11.557,43.184-5.549,17.4-11.292,35.389-13.813,56.717-3.1,26.36-3.47,61.559-1.155,110.753,2.831,59.062,8.859,126.7,14.968,191.008l7.815,80.5c4.546,46.248,9.229,94.087,13.2,139.469q1.719,19.627,3.186,37.7h.873q-1.461-18.126-3.191-37.783c-3.969-45.4-8.665-93.237-13.211-139.481l-7.811-80.5c-6.1-64.3-12.131-131.925-14.963-190.963-2.314-49.132-1.95-84.277,1.156-110.578,2.507-21.236,8.232-39.175,13.765-56.538,4.592-14.386,8.929-27.985,11.59-43.312,7.761-44.829,9.082-103.619,8.661-178.109-.467-82.8-4.07-173.386-11.017-276.9-2.591-38.552-5.64-78.208-8.757-117.442Z"/><path d="M1905.706,773.279c1.543,23.245,3.546,53.432,3.546,53.432,7.7,122.707,11.226,209.51,11.4,281.448.166,70.584-3.257,127.745-10.454,174.73l-3.281,20.513c-5.967,36.778-12.73,78.463-12.915,132.576-.143,39.238,2,87.06,6.74,150.512,4.947,66.006,11.871,137.711,18.556,207.05l1.192,12.319c6.532,67.877,12.7,131.988,16.74,190.885q.282,4.066.556,8.144h.873q-.273-4.111-.56-8.214c-4.046-58.909-10.213-123.037-16.75-190.917l-1.178-12.319c-6.7-69.333-13.609-141.023-18.565-207.014-4.735-63.435-6.879-111.237-6.736-150.432.185-54.041,6.939-95.687,12.912-132.425l3.27-20.528c7.212-47.033,10.634-104.244,10.468-174.89-.176-71.948-3.7-158.77-11.406-281.493,0,0-2-30.139-3.539-53.377Z"/></g></svg>