<?xml version="1.0" encoding="UTF-8"?><svg id="Layer_1" xmlns="http://www.w3.org/2000/svg" xmlns:xlink="http://www.w3.org/1999/xlink" viewBox="0 0 68 35"><defs><style>.cls-1{fill:url(#linear-gradient);}.cls-2{fill:#fff;}.cls-3{fill:#21a366;}.cls-4{fill:#107c41;}.cls-5{fill:#185c37;}.cls-6{fill:#33c481;}.cls-7{opacity:.1;}.cls-7,.cls-8{isolation:isolate;}.cls-9{fill:none;stroke:#000;stroke-miterlimit:10;stroke-width:2px;}.cls-8{opacity:.2;}</style><linearGradient id="linear-gradient" x1="43.51" y1="-202.27" x2="52.49" y2="-186.73" gradientTransform="translate(0 212)" gradientUnits="userSpaceOnUse"><stop offset="0" stop-color="#18884f"/><stop offset=".5" stop-color="#117e43"/><stop offset="1" stop-color="#0b6631"/></linearGradient></defs><g><path class="cls-5" d="m58,16.87l-10.62-1.87v13.85c0,.63.51,1.15,1.15,1.15h18.33c.63,0,1.15-.51,1.15-1.15h0v-5.1l-10-6.88Z"/><path class="cls-3" d="m58,5h-9.48c-.63,0-1.15.51-1.15,1.15h0v5.1l10.62,6.25,5.62,1.88,4.37-1.88v-6.25l-10-6.25Z"/><path class="cls-4" d="m47.38,11.25h10.62v6.25h-10.62v-6.25Z"/><path class="cls-7" d="m54.98,10h-7.6v15.63h7.6c.63,0,1.14-.51,1.15-1.15v-13.33c0-.63-.51-1.14-1.15-1.15Z"/><path class="cls-8" d="m54.35,10.62h-6.98v15.63h6.98c.63,0,1.14-.51,1.15-1.15v-13.33c0-.63-.51-1.14-1.15-1.15Z"/><path class="cls-8" d="m54.35,10.62h-6.98v14.37h6.98c.63,0,1.14-.51,1.15-1.15v-12.08c0-.63-.51-1.14-1.15-1.15Z"/><path class="cls-8" d="m53.73,10.62h-6.35v14.37h6.35c.63,0,1.14-.51,1.15-1.15v-12.08c0-.63-.51-1.14-1.15-1.15Z"/><path class="cls-1" d="m42.27,10.62h11.46c.63,0,1.15.51,1.15,1.15v11.46c0,.63-.51,1.15-1.15,1.15h-11.46c-.63,0-1.15-.51-1.15-1.15v-11.46c0-.63.51-1.15,1.15-1.15Z"/><path class="cls-2" d="m44.67,21.22l2.41-3.73-2.21-3.71h1.78l1.2,2.37c.11.23.19.39.23.5h.02c.08-.18.16-.35.25-.52l1.29-2.35h1.63l-2.26,3.69,2.32,3.75h-1.73l-1.39-2.61c-.07-.11-.12-.23-.17-.35h-.02c-.04.12-.09.23-.16.34l-1.43,2.62h-1.75Z"/><path class="cls-6" d="m66.85,5h-8.85v6.25h10v-5.1c0-.63-.51-1.15-1.15-1.15h0Z"/><path class="cls-4" d="m58,17.5h10v6.25h-10v-6.25Z"/></g><g><line class="cls-9" x1="0" y1="17.81" x2="26.7" y2="17.81"/><polygon points="20.07 25.99 18.71 24.53 25.93 17.81 18.71 11.1 20.07 9.63 28.87 17.81 20.07 25.99"/></g></svg>