<svg id="Layer_1" data-name="Layer 1" xmlns="http://www.w3.org/2000/svg" viewBox="0 0 788 1184"><defs><style>.cls-1{stroke:#000;stroke-width:0.5px;}</style></defs><path class="cls-1" d="M515,665.3a5.24,5.24,0,1,0,5.24-5.24A5.25,5.25,0,0,0,515,665.3Zm.71,0a4.54,4.54,0,1,1,4.53,4.54A4.54,4.54,0,0,1,515.66,665.3Z"/><path class="cls-1" d="M504.73,644.16a25.06,25.06,0,0,1,.63,4.77,9,9,0,0,1-1,4.25l-.53.66a18.46,18.46,0,0,0-2.78,5.94l-.14.67-.15.66v.2c0,3.72-2.42,6.54-4.77,9.28l-2.22,2.67.77,0,1.19,0c3.21-.11,7.22-.24,8.62,4l0,0,.55.79a19.47,19.47,0,0,0,5.89,4.67l1.39.64c3.13,2.37,3.91,6,4.66,9.56a26.63,26.63,0,0,0,1.29,4.72l.29.7.35-.68a28,28,0,0,0,1.62-4.41c1.22-3.92,2.48-8,6.73-9.6l.35-.13,1.08-.43.17-.07,1.19-.58.81-.56.58-.4,0-.06.8-1.14c1.8-2.62,3.85-5.58,6.86-5.12a1.3,1.3,0,0,0,1-.18.63.63,0,0,0,.19-.49l-.12-1.59a29.75,29.75,0,0,1-.06-6.19l.06-.91v-1l0-.72c-.17-3.25.67-6.12,2.32-7.86l.75-.79-1.07.2a7.64,7.64,0,0,1-6.12-1.79l-1-1a28.28,28.28,0,0,1-1.25-6.13c-.16-1.32-.34-2.69-.63-4l-.13-.56-1.88,1.61c-2.14,2-4.58,4.14-7.58,2-.08,0-.94-.29-.95-.29a18.5,18.5,0,0,0-2.77-.18,21.14,21.14,0,0,0-3.1.29l-.65.23c-3.07,1.36-5.64-.73-8.12-2.74a18.73,18.73,0,0,0-3.21-2.28l-.62-.32Zm-3.11,16.41.13-.61a17.73,17.73,0,0,1,2.68-5.72l.52-.66.05-.07a9.59,9.59,0,0,0,1.07-4.57,25.42,25.42,0,0,0-.65-4.91s-.23-1.32-.37-2.15a26.48,26.48,0,0,1,2.45,1.79c2.52,2.06,5.37,4.39,8.85,2.84l.48-.17a17.5,17.5,0,0,1,3-.28,20,20,0,0,1,2.67.16l.72.22c3.37,2.41,6.15-.1,8.38-2.12l.93-.81c.22,1.08.39,2.17.54,3.33a28.37,28.37,0,0,0,1.3,6.34l0,.07.09.09,1.06,1.1a8.6,8.6,0,0,0,5.88,2,11.25,11.25,0,0,0-2,6.82c0,.29,0,.59,0,.89l0,.7v.95l0,.82a19,19,0,0,0-.15,2.48c0,1.31.1,2.61.21,3.87l.12,1.57s-.16,0-.43-.07c-3.44-.53-5.62,2.64-7.54,5.43l-.75,1.07-.51.35-.75.52-1.12.55-.16.06-1,.42-.36.13c-4.57,1.75-5.94,6.16-7.15,10-.39,1.24-.78,2.39-1.23,3.45a34.69,34.69,0,0,1-1-3.72c-.75-3.48-1.59-7.43-5-10l-.64-.29-.81-.37a18.78,18.78,0,0,1-5.64-4.47s-.42-.6-.5-.7c-1.59-4.69-6-4.56-9.29-4.45h-.39l1.21-1.47c2.43-2.83,5-5.76,5-9.72v-.1C501.51,661.07,501.62,660.57,501.62,660.57Zm21-15h0Z"/><path class="cls-1" d="M491.22,621.21c.34,1.8.85,3.67,1.34,5.47a40.31,40.31,0,0,1,1.88,10.39,15.35,15.35,0,0,1-1.61,7,11.47,11.47,0,0,0-1,1.25,33.19,33.19,0,0,0-5.07,11l-.25,1.25-.26,1.24v.1c0,.2,0,.4,0,.6,0,7-4.85,12.2-9.55,17.21l-3.84,4.2,1-.16,1.66-.25c6.33-1,15-2.38,17.59,6v.06l1,1.4a33.81,33.81,0,0,0,10.73,8.16l1.63.71.95.4c6,4.51,6.78,11.82,7.57,18.89a55.23,55.23,0,0,0,1.44,8.76l.29,1,.38-1a58.46,58.46,0,0,0,2.13-8.13c1.68-7.9,3.41-16.07,11.66-18.93l.7-.24,1.93-.69.3-.12,2.22-1,1.47-1,1.08-.74,0-.06,1.24-1.81c3.41-5,7.27-10.71,13.38-9.17.38.1,1.31.28,1.78-.13a.72.72,0,0,0,.25-.66L555,680a46.27,46.27,0,0,1-.3-11.86l.11-1.61v-1.77l-.06-1.33c-.32-6,1.58-11.36,5.07-14.46l-.33-.6a13.25,13.25,0,0,1-11.83-2.56,16.17,16.17,0,0,1-1.86-1.91c-1.24-3.86-1.44-8-1.64-12-.12-2.35-.24-4.79-.58-7.14l-.1-.7-2.82,2.91c-3.94,4.23-8.41,9-14.13,4.59-.08,0-1.62-.54-1.62-.54a34.86,34.86,0,0,0-5.12-.35,33.44,33.44,0,0,0-5.76.53l-1.1.4c-5.94,2.77-10.78-1.7-15.45-6a38.9,38.9,0,0,0-5.76-4.71l-.68-.4Zm-4,36.52.23-1.19a32.27,32.27,0,0,1,5-10.78,10.51,10.51,0,0,1,1-1.2l.05,0,0-.06a16.05,16.05,0,0,0,1.71-7.38,41.27,41.27,0,0,0-1.91-10.58c-.43-1.55-.79-3-1.1-4.49a45.56,45.56,0,0,1,4.89,4.07c4.62,4.27,9.85,9.11,16.22,6.15l.93-.36a32.27,32.27,0,0,1,5.65-.52,33.35,33.35,0,0,1,5,.35l1.38.45c6.15,4.78,11-.49,15-4.72l1.79-1.85c.26,2.09.39,4.25.49,6.34.21,4.05.42,8.23,1.72,12.27l0,.06.08.09a15.77,15.77,0,0,0,2,2,14.11,14.11,0,0,0,11.27,2.93c-2.86,3.06-4.5,7.7-4.5,12.85,0,.43,0,.88,0,1.32l.06,1.29v1.75L554,668a29.37,29.37,0,0,0-.28,4.16,73,73,0,0,0,.58,7.89l.26,2.34c-.13.16-.6.18-1.16.05-6.59-1.67-10.77,4.49-14.13,9.45l-1.2,1.74-1,.68-1.41.94-2.13,1-.3.12-1.9.68-.71.24c-8.61,3-10.47,11.73-12.11,19.44-.51,2.42-1,4.66-1.7,6.74a63.83,63.83,0,0,1-1.15-7.32c-.81-7.22-1.64-14.68-7.9-19.41l-1.05-.46-1.59-.68a33.36,33.36,0,0,1-10.48-8l-.94-1.32c-2.81-8.89-11.78-7.47-18.34-6.44l-.67.11,2.49-2.73c4.79-5.1,9.73-10.38,9.73-17.67,0-.2,0-.4,0-.61ZM524.94,631h0Z"/><path class="cls-1" d="M478.21,601.21c.58,2.63,1.38,5.35,2.17,8,1.56,5.24,3.15,10.59,3.15,15.92a21.76,21.76,0,0,1-2.26,9.93,17.43,17.43,0,0,0-1.48,1.82A47.91,47.91,0,0,0,472.42,653l-.34,1.83-.38,1.83v.1q0,.54,0,1.08c0,10.34-7.29,17.86-14.34,25.14L452,688.62l1.08-.23,2.13-.42c9.62-1.94,22.78-4.59,26.58,8l0,0,1.44,2a48.72,48.72,0,0,0,15.59,11.64l2.42,1,1.35.56c8.79,6.65,9.64,17.62,10.45,28.22a83.72,83.72,0,0,0,1.64,12.83l.29,1.19.38-1.16a86.33,86.33,0,0,0,2.68-11.88c2.12-11.89,4.32-24.18,16.56-28.26l1.06-.35,2.78-1,.39-.15a23.34,23.34,0,0,0,3.29-1.45l2.12-1.39,1.58-1,0-.06,1.7-2.5c5-7.43,10.68-15.85,19.91-13.2.3.09,1.83.49,2.51-.08a.91.91,0,0,0,.3-.82l-.39-3.2c-.73-6-1.43-11.58-.56-17.47l.18-2.3v-2.57l-.06-1.53,0-.4c-.45-8.73,2.48-16.61,7.84-21.09L577,641c-5.84,1.92-12.07.74-17.55-3.31a22.42,22.42,0,0,1-2.71-2.78c-1.79-5.82-1.93-12-2.07-17.9-.07-3.4-.15-6.92-.54-10.32l-.09-.77-3.74,4.12c-5.74,6.54-12.23,14-20.7,7.18a10,10,0,0,0-2.29-.77,49.09,49.09,0,0,0-15.87.22,6.41,6.41,0,0,0-1.56.6c-8.81,4.16-15.9-2.69-22.77-9.32a57,57,0,0,0-8.33-7.12l-.71-.45Zm-5.44,53.68.33-1.77a47,47,0,0,1,7.27-15.85,15.4,15.4,0,0,1,1.43-1.77l.05,0,0-.06a22.46,22.46,0,0,0,2.36-10.28c0-5.41-1.61-10.83-3.19-16.12-.72-2.43-1.38-4.72-1.92-7a62.06,62.06,0,0,1,7.46,6.49c6.71,6.47,14.32,13.82,23.57,9.44a7,7,0,0,1,1.37-.53,48.1,48.1,0,0,1,8.31-.76,47.44,47.44,0,0,1,7.34.54h0a9.11,9.11,0,0,1,2,.67c8.91,7.15,15.94-.88,21.59-7.32l2.66-2.93c.31,3.12.41,6.33.48,9.46.14,6,.27,12.21,2.11,18.15l0,.07,0,.06a21.8,21.8,0,0,0,2.89,2.94c5.26,3.9,11.2,5.17,16.88,3.73-4.55,4.39-7.17,11.27-7.17,19,0,.59,0,1.18,0,1.78l0,.4.07,1.49v2.55l-.16,2.23a39.91,39.91,0,0,0-.41,5.86,97.46,97.46,0,0,0,1,11.79l.39,3.19v0c0,.1,0,.13-.06.15a2.68,2.68,0,0,1-1.86-.06c-9.72-2.78-15.8,6.24-20.69,13.49l-1.65,2.43-1.49,1-2.07,1.35a24.48,24.48,0,0,1-3.19,1.4l-.39.15-2.75.94-1.06.35c-12.64,4.22-15,17.28-17,28.81a100.2,100.2,0,0,1-2.25,10.42,97.08,97.08,0,0,1-1.33-11.33c-.83-10.76-1.69-21.89-10.79-28.76-.07,0-1.46-.62-1.46-.62l-2.38-1a48.16,48.16,0,0,1-15.32-11.43l-1.38-1.94c-4-13.07-18.07-10.25-27.37-8.37l-1,.2,3.84-4.07c7.14-7.38,14.53-15,14.53-25.62,0-.36,0-.72,0-1.1Zm54.51-38.43Z"/><path class="cls-1" d="M465.21,581.21c.79,3.45,1.91,7,3,10.49,2.19,7.06,4.43,14.26,4.43,21.43A28.32,28.32,0,0,1,469.71,626a21.36,21.36,0,0,0-1.94,2.39,62.43,62.43,0,0,0-9.68,21.17l-.44,2.4a16,16,0,0,1-.48,2.37l0,.07v.07c0,.53,0,1.06,0,1.57,0,13.66-9.72,23.53-19.12,33.08l-6.86,7.13,1.14-.26,2.59-.56c12.91-2.89,30.6-6.84,35.6,9.88l0,.07,0,0a25,25,0,0,1,1.85,2.59,63.52,63.52,0,0,0,20.43,15.12l3.22,1.33,1.73.71c11.63,8.78,12.5,23.4,13.34,37.55a113,113,0,0,0,1.83,16.9l.29,1.3.39-1.27A116,116,0,0,0,516.91,764c2.57-15.88,5.22-32.29,21.46-37.6l1.41-.45,3.64-1.23.53-.19a32.64,32.64,0,0,0,4.31-1.87l2.77-1.81,2.08-1.38.06-.06,2.15-3.17c6.61-9.85,14.1-21,26.45-17.24.38.12,2.37.67,3.22,0a1,1,0,0,0,.36-1l-.51-4c-1-7.87-2-15.3-.82-23.08l.23-3v-3.37l-.08-1.88,0-.64c-.59-11.5,3.38-21.86,10.62-27.72l-.34-.6c-7.74,2.68-16,1.24-23.28-4.06a28.58,28.58,0,0,1-3.59-3.68c-2.32-7.72-2.39-15.87-2.45-23.76,0-4.45-.08-9-.52-13.51l-.08-.8-4.66,5.29c-7.53,8.86-16.06,18.9-27.26,9.79a12.82,12.82,0,0,0-3-1,63.75,63.75,0,0,0-20.87.27,9.41,9.41,0,0,0-2,.78c-11.68,5.57-21.05-3.67-30.11-12.61-3.74-3.7-7.29-7.19-10.89-9.54l-.73-.47Zm-6.87,70.84.44-2.35a61.84,61.84,0,0,1,9.56-20.93,23,23,0,0,1,1.89-2.33l.06-.05,0-.07a29,29,0,0,0,3-13.19c0-7.26-2.26-14.53-4.47-21.64-1-3.14-1.95-6.36-2.72-9.5a84,84,0,0,1,10,8.88c8.8,8.68,18.78,18.52,30.9,12.75a8.42,8.42,0,0,1,1.84-.72,62.66,62.66,0,0,1,11-1,64.86,64.86,0,0,1,9.67.72h0a13.71,13.71,0,0,1,2.71.91c11.65,9.5,20.8-1.27,28.15-9.93l3.56-4c.37,4.17.43,8.46.47,12.62.06,8,.13,16.19,2.49,24l0,.07.05.05a28.77,28.77,0,0,0,3.77,3.86c7,5.13,15,6.66,22.56,4.5-6.28,5.71-9.91,14.84-9.91,25.08,0,.75,0,1.5.05,2.27l0,.63.08,1.86v3.34l-.22,2.93a50.91,50.91,0,0,0-.54,7.57,121.47,121.47,0,0,0,1.35,15.7l.51,4a.25.25,0,0,1,0,.08.31.31,0,0,1-.12.27,3.64,3.64,0,0,1-2.57-.09c-12.85-3.92-20.83,8-27.24,17.51,0,0-2,3-2.1,3.11l-2,1.33-2.72,1.77a31.45,31.45,0,0,1-4.21,1.82l-.53.2-3.6,1.21-1.42.45c-16.64,5.44-19.46,22.82-21.93,38.16a134.33,134.33,0,0,1-2.8,14,125.65,125.65,0,0,1-1.55-15.28c-.85-14.3-1.73-29.09-13.67-38.1-.07,0-1.85-.76-1.85-.76l-3.17-1.32A62.67,62.67,0,0,1,473,707.57a22.42,22.42,0,0,0-1.83-2.55c-5.21-17.26-24-13.07-36.4-10.3l-1.44.32,5.23-5.45c9.5-9.66,19.32-19.63,19.32-33.56,0-.51,0-1,0-1.56A16.36,16.36,0,0,0,458.34,652.05Zm71.29-50.12Z"/><path class="cls-1" d="M452.21,561.2c1,4.28,2.43,8.72,3.8,13,2.83,8.87,5.72,17.92,5.72,26.94a34.86,34.86,0,0,1-3.58,15.77,26.71,26.71,0,0,0-2.41,3,77.05,77.05,0,0,0-12,26.24l-.55,3a19.74,19.74,0,0,1-.59,3l0,.07v.07c0,.69.05,1.38.05,2,0,17-12.14,29.19-23.91,41-2.63,2.65-5.13,5.16-7.49,7.72l-.77.84,4.15-1c16.22-3.84,38.43-9.09,44.62,11.8l0,.07.05,0a28.23,28.23,0,0,1,2.29,3.21,78.25,78.25,0,0,0,25.27,18.6l4,1.64,2.12.86C507.5,750,508.39,768.28,509.25,786c.37,7.47.71,14.53,2,21l.29,1.37L512,807c1.73-5.81,2.72-12.39,3.78-19.37,3-19.86,6.12-40.4,26.36-46.93l1.76-.56,4.5-1.48.66-.25a40.8,40.8,0,0,0,5.32-2.29,37.58,37.58,0,0,0,3.44-2.23l2.57-1.7.06-.07,2.61-3.85c7.8-11.65,17.52-26.14,33-21.27.29.09,2.89.87,4,0a1.17,1.17,0,0,0,.4-1.12l-.64-4.89c-1.3-9.78-2.54-19-1.07-28.67a28.63,28.63,0,0,0,.29-3.72V664.4l-.1-2.34,0-.78c-.72-14.28,4.29-27.12,13.4-34.35l-.34-.61c-9.66,3.46-20,1.76-29-4.8a34.16,34.16,0,0,1-4.47-4.58c-2.73-9.23-2.84-19-2.84-28.44v-2.34c0-5.14,0-10.42-.49-15.54l-.07-.79-.54.58c-1.62,1.73-3.28,3.72-5,5.84-8.86,10.62-19.88,23.85-33.83,12.39a15.92,15.92,0,0,0-3.62-1.25,78.81,78.81,0,0,0-25.87.33,11.11,11.11,0,0,0-2.46,1c-14.56,7-26.19-4.66-37.44-15.91-4.63-4.63-9-9-13.47-11.95l-.74-.48Zm-8.29,88,.53-2.91a76.36,76.36,0,0,1,11.86-26,26.9,26.9,0,0,1,2.36-2.9l.06,0,0-.07a35.46,35.46,0,0,0,3.68-16.12c0-9.11-2.91-18.23-5.76-27.16-1.26-4-2.53-8-3.53-12,4.13,2.89,8.23,7,12.56,11.27C476.6,584.16,489,596.5,504,589.32a10.11,10.11,0,0,1,2.28-.9,77.43,77.43,0,0,1,25.64-.33h0a15.49,15.49,0,0,1,3.36,1.14c14.41,11.86,25.68-1.66,34.74-12.54,1.55-1.86,3-3.6,4.45-5.17.4,4.83.45,9.79.45,14.64v2.34c0,9.54.1,19.36,2.88,28.71l0,.08.05.05a34.83,34.83,0,0,0,4.65,4.74c8.8,6.39,18.77,8.18,28.24,5.28-8,7-12.65,18.4-12.65,31.22,0,.9,0,1.81.07,2.73l0,.79.09,2.31v.85l0,3.29a26.93,26.93,0,0,1-.28,3.62,62,62,0,0,0-.66,9.29A149,149,0,0,0,599,701.05l.64,4.88a.45.45,0,0,1,0,.11.48.48,0,0,1-.17.39c-.51.42-2.08.25-3.29-.13-16-5-25.84,9.71-33.78,21.55l-2.56,3.79-2.49,1.65a39,39,0,0,1-3.38,2.18,38.33,38.33,0,0,1-5.23,2.25l-.66.25-4.46,1.47-1.77.55c-20.65,6.68-23.94,28.37-26.83,47.5a163.74,163.74,0,0,1-3.36,17.7A153.35,153.35,0,0,1,510,785.91c-.88-17.83-1.78-36.27-16.56-47.43-.06,0-2.23-.91-2.23-.91l-4-1.63a77.4,77.4,0,0,1-25-18.39,29.05,29.05,0,0,0-2.26-3.16c-6.42-21.45-29.9-15.9-45.45-12.23l-1.88.45c2.11-2.27,4.32-4.5,6.66-6.85,11.86-11.93,24.12-24.25,24.12-41.5,0-.67,0-1.36-.06-2A20.85,20.85,0,0,0,443.92,649.2ZM532,587.39Z"/><path class="cls-1" d="M439.2,541.19c1.25,5.11,3,10.41,4.63,15.53,3.46,10.67,7,21.58,7,32.44a41.34,41.34,0,0,1-4.24,18.7,30.63,30.63,0,0,0-2.88,3.53,91.78,91.78,0,0,0-14.27,31.31l-.64,3.56a24.51,24.51,0,0,1-.71,3.55l0,.07V650c0,.85.07,1.69.07,2.52,0,20.3-14.58,34.86-28.7,48.95-3.15,3.14-6.12,6.11-8.94,9.14l-.79.86,4.63-1.13C413.86,705.51,440.59,699,448,724l0,.06,0,.06a36.81,36.81,0,0,1,2.75,3.81A92.57,92.57,0,0,0,480.91,750l4.83,2,2.5,1c17.29,13,18.21,35,19.09,56.19.37,8.92.72,17.35,2.25,25.07l.68,0c2-6.94,3.15-14.8,4.35-23.13,3.45-23.84,7-48.51,31.26-56.27l2.11-.65,5.35-1.76.79-.29a48.46,48.46,0,0,0,6.35-2.71,46.48,46.48,0,0,0,4.1-2.66l3.07-2,.05-.06,3.07-4.54c9.33-13.94,20.94-31.29,39.52-25.31.35.12,3.43,1.07,4.67,0a1.31,1.31,0,0,0,.46-1.27l-.77-5.76c-1.59-11.68-3.09-22.71-1.32-34.26a35.38,35.38,0,0,0,.35-4.41v-5l-.12-2.79,0-.94c-.87-17.05,5.18-32.37,16.18-41l-.34-.61c-11.59,4.24-23.92,2.26-34.74-5.56a40.91,40.91,0,0,1-5.37-5.46c-2.86-9.82-3.24-20.12-3.24-30.25,0-1.75,0-3.49,0-5.23s0-3.47,0-5.23c0-4.89-.08-9.84-.49-14.69l-.07-.79-.54.59c-1.91,2.07-3.87,4.46-6,7-7.46,9.07-15.91,19.34-25.93,20.3-4.86.47-9.59-1.27-14.47-5.3a18.71,18.71,0,0,0-4.29-1.48,93.43,93.43,0,0,0-30.86.38,13.18,13.18,0,0,0-2.92,1.14c-17.43,8.37-31.32-5.65-44.77-19.2-5.52-5.56-10.72-10.82-16-14.36l-.75-.51Zm-9.71,105.18.64-3.5a90.9,90.9,0,0,1,14.16-31.08,31.7,31.7,0,0,1,2.82-3.47l.06-.05,0-.07a42,42,0,0,0,4.34-19c0-10.95-3.56-21.92-7-32.66-1.56-4.78-3.13-9.71-4.34-14.5,5,3.5,9.91,8.42,15.11,13.67C468.89,569.4,483,583.6,500.85,575a12.62,12.62,0,0,1,2.73-1.09,92.77,92.77,0,0,1,30.63-.38h0a19,19,0,0,1,4,1.38c4.94,4.11,9.85,5.9,14.9,5.41,10.31-1,18.86-11.38,26.4-20.55,1.87-2.27,3.64-4.39,5.36-6.31.35,4.54.44,9.17.44,13.77,0,1.76,0,3.5,0,5.23s0,3.48,0,5.23c0,10.21.37,20.59,3.29,30.51l0,.07,0,.06a41.23,41.23,0,0,0,5.54,5.65c10.53,7.6,22.48,9.74,33.82,6.14-9.68,8.33-15.3,21.93-15.3,37.25,0,1.06,0,2.13.08,3.21l.05.95.11,2.75v.93l0,4a33.59,33.59,0,0,1-.34,4.31,73.13,73.13,0,0,0-.79,11c0,7.93,1.07,15.77,2.12,23.45l.76,5.74a.86.86,0,0,1,0,.15.62.62,0,0,1-.21.5c-.64.53-2.54.32-4-.16-19.09-6.15-30.87,11.44-40.33,25.58l-3,4.47-3,2a46.33,46.33,0,0,1-4,2.61,44.6,44.6,0,0,1-6.25,2.66l-.8.3-5.31,1.75-2.12.66c-24.66,7.89-28.42,33.89-31.73,56.83A194.18,194.18,0,0,1,510,832.46c-1.26-7.22-1.63-15-2-23.3-.9-21.36-1.82-43.46-19.44-56.75-.06,0-2.61-1.06-2.61-1.06l-4.79-2a92.17,92.17,0,0,1-29.85-21.87,33.67,33.67,0,0,0-2.71-3.78C441,698.12,412.83,705,394.17,709.61l-2.32.56c2.56-2.72,5.25-5.42,8.08-8.25,14.23-14.2,28.92-28.86,28.92-49.44,0-.82,0-1.66-.08-2.51A24.78,24.78,0,0,0,429.49,646.37Zm104.84-73.51h0Z"/><path class="cls-1" d="M426.2,521.18c1.47,5.94,3.49,12.09,5.44,18.05,4.1,12.49,8.29,25.25,8.29,37.94a47.87,47.87,0,0,1-4.9,21.62,35.93,35.93,0,0,0-3.34,4.11,106,106,0,0,0-16.57,36.39l-.75,4.13a27.49,27.49,0,0,1-.83,4.13l0,.07v.07c.06,1,.09,2,.09,3,0,23.61-17,40.52-33.49,56.89-3.65,3.63-7.1,7.06-10.37,10.56l-.81.87,5.09-1.28c22.83-5.74,54.09-13.6,62.68,15.62l0,.07,0,.06a39.94,39.94,0,0,1,3.19,4.43,107.44,107.44,0,0,0,34.95,25.58l5.64,2.28,2.88,1.15c20.13,15.19,21.07,40.78,22,65.51.38,10.38.74,20.19,2.46,29.17l.69,0c2.27-8.06,3.55-17.2,4.9-26.87,3.89-27.84,7.92-56.63,36.15-65.61l2.46-.76c2-.6,4.23-1.29,6.21-2l.94-.34a54.55,54.55,0,0,0,7.36-3.13,53.61,53.61,0,0,0,4.75-3.07l3.57-2.35.06-.06,3.52-5.22c10.85-16.23,24.36-36.44,46.07-29.33,1.45.48,4.23,1,5.38.07a1.48,1.48,0,0,0,.51-1.43l-.89-6.6c-1.88-13.59-3.65-26.42-1.58-39.86a40.28,40.28,0,0,0,.4-5.12l0-4.57v-1.17s-.14-3.27-.14-3.27l0-1.06c-1-19.82,6.08-37.62,19-47.61l-.34-.6c-13.5,5-27.87,2.76-40.47-6.31A49,49,0,0,1,600.1,599c-3.15-10.86-3.65-22.24-3.65-33.47,0-2.63,0-5.25,0-7.86s.06-5.25.06-7.89c0-5.08-.1-10.21-.51-15.23l-.06-.8-.55.59c-2.19,2.42-4.45,5.2-6.85,8.13-8.66,10.62-18.48,22.66-30.14,23.8-5.65.54-11.15-1.49-16.83-6.21a22,22,0,0,0-5-1.7h0a108.11,108.11,0,0,0-35.86.43,14.87,14.87,0,0,0-3.37,1.33c-20.3,9.77-36.47-6.64-52.11-22.51-6.39-6.49-12.44-12.63-18.6-16.77l-.75-.51ZM415.06,643.53l.74-4.08a105.55,105.55,0,0,1,16.46-36.15,37.38,37.38,0,0,1,3.29-4l.06,0,0-.06a48.51,48.51,0,0,0,5-22c0-12.79-4.21-25.61-8.33-38.16-1.84-5.61-3.71-11.4-5.15-17,5.82,4.1,11.59,9.9,17.67,16.07,15.81,16,32.16,32.64,52.92,22.65a13.91,13.91,0,0,1,3.19-1.26,107.83,107.83,0,0,1,35.63-.44h0a22.25,22.25,0,0,1,4.69,1.61c5.74,4.79,11.41,6.87,17.26,6.3,12-1.16,21.87-13.32,30.62-24,2.18-2.68,4.25-5.2,6.26-7.45.35,4.72.45,9.53.45,14.32q0,3.94-.05,7.88c0,2.6,0,5.23,0,7.87,0,11.3.5,22.76,3.69,33.73l0,.07,0,.06a49.64,49.64,0,0,0,6.42,6.54c12.3,8.86,26.27,11.26,39.53,6.91C634,622.45,627.4,638.3,627.4,656.18c0,1.22,0,2.47.1,3.71l0,1.07.13,3.23v1.18l0,4.55a38.78,38.78,0,0,1-.4,5,84.25,84.25,0,0,0-.92,12.73c0,9.24,1.26,18.39,2.5,27.33l.89,6.6a1.21,1.21,0,0,1,0,.18.74.74,0,0,1-.26.62c-.76.62-3,.37-4.72-.2-22.22-7.28-35.89,13.18-46.88,29.61L574.41,757l-3.48,2.3c-1.5,1-3.06,2.12-4.69,3a54.51,54.51,0,0,1-7.26,3.08l-.94.35c-2,.73-4.2,1.41-6.18,2l-2.46.76c-28.66,9.12-32.9,39.43-36.63,66.18a227.36,227.36,0,0,1-4.47,25.08c-1.45-8.47-1.83-17.64-2.19-27.33-.91-24.9-1.85-50.66-22.3-66.09-.07,0-3-1.2-3-1.2l-5.59-2.27a106.86,106.86,0,0,1-34.69-25.36,40,40,0,0,0-3.17-4.41c-8.81-29.78-41.72-21.51-63.5-16l-2.75.69c3-3.19,6.17-6.34,9.51-9.67,16.57-16.47,33.7-33.48,33.7-57.37,0-1,0-2-.1-3A27,27,0,0,0,415.06,643.53Z"/><path class="cls-1" d="M413.19,501.17c1.7,6.77,4,13.78,6.27,20.57,4.73,14.29,9.57,28.9,9.57,43.44a54.31,54.31,0,0,1-5.56,24.54,43.5,43.5,0,0,0-3.81,4.69,121,121,0,0,0-18.87,41.46c-.33,1.38-.6,3.07-.85,4.71a31.18,31.18,0,0,1-.94,4.72l0,.07v.07c.07,1.17.11,2.33.11,3.48,0,26.93-19.46,46.19-38.29,64.83-4.16,4.12-8.09,8-11.8,12l-.83.88,5.56-1.42c26.13-6.7,61.92-15.87,71.71,17.52l0,.08.05.05a47.6,47.6,0,0,1,3.63,5.06A122.08,122.08,0,0,0,468.94,777c1.79.83,4.37,1.81,6.44,2.61l3.27,1.29c23,17.34,23.91,46.57,24.84,74.85.39,11.82.75,23,2.67,33.25l.68,0c2.56-9.2,4-19.61,5.47-30.63,4.33-31.83,8.81-64.73,41.05-75l2.82-.86c2.25-.68,4.81-1.46,7.06-2.29l1.07-.39a61.43,61.43,0,0,0,8.37-3.55,63.54,63.54,0,0,0,5.42-3.49c1.41-1,2.73-1.9,4-2.63l.08,0,4-6c12.37-18.53,27.78-41.59,52.6-33.36,1.66.55,4.81,1.19,6.11.11a1.64,1.64,0,0,0,.56-1.58l-1-7.45c-2.16-15.5-4.2-30.14-1.83-45.47a47.36,47.36,0,0,0,.46-5.81l0-5.18v-1.36l-.15-3.67-.07-1.26c-1.13-22.6,7-42.87,21.74-54.24l-.34-.61c-15.42,5.78-31.83,3.28-46.2-7-2.2-1.59-5.27-5.12-7.13-7.27-3.46-12-4.07-24.55-4.07-37,0-3.43,0-6.84.09-10.23s.09-6.82.09-10.26c0-5.37-.11-10.76-.52-16l-.06-.82-.55.61c-2.49,2.76-5,5.92-7.76,9.27-9.86,12.18-21,26-34.35,27.28-6.44.63-12.72-1.69-19.18-7.09a25.5,25.5,0,0,0-5.62-1.94,124.4,124.4,0,0,0-19.13-1.47,123.15,123.15,0,0,0-21.73,2,16.26,16.26,0,0,0-3.82,1.51C471.16,557,452.73,538.17,434.9,520c-7.29-7.43-14.17-14.44-21.17-19.19l-.76-.52ZM400.64,640.69c.25-1.63.51-3.3.83-4.65a120,120,0,0,1,18.77-41.22A39.51,39.51,0,0,1,424,590.2l.06,0,0-.07a55,55,0,0,0,5.67-24.91c0-14.63-4.87-29.31-9.62-43.66-2.14-6.45-4.33-13.1-6-19.53,6.67,4.69,13.28,11.38,20.26,18.49,18,18.35,36.62,37.33,60.25,25.94a16.41,16.41,0,0,1,3.64-1.45A121.71,121.71,0,0,1,519.9,543a123,123,0,0,1,19,1.45h0a24.86,24.86,0,0,1,5.36,1.85c6.54,5.47,13,7.84,19.62,7.19,13.6-1.33,24.88-15.25,34.83-27.54,2.5-3.09,4.86-6,7.16-8.58.36,5,.48,10.07.48,15.13,0,3.44-.05,6.87-.09,10.26s-.1,6.8-.1,10.23c0,12.49.62,25.13,4.12,37.23l0,.07.06.06c1.88,2.17,5,5.79,7.3,7.44,14.07,10.11,30.07,12.78,45.24,7.67-13.18,10.94-20.84,29.06-20.84,49.51,0,1.38,0,2.78.11,4.18l.06,1.26.15,3.64v1.36l0,5.16a43.72,43.72,0,0,1-.45,5.73,94.62,94.62,0,0,0-1.07,14.54c0,10.32,1.43,20.52,2.9,31.12l1,7.45a1.83,1.83,0,0,1,0,.21.92.92,0,0,1-.32.74c-.89.73-3.41.43-5.44-.24-25.34-8.4-40.9,14.91-53.42,33.64l-3.93,5.83c-1.27.74-2.59,1.66-4,2.62a58.88,58.88,0,0,1-5.35,3.45,62,62,0,0,1-8.27,3.51l-1.08.39c-2.23.83-4.77,1.6-7,2.28l-2.82.87c-32.67,10.34-37.37,45-41.53,75.52-1.41,10.32-2.77,20.07-5,28.79-1.64-9.72-2-20.24-2.4-31.38-.93-28.44-1.89-57.85-25.18-75.42l-3.38-1.35c-2.06-.79-4.63-1.78-6.4-2.58a121.48,121.48,0,0,1-39.53-28.85,45.37,45.37,0,0,0-3.61-5c-10-34-47.63-24.32-72.53-17.94l-3.19.81c3.46-3.65,7.08-7.26,10.92-11.06,18.94-18.76,38.5-38.11,38.5-65.33,0-1.14,0-2.3-.1-3.46A34.68,34.68,0,0,0,400.64,640.69ZM539,543.79Z"/><path class="cls-1" d="M400.19,481.17c1.92,7.58,4.54,15.46,7.08,23.08,5.38,16.1,10.87,32.56,10.87,48.93a61,61,0,0,1-6.22,27.48,45.64,45.64,0,0,0-4.29,5.26,135.46,135.46,0,0,0-21.16,46.53c-.38,1.55-.67,3.45-1,5.3a35.8,35.8,0,0,1-1.05,5.29l0,.08v.07q.12,2,.12,4c0,30.25-21.88,51.85-43.08,72.76-4.66,4.61-9.07,9-13.24,13.4l-.84.89,6-1.56c29.43-7.65,69.75-18.13,80.73,19.43l0,.07.05.06a50.66,50.66,0,0,1,4.08,5.67A136.73,136.73,0,0,0,463,790.41c2,.92,4.91,2,7.24,2.92l3.65,1.45c25.79,19.46,26.77,52.35,27.72,84.16.39,13.29.77,25.83,2.88,37.35l.68,0c2.84-10.32,4.39-22,6-34.38,4.77-35.81,9.7-72.84,45.94-84.28l3.15-1c2.54-.76,5.4-1.63,7.93-2.56l1.21-.44a51.23,51.23,0,0,0,15.46-7.88c1.58-1.1,3.08-2.14,4.51-3l.07,0,4.48-6.65c13.9-20.82,31.2-46.73,59.15-37.39,1.85.62,5.37,1.35,6.82.15a1.79,1.79,0,0,0,.61-1.73l-1.14-8.25c-2.45-17.43-4.76-33.88-2.1-51.12a52.79,52.79,0,0,0,.53-6.51l0-5.74V664l-.17-4.14-.07-1.39c-1.28-25.36,7.89-48.12,24.52-60.86l-.34-.61c-17.34,6.56-35.79,3.78-51.93-7.8-2.48-1.79-5.93-5.76-8-8.17-3.78-13.16-4.5-26.93-4.5-40.57,0-4.18.07-8.34.14-12.47s.13-8.33.13-12.53c0-5.68-.13-11.39-.54-17l-.06-.82-.55.61c-2.78,3.11-5.64,6.65-8.67,10.41-11.06,13.74-23.61,29.31-38.56,30.78-7.23.71-14.28-1.89-21.55-8a28.26,28.26,0,0,0-6.28-2.19,138.9,138.9,0,0,0-45.85.55,18.94,18.94,0,0,0-4.27,1.69c-26.05,12.58-46.76-8.61-66.78-29.1-8.17-8.35-15.88-16.25-23.74-21.6l-.76-.52Zm-14,156.68c.28-1.83.57-3.71.94-5.23a134.66,134.66,0,0,1,21.06-46.29,43.18,43.18,0,0,1,4.22-5.18l.06,0,0-.08a61.55,61.55,0,0,0,6.33-27.84c0-16.46-5.51-33-10.91-49.15-2.43-7.29-4.92-14.81-6.81-22.09,7.52,5.3,15,12.9,22.83,20.94,20.2,20.67,41.08,42,67.58,29.24a18.86,18.86,0,0,1,4.1-1.63,137.85,137.85,0,0,1,45.62-.54h0a28.08,28.08,0,0,1,6,2.08c7.33,6.15,14.55,8.82,22,8.08,15.25-1.5,27.89-17.19,39-31,2.82-3.5,5.48-6.78,8.07-9.71.37,5.3.49,10.69.49,16.06,0,4.2-.06,8.39-.13,12.52s-.13,8.3-.13,12.49c0,13.71.72,27.57,4.55,40.83v.08l.06,0c2.1,2.43,5.62,6.49,8.18,8.34,15.8,11.33,33.76,14.27,50.81,8.48-14.88,12.25-23.46,32.63-23.46,55.59,0,1.54,0,3.1.11,4.67l.07,1.39.17,4.1v1.61l0,5.72a50.56,50.56,0,0,1-.51,6.42,106.2,106.2,0,0,0-1.2,16.3c0,11.6,1.62,23.09,3.3,35l1.13,8.25a1.1,1.1,0,0,1,0,.25,1,1,0,0,1-.38.85c-1,.83-3.86.49-6.15-.28-28.46-9.51-45.92,16.65-59.95,37.67l-4.4,6.52c-1.43.82-2.91,1.85-4.48,2.94a66.27,66.27,0,0,1-6,3.87,68.19,68.19,0,0,1-9.29,3.92l-1.22.45c-2.5.92-5.36,1.79-7.88,2.54l-3.16,1c-36.67,11.57-41.86,50.5-46.43,84.86-1.55,11.65-3.06,22.67-5.59,32.51-1.83-11-2.23-22.85-2.6-35.43-1-32-1.94-65-28.07-84.74-.07,0-3.76-1.5-3.76-1.5-2.32-.9-5.21-2-7.2-2.91a136.16,136.16,0,0,1-44.38-32.32,50.53,50.53,0,0,0-4.05-5.64c-5-16.87-16.16-25.72-34.23-27-15.36-1.12-33.09,3.49-47.34,7.19l-3.63.94c3.91-4.13,8-8.2,12.36-12.48,21.3-21,43.29-42.73,43.29-73.26,0-1.3,0-2.62-.13-3.95A36.48,36.48,0,0,0,386.21,637.85Zm155.15-108.6Z"/><path class="cls-1" d="M387.18,461.15c2.14,8.42,5.07,17.16,7.91,25.6,6,17.92,12.15,36.23,12.15,54.43a67.43,67.43,0,0,1-6.89,30.42,53.19,53.19,0,0,0-4.74,5.83A150.18,150.18,0,0,0,372.14,629c-.42,1.71-.74,3.83-1.06,5.87a38,38,0,0,1-1.16,5.88l0,.07v.07c.09,1.5.14,3,.14,4.44,0,33.57-24.32,57.52-47.87,80.71-5.17,5.09-10.06,9.9-14.69,14.81l-.84.9,6.49-1.7c15.78-4.15,35.42-9.32,52.37-8.12,19.78,1.38,32,11,37.39,29.46l0,.07,0,.06a55.86,55.86,0,0,1,4.53,6.29,151.82,151.82,0,0,0,49.49,36c2.23,1,5.46,2.24,8,3.23l4,1.59c28.63,21.6,29.63,58.15,30.6,93.49.4,14.73.78,28.65,3.09,41.43l.68,0c3.11-11.46,4.81-24.42,6.6-38.13,5.21-39.81,10.59-81,50.83-93.62l3.51-1.06c2.8-.85,6-1.8,8.78-2.83l1.34-.49a75.44,75.44,0,0,0,10.42-4.4,73.6,73.6,0,0,0,6.73-4.33c1.76-1.22,3.42-2.36,5-3.28l.07,0,4.94-7.34c15.43-23.12,34.62-51.88,65.69-41.42,2,.69,5.95,1.51,7.54.19a2,2,0,0,0,.66-1.89l-1.26-9.11c-2.74-19.32-5.32-37.58-2.36-56.7a55.81,55.81,0,0,0,.58-7.22l0-6.44v-1.7l-.19-4.59-.08-1.54c-1.41-28.13,8.8-53.37,27.3-67.5l-.34-.6c-19.26,7.33-39.74,4.29-57.66-8.55-2.75-2-6.58-6.39-8.9-9.06-4.11-14.36-4.92-29.36-4.92-44.24,0-4.91.09-9.81.17-14.66s.18-9.8.18-14.74c0-6-.13-12.05-.56-18l-.06-.82-.55.61c-3.07,3.45-6.23,7.38-9.58,11.56C605.06,507,591.16,524.36,574.57,526c-8,.8-15.85-2.11-23.91-8.87a31.36,31.36,0,0,0-6.95-2.41,153.44,153.44,0,0,0-23.79-1.83,151.8,151.8,0,0,0-27.06,2.43,21,21,0,0,0-4.73,1.87c-28.91,14-51.89-9.59-74.1-32.4-9.06-9.28-17.61-18.06-26.31-24l-.77-.52ZM371.78,635c.31-2,.64-4.12,1.05-5.81a149.15,149.15,0,0,1,23.35-51.37,50,50,0,0,1,4.69-5.76l.05-.05,0-.07a68.05,68.05,0,0,0,7-30.77c0-18.31-6.16-36.68-12.19-54.66-2.73-8.12-5.52-16.49-7.64-24.59,8.38,5.9,16.66,14.37,25.4,23.35,22.39,23,45.55,46.74,74.92,32.54A20.24,20.24,0,0,1,493,516a151.27,151.27,0,0,1,26.93-2.42,153.26,153.26,0,0,1,23.68,1.82h0a31.23,31.23,0,0,1,6.69,2.32c8.13,6.83,16.12,9.78,24.34,9,16.89-1.67,30.9-19.13,43.25-34.53,3.14-3.91,6.1-7.58,9-10.86.38,5.64.51,11.35.51,17.06,0,4.94-.09,9.87-.17,14.73s-.18,9.76-.18,14.68c0,15,.82,30,5,44.49l0,.08,0,.06c2.34,2.69,6.24,7.19,9.08,9.23,17.56,12.59,37.55,15.8,56.51,9.24-16.62,13.55-26.24,36.19-26.24,61.71,0,1.71.05,3.44.14,5.17l.08,1.54.18,4.55v1.7l0,6.42a57.49,57.49,0,0,1-.57,7.12,117.62,117.62,0,0,0-1.33,18c0,12.89,1.8,25.64,3.68,38.88l1.27,9.11a2.72,2.72,0,0,1,0,.28,1.17,1.17,0,0,1-.42,1c-1.14.94-4.32.55-6.88-.3-31.58-10.64-50.93,18.38-66.49,41.69,0,0-4.78,7.08-4.85,7.2-1.59.92-3.24,2.06-5,3.26a71.55,71.55,0,0,1-6.67,4.29,75.06,75.06,0,0,1-10.31,4.35l-1.35.49c-2.78,1-5.95,2-8.74,2.82l-3.52,1.07c-40.67,12.79-46.32,56-51.32,94.19-1.69,13-3.35,25.28-6.16,36.25-2-12.24-2.42-25.48-2.81-39.51-1-35.5-2-72.22-30.94-94.06-.06,0-4.14-1.65-4.14-1.65-2.58-1-5.79-2.21-8-3.22A150.77,150.77,0,0,1,408,767.42a57,57,0,0,0-4.5-6.26c-5.49-18.71-17.91-28.5-38-29.9-17.07-1.19-36.77,4-52.6,8.15l-4.08,1.06c4.37-4.58,8.94-9.12,13.79-13.89,23.66-23.29,48.08-47.34,48.08-81.19,0-1.46-.05-2.94-.14-4.44A40.84,40.84,0,0,0,371.78,635Zm171.93-120.3Z"/><path class="cls-1" d="M374.17,441.14c2.37,9.25,5.61,18.85,8.73,28.13,6.65,19.72,13.45,39.88,13.45,59.92a74,74,0,0,1-7.56,33.35,55.58,55.58,0,0,0-5.21,6.4,164.83,164.83,0,0,0-25.77,56.68c-.45,1.88-.81,4.21-1.15,6.45a42.5,42.5,0,0,1-1.28,6.46l0,.08v.07c.11,1.66.16,3.3.16,4.91,0,36.89-26.75,63.19-52.66,88.65-5.68,5.58-11,10.86-16.12,16.24l-.85.89,6.94-1.83c17.37-4.61,39-10.34,57.65-9.09,21.77,1.47,35.23,12,41.14,32.34l0,.07.05,0a61,61,0,0,1,5,6.91A166,166,0,0,0,451,817.33c2.45,1.12,6,2.47,8.86,3.56l4.41,1.74c31.45,23.73,32.48,63.93,33.47,102.81.41,16.18.8,31.47,3.29,45.52l.69,0c3.39-12.57,5.22-26.81,7.17-41.88,5.64-43.79,11.48-89.06,55.72-103l3.87-1.17c3.07-.93,6.56-2,9.63-3.1l1.47-.53a61.88,61.88,0,0,0,18.82-9.57c1.94-1.34,3.76-2.6,5.51-3.6l.07,0,5.39-8c16.95-25.41,38-57,72.23-45.45,2.25.76,6.52,1.67,8.26.23a2.12,2.12,0,0,0,.71-2l-1.39-10c-3-21.24-5.88-41.29-2.61-62.3a60.47,60.47,0,0,0,.63-7.91l0-7.06v-1.88l-.21-5-.09-1.69c-1.54-30.91,9.71-58.63,30.09-74.13l-.34-.6c-21.19,8.1-43.7,4.8-63.4-9.3-3-2.17-7.23-7-9.78-10-4.44-15.55-5.35-31.81-5.35-47.94,0-5.63.11-11.25.22-16.82s.22-11.23.22-16.9c0-6.36-.14-12.75-.58-19l-.06-.83-.56.62c-3.35,3.78-6.81,8.11-10.48,12.69-13.47,16.86-28.74,36-47,37.77-8.82.87-17.42-2.32-26.27-9.76a35.14,35.14,0,0,0-7.61-2.65,168.64,168.64,0,0,0-55.85.66A22.71,22.71,0,0,0,485,502.9c-31.79,15.38-57-10.58-81.44-35.7-9.94-10.22-19.32-19.88-28.88-26.43l-.77-.53Zm-16.82,191c.35-2.23.7-4.53,1.15-6.39a164.3,164.3,0,0,1,25.65-56.45A55.68,55.68,0,0,1,389.3,563l.07,0,0-.07a74.64,74.64,0,0,0,7.65-33.71c0-20.14-6.81-40.36-13.48-60.15-3-9-6.11-18.18-8.45-27.11,9.22,6.5,18.33,15.85,28,25.76,24.59,25.29,50,51.45,82.26,35.84a22.09,22.09,0,0,1,5-2,167.53,167.53,0,0,1,55.61-.65h0a35,35,0,0,1,7.35,2.54c8.92,7.52,17.69,10.77,26.71,9.87,18.53-1.83,33.9-21.07,47.45-38,3.46-4.32,6.72-8.37,9.89-12,.39,6,.54,12,.54,18.09,0,5.66-.11,11.32-.22,16.89s-.22,11.2-.22,16.83c0,16.21.91,32.55,5.39,48.21l0,.07.06.06c2.56,3,6.84,7.91,10,10.13,19.33,13.84,41.36,17.31,62.23,10-18.38,14.85-29,39.77-29,67.87,0,1.86,0,3.75.14,5.64l.09,1.68.2,5v1.89l0,7a62.36,62.36,0,0,1-.62,7.81,127.77,127.77,0,0,0-1.47,19.77c0,14.16,2,28.17,4.07,42.73l1.4,10c0,.11,0,.21,0,.31a1.29,1.29,0,0,1-.49,1.08c-1.25,1-4.76.61-7.58-.35-34.71-11.75-56,20.12-73,45.73l-5.31,7.89c-1.75,1-3.56,2.26-5.48,3.59a84.53,84.53,0,0,1-7.32,4.7,81.74,81.74,0,0,1-11.34,4.78l-1.48.53c-3.05,1.12-6.52,2.16-9.59,3.08l-3.87,1.18c-20,6.27-34,19.66-42.8,40.94-7.76,18.75-10.63,41-13.41,62.59-1.85,14.34-3.64,27.87-6.72,40-2.21-13.49-2.64-28.1-3-43.57-1-39-2-79.41-33.82-103.39l-4.51-1.79c-2.85-1.09-6.38-2.43-8.82-3.54a165.58,165.58,0,0,1-54.07-39.29,62.2,62.2,0,0,0-4.94-6.88c-6-20.56-19.68-31.28-41.76-32.77-18.77-1.26-40.45,4.49-57.87,9.11l-4.52,1.2c4.82-5.06,9.87-10,15.22-15.32,26-25.55,52.87-52,52.87-89.13,0-1.62,0-3.25-.15-4.91A43.74,43.74,0,0,0,357.35,632.18Zm188.71-132Z"/><path class="cls-1" d="M361.17,421.14c2.6,10.08,6.13,20.53,9.55,30.63,7.29,21.54,14.73,43.55,14.73,65.43a80.67,80.67,0,0,1-8.21,36.28,59.81,59.81,0,0,0-5.69,7,179.5,179.5,0,0,0-28.06,61.76c-.49,2-.88,4.57-1.26,7a47.74,47.74,0,0,1-1.39,7l0,.07v.08c.11,1.82.17,3.62.17,5.38,0,40.22-29.19,68.86-57.46,96.6-6.18,6.07-12,11.8-17.56,17.65l-.86.9,7.41-2c19-5.07,42.54-11.38,62.91-10,23.78,1.54,38.47,13.06,44.91,35.19l0,.08.05,0a68.23,68.23,0,0,1,5.42,7.53,180.82,180.82,0,0,0,59.17,43c2.68,1.22,6.55,2.69,9.66,3.87l4.8,1.89c34.29,25.87,35.34,69.72,36.34,112.13.42,17.64.82,34.31,3.52,49.61l.68,0c3.66-13.71,5.64-29.21,7.73-45.64,3-23.46,6.08-47.73,14.47-68.07,9.49-23,24.58-37.46,46.15-44.21l4.21-1.28c3.35-1,7.15-2.14,10.49-3.36l1.62-.59a67,67,0,0,0,20.49-10.4c2.11-1.46,4.1-2.84,6-3.92l.07-.05,5.86-8.7c18.46-27.7,41.45-62.18,78.76-49.48,2.45.83,7.09,1.82,9,.27a2.26,2.26,0,0,0,.76-2.19l-1.51-10.82c-3.31-23.14-6.44-45-2.87-67.9a67.72,67.72,0,0,0,.69-8.62l0-7.61v-2.12l-.23-5.48-.09-1.84c-1.69-33.7,10.6-63.89,32.86-80.77l-.34-.61c-23.1,8.88-47.65,5.32-69.13-10-3.3-2.37-7.89-7.66-10.66-10.86-4.78-16.76-5.78-34.28-5.78-51.67,0-6.35.14-12.67.27-18.94s.26-12.66.26-19.05c0-6.72-.15-13.46-.6-20.08l-.06-.84-.56.63c-3.65,4.12-7.41,8.84-11.38,13.84-14.68,18.41-31.31,39.29-51.19,41.26-9.61.95-19-2.52-28.63-10.65a38.25,38.25,0,0,0-8.28-2.88h0a183.26,183.26,0,0,0-60.84.71,24.28,24.28,0,0,0-5.63,2.24c-34.67,16.79-62.17-11.57-88.78-39-10.82-11.15-21-21.69-31.44-28.84l-.78-.53ZM342.92,629.33c.38-2.43.77-4.94,1.26-7a178.66,178.66,0,0,1,27.95-61.52,57.43,57.43,0,0,1,5.62-6.88l.06-.06,0-.07a81.13,81.13,0,0,0,8.32-36.64c0-22-7.47-44.05-14.77-65.65-3.31-9.78-6.71-19.87-9.27-29.62,10.07,7.1,20,17.33,30.53,28.17,26.78,27.6,54.46,56.15,89.59,39.13a24,24,0,0,1,5.45-2.18,182.22,182.22,0,0,1,60.61-.7h0a37.11,37.11,0,0,1,8,2.77c9.72,8.2,19.26,11.74,29.07,10.76,20.18-2,36.91-23,51.66-41.52,3.77-4.73,7.34-9.18,10.8-13.13.4,6.32.56,12.73.56,19.14s-.14,12.76-.27,19-.26,12.6-.26,19c0,17.47,1,35.06,5.82,51.93l0,.08,0,0c2.79,3.22,7.45,8.6,10.84,11,21.11,15.09,45.16,18.84,67.95,10.75-20.14,16.15-31.79,43.33-31.79,74,0,2,0,4.07.16,6.13l.09,1.85.22,5.44v2.12l0,7.6a66,66,0,0,1-.69,8.52,140.2,140.2,0,0,0-1.59,21.5c0,15.44,2.19,30.73,4.46,46.61l1.52,10.81a2.18,2.18,0,0,1,0,.35,1.47,1.47,0,0,1-.53,1.21c-1.38,1.13-5.22.66-8.31-.39-37.83-12.88-61,21.85-79.58,49.75l-5.77,8.57c-1.9,1.1-3.88,2.46-6,3.91a66.63,66.63,0,0,1-20.33,10.32l-1.63.59c-3.31,1.21-7.1,2.34-10.44,3.34l-4.22,1.29c-21.78,6.82-37,21.4-46.59,44.61C513.12,904.77,510,929.09,507,952.59c-2,15.72-3.93,30.56-7.3,43.8-2.41-14.78-2.82-30.79-3.22-47.73-1-42.57-2.06-86.6-36.69-112.71-.07,0-4.91-1.94-4.91-1.94-3.1-1.18-7-2.66-9.62-3.86a180.24,180.24,0,0,1-58.9-42.78,66.69,66.69,0,0,0-5.4-7.49c-6.55-22.41-21.43-34.07-45.52-35.63-20.48-1.34-44.13,5-63.14,10.07l-5,1.32c5.27-5.53,10.8-11,16.66-16.73,28.36-27.84,57.66-56.59,57.66-97.08,0-1.77-.06-3.57-.17-5.38A47.06,47.06,0,0,0,342.92,629.33Z"/><path class="cls-1" d="M348.16,401.12c2.82,10.91,6.66,22.22,10.37,33.16,7.93,23.35,16,47.2,16,70.92a87,87,0,0,1-8.88,39.22,65.13,65.13,0,0,0-6.14,7.54,193.86,193.86,0,0,0-30.36,66.83c-.54,2.22-1,5-1.37,7.6a49.67,49.67,0,0,1-1.51,7.64l0,.07v.08q.19,3,.19,5.87c0,43.52-31.62,74.51-62.24,104.52-6.7,6.56-13,12.75-19,19.08l-.85.9,7.85-2.1c20.54-5.53,46.1-12.4,68.18-11,25.78,1.63,41.7,14.07,48.67,38.06l0,.07,0,0a71.42,71.42,0,0,1,5.87,8.16,195.78,195.78,0,0,0,64,46.47c2.9,1.32,7.1,2.91,10.47,4.2l5.17,2c37.13,28,38.2,75.52,39.22,121.46.43,19.09.84,37.13,3.72,53.7l.69,0c3.94-14.83,6.06-31.63,8.29-49.39,3.21-25.43,6.52-51.71,15.58-73.75,10.25-24.91,26.58-40.57,49.93-47.87l4.57-1.38c3.63-1.09,7.73-2.31,11.35-3.63l1.76-.64a97,97,0,0,0,13.45-5.66,98.54,98.54,0,0,0,8.7-5.58c2.29-1.58,4.44-3.07,6.5-4.25l.07,0,6.32-9.39c20-30,44.87-67.33,85.3-53.51,2.46.84,7.66,2,9.7.3a2.37,2.37,0,0,0,.81-2.33L719,756.87c-3.59-25-7-48.72-3.12-73.51a74.5,74.5,0,0,0,.75-9.31l0-8.25v-2.29l-.25-5.92-.1-2c-1.82-36.46,11.51-69.13,35.65-87.39l-.34-.61c-25,9.65-51.61,5.82-74.87-10.79-3.57-2.56-8.54-8.29-11.54-11.75-5.11-18-6.21-36.76-6.21-55.43,0-7.05.16-14.08.31-21s.31-14.07.31-21.18-.15-14.17-.62-21.16l-.06-.83-.56.63c-3.94,4.46-8,9.57-12.29,15-15.88,20-33.88,42.61-55.4,44.76-10.4,1-20.54-2.73-31-11.54a40.25,40.25,0,0,0-8.94-3.11h0a197.94,197.94,0,0,0-65.84.76,27,27,0,0,0-6.08,2.42c-37.54,18.19-67.32-12.56-96.11-42.29C371,419.92,360,408.5,348.7,400.75l-.77-.54ZM328.5,626.49c.4-2.63.82-5.34,1.35-7.53a193.22,193.22,0,0,1,30.25-66.59,63.75,63.75,0,0,1,6.08-7.47l.07,0,0-.07a87.62,87.62,0,0,0,9-39.58c0-23.81-8.11-47.73-16.06-71.14-3.6-10.61-7.3-21.56-10.09-32.14,10.92,7.7,21.7,18.81,33.1,30.58,29,29.92,58.93,60.84,96.92,42.43a26.89,26.89,0,0,1,5.91-2.36,197.22,197.22,0,0,1,65.6-.76h0a40.26,40.26,0,0,1,8.68,3c10.52,8.88,20.83,12.71,31.43,11.65,21.82-2.18,39.91-24.94,55.87-45,4.09-5.14,8-10,11.7-14.28.43,6.68.59,13.45.59,20.23,0,7.1-.16,14.19-.31,21.16s-.31,14-.31,21.07c0,18.74,1.1,37.6,6.25,55.68l0,.08.05.06c3,3.48,8.06,9.3,11.72,11.92,22.88,16.35,49,20.36,73.68,11.5-21.91,17.46-34.58,46.91-34.58,80.14q0,3.29.17,6.62l.1,2,.24,5.89v2.28L715.9,674a70.62,70.62,0,0,1-.74,9.21,150.37,150.37,0,0,0-1.72,23.24c0,16.72,2.37,33.28,4.84,50.48l1.65,11.66a2.55,2.55,0,0,1,0,.38,1.61,1.61,0,0,1-.58,1.32c-1.5,1.24-5.68.72-9-.42-41-14-66,23.59-86.12,53.78L618,833c-2.07,1.18-4.21,2.66-6.48,4.23a99.13,99.13,0,0,1-8.63,5.54,97.61,97.61,0,0,1-13.36,5.62l-1.77.63c-3.59,1.32-7.69,2.54-11.3,3.62L571.89,854c-23.57,7.37-40,23.16-50.38,48.28-9.1,22.13-12.42,48.46-15.62,73.93-2.16,17.07-4.21,33.23-7.86,47.59-2.62-16-3-33.45-3.44-51.86-1-46.11-2.11-93.79-39.57-122-.07,0-5.28-2.09-5.28-2.09-3.36-1.28-7.55-2.87-10.43-4.18a194.76,194.76,0,0,1-63.75-46.26,72.38,72.38,0,0,0-5.84-8.12c-7.08-24.25-23.2-36.84-49.29-38.5-22.19-1.39-47.81,5.5-68.4,11l-5.41,1.45c5.72-6,11.73-11.91,18.09-18.14,30.72-30.12,62.45-61.21,62.45-105,0-1.92-.06-3.88-.18-5.86A51.63,51.63,0,0,0,328.5,626.49Z"/><path class="cls-1" d="M335.16,381.11c3,11.74,7.19,23.91,11.19,35.68,8.56,25.15,17.31,50.86,17.31,76.42a93.53,93.53,0,0,1-9.55,42.15,69.56,69.56,0,0,0-6.61,8.11,208.7,208.7,0,0,0-32.66,71.9c-.57,2.39-1,5.33-1.46,8.18a54.65,54.65,0,0,1-1.63,8.23l0,.07v.07c.14,2.14.21,4.26.21,6.34,0,46.86-34.06,80.19-67,112.47-7.2,7.06-14,13.7-20.45,20.5l-.86.91,8.32-2.24c22.12-6,49.66-13.44,73.44-12,27.78,1.72,44.94,15.1,52.44,40.92l0,.07.05.06a77.68,77.68,0,0,1,6.31,8.77,210.29,210.29,0,0,0,68.86,50c3.13,1.42,7.65,3.13,11.28,4.51l5.56,2.18c39.95,30.13,41,81.3,42.09,130.77.44,20.55.85,40,3.93,57.79l.69,0c4.22-16,6.47-34,8.86-53.14,3.42-27.38,6.95-55.69,16.68-79.42,11-26.84,28.58-43.69,53.73-51.54l4.91-1.48c3.9-1.16,8.31-2.48,12.2-3.89l1.89-.69a104.63,104.63,0,0,0,14.48-6.08,105.93,105.93,0,0,0,9.36-6c2.46-1.71,4.78-3.31,7-4.57l.08,0,6.77-10.07c21.51-32.29,48.29-72.47,91.84-57.54,2.65.91,8.23,2.15,10.42.35a2.59,2.59,0,0,0,.87-2.5l-1.78-12.54c-3.88-27-7.54-52.41-3.37-79.08a77.54,77.54,0,0,0,.8-10l.05-8.94v-2.4l-.26-6.37-.1-2.15c-2-39.24,12.41-74.39,38.42-94l-.34-.6c-26.94,10.43-55.57,6.33-80.6-11.54-3.85-2.76-9.2-8.93-12.42-12.64-5.45-19.21-6.64-39.25-6.64-59.19,0-7.75.18-15.49.36-23.15s.36-15.47.36-23.28c0-7.46-.17-14.9-.66-22.25l-.05-.84-.56.63c-4.23,4.81-8.59,10.3-13.2,16.12-17.08,21.53-36.44,45.93-59.61,48.25-11.2,1.12-22.1-2.94-33.35-12.43a44,44,0,0,0-9.6-3.35h0a213,213,0,0,0-70.84.82,29,29,0,0,0-6.54,2.6c-40.41,19.59-72.45-13.54-103.44-45.59-12.59-13-24.48-25.32-36.58-33.67l-.78-.54ZM314.07,623.66c.44-2.84.89-5.76,1.45-8.12a208.06,208.06,0,0,1,32.55-71.66,70.41,70.41,0,0,1,6.55-8l.07-.05,0-.07a94.26,94.26,0,0,0,9.64-42.51c0-25.66-8.76-51.43-17.34-76.64-3.9-11.44-7.9-23.25-10.91-34.66,11.76,8.3,23.38,20.29,35.67,33,15.28,15.81,31.09,32.16,48.2,42.11,19.42,11.31,37.75,12.49,56,3.62a28.74,28.74,0,0,1,6.36-2.54,212.62,212.62,0,0,1,70.6-.81h0a43.49,43.49,0,0,1,9.34,3.24c11.32,9.56,22.39,13.68,33.79,12.54,23.47-2.34,42.92-26.87,60.09-48.52,4.4-5.55,8.56-10.78,12.6-15.41.44,7,.61,14.17.61,21.32,0,7.8-.18,15.6-.35,23.27s-.36,15.41-.36,23.17c0,20,1.19,40.13,6.68,59.43l0,.08.05.06c3.24,3.74,8.67,10,12.61,12.82,24.65,17.6,52.76,21.88,79.4,12.25C743.8,580.29,730.1,612,730.1,647.82q0,3.52.18,7.1l.11,2.15.26,6.33v2.4l0,8.92a77.74,77.74,0,0,1-.8,9.92,161.62,161.62,0,0,0-1.85,25c0,18,2.56,35.82,5.23,54.32L735,776.47a3.19,3.19,0,0,1,0,.42,1.74,1.74,0,0,1-.65,1.43c-1.61,1.34-6.12.77-9.74-.46-44.07-15.11-71,25.33-92.66,57.81l-6.68,9.94c-2.22,1.27-4.53,2.87-7,4.56a107.55,107.55,0,0,1-9.3,6,104.11,104.11,0,0,1-14.38,6l-1.89.68c-3.87,1.41-8.27,2.73-12.16,3.88l-4.92,1.5c-25.36,7.91-43.08,24.89-54.17,51.93-9.77,23.83-13.31,52.18-16.73,79.6-2.3,18.42-4.49,35.84-8.42,51.34-2.81-17.3-3.23-36.08-3.65-55.94-1.06-49.65-2.15-101-42.44-131.36-.07,0-5.67-2.24-5.67-2.24-3.62-1.37-8.13-3.09-11.24-4.49a209.53,209.53,0,0,1-68.59-49.74,77.93,77.93,0,0,0-6.29-8.74c-7.6-26.09-25-39.63-53.05-41.36-23.9-1.47-51.49,6-73.67,12l-5.86,1.58c6.18-6.47,12.66-12.84,19.53-19.56,33.08-32.39,67.25-65.83,67.25-113q0-3.13-.2-6.34A56.71,56.71,0,0,0,314.07,623.66Z"/><path class="cls-1" d="M322.15,361.1c3.27,12.57,7.72,25.59,12,38.2,9.2,27,18.6,54.52,18.6,81.91a100.15,100.15,0,0,1-10.21,45.09c-1.41,1.18-5.36,6.24-7.08,8.68a223.58,223.58,0,0,0-35,77c-.61,2.55-1.09,5.7-1.56,8.75a58.16,58.16,0,0,1-1.74,8.81l0,.08v.07q.22,3.45.22,6.82c0,50.17-36.49,85.85-71.83,120.41-7.7,7.53-15,14.65-21.88,21.92l-.87.9,8.77-2.36c23.71-6.45,53.22-14.47,78.71-12.94,29.79,1.8,48.17,16.12,56.2,43.79l0,.07,0,.06a82.66,82.66,0,0,1,6.75,9.39,225,225,0,0,0,73.71,53.44c3.35,1.51,8.19,3.35,12.08,4.83,2.62,1,4.88,1.84,5.94,2.33,42.79,32.27,43.9,87.08,45,140.09.45,22,.87,42.78,4.14,61.87l.69,0c4.49-17.09,6.89-36.43,9.42-56.9,3.64-29.33,7.39-59.66,17.8-85.09,11.76-28.75,30.57-46.81,57.5-55.2l5.26-1.58c4.17-1.25,8.9-2.65,13.06-4.17l2-.74a109.65,109.65,0,0,0,15.49-6.5,112.43,112.43,0,0,0,10-6.41c2.63-1.83,5.11-3.54,7.49-4.9l.07,0L640.25,848c23-34.58,51.71-77.62,98.39-61.56,2.82,1,8.79,2.3,11.13.37a2.72,2.72,0,0,0,.92-2.64l-1.9-13.36c-4.17-28.87-8.1-56.15-3.63-84.72a84.28,84.28,0,0,0,.86-10.71l.05-9.49v-2.64l-.27-6.79-.12-2.33c-2.09-42,13.31-79.64,41.21-100.65l-.34-.62c-28.87,11.21-59.53,6.84-86.33-12.28-4.13-3-9.86-9.56-13.31-13.55-5.79-20.42-7.07-41.73-7.07-63,0-8.44.2-16.88.4-25.23s.41-16.88.41-25.39c0-7.82-.17-15.64-.68-23.35l-.06-.84-.55.63c-4.52,5.15-9.18,11-14.11,17.26-18.28,23.09-39,49.27-63.82,51.75-12,1.2-23.66-3.16-35.71-13.32-3-1.34-7.16-3.09-10.27-3.58a227.57,227.57,0,0,0-75.82.87,30.93,30.93,0,0,0-7,2.78c-43.28,21-77.59-14.52-110.78-48.89-13.47-13.94-26.2-27.13-39.15-36.08l-.78-.54ZM299.64,620.81c.47-3,.95-6.16,1.56-8.69A222.59,222.59,0,0,1,336,535.39c1.94-2.73,5.82-7.66,7-8.61l.06,0,0-.07a100.76,100.76,0,0,0,10.31-45.45c0-27.49-9.42-55.11-18.64-82.14-4.18-12.26-8.49-24.93-11.73-37.17,12.62,8.9,25.07,21.77,38.24,35.41,16.36,16.94,33.29,34.46,51.6,45.13,20.79,12.12,40.41,13.4,60,3.89a31,31,0,0,1,6.81-2.72,227,227,0,0,1,75.6-.87h0c3,.48,7.15,2.21,10,3.48,12.1,10.24,23.95,14.66,36.14,13.43,25.11-2.52,45.93-28.81,64.3-52,4.72-5.95,9.18-11.58,13.51-16.55.46,7.41.64,14.91.64,22.42,0,8.51-.21,17-.41,25.37s-.4,16.81-.4,25.27c0,21.28,1.28,42.67,7.11,63.2l0,.07,0,.07c3.47,4,9.28,10.7,13.49,13.71,26.43,18.86,56.57,23.4,85.12,13-25.43,20.06-40.14,54-40.14,92.44q0,3.76.19,7.57l.11,2.33.28,6.76v2.64l0,9.47a84.92,84.92,0,0,1-.86,10.63,171.71,171.71,0,0,0-2,26.7c0,19.29,2.75,38.37,5.61,58.22l1.9,13.36a3.4,3.4,0,0,1,0,.45,1.91,1.91,0,0,1-.69,1.55c-1.75,1.43-6.58.83-10.46-.5-47.2-16.23-76,27.06-99.2,61.85l-7.15,10.61c-2.38,1.37-4.85,3.07-7.46,4.89a114,114,0,0,1-10,6.37A109.12,109.12,0,0,1,599.71,876l-2,.74c-4.14,1.51-8.86,2.92-13,4.15l-5.27,1.59c-27.14,8.46-46.1,26.65-57.94,55.6-10.44,25.51-14.21,55.9-17.85,85.27-2.45,19.77-4.78,38.46-9,55.09-3-18.57-3.44-38.72-3.87-60-1.07-53.18-2.18-108.17-45.32-140.69-1.14-.53-3.41-1.39-6-2.38-3.88-1.48-8.72-3.32-12-4.81A224.23,224.23,0,0,1,353.9,817.3a82.05,82.05,0,0,0-6.73-9.35C339,780,320.45,765.54,290.36,763.72c-25.61-1.54-55.18,6.49-78.94,12.95l-6.31,1.71c6.63-6.94,13.59-13.77,21-21,35.45-34.66,72-70.45,72-120.9q0-3.36-.22-6.81A58.78,58.78,0,0,0,299.64,620.81Zm255.8-178.76Z"/><path class="cls-1" d="M788,550.27c-25.9,5.22-52.39-.86-76.06-17.74-4.4-3.14-10.51-10.19-14.19-14.44-6.13-21.65-7.5-44.25-7.5-66.73,0-9.14.23-18.28.45-27.32s.45-18.26.45-27.48c0-8.19-.18-16.38-.7-24.46l-.05-.84-.57.64c-4.81,5.48-9.77,11.75-15,18.4-19.49,24.64-41.57,52.58-68,55.25-12.78,1.28-25.23-3.37-38.07-14.22-3.16-1.42-7.63-3.3-10.93-3.81a242.26,242.26,0,0,0-80.82.92c-1.78.31-4.08,1.33-7.45,3-46.16,22.4-82.73-15.52-118.11-52.19-14.36-14.88-27.92-28.94-41.73-38.5l-.78-.54.25.92c3.49,13.39,8.24,27.27,12.83,40.7,9.83,28.78,19.88,58.19,19.88,87.42a106.56,106.56,0,0,1-10.87,48c-1.5,1.26-5.71,6.66-7.55,9.26a238.11,238.11,0,0,0-37.25,82c-.66,2.72-1.17,6.08-1.67,9.33a61.6,61.6,0,0,1-1.85,9.4l0,.07v.07q.24,3.71.24,7.3c0,53.49-38.93,91.52-76.63,128.35-8.21,8-16,15.6-23.32,23.34l-.87.91,9.23-2.51c25.29-6.89,56.78-15.49,84-13.88,31.78,1.88,51.4,17.13,60,46.64l0,.08.05.05a89.7,89.7,0,0,1,7.21,10,239.57,239.57,0,0,0,78.54,56.93c3.57,1.61,8.74,3.57,12.89,5.14,2.79,1.06,5.2,2,6.32,2.48,45.63,34.41,46.75,92.87,47.85,149.42.45,23.45.88,45.6,4.35,66l.69,0c4.77-18.22,7.3-38.82,10-60.64,3.84-31.3,7.82-63.65,18.9-90.77,12.52-30.66,32.57-49.92,61.29-58.86L589,895.7c4.45-1.33,9.49-2.82,13.91-4.44l2.17-.77a88.6,88.6,0,0,0,27.19-13.77c2.81-1.94,5.46-3.77,8-5.21l.08,0L648,860c24.56-36.88,55.13-82.77,104.93-65.61,3,1,9.36,2.46,11.85.42a2.89,2.89,0,0,0,1-2.79l-2-14.21c-4.45-30.79-8.65-59.85-3.89-90.32a87.91,87.91,0,0,0,.93-11.41l0-10.14v-2.79l-.29-7.14-.13-2.58c-1.77-35.75,8.35-68.53,27.65-91.69v-1c-18.28,21.57-28.55,51.6-28.55,84.68q0,4,.2,8.06l.13,2.58.29,7.11V666L760,676.09a89.53,89.53,0,0,1-.91,11.32A183.14,183.14,0,0,0,757,715.85c0,20.57,3,40.93,6,62.08l2,14.22a4.12,4.12,0,0,1,0,.48,2,2,0,0,1-.74,1.67c-1.87,1.53-7,.89-11.18-.54-50.32-17.35-81,28.79-105.74,65.87l-7.6,11.31c-2.54,1.46-5.18,3.27-8,5.21a88.31,88.31,0,0,1-27,13.67l-2.18.78c-4.4,1.61-9.43,3.1-13.87,4.43l-5.62,1.68c-28.94,9-49.13,28.41-61.73,59.28-11.12,27.2-15.1,59.61-18.95,90.94-2.6,21.11-5.08,41.07-9.55,58.83-3.2-19.83-3.64-41.35-4.08-64.1-1.09-56.72-2.23-115.36-48.19-150-1.21-.56-3.63-1.47-6.43-2.53-4.14-1.58-9.3-3.53-12.85-5.13a239.21,239.21,0,0,1-78.28-56.71,87.4,87.4,0,0,0-7.17-10c-8.67-29.78-28.49-45.19-60.58-47.09-27.32-1.61-58.87,7-84.21,13.91L184.34,786c7.08-7.41,14.53-14.7,22.41-22.39,37.8-36.94,76.84-75.07,76.84-128.84,0-2.41-.08-4.83-.24-7.3a63.16,63.16,0,0,0,1.87-9.45c.49-3.24,1-6.58,1.65-9.27A237.3,237.3,0,0,1,324,526.9c2.06-2.91,6.2-8.16,7.48-9.18l.07-.05,0-.07a107.37,107.37,0,0,0,11-48.38c0-29.34-10.07-58.8-19.92-87.64-4.48-13.1-9.08-26.62-12.55-39.68,13.46,9.5,26.75,23.24,40.8,37.81,17.44,18.08,35.48,36.77,55,48.17C428.05,440.8,449,442.17,469.82,432a32.69,32.69,0,0,1,7.27-2.91,242.64,242.64,0,0,1,80.59-.91c3.22.51,7.63,2.36,10.67,3.71,12.91,10.93,25.53,15.63,38.51,14.32,26.76-2.69,48.94-30.75,68.51-55.51,5-6.37,9.8-12.38,14.42-17.69.48,7.77.66,15.64.66,23.52,0,9.21-.23,18.42-.45,27.47s-.45,18.19-.45,27.34c0,22.56,1.37,45.23,7.54,67l0,.07,0,.06c3.7,4.26,9.88,11.4,14.37,14.61,23.8,17,50.43,23,76.47,17.82Z"/><path class="cls-1" d="M788,545.13c-22.12.65-44.19-6.33-64.32-20.69-4.68-3.34-11.18-10.83-15.09-15.33-6.46-22.89-7.92-46.76-7.92-70.52,0-9.84.25-19.66.5-29.38s.5-19.66.5-29.58c0-8.56-.19-17.13-.73-25.57l-.06-.85-.56.64c-5.1,5.83-10.36,12.48-15.92,19.54-20.68,26.2-44.13,55.91-72.24,58.74-13.57,1.37-26.79-3.57-40.42-15.1-3.35-1.51-8.1-3.5-11.6-4a258,258,0,0,0-85.82,1c-1.89.33-4.33,1.41-7.91,3.15-49,23.8-87.87-16.5-125.44-55.49-15.24-15.81-29.64-30.75-44.29-40.91l-.78-.54.24.92c3.72,14.22,8.77,29,13.66,43.23,10.47,30.57,21.17,61.83,21.17,92.9a113.06,113.06,0,0,1-11.54,50.95c-1.57,1.31-6.11,7.15-8,9.83a252.45,252.45,0,0,0-39.55,87.13c-.7,2.88-1.25,6.45-1.78,9.91a66.19,66.19,0,0,1-2,10l0,.08v.07c.18,2.63.26,5.22.26,7.78,0,56.81-41.36,97.18-81.42,136.29-8.71,8.51-16.94,16.54-24.76,24.75l-.87.91,9.68-2.63c26.88-7.36,60.34-16.53,89.25-14.85,33.79,2,54.63,18.16,63.73,49.52l0,.06.05.07a94.9,94.9,0,0,1,7.65,10.61,254.1,254.1,0,0,0,83.39,60.41c3.79,1.72,9.28,3.79,13.69,5.47,3,1.12,5.52,2.08,6.71,2.62,48.45,36.54,49.6,98.66,50.72,158.74.46,24.91.89,48.44,4.56,70.06l.69,0c5.05-19.35,7.72-41.24,10.55-64.4,4.06-33.25,8.26-67.63,20-96.44,13.28-32.59,34.56-53,65.08-62.52l5.95-1.79c4.72-1.41,10.07-3,14.78-4.71l2.29-.83A124.38,124.38,0,0,0,627.65,897,127.22,127.22,0,0,0,639,889.71c3-2.06,5.79-4,8.49-5.54l.07,0L655.69,872c26.09-39.17,58.55-87.91,111.47-69.63,3.2,1.11,9.94,2.62,12.57.46a3,3,0,0,0,1-2.94L778.6,784.8c-4.74-32.68-9.21-63.54-4.15-95.9a92.57,92.57,0,0,0,1-12.1l.06-10.75v-3l-.31-7.63-.13-2.69c-1.3-26,3.33-50.47,13-71.23v-1.59c-9,18.85-13.88,40.85-13.88,64.3,0,2.83.07,5.69.21,8.55l.14,2.69.31,7.6v3l-.06,10.72a94.56,94.56,0,0,1-1,12A194.65,194.65,0,0,0,771.51,719c0,21.84,3.13,43.46,6.39,65.94L780.05,800a3,3,0,0,1,0,.51,2.19,2.19,0,0,1-.79,1.79c-2,1.63-7.49.94-11.9-.59-53.44-18.46-86.07,30.54-112.28,69.92,0,0-8,11.86-8.06,12-2.7,1.54-5.5,3.47-8.46,5.52a130.2,130.2,0,0,1-11.27,7.22,124.8,124.8,0,0,1-17.44,7.3l-2.3.83c-4.69,1.71-10,3.29-14.74,4.69l-6,1.8c-30.73,9.55-52.16,30.13-65.52,62.92-11.78,28.9-16,63.33-20.06,96.62-2.75,22.46-5.36,43.69-10.12,62.57-3.38-21.09-3.83-44-4.28-68.18-1.12-60.25-2.27-122.54-51.07-159.33C434.55,905,432,904,429,902.89c-4.4-1.67-9.88-3.75-13.65-5.45a253.34,253.34,0,0,1-83.12-60.19,93.71,93.71,0,0,0-7.63-10.59c-9.19-31.63-30.24-48-64.34-49.95-29-1.69-62.54,7.49-89.47,14.87l-7.23,2c7.54-7.88,15.47-15.63,23.86-23.82C208,749.64,229.3,728.86,245,705.39c16.14-24.12,24.05-48,24.05-72.63,0-2.52-.09-5-.25-7.58a66.84,66.84,0,0,0,2-10c.52-3.43,1.07-7,1.76-9.85A251.75,251.75,0,0,1,312,518.41c2.2-3.1,6.63-8.71,7.95-9.75l.07-.05,0-.07a113.85,113.85,0,0,0,11.63-51.32c0-31.17-10.72-62.48-21.21-93.13-4.77-13.93-9.68-28.31-13.37-42.2,14.32,10.1,28.44,24.72,43.38,40.22,18.52,19.22,37.66,39.09,58.39,51.2,23.51,13.73,45.71,15.18,67.86,4.43,3.53-1.71,5.92-2.77,7.72-3.09a257.37,257.37,0,0,1,85.59-1h0c3.42.54,8.11,2.51,11.34,3.95,13.7,11.6,27.09,16.6,40.86,15.21,28.41-2.85,51.95-32.69,72.72-59,5.35-6.78,10.41-13.18,15.33-18.83.49,8.14.68,16.39.68,24.64,0,9.91-.25,19.82-.49,29.56s-.5,19.56-.5,29.41c0,23.83,1.46,47.78,8,70.77l0,.07,0,.06c3.92,4.53,10.49,12.11,15.26,15.52,20.26,14.44,42.46,21.44,64.73,20.76Z"/><path class="cls-1" d="M788,537.51c-18.14-2.23-36-9.33-52.59-21.16-5-3.53-11.83-11.46-16-16.23-6.81-24.11-8.36-49.26-8.36-74.3,0-10.53.28-21,.55-31.46s.54-21.05.54-31.66c0-8.94-.19-17.87-.75-26.68l0-.86-.57.64C705.42,342,699.86,349,694,356.48c-21.89,27.77-46.69,59.24-76.45,62.24-14.36,1.45-28.36-3.78-42.78-16-3.54-1.6-8.56-3.7-12.27-4.28h0a273,273,0,0,0-90.82,1c-2,.37-4.56,1.5-8.35,3.34-23.2,11.27-46.47,9.74-71.14-4.68-21.84-12.77-42.07-33.79-61.63-54.1-16.13-16.75-31.37-32.57-46.87-43.33l-.78-.55.24.93c3.95,15,9.3,30.65,14.48,45.74,11.11,32.4,22.46,65.5,22.46,98.41a119.86,119.86,0,0,1-12.19,53.89c-1.66,1.37-6.48,7.54-8.49,10.39a267.18,267.18,0,0,0-41.85,92.2c-.74,3-1.31,6.83-1.87,10.48-.67,4.34-1.29,8.43-2.08,10.57l0,.07v.07c.18,2.71.27,5.39.27,8.07,0,25.95-8.33,51-25.34,76.45-16.58,24.77-39.09,46.73-60.86,68-9.23,9-17.94,17.5-26.2,26.17l-.88.92,10.13-2.77c28.47-7.82,63.9-17.56,94.52-15.81,35.79,2.05,57.87,19.18,67.49,52.38l0,.07.05.06a98.28,98.28,0,0,1,8.1,11.25,269.15,269.15,0,0,0,88.23,63.89c4,1.8,9.84,4,14.51,5.77,3.12,1.19,5.82,2.21,7.08,2.78,51.29,38.67,52.46,104.45,53.59,168.06.47,26.36.91,51.26,4.78,74.15l.68,0c5.33-20.48,8.14-43.64,11.12-68.16,4.28-35.21,8.71-71.61,21.12-102.11,14-34.5,36.56-56.15,68.87-66.19l6.3-1.89c5-1.49,10.66-3.17,15.63-5l2.43-.88c6.24-2.25,12.68-4.57,18.56-7.77a132.23,132.23,0,0,0,12-7.67c3.16-2.19,6.14-4.25,9-5.86l.07-.05,8.6-12.8c27.61-41.47,62-93.07,118-73.67a32.94,32.94,0,0,0,6.58,1.52v-.7a31,31,0,0,1-6.34-1.48c-56.57-19.58-91.09,32.27-118.83,73.93l-8.52,12.68c-2.85,1.63-5.82,3.68-9,5.85a133.54,133.54,0,0,1-11.92,7.63c-5.84,3.18-12.26,5.49-18.47,7.73l-2.43.88c-4.95,1.8-10.6,3.48-15.59,4.95l-6.31,1.91c-32.52,10.09-55.19,31.87-69.31,66.59-12.45,30.58-16.88,67-21.16,102.29-2.9,23.81-5.65,46.3-10.68,66.31-3.59-22.35-4.05-46.61-4.5-72.27-1.14-63.77-2.31-129.73-53.94-168.65-1.35-.61-4.06-1.64-7.19-2.82-4.67-1.77-10.47-4-14.47-5.77a268.38,268.38,0,0,1-88-63.68A98,98,0,0,0,313.34,836c-9.72-33.47-32-50.75-68.1-52.81-30.74-1.76-66.23,8-94.74,15.83l-7.67,2.1c8-8.35,16.4-16.56,25.29-25.24,21.79-21.26,44.33-43.25,61-68.08,17.09-25.52,25.45-50.74,25.45-76.83,0-2.68-.09-5.36-.26-8.06.8-2.21,1.43-6.3,2.09-10.63.56-3.63,1.14-7.39,1.86-10.41a266.76,266.76,0,0,1,41.74-92c2.32-3.26,7-9.17,8.42-10.31l.06-.05,0-.07a120.34,120.34,0,0,0,12.3-54.25c0-33-11.38-66.18-22.51-98.63-5.06-14.76-10.27-30-14.18-44.72,15.16,10.7,30.12,26.2,45.94,42.64,19.6,20.35,39.86,41.39,61.79,54.22,24.88,14.54,48.37,16.09,71.8,4.7,3.73-1.81,6.26-2.93,8.17-3.27a272,272,0,0,1,90.58-1c3.63.57,8.59,2.66,12,4.18,14.49,12.28,28.66,17.57,43.23,16.1,30-3,54.95-34.62,76.92-62.5,5.67-7.19,11-14,16.23-20,.52,8.5.72,17.12.72,25.75,0,10.61-.27,21.22-.55,31.64s-.54,21-.54,31.49c0,25.11,1.55,50.34,8.39,74.55l0,.08.05.06c4.15,4.79,11.09,12.8,16.14,16.4,16.73,11.92,34.71,19.06,53,21.28Zm0,155.38a207.83,207.83,0,0,0-2,29.2,317.27,317.27,0,0,0,2,33.54v-7.22c-1.48-16.6-1.88-33.1,0-49.91Z"/><path class="cls-1" d="M788,527.75a125.32,125.32,0,0,1-40.86-19.49c-5.23-3.73-12.48-12.1-16.85-17.13-7.14-25.33-8.78-51.77-8.78-78.09,0-11.23.3-22.43.59-33.52s.6-22.43.6-33.74c0-9.32-.21-18.63-.79-27.81l0-.85-.56.64c-5.68,6.5-11.54,13.94-17.74,21.82-23.09,29.32-49.26,62.56-80.66,65.73-15.15,1.53-29.92-4-45.14-16.88-3.73-1.68-9-3.91-12.93-4.52A288,288,0,0,0,469,385c-2.1.38-4.82,1.58-8.81,3.52-24.49,11.9-49,10.28-75.07-4.95-23.05-13.49-44.4-35.67-65-57.13-17-17.68-33.08-34.38-49.43-45.74l-.79-.55.25.93c4.17,15.87,9.82,32.34,15.29,48.27,11.75,34.19,23.75,69.15,23.75,103.89a126.25,126.25,0,0,1-12.86,56.83c-1.74,1.43-6.82,7.95-8.95,11a282,282,0,0,0-44.15,97.27c-.77,3.23-1.38,7.21-2,11.06-.7,4.58-1.36,8.9-2.2,11.15l0,.08v.07q.28,4.29.28,8.53c0,27.39-8.79,53.86-26.74,80.66-17.51,26.15-41.27,49.3-64.25,71.71-9.73,9.49-18.92,18.45-27.64,27.6l-.87.92,10.58-2.91c30.05-8.28,67.46-18.58,99.78-16.76,37.8,2.12,61.11,20.19,71.26,55.23l0,.08,0,.06A102.46,102.46,0,0,1,310,857.63,283.85,283.85,0,0,0,403.11,925c4.24,1.91,10.38,4.22,15.31,6.09,3.29,1.25,6.13,2.33,7.46,2.92,54.12,40.81,55.32,110.24,56.47,177.38.44,25.67.86,50,4.11,72.6h.74c-3.26-22.57-3.7-46.92-4.15-72.61-1.15-67.31-2.35-136.91-56.81-178-1.42-.65-4.27-1.73-7.57-3-4.93-1.86-11.05-4.18-15.28-6.08a282.87,282.87,0,0,1-92.8-67.16,102.19,102.19,0,0,0-8.52-11.82c-10.25-35.33-33.76-53.55-71.87-55.69-32.44-1.82-69.9,8.5-100,16.79l-8.12,2.23c8.45-8.82,17.33-17.5,26.73-26.65,23-22.43,46.8-45.62,64.35-71.82,18-26.92,26.86-53.52,26.86-81,0-2.83-.1-5.67-.28-8.52.84-2.34,1.51-6.64,2.2-11.22.59-3.83,1.2-7.79,2-11a281,281,0,0,1,44-97c2.44-3.45,7.36-9.69,8.88-10.89l.07-.05,0-.07a127,127,0,0,0,13-57.19c0-34.85-12-69.86-23.79-104.13-5.35-15.59-10.87-31.68-15-47.23,16,11.3,31.81,27.69,48.52,45.05,20.67,21.49,42,43.71,65.18,57.25,26.25,15.35,51,17,75.74,5,3.94-1.91,6.61-3.09,8.62-3.46a287.39,287.39,0,0,1,95.58-1.08c3.83.61,9.06,2.81,12.67,4.41,15.29,13,30.23,18.55,45.59,17,31.69-3.2,58-36.56,81.13-66,6-7.6,11.65-14.77,17.14-21.11.54,8.88.75,17.87.75,26.88,0,11.3-.3,22.61-.6,33.72s-.59,22.31-.59,33.55c0,26.4,1.64,52.9,8.83,78.34l0,.07.05.07c4.38,5.05,11.7,13.51,17,17.3A125.66,125.66,0,0,0,788,528.47Z"/><path class="cls-1" d="M788,815.26c-55-13.45-89.5,38.33-117.45,80.31,0,0-8.9,13.24-9,13.37-3,1.71-6.14,3.87-9.46,6.16a137.51,137.51,0,0,1-12.59,8c-6.16,3.36-12.93,5.8-19.48,8.16l-2.56.92c-5.23,1.9-11.19,3.66-16.45,5.23l-6.67,2c-34.3,10.65-58.21,33.63-73.09,70.26-13.12,32.28-17.77,70.75-22.27,108-2.86,23.69-5.6,46.15-10.34,66.33h.75c4.72-20.17,7.43-42.6,10.29-66.24,4.49-37.16,9.14-75.59,22.22-107.78,14.79-36.42,38.56-59.26,72.65-69.85l6.66-2c5.27-1.56,11.24-3.33,16.49-5.23l2.56-.93c6.57-2.37,13.37-4.82,19.58-8.2a139.62,139.62,0,0,0,12.65-8.09c3.33-2.3,6.48-4.47,9.48-6.18l.07,0L671.14,896C699,854.13,733.34,802.53,788,816Z"/><path class="cls-1" d="M788,516.13a137.39,137.39,0,0,1-29.13-16c-5.51-3.93-13.14-12.72-17.73-18-7.48-26.56-9.21-54.27-9.21-81.88,0-11.91.32-23.81.64-35.58s.64-23.81.64-35.82c0-9.69-.21-19.39-.81-28.94l0-.85-.56.64c-6,6.85-12.13,14.67-18.65,23-24.29,30.89-51.82,65.89-84.87,69.24-15.94,1.6-31.48-4.21-47.5-17.78-3.91-1.76-9.48-4.1-13.6-4.75a302.67,302.67,0,0,0-100.8,1.13c-2.2.4-5.06,1.66-9.26,3.7-25.78,12.53-51.62,10.83-79-5.22-24.26-14.21-46.72-37.56-68.44-60.16-17.9-18.61-34.8-36.19-52-48.15l-.78-.55.24.93c4.4,16.7,10.36,34,16.12,50.78,12.38,36,25,72.81,25,109.39,0,20-3.81,40-13.53,59.77-1.83,1.49-7.17,8.36-9.41,11.53a296.43,296.43,0,0,0-46.45,102.35c-.82,3.39-1.46,7.58-2.08,11.64-.73,4.81-1.43,9.36-2.31,11.73l0,.07v.08c.2,3,.3,6,.3,9,0,28.82-9.26,56.68-28.15,84.88-18.43,27.5-43.45,51.88-67.64,75.44-10.24,10-19.9,19.4-29.07,29l-.88.92,11-3c31.64-8.74,71-19.62,105-17.73,39.8,2.21,64.34,21.21,75,58.11l0,.07,0,0a109.91,109.91,0,0,1,9,12.49,298.55,298.55,0,0,0,97.92,70.85c4.47,2,10.93,4.45,16.12,6.42,3.46,1.31,6.45,2.43,7.84,3.06,57,42.95,58.17,116,59.35,186.71.28,17,.55,33.53,1.57,49.35h.73c-1-15.82-1.31-32.31-1.6-49.36-1.17-70.85-2.39-144.1-59.69-187.3-1.48-.67-4.48-1.81-7.95-3.12-5.18-2-11.64-4.4-16.08-6.4a297.68,297.68,0,0,1-97.65-70.64,110.88,110.88,0,0,0-9-12.45c-10.79-37.17-35.53-56.32-75.64-58.54-34.15-1.9-73.58,9-105.27,17.75l-8.57,2.36c8.9-9.3,18.26-18.43,28.16-28.08,24.22-23.6,49.26-48,67.74-75.57,19-28.31,28.26-56.29,28.26-85.25,0-3-.1-6-.3-9,.9-2.45,1.59-7,2.33-11.79.61-4,1.25-8.21,2.06-11.58a295.64,295.64,0,0,1,46.34-102.1c2.57-3.64,7.75-10.19,9.35-11.46l.07-.05,0-.07c9.8-19.88,13.63-40,13.63-60.13,0-36.68-12.68-73.54-25.09-109.61-5.64-16.43-11.45-33.38-15.82-49.76,16.86,11.91,33.49,29.17,51.08,47.46,21.75,22.63,44.24,46,68.58,60.28,27.61,16.17,53.67,17.88,79.67,5.24,4.15-2,7-3.25,9.08-3.63a301.74,301.74,0,0,1,100.58-1.14c4,.64,9.53,2.95,13.33,4.64,16.09,13.66,31.8,19.53,48,17.89,33.34-3.36,61-38.5,85.34-69.49,6.31-8,12.27-15.58,18-22.26.56,9.25.77,18.63.77,28,0,12-.33,24-.64,35.8s-.64,23.69-.64,35.61c0,27.68,1.73,55.47,9.25,82.14l0,.07,0,.06c4.6,5.32,12.31,14.21,17.91,18.21A137.52,137.52,0,0,0,788,516.88Z"/><path class="cls-1" d="M788,820.93c-50-3.15-82.74,46.08-109.72,86.63l-9.44,14c-3.17,1.8-6.47,4.08-10,6.49a146.28,146.28,0,0,1-13.25,8.47c-6.48,3.53-13.61,6.09-20.5,8.57l-2.7,1c-5.5,2-11.77,3.87-17.31,5.51l-7,2.1c-36.09,11.19-61.24,35.37-76.88,73.91-13.78,34-18.66,74.48-23.37,113.64-1.78,14.78-3.51,29.1-5.67,42.74h.73c2.14-13.62,3.86-27.92,5.63-42.65,4.71-39.12,9.58-79.57,23.33-113.46,15.56-38.34,40.56-62.38,76.44-73.51l7-2.1c5.55-1.65,11.83-3.5,17.35-5.51l2.7-1c6.92-2.49,14.07-5.07,20.6-8.62a150.68,150.68,0,0,0,13.31-8.51c3.5-2.42,6.81-4.71,10-6.51l.07,0,9.52-14.18c26.88-40.37,59.52-89.41,109.14-86.29Z"/><path class="cls-1" d="M788,502.78a149.12,149.12,0,0,1-17.39-10.7c-5.78-4.12-13.8-13.36-18.62-18.92-7.83-27.8-9.64-56.79-9.64-85.68,0-12.61.35-25.19.69-37.65s.69-25.19.69-37.9c0-10.06-.22-20.13-.84-30.05l0-.86-.56.65c-6.27,7.18-12.73,15.4-19.56,24.09-25.49,32.45-54.39,69.22-89.07,72.73-16.75,1.69-33-4.41-49.87-18.67-4.1-1.84-9.95-4.3-14.26-5A317.73,317.73,0,0,0,463.72,356c-2.31.42-5.31,1.74-9.72,3.88-27.06,13.16-54.19,11.36-82.94-5.49C345.6,339.5,322,315,299.23,291.23c-18.78-19.54-36.52-38-54.58-50.56l-.78-.55.24.93c4.63,17.53,10.89,35.71,16.94,53.3,13,37.82,26.33,76.47,26.33,114.89,0,21-4,42-14.19,62.7-1.91,1.56-7.53,8.78-9.88,12.1a311.16,311.16,0,0,0-48.75,107.42c-.85,3.56-1.52,8-2.18,12.21-.77,5.06-1.5,9.84-2.42,12.33l0,.07v.08c.21,3.16.31,6.32.31,9.46,0,30.24-9.71,59.49-29.55,89.08-19.35,28.87-45.62,54.45-71,79.19-10.74,10.47-20.88,20.34-30.51,30.44l-.88.91,11.49-3.16c33.23-9.2,74.57-20.65,110.31-18.69,41.81,2.29,67.58,22.24,78.79,61l0,.06.05.06a116.55,116.55,0,0,1,9.44,13.1,313,313,0,0,0,102.76,74.34c4.69,2.11,11.47,4.67,16.93,6.74,3.63,1.37,6.75,2.55,8.22,3.21,59.79,45.08,61,121.82,62.22,196,.14,8.84.28,17.55.51,26.1h.71c-.23-8.55-.38-17.26-.52-26.12-1.2-74.38-2.43-151.28-62.57-196.62-1.55-.7-4.69-1.88-8.32-3.26-5.45-2.06-12.23-4.62-16.89-6.73a312.46,312.46,0,0,1-102.5-74.11,115.34,115.34,0,0,0-9.41-13.08c-11.31-39-37.29-59.09-79.4-61.4-35.86-2-77.26,9.5-110.54,18.71l-9,2.49c9.36-9.77,19.19-19.36,29.6-29.49,25.43-24.77,51.73-50.38,71.13-79.31C201.2,685.37,211,656,211,625.61c0-3.14-.11-6.28-.32-9.45.94-2.57,1.67-7.33,2.44-12.38.65-4.24,1.32-8.62,2.17-12.15a310.5,310.5,0,0,1,48.63-107.18c2.71-3.82,8.14-10.71,9.82-12l.06-.05,0-.07c10.28-20.85,14.29-41.93,14.29-63.06,0-38.52-13.33-77.23-26.37-115.12-5.94-17.25-12.06-35.06-16.65-52.27,17.71,12.51,35.18,30.65,53.65,49.88,22.83,23.76,46.43,48.32,72,63.3,29,17,56.32,18.78,83.61,5.51,4.35-2.11,7.31-3.41,9.53-3.82a316.69,316.69,0,0,1,105.57-1.18c4.23.66,10,3.1,14,4.87,16.89,14.34,33.37,20.49,50.31,18.78,35-3.53,64-40.43,89.55-73,6.62-8.42,12.88-16.38,19-23.39.57,9.62.8,19.36.8,29.12,0,12.7-.35,25.41-.7,37.88s-.68,25.06-.68,37.68c0,29,1.82,58,9.68,85.93l0,.08,0,.06c4.84,5.57,12.93,14.91,18.8,19.1A150.93,150.93,0,0,0,788,503.58Z"/><path class="cls-1" d="M788,829c-45.18,5.17-76.12,51.68-102,90.57,0,0-9.82,14.6-9.89,14.72-3.33,1.9-6.79,4.29-10.46,6.81a152.21,152.21,0,0,1-13.9,8.9c-6.8,3.7-14.28,6.38-21.51,9l-2.85,1c-5.77,2.09-12.35,4-18.16,5.76L601.87,968c-37.89,11.74-64.27,37.11-80.67,77.58-14.45,35.67-19.55,78.19-24.48,119.31q-1.17,9.7-2.34,19.15h.71c.79-6.26,1.56-12.63,2.33-19.07,4.92-41.08,10-83.54,24.43-119.13,16.32-40.25,42.56-65.5,80.23-77.18l7.35-2.2c5.82-1.72,12.41-3.67,18.2-5.77l2.85-1c7.25-2.61,14.76-5.31,21.61-9a154.23,154.23,0,0,0,14-8.93c3.68-2.53,7.15-4.94,10.48-6.83l.07,0,10-14.85c25.76-38.72,56.57-85,101.42-90.23Z"/><path class="cls-1" d="M788,487.84q-2.85-1.84-5.66-3.85c-6.06-4.31-14.45-14-19.5-19.82-8.17-29-10.07-59.3-10.07-89.48,0-13.29.37-26.57.73-39.7s.74-26.57.74-40c0-10.46-.22-20.9-.86-31.2l0-.85-.57.64c-6.55,7.53-13.3,16.14-20.46,25.24-26.69,34-56.95,72.54-93.28,76.22-17.54,1.78-34.62-4.62-52.23-19.56-4.29-1.93-10.41-4.5-14.92-5.21a332.42,332.42,0,0,0-110.8,1.24c-2.41.44-5.55,1.82-10.17,4.06-28.34,13.79-56.77,11.9-86.89-5.76-26.66-15.64-51.34-41.34-75.22-66.21-19.66-20.48-38.24-39.82-57.14-53l-.79-.54.25.92c4.85,18.36,11.41,37.4,17.76,55.82,13.66,39.63,27.61,80.13,27.61,120.39,0,22-4.17,43.94-14.85,65.63-2,1.63-7.88,9.18-10.35,12.67a325.84,325.84,0,0,0-51,112.5c-.9,3.72-1.6,8.33-2.29,12.78-.8,5.3-1.57,10.31-2.53,12.92l0,.07v.07c.21,3.32.33,6.63.33,9.93,0,31.68-10.18,62.3-31,93.29-20.28,30.23-47.8,57-74.41,82.93-11.25,11-21.88,21.3-32,31.86l-.88.92,11.94-3.29c34.81-9.67,78.14-21.68,115.58-19.65,43.81,2.37,70.81,23.25,82.55,63.82l0,.08.05.06a120.34,120.34,0,0,1,9.89,13.71,327.72,327.72,0,0,0,107.6,77.83c4.91,2.21,12,4.9,17.74,7.06,3.8,1.43,7.07,2.67,8.6,3.35,62.63,47.22,63.88,127.61,65.1,205.35,0,.95,0,1.91,0,2.86h.7c0-1,0-1.91,0-2.87-1.22-77.91-2.48-158.48-65.44-205.94-1.62-.73-4.91-2-8.71-3.41-5.7-2.16-12.8-4.84-17.7-7a326.86,326.86,0,0,1-107.33-77.61,120.73,120.73,0,0,0-9.86-13.69c-11.85-40.85-39.05-61.88-83.17-64.27-37.56-2-80.94,10-115.81,19.67l-9.46,2.62c9.81-10.23,20.12-20.29,31-30.91,26.64-25.94,54.19-52.75,74.5-83,20.87-31.11,31.08-61.85,31.08-93.68q0-4.94-.33-9.91c1-2.69,1.74-7.68,2.55-13,.68-4.44,1.38-9,2.27-12.73A325.15,325.15,0,0,1,251.85,476c2.84-4,8.53-11.21,10.29-12.6l.07-.05,0-.07c10.75-21.82,14.95-43.88,14.95-66,0-40.36-14-80.92-27.66-120.62-6.23-18.07-12.65-36.75-17.46-54.79C250.63,235,268.93,254,288.28,274.13c23.91,24.9,48.63,50.64,75.38,66.33,30.34,17.79,59,19.68,87.55,5.79,4.56-2.22,7.65-3.59,10-4A331.7,331.7,0,0,1,571.76,341c4.43.7,10.49,3.25,14.66,5.11,17.68,15,34.93,21.47,52.67,19.67,36.63-3.71,67-42.37,93.77-76.49,6.93-8.83,13.49-17.17,19.86-24.52.59,10,.82,20.11.82,30.26,0,13.38-.37,26.79-.74,39.94s-.74,26.43-.74,39.74c0,30.24,1.92,60.59,10.12,89.72l0,.08.06.06c5.06,5.84,13.53,15.62,19.67,20,2,1.43,4,2.81,6.07,4.12Z"/><path class="cls-1" d="M788,839.2c-40.62,11.68-69.65,55.29-94.28,92.32l-10.35,15.41c-3.49,2-7.11,4.48-11,7.13a162.31,162.31,0,0,1-14.56,9.31c-7.13,3.87-15,6.7-22.54,9.42l-3,1.08c-6,2.19-12.93,4.22-19,6l-7.73,2.32c-39.67,12.3-67.29,38.87-84.45,81.25-14.61,36.09-20.07,78.87-25.06,120.55h.71c5-41.61,10.44-84.31,25-120.29,17.06-42.17,44.55-68.61,84-80.84l7.7-2.31c6.09-1.8,13-3.84,19.06-6l3-1.07c7.6-2.73,15.46-5.56,22.63-9.46a161.79,161.79,0,0,0,14.63-9.35c3.85-2.66,7.49-5.17,11-7.15l.08,0,10.43-15.54c24.52-36.85,53.4-80.24,93.7-92Z"/><path class="cls-1" d="M788,470.71c-5.12-4.92-10.59-11.23-14.31-15.53-8.51-30.26-10.5-61.82-10.5-93.27,0-14,.39-27.94.78-41.76s.79-27.95.79-42c0-10.83-.23-21.65-.89-32.33l0-.85-.57.64c-6.84,7.87-13.9,16.86-21.37,26.38-27.89,35.56-59.51,75.87-97.49,79.72-18.33,1.86-36.18-4.83-54.58-20.45-4.49-2-10.88-4.7-15.6-5.45a347.42,347.42,0,0,0-115.79,1.3c-2.52.46-5.8,1.9-10.62,4.25-29.63,14.41-59.34,12.43-90.82-6-27.87-16.36-53.67-43.24-78.63-69.25-20.55-21.4-40-41.63-59.71-55.39l-.78-.55.24.93c5.08,19.19,11.94,39.09,18.58,58.34,14.3,41.43,28.9,83.78,28.9,125.88,0,23-4.36,45.91-15.51,68.56-2.08,1.71-8.24,9.61-10.81,13.25a340.32,340.32,0,0,0-53.35,117.57c-.94,3.89-1.67,8.71-2.38,13.36-.85,5.54-1.65,10.78-2.66,13.5l0,.08v.07q.35,5.22.35,10.39c0,33.12-10.64,65.11-32.36,97.5-21.2,31.6-50,59.6-77.8,86.68-11.76,11.44-22.86,22.24-33.39,33.28l-.89.91L49.16,837c36.39-10.12,81.69-22.71,120.85-20.61,45.81,2.45,74,24.27,86.31,66.69l0,.08.05.05a126.94,126.94,0,0,1,10.33,14.34,342.57,342.57,0,0,0,112.45,81.31c5.13,2.3,12.56,5.11,18.53,7.37,4,1.49,7.39,2.79,9,3.5,60,45.24,66.08,119.62,67.63,194.29h.7c-1.55-74.85-7.65-149.42-68-194.89-1.68-.76-5.11-2.06-9.08-3.56-6-2.25-13.39-5.06-18.5-7.35a342.06,342.06,0,0,1-112.18-81.09A124.88,124.88,0,0,0,257,882.79C244.6,840.1,216.16,818.14,170,815.67,130.77,813.56,85.42,826.17,49,836.3L39.06,839c10.26-10.7,21-21.22,32.47-32.33,27.85-27.1,56.65-55.13,77.89-86.8,21.81-32.5,32.48-64.62,32.48-97.88q0-5.16-.34-10.37c1-2.82,1.82-8,2.67-13.56.71-4.65,1.44-9.44,2.36-13.3a339.87,339.87,0,0,1,53.24-117.33c3-4.18,8.91-11.72,10.75-13.17l.06-.06,0-.06c11.23-22.79,15.62-45.83,15.62-68.93,0-42.19-14.63-84.61-29-126.11-6.53-18.91-13.25-38.44-18.29-57.31,19.41,13.71,38.55,33.61,58.79,54.7,25,26,50.82,53,78.77,69.36,31.7,18.6,61.63,20.58,91.49,6.06,4.76-2.32,8-3.75,10.44-4.19a347.09,347.09,0,0,1,115.56-1.29c4.63.73,11,3.4,15.33,5.34,18.47,15.69,36.49,22.44,55,20.56,38.27-3.88,70-44.31,98-80,7.25-9.25,14.11-18,20.77-25.67.61,10.37.84,20.88.84,31.39,0,14.08-.39,28.18-.78,42s-.79,27.8-.79,41.79c0,31.52,2,63.16,10.55,93.53l0,.07.05.06c3.85,4.45,9.59,11.07,14.9,16.1Z"/><path class="cls-1" d="M788,851.45c-36.3,16.51-63.3,57.09-86.56,92l-10.81,16.1c-3.64,2.08-7.43,4.69-11.44,7.46A169.25,169.25,0,0,1,664,976.78c-7.45,4.05-15.63,7-23.55,9.84l-3.11,1.12C631,990,623.78,992.15,617.43,994l-8.07,2.42c-41.46,12.83-70.32,40.61-88.24,84.91-12.53,31-18.61,66.71-23.26,102.64h.71c4.65-35.85,10.71-71.48,23.21-102.38,17.82-44.09,46.54-71.73,87.79-84.5l8.06-2.41c6.36-1.88,13.57-4,19.91-6.3l3.11-1.13c7.94-2.86,16.15-5.8,23.65-9.88a171.41,171.41,0,0,0,15.29-9.77c4-2.78,7.83-5.41,11.47-7.48l.07,0L702,943.89c23.12-34.77,50-75.11,86-91.63Z"/><path class="cls-1" d="M788,450.18c-1.26-1.43-2.42-2.78-3.46-4-8.85-31.5-10.93-64.35-10.93-97.08,0-14.67.42-29.32.83-43.82s.83-29.33.83-44.11c0-11.21-.24-22.4-.91-33.45l-.05-.86-.57.65c-7.14,8.2-14.49,17.59-22.27,27.52-29.11,37.12-62.09,79.19-101.71,83.21-19.12,1.94-37.74-5-56.94-21.34-4.68-2.1-11.34-4.91-16.26-5.68a362.82,362.82,0,0,0-120.79,1.35c-2.62.48-6,2-11.07,4.43-30.92,15-61.92,13-94.76-6.31-29.08-17.07-56-45.12-82-72.26-21.44-22.35-41.68-43.45-62.28-57.81l-.79-.55.25.93c5.3,20,12.47,40.78,19.4,60.86,14.93,43.25,30.19,87.44,30.19,131.37,0,24-4.55,47.88-16.18,71.51-2.17,1.76-8.6,10-11.28,13.81a355,355,0,0,0-55.64,122.64c-1,4.07-1.75,9.09-2.49,13.94-.88,5.78-1.71,11.24-2.77,14.09l0,.07v.07q.36,5.45.36,10.86c0,34.55-11.1,67.93-33.76,101.71-22.13,33-52.15,62.17-81.19,90.42-12.26,11.93-23.84,23.19-34.83,34.7L16,848l12.84-3.56c38-10.58,85.25-23.74,126.12-21.57,47.81,2.54,77.27,25.29,90.07,69.56l0,.07.05.06a129.16,129.16,0,0,1,10.78,15,357.27,357.27,0,0,0,117.29,84.78c5.36,2.41,13.11,5.34,19.35,7.7,4.13,1.56,7.7,2.91,9.36,3.65,56.6,42.67,67.19,110.21,69.87,180.36h.7c-2.68-70.33-13.3-138.07-70.21-181-1.75-.79-5.33-2.14-9.47-3.7-6.23-2.35-14-5.27-19.31-7.68a356.54,356.54,0,0,1-117-84.57,129.93,129.93,0,0,0-10.76-14.93c-12.89-44.54-42.56-67.44-90.68-70-41-2.18-88.32,11-126.35,21.59L18.3,846.63c10.71-11.18,22-22.15,33.91-33.75,29.06-28.27,59.12-57.51,81.28-90.54,22.75-33.89,33.89-67.41,33.89-102.1q0-5.38-.36-10.83c1.06-2.93,1.9-8.38,2.78-14.15.74-4.85,1.5-9.85,2.47-13.88A354.39,354.39,0,0,1,227.8,459c3.09-4.37,9.3-12.23,11.22-13.74l.07-.05,0-.07c11.71-23.76,16.28-47.78,16.28-71.87,0-44-15.28-88.29-30.23-131.6-6.82-19.74-13.85-40.14-19.11-59.83,20.25,14.31,40.23,35.1,61.35,57.12,26.06,27.16,53,55.25,82.17,72.38,33.07,19.41,64.28,21.48,95.42,6.33,5-2.41,8.35-3.91,10.89-4.37a362.15,362.15,0,0,1,120.56-1.35c4.84.77,11.45,3.55,16,5.58,19.27,16.38,38.06,23.41,57.38,21.45,39.92-4,73-46.24,102.19-83.48,7.57-9.66,14.73-18.77,21.67-26.81.63,10.74.88,21.63.88,32.52,0,14.78-.42,29.57-.83,44.09s-.84,29.17-.84,43.85c0,32.8,2.09,65.73,11,97.33l0,.08.05,0c1.2,1.38,2.57,3,4,4.65Z"/><path class="cls-1" d="M788,865.59c-32.2,19.79-57.09,57.19-78.84,89.88L697.9,972.25c-3.81,2.17-7.76,4.9-11.95,7.79a175.59,175.59,0,0,1-15.88,10.14c-7.76,4.22-16.3,7.29-24.56,10.26l-3.26,1.17c-6.58,2.39-14.1,4.61-20.73,6.57l-8.41,2.52c-43.25,13.38-73.35,42.35-92,88.56-10.46,25.89-16.59,55-21.11,84.74h.71c4.51-29.71,10.64-58.67,21.06-84.47,18.58-46,48.54-74.84,91.58-88.16l8.4-2.52c6.64-2,14.17-4.18,20.77-6.57l3.25-1.17c8.29-3,16.86-6.06,24.67-10.3a178.71,178.71,0,0,0,15.94-10.2c4.2-2.9,8.17-5.63,12-7.79l.07,0,11.36-16.92c21.61-32.48,46.33-69.64,78.25-89.42Z"/><path class="cls-1" d="M0,854.26l8.55-2.37c39.56-11,88.8-24.78,131.38-22.54,49.82,2.63,80.51,26.32,93.84,72.42l0,.08.05.06a135.4,135.4,0,0,1,11.22,15.57,371.82,371.82,0,0,0,122.14,88.27c5.58,2.51,13.66,5.56,20.16,8,4.29,1.63,8,3,9.74,3.8,53.15,40.07,67.32,101.22,71.62,166.44h.7c-4.3-65.4-18.52-126.75-72-167-1.82-.82-5.54-2.23-9.85-3.85-6.48-2.46-14.55-5.5-20.11-8a370.85,370.85,0,0,1-121.87-88.06,135.3,135.3,0,0,0-11.2-15.54C221,855.12,190.09,831.29,140,828.65c-42.69-2.25-92,11.51-131.6,22.56L0,853.53Z"/><path class="cls-1" d="M0,851.67C10.43,840.89,21.37,830.25,32.89,819c30.28-29.44,61.58-59.88,84.67-94.28,23.69-35.29,35.29-70.18,35.29-106.3,0-3.76-.13-7.52-.37-11.3,1.11-3.06,2-8.73,2.89-14.74.77-5,1.57-10.26,2.57-14.46a369.13,369.13,0,0,1,57.83-127.47c3.22-4.54,9.69-12.74,11.69-14.31l.07-.05,0-.07c12.18-24.73,16.94-49.73,16.94-74.81,0-45.86-15.93-92-31.52-137.09-7.11-20.57-14.44-41.82-19.93-62.35C214.16,176.72,235,198.39,257,221.34c27.13,28.31,55.2,57.58,85.56,75.41,34.43,20.22,66.93,22.39,99.36,6.6,5.18-2.51,8.7-4.07,11.35-4.55a376.78,376.78,0,0,1,125.55-1.4c5,.8,11.92,3.69,16.66,5.81,20.06,17.05,39.63,24.38,59.74,22.34,41.57-4.22,76-48.18,106.4-87,7.89-10.07,15.34-19.58,22.58-28,.65,11.12.91,22.38.91,33.66,0,15.46-.45,31-.89,46.15s-.88,30.54-.88,45.9c0,23.45,1,47,4.68,70v-4.74c-3.08-21.55-4-43.45-4-65.31,0-15.35.45-30.7.88-45.87s.89-30.7.89-46.17c0-11.6-.25-23.18-.94-34.6l-.06-.86-.56.65c-7.43,8.55-15.08,18.32-23.18,28.67-30.31,38.67-64.65,82.52-105.92,86.7-19.91,2-39.31-5.25-59.3-22.23-4.86-2.18-11.8-5.11-16.92-5.91a376.79,376.79,0,0,0-125.79,1.4c-2.73.49-6.29,2.07-11.52,4.61-32.21,15.67-64.49,13.52-98.7-6.58-30.28-17.79-58.31-47-85.42-75.29-22.32-23.27-43.4-45.25-64.85-60.22l-.79-.55.25.93c5.53,20.84,13,42.47,20.22,63.38,15.57,45.05,31.48,91.1,31.48,136.86,0,25-4.73,49.85-16.84,74.45-2.25,1.82-8.95,10.42-11.75,14.38A369.46,369.46,0,0,0,157.26,577.8c-1,4.23-1.81,9.46-2.58,14.51-.92,6-1.79,11.71-2.89,14.67l0,.08v.07q.38,5.68.38,11.32c0,36-11.56,70.75-35.17,105.92-23,34.34-54.33,64.75-84.58,94.16C21.06,829.56,10.28,840,0,850.64Z"/><path class="cls-1" d="M788,881.43c-28.31,21.69-51,55.79-71.12,86l-11.72,17.46c-4,2.26-8.08,5.1-12.45,8.11a181.51,181.51,0,0,1-16.53,10.57c-8.09,4.4-17,7.59-25.58,10.68l-3.39,1.22c-6.86,2.49-14.69,4.8-21.59,6.83l-8.76,2.63c-45,13.93-76.38,44.1-95.81,92.23-8.37,20.71-14.07,43.36-18.4,66.82h.72c4.31-23.37,10-45.94,18.33-66.56,19.34-47.92,50.54-78,95.37-91.82l8.75-2.62c6.91-2,14.75-4.36,21.63-6.85l3.38-1.22c8.63-3.09,17.55-6.3,25.69-10.71a187.56,187.56,0,0,0,16.6-10.62c4.37-3,8.51-5.87,12.46-8.12l.07,0,11.82-17.61c20-30,42.49-63.86,70.53-85.5Z"/><path class="cls-1" d="M0,856.07c38.88-10.75,84.74-22.32,124.89-20.23,51.82,2.71,83.75,27.34,97.6,75.29l0,.08,0,0a140.79,140.79,0,0,1,11.68,16.2,386.45,386.45,0,0,0,127,91.75c5.81,2.6,14.21,5.79,21,8.33,4.46,1.69,8.32,3.14,10.12,3.94C441.94,1068.91,458.87,1124,465,1184h.71c-6.16-60.17-23.15-115.49-73.08-153.12-1.88-.85-5.75-2.31-10.22-4-6.75-2.54-15.14-5.71-20.93-8.31A386,386,0,0,1,234.79,927a140.49,140.49,0,0,0-11.64-16.16c-14-48.24-46.09-73-98.23-75.73C84.73,833,38.89,844.59,0,855.33Z"/><path class="cls-1" d="M0,838.44q6.66-6.53,13.57-13.24c31.49-30.6,64.05-62.25,88.06-98,24.64-36.7,36.7-73,36.7-110.52q0-5.86-.4-11.77c1.16-3.16,2.06-9.07,3-15.32.8-5.25,1.63-10.67,2.68-15A383.56,383.56,0,0,1,203.75,442c3.34-4.72,10.07-13.25,12.15-14.89l.06,0,0-.07c12.66-25.7,17.61-51.68,17.61-77.74,0-47.7-16.59-95.66-32.81-142.59-7.41-21.41-15-43.52-20.76-64.87,22,15.51,43.61,38.06,66.5,61.94,28.22,29.45,57.39,59.89,89,78.44,35.8,21,69.58,23.29,103.3,6.88,5.39-2.63,9-4.24,11.8-4.74a391.41,391.41,0,0,1,130.54-1.45c5.25.82,12.4,3.84,17.33,6,20.86,17.73,41.2,25.36,62.1,23.23,43.21-4.39,79-50.12,110.61-90.47,5.81-7.41,11.39-14.54,16.82-21.15v-1.13c-5.61,6.82-11.37,14.18-17.37,21.85-31.51,40.24-67.22,85.84-110.13,90.2-20.7,2.1-40.87-5.46-61.66-23.12-5.05-2.26-12.26-5.31-17.59-6.15a392.51,392.51,0,0,0-130.78,1.46c-2.83.51-6.54,2.14-12,4.79-33.49,16.3-67.06,14.06-102.63-6.85-31.49-18.5-60.63-48.91-88.81-78.31-23.21-24.21-45.12-47.08-67.42-62.64l-.79-.55.25.93c5.74,21.68,13.52,44.16,21,65.9,16.2,46.86,32.77,94.76,32.77,142.36,0,25.95-4.93,51.81-17.51,77.37-2.34,1.9-9.3,10.84-12.22,15a384.3,384.3,0,0,0-60.24,132.79c-1.05,4.4-1.88,9.84-2.68,15.09-1,6.27-1.86,12.17-3,15.26l0,.07v.07q.39,5.93.39,11.79c0,37.42-12,73.56-36.57,110.13-24,35.71-56.5,67.33-88,97.91Q6.42,831.18,0,837.45Z"/><path class="cls-1" d="M788,898.82c-24.63,22.34-45,53-63.4,80.62l-12.18,18.14c-4.11,2.35-8.4,5.31-12.93,8.43a192.68,192.68,0,0,1-17.2,11c-8.42,4.57-17.66,7.89-26.61,11.1l-3.52,1.27c-7.13,2.58-15.26,5-22.44,7.1l-9.12,2.72c-46.83,14.48-79.41,45.85-99.59,95.9a321.25,321.25,0,0,0-14.9,48.91h.72a319.33,319.33,0,0,1,14.83-48.65c20.1-49.84,52.54-81.07,99.15-95.48l9.11-2.73c7.18-2.12,15.33-4.52,22.48-7.11l3.52-1.27c9-3.21,18.24-6.55,26.7-11.14a195.86,195.86,0,0,0,17.27-11c4.54-3.14,8.84-6.11,13-8.44l.07,0,12.27-18.29c18.16-27.3,38.54-57.92,62.81-80.14Z"/><path class="cls-1" d="M0,858c35.59-9.3,74.81-17.51,109.85-15.69,53.82,2.79,87,28.35,101.37,78.15l0,.07,0,.05a148.77,148.77,0,0,1,12.12,16.82,401.15,401.15,0,0,0,131.82,95.24c6,2.71,14.75,6,21.76,8.64,4.64,1.75,8.64,3.27,10.51,4.1,46,34.71,65,84.07,73,138.59h.71c-8.08-54.72-27.08-104.29-73.38-139.2-2-.87-6-2.39-10.62-4.14-7-2.64-15.72-5.93-21.72-8.63A400.42,400.42,0,0,1,224,937a147.28,147.28,0,0,0-12.1-16.78c-14.49-50.07-47.85-75.78-102-78.59C74.81,839.82,35.59,848,0,857.3Z"/><path class="cls-1" d="M0,825.78c30.88-30,62.22-61.21,85.7-96.18,25.58-38.08,38.1-75.74,38.1-114.72q0-6.09-.41-12.23c1.2-3.29,2.14-9.42,3.13-15.91.83-5.45,1.68-11.07,2.77-15.61a398.29,398.29,0,0,1,62.43-137.62c3.48-4.91,10.46-13.75,12.62-15.45l.06-.05,0-.08c13.13-26.66,18.27-53.62,18.27-80.66,0-49.55-17.24-99.36-34.1-148.09C180.91,166.94,173,144,167,121.79c22.81,16.12,45.28,39.54,69.06,64.36,29.3,30.57,59.59,62.19,92.36,81.46,37.16,21.84,72.23,24.19,107.24,7.15,5.59-2.73,9.39-4.4,12.25-4.92a406.47,406.47,0,0,1,135.54-1.51c5.44.86,12.87,4,18,6.27C623.14,293,644.25,300.93,666,298.73c44.85-4.55,82-52.06,114.81-94,2.45-3.13,4.86-6.22,7.24-9.23V194.4c-2.56,3.24-5.15,6.56-7.79,9.93-32.71,41.8-69.78,89.18-114.34,93.7-21.49,2.18-42.43-5.67-64-24-5.24-2.35-12.73-5.51-18.25-6.38a407.19,407.19,0,0,0-135.78,1.51c-2.93.53-6.78,2.22-12.43,5-34.77,16.93-69.63,14.6-106.57-7.12-32.69-19.22-62.95-50.79-92.21-81.34-24.09-25.14-46.84-48.89-70-65l-.79-.56.25.94c6,22.5,14,45.84,21.86,68.41C204.79,238.08,222,287.82,222,337.27c0,26.92-5.11,53.77-18.17,80.3-2.43,2-9.66,11.26-12.68,15.53A398.89,398.89,0,0,0,128.61,571c-1.1,4.56-2,10.21-2.79,15.66-1,6.5-1.93,12.65-3.11,15.85l0,.07v.07q.41,6.15.41,12.26c0,38.84-12.49,76.36-38,114.34C61.81,763.93,30.69,794.92,0,824.8Z"/><path class="cls-1" d="M788,917.58c-21.12,21.89-39.2,49.07-55.67,73.83,0,0-12.56,18.71-12.64,18.84-4.28,2.43-8.73,5.5-13.44,8.75a198.65,198.65,0,0,1-17.86,11.41c-8.73,4.74-18.33,8.19-27.62,11.52l-3.65,1.32c-7.41,2.67-15.85,5.17-23.3,7.36l-9.47,2.83c-48.62,15-82.44,47.59-103.38,99.55a298.52,298.52,0,0,0-10.45,31h.73a295.72,295.72,0,0,1,10.37-30.74c20.86-51.75,54.53-84.19,102.94-99.15l9.46-2.83c7.46-2.2,15.91-4.69,23.33-7.38l3.66-1.31c9.31-3.34,18.94-6.8,27.72-11.56a201.62,201.62,0,0,0,17.92-11.45c4.73-3.27,9.19-6.35,13.46-8.77l.07,0,12.73-19c16.28-24.47,34.26-51.51,55.09-73.29Z"/><path class="cls-1" d="M0,860.36c31.5-7.47,64.65-13.07,94.81-11.53,55.83,2.87,90.22,29.37,105.13,81l0,.06.05.06a153.06,153.06,0,0,1,12.56,17.44,415.88,415.88,0,0,0,136.66,98.72c6.25,2.8,15.31,6.22,22.58,9,4.81,1.81,8.95,3.37,10.88,4.23,42.32,31.9,62.54,75.74,72.39,124.67h.72c-9.88-49.13-30.18-93.18-72.75-125.27-2-.91-6.17-2.48-11-4.3-7.26-2.73-16.31-6.14-22.54-8.94A415.33,415.33,0,0,1,213.14,947a151.92,151.92,0,0,0-12.54-17.4C185.58,877.66,151,851,94.85,848.13c-30.2-1.55-63.35,4-94.85,11.51Z"/><path class="cls-1" d="M0,813c25.53-25.41,50.27-51.92,69.77-81,26.52-39.49,39.51-78.52,39.51-118.94,0-4.22-.15-8.44-.43-12.69,1.24-3.41,2.21-9.77,3.24-16.5.86-5.65,1.75-11.48,2.88-16.18A412.78,412.78,0,0,1,179.69,425c3.61-5.09,10.85-14.27,13.09-16l.07-.05,0-.08c13.61-27.63,18.93-55.58,18.93-83.6,0-51.38-17.88-103-35.39-153.58-8-23.07-16.22-46.9-22.38-69.91,23.65,16.72,47,41,71.62,66.77C256,200.26,287.44,233.06,321.43,253c38.51,22.66,74.88,25.08,111.16,7.42,5.8-2.82,9.74-4.56,12.71-5.1a421.15,421.15,0,0,1,140.54-1.56c5.64.89,13.35,4.14,18.65,6.51,22.45,19.1,44.34,27.3,66.83,25,45.43-4.62,83.26-51.76,116.68-94.47v-1.14c-33.47,42.78-71.36,90.3-116.76,94.91-22.28,2.27-44-5.88-66.38-24.9-5.42-2.44-13.19-5.71-18.91-6.62a422.58,422.58,0,0,0-140.78,1.56c-3,.56-7,2.32-12.88,5.16-36.06,17.56-72.21,15.14-110.51-7.38-33.89-19.94-65.26-52.7-95.61-84.37-25-26.08-48.56-50.71-72.56-67.47l-.79-.55.25.93c6.21,23.33,14.58,47.53,22.69,70.93C193.24,222.4,211.1,274,211.1,325.27c0,27.92-5.29,55.74-18.83,83.24-2.51,2-10,11.67-13.15,16.1a413.6,413.6,0,0,0-64.83,142.94c-1.14,4.73-2,10.59-2.9,16.25-1,6.74-2,13.1-3.22,16.42l0,.07v.08q.44,6.39.43,12.72c0,40.27-12.95,79.19-39.38,118.54C49.85,760.43,25.33,786.76,0,812Z"/><path class="cls-1" d="M788,937.53c-17.79,20.51-33.47,44.08-48,65.86,0,0-13,19.39-13.1,19.52-4.43,2.52-9.05,5.7-13.93,9.08a206,206,0,0,1-18.52,11.82c-9,4.91-19,8.49-28.64,11.94l-3.79,1.37c-7.68,2.78-16.43,5.36-24.15,7.64l-9.82,2.93c-50.41,15.57-85.47,49.33-107.17,103.22q-2.59,6.43-4.89,13.09h.74q2.26-6.51,4.8-12.83c21.62-53.67,56.53-87.31,106.73-102.81l9.81-2.93c7.73-2.28,16.49-4.87,24.19-7.65l3.79-1.36c9.65-3.47,19.64-7.05,28.74-12a208.2,208.2,0,0,0,18.58-11.87c4.9-3.38,9.52-6.58,14-9.08l.07,0,13.19-19.66c14.28-21.47,29.84-44.85,47.37-65.22Z"/><path class="cls-1" d="M0,863.2c26.92-5.56,54.37-9.17,79.77-7.87,57.83,2.94,93.45,30.38,108.9,83.87l0,.07.05.06a158.11,158.11,0,0,1,13,18,430.72,430.72,0,0,0,141.51,102.21c6.47,2.9,15.85,6.44,23.39,9.28,5,1.88,9.25,3.49,11.26,4.38,38.45,29,59.28,67.51,70.69,110.75h.73c-11.45-43.45-32.37-82.17-71.07-111.35-2.09-.94-6.39-2.55-11.37-4.44-7.52-2.84-16.89-6.36-23.34-9.26A430.1,430.1,0,0,1,202.31,957a157,157,0,0,0-13-18C173.77,885.17,138,857.59,79.81,854.62c-25.43-1.3-52.89,2.3-79.81,7.86Z"/><path class="cls-1" d="M0,799.55c19.75-20.61,38.38-42.09,53.84-65.1,27.46-40.88,40.91-81.3,40.91-123.14q0-6.55-.44-13.17c1.28-3.52,2.29-10.11,3.35-17.08.89-5.85,1.81-11.89,3-16.76a427.45,427.45,0,0,1,67-147.77c3.72-5.27,11.23-14.77,13.55-16.6l.07-.05,0-.06c14.09-28.61,19.59-57.54,19.59-86.55,0-53.22-18.53-106.72-36.67-159.08C156,130.3,147.42,105.61,141,81.78c24.51,17.3,48.65,42.49,74.2,69.17,31.45,32.85,64,66.82,99.16,87.52,39.88,23.47,77.53,26,115.1,7.69,6-2.92,10.09-4.72,13.16-5.28a436.16,436.16,0,0,1,145.53-1.62c5.85.93,13.83,4.29,19.32,6.75,23.25,19.78,45.91,28.27,69.19,25.9,42.78-4.35,79.06-45.15,111.31-85.78V185c-32.3,40.75-68.63,81.86-111.38,86.22-23.08,2.34-45.57-6.1-68.75-25.81-5.61-2.52-13.65-5.9-19.58-6.84a436.82,436.82,0,0,0-145.76,1.62c-3.16.57-7.28,2.39-13.34,5.34-37.35,18.18-74.78,15.67-114.45-7.66-35.1-20.66-67.59-54.59-99-87.4-25.86-27-50.28-52.51-75.13-69.88l-.79-.55.25.93c6.43,24.16,15.11,49.22,23.5,73.46,18.12,52.29,36.64,105.72,36.64,158.84,0,28.91-5.49,57.71-19.5,86.18-2.6,2.1-10.37,12.08-13.62,16.68a428.39,428.39,0,0,0-67.13,148c-1.18,4.9-2.1,11-3,16.83-1.07,7-2.07,13.57-3.35,17l0,.07v.08q.45,6.61.45,13.19c0,41.7-13.42,82-40.79,122.75C38,756.83,19.54,778.11,0,798.53Z"/><path class="cls-1" d="M788,958.52c-14.61,18.33-27.84,38.23-40.23,56.86l-13.56,20.2c-4.59,2.6-9.37,5.9-14.43,9.4a210.91,210.91,0,0,1-19.17,12.23c-9.38,5.1-19.69,8.8-29.66,12.37L667,1071c-7.95,2.87-17,5.55-25,7.9l-10.16,3c-50.68,15.64-86.37,49.06-109,102.06h.76c22.52-52.64,58-85.84,108.41-101.39l10.15-3c8-2.36,17.08-5,25-7.91l3.93-1.42c10-3.58,20.33-7.29,29.76-12.4a213.2,213.2,0,0,0,19.23-12.29c5.07-3.5,9.87-6.81,14.45-9.41l.08,0,13.64-20.34c12.19-18.32,25.27-38,39.65-56.13Z"/><path class="cls-1" d="M0,866.62c22-3.75,44-5.85,64.74-4.8,59.83,3,96.68,31.41,112.66,86.74l0,.07.05,0a163.47,163.47,0,0,1,13.45,18.68A445.28,445.28,0,0,0,337.27,1073c6.69,3,16.4,6.67,24.2,9.61,5.13,1.94,9.57,3.61,11.64,4.53,34.44,26,55.2,59.3,67.81,96.82h.74c-12.65-37.73-33.52-71.28-68.2-97.42-2.15-1-6.6-2.65-11.74-4.59-7.79-2.94-17.49-6.59-24.16-9.59A444.7,444.7,0,0,1,191.48,966.94a161.61,161.61,0,0,0-13.43-18.65C162,892.68,124.91,864.16,64.77,861.12c-20.72-1-42.74,1-64.77,4.79Z"/><path class="cls-1" d="M0,785a448.32,448.32,0,0,0,37.91-48.14c28.4-42.28,42.32-84.08,42.32-127.35q0-6.79-.46-13.63c1.33-3.64,2.37-10.46,3.47-17.67.92-6.05,1.87-12.3,3.08-17.34A442.16,442.16,0,0,1,155.64,408c3.86-5.45,11.62-15.28,14-17.16l.06-.05,0-.08C184.32,361.18,190,331.27,190,301.27c0-55-19.19-110.4-38-164.57-8.57-24.72-17.42-50.28-24-74.95,25.36,17.92,50.35,44,76.78,71.61,32.53,34,66.17,69.12,102.56,90.55,41.24,24.27,80.18,26.87,119,8,6.21-3,10.43-4.89,13.61-5.46a450.84,450.84,0,0,1,150.53-1.67c6,1,14.3,4.44,20,7,24,20.45,47.48,29.24,71.55,26.79C722.3,254.41,757,219.13,788,181.15V180c-31.08,38.12-65.8,73.67-106,77.76-23.87,2.43-47.13-6.3-71.1-26.68-5.81-2.61-14.12-6.12-20.25-7.08a451.51,451.51,0,0,0-150.76,1.67c-3.26.59-7.53,2.47-13.8,5.52-38.63,18.81-77.35,16.21-118.37-7.93-36.31-21.37-69.91-56.47-102.41-90.43-26.74-27.94-52-54.33-77.7-72.29l-.79-.55.25.93c6.65,25,15.64,50.91,24.33,76,18.75,54.1,37.92,109.39,37.92,164.34,0,29.89-5.67,59.67-20.16,89.11-2.68,2.18-10.72,12.5-14.08,17.25A442.89,442.89,0,0,0,85.63,560.72c-1.21,5.07-2.17,11.33-3.09,17.4-1.1,7.21-2.14,14-3.46,17.6l0,.07v.07q.47,6.85.46,13.65c0,43.14-13.87,84.81-42.2,127A444.5,444.5,0,0,1,0,784Z"/><path class="cls-1" d="M788,980.37c-11.57,15.51-22.31,31.66-32.51,47,0,0-13.93,20.76-14,20.89-4.76,2.69-9.7,6.11-14.93,9.72a219.78,219.78,0,0,1-19.83,12.66c-9.7,5.27-20.36,9.1-30.67,12.79l-4.07,1.46c-8.22,3-17.6,5.73-25.87,8.17l-10.51,3.14c-46.52,14.37-80.83,43.2-104.28,87.82h.79c23.37-44.27,57.48-72.88,103.69-87.14l10.51-3.15c8.28-2.43,17.67-5.19,25.91-8.18l4.07-1.46c10.33-3.7,21-7.54,30.77-12.83a222.74,222.74,0,0,0,19.89-12.7c5.24-3.63,10.2-7,14.95-9.74l.07,0,14.11-21c10-15,20.56-30.92,31.92-46.21Z"/><path class="cls-1" d="M0,870.71a280.14,280.14,0,0,1,49.7-2.39c61.83,3.11,99.92,32.41,116.42,89.59l0,.08.05,0a170.1,170.1,0,0,1,13.91,19.29,459.9,459.9,0,0,0,151.19,109.18c6.91,3.1,16.94,6.88,25,9.92,5.31,2,9.9,3.72,12,4.68,30.24,22.79,50.28,51.1,63.61,82.89h.76c-13.39-32-33.54-60.53-64-83.5-2.23-1-6.82-2.73-12.14-4.73-8-3-18.06-6.82-24.95-9.91A459.26,459.26,0,0,1,180.66,976.91a168.23,168.23,0,0,0-13.89-19.26c-16.61-57.46-54.89-86.91-117-90A280.43,280.43,0,0,0,0,870Z"/><path class="cls-1" d="M0,768.87c7.8-9.61,15.18-19.46,22-29.58C51.32,695.62,65.7,652.44,65.7,607.74q0-7-.47-14.11c1.37-3.76,2.44-10.79,3.58-18.25,1-6.25,1.93-12.71,3.19-17.91a456.65,456.65,0,0,1,71.61-157.92c4-5.63,12-15.78,14.49-17.73l.06-.06,0-.07c15-30.54,20.92-61.43,20.92-92.41,0-56.9-19.84-114.1-39.25-170.07-8.87-25.56-18-52-24.86-77.46,26.21,18.51,52,45.46,79.35,74,33.6,35.13,68.35,71.44,106,93.58,42.61,25.08,82.83,27.78,123,8.23,6.42-3.13,10.78-5.06,14.06-5.65a466.61,466.61,0,0,1,155.53-1.73c6.24,1,14.77,4.59,20.64,7.21,24.84,21.15,49.05,30.22,73.91,27.69,37.78-3.85,70.8-34.31,100.57-69.29v-1.08c-29.82,35.13-62.88,65.83-100.64,69.67-24.67,2.51-48.7-6.51-73.46-27.58-6-2.69-14.58-6.31-20.92-7.31a466.84,466.84,0,0,0-155.75,1.72c-3.37.61-7.78,2.56-14.25,5.71-39.92,19.44-79.92,16.76-122.32-8.21-37.51-22.08-72.23-58.36-105.79-93.44-27.63-28.87-53.72-56.14-80.27-74.71l-.79-.55.24.93c6.88,25.82,16.17,52.6,25.15,78.5,19.4,55.9,39.21,113,39.21,169.83,0,30.87-5.86,61.63-20.81,92.05-2.78,2.23-11.09,12.91-14.56,17.81A457.5,457.5,0,0,0,71.31,557.3c-1.26,5.24-2.24,11.71-3.2,18-1.14,7.46-2.21,14.5-3.57,18.18l0,.07v.08q.48,7.08.48,14.12c0,44.56-14.34,87.61-43.6,131.17C14.77,748.77,7.59,758.37,0,767.76Z"/><path class="cls-1" d="M788,1002.89c-8.66,12.2-16.88,24.56-24.79,36.44,0,0-14.39,21.44-14.47,21.57-4.91,2.79-10,6.31-15.43,10A231.49,231.49,0,0,1,712.83,1084c-10,5.44-21,9.39-31.69,13.21l-4.21,1.51c-8.49,3.07-18.18,5.92-26.73,8.44l-10.86,3.24c-41.81,12.9-74.07,37.12-97.7,73.57h.84c23.53-36.09,55.57-60.09,97.07-72.9l10.85-3.24c8.56-2.52,18.26-5.37,26.77-8.45l4.2-1.51c10.68-3.83,21.72-7.79,31.79-13.25a230.94,230.94,0,0,0,20.55-13.12c5.43-3.75,10.55-7.28,15.45-10.07l.07,0,14.57-21.71c7.7-11.58,15.74-23.66,24.2-35.62Z"/><path class="cls-1" d="M0,875.51a265.79,265.79,0,0,1,34.66-.71c63.84,3.2,103.15,33.44,120.18,92.47l0,.07,0,.06a174.4,174.4,0,0,1,14.35,19.91A474.81,474.81,0,0,0,325.3,1100c7.14,3.2,17.49,7.1,25.81,10.23,5.47,2.06,10.2,3.85,12.4,4.83a199.07,199.07,0,0,1,57.92,69h.78a199.93,199.93,0,0,0-58.34-69.57c-2.29-1-7-2.82-12.51-4.88-8.31-3.13-18.65-7-25.77-10.23A474,474,0,0,1,169.83,986.88,175.2,175.2,0,0,0,155.5,967c-17.14-59.3-56.66-89.68-120.81-92.9A262.77,262.77,0,0,0,0,874.81Z"/><path class="cls-1" d="M0,750.44q3.09-4.32,6.05-8.72c30.29-45.07,45.12-89.64,45.12-135.78q0-7.25-.49-14.56c1.42-3.89,2.53-11.15,3.7-18.84,1-6.45,2-13.12,3.29-18.49a471.14,471.14,0,0,1,73.92-163c4.11-5.81,12.39-16.3,14.95-18.31l.06-.05,0-.07c15.52-31.52,21.59-63.38,21.59-95.35,0-58.73-20.5-117.78-40.55-175.56-9.16-26.39-18.61-53.66-25.68-80,27.06,19.12,53.71,47,81.92,76.43,34.68,36.26,70.54,73.75,109.35,96.61,44,25.89,85.49,28.67,126.92,8.5,6.62-3.23,11.12-5.22,14.51-5.84a481.57,481.57,0,0,1,160.52-1.77c6.45,1,15.26,4.73,21.32,7.44,25.63,21.83,50.6,31.19,76.26,28.58,35.39-3.6,66.74-29.85,95.2-61.67V169c-28.51,32-59.89,58.43-95.27,62-25.46,2.6-50.26-6.72-75.82-28.46-6.18-2.78-15-6.52-21.58-7.55a481.52,481.52,0,0,0-160.75,1.77c-3.47.63-8,2.64-14.7,5.89-41.2,20.07-82.5,17.29-126.26-8.48-38.71-22.79-74.54-60.25-109.19-96.47-28.51-29.8-55.44-58-82.84-77.12L100.8,20l.25.93c7.1,26.64,16.69,54.29,26,81,20,57.72,40.5,116.71,40.5,175.33,0,31.86-6.05,63.61-21.48,95-2.86,2.3-11.44,13.33-15,18.39A472.3,472.3,0,0,0,57,553.89c-1.29,5.4-2.31,12.08-3.3,18.55-1.17,7.69-2.28,15-3.68,18.77l0,.07v.08c.32,4.88.49,9.73.49,14.58,0,46-14.8,90.43-45,135.38q-2.67,4-5.46,7.91Z"/><path class="cls-1" d="M788,1025.92c-5.87,8.55-11.54,17.09-17.06,25.39,0,0-14.85,22.13-14.94,22.25-5.06,2.89-10.33,6.52-15.92,10.37a236.7,236.7,0,0,1-21.14,13.51c-10.35,5.61-21.73,9.69-32.72,13.62l-4.34,1.56c-8.76,3.17-18.75,6.11-27.57,8.71l-11.22,3.35c-36.46,11.25-65.87,30.83-88.83,59.32h.91c22.82-28.14,52-47.51,88.13-58.65l11.21-3.35c8.83-2.6,18.83-5.53,27.61-8.71l4.34-1.56c11-4,22.42-8,32.81-13.68a235.3,235.3,0,0,0,21.21-13.54c5.6-3.86,10.89-7.51,15.94-10.38l.07,0,15-22.39c5.33-8,10.81-16.26,16.48-24.54Z"/><path class="cls-1" d="M0,881.13q9.95-.3,19.62.17c65.84,3.28,106.39,34.46,124,95.33l0,.07,0,0a179.77,179.77,0,0,1,14.8,20.54,489.31,489.31,0,0,0,160.88,116.13c7.36,3.3,18,7.33,26.62,10.56,5.63,2.12,10.5,4,12.78,5a203.88,203.88,0,0,1,50.57,55h.82a204.81,204.81,0,0,0-51-55.65c-2.36-1.06-7.24-2.9-12.89-5-8.57-3.23-19.23-7.25-26.57-10.54A488.61,488.61,0,0,1,159,996.85a178.14,178.14,0,0,0-14.78-20.49c-17.67-61.15-58.41-92.47-124.56-95.76-6.45-.33-13-.37-19.66-.18Z"/><path class="cls-1" d="M0,728.56c24.58-41.19,36.65-82.16,36.65-124.4,0-5-.17-10-.51-15,1.46-4,2.6-11.49,3.81-19.43,1-6.65,2.06-13.53,3.39-19.06a486,486,0,0,1,76.22-168.07c4.25-6,12.78-16.8,15.42-18.88l.06,0,0-.08c16-32.48,22.25-65.34,22.25-98.28,0-60.57-21.14-121.47-41.83-181.06C106.05,57,96.29,28.88,89,1.73,116.81,21.37,144,49.4,172.66,79.09c35.42,36.62,72.05,74.5,112,98C330,203.77,373.32,207.65,417.07,189c5.95-3.28,11-5.3,15-6a495.92,495.92,0,0,1,165.52-1.83c6.65,1.05,15.73,4.88,22,7.67C646,211.31,671.72,221,698.17,218.27c33.07-3.37,62.72-25.92,89.83-54.56v-1c-27.15,28.79-56.83,51.51-89.9,54.89-26.25,2.66-51.82-6.94-78.18-29.37-6.37-2.85-15.51-6.72-22.24-7.78a497.35,497.35,0,0,0-165.76,1.83c-4.07.74-9.17,2.79-15.16,6.09-43.5,18.56-86.58,14.69-131.69-11.84-39.92-23.48-76.51-61.32-111.9-97.9-29-30-56.43-58.35-84.58-78.06L87.8,0,88,.93c7.33,27.47,17.23,56,26.79,83.53C135.5,144,156.62,204.82,156.62,265.29c0,32.83-6.23,65.56-22.15,97.91-2.94,2.38-11.79,13.74-15.48,19A486.58,486.58,0,0,0,42.66,550.47c-1.34,5.57-2.39,12.46-3.4,19.13C38.05,577.54,36.9,585,35.46,589l0,.08v.07q.5,7.56.5,15c0,41.78-11.83,82.3-35.94,123Z"/><path class="cls-1" d="M788,1049.42c-3.57,5.29-7.07,10.53-10.51,15.67,0,0-14.14,21-14.22,21.14-7,4-14.53,9-22.51,14.32-5.13,3.42-10.44,7-15.74,10.3-12.42,5.71-25.27,11-38.18,15.65-7.31,2.64-15.33,5-23.08,7.24-6.09,1.78-11.83,3.46-16.93,5.18-31.4,8.75-57.74,23.67-79.37,45.08h1c21.45-21.06,47.52-35.76,78.56-44.4,5.11-1.73,10.84-3.4,16.92-5.18,7.76-2.27,15.79-4.61,23.12-7.25,12.92-4.67,25.8-10,38.28-15.7,5.35-3.37,10.65-6.91,15.79-10.33,8-5.34,15.56-10.39,22.54-14.35l.07,0,14.32-21.28c3.25-4.86,6.55-9.81,9.92-14.8Z"/></svg>