<svg id="Layer_1" data-name="Layer 1" xmlns="http://www.w3.org/2000/svg" viewBox="0 0 776.36 1405.99"><defs><style>.cls-1{opacity:0.2;}</style></defs><g class="cls-1"><path d="M4.93,37.24A4.93,4.93,0,1,0,0,32.31,4.93,4.93,0,0,0,4.93,37.24Z"/><path d="M32.3,37.24a4.93,4.93,0,1,0-4.92-4.93A4.94,4.94,0,0,0,32.3,37.24Z"/><path d="M59.68,37.24a4.93,4.93,0,1,0-4.93-4.93A4.93,4.93,0,0,0,59.68,37.24Z"/><path d="M87.05,37.24a4.93,4.93,0,1,0-4.93-4.93A4.94,4.94,0,0,0,87.05,37.24Z"/><path d="M114.43,37.24a4.93,4.93,0,1,0-4.93-4.93A4.93,4.93,0,0,0,114.43,37.24Z"/><path d="M141.8,37.24a4.93,4.93,0,1,0-4.92-4.93A4.94,4.94,0,0,0,141.8,37.24Z"/><path d="M4.93,64.62A4.94,4.94,0,1,0,0,59.68,4.94,4.94,0,0,0,4.93,64.62Z"/><path d="M32.3,64.62a4.94,4.94,0,1,0-4.92-4.94A4.94,4.94,0,0,0,32.3,64.62Z"/><path d="M59.68,64.62a4.94,4.94,0,1,0-4.93-4.94A4.94,4.94,0,0,0,59.68,64.62Z"/><path d="M87.05,64.62a4.94,4.94,0,1,0-4.93-4.94A4.94,4.94,0,0,0,87.05,64.62Z"/><path d="M114.43,64.62a4.94,4.94,0,1,0-4.93-4.94A4.94,4.94,0,0,0,114.43,64.62Z"/><path d="M141.8,64.62a4.94,4.94,0,1,0-4.92-4.94A4.94,4.94,0,0,0,141.8,64.62Z"/><path d="M4.93,92A4.94,4.94,0,1,0,0,87.06,4.93,4.93,0,0,0,4.93,92Z"/><path d="M32.3,92a4.94,4.94,0,1,0-4.92-4.93A4.94,4.94,0,0,0,32.3,92Z"/><path d="M59.68,92a4.94,4.94,0,1,0-4.93-4.93A4.93,4.93,0,0,0,59.68,92Z"/><path d="M87.05,92a4.94,4.94,0,1,0-4.93-4.93A4.94,4.94,0,0,0,87.05,92Z"/><path d="M114.43,92a4.94,4.94,0,1,0-4.93-4.93A4.93,4.93,0,0,0,114.43,92Z"/><path d="M141.8,92a4.94,4.94,0,1,0-4.92-4.93A4.94,4.94,0,0,0,141.8,92Z"/><path d="M169.18,92a4.94,4.94,0,1,0-4.93-4.93A4.93,4.93,0,0,0,169.18,92Z"/><path d="M4.93,119.37A4.94,4.94,0,1,0,0,114.43,4.94,4.94,0,0,0,4.93,119.37Z"/><path d="M32.3,119.37a4.94,4.94,0,1,0-4.92-4.94A4.94,4.94,0,0,0,32.3,119.37Z"/><path d="M59.68,119.37a4.94,4.94,0,1,0-4.93-4.94A4.94,4.94,0,0,0,59.68,119.37Z"/><path d="M87.05,119.37a4.94,4.94,0,1,0-4.93-4.94A4.94,4.94,0,0,0,87.05,119.37Z"/><path d="M114.43,119.37a4.94,4.94,0,1,0-4.93-4.94A4.94,4.94,0,0,0,114.43,119.37Z"/><path d="M141.8,119.37a4.94,4.94,0,1,0-4.92-4.94A4.94,4.94,0,0,0,141.8,119.37Z"/><path d="M169.18,119.37a4.94,4.94,0,1,0-4.93-4.94A4.94,4.94,0,0,0,169.18,119.37Z"/><path d="M196.55,119.37a4.94,4.94,0,1,0-4.93-4.94A4.94,4.94,0,0,0,196.55,119.37Z"/><path d="M4.93,146.74A4.93,4.93,0,1,0,0,141.81,4.93,4.93,0,0,0,4.93,146.74Z"/><path d="M32.3,146.74a4.93,4.93,0,1,0-4.92-4.93A4.94,4.94,0,0,0,32.3,146.74Z"/><path d="M59.68,146.74a4.93,4.93,0,1,0-4.93-4.93A4.93,4.93,0,0,0,59.68,146.74Z"/><path d="M87.05,146.74a4.93,4.93,0,1,0-4.93-4.93A4.94,4.94,0,0,0,87.05,146.74Z"/><path d="M114.43,146.74a4.93,4.93,0,1,0-4.93-4.93A4.93,4.93,0,0,0,114.43,146.74Z"/><path d="M141.8,146.74a4.93,4.93,0,1,0-4.92-4.93A4.94,4.94,0,0,0,141.8,146.74Z"/><path d="M169.18,146.74a4.93,4.93,0,1,0-4.93-4.93A4.93,4.93,0,0,0,169.18,146.74Z"/><path d="M196.55,146.74a4.93,4.93,0,1,0-4.93-4.93A4.94,4.94,0,0,0,196.55,146.74Z"/><path d="M4.93,174.12A4.94,4.94,0,1,0,0,169.18,4.94,4.94,0,0,0,4.93,174.12Z"/><path d="M32.3,174.12a4.94,4.94,0,1,0-4.92-4.94A4.94,4.94,0,0,0,32.3,174.12Z"/><path d="M59.68,174.12a4.94,4.94,0,1,0-4.93-4.94A4.94,4.94,0,0,0,59.68,174.12Z"/><path d="M87.05,174.12a4.94,4.94,0,1,0-4.93-4.94A4.94,4.94,0,0,0,87.05,174.12Z"/><path d="M114.43,174.12a4.94,4.94,0,1,0-4.93-4.94A4.94,4.94,0,0,0,114.43,174.12Z"/><path d="M141.8,174.12a4.94,4.94,0,1,0-4.92-4.94A4.94,4.94,0,0,0,141.8,174.12Z"/><path d="M169.18,174.12a4.94,4.94,0,1,0-4.93-4.94A4.94,4.94,0,0,0,169.18,174.12Z"/><path d="M196.55,174.12a4.94,4.94,0,1,0-4.93-4.94A4.94,4.94,0,0,0,196.55,174.12Z"/><path d="M223.93,174.12a4.94,4.94,0,1,0-4.93-4.94A4.94,4.94,0,0,0,223.93,174.12Z"/><path d="M4.93,201.49A4.94,4.94,0,1,0,0,196.56,4.93,4.93,0,0,0,4.93,201.49Z"/><path d="M32.3,201.49a4.94,4.94,0,1,0-4.92-4.93A4.94,4.94,0,0,0,32.3,201.49Z"/><path d="M59.68,201.49a4.94,4.94,0,1,0-4.93-4.93A4.93,4.93,0,0,0,59.68,201.49Z"/><path d="M87.05,201.49a4.94,4.94,0,1,0-4.93-4.93A4.94,4.94,0,0,0,87.05,201.49Z"/><path d="M114.43,201.49a4.94,4.94,0,1,0-4.93-4.93A4.93,4.93,0,0,0,114.43,201.49Z"/><path d="M141.8,201.49a4.94,4.94,0,1,0-4.92-4.93A4.94,4.94,0,0,0,141.8,201.49Z"/><path d="M169.18,201.49a4.94,4.94,0,1,0-4.93-4.93A4.93,4.93,0,0,0,169.18,201.49Z"/><path d="M196.55,201.49a4.94,4.94,0,1,0-4.93-4.93A4.94,4.94,0,0,0,196.55,201.49Z"/><path d="M223.93,201.49a4.94,4.94,0,1,0-4.93-4.93A4.93,4.93,0,0,0,223.93,201.49Z"/><path d="M251.3,201.49a4.94,4.94,0,1,0-4.92-4.93A4.94,4.94,0,0,0,251.3,201.49Z"/><path d="M4.93,228.87A4.94,4.94,0,1,0,0,223.93,4.94,4.94,0,0,0,4.93,228.87Z"/><path d="M32.3,228.87a4.94,4.94,0,1,0-4.92-4.94A4.94,4.94,0,0,0,32.3,228.87Z"/><path d="M59.68,228.87a4.94,4.94,0,1,0-4.93-4.94A4.94,4.94,0,0,0,59.68,228.87Z"/><path d="M87.05,228.87a4.94,4.94,0,1,0-4.93-4.94A4.94,4.94,0,0,0,87.05,228.87Z"/><path d="M114.43,228.87a4.94,4.94,0,1,0-4.93-4.94A4.94,4.94,0,0,0,114.43,228.87Z"/><path d="M141.8,228.87a4.94,4.94,0,1,0-4.92-4.94A4.94,4.94,0,0,0,141.8,228.87Z"/><path d="M169.18,228.87a4.94,4.94,0,1,0-4.93-4.94A4.94,4.94,0,0,0,169.18,228.87Z"/><path d="M196.55,228.87a4.94,4.94,0,1,0-4.93-4.94A4.94,4.94,0,0,0,196.55,228.87Z"/><path d="M223.93,228.87a4.94,4.94,0,1,0-4.93-4.94A4.94,4.94,0,0,0,223.93,228.87Z"/><path d="M251.3,228.87a4.94,4.94,0,1,0-4.92-4.94A4.94,4.94,0,0,0,251.3,228.87Z"/><path d="M278.68,228.87a4.94,4.94,0,1,0-4.93-4.94A4.94,4.94,0,0,0,278.68,228.87Z"/><path d="M4.93,256.24A4.93,4.93,0,1,0,0,251.31,4.93,4.93,0,0,0,4.93,256.24Z"/><path d="M32.3,256.24a4.93,4.93,0,1,0-4.92-4.93A4.94,4.94,0,0,0,32.3,256.24Z"/><path d="M59.68,256.24a4.93,4.93,0,1,0-4.93-4.93A4.93,4.93,0,0,0,59.68,256.24Z"/><path d="M87.05,256.24a4.93,4.93,0,1,0-4.93-4.93A4.94,4.94,0,0,0,87.05,256.24Z"/><path d="M114.43,256.24a4.93,4.93,0,1,0-4.93-4.93A4.93,4.93,0,0,0,114.43,256.24Z"/><path d="M141.8,256.24a4.93,4.93,0,1,0-4.92-4.93A4.94,4.94,0,0,0,141.8,256.24Z"/><path d="M169.18,256.24a4.93,4.93,0,1,0-4.93-4.93A4.93,4.93,0,0,0,169.18,256.24Z"/><path d="M196.55,256.24a4.93,4.93,0,1,0-4.93-4.93A4.94,4.94,0,0,0,196.55,256.24Z"/><path d="M223.93,256.24a4.93,4.93,0,1,0-4.93-4.93A4.93,4.93,0,0,0,223.93,256.24Z"/><path d="M251.3,256.24a4.93,4.93,0,1,0-4.92-4.93A4.94,4.94,0,0,0,251.3,256.24Z"/><path d="M278.68,256.24a4.93,4.93,0,1,0-4.93-4.93A4.93,4.93,0,0,0,278.68,256.24Z"/><path d="M4.93,283.62A4.94,4.94,0,1,0,0,278.68,4.94,4.94,0,0,0,4.93,283.62Z"/><path d="M32.3,283.62a4.94,4.94,0,1,0-4.92-4.94A4.94,4.94,0,0,0,32.3,283.62Z"/><path d="M59.68,283.62a4.94,4.94,0,1,0-4.93-4.94A4.94,4.94,0,0,0,59.68,283.62Z"/><path d="M87.05,283.62a4.94,4.94,0,1,0-4.93-4.94A4.94,4.94,0,0,0,87.05,283.62Z"/><path d="M114.43,283.62a4.94,4.94,0,1,0-4.93-4.94A4.94,4.94,0,0,0,114.43,283.62Z"/><path d="M141.8,283.62a4.94,4.94,0,1,0-4.92-4.94A4.94,4.94,0,0,0,141.8,283.62Z"/><path d="M169.18,283.62a4.94,4.94,0,1,0-4.93-4.94A4.94,4.94,0,0,0,169.18,283.62Z"/><path d="M196.55,283.62a4.94,4.94,0,1,0-4.93-4.94A4.94,4.94,0,0,0,196.55,283.62Z"/><path d="M223.93,283.62a4.94,4.94,0,1,0-4.93-4.94A4.94,4.94,0,0,0,223.93,283.62Z"/><path d="M251.3,283.62a4.94,4.94,0,1,0-4.92-4.94A4.94,4.94,0,0,0,251.3,283.62Z"/><path d="M278.68,283.62a4.94,4.94,0,1,0-4.93-4.94A4.94,4.94,0,0,0,278.68,283.62Z"/><path d="M306.05,283.62a4.94,4.94,0,1,0-4.93-4.94A4.94,4.94,0,0,0,306.05,283.62Z"/><path d="M4.93,311A4.94,4.94,0,1,0,0,306.06,4.93,4.93,0,0,0,4.93,311Z"/><path d="M32.3,311a4.94,4.94,0,1,0-4.92-4.93A4.94,4.94,0,0,0,32.3,311Z"/><path d="M59.68,311a4.94,4.94,0,1,0-4.93-4.93A4.93,4.93,0,0,0,59.68,311Z"/><path d="M87.05,311a4.94,4.94,0,1,0-4.93-4.93A4.94,4.94,0,0,0,87.05,311Z"/><path d="M114.43,311a4.94,4.94,0,1,0-4.93-4.93A4.93,4.93,0,0,0,114.43,311Z"/><path d="M141.8,311a4.94,4.94,0,1,0-4.92-4.93A4.94,4.94,0,0,0,141.8,311Z"/><path d="M169.18,311a4.94,4.94,0,1,0-4.93-4.93A4.93,4.93,0,0,0,169.18,311Z"/><path d="M196.55,311a4.94,4.94,0,1,0-4.93-4.93A4.94,4.94,0,0,0,196.55,311Z"/><path d="M223.93,311a4.94,4.94,0,1,0-4.93-4.93A4.93,4.93,0,0,0,223.93,311Z"/><path d="M251.3,311a4.94,4.94,0,1,0-4.92-4.93A4.94,4.94,0,0,0,251.3,311Z"/><path d="M278.68,311a4.94,4.94,0,1,0-4.93-4.93A4.93,4.93,0,0,0,278.68,311Z"/><path d="M306.05,311a4.94,4.94,0,1,0-4.93-4.93A4.94,4.94,0,0,0,306.05,311Z"/><path d="M333.43,311a4.94,4.94,0,1,0-4.93-4.93A4.93,4.93,0,0,0,333.43,311Z"/><path d="M4.93,338.37A4.94,4.94,0,1,0,0,333.43,4.94,4.94,0,0,0,4.93,338.37Z"/><path d="M32.3,338.37a4.94,4.94,0,1,0-4.92-4.94A4.94,4.94,0,0,0,32.3,338.37Z"/><path d="M59.68,338.37a4.94,4.94,0,1,0-4.93-4.94A4.94,4.94,0,0,0,59.68,338.37Z"/><path d="M87.05,338.37a4.94,4.94,0,1,0-4.93-4.94A4.94,4.94,0,0,0,87.05,338.37Z"/><path d="M114.43,338.37a4.94,4.94,0,1,0-4.93-4.94A4.94,4.94,0,0,0,114.43,338.37Z"/><path d="M141.8,338.37a4.94,4.94,0,1,0-4.92-4.94A4.94,4.94,0,0,0,141.8,338.37Z"/><path d="M169.18,338.37a4.94,4.94,0,1,0-4.93-4.94A4.94,4.94,0,0,0,169.18,338.37Z"/><path d="M196.55,338.37a4.94,4.94,0,1,0-4.93-4.94A4.94,4.94,0,0,0,196.55,338.37Z"/><path d="M223.93,338.37a4.94,4.94,0,1,0-4.93-4.94A4.94,4.94,0,0,0,223.93,338.37Z"/><path d="M251.3,338.37a4.94,4.94,0,1,0-4.92-4.94A4.94,4.94,0,0,0,251.3,338.37Z"/><path d="M278.68,338.37a4.94,4.94,0,1,0-4.93-4.94A4.94,4.94,0,0,0,278.68,338.37Z"/><path d="M306.05,338.37a4.94,4.94,0,1,0-4.93-4.94A4.94,4.94,0,0,0,306.05,338.37Z"/><path d="M333.43,338.37a4.94,4.94,0,1,0-4.93-4.94A4.94,4.94,0,0,0,333.43,338.37Z"/><path d="M4.93,365.74A4.93,4.93,0,1,0,0,360.81,4.93,4.93,0,0,0,4.93,365.74Z"/><path d="M32.3,365.74a4.93,4.93,0,1,0-4.92-4.93A4.94,4.94,0,0,0,32.3,365.74Z"/><path d="M59.68,365.74a4.93,4.93,0,1,0-4.93-4.93A4.93,4.93,0,0,0,59.68,365.74Z"/><path d="M87.05,365.74a4.93,4.93,0,1,0-4.93-4.93A4.94,4.94,0,0,0,87.05,365.74Z"/><path d="M114.43,365.74a4.93,4.93,0,1,0-4.93-4.93A4.93,4.93,0,0,0,114.43,365.74Z"/><path d="M141.8,365.74a4.93,4.93,0,1,0-4.92-4.93A4.94,4.94,0,0,0,141.8,365.74Z"/><path d="M169.18,365.74a4.93,4.93,0,1,0-4.93-4.93A4.93,4.93,0,0,0,169.18,365.74Z"/><path d="M196.55,365.74a4.93,4.93,0,1,0-4.93-4.93A4.94,4.94,0,0,0,196.55,365.74Z"/><path d="M223.93,365.74a4.93,4.93,0,1,0-4.93-4.93A4.93,4.93,0,0,0,223.93,365.74Z"/><path d="M251.3,365.74a4.93,4.93,0,1,0-4.92-4.93A4.94,4.94,0,0,0,251.3,365.74Z"/><path d="M278.68,365.74a4.93,4.93,0,1,0-4.93-4.93A4.93,4.93,0,0,0,278.68,365.74Z"/><path d="M306.05,365.74a4.93,4.93,0,1,0-4.93-4.93A4.94,4.94,0,0,0,306.05,365.74Z"/><path d="M333.43,365.74a4.93,4.93,0,1,0-4.93-4.93A4.93,4.93,0,0,0,333.43,365.74Z"/><path d="M360.8,365.74a4.93,4.93,0,1,0-4.92-4.93A4.94,4.94,0,0,0,360.8,365.74Z"/><path d="M4.93,393.12A4.94,4.94,0,1,0,0,388.18,4.94,4.94,0,0,0,4.93,393.12Z"/><path d="M32.3,393.12a4.94,4.94,0,1,0-4.92-4.94A4.94,4.94,0,0,0,32.3,393.12Z"/><path d="M59.68,393.12a4.94,4.94,0,1,0-4.93-4.94A4.94,4.94,0,0,0,59.68,393.12Z"/><path d="M87.05,393.12a4.94,4.94,0,1,0-4.93-4.94A4.94,4.94,0,0,0,87.05,393.12Z"/><path d="M114.43,393.12a4.94,4.94,0,1,0-4.93-4.94A4.94,4.94,0,0,0,114.43,393.12Z"/><path d="M141.8,393.12a4.94,4.94,0,1,0-4.92-4.94A4.94,4.94,0,0,0,141.8,393.12Z"/><path d="M169.18,393.12a4.94,4.94,0,1,0-4.93-4.94A4.94,4.94,0,0,0,169.18,393.12Z"/><path d="M196.55,393.12a4.94,4.94,0,1,0-4.93-4.94A4.94,4.94,0,0,0,196.55,393.12Z"/><path d="M223.93,393.12a4.94,4.94,0,1,0-4.93-4.94A4.94,4.94,0,0,0,223.93,393.12Z"/><path d="M251.3,393.12a4.94,4.94,0,1,0-4.92-4.94A4.94,4.94,0,0,0,251.3,393.12Z"/><path d="M278.68,393.12a4.94,4.94,0,1,0-4.93-4.94A4.94,4.94,0,0,0,278.68,393.12Z"/><path d="M306.05,393.12a4.94,4.94,0,1,0-4.93-4.94A4.94,4.94,0,0,0,306.05,393.12Z"/><path d="M333.43,393.12a4.94,4.94,0,1,0-4.93-4.94A4.94,4.94,0,0,0,333.43,393.12Z"/><path d="M360.8,393.12a4.94,4.94,0,1,0-4.92-4.94A4.94,4.94,0,0,0,360.8,393.12Z"/><path d="M388.18,393.12a4.94,4.94,0,1,0-4.93-4.94A4.94,4.94,0,0,0,388.18,393.12Z"/><path d="M4.93,420.49A4.94,4.94,0,1,0,0,415.56,4.93,4.93,0,0,0,4.93,420.49Z"/><path d="M32.3,420.49a4.94,4.94,0,1,0-4.92-4.93A4.94,4.94,0,0,0,32.3,420.49Z"/><path d="M59.68,420.49a4.94,4.94,0,1,0-4.93-4.93A4.93,4.93,0,0,0,59.68,420.49Z"/><path d="M87.05,420.49a4.94,4.94,0,1,0-4.93-4.93A4.94,4.94,0,0,0,87.05,420.49Z"/><path d="M114.43,420.49a4.94,4.94,0,1,0-4.93-4.93A4.93,4.93,0,0,0,114.43,420.49Z"/><path d="M141.8,420.49a4.94,4.94,0,1,0-4.92-4.93A4.94,4.94,0,0,0,141.8,420.49Z"/><path d="M169.18,420.49a4.94,4.94,0,1,0-4.93-4.93A4.93,4.93,0,0,0,169.18,420.49Z"/><path d="M196.55,420.49a4.94,4.94,0,1,0-4.93-4.93A4.94,4.94,0,0,0,196.55,420.49Z"/><path d="M223.93,420.49a4.94,4.94,0,1,0-4.93-4.93A4.93,4.93,0,0,0,223.93,420.49Z"/><path d="M251.3,420.49a4.94,4.94,0,1,0-4.92-4.93A4.94,4.94,0,0,0,251.3,420.49Z"/><path d="M278.68,420.49a4.94,4.94,0,1,0-4.93-4.93A4.93,4.93,0,0,0,278.68,420.49Z"/><path d="M306.05,420.49a4.94,4.94,0,1,0-4.93-4.93A4.94,4.94,0,0,0,306.05,420.49Z"/><path d="M333.43,420.49a4.94,4.94,0,1,0-4.93-4.93A4.93,4.93,0,0,0,333.43,420.49Z"/><path d="M360.8,420.49a4.94,4.94,0,1,0-4.92-4.93A4.94,4.94,0,0,0,360.8,420.49Z"/><path d="M388.18,420.49a4.94,4.94,0,1,0-4.93-4.93A4.93,4.93,0,0,0,388.18,420.49Z"/><path d="M4.93,447.87A4.94,4.94,0,1,0,0,442.93,4.94,4.94,0,0,0,4.93,447.87Z"/><path d="M32.3,447.87a4.94,4.94,0,1,0-4.92-4.94A4.94,4.94,0,0,0,32.3,447.87Z"/><path d="M59.68,447.87a4.94,4.94,0,1,0-4.93-4.94A4.94,4.94,0,0,0,59.68,447.87Z"/><path d="M87.05,447.87a4.94,4.94,0,1,0-4.93-4.94A4.94,4.94,0,0,0,87.05,447.87Z"/><path d="M114.43,447.87a4.94,4.94,0,1,0-4.93-4.94A4.94,4.94,0,0,0,114.43,447.87Z"/><path d="M141.8,447.87a4.94,4.94,0,1,0-4.92-4.94A4.94,4.94,0,0,0,141.8,447.87Z"/><path d="M169.18,447.87a4.94,4.94,0,1,0-4.93-4.94A4.94,4.94,0,0,0,169.18,447.87Z"/><path d="M196.55,447.87a4.94,4.94,0,1,0-4.93-4.94A4.94,4.94,0,0,0,196.55,447.87Z"/><path d="M223.93,447.87a4.94,4.94,0,1,0-4.93-4.94A4.94,4.94,0,0,0,223.93,447.87Z"/><path d="M251.3,447.87a4.94,4.94,0,1,0-4.92-4.94A4.94,4.94,0,0,0,251.3,447.87Z"/><path d="M278.68,447.87a4.94,4.94,0,1,0-4.93-4.94A4.94,4.94,0,0,0,278.68,447.87Z"/><path d="M306.05,447.87a4.94,4.94,0,1,0-4.93-4.94A4.94,4.94,0,0,0,306.05,447.87Z"/><path d="M333.43,447.87a4.94,4.94,0,1,0-4.93-4.94A4.94,4.94,0,0,0,333.43,447.87Z"/><path d="M360.8,447.87a4.94,4.94,0,1,0-4.92-4.94A4.94,4.94,0,0,0,360.8,447.87Z"/><path d="M388.18,447.87a4.94,4.94,0,1,0-4.93-4.94A4.94,4.94,0,0,0,388.18,447.87Z"/><path d="M415.55,447.87a4.94,4.94,0,1,0-4.93-4.94A4.94,4.94,0,0,0,415.55,447.87Z"/><path d="M4.93,475.24A4.93,4.93,0,1,0,0,470.31,4.93,4.93,0,0,0,4.93,475.24Z"/><path d="M32.3,475.24a4.93,4.93,0,1,0-4.92-4.93A4.94,4.94,0,0,0,32.3,475.24Z"/><path d="M59.68,475.24a4.93,4.93,0,1,0-4.93-4.93A4.93,4.93,0,0,0,59.68,475.24Z"/><path d="M87.05,475.24a4.93,4.93,0,1,0-4.93-4.93A4.94,4.94,0,0,0,87.05,475.24Z"/><path d="M114.43,475.24a4.93,4.93,0,1,0-4.93-4.93A4.93,4.93,0,0,0,114.43,475.24Z"/><path d="M141.8,475.24a4.93,4.93,0,1,0-4.92-4.93A4.94,4.94,0,0,0,141.8,475.24Z"/><path d="M169.18,475.24a4.93,4.93,0,1,0-4.93-4.93A4.93,4.93,0,0,0,169.18,475.24Z"/><path d="M196.55,475.24a4.93,4.93,0,1,0-4.93-4.93A4.94,4.94,0,0,0,196.55,475.24Z"/><path d="M223.93,475.24a4.93,4.93,0,1,0-4.93-4.93A4.93,4.93,0,0,0,223.93,475.24Z"/><path d="M251.3,475.24a4.93,4.93,0,1,0-4.92-4.93A4.94,4.94,0,0,0,251.3,475.24Z"/><path d="M278.68,475.24a4.93,4.93,0,1,0-4.93-4.93A4.93,4.93,0,0,0,278.68,475.24Z"/><path d="M306.05,475.24a4.93,4.93,0,1,0-4.93-4.93A4.94,4.94,0,0,0,306.05,475.24Z"/><path d="M333.43,475.24a4.93,4.93,0,1,0-4.93-4.93A4.93,4.93,0,0,0,333.43,475.24Z"/><path d="M360.8,475.24a4.93,4.93,0,1,0-4.92-4.93A4.94,4.94,0,0,0,360.8,475.24Z"/><path d="M388.18,475.24a4.93,4.93,0,1,0-4.93-4.93A4.93,4.93,0,0,0,388.18,475.24Z"/><path d="M415.55,475.24a4.93,4.93,0,1,0-4.93-4.93A4.94,4.94,0,0,0,415.55,475.24Z"/><path d="M442.93,475.24a4.93,4.93,0,1,0-4.93-4.93A4.93,4.93,0,0,0,442.93,475.24Z"/><path d="M4.93,502.62A4.94,4.94,0,1,0,0,497.68,4.94,4.94,0,0,0,4.93,502.62Z"/><path d="M32.3,502.62a4.94,4.94,0,1,0-4.92-4.94A4.94,4.94,0,0,0,32.3,502.62Z"/><path d="M59.68,502.62a4.94,4.94,0,1,0-4.93-4.94A4.94,4.94,0,0,0,59.68,502.62Z"/><path d="M87.05,502.62a4.94,4.94,0,1,0-4.93-4.94A4.94,4.94,0,0,0,87.05,502.62Z"/><path d="M114.43,502.62a4.94,4.94,0,1,0-4.93-4.94A4.94,4.94,0,0,0,114.43,502.62Z"/><path d="M141.8,502.62a4.94,4.94,0,1,0-4.92-4.94A4.94,4.94,0,0,0,141.8,502.62Z"/><path d="M169.18,502.62a4.94,4.94,0,1,0-4.93-4.94A4.94,4.94,0,0,0,169.18,502.62Z"/><path d="M196.55,502.62a4.94,4.94,0,1,0-4.93-4.94A4.94,4.94,0,0,0,196.55,502.62Z"/><path d="M223.93,502.62a4.94,4.94,0,1,0-4.93-4.94A4.94,4.94,0,0,0,223.93,502.62Z"/><path d="M251.3,502.62a4.94,4.94,0,1,0-4.92-4.94A4.94,4.94,0,0,0,251.3,502.62Z"/><path d="M278.68,502.62a4.94,4.94,0,1,0-4.93-4.94A4.94,4.94,0,0,0,278.68,502.62Z"/><path d="M306.05,502.62a4.94,4.94,0,1,0-4.93-4.94A4.94,4.94,0,0,0,306.05,502.62Z"/><path d="M333.43,502.62a4.94,4.94,0,1,0-4.93-4.94A4.94,4.94,0,0,0,333.43,502.62Z"/><path d="M360.8,502.62a4.94,4.94,0,1,0-4.92-4.94A4.94,4.94,0,0,0,360.8,502.62Z"/><path d="M388.18,502.62a4.94,4.94,0,1,0-4.93-4.94A4.94,4.94,0,0,0,388.18,502.62Z"/><path d="M415.55,502.62a4.94,4.94,0,1,0-4.93-4.94A4.94,4.94,0,0,0,415.55,502.62Z"/><path d="M442.93,502.62a4.94,4.94,0,1,0-4.93-4.94A4.94,4.94,0,0,0,442.93,502.62Z"/><path d="M4.93,530A4.94,4.94,0,1,0,0,525.06,4.93,4.93,0,0,0,4.93,530Z"/><path d="M32.3,530a4.94,4.94,0,1,0-4.92-4.93A4.94,4.94,0,0,0,32.3,530Z"/><path d="M59.68,530a4.94,4.94,0,1,0-4.93-4.93A4.93,4.93,0,0,0,59.68,530Z"/><path d="M87.05,530a4.94,4.94,0,1,0-4.93-4.93A4.94,4.94,0,0,0,87.05,530Z"/><path d="M114.43,530a4.94,4.94,0,1,0-4.93-4.93A4.93,4.93,0,0,0,114.43,530Z"/><path d="M141.8,530a4.94,4.94,0,1,0-4.92-4.93A4.94,4.94,0,0,0,141.8,530Z"/><path d="M169.18,530a4.94,4.94,0,1,0-4.93-4.93A4.93,4.93,0,0,0,169.18,530Z"/><path d="M196.55,530a4.94,4.94,0,1,0-4.93-4.93A4.94,4.94,0,0,0,196.55,530Z"/><path d="M223.93,530a4.94,4.94,0,1,0-4.93-4.93A4.93,4.93,0,0,0,223.93,530Z"/><path d="M251.3,530a4.94,4.94,0,1,0-4.92-4.93A4.94,4.94,0,0,0,251.3,530Z"/><path d="M278.68,530a4.94,4.94,0,1,0-4.93-4.93A4.93,4.93,0,0,0,278.68,530Z"/><path d="M306.05,530a4.94,4.94,0,1,0-4.93-4.93A4.94,4.94,0,0,0,306.05,530Z"/><path d="M333.43,530a4.94,4.94,0,1,0-4.93-4.93A4.93,4.93,0,0,0,333.43,530Z"/><path d="M360.8,530a4.94,4.94,0,1,0-4.92-4.93A4.94,4.94,0,0,0,360.8,530Z"/><path d="M388.18,530a4.94,4.94,0,1,0-4.93-4.93A4.93,4.93,0,0,0,388.18,530Z"/><path d="M415.55,530a4.94,4.94,0,1,0-4.93-4.93A4.94,4.94,0,0,0,415.55,530Z"/><path d="M442.93,530a4.94,4.94,0,1,0-4.93-4.93A4.93,4.93,0,0,0,442.93,530Z"/><path d="M470.3,530a4.94,4.94,0,1,0-4.92-4.93A4.94,4.94,0,0,0,470.3,530Z"/><path d="M4.93,557.37A4.94,4.94,0,1,0,0,552.43,4.94,4.94,0,0,0,4.93,557.37Z"/><path d="M32.3,557.37a4.94,4.94,0,1,0-4.92-4.94A4.94,4.94,0,0,0,32.3,557.37Z"/><path d="M59.68,557.37a4.94,4.94,0,1,0-4.93-4.94A4.94,4.94,0,0,0,59.68,557.37Z"/><path d="M87.05,557.37a4.94,4.94,0,1,0-4.93-4.94A4.94,4.94,0,0,0,87.05,557.37Z"/><path d="M114.43,557.37a4.94,4.94,0,1,0-4.93-4.94A4.94,4.94,0,0,0,114.43,557.37Z"/><path d="M141.8,557.37a4.94,4.94,0,1,0-4.92-4.94A4.94,4.94,0,0,0,141.8,557.37Z"/><path d="M169.18,557.37a4.94,4.94,0,1,0-4.93-4.94A4.94,4.94,0,0,0,169.18,557.37Z"/><path d="M196.55,557.37a4.94,4.94,0,1,0-4.93-4.94A4.94,4.94,0,0,0,196.55,557.37Z"/><path d="M223.93,557.37a4.94,4.94,0,1,0-4.93-4.94A4.94,4.94,0,0,0,223.93,557.37Z"/><path d="M251.3,557.37a4.94,4.94,0,1,0-4.92-4.94A4.94,4.94,0,0,0,251.3,557.37Z"/><path d="M278.68,557.37a4.94,4.94,0,1,0-4.93-4.94A4.94,4.94,0,0,0,278.68,557.37Z"/><path d="M306.05,557.37a4.94,4.94,0,1,0-4.93-4.94A4.94,4.94,0,0,0,306.05,557.37Z"/><path d="M333.43,557.37a4.94,4.94,0,1,0-4.93-4.94A4.94,4.94,0,0,0,333.43,557.37Z"/><path d="M360.8,557.37a4.94,4.94,0,1,0-4.92-4.94A4.94,4.94,0,0,0,360.8,557.37Z"/><path d="M388.18,557.37a4.94,4.94,0,1,0-4.93-4.94A4.94,4.94,0,0,0,388.18,557.37Z"/><path d="M415.55,557.37a4.94,4.94,0,1,0-4.93-4.94A4.94,4.94,0,0,0,415.55,557.37Z"/><path d="M442.93,557.37a4.94,4.94,0,1,0-4.93-4.94A4.94,4.94,0,0,0,442.93,557.37Z"/><path d="M470.3,557.37a4.94,4.94,0,1,0-4.92-4.94A4.94,4.94,0,0,0,470.3,557.37Z"/><path d="M497.68,557.37a4.94,4.94,0,1,0-4.93-4.94A4.94,4.94,0,0,0,497.68,557.37Z"/><path d="M4.93,584.74A4.93,4.93,0,1,0,0,579.81,4.93,4.93,0,0,0,4.93,584.74Z"/><path d="M32.3,584.74a4.93,4.93,0,1,0-4.92-4.93A4.94,4.94,0,0,0,32.3,584.74Z"/><path d="M59.68,584.74a4.93,4.93,0,1,0-4.93-4.93A4.93,4.93,0,0,0,59.68,584.74Z"/><path d="M87.05,584.74a4.93,4.93,0,1,0-4.93-4.93A4.94,4.94,0,0,0,87.05,584.74Z"/><path d="M114.43,584.74a4.93,4.93,0,1,0-4.93-4.93A4.93,4.93,0,0,0,114.43,584.74Z"/><path d="M141.8,584.74a4.93,4.93,0,1,0-4.92-4.93A4.94,4.94,0,0,0,141.8,584.74Z"/><path d="M169.18,584.74a4.93,4.93,0,1,0-4.93-4.93A4.93,4.93,0,0,0,169.18,584.74Z"/><path d="M196.55,584.74a4.93,4.93,0,1,0-4.93-4.93A4.94,4.94,0,0,0,196.55,584.74Z"/><path d="M223.93,584.74a4.93,4.93,0,1,0-4.93-4.93A4.93,4.93,0,0,0,223.93,584.74Z"/><path d="M251.3,584.74a4.93,4.93,0,1,0-4.92-4.93A4.94,4.94,0,0,0,251.3,584.74Z"/><path d="M278.68,584.74a4.93,4.93,0,1,0-4.93-4.93A4.93,4.93,0,0,0,278.68,584.74Z"/><path d="M306.05,584.74a4.93,4.93,0,1,0-4.93-4.93A4.94,4.94,0,0,0,306.05,584.74Z"/><path d="M333.43,584.74a4.93,4.93,0,1,0-4.93-4.93A4.93,4.93,0,0,0,333.43,584.74Z"/><path d="M360.8,584.74a4.93,4.93,0,1,0-4.92-4.93A4.94,4.94,0,0,0,360.8,584.74Z"/><path d="M388.18,584.74a4.93,4.93,0,1,0-4.93-4.93A4.93,4.93,0,0,0,388.18,584.74Z"/><path d="M415.55,584.74a4.93,4.93,0,1,0-4.93-4.93A4.94,4.94,0,0,0,415.55,584.74Z"/><path d="M442.93,584.74a4.93,4.93,0,1,0-4.93-4.93A4.93,4.93,0,0,0,442.93,584.74Z"/><path d="M470.3,584.74a4.93,4.93,0,1,0-4.92-4.93A4.94,4.94,0,0,0,470.3,584.74Z"/><path d="M497.68,584.74a4.93,4.93,0,1,0-4.93-4.93A4.93,4.93,0,0,0,497.68,584.74Z"/><path d="M525.05,584.74a4.93,4.93,0,1,0-4.93-4.93A4.94,4.94,0,0,0,525.05,584.74Z"/><path d="M4.93,612.12A4.94,4.94,0,1,0,0,607.18,4.94,4.94,0,0,0,4.93,612.12Z"/><path d="M32.3,612.12a4.94,4.94,0,1,0-4.92-4.94A4.94,4.94,0,0,0,32.3,612.12Z"/><path d="M59.68,612.12a4.94,4.94,0,1,0-4.93-4.94A4.94,4.94,0,0,0,59.68,612.12Z"/><path d="M87.05,612.12a4.94,4.94,0,1,0-4.93-4.94A4.94,4.94,0,0,0,87.05,612.12Z"/><path d="M114.43,612.12a4.94,4.94,0,1,0-4.93-4.94A4.94,4.94,0,0,0,114.43,612.12Z"/><path d="M141.8,612.12a4.94,4.94,0,1,0-4.92-4.94A4.94,4.94,0,0,0,141.8,612.12Z"/><path d="M169.18,612.12a4.94,4.94,0,1,0-4.93-4.94A4.94,4.94,0,0,0,169.18,612.12Z"/><path d="M196.55,612.12a4.94,4.94,0,1,0-4.93-4.94A4.94,4.94,0,0,0,196.55,612.12Z"/><path d="M223.93,612.12a4.94,4.94,0,1,0-4.93-4.94A4.94,4.94,0,0,0,223.93,612.12Z"/><path d="M251.3,612.12a4.94,4.94,0,1,0-4.92-4.94A4.94,4.94,0,0,0,251.3,612.12Z"/><path d="M278.68,612.12a4.94,4.94,0,1,0-4.93-4.94A4.94,4.94,0,0,0,278.68,612.12Z"/><path d="M306.05,612.12a4.94,4.94,0,1,0-4.93-4.94A4.94,4.94,0,0,0,306.05,612.12Z"/><path d="M333.43,612.12a4.94,4.94,0,1,0-4.93-4.94A4.94,4.94,0,0,0,333.43,612.12Z"/><path d="M360.8,612.12a4.94,4.94,0,1,0-4.92-4.94A4.94,4.94,0,0,0,360.8,612.12Z"/><path d="M388.18,612.12a4.94,4.94,0,1,0-4.93-4.94A4.94,4.94,0,0,0,388.18,612.12Z"/><path d="M415.55,612.12a4.94,4.94,0,1,0-4.93-4.94A4.94,4.94,0,0,0,415.55,612.12Z"/><path d="M442.93,612.12a4.94,4.94,0,1,0-4.93-4.94A4.94,4.94,0,0,0,442.93,612.12Z"/><path d="M470.3,612.12a4.94,4.94,0,1,0-4.92-4.94A4.94,4.94,0,0,0,470.3,612.12Z"/><path d="M497.68,612.12a4.94,4.94,0,1,0-4.93-4.94A4.94,4.94,0,0,0,497.68,612.12Z"/><path d="M525.05,612.12a4.94,4.94,0,1,0-4.93-4.94A4.94,4.94,0,0,0,525.05,612.12Z"/><path d="M4.93,639.49A4.94,4.94,0,1,0,0,634.56,4.93,4.93,0,0,0,4.93,639.49Z"/><path d="M32.3,639.49a4.94,4.94,0,1,0-4.92-4.93A4.94,4.94,0,0,0,32.3,639.49Z"/><path d="M59.68,639.49a4.94,4.94,0,1,0-4.93-4.93A4.93,4.93,0,0,0,59.68,639.49Z"/><path d="M87.05,639.49a4.94,4.94,0,1,0-4.93-4.93A4.94,4.94,0,0,0,87.05,639.49Z"/><path d="M114.43,639.49a4.94,4.94,0,1,0-4.93-4.93A4.93,4.93,0,0,0,114.43,639.49Z"/><path d="M141.8,639.49a4.94,4.94,0,1,0-4.92-4.93A4.94,4.94,0,0,0,141.8,639.49Z"/><path d="M169.18,639.49a4.94,4.94,0,1,0-4.93-4.93A4.93,4.93,0,0,0,169.18,639.49Z"/><path d="M196.55,639.49a4.94,4.94,0,1,0-4.93-4.93A4.94,4.94,0,0,0,196.55,639.49Z"/><path d="M223.93,639.49a4.94,4.94,0,1,0-4.93-4.93A4.93,4.93,0,0,0,223.93,639.49Z"/><path d="M251.3,639.49a4.94,4.94,0,1,0-4.92-4.93A4.94,4.94,0,0,0,251.3,639.49Z"/><path d="M278.68,639.49a4.94,4.94,0,1,0-4.93-4.93A4.93,4.93,0,0,0,278.68,639.49Z"/><path d="M306.05,639.49a4.94,4.94,0,1,0-4.93-4.93A4.94,4.94,0,0,0,306.05,639.49Z"/><path d="M333.43,639.49a4.94,4.94,0,1,0-4.93-4.93A4.93,4.93,0,0,0,333.43,639.49Z"/><path d="M360.8,639.49a4.94,4.94,0,1,0-4.92-4.93A4.94,4.94,0,0,0,360.8,639.49Z"/><path d="M388.18,639.49a4.94,4.94,0,1,0-4.93-4.93A4.93,4.93,0,0,0,388.18,639.49Z"/><path d="M415.55,639.49a4.94,4.94,0,1,0-4.93-4.93A4.94,4.94,0,0,0,415.55,639.49Z"/><path d="M442.93,639.49a4.94,4.94,0,1,0-4.93-4.93A4.93,4.93,0,0,0,442.93,639.49Z"/><path d="M470.3,639.49a4.94,4.94,0,1,0-4.92-4.93A4.94,4.94,0,0,0,470.3,639.49Z"/><path d="M497.68,639.49a4.94,4.94,0,1,0-4.93-4.93A4.93,4.93,0,0,0,497.68,639.49Z"/><path d="M525.05,639.49a4.94,4.94,0,1,0-4.93-4.93A4.94,4.94,0,0,0,525.05,639.49Z"/><path d="M552.43,639.49a4.94,4.94,0,1,0-4.93-4.93A4.93,4.93,0,0,0,552.43,639.49Z"/><path d="M4.93,666.87A4.94,4.94,0,1,0,0,661.93,4.94,4.94,0,0,0,4.93,666.87Z"/><path d="M32.3,666.87a4.94,4.94,0,1,0-4.92-4.94A4.94,4.94,0,0,0,32.3,666.87Z"/><path d="M59.68,666.87a4.94,4.94,0,1,0-4.93-4.94A4.94,4.94,0,0,0,59.68,666.87Z"/><path d="M87.05,666.87a4.94,4.94,0,1,0-4.93-4.94A4.94,4.94,0,0,0,87.05,666.87Z"/><path d="M114.43,666.87a4.94,4.94,0,1,0-4.93-4.94A4.94,4.94,0,0,0,114.43,666.87Z"/><path d="M141.8,666.87a4.94,4.94,0,1,0-4.92-4.94A4.94,4.94,0,0,0,141.8,666.87Z"/><path d="M169.18,666.87a4.94,4.94,0,1,0-4.93-4.94A4.94,4.94,0,0,0,169.18,666.87Z"/><path d="M196.55,666.87a4.94,4.94,0,1,0-4.93-4.94A4.94,4.94,0,0,0,196.55,666.87Z"/><path d="M223.93,666.87a4.94,4.94,0,1,0-4.93-4.94A4.94,4.94,0,0,0,223.93,666.87Z"/><path d="M251.3,666.87a4.94,4.94,0,1,0-4.92-4.94A4.94,4.94,0,0,0,251.3,666.87Z"/><path d="M278.68,666.87a4.94,4.94,0,1,0-4.93-4.94A4.94,4.94,0,0,0,278.68,666.87Z"/><path d="M306.05,666.87a4.94,4.94,0,1,0-4.93-4.94A4.94,4.94,0,0,0,306.05,666.87Z"/><path d="M333.43,666.87a4.94,4.94,0,1,0-4.93-4.94A4.94,4.94,0,0,0,333.43,666.87Z"/><path d="M360.8,666.87a4.94,4.94,0,1,0-4.92-4.94A4.94,4.94,0,0,0,360.8,666.87Z"/><path d="M388.18,666.87a4.94,4.94,0,1,0-4.93-4.94A4.94,4.94,0,0,0,388.18,666.87Z"/><path d="M415.55,666.87a4.94,4.94,0,1,0-4.93-4.94A4.94,4.94,0,0,0,415.55,666.87Z"/><path d="M442.93,666.87a4.94,4.94,0,1,0-4.93-4.94A4.94,4.94,0,0,0,442.93,666.87Z"/><path d="M470.3,666.87a4.94,4.94,0,1,0-4.92-4.94A4.94,4.94,0,0,0,470.3,666.87Z"/><path d="M497.68,666.87a4.94,4.94,0,1,0-4.93-4.94A4.94,4.94,0,0,0,497.68,666.87Z"/><path d="M525.05,666.87a4.94,4.94,0,1,0-4.93-4.94A4.94,4.94,0,0,0,525.05,666.87Z"/><path d="M552.43,666.87a4.94,4.94,0,1,0-4.93-4.94A4.93,4.93,0,0,0,552.43,666.87Z"/><path d="M579.8,666.87a4.94,4.94,0,1,0-4.92-4.94A4.94,4.94,0,0,0,579.8,666.87Z"/><path d="M4.93,694.24A4.93,4.93,0,1,0,0,689.31,4.93,4.93,0,0,0,4.93,694.24Z"/><path d="M32.3,694.24a4.93,4.93,0,1,0-4.92-4.93A4.94,4.94,0,0,0,32.3,694.24Z"/><path d="M59.68,694.24a4.93,4.93,0,1,0-4.93-4.93A4.93,4.93,0,0,0,59.68,694.24Z"/><path d="M87.05,694.24a4.93,4.93,0,1,0-4.93-4.93A4.94,4.94,0,0,0,87.05,694.24Z"/><path d="M114.43,694.24a4.93,4.93,0,1,0-4.93-4.93A4.93,4.93,0,0,0,114.43,694.24Z"/><path d="M141.8,694.24a4.93,4.93,0,1,0-4.92-4.93A4.94,4.94,0,0,0,141.8,694.24Z"/><path d="M169.18,694.24a4.93,4.93,0,1,0-4.93-4.93A4.93,4.93,0,0,0,169.18,694.24Z"/><path d="M196.55,694.24a4.93,4.93,0,1,0-4.93-4.93A4.94,4.94,0,0,0,196.55,694.24Z"/><path d="M223.93,694.24a4.93,4.93,0,1,0-4.93-4.93A4.93,4.93,0,0,0,223.93,694.24Z"/><path d="M251.3,694.24a4.93,4.93,0,1,0-4.92-4.93A4.94,4.94,0,0,0,251.3,694.24Z"/><path d="M278.68,694.24a4.93,4.93,0,1,0-4.93-4.93A4.93,4.93,0,0,0,278.68,694.24Z"/><path d="M306.05,694.24a4.93,4.93,0,1,0-4.93-4.93A4.94,4.94,0,0,0,306.05,694.24Z"/><path d="M333.43,694.24a4.93,4.93,0,1,0-4.93-4.93A4.93,4.93,0,0,0,333.43,694.24Z"/><path d="M360.8,694.24a4.93,4.93,0,1,0-4.92-4.93A4.94,4.94,0,0,0,360.8,694.24Z"/><path d="M388.18,694.24a4.93,4.93,0,1,0-4.93-4.93A4.93,4.93,0,0,0,388.18,694.24Z"/><path d="M415.55,694.24a4.93,4.93,0,1,0-4.93-4.93A4.94,4.94,0,0,0,415.55,694.24Z"/><path d="M442.93,694.24a4.93,4.93,0,1,0-4.93-4.93A4.93,4.93,0,0,0,442.93,694.24Z"/><path d="M470.3,694.24a4.93,4.93,0,1,0-4.92-4.93A4.94,4.94,0,0,0,470.3,694.24Z"/><path d="M497.68,694.24a4.93,4.93,0,1,0-4.93-4.93A4.93,4.93,0,0,0,497.68,694.24Z"/><path d="M525.05,694.24a4.93,4.93,0,1,0-4.93-4.93A4.94,4.94,0,0,0,525.05,694.24Z"/><path d="M552.43,694.24a4.93,4.93,0,1,0-4.93-4.93A4.93,4.93,0,0,0,552.43,694.24Z"/><path d="M579.8,694.24a4.93,4.93,0,1,0-4.92-4.93A4.94,4.94,0,0,0,579.8,694.24Z"/><path d="M4.93,721.62A4.94,4.94,0,1,0,0,716.68,4.94,4.94,0,0,0,4.93,721.62Z"/><path d="M32.3,721.62a4.94,4.94,0,1,0-4.92-4.94A4.94,4.94,0,0,0,32.3,721.62Z"/><path d="M59.68,721.62a4.94,4.94,0,1,0-4.93-4.94A4.94,4.94,0,0,0,59.68,721.62Z"/><path d="M87.05,721.62a4.94,4.94,0,1,0-4.93-4.94A4.94,4.94,0,0,0,87.05,721.62Z"/><path d="M114.43,721.62a4.94,4.94,0,1,0-4.93-4.94A4.94,4.94,0,0,0,114.43,721.62Z"/><path d="M141.8,721.62a4.94,4.94,0,1,0-4.92-4.94A4.94,4.94,0,0,0,141.8,721.62Z"/><path d="M169.18,721.62a4.94,4.94,0,1,0-4.93-4.94A4.94,4.94,0,0,0,169.18,721.62Z"/><path d="M196.55,721.62a4.94,4.94,0,1,0-4.93-4.94A4.94,4.94,0,0,0,196.55,721.62Z"/><path d="M223.93,721.62a4.94,4.94,0,1,0-4.93-4.94A4.94,4.94,0,0,0,223.93,721.62Z"/><path d="M251.3,721.62a4.94,4.94,0,1,0-4.92-4.94A4.94,4.94,0,0,0,251.3,721.62Z"/><path d="M278.68,721.62a4.94,4.94,0,1,0-4.93-4.94A4.94,4.94,0,0,0,278.68,721.62Z"/><path d="M306.05,721.62a4.94,4.94,0,1,0-4.93-4.94A4.94,4.94,0,0,0,306.05,721.62Z"/><path d="M333.43,721.62a4.94,4.94,0,1,0-4.93-4.94A4.94,4.94,0,0,0,333.43,721.62Z"/><path d="M360.8,721.62a4.94,4.94,0,1,0-4.92-4.94A4.94,4.94,0,0,0,360.8,721.62Z"/><path d="M388.18,721.62a4.94,4.94,0,1,0-4.93-4.94A4.94,4.94,0,0,0,388.18,721.62Z"/><path d="M415.55,721.62a4.94,4.94,0,1,0-4.93-4.94A4.94,4.94,0,0,0,415.55,721.62Z"/><path d="M442.93,721.62a4.94,4.94,0,1,0-4.93-4.94A4.94,4.94,0,0,0,442.93,721.62Z"/><path d="M470.3,721.62a4.94,4.94,0,1,0-4.92-4.94A4.94,4.94,0,0,0,470.3,721.62Z"/><path d="M497.68,721.62a4.94,4.94,0,1,0-4.93-4.94A4.94,4.94,0,0,0,497.68,721.62Z"/><path d="M525.05,721.62a4.94,4.94,0,1,0-4.93-4.94A4.94,4.94,0,0,0,525.05,721.62Z"/><path d="M552.43,721.62a4.94,4.94,0,1,0-4.93-4.94A4.93,4.93,0,0,0,552.43,721.62Z"/><path d="M579.8,721.62a4.94,4.94,0,1,0-4.92-4.94A4.94,4.94,0,0,0,579.8,721.62Z"/><path d="M607.18,721.62a4.94,4.94,0,1,0-4.93-4.94A4.93,4.93,0,0,0,607.18,721.62Z"/><path d="M4.93,749A4.93,4.93,0,1,0,0,744.06,4.93,4.93,0,0,0,4.93,749Z"/><path d="M32.3,749a4.93,4.93,0,1,0-4.92-4.93A4.94,4.94,0,0,0,32.3,749Z"/><path d="M59.68,749a4.93,4.93,0,1,0-4.93-4.93A4.93,4.93,0,0,0,59.68,749Z"/><path d="M87.05,749a4.93,4.93,0,1,0-4.93-4.93A4.94,4.94,0,0,0,87.05,749Z"/><path d="M114.43,749a4.93,4.93,0,1,0-4.93-4.93A4.93,4.93,0,0,0,114.43,749Z"/><path d="M141.8,749a4.93,4.93,0,1,0-4.92-4.93A4.94,4.94,0,0,0,141.8,749Z"/><path d="M169.18,749a4.93,4.93,0,1,0-4.93-4.93A4.93,4.93,0,0,0,169.18,749Z"/><path d="M196.55,749a4.93,4.93,0,1,0-4.93-4.93A4.94,4.94,0,0,0,196.55,749Z"/><path d="M223.93,749a4.93,4.93,0,1,0-4.93-4.93A4.93,4.93,0,0,0,223.93,749Z"/><path d="M251.3,749a4.93,4.93,0,1,0-4.92-4.93A4.94,4.94,0,0,0,251.3,749Z"/><path d="M278.68,749a4.93,4.93,0,1,0-4.93-4.93A4.93,4.93,0,0,0,278.68,749Z"/><path d="M306.05,749a4.93,4.93,0,1,0-4.93-4.93A4.94,4.94,0,0,0,306.05,749Z"/><path d="M333.43,749a4.93,4.93,0,1,0-4.93-4.93A4.93,4.93,0,0,0,333.43,749Z"/><path d="M360.8,749a4.93,4.93,0,1,0-4.92-4.93A4.94,4.94,0,0,0,360.8,749Z"/><path d="M388.18,749a4.93,4.93,0,1,0-4.93-4.93A4.93,4.93,0,0,0,388.18,749Z"/><path d="M415.55,749a4.93,4.93,0,1,0-4.93-4.93A4.94,4.94,0,0,0,415.55,749Z"/><path d="M442.93,749a4.93,4.93,0,1,0-4.93-4.93A4.93,4.93,0,0,0,442.93,749Z"/><path d="M470.3,749a4.93,4.93,0,1,0-4.92-4.93A4.94,4.94,0,0,0,470.3,749Z"/><path d="M497.68,749a4.93,4.93,0,1,0-4.93-4.93A4.93,4.93,0,0,0,497.68,749Z"/><path d="M525.05,749a4.93,4.93,0,1,0-4.93-4.93A4.94,4.94,0,0,0,525.05,749Z"/><path d="M552.43,749a4.93,4.93,0,1,0-4.93-4.93A4.93,4.93,0,0,0,552.43,749Z"/><path d="M579.8,749a4.93,4.93,0,1,0-4.92-4.93A4.94,4.94,0,0,0,579.8,749Z"/><path d="M607.18,749a4.93,4.93,0,1,0-4.93-4.93A4.93,4.93,0,0,0,607.18,749Z"/><path d="M634.55,749a4.93,4.93,0,1,0-4.93-4.93A4.94,4.94,0,0,0,634.55,749Z"/><path d="M4.93,776.37A4.94,4.94,0,1,0,0,771.43,4.94,4.94,0,0,0,4.93,776.37Z"/><path d="M32.3,776.37a4.94,4.94,0,1,0-4.92-4.94A4.94,4.94,0,0,0,32.3,776.37Z"/><path d="M59.68,776.37a4.94,4.94,0,1,0-4.93-4.94A4.94,4.94,0,0,0,59.68,776.37Z"/><path d="M87.05,776.37a4.94,4.94,0,1,0-4.93-4.94A4.94,4.94,0,0,0,87.05,776.37Z"/><path d="M114.43,776.37a4.94,4.94,0,1,0-4.93-4.94A4.94,4.94,0,0,0,114.43,776.37Z"/><path d="M141.8,776.37a4.94,4.94,0,1,0-4.92-4.94A4.94,4.94,0,0,0,141.8,776.37Z"/><path d="M169.18,776.37a4.94,4.94,0,1,0-4.93-4.94A4.94,4.94,0,0,0,169.18,776.37Z"/><path d="M196.55,776.37a4.94,4.94,0,1,0-4.93-4.94A4.94,4.94,0,0,0,196.55,776.37Z"/><path d="M223.93,776.37a4.94,4.94,0,1,0-4.93-4.94A4.94,4.94,0,0,0,223.93,776.37Z"/><path d="M251.3,776.37a4.94,4.94,0,1,0-4.92-4.94A4.94,4.94,0,0,0,251.3,776.37Z"/><path d="M278.68,776.37a4.94,4.94,0,1,0-4.93-4.94A4.94,4.94,0,0,0,278.68,776.37Z"/><path d="M306.05,776.37a4.94,4.94,0,1,0-4.93-4.94A4.94,4.94,0,0,0,306.05,776.37Z"/><path d="M333.43,776.37a4.94,4.94,0,1,0-4.93-4.94A4.94,4.94,0,0,0,333.43,776.37Z"/><path d="M360.8,776.37a4.94,4.94,0,1,0-4.92-4.94A4.94,4.94,0,0,0,360.8,776.37Z"/><path d="M388.18,776.37a4.94,4.94,0,1,0-4.93-4.94A4.94,4.94,0,0,0,388.18,776.37Z"/><path d="M415.55,776.37a4.94,4.94,0,1,0-4.93-4.94A4.94,4.94,0,0,0,415.55,776.37Z"/><path d="M442.93,776.37a4.94,4.94,0,1,0-4.93-4.94A4.94,4.94,0,0,0,442.93,776.37Z"/><path d="M470.3,776.37a4.94,4.94,0,1,0-4.92-4.94A4.94,4.94,0,0,0,470.3,776.37Z"/><path d="M497.68,776.37a4.94,4.94,0,1,0-4.93-4.94A4.94,4.94,0,0,0,497.68,776.37Z"/><path d="M525.05,776.37a4.94,4.94,0,1,0-4.93-4.94A4.94,4.94,0,0,0,525.05,776.37Z"/><path d="M552.43,776.37a4.94,4.94,0,1,0-4.93-4.94A4.93,4.93,0,0,0,552.43,776.37Z"/><path d="M579.8,776.37a4.94,4.94,0,1,0-4.92-4.94A4.94,4.94,0,0,0,579.8,776.37Z"/><path d="M607.18,776.37a4.94,4.94,0,1,0-4.93-4.94A4.93,4.93,0,0,0,607.18,776.37Z"/><path d="M634.55,776.37a4.94,4.94,0,1,0-4.93-4.94A4.94,4.94,0,0,0,634.55,776.37Z"/><path d="M4.93,803.74A4.93,4.93,0,1,0,0,798.81,4.93,4.93,0,0,0,4.93,803.74Z"/><path d="M32.3,803.74a4.93,4.93,0,1,0-4.92-4.93A4.94,4.94,0,0,0,32.3,803.74Z"/><path d="M59.68,803.74a4.93,4.93,0,1,0-4.93-4.93A4.93,4.93,0,0,0,59.68,803.74Z"/><path d="M87.05,803.74a4.93,4.93,0,1,0-4.93-4.93A4.94,4.94,0,0,0,87.05,803.74Z"/><path d="M114.43,803.74a4.93,4.93,0,1,0-4.93-4.93A4.93,4.93,0,0,0,114.43,803.74Z"/><path d="M141.8,803.74a4.93,4.93,0,1,0-4.92-4.93A4.94,4.94,0,0,0,141.8,803.74Z"/><path d="M169.18,803.74a4.93,4.93,0,1,0-4.93-4.93A4.93,4.93,0,0,0,169.18,803.74Z"/><path d="M196.55,803.74a4.93,4.93,0,1,0-4.93-4.93A4.94,4.94,0,0,0,196.55,803.74Z"/><path d="M223.93,803.74a4.93,4.93,0,1,0-4.93-4.93A4.93,4.93,0,0,0,223.93,803.74Z"/><path d="M251.3,803.74a4.93,4.93,0,1,0-4.92-4.93A4.94,4.94,0,0,0,251.3,803.74Z"/><path d="M278.68,803.74a4.93,4.93,0,1,0-4.93-4.93A4.93,4.93,0,0,0,278.68,803.74Z"/><path d="M306.05,803.74a4.93,4.93,0,1,0-4.93-4.93A4.94,4.94,0,0,0,306.05,803.74Z"/><path d="M333.43,803.74a4.93,4.93,0,1,0-4.93-4.93A4.93,4.93,0,0,0,333.43,803.74Z"/><path d="M360.8,803.74a4.93,4.93,0,1,0-4.92-4.93A4.94,4.94,0,0,0,360.8,803.74Z"/><path d="M388.18,803.74a4.93,4.93,0,1,0-4.93-4.93A4.93,4.93,0,0,0,388.18,803.74Z"/><path d="M415.55,803.74a4.93,4.93,0,1,0-4.93-4.93A4.94,4.94,0,0,0,415.55,803.74Z"/><path d="M442.93,803.74a4.93,4.93,0,1,0-4.93-4.93A4.93,4.93,0,0,0,442.93,803.74Z"/><path d="M470.3,803.74a4.93,4.93,0,1,0-4.92-4.93A4.94,4.94,0,0,0,470.3,803.74Z"/><path d="M497.68,803.74a4.93,4.93,0,1,0-4.93-4.93A4.93,4.93,0,0,0,497.68,803.74Z"/><path d="M525.05,803.74a4.93,4.93,0,1,0-4.93-4.93A4.94,4.94,0,0,0,525.05,803.74Z"/><path d="M552.43,803.74a4.93,4.93,0,1,0-4.93-4.93A4.93,4.93,0,0,0,552.43,803.74Z"/><path d="M579.8,803.74a4.93,4.93,0,1,0-4.92-4.93A4.94,4.94,0,0,0,579.8,803.74Z"/><path d="M607.18,803.74a4.93,4.93,0,1,0-4.93-4.93A4.93,4.93,0,0,0,607.18,803.74Z"/><path d="M634.55,803.74a4.93,4.93,0,1,0-4.93-4.93A4.94,4.94,0,0,0,634.55,803.74Z"/><path d="M661.93,803.74a4.93,4.93,0,1,0-4.93-4.93A4.93,4.93,0,0,0,661.93,803.74Z"/><path d="M4.93,831.12A4.94,4.94,0,1,0,0,826.18,4.94,4.94,0,0,0,4.93,831.12Z"/><path d="M32.3,831.12a4.94,4.94,0,1,0-4.92-4.94A4.94,4.94,0,0,0,32.3,831.12Z"/><path d="M59.68,831.12a4.94,4.94,0,1,0-4.93-4.94A4.94,4.94,0,0,0,59.68,831.12Z"/><path d="M87.05,831.12a4.94,4.94,0,1,0-4.93-4.94A4.94,4.94,0,0,0,87.05,831.12Z"/><path d="M114.43,831.12a4.94,4.94,0,1,0-4.93-4.94A4.94,4.94,0,0,0,114.43,831.12Z"/><path d="M141.8,831.12a4.94,4.94,0,1,0-4.92-4.94A4.94,4.94,0,0,0,141.8,831.12Z"/><path d="M169.18,831.12a4.94,4.94,0,1,0-4.93-4.94A4.94,4.94,0,0,0,169.18,831.12Z"/><path d="M196.55,831.12a4.94,4.94,0,1,0-4.93-4.94A4.94,4.94,0,0,0,196.55,831.12Z"/><path d="M223.93,831.12a4.94,4.94,0,1,0-4.93-4.94A4.94,4.94,0,0,0,223.93,831.12Z"/><path d="M251.3,831.12a4.94,4.94,0,1,0-4.92-4.94A4.94,4.94,0,0,0,251.3,831.12Z"/><path d="M278.68,831.12a4.94,4.94,0,1,0-4.93-4.94A4.94,4.94,0,0,0,278.68,831.12Z"/><path d="M306.05,831.12a4.94,4.94,0,1,0-4.93-4.94A4.94,4.94,0,0,0,306.05,831.12Z"/><path d="M333.43,831.12a4.94,4.94,0,1,0-4.93-4.94A4.94,4.94,0,0,0,333.43,831.12Z"/><path d="M360.8,831.12a4.94,4.94,0,1,0-4.92-4.94A4.94,4.94,0,0,0,360.8,831.12Z"/><path d="M388.18,831.12a4.94,4.94,0,1,0-4.93-4.94A4.94,4.94,0,0,0,388.18,831.12Z"/><path d="M415.55,831.12a4.94,4.94,0,1,0-4.93-4.94A4.94,4.94,0,0,0,415.55,831.12Z"/><path d="M442.93,831.12a4.94,4.94,0,1,0-4.93-4.94A4.94,4.94,0,0,0,442.93,831.12Z"/><path d="M470.3,831.12a4.94,4.94,0,1,0-4.92-4.94A4.94,4.94,0,0,0,470.3,831.12Z"/><path d="M497.68,831.12a4.94,4.94,0,1,0-4.93-4.94A4.94,4.94,0,0,0,497.68,831.12Z"/><path d="M525.05,831.12a4.94,4.94,0,1,0-4.93-4.94A4.94,4.94,0,0,0,525.05,831.12Z"/><path d="M552.43,831.12a4.94,4.94,0,1,0-4.93-4.94A4.93,4.93,0,0,0,552.43,831.12Z"/><path d="M579.8,831.12a4.94,4.94,0,1,0-4.92-4.94A4.94,4.94,0,0,0,579.8,831.12Z"/><path d="M607.18,831.12a4.94,4.94,0,1,0-4.93-4.94A4.93,4.93,0,0,0,607.18,831.12Z"/><path d="M634.55,831.12a4.94,4.94,0,1,0-4.93-4.94A4.94,4.94,0,0,0,634.55,831.12Z"/><path d="M661.93,831.12a4.94,4.94,0,1,0-4.93-4.94A4.93,4.93,0,0,0,661.93,831.12Z"/><path d="M689.3,831.12a4.94,4.94,0,1,0-4.92-4.94A4.94,4.94,0,0,0,689.3,831.12Z"/><path d="M4.93,858.49A4.93,4.93,0,1,0,0,853.56,4.93,4.93,0,0,0,4.93,858.49Z"/><path d="M32.3,858.49a4.93,4.93,0,1,0-4.92-4.93A4.94,4.94,0,0,0,32.3,858.49Z"/><path d="M59.68,858.49a4.93,4.93,0,1,0-4.93-4.93A4.93,4.93,0,0,0,59.68,858.49Z"/><path d="M87.05,858.49a4.93,4.93,0,1,0-4.93-4.93A4.94,4.94,0,0,0,87.05,858.49Z"/><path d="M114.43,858.49a4.93,4.93,0,1,0-4.93-4.93A4.93,4.93,0,0,0,114.43,858.49Z"/><path d="M141.8,858.49a4.93,4.93,0,1,0-4.92-4.93A4.94,4.94,0,0,0,141.8,858.49Z"/><path d="M169.18,858.49a4.93,4.93,0,1,0-4.93-4.93A4.93,4.93,0,0,0,169.18,858.49Z"/><path d="M196.55,858.49a4.93,4.93,0,1,0-4.93-4.93A4.94,4.94,0,0,0,196.55,858.49Z"/><path d="M223.93,858.49a4.93,4.93,0,1,0-4.93-4.93A4.93,4.93,0,0,0,223.93,858.49Z"/><path d="M251.3,858.49a4.93,4.93,0,1,0-4.92-4.93A4.94,4.94,0,0,0,251.3,858.49Z"/><path d="M278.68,858.49a4.93,4.93,0,1,0-4.93-4.93A4.93,4.93,0,0,0,278.68,858.49Z"/><path d="M306.05,858.49a4.93,4.93,0,1,0-4.93-4.93A4.94,4.94,0,0,0,306.05,858.49Z"/><path d="M333.43,858.49a4.93,4.93,0,1,0-4.93-4.93A4.93,4.93,0,0,0,333.43,858.49Z"/><path d="M360.8,858.49a4.93,4.93,0,1,0-4.92-4.93A4.94,4.94,0,0,0,360.8,858.49Z"/><path d="M388.18,858.49a4.93,4.93,0,1,0-4.93-4.93A4.93,4.93,0,0,0,388.18,858.49Z"/><path d="M415.55,858.49a4.93,4.93,0,1,0-4.93-4.93A4.94,4.94,0,0,0,415.55,858.49Z"/><path d="M442.93,858.49a4.93,4.93,0,1,0-4.93-4.93A4.93,4.93,0,0,0,442.93,858.49Z"/><path d="M470.3,858.49a4.93,4.93,0,1,0-4.92-4.93A4.94,4.94,0,0,0,470.3,858.49Z"/><path d="M497.68,858.49a4.93,4.93,0,1,0-4.93-4.93A4.93,4.93,0,0,0,497.68,858.49Z"/><path d="M525.05,858.49a4.93,4.93,0,1,0-4.93-4.93A4.94,4.94,0,0,0,525.05,858.49Z"/><path d="M552.43,858.49a4.93,4.93,0,1,0-4.93-4.93A4.93,4.93,0,0,0,552.43,858.49Z"/><path d="M579.8,858.49a4.93,4.93,0,1,0-4.92-4.93A4.94,4.94,0,0,0,579.8,858.49Z"/><path d="M607.18,858.49a4.93,4.93,0,1,0-4.93-4.93A4.93,4.93,0,0,0,607.18,858.49Z"/><path d="M634.55,858.49a4.93,4.93,0,1,0-4.93-4.93A4.94,4.94,0,0,0,634.55,858.49Z"/><path d="M661.93,858.49a4.93,4.93,0,1,0-4.93-4.93A4.93,4.93,0,0,0,661.93,858.49Z"/><path d="M689.3,858.49a4.93,4.93,0,1,0-4.92-4.93A4.94,4.94,0,0,0,689.3,858.49Z"/><path d="M4.93,885.87A4.94,4.94,0,1,0,0,880.93,4.94,4.94,0,0,0,4.93,885.87Z"/><path d="M32.3,885.87a4.94,4.94,0,1,0-4.92-4.94A4.94,4.94,0,0,0,32.3,885.87Z"/><path d="M59.68,885.87a4.94,4.94,0,1,0-4.93-4.94A4.94,4.94,0,0,0,59.68,885.87Z"/><path d="M87.05,885.87a4.94,4.94,0,1,0-4.93-4.94A4.94,4.94,0,0,0,87.05,885.87Z"/><path d="M114.43,885.87a4.94,4.94,0,1,0-4.93-4.94A4.94,4.94,0,0,0,114.43,885.87Z"/><path d="M141.8,885.87a4.94,4.94,0,1,0-4.92-4.94A4.94,4.94,0,0,0,141.8,885.87Z"/><path d="M169.18,885.87a4.94,4.94,0,1,0-4.93-4.94A4.94,4.94,0,0,0,169.18,885.87Z"/><path d="M196.55,885.87a4.94,4.94,0,1,0-4.93-4.94A4.94,4.94,0,0,0,196.55,885.87Z"/><path d="M223.93,885.87a4.94,4.94,0,1,0-4.93-4.94A4.94,4.94,0,0,0,223.93,885.87Z"/><path d="M251.3,885.87a4.94,4.94,0,1,0-4.92-4.94A4.94,4.94,0,0,0,251.3,885.87Z"/><path d="M278.68,885.87a4.94,4.94,0,1,0-4.93-4.94A4.94,4.94,0,0,0,278.68,885.87Z"/><path d="M306.05,885.87a4.94,4.94,0,1,0-4.93-4.94A4.94,4.94,0,0,0,306.05,885.87Z"/><path d="M333.43,885.87a4.94,4.94,0,1,0-4.93-4.94A4.94,4.94,0,0,0,333.43,885.87Z"/><path d="M360.8,885.87a4.94,4.94,0,1,0-4.92-4.94A4.94,4.94,0,0,0,360.8,885.87Z"/><path d="M388.18,885.87a4.94,4.94,0,1,0-4.93-4.94A4.94,4.94,0,0,0,388.18,885.87Z"/><path d="M415.55,885.87a4.94,4.94,0,1,0-4.93-4.94A4.94,4.94,0,0,0,415.55,885.87Z"/><path d="M442.93,885.87a4.94,4.94,0,1,0-4.93-4.94A4.94,4.94,0,0,0,442.93,885.87Z"/><path d="M470.3,885.87a4.94,4.94,0,1,0-4.92-4.94A4.94,4.94,0,0,0,470.3,885.87Z"/><path d="M497.68,885.87a4.94,4.94,0,1,0-4.93-4.94A4.94,4.94,0,0,0,497.68,885.87Z"/><path d="M525.05,885.87a4.94,4.94,0,1,0-4.93-4.94A4.94,4.94,0,0,0,525.05,885.87Z"/><path d="M552.43,885.87a4.94,4.94,0,1,0-4.93-4.94A4.93,4.93,0,0,0,552.43,885.87Z"/><path d="M579.8,885.87a4.94,4.94,0,1,0-4.92-4.94A4.94,4.94,0,0,0,579.8,885.87Z"/><path d="M607.18,885.87a4.94,4.94,0,1,0-4.93-4.94A4.93,4.93,0,0,0,607.18,885.87Z"/><path d="M634.55,885.87a4.94,4.94,0,1,0-4.93-4.94A4.94,4.94,0,0,0,634.55,885.87Z"/><path d="M661.93,885.87a4.94,4.94,0,1,0-4.93-4.94A4.93,4.93,0,0,0,661.93,885.87Z"/><path d="M689.3,885.87a4.94,4.94,0,1,0-4.92-4.94A4.94,4.94,0,0,0,689.3,885.87Z"/><path d="M716.68,885.87a4.94,4.94,0,1,0-4.93-4.94A4.93,4.93,0,0,0,716.68,885.87Z"/><path d="M4.93,913.24A4.93,4.93,0,1,0,0,908.31,4.93,4.93,0,0,0,4.93,913.24Z"/><path d="M32.3,913.24a4.93,4.93,0,1,0-4.92-4.93A4.94,4.94,0,0,0,32.3,913.24Z"/><path d="M59.68,913.24a4.93,4.93,0,1,0-4.93-4.93A4.93,4.93,0,0,0,59.68,913.24Z"/><path d="M87.05,913.24a4.93,4.93,0,1,0-4.93-4.93A4.94,4.94,0,0,0,87.05,913.24Z"/><path d="M114.43,913.24a4.93,4.93,0,1,0-4.93-4.93A4.93,4.93,0,0,0,114.43,913.24Z"/><path d="M141.8,913.24a4.93,4.93,0,1,0-4.92-4.93A4.94,4.94,0,0,0,141.8,913.24Z"/><path d="M169.18,913.24a4.93,4.93,0,1,0-4.93-4.93A4.93,4.93,0,0,0,169.18,913.24Z"/><path d="M196.55,913.24a4.93,4.93,0,1,0-4.93-4.93A4.94,4.94,0,0,0,196.55,913.24Z"/><path d="M223.93,913.24a4.93,4.93,0,1,0-4.93-4.93A4.93,4.93,0,0,0,223.93,913.24Z"/><path d="M251.3,913.24a4.93,4.93,0,1,0-4.92-4.93A4.94,4.94,0,0,0,251.3,913.24Z"/><path d="M278.68,913.24a4.93,4.93,0,1,0-4.93-4.93A4.93,4.93,0,0,0,278.68,913.24Z"/><path d="M306.05,913.24a4.93,4.93,0,1,0-4.93-4.93A4.94,4.94,0,0,0,306.05,913.24Z"/><path d="M333.43,913.24a4.93,4.93,0,1,0-4.93-4.93A4.93,4.93,0,0,0,333.43,913.24Z"/><path d="M360.8,913.24a4.93,4.93,0,1,0-4.92-4.93A4.94,4.94,0,0,0,360.8,913.24Z"/><path d="M388.18,913.24a4.93,4.93,0,1,0-4.93-4.93A4.93,4.93,0,0,0,388.18,913.24Z"/><path d="M415.55,913.24a4.93,4.93,0,1,0-4.93-4.93A4.94,4.94,0,0,0,415.55,913.24Z"/><path d="M442.93,913.24a4.93,4.93,0,1,0-4.93-4.93A4.93,4.93,0,0,0,442.93,913.24Z"/><path d="M470.3,913.24a4.93,4.93,0,1,0-4.92-4.93A4.94,4.94,0,0,0,470.3,913.24Z"/><path d="M497.68,913.24a4.93,4.93,0,1,0-4.93-4.93A4.93,4.93,0,0,0,497.68,913.24Z"/><path d="M525.05,913.24a4.93,4.93,0,1,0-4.93-4.93A4.94,4.94,0,0,0,525.05,913.24Z"/><path d="M552.43,913.24a4.93,4.93,0,1,0-4.93-4.93A4.93,4.93,0,0,0,552.43,913.24Z"/><path d="M579.8,913.24a4.93,4.93,0,1,0-4.92-4.93A4.94,4.94,0,0,0,579.8,913.24Z"/><path d="M607.18,913.24a4.93,4.93,0,1,0-4.93-4.93A4.93,4.93,0,0,0,607.18,913.24Z"/><path d="M634.55,913.24a4.93,4.93,0,1,0-4.93-4.93A4.94,4.94,0,0,0,634.55,913.24Z"/><path d="M661.93,913.24a4.93,4.93,0,1,0-4.93-4.93A4.93,4.93,0,0,0,661.93,913.24Z"/><path d="M689.3,913.24a4.93,4.93,0,1,0-4.92-4.93A4.94,4.94,0,0,0,689.3,913.24Z"/><path d="M716.68,913.24a4.93,4.93,0,1,0-4.93-4.93A4.93,4.93,0,0,0,716.68,913.24Z"/><path d="M744.05,913.24a4.93,4.93,0,1,0-4.93-4.93A4.94,4.94,0,0,0,744.05,913.24Z"/><path d="M4.93,940.62A4.94,4.94,0,1,0,0,935.68,4.94,4.94,0,0,0,4.93,940.62Z"/><path d="M32.3,940.62a4.94,4.94,0,1,0-4.92-4.94A4.94,4.94,0,0,0,32.3,940.62Z"/><path d="M59.68,940.62a4.94,4.94,0,1,0-4.93-4.94A4.94,4.94,0,0,0,59.68,940.62Z"/><path d="M87.05,940.62a4.94,4.94,0,1,0-4.93-4.94A4.94,4.94,0,0,0,87.05,940.62Z"/><path d="M114.43,940.62a4.94,4.94,0,1,0-4.93-4.94A4.94,4.94,0,0,0,114.43,940.62Z"/><path d="M141.8,940.62a4.94,4.94,0,1,0-4.92-4.94A4.94,4.94,0,0,0,141.8,940.62Z"/><path d="M169.18,940.62a4.94,4.94,0,1,0-4.93-4.94A4.94,4.94,0,0,0,169.18,940.62Z"/><path d="M196.55,940.62a4.94,4.94,0,1,0-4.93-4.94A4.94,4.94,0,0,0,196.55,940.62Z"/><path d="M223.93,940.62a4.94,4.94,0,1,0-4.93-4.94A4.94,4.94,0,0,0,223.93,940.62Z"/><path d="M251.3,940.62a4.94,4.94,0,1,0-4.92-4.94A4.94,4.94,0,0,0,251.3,940.62Z"/><path d="M278.68,940.62a4.94,4.94,0,1,0-4.93-4.94A4.94,4.94,0,0,0,278.68,940.62Z"/><path d="M306.05,940.62a4.94,4.94,0,1,0-4.93-4.94A4.94,4.94,0,0,0,306.05,940.62Z"/><path d="M333.43,940.62a4.94,4.94,0,1,0-4.93-4.94A4.94,4.94,0,0,0,333.43,940.62Z"/><path d="M360.8,940.62a4.94,4.94,0,1,0-4.92-4.94A4.94,4.94,0,0,0,360.8,940.62Z"/><path d="M388.18,940.62a4.94,4.94,0,1,0-4.93-4.94A4.94,4.94,0,0,0,388.18,940.62Z"/><path d="M415.55,940.62a4.94,4.94,0,1,0-4.93-4.94A4.94,4.94,0,0,0,415.55,940.62Z"/><path d="M442.93,940.62a4.94,4.94,0,1,0-4.93-4.94A4.94,4.94,0,0,0,442.93,940.62Z"/><path d="M470.3,940.62a4.94,4.94,0,1,0-4.92-4.94A4.94,4.94,0,0,0,470.3,940.62Z"/><path d="M497.68,940.62a4.94,4.94,0,1,0-4.93-4.94A4.94,4.94,0,0,0,497.68,940.62Z"/><path d="M525.05,940.62a4.94,4.94,0,1,0-4.93-4.94A4.94,4.94,0,0,0,525.05,940.62Z"/><path d="M552.43,940.62a4.94,4.94,0,1,0-4.93-4.94A4.93,4.93,0,0,0,552.43,940.62Z"/><path d="M579.8,940.62a4.94,4.94,0,1,0-4.92-4.94A4.94,4.94,0,0,0,579.8,940.62Z"/><path d="M607.18,940.62a4.94,4.94,0,1,0-4.93-4.94A4.93,4.93,0,0,0,607.18,940.62Z"/><path d="M634.55,940.62a4.94,4.94,0,1,0-4.93-4.94A4.94,4.94,0,0,0,634.55,940.62Z"/><path d="M661.93,940.62a4.94,4.94,0,1,0-4.93-4.94A4.93,4.93,0,0,0,661.93,940.62Z"/><path d="M689.3,940.62a4.94,4.94,0,1,0-4.92-4.94A4.94,4.94,0,0,0,689.3,940.62Z"/><path d="M716.68,940.62a4.94,4.94,0,1,0-4.93-4.94A4.93,4.93,0,0,0,716.68,940.62Z"/><path d="M744.05,940.62a4.94,4.94,0,1,0-4.93-4.94A4.94,4.94,0,0,0,744.05,940.62Z"/><path d="M771.43,940.62a4.94,4.94,0,1,0-4.93-4.94A4.93,4.93,0,0,0,771.43,940.62Z"/><path d="M4.93,968A4.93,4.93,0,1,0,0,963.06,4.93,4.93,0,0,0,4.93,968Z"/><path d="M32.3,968a4.93,4.93,0,1,0-4.92-4.93A4.94,4.94,0,0,0,32.3,968Z"/><path d="M59.68,968a4.93,4.93,0,1,0-4.93-4.93A4.93,4.93,0,0,0,59.68,968Z"/><path d="M87.05,968a4.93,4.93,0,1,0-4.93-4.93A4.94,4.94,0,0,0,87.05,968Z"/><path d="M114.43,968a4.93,4.93,0,1,0-4.93-4.93A4.93,4.93,0,0,0,114.43,968Z"/><path d="M141.8,968a4.93,4.93,0,1,0-4.92-4.93A4.94,4.94,0,0,0,141.8,968Z"/><path d="M169.18,968a4.93,4.93,0,1,0-4.93-4.93A4.93,4.93,0,0,0,169.18,968Z"/><path d="M196.55,968a4.93,4.93,0,1,0-4.93-4.93A4.94,4.94,0,0,0,196.55,968Z"/><path d="M223.93,968a4.93,4.93,0,1,0-4.93-4.93A4.93,4.93,0,0,0,223.93,968Z"/><path d="M251.3,968a4.93,4.93,0,1,0-4.92-4.93A4.94,4.94,0,0,0,251.3,968Z"/><path d="M278.68,968a4.93,4.93,0,1,0-4.93-4.93A4.93,4.93,0,0,0,278.68,968Z"/><path d="M306.05,968a4.93,4.93,0,1,0-4.93-4.93A4.94,4.94,0,0,0,306.05,968Z"/><path d="M333.43,968a4.93,4.93,0,1,0-4.93-4.93A4.93,4.93,0,0,0,333.43,968Z"/><path d="M360.8,968a4.93,4.93,0,1,0-4.92-4.93A4.94,4.94,0,0,0,360.8,968Z"/><path d="M388.18,968a4.93,4.93,0,1,0-4.93-4.93A4.93,4.93,0,0,0,388.18,968Z"/><path d="M415.55,968a4.93,4.93,0,1,0-4.93-4.93A4.94,4.94,0,0,0,415.55,968Z"/><path d="M442.93,968a4.93,4.93,0,1,0-4.93-4.93A4.93,4.93,0,0,0,442.93,968Z"/><path d="M470.3,968a4.93,4.93,0,1,0-4.92-4.93A4.94,4.94,0,0,0,470.3,968Z"/><path d="M497.68,968a4.93,4.93,0,1,0-4.93-4.93A4.93,4.93,0,0,0,497.68,968Z"/><path d="M525.05,968a4.93,4.93,0,1,0-4.93-4.93A4.94,4.94,0,0,0,525.05,968Z"/><path d="M552.43,968a4.93,4.93,0,1,0-4.93-4.93A4.93,4.93,0,0,0,552.43,968Z"/><path d="M579.8,968a4.93,4.93,0,1,0-4.92-4.93A4.94,4.94,0,0,0,579.8,968Z"/><path d="M607.18,968a4.93,4.93,0,1,0-4.93-4.93A4.93,4.93,0,0,0,607.18,968Z"/><path d="M634.55,968a4.93,4.93,0,1,0-4.93-4.93A4.94,4.94,0,0,0,634.55,968Z"/><path d="M661.93,968a4.93,4.93,0,1,0-4.93-4.93A4.93,4.93,0,0,0,661.93,968Z"/><path d="M689.3,968a4.93,4.93,0,1,0-4.92-4.93A4.94,4.94,0,0,0,689.3,968Z"/><path d="M716.68,968a4.93,4.93,0,1,0-4.93-4.93A4.93,4.93,0,0,0,716.68,968Z"/><path d="M744.05,968a4.93,4.93,0,1,0-4.93-4.93A4.94,4.94,0,0,0,744.05,968Z"/><path d="M771.43,968a4.93,4.93,0,1,0-4.93-4.93A4.93,4.93,0,0,0,771.43,968Z"/><path d="M4.93,995.37A4.94,4.94,0,1,0,0,990.43,4.94,4.94,0,0,0,4.93,995.37Z"/><path d="M32.3,995.37a4.94,4.94,0,1,0-4.92-4.94A4.94,4.94,0,0,0,32.3,995.37Z"/><path d="M59.68,995.37a4.94,4.94,0,1,0-4.93-4.94A4.94,4.94,0,0,0,59.68,995.37Z"/><path d="M87.05,995.37a4.94,4.94,0,1,0-4.93-4.94A4.94,4.94,0,0,0,87.05,995.37Z"/><path d="M114.43,995.37a4.94,4.94,0,1,0-4.93-4.94A4.94,4.94,0,0,0,114.43,995.37Z"/><path d="M141.8,995.37a4.94,4.94,0,1,0-4.92-4.94A4.94,4.94,0,0,0,141.8,995.37Z"/><path d="M169.18,995.37a4.94,4.94,0,1,0-4.93-4.94A4.94,4.94,0,0,0,169.18,995.37Z"/><path d="M196.55,995.37a4.94,4.94,0,1,0-4.93-4.94A4.94,4.94,0,0,0,196.55,995.37Z"/><path d="M223.93,995.37a4.94,4.94,0,1,0-4.93-4.94A4.94,4.94,0,0,0,223.93,995.37Z"/><path d="M251.3,995.37a4.94,4.94,0,1,0-4.92-4.94A4.94,4.94,0,0,0,251.3,995.37Z"/><path d="M278.68,995.37a4.94,4.94,0,1,0-4.93-4.94A4.94,4.94,0,0,0,278.68,995.37Z"/><path d="M306.05,995.37a4.94,4.94,0,1,0-4.93-4.94A4.94,4.94,0,0,0,306.05,995.37Z"/><path d="M333.43,995.37a4.94,4.94,0,1,0-4.93-4.94A4.94,4.94,0,0,0,333.43,995.37Z"/><path d="M360.8,995.37a4.94,4.94,0,1,0-4.92-4.94A4.94,4.94,0,0,0,360.8,995.37Z"/><path d="M388.18,995.37a4.94,4.94,0,1,0-4.93-4.94A4.94,4.94,0,0,0,388.18,995.37Z"/><path d="M415.55,995.37a4.94,4.94,0,1,0-4.93-4.94A4.94,4.94,0,0,0,415.55,995.37Z"/><path d="M442.93,995.37a4.94,4.94,0,1,0-4.93-4.94A4.94,4.94,0,0,0,442.93,995.37Z"/><path d="M470.3,995.37a4.94,4.94,0,1,0-4.92-4.94A4.94,4.94,0,0,0,470.3,995.37Z"/><path d="M497.68,995.37a4.94,4.94,0,1,0-4.93-4.94A4.94,4.94,0,0,0,497.68,995.37Z"/><path d="M525.05,995.37a4.94,4.94,0,1,0-4.93-4.94A4.94,4.94,0,0,0,525.05,995.37Z"/><path d="M552.43,995.37a4.94,4.94,0,1,0-4.93-4.94A4.93,4.93,0,0,0,552.43,995.37Z"/><path d="M579.8,995.37a4.94,4.94,0,1,0-4.92-4.94A4.94,4.94,0,0,0,579.8,995.37Z"/><path d="M607.18,995.37a4.94,4.94,0,1,0-4.93-4.94A4.93,4.93,0,0,0,607.18,995.37Z"/><path d="M634.55,995.37a4.94,4.94,0,1,0-4.93-4.94A4.94,4.94,0,0,0,634.55,995.37Z"/><path d="M661.93,995.37a4.94,4.94,0,1,0-4.93-4.94A4.93,4.93,0,0,0,661.93,995.37Z"/><path d="M689.3,995.37a4.94,4.94,0,1,0-4.92-4.94A4.94,4.94,0,0,0,689.3,995.37Z"/><path d="M716.68,995.37a4.94,4.94,0,1,0-4.93-4.94A4.93,4.93,0,0,0,716.68,995.37Z"/><path d="M744.05,995.37a4.94,4.94,0,1,0-4.93-4.94A4.94,4.94,0,0,0,744.05,995.37Z"/><path d="M771.43,995.37a4.94,4.94,0,1,0-4.93-4.94A4.93,4.93,0,0,0,771.43,995.37Z"/><path d="M4.93,1022.74A4.93,4.93,0,1,0,0,1017.81,4.93,4.93,0,0,0,4.93,1022.74Z"/><path d="M32.3,1022.74a4.93,4.93,0,1,0-4.92-4.93A4.94,4.94,0,0,0,32.3,1022.74Z"/><path d="M59.68,1022.74a4.93,4.93,0,1,0-4.93-4.93A4.93,4.93,0,0,0,59.68,1022.74Z"/><path d="M87.05,1022.74a4.93,4.93,0,1,0-4.93-4.93A4.94,4.94,0,0,0,87.05,1022.74Z"/><path d="M114.43,1022.74a4.93,4.93,0,1,0-4.93-4.93A4.93,4.93,0,0,0,114.43,1022.74Z"/><path d="M141.8,1022.74a4.93,4.93,0,1,0-4.92-4.93A4.94,4.94,0,0,0,141.8,1022.74Z"/><path d="M169.18,1022.74a4.93,4.93,0,1,0-4.93-4.93A4.93,4.93,0,0,0,169.18,1022.74Z"/><path d="M196.55,1022.74a4.93,4.93,0,1,0-4.93-4.93A4.94,4.94,0,0,0,196.55,1022.74Z"/><path d="M223.93,1022.74a4.93,4.93,0,1,0-4.93-4.93A4.93,4.93,0,0,0,223.93,1022.74Z"/><path d="M251.3,1022.74a4.93,4.93,0,1,0-4.92-4.93A4.94,4.94,0,0,0,251.3,1022.74Z"/><path d="M278.68,1022.74a4.93,4.93,0,1,0-4.93-4.93A4.93,4.93,0,0,0,278.68,1022.74Z"/><path d="M306.05,1022.74a4.93,4.93,0,1,0-4.93-4.93A4.94,4.94,0,0,0,306.05,1022.74Z"/><path d="M333.43,1022.74a4.93,4.93,0,1,0-4.93-4.93A4.93,4.93,0,0,0,333.43,1022.74Z"/><path d="M360.8,1022.74a4.93,4.93,0,1,0-4.92-4.93A4.94,4.94,0,0,0,360.8,1022.74Z"/><path d="M388.18,1022.74a4.93,4.93,0,1,0-4.93-4.93A4.93,4.93,0,0,0,388.18,1022.74Z"/><path d="M415.55,1022.74a4.93,4.93,0,1,0-4.93-4.93A4.94,4.94,0,0,0,415.55,1022.74Z"/><path d="M442.93,1022.74a4.93,4.93,0,1,0-4.93-4.93A4.93,4.93,0,0,0,442.93,1022.74Z"/><path d="M470.3,1022.74a4.93,4.93,0,1,0-4.92-4.93A4.94,4.94,0,0,0,470.3,1022.74Z"/><path d="M497.68,1022.74a4.93,4.93,0,1,0-4.93-4.93A4.93,4.93,0,0,0,497.68,1022.74Z"/><path d="M525.05,1022.74a4.93,4.93,0,1,0-4.93-4.93A4.94,4.94,0,0,0,525.05,1022.74Z"/><path d="M552.43,1022.74a4.93,4.93,0,1,0-4.93-4.93A4.93,4.93,0,0,0,552.43,1022.74Z"/><path d="M579.8,1022.74a4.93,4.93,0,1,0-4.92-4.93A4.94,4.94,0,0,0,579.8,1022.74Z"/><path d="M607.18,1022.74a4.93,4.93,0,1,0-4.93-4.93A4.93,4.93,0,0,0,607.18,1022.74Z"/><path d="M634.55,1022.74a4.93,4.93,0,1,0-4.93-4.93A4.94,4.94,0,0,0,634.55,1022.74Z"/><path d="M661.93,1022.74a4.93,4.93,0,1,0-4.93-4.93A4.93,4.93,0,0,0,661.93,1022.74Z"/><path d="M689.3,1022.74a4.93,4.93,0,1,0-4.92-4.93A4.94,4.94,0,0,0,689.3,1022.74Z"/><path d="M716.68,1022.74a4.93,4.93,0,1,0-4.93-4.93A4.93,4.93,0,0,0,716.68,1022.74Z"/><path d="M744.05,1022.74a4.93,4.93,0,1,0-4.93-4.93A4.94,4.94,0,0,0,744.05,1022.74Z"/><path d="M771.43,1022.74a4.93,4.93,0,1,0-4.93-4.93A4.93,4.93,0,0,0,771.43,1022.74Z"/><path d="M4.93,1050.12A4.94,4.94,0,1,0,0,1045.18,4.94,4.94,0,0,0,4.93,1050.12Z"/><path d="M32.3,1050.12a4.94,4.94,0,1,0-4.92-4.94A4.94,4.94,0,0,0,32.3,1050.12Z"/><path d="M59.68,1050.12a4.94,4.94,0,1,0-4.93-4.94A4.94,4.94,0,0,0,59.68,1050.12Z"/><path d="M87.05,1050.12a4.94,4.94,0,1,0-4.93-4.94A4.94,4.94,0,0,0,87.05,1050.12Z"/><path d="M114.43,1050.12a4.94,4.94,0,1,0-4.93-4.94A4.94,4.94,0,0,0,114.43,1050.12Z"/><path d="M141.8,1050.12a4.94,4.94,0,1,0-4.92-4.94A4.94,4.94,0,0,0,141.8,1050.12Z"/><path d="M169.18,1050.12a4.94,4.94,0,1,0-4.93-4.94A4.94,4.94,0,0,0,169.18,1050.12Z"/><path d="M196.55,1050.12a4.94,4.94,0,1,0-4.93-4.94A4.94,4.94,0,0,0,196.55,1050.12Z"/><path d="M223.93,1050.12a4.94,4.94,0,1,0-4.93-4.94A4.94,4.94,0,0,0,223.93,1050.12Z"/><path d="M251.3,1050.12a4.94,4.94,0,1,0-4.92-4.94A4.94,4.94,0,0,0,251.3,1050.12Z"/><path d="M278.68,1050.12a4.94,4.94,0,1,0-4.93-4.94A4.94,4.94,0,0,0,278.68,1050.12Z"/><path d="M306.05,1050.12a4.94,4.94,0,1,0-4.93-4.94A4.94,4.94,0,0,0,306.05,1050.12Z"/><path d="M333.43,1050.12a4.94,4.94,0,1,0-4.93-4.94A4.94,4.94,0,0,0,333.43,1050.12Z"/><path d="M360.8,1050.12a4.94,4.94,0,1,0-4.92-4.94A4.94,4.94,0,0,0,360.8,1050.12Z"/><path d="M388.18,1050.12a4.94,4.94,0,1,0-4.93-4.94A4.94,4.94,0,0,0,388.18,1050.12Z"/><path d="M415.55,1050.12a4.94,4.94,0,1,0-4.93-4.94A4.94,4.94,0,0,0,415.55,1050.12Z"/><path d="M442.93,1050.12a4.94,4.94,0,1,0-4.93-4.94A4.94,4.94,0,0,0,442.93,1050.12Z"/><path d="M470.3,1050.12a4.94,4.94,0,1,0-4.92-4.94A4.94,4.94,0,0,0,470.3,1050.12Z"/><path d="M497.68,1050.12a4.94,4.94,0,1,0-4.93-4.94A4.94,4.94,0,0,0,497.68,1050.12Z"/><path d="M525.05,1050.12a4.94,4.94,0,1,0-4.93-4.94A4.94,4.94,0,0,0,525.05,1050.12Z"/><path d="M552.43,1050.12a4.94,4.94,0,1,0-4.93-4.94A4.93,4.93,0,0,0,552.43,1050.12Z"/><path d="M579.8,1050.12a4.94,4.94,0,1,0-4.92-4.94A4.94,4.94,0,0,0,579.8,1050.12Z"/><path d="M607.18,1050.12a4.94,4.94,0,1,0-4.93-4.94A4.93,4.93,0,0,0,607.18,1050.12Z"/><path d="M634.55,1050.12a4.94,4.94,0,1,0-4.93-4.94A4.94,4.94,0,0,0,634.55,1050.12Z"/><path d="M661.93,1050.12a4.94,4.94,0,1,0-4.93-4.94A4.93,4.93,0,0,0,661.93,1050.12Z"/><path d="M689.3,1050.12a4.94,4.94,0,1,0-4.92-4.94A4.94,4.94,0,0,0,689.3,1050.12Z"/><path d="M716.68,1050.12a4.94,4.94,0,1,0-4.93-4.94A4.93,4.93,0,0,0,716.68,1050.12Z"/><path d="M744.05,1050.12a4.94,4.94,0,1,0-4.93-4.94A4.94,4.94,0,0,0,744.05,1050.12Z"/><path d="M771.43,1050.12a4.94,4.94,0,1,0-4.93-4.94A4.93,4.93,0,0,0,771.43,1050.12Z"/><path d="M4.93,1077.49A4.93,4.93,0,1,0,0,1072.56,4.93,4.93,0,0,0,4.93,1077.49Z"/><path d="M32.3,1077.49a4.93,4.93,0,1,0-4.92-4.93A4.94,4.94,0,0,0,32.3,1077.49Z"/><path d="M59.68,1077.49a4.93,4.93,0,1,0-4.93-4.93A4.93,4.93,0,0,0,59.68,1077.49Z"/><path d="M87.05,1077.49a4.93,4.93,0,1,0-4.93-4.93A4.94,4.94,0,0,0,87.05,1077.49Z"/><path d="M114.43,1077.49a4.93,4.93,0,1,0-4.93-4.93A4.93,4.93,0,0,0,114.43,1077.49Z"/><path d="M141.8,1077.49a4.93,4.93,0,1,0-4.92-4.93A4.94,4.94,0,0,0,141.8,1077.49Z"/><path d="M169.18,1077.49a4.93,4.93,0,1,0-4.93-4.93A4.93,4.93,0,0,0,169.18,1077.49Z"/><path d="M196.55,1077.49a4.93,4.93,0,1,0-4.93-4.93A4.94,4.94,0,0,0,196.55,1077.49Z"/><path d="M223.93,1077.49a4.93,4.93,0,1,0-4.93-4.93A4.93,4.93,0,0,0,223.93,1077.49Z"/><path d="M251.3,1077.49a4.93,4.93,0,1,0-4.92-4.93A4.94,4.94,0,0,0,251.3,1077.49Z"/><path d="M278.68,1077.49a4.93,4.93,0,1,0-4.93-4.93A4.93,4.93,0,0,0,278.68,1077.49Z"/><path d="M306.05,1077.49a4.93,4.93,0,1,0-4.93-4.93A4.94,4.94,0,0,0,306.05,1077.49Z"/><path d="M333.43,1077.49a4.93,4.93,0,1,0-4.93-4.93A4.93,4.93,0,0,0,333.43,1077.49Z"/><path d="M360.8,1077.49a4.93,4.93,0,1,0-4.92-4.93A4.94,4.94,0,0,0,360.8,1077.49Z"/><path d="M388.18,1077.49a4.93,4.93,0,1,0-4.93-4.93A4.93,4.93,0,0,0,388.18,1077.49Z"/><path d="M415.55,1077.49a4.93,4.93,0,1,0-4.93-4.93A4.94,4.94,0,0,0,415.55,1077.49Z"/><path d="M442.93,1077.49a4.93,4.93,0,1,0-4.93-4.93A4.93,4.93,0,0,0,442.93,1077.49Z"/><path d="M470.3,1077.49a4.93,4.93,0,1,0-4.92-4.93A4.94,4.94,0,0,0,470.3,1077.49Z"/><path d="M497.68,1077.49a4.93,4.93,0,1,0-4.93-4.93A4.93,4.93,0,0,0,497.68,1077.49Z"/><path d="M525.05,1077.49a4.93,4.93,0,1,0-4.93-4.93A4.94,4.94,0,0,0,525.05,1077.49Z"/><path d="M552.43,1077.49a4.93,4.93,0,1,0-4.93-4.93A4.93,4.93,0,0,0,552.43,1077.49Z"/><path d="M579.8,1077.49a4.93,4.93,0,1,0-4.92-4.93A4.94,4.94,0,0,0,579.8,1077.49Z"/><path d="M607.18,1077.49a4.93,4.93,0,1,0-4.93-4.93A4.93,4.93,0,0,0,607.18,1077.49Z"/><path d="M634.55,1077.49a4.93,4.93,0,1,0-4.93-4.93A4.94,4.94,0,0,0,634.55,1077.49Z"/><path d="M661.93,1077.49a4.93,4.93,0,1,0-4.93-4.93A4.93,4.93,0,0,0,661.93,1077.49Z"/><path d="M689.3,1077.49a4.93,4.93,0,1,0-4.92-4.93A4.94,4.94,0,0,0,689.3,1077.49Z"/><path d="M716.68,1077.49a4.93,4.93,0,1,0-4.93-4.93A4.93,4.93,0,0,0,716.68,1077.49Z"/><path d="M744.05,1077.49a4.93,4.93,0,1,0-4.93-4.93A4.94,4.94,0,0,0,744.05,1077.49Z"/><path d="M771.43,1077.49a4.93,4.93,0,1,0-4.93-4.93A4.93,4.93,0,0,0,771.43,1077.49Z"/><path d="M4.93,1104.87A4.94,4.94,0,1,0,0,1099.93,4.94,4.94,0,0,0,4.93,1104.87Z"/><path d="M32.3,1104.87a4.94,4.94,0,1,0-4.92-4.94A4.94,4.94,0,0,0,32.3,1104.87Z"/><path d="M59.68,1104.87a4.94,4.94,0,1,0-4.93-4.94A4.94,4.94,0,0,0,59.68,1104.87Z"/><path d="M87.05,1104.87a4.94,4.94,0,1,0-4.93-4.94A4.94,4.94,0,0,0,87.05,1104.87Z"/><path d="M114.43,1104.87a4.94,4.94,0,1,0-4.93-4.94A4.94,4.94,0,0,0,114.43,1104.87Z"/><path d="M141.8,1104.87a4.94,4.94,0,1,0-4.92-4.94A4.94,4.94,0,0,0,141.8,1104.87Z"/><path d="M169.18,1104.87a4.94,4.94,0,1,0-4.93-4.94A4.94,4.94,0,0,0,169.18,1104.87Z"/><path d="M196.55,1104.87a4.94,4.94,0,1,0-4.93-4.94A4.94,4.94,0,0,0,196.55,1104.87Z"/><path d="M223.93,1104.87a4.94,4.94,0,1,0-4.93-4.94A4.94,4.94,0,0,0,223.93,1104.87Z"/><path d="M251.3,1104.87a4.94,4.94,0,1,0-4.92-4.94A4.94,4.94,0,0,0,251.3,1104.87Z"/><path d="M278.68,1104.87a4.94,4.94,0,1,0-4.93-4.94A4.94,4.94,0,0,0,278.68,1104.87Z"/><path d="M306.05,1104.87a4.94,4.94,0,1,0-4.93-4.94A4.94,4.94,0,0,0,306.05,1104.87Z"/><path d="M333.43,1104.87a4.94,4.94,0,1,0-4.93-4.94A4.94,4.94,0,0,0,333.43,1104.87Z"/><path d="M360.8,1104.87a4.94,4.94,0,1,0-4.92-4.94A4.94,4.94,0,0,0,360.8,1104.87Z"/><path d="M388.18,1104.87a4.94,4.94,0,1,0-4.93-4.94A4.94,4.94,0,0,0,388.18,1104.87Z"/><path d="M415.55,1104.87a4.94,4.94,0,1,0-4.93-4.94A4.94,4.94,0,0,0,415.55,1104.87Z"/><path d="M442.93,1104.87a4.94,4.94,0,1,0-4.93-4.94A4.94,4.94,0,0,0,442.93,1104.87Z"/><path d="M470.3,1104.87a4.94,4.94,0,1,0-4.92-4.94A4.94,4.94,0,0,0,470.3,1104.87Z"/><path d="M497.68,1104.87a4.94,4.94,0,1,0-4.93-4.94A4.94,4.94,0,0,0,497.68,1104.87Z"/><path d="M525.05,1104.87a4.94,4.94,0,1,0-4.93-4.94A4.94,4.94,0,0,0,525.05,1104.87Z"/><path d="M552.43,1104.87a4.94,4.94,0,1,0-4.93-4.94A4.93,4.93,0,0,0,552.43,1104.87Z"/><path d="M579.8,1104.87a4.94,4.94,0,1,0-4.92-4.94A4.94,4.94,0,0,0,579.8,1104.87Z"/><path d="M607.18,1104.87a4.94,4.94,0,1,0-4.93-4.94A4.93,4.93,0,0,0,607.18,1104.87Z"/><path d="M634.55,1104.87a4.94,4.94,0,1,0-4.93-4.94A4.94,4.94,0,0,0,634.55,1104.87Z"/><path d="M661.93,1104.87a4.94,4.94,0,1,0-4.93-4.94A4.93,4.93,0,0,0,661.93,1104.87Z"/><path d="M689.3,1104.87a4.94,4.94,0,1,0-4.92-4.94A4.94,4.94,0,0,0,689.3,1104.87Z"/><path d="M716.68,1104.87a4.94,4.94,0,1,0-4.93-4.94A4.93,4.93,0,0,0,716.68,1104.87Z"/><path d="M744.05,1104.87a4.94,4.94,0,1,0-4.93-4.94A4.94,4.94,0,0,0,744.05,1104.87Z"/><path d="M771.43,1104.87a4.94,4.94,0,1,0-4.93-4.94A4.93,4.93,0,0,0,771.43,1104.87Z"/><path d="M4.93,1132.24A4.93,4.93,0,1,0,0,1127.31,4.93,4.93,0,0,0,4.93,1132.24Z"/><path d="M32.3,1132.24a4.93,4.93,0,1,0-4.92-4.93A4.94,4.94,0,0,0,32.3,1132.24Z"/><path d="M59.68,1132.24a4.93,4.93,0,1,0-4.93-4.93A4.93,4.93,0,0,0,59.68,1132.24Z"/><path d="M87.05,1132.24a4.93,4.93,0,1,0-4.93-4.93A4.94,4.94,0,0,0,87.05,1132.24Z"/><path d="M114.43,1132.24a4.93,4.93,0,1,0-4.93-4.93A4.93,4.93,0,0,0,114.43,1132.24Z"/><path d="M141.8,1132.24a4.93,4.93,0,1,0-4.92-4.93A4.94,4.94,0,0,0,141.8,1132.24Z"/><path d="M169.18,1132.24a4.93,4.93,0,1,0-4.93-4.93A4.93,4.93,0,0,0,169.18,1132.24Z"/><path d="M196.55,1132.24a4.93,4.93,0,1,0-4.93-4.93A4.94,4.94,0,0,0,196.55,1132.24Z"/><path d="M223.93,1132.24a4.93,4.93,0,1,0-4.93-4.93A4.93,4.93,0,0,0,223.93,1132.24Z"/><path d="M251.3,1132.24a4.93,4.93,0,1,0-4.92-4.93A4.94,4.94,0,0,0,251.3,1132.24Z"/><path d="M278.68,1132.24a4.93,4.93,0,1,0-4.93-4.93A4.93,4.93,0,0,0,278.68,1132.24Z"/><path d="M306.05,1132.24a4.93,4.93,0,1,0-4.93-4.93A4.94,4.94,0,0,0,306.05,1132.24Z"/><path d="M333.43,1132.24a4.93,4.93,0,1,0-4.93-4.93A4.93,4.93,0,0,0,333.43,1132.24Z"/><path d="M360.8,1132.24a4.93,4.93,0,1,0-4.92-4.93A4.94,4.94,0,0,0,360.8,1132.24Z"/><path d="M388.18,1132.24a4.93,4.93,0,1,0-4.93-4.93A4.93,4.93,0,0,0,388.18,1132.24Z"/><path d="M415.55,1132.24a4.93,4.93,0,1,0-4.93-4.93A4.94,4.94,0,0,0,415.55,1132.24Z"/><path d="M442.93,1132.24a4.93,4.93,0,1,0-4.93-4.93A4.93,4.93,0,0,0,442.93,1132.24Z"/><path d="M470.3,1132.24a4.93,4.93,0,1,0-4.92-4.93A4.94,4.94,0,0,0,470.3,1132.24Z"/><path d="M497.68,1132.24a4.93,4.93,0,1,0-4.93-4.93A4.93,4.93,0,0,0,497.68,1132.24Z"/><path d="M525.05,1132.24a4.93,4.93,0,1,0-4.93-4.93A4.94,4.94,0,0,0,525.05,1132.24Z"/><path d="M552.43,1132.24a4.93,4.93,0,1,0-4.93-4.93A4.93,4.93,0,0,0,552.43,1132.24Z"/><path d="M579.8,1132.24a4.93,4.93,0,1,0-4.92-4.93A4.94,4.94,0,0,0,579.8,1132.24Z"/><path d="M607.18,1132.24a4.93,4.93,0,1,0-4.93-4.93A4.93,4.93,0,0,0,607.18,1132.24Z"/><path d="M634.55,1132.24a4.93,4.93,0,1,0-4.93-4.93A4.94,4.94,0,0,0,634.55,1132.24Z"/><path d="M661.93,1132.24a4.93,4.93,0,1,0-4.93-4.93A4.93,4.93,0,0,0,661.93,1132.24Z"/><path d="M689.3,1132.24a4.93,4.93,0,1,0-4.92-4.93A4.94,4.94,0,0,0,689.3,1132.24Z"/><path d="M716.68,1132.24a4.93,4.93,0,1,0-4.93-4.93A4.93,4.93,0,0,0,716.68,1132.24Z"/><path d="M744.05,1132.24a4.93,4.93,0,1,0-4.93-4.93A4.94,4.94,0,0,0,744.05,1132.24Z"/><path d="M771.43,1132.24a4.93,4.93,0,1,0-4.93-4.93A4.93,4.93,0,0,0,771.43,1132.24Z"/><path d="M4.93,1159.62A4.94,4.94,0,1,0,0,1154.68,4.94,4.94,0,0,0,4.93,1159.62Z"/><path d="M32.3,1159.62a4.94,4.94,0,1,0-4.92-4.94A4.94,4.94,0,0,0,32.3,1159.62Z"/><path d="M59.68,1159.62a4.94,4.94,0,1,0-4.93-4.94A4.94,4.94,0,0,0,59.68,1159.62Z"/><path d="M87.05,1159.62a4.94,4.94,0,1,0-4.93-4.94A4.94,4.94,0,0,0,87.05,1159.62Z"/><path d="M114.43,1159.62a4.94,4.94,0,1,0-4.93-4.94A4.94,4.94,0,0,0,114.43,1159.62Z"/><path d="M141.8,1159.62a4.94,4.94,0,1,0-4.92-4.94A4.94,4.94,0,0,0,141.8,1159.62Z"/><path d="M169.18,1159.62a4.94,4.94,0,1,0-4.93-4.94A4.94,4.94,0,0,0,169.18,1159.62Z"/><path d="M196.55,1159.62a4.94,4.94,0,1,0-4.93-4.94A4.94,4.94,0,0,0,196.55,1159.62Z"/><path d="M223.93,1159.62a4.94,4.94,0,1,0-4.93-4.94A4.94,4.94,0,0,0,223.93,1159.62Z"/><path d="M251.3,1159.62a4.94,4.94,0,1,0-4.92-4.94A4.94,4.94,0,0,0,251.3,1159.62Z"/><path d="M278.68,1159.62a4.94,4.94,0,1,0-4.93-4.94A4.94,4.94,0,0,0,278.68,1159.62Z"/><path d="M306.05,1159.62a4.94,4.94,0,1,0-4.93-4.94A4.94,4.94,0,0,0,306.05,1159.62Z"/><path d="M333.43,1159.62a4.94,4.94,0,1,0-4.93-4.94A4.94,4.94,0,0,0,333.43,1159.62Z"/><path d="M360.8,1159.62a4.94,4.94,0,1,0-4.92-4.94A4.94,4.94,0,0,0,360.8,1159.62Z"/><path d="M388.18,1159.62a4.94,4.94,0,1,0-4.93-4.94A4.94,4.94,0,0,0,388.18,1159.62Z"/><path d="M415.55,1159.62a4.94,4.94,0,1,0-4.93-4.94A4.94,4.94,0,0,0,415.55,1159.62Z"/><path d="M442.93,1159.62a4.94,4.94,0,1,0-4.93-4.94A4.94,4.94,0,0,0,442.93,1159.62Z"/><path d="M470.3,1159.62a4.94,4.94,0,1,0-4.92-4.94A4.94,4.94,0,0,0,470.3,1159.62Z"/><path d="M497.68,1159.62a4.94,4.94,0,1,0-4.93-4.94A4.94,4.94,0,0,0,497.68,1159.62Z"/><path d="M525.05,1159.62a4.94,4.94,0,1,0-4.93-4.94A4.94,4.94,0,0,0,525.05,1159.62Z"/><path d="M552.43,1159.62a4.94,4.94,0,1,0-4.93-4.94A4.93,4.93,0,0,0,552.43,1159.62Z"/><path d="M579.8,1159.62a4.94,4.94,0,1,0-4.92-4.94A4.94,4.94,0,0,0,579.8,1159.62Z"/><path d="M607.18,1159.62a4.94,4.94,0,1,0-4.93-4.94A4.93,4.93,0,0,0,607.18,1159.62Z"/><path d="M634.55,1159.62a4.94,4.94,0,1,0-4.93-4.94A4.94,4.94,0,0,0,634.55,1159.62Z"/><path d="M661.93,1159.62a4.94,4.94,0,1,0-4.93-4.94A4.93,4.93,0,0,0,661.93,1159.62Z"/><path d="M689.3,1159.62a4.94,4.94,0,1,0-4.92-4.94A4.94,4.94,0,0,0,689.3,1159.62Z"/><path d="M716.68,1159.62a4.94,4.94,0,1,0-4.93-4.94A4.93,4.93,0,0,0,716.68,1159.62Z"/><path d="M744.05,1159.62a4.94,4.94,0,1,0-4.93-4.94A4.94,4.94,0,0,0,744.05,1159.62Z"/><path d="M771.43,1159.62a4.94,4.94,0,1,0-4.93-4.94A4.93,4.93,0,0,0,771.43,1159.62Z"/><path d="M4.93,1187A4.93,4.93,0,1,0,0,1182.06,4.93,4.93,0,0,0,4.93,1187Z"/><path d="M32.3,1187a4.93,4.93,0,1,0-4.92-4.93A4.94,4.94,0,0,0,32.3,1187Z"/><path d="M59.68,1187a4.93,4.93,0,1,0-4.93-4.93A4.93,4.93,0,0,0,59.68,1187Z"/><path d="M87.05,1187a4.93,4.93,0,1,0-4.93-4.93A4.94,4.94,0,0,0,87.05,1187Z"/><path d="M114.43,1187a4.93,4.93,0,1,0-4.93-4.93A4.93,4.93,0,0,0,114.43,1187Z"/><path d="M141.8,1187a4.93,4.93,0,1,0-4.92-4.93A4.94,4.94,0,0,0,141.8,1187Z"/><path d="M169.18,1187a4.93,4.93,0,1,0-4.93-4.93A4.93,4.93,0,0,0,169.18,1187Z"/><path d="M196.55,1187a4.93,4.93,0,1,0-4.93-4.93A4.94,4.94,0,0,0,196.55,1187Z"/><path d="M223.93,1187a4.93,4.93,0,1,0-4.93-4.93A4.93,4.93,0,0,0,223.93,1187Z"/><path d="M251.3,1187a4.93,4.93,0,1,0-4.92-4.93A4.94,4.94,0,0,0,251.3,1187Z"/><path d="M278.68,1187a4.93,4.93,0,1,0-4.93-4.93A4.93,4.93,0,0,0,278.68,1187Z"/><path d="M306.05,1187a4.93,4.93,0,1,0-4.93-4.93A4.94,4.94,0,0,0,306.05,1187Z"/><path d="M333.43,1187a4.93,4.93,0,1,0-4.93-4.93A4.93,4.93,0,0,0,333.43,1187Z"/><path d="M360.8,1187a4.93,4.93,0,1,0-4.92-4.93A4.94,4.94,0,0,0,360.8,1187Z"/><path d="M388.18,1187a4.93,4.93,0,1,0-4.93-4.93A4.93,4.93,0,0,0,388.18,1187Z"/><path d="M415.55,1187a4.93,4.93,0,1,0-4.93-4.93A4.94,4.94,0,0,0,415.55,1187Z"/><path d="M442.93,1187a4.93,4.93,0,1,0-4.93-4.93A4.93,4.93,0,0,0,442.93,1187Z"/><path d="M470.3,1187a4.93,4.93,0,1,0-4.92-4.93A4.94,4.94,0,0,0,470.3,1187Z"/><path d="M497.68,1187a4.93,4.93,0,1,0-4.93-4.93A4.93,4.93,0,0,0,497.68,1187Z"/><path d="M525.05,1187a4.93,4.93,0,1,0-4.93-4.93A4.94,4.94,0,0,0,525.05,1187Z"/><path d="M552.43,1187a4.93,4.93,0,1,0-4.93-4.93A4.93,4.93,0,0,0,552.43,1187Z"/><path d="M579.8,1187a4.93,4.93,0,1,0-4.92-4.93A4.94,4.94,0,0,0,579.8,1187Z"/><path d="M607.18,1187a4.93,4.93,0,1,0-4.93-4.93A4.93,4.93,0,0,0,607.18,1187Z"/><path d="M634.55,1187a4.93,4.93,0,1,0-4.93-4.93A4.94,4.94,0,0,0,634.55,1187Z"/><path d="M661.93,1187a4.93,4.93,0,1,0-4.93-4.93A4.93,4.93,0,0,0,661.93,1187Z"/><path d="M689.3,1187a4.93,4.93,0,1,0-4.92-4.93A4.94,4.94,0,0,0,689.3,1187Z"/><path d="M716.68,1187a4.93,4.93,0,1,0-4.93-4.93A4.93,4.93,0,0,0,716.68,1187Z"/><path d="M744.05,1187a4.93,4.93,0,1,0-4.93-4.93A4.94,4.94,0,0,0,744.05,1187Z"/><path d="M771.43,1187a4.93,4.93,0,1,0-4.93-4.93A4.93,4.93,0,0,0,771.43,1187Z"/><path d="M4.93,1214.37A4.94,4.94,0,1,0,0,1209.43,4.94,4.94,0,0,0,4.93,1214.37Z"/><path d="M32.3,1214.37a4.94,4.94,0,1,0-4.92-4.94A4.94,4.94,0,0,0,32.3,1214.37Z"/><path d="M59.68,1214.37a4.94,4.94,0,1,0-4.93-4.94A4.94,4.94,0,0,0,59.68,1214.37Z"/><path d="M87.05,1214.37a4.94,4.94,0,1,0-4.93-4.94A4.94,4.94,0,0,0,87.05,1214.37Z"/><path d="M114.43,1214.37a4.94,4.94,0,1,0-4.93-4.94A4.94,4.94,0,0,0,114.43,1214.37Z"/><path d="M141.8,1214.37a4.94,4.94,0,1,0-4.92-4.94A4.94,4.94,0,0,0,141.8,1214.37Z"/><path d="M169.18,1214.37a4.94,4.94,0,1,0-4.93-4.94A4.94,4.94,0,0,0,169.18,1214.37Z"/><path d="M196.55,1214.37a4.94,4.94,0,1,0-4.93-4.94A4.94,4.94,0,0,0,196.55,1214.37Z"/><path d="M223.93,1214.37a4.94,4.94,0,1,0-4.93-4.94A4.94,4.94,0,0,0,223.93,1214.37Z"/><path d="M251.3,1214.37a4.94,4.94,0,1,0-4.92-4.94A4.94,4.94,0,0,0,251.3,1214.37Z"/><path d="M278.68,1214.37a4.94,4.94,0,1,0-4.93-4.94A4.94,4.94,0,0,0,278.68,1214.37Z"/><path d="M306.05,1214.37a4.94,4.94,0,1,0-4.93-4.94A4.94,4.94,0,0,0,306.05,1214.37Z"/><path d="M333.43,1214.37a4.94,4.94,0,1,0-4.93-4.94A4.94,4.94,0,0,0,333.43,1214.37Z"/><path d="M360.8,1214.37a4.94,4.94,0,1,0-4.92-4.94A4.94,4.94,0,0,0,360.8,1214.37Z"/><path d="M388.18,1214.37a4.94,4.94,0,1,0-4.93-4.94A4.94,4.94,0,0,0,388.18,1214.37Z"/><path d="M415.55,1214.37a4.94,4.94,0,1,0-4.93-4.94A4.94,4.94,0,0,0,415.55,1214.37Z"/><path d="M442.93,1214.37a4.94,4.94,0,1,0-4.93-4.94A4.94,4.94,0,0,0,442.93,1214.37Z"/><path d="M470.3,1214.37a4.94,4.94,0,1,0-4.92-4.94A4.94,4.94,0,0,0,470.3,1214.37Z"/><path d="M497.68,1214.37a4.94,4.94,0,1,0-4.93-4.94A4.94,4.94,0,0,0,497.68,1214.37Z"/><path d="M525.05,1214.37a4.94,4.94,0,1,0-4.93-4.94A4.94,4.94,0,0,0,525.05,1214.37Z"/><path d="M552.43,1214.37a4.94,4.94,0,1,0-4.93-4.94A4.93,4.93,0,0,0,552.43,1214.37Z"/><path d="M579.8,1214.37a4.94,4.94,0,1,0-4.92-4.94A4.94,4.94,0,0,0,579.8,1214.37Z"/><path d="M607.18,1214.37a4.94,4.94,0,1,0-4.93-4.94A4.93,4.93,0,0,0,607.18,1214.37Z"/><path d="M634.55,1214.37a4.94,4.94,0,1,0-4.93-4.94A4.94,4.94,0,0,0,634.55,1214.37Z"/><path d="M661.93,1214.37a4.94,4.94,0,1,0-4.93-4.94A4.93,4.93,0,0,0,661.93,1214.37Z"/><path d="M689.3,1214.37a4.94,4.94,0,1,0-4.92-4.94A4.94,4.94,0,0,0,689.3,1214.37Z"/><path d="M716.68,1214.37a4.94,4.94,0,1,0-4.93-4.94A4.93,4.93,0,0,0,716.68,1214.37Z"/><path d="M744.05,1214.37a4.94,4.94,0,1,0-4.93-4.94A4.94,4.94,0,0,0,744.05,1214.37Z"/><path d="M771.43,1214.37a4.94,4.94,0,1,0-4.93-4.94A4.93,4.93,0,0,0,771.43,1214.37Z"/><path d="M4.93,1241.74A4.93,4.93,0,1,0,0,1236.81,4.93,4.93,0,0,0,4.93,1241.74Z"/><path d="M32.3,1241.74a4.93,4.93,0,1,0-4.92-4.93A4.94,4.94,0,0,0,32.3,1241.74Z"/><path d="M59.68,1241.74a4.93,4.93,0,1,0-4.93-4.93A4.93,4.93,0,0,0,59.68,1241.74Z"/><path d="M87.05,1241.74a4.93,4.93,0,1,0-4.93-4.93A4.94,4.94,0,0,0,87.05,1241.74Z"/><path d="M114.43,1241.74a4.93,4.93,0,1,0-4.93-4.93A4.93,4.93,0,0,0,114.43,1241.74Z"/><path d="M141.8,1241.74a4.93,4.93,0,1,0-4.92-4.93A4.94,4.94,0,0,0,141.8,1241.74Z"/><path d="M169.18,1241.74a4.93,4.93,0,1,0-4.93-4.93A4.93,4.93,0,0,0,169.18,1241.74Z"/><path d="M196.55,1241.74a4.93,4.93,0,1,0-4.93-4.93A4.94,4.94,0,0,0,196.55,1241.74Z"/><path d="M223.93,1241.74a4.93,4.93,0,1,0-4.93-4.93A4.93,4.93,0,0,0,223.93,1241.74Z"/><path d="M251.3,1241.74a4.93,4.93,0,1,0-4.92-4.93A4.94,4.94,0,0,0,251.3,1241.74Z"/><path d="M278.68,1241.74a4.93,4.93,0,1,0-4.93-4.93A4.93,4.93,0,0,0,278.68,1241.74Z"/><path d="M306.05,1241.74a4.93,4.93,0,1,0-4.93-4.93A4.94,4.94,0,0,0,306.05,1241.74Z"/><path d="M333.43,1241.74a4.93,4.93,0,1,0-4.93-4.93A4.93,4.93,0,0,0,333.43,1241.74Z"/><path d="M360.8,1241.74a4.93,4.93,0,1,0-4.92-4.93A4.94,4.94,0,0,0,360.8,1241.74Z"/><path d="M388.18,1241.74a4.93,4.93,0,1,0-4.93-4.93A4.93,4.93,0,0,0,388.18,1241.74Z"/><path d="M415.55,1241.74a4.93,4.93,0,1,0-4.93-4.93A4.94,4.94,0,0,0,415.55,1241.74Z"/><path d="M442.93,1241.74a4.93,4.93,0,1,0-4.93-4.93A4.93,4.93,0,0,0,442.93,1241.74Z"/><path d="M470.3,1241.74a4.93,4.93,0,1,0-4.92-4.93A4.94,4.94,0,0,0,470.3,1241.74Z"/><path d="M497.68,1241.74a4.93,4.93,0,1,0-4.93-4.93A4.93,4.93,0,0,0,497.68,1241.74Z"/><path d="M525.05,1241.74a4.93,4.93,0,1,0-4.93-4.93A4.94,4.94,0,0,0,525.05,1241.74Z"/><path d="M552.43,1241.74a4.93,4.93,0,1,0-4.93-4.93A4.93,4.93,0,0,0,552.43,1241.74Z"/><path d="M579.8,1241.74a4.93,4.93,0,1,0-4.92-4.93A4.94,4.94,0,0,0,579.8,1241.74Z"/><path d="M607.18,1241.74a4.93,4.93,0,1,0-4.93-4.93A4.93,4.93,0,0,0,607.18,1241.74Z"/><path d="M634.55,1241.74a4.93,4.93,0,1,0-4.93-4.93A4.94,4.94,0,0,0,634.55,1241.74Z"/><path d="M661.93,1241.74a4.93,4.93,0,1,0-4.93-4.93A4.93,4.93,0,0,0,661.93,1241.74Z"/><path d="M689.3,1241.74a4.93,4.93,0,1,0-4.92-4.93A4.94,4.94,0,0,0,689.3,1241.74Z"/><path d="M716.68,1241.74a4.93,4.93,0,1,0-4.93-4.93A4.93,4.93,0,0,0,716.68,1241.74Z"/><path d="M744.05,1241.74a4.93,4.93,0,1,0-4.93-4.93A4.94,4.94,0,0,0,744.05,1241.74Z"/><path d="M771.43,1241.74a4.93,4.93,0,1,0-4.93-4.93A4.93,4.93,0,0,0,771.43,1241.74Z"/><path d="M4.93,1269.12A4.94,4.94,0,1,0,0,1264.18,4.94,4.94,0,0,0,4.93,1269.12Z"/><path d="M32.3,1269.12a4.94,4.94,0,1,0-4.92-4.94A4.94,4.94,0,0,0,32.3,1269.12Z"/><path d="M59.68,1269.12a4.94,4.94,0,1,0-4.93-4.94A4.94,4.94,0,0,0,59.68,1269.12Z"/><path d="M87.05,1269.12a4.94,4.94,0,1,0-4.93-4.94A4.94,4.94,0,0,0,87.05,1269.12Z"/><path d="M114.43,1269.12a4.94,4.94,0,1,0-4.93-4.94A4.94,4.94,0,0,0,114.43,1269.12Z"/><path d="M141.8,1269.12a4.94,4.94,0,1,0-4.92-4.94A4.94,4.94,0,0,0,141.8,1269.12Z"/><path d="M169.18,1269.12a4.94,4.94,0,1,0-4.93-4.94A4.94,4.94,0,0,0,169.18,1269.12Z"/><path d="M196.55,1269.12a4.94,4.94,0,1,0-4.93-4.94A4.94,4.94,0,0,0,196.55,1269.12Z"/><path d="M223.93,1269.12a4.94,4.94,0,1,0-4.93-4.94A4.94,4.94,0,0,0,223.93,1269.12Z"/><path d="M251.3,1269.12a4.94,4.94,0,1,0-4.92-4.94A4.94,4.94,0,0,0,251.3,1269.12Z"/><path d="M278.68,1269.12a4.94,4.94,0,1,0-4.93-4.94A4.94,4.94,0,0,0,278.68,1269.12Z"/><path d="M306.05,1269.12a4.94,4.94,0,1,0-4.93-4.94A4.94,4.94,0,0,0,306.05,1269.12Z"/><path d="M333.43,1269.12a4.94,4.94,0,1,0-4.93-4.94A4.94,4.94,0,0,0,333.43,1269.12Z"/><path d="M360.8,1269.12a4.94,4.94,0,1,0-4.92-4.94A4.94,4.94,0,0,0,360.8,1269.12Z"/><path d="M388.18,1269.12a4.94,4.94,0,1,0-4.93-4.94A4.94,4.94,0,0,0,388.18,1269.12Z"/><path d="M415.55,1269.12a4.94,4.94,0,1,0-4.93-4.94A4.94,4.94,0,0,0,415.55,1269.12Z"/><path d="M442.93,1269.12a4.94,4.94,0,1,0-4.93-4.94A4.94,4.94,0,0,0,442.93,1269.12Z"/><path d="M470.3,1269.12a4.94,4.94,0,1,0-4.92-4.94A4.94,4.94,0,0,0,470.3,1269.12Z"/><path d="M497.68,1269.12a4.94,4.94,0,1,0-4.93-4.94A4.94,4.94,0,0,0,497.68,1269.12Z"/><path d="M525.05,1269.12a4.94,4.94,0,1,0-4.93-4.94A4.94,4.94,0,0,0,525.05,1269.12Z"/><path d="M552.43,1269.12a4.94,4.94,0,1,0-4.93-4.94A4.93,4.93,0,0,0,552.43,1269.12Z"/><path d="M579.8,1269.12a4.94,4.94,0,1,0-4.92-4.94A4.94,4.94,0,0,0,579.8,1269.12Z"/><path d="M607.18,1269.12a4.94,4.94,0,1,0-4.93-4.94A4.93,4.93,0,0,0,607.18,1269.12Z"/><path d="M634.55,1269.12a4.94,4.94,0,1,0-4.93-4.94A4.94,4.94,0,0,0,634.55,1269.12Z"/><path d="M661.93,1269.12a4.94,4.94,0,1,0-4.93-4.94A4.93,4.93,0,0,0,661.93,1269.12Z"/><path d="M689.3,1269.12a4.94,4.94,0,1,0-4.92-4.94A4.94,4.94,0,0,0,689.3,1269.12Z"/><path d="M716.68,1269.12a4.94,4.94,0,1,0-4.93-4.94A4.93,4.93,0,0,0,716.68,1269.12Z"/><path d="M744.05,1269.12a4.94,4.94,0,1,0-4.93-4.94A4.94,4.94,0,0,0,744.05,1269.12Z"/><path d="M771.43,1269.12a4.94,4.94,0,1,0-4.93-4.94A4.93,4.93,0,0,0,771.43,1269.12Z"/><path d="M4.93,1296.49A4.93,4.93,0,1,0,0,1291.56,4.93,4.93,0,0,0,4.93,1296.49Z"/><path d="M32.3,1296.49a4.93,4.93,0,1,0-4.92-4.93A4.94,4.94,0,0,0,32.3,1296.49Z"/><path d="M59.68,1296.49a4.93,4.93,0,1,0-4.93-4.93A4.93,4.93,0,0,0,59.68,1296.49Z"/><path d="M87.05,1296.49a4.93,4.93,0,1,0-4.93-4.93A4.94,4.94,0,0,0,87.05,1296.49Z"/><path d="M114.43,1296.49a4.93,4.93,0,1,0-4.93-4.93A4.93,4.93,0,0,0,114.43,1296.49Z"/><path d="M141.8,1296.49a4.93,4.93,0,1,0-4.92-4.93A4.94,4.94,0,0,0,141.8,1296.49Z"/><path d="M169.18,1296.49a4.93,4.93,0,1,0-4.93-4.93A4.93,4.93,0,0,0,169.18,1296.49Z"/><path d="M196.55,1296.49a4.93,4.93,0,1,0-4.93-4.93A4.94,4.94,0,0,0,196.55,1296.49Z"/><path d="M223.93,1296.49a4.93,4.93,0,1,0-4.93-4.93A4.93,4.93,0,0,0,223.93,1296.49Z"/><path d="M251.3,1296.49a4.93,4.93,0,1,0-4.92-4.93A4.94,4.94,0,0,0,251.3,1296.49Z"/><path d="M278.68,1296.49a4.93,4.93,0,1,0-4.93-4.93A4.93,4.93,0,0,0,278.68,1296.49Z"/><path d="M306.05,1296.49a4.93,4.93,0,1,0-4.93-4.93A4.94,4.94,0,0,0,306.05,1296.49Z"/><path d="M333.43,1296.49a4.93,4.93,0,1,0-4.93-4.93A4.93,4.93,0,0,0,333.43,1296.49Z"/><path d="M360.8,1296.49a4.93,4.93,0,1,0-4.92-4.93A4.94,4.94,0,0,0,360.8,1296.49Z"/><path d="M388.18,1296.49a4.93,4.93,0,1,0-4.93-4.93A4.93,4.93,0,0,0,388.18,1296.49Z"/><path d="M415.55,1296.49a4.93,4.93,0,1,0-4.93-4.93A4.94,4.94,0,0,0,415.55,1296.49Z"/><path d="M442.93,1296.49a4.93,4.93,0,1,0-4.93-4.93A4.93,4.93,0,0,0,442.93,1296.49Z"/><path d="M470.3,1296.49a4.93,4.93,0,1,0-4.92-4.93A4.94,4.94,0,0,0,470.3,1296.49Z"/><path d="M497.68,1296.49a4.93,4.93,0,1,0-4.93-4.93A4.93,4.93,0,0,0,497.68,1296.49Z"/><path d="M525.05,1296.49a4.93,4.93,0,1,0-4.93-4.93A4.94,4.94,0,0,0,525.05,1296.49Z"/><path d="M552.43,1296.49a4.93,4.93,0,1,0-4.93-4.93A4.93,4.93,0,0,0,552.43,1296.49Z"/><path d="M579.8,1296.49a4.93,4.93,0,1,0-4.92-4.93A4.94,4.94,0,0,0,579.8,1296.49Z"/><path d="M607.18,1296.49a4.93,4.93,0,1,0-4.93-4.93A4.93,4.93,0,0,0,607.18,1296.49Z"/><path d="M634.55,1296.49a4.93,4.93,0,1,0-4.93-4.93A4.94,4.94,0,0,0,634.55,1296.49Z"/><path d="M661.93,1296.49a4.93,4.93,0,1,0-4.93-4.93A4.93,4.93,0,0,0,661.93,1296.49Z"/><path d="M689.3,1296.49a4.93,4.93,0,1,0-4.92-4.93A4.94,4.94,0,0,0,689.3,1296.49Z"/><path d="M716.68,1296.49a4.93,4.93,0,1,0-4.93-4.93A4.93,4.93,0,0,0,716.68,1296.49Z"/><path d="M744.05,1296.49a4.93,4.93,0,1,0-4.93-4.93A4.94,4.94,0,0,0,744.05,1296.49Z"/><path d="M771.43,1296.49a4.93,4.93,0,1,0-4.93-4.93A4.93,4.93,0,0,0,771.43,1296.49Z"/><path d="M4.93,1323.87A4.94,4.94,0,1,0,0,1318.93,4.94,4.94,0,0,0,4.93,1323.87Z"/><path d="M32.3,1323.87a4.94,4.94,0,1,0-4.92-4.94A4.94,4.94,0,0,0,32.3,1323.87Z"/><path d="M59.68,1323.87a4.94,4.94,0,1,0-4.93-4.94A4.94,4.94,0,0,0,59.68,1323.87Z"/><path d="M87.05,1323.87a4.94,4.94,0,1,0-4.93-4.94A4.94,4.94,0,0,0,87.05,1323.87Z"/><path d="M114.43,1323.87a4.94,4.94,0,1,0-4.93-4.94A4.94,4.94,0,0,0,114.43,1323.87Z"/><path d="M141.8,1323.87a4.94,4.94,0,1,0-4.92-4.94A4.94,4.94,0,0,0,141.8,1323.87Z"/><path d="M169.18,1323.87a4.94,4.94,0,1,0-4.93-4.94A4.94,4.94,0,0,0,169.18,1323.87Z"/><path d="M196.55,1323.87a4.94,4.94,0,1,0-4.93-4.94A4.94,4.94,0,0,0,196.55,1323.87Z"/><path d="M223.93,1323.87a4.94,4.94,0,1,0-4.93-4.94A4.94,4.94,0,0,0,223.93,1323.87Z"/><path d="M251.3,1323.87a4.94,4.94,0,1,0-4.92-4.94A4.94,4.94,0,0,0,251.3,1323.87Z"/><path d="M278.68,1323.87a4.94,4.94,0,1,0-4.93-4.94A4.94,4.94,0,0,0,278.68,1323.87Z"/><path d="M306.05,1323.87a4.94,4.94,0,1,0-4.93-4.94A4.94,4.94,0,0,0,306.05,1323.87Z"/><path d="M333.43,1323.87a4.94,4.94,0,1,0-4.93-4.94A4.94,4.94,0,0,0,333.43,1323.87Z"/><path d="M360.8,1323.87a4.94,4.94,0,1,0-4.92-4.94A4.94,4.94,0,0,0,360.8,1323.87Z"/><path d="M388.18,1323.87a4.94,4.94,0,1,0-4.93-4.94A4.94,4.94,0,0,0,388.18,1323.87Z"/><path d="M415.55,1323.87a4.94,4.94,0,1,0-4.93-4.94A4.94,4.94,0,0,0,415.55,1323.87Z"/><path d="M442.93,1323.87a4.94,4.94,0,1,0-4.93-4.94A4.94,4.94,0,0,0,442.93,1323.87Z"/><path d="M470.3,1323.87a4.94,4.94,0,1,0-4.92-4.94A4.94,4.94,0,0,0,470.3,1323.87Z"/><path d="M497.68,1323.87a4.94,4.94,0,1,0-4.93-4.94A4.94,4.94,0,0,0,497.68,1323.87Z"/><path d="M525.05,1323.87a4.94,4.94,0,1,0-4.93-4.94A4.94,4.94,0,0,0,525.05,1323.87Z"/><path d="M552.43,1323.87a4.94,4.94,0,1,0-4.93-4.94A4.93,4.93,0,0,0,552.43,1323.87Z"/><path d="M579.8,1323.87a4.94,4.94,0,1,0-4.92-4.94A4.94,4.94,0,0,0,579.8,1323.87Z"/><path d="M607.18,1323.87a4.94,4.94,0,1,0-4.93-4.94A4.93,4.93,0,0,0,607.18,1323.87Z"/><path d="M634.55,1323.87a4.94,4.94,0,1,0-4.93-4.94A4.94,4.94,0,0,0,634.55,1323.87Z"/><path d="M661.93,1323.87a4.94,4.94,0,1,0-4.93-4.94A4.93,4.93,0,0,0,661.93,1323.87Z"/><path d="M689.3,1323.87a4.94,4.94,0,1,0-4.92-4.94A4.94,4.94,0,0,0,689.3,1323.87Z"/><path d="M716.68,1323.87a4.94,4.94,0,1,0-4.93-4.94A4.93,4.93,0,0,0,716.68,1323.87Z"/><path d="M744.05,1323.87a4.94,4.94,0,1,0-4.93-4.94A4.94,4.94,0,0,0,744.05,1323.87Z"/><path d="M771.43,1323.87a4.94,4.94,0,1,0-4.93-4.94A4.93,4.93,0,0,0,771.43,1323.87Z"/><path d="M4.93,1351.24A4.93,4.93,0,1,0,0,1346.31,4.93,4.93,0,0,0,4.93,1351.24Z"/><path d="M32.3,1351.24a4.93,4.93,0,1,0-4.92-4.93A4.94,4.94,0,0,0,32.3,1351.24Z"/><path d="M59.68,1351.24a4.93,4.93,0,1,0-4.93-4.93A4.93,4.93,0,0,0,59.68,1351.24Z"/><path d="M87.05,1351.24a4.93,4.93,0,1,0-4.93-4.93A4.94,4.94,0,0,0,87.05,1351.24Z"/><path d="M114.43,1351.24a4.93,4.93,0,1,0-4.93-4.93A4.93,4.93,0,0,0,114.43,1351.24Z"/><path d="M141.8,1351.24a4.93,4.93,0,1,0-4.92-4.93A4.94,4.94,0,0,0,141.8,1351.24Z"/><path d="M169.18,1351.24a4.93,4.93,0,1,0-4.93-4.93A4.93,4.93,0,0,0,169.18,1351.24Z"/><path d="M196.55,1351.24a4.93,4.93,0,1,0-4.93-4.93A4.94,4.94,0,0,0,196.55,1351.24Z"/><path d="M223.93,1351.24a4.93,4.93,0,1,0-4.93-4.93A4.93,4.93,0,0,0,223.93,1351.24Z"/><path d="M251.3,1351.24a4.93,4.93,0,1,0-4.92-4.93A4.94,4.94,0,0,0,251.3,1351.24Z"/><path d="M278.68,1351.24a4.93,4.93,0,1,0-4.93-4.93A4.93,4.93,0,0,0,278.68,1351.24Z"/><path d="M306.05,1351.24a4.93,4.93,0,1,0-4.93-4.93A4.94,4.94,0,0,0,306.05,1351.24Z"/><path d="M333.43,1351.24a4.93,4.93,0,1,0-4.93-4.93A4.93,4.93,0,0,0,333.43,1351.24Z"/><path d="M360.8,1351.24a4.93,4.93,0,1,0-4.92-4.93A4.94,4.94,0,0,0,360.8,1351.24Z"/><path d="M388.18,1351.24a4.93,4.93,0,1,0-4.93-4.93A4.93,4.93,0,0,0,388.18,1351.24Z"/><path d="M415.55,1351.24a4.93,4.93,0,1,0-4.93-4.93A4.94,4.94,0,0,0,415.55,1351.24Z"/><path d="M442.93,1351.24a4.93,4.93,0,1,0-4.93-4.93A4.93,4.93,0,0,0,442.93,1351.24Z"/><path d="M470.3,1351.24a4.93,4.93,0,1,0-4.92-4.93A4.94,4.94,0,0,0,470.3,1351.24Z"/><path d="M497.68,1351.24a4.93,4.93,0,1,0-4.93-4.93A4.93,4.93,0,0,0,497.68,1351.24Z"/><path d="M525.05,1351.24a4.93,4.93,0,1,0-4.93-4.93A4.94,4.94,0,0,0,525.05,1351.24Z"/><path d="M552.43,1351.24a4.93,4.93,0,1,0-4.93-4.93A4.93,4.93,0,0,0,552.43,1351.24Z"/><path d="M579.8,1351.24a4.93,4.93,0,1,0-4.92-4.93A4.94,4.94,0,0,0,579.8,1351.24Z"/><path d="M607.18,1351.24a4.93,4.93,0,1,0-4.93-4.93A4.93,4.93,0,0,0,607.18,1351.24Z"/><path d="M634.55,1351.24a4.93,4.93,0,1,0-4.93-4.93A4.94,4.94,0,0,0,634.55,1351.24Z"/><path d="M661.93,1351.24a4.93,4.93,0,1,0-4.93-4.93A4.93,4.93,0,0,0,661.93,1351.24Z"/><path d="M689.3,1351.24a4.93,4.93,0,1,0-4.92-4.93A4.94,4.94,0,0,0,689.3,1351.24Z"/><path d="M716.68,1351.24a4.93,4.93,0,1,0-4.93-4.93A4.93,4.93,0,0,0,716.68,1351.24Z"/><path d="M744.05,1351.24a4.93,4.93,0,1,0-4.93-4.93A4.94,4.94,0,0,0,744.05,1351.24Z"/><path d="M771.43,1351.24a4.93,4.93,0,1,0-4.93-4.93A4.93,4.93,0,0,0,771.43,1351.24Z"/><path d="M4.93,1378.62A4.94,4.94,0,1,0,0,1373.68,4.94,4.94,0,0,0,4.93,1378.62Z"/><path d="M32.3,1378.62a4.94,4.94,0,1,0-4.92-4.94A4.94,4.94,0,0,0,32.3,1378.62Z"/><path d="M59.68,1378.62a4.94,4.94,0,1,0-4.93-4.94A4.94,4.94,0,0,0,59.68,1378.62Z"/><path d="M87.05,1378.62a4.94,4.94,0,1,0-4.93-4.94A4.94,4.94,0,0,0,87.05,1378.62Z"/><path d="M114.43,1378.62a4.94,4.94,0,1,0-4.93-4.94A4.94,4.94,0,0,0,114.43,1378.62Z"/><path d="M141.8,1378.62a4.94,4.94,0,1,0-4.92-4.94A4.94,4.94,0,0,0,141.8,1378.62Z"/><path d="M169.18,1378.62a4.94,4.94,0,1,0-4.93-4.94A4.94,4.94,0,0,0,169.18,1378.62Z"/><path d="M196.55,1378.62a4.94,4.94,0,1,0-4.93-4.94A4.94,4.94,0,0,0,196.55,1378.62Z"/><path d="M223.93,1378.62a4.94,4.94,0,1,0-4.93-4.94A4.94,4.94,0,0,0,223.93,1378.62Z"/><path d="M251.3,1378.62a4.94,4.94,0,1,0-4.92-4.94A4.94,4.94,0,0,0,251.3,1378.62Z"/><path d="M278.68,1378.62a4.94,4.94,0,1,0-4.93-4.94A4.94,4.94,0,0,0,278.68,1378.62Z"/><path d="M306.05,1378.62a4.94,4.94,0,1,0-4.93-4.94A4.94,4.94,0,0,0,306.05,1378.62Z"/><path d="M333.43,1378.62a4.94,4.94,0,1,0-4.93-4.94A4.94,4.94,0,0,0,333.43,1378.62Z"/><path d="M360.8,1378.62a4.94,4.94,0,1,0-4.92-4.94A4.94,4.94,0,0,0,360.8,1378.62Z"/><path d="M388.18,1378.62a4.94,4.94,0,1,0-4.93-4.94A4.94,4.94,0,0,0,388.18,1378.62Z"/><path d="M415.55,1378.62a4.94,4.94,0,1,0-4.93-4.94A4.94,4.94,0,0,0,415.55,1378.62Z"/><path d="M442.93,1378.62a4.94,4.94,0,1,0-4.93-4.94A4.94,4.94,0,0,0,442.93,1378.62Z"/><path d="M470.3,1378.62a4.94,4.94,0,1,0-4.92-4.94A4.94,4.94,0,0,0,470.3,1378.62Z"/><path d="M497.68,1378.62a4.94,4.94,0,1,0-4.93-4.94A4.94,4.94,0,0,0,497.68,1378.62Z"/><path d="M525.05,1378.62a4.94,4.94,0,1,0-4.93-4.94A4.94,4.94,0,0,0,525.05,1378.62Z"/><path d="M552.43,1378.62a4.94,4.94,0,1,0-4.93-4.94A4.93,4.93,0,0,0,552.43,1378.62Z"/><path d="M579.8,1378.62a4.94,4.94,0,1,0-4.92-4.94A4.94,4.94,0,0,0,579.8,1378.62Z"/><path d="M607.18,1378.62a4.94,4.94,0,1,0-4.93-4.94A4.93,4.93,0,0,0,607.18,1378.62Z"/><path d="M634.55,1378.62a4.94,4.94,0,1,0-4.93-4.94A4.94,4.94,0,0,0,634.55,1378.62Z"/><path d="M661.93,1378.62a4.94,4.94,0,1,0-4.93-4.94A4.93,4.93,0,0,0,661.93,1378.62Z"/><path d="M689.3,1378.62a4.94,4.94,0,1,0-4.92-4.94A4.94,4.94,0,0,0,689.3,1378.62Z"/><path d="M716.68,1378.62a4.94,4.94,0,1,0-4.93-4.94A4.93,4.93,0,0,0,716.68,1378.62Z"/><path d="M744.05,1378.62a4.94,4.94,0,1,0-4.93-4.94A4.94,4.94,0,0,0,744.05,1378.62Z"/><path d="M771.43,1378.62a4.94,4.94,0,1,0-4.93-4.94A4.93,4.93,0,0,0,771.43,1378.62Z"/><path d="M4.93,1406A4.93,4.93,0,1,0,0,1401.06,4.93,4.93,0,0,0,4.93,1406Z"/><path d="M32.3,1406a4.93,4.93,0,1,0-4.92-4.93A4.94,4.94,0,0,0,32.3,1406Z"/><path d="M59.68,1406a4.93,4.93,0,1,0-4.93-4.93A4.93,4.93,0,0,0,59.68,1406Z"/><path d="M87.05,1406a4.93,4.93,0,1,0-4.93-4.93A4.94,4.94,0,0,0,87.05,1406Z"/><path d="M114.43,1406a4.93,4.93,0,1,0-4.93-4.93A4.93,4.93,0,0,0,114.43,1406Z"/><path d="M141.8,1406a4.93,4.93,0,1,0-4.92-4.93A4.94,4.94,0,0,0,141.8,1406Z"/><path d="M169.18,1406a4.93,4.93,0,1,0-4.93-4.93A4.93,4.93,0,0,0,169.18,1406Z"/><path d="M196.55,1406a4.93,4.93,0,1,0-4.93-4.93A4.94,4.94,0,0,0,196.55,1406Z"/><path d="M223.93,1406a4.93,4.93,0,1,0-4.93-4.93A4.93,4.93,0,0,0,223.93,1406Z"/><path d="M251.3,1406a4.93,4.93,0,1,0-4.92-4.93A4.94,4.94,0,0,0,251.3,1406Z"/><path d="M278.68,1406a4.93,4.93,0,1,0-4.93-4.93A4.93,4.93,0,0,0,278.68,1406Z"/><path d="M306.05,1406a4.93,4.93,0,1,0-4.93-4.93A4.94,4.94,0,0,0,306.05,1406Z"/><path d="M333.43,1406a4.93,4.93,0,1,0-4.93-4.93A4.93,4.93,0,0,0,333.43,1406Z"/><path d="M360.8,1406a4.93,4.93,0,1,0-4.92-4.93A4.94,4.94,0,0,0,360.8,1406Z"/><path d="M388.18,1406a4.93,4.93,0,1,0-4.93-4.93A4.93,4.93,0,0,0,388.18,1406Z"/><path d="M415.55,1406a4.93,4.93,0,1,0-4.93-4.93A4.94,4.94,0,0,0,415.55,1406Z"/><path d="M442.93,1406a4.93,4.93,0,1,0-4.93-4.93A4.93,4.93,0,0,0,442.93,1406Z"/><path d="M470.3,1406a4.93,4.93,0,1,0-4.92-4.93A4.94,4.94,0,0,0,470.3,1406Z"/><path d="M497.68,1406a4.93,4.93,0,1,0-4.93-4.93A4.93,4.93,0,0,0,497.68,1406Z"/><path d="M525.05,1406a4.93,4.93,0,1,0-4.93-4.93A4.94,4.94,0,0,0,525.05,1406Z"/><path d="M552.43,1406a4.93,4.93,0,1,0-4.93-4.93A4.93,4.93,0,0,0,552.43,1406Z"/><path d="M579.8,1406a4.93,4.93,0,1,0-4.92-4.93A4.94,4.94,0,0,0,579.8,1406Z"/><path d="M607.18,1406a4.93,4.93,0,1,0-4.93-4.93A4.93,4.93,0,0,0,607.18,1406Z"/><path d="M634.55,1406a4.93,4.93,0,1,0-4.93-4.93A4.94,4.94,0,0,0,634.55,1406Z"/><path d="M661.93,1406a4.93,4.93,0,1,0-4.93-4.93A4.93,4.93,0,0,0,661.93,1406Z"/><path d="M689.3,1406a4.93,4.93,0,1,0-4.92-4.93A4.94,4.94,0,0,0,689.3,1406Z"/><path d="M716.68,1406a4.93,4.93,0,1,0-4.93-4.93A4.93,4.93,0,0,0,716.68,1406Z"/><path d="M744.05,1406a4.93,4.93,0,1,0-4.93-4.93A4.94,4.94,0,0,0,744.05,1406Z"/><path d="M771.43,1406a4.93,4.93,0,1,0-4.93-4.93A4.93,4.93,0,0,0,771.43,1406Z"/><path d="M4.93,9.87A4.94,4.94,0,1,0,0,4.93,4.94,4.94,0,0,0,4.93,9.87Z"/><path d="M32.3,9.87a4.94,4.94,0,1,0-4.92-4.94A4.94,4.94,0,0,0,32.3,9.87Z"/><path d="M59.68,9.87a4.94,4.94,0,1,0-4.93-4.94A4.94,4.94,0,0,0,59.68,9.87Z"/><path d="M87.05,9.87a4.94,4.94,0,1,0-4.93-4.94A4.94,4.94,0,0,0,87.05,9.87Z"/><path d="M114.43,9.87a4.94,4.94,0,1,0-4.93-4.94A4.94,4.94,0,0,0,114.43,9.87Z"/></g></svg>