<svg width="18" height="19" viewBox="0 0 18 19" fill="none" xmlns="http://www.w3.org/2000/svg">
<g opacity="0.8">
<path d="M15.4877 4.01295L14.374 3.1452C14.2955 3.08451 14.1963 3.05734 14.0979 3.06964C13.9995 3.08194 13.91 3.1327 13.849 3.21082L7.21258 11.7346L3.9827 8.50432C3.91238 8.43402 3.81701 8.39453 3.71758 8.39453C3.61814 8.39453 3.52277 8.43402 3.45245 8.50432L2.44183 9.51682C2.37152 9.58714 2.33203 9.68251 2.33203 9.78195C2.33203 9.88138 2.37152 9.97675 2.44183 10.0471L7.10383 14.7128C7.14143 14.7506 7.18668 14.78 7.23654 14.799C7.2864 14.8179 7.33973 14.826 7.39297 14.8227C7.44621 14.8194 7.49813 14.8048 7.54527 14.7798C7.59241 14.7549 7.63368 14.7201 7.66633 14.6779L15.5541 4.53907C15.615 4.4605 15.6423 4.36093 15.6298 4.26226C15.6174 4.1636 15.5663 4.07392 15.4877 4.01295Z" fill="#009C3B"/>
</g>
</svg>
