<svg id="Layer_1" data-name="Layer 1" xmlns="http://www.w3.org/2000/svg" viewBox="0 0 80 172"><path d="M76,79c-24.55,0-24.55-8.2-24.55-11.27,0-6.44.42-12.46.86-18.85s.92-13.19.92-20.45C53.21,3.44,34.33,0,13.94,0H0V13.52H15.09c20,0,22.19,5,22.19,15.7,0,6-.3,11.38-.61,17.13-.33,6-.68,12.27-.68,19.46S37.26,81.06,45.34,86C40.07,89.16,36,95,36,106.19c0,6.33.34,12.84.67,19.13s.62,12,.62,17.46c0,10.67-2.19,15.7-22.19,15.7H0V172H13.94c20.39,0,39.27-3.44,39.27-28.4,0-6.76-.47-13.79-.92-20.59-.44-6.62-.86-12.87-.86-18.71,0-3.07,0-11.22,24.55-11.27h4V79Z"/></svg>