<svg id="Layer_1" data-name="Layer 1" xmlns="http://www.w3.org/2000/svg" xmlns:xlink="http://www.w3.org/1999/xlink" viewBox="0 0 128 128"><defs><style>.cls-1{fill:none;}.cls-2{clip-path:url(#clip-path);}.cls-3{fill:#1c1c1c;fill-rule:evenodd;}</style><clipPath id="clip-path"><rect class="cls-1" width="128" height="128"/></clipPath></defs><g class="cls-2"><path class="cls-3" d="M109.79,127.29c0-.19-.13-.34-.25-.32-.66.11-1.19-.08-1.19-.42,0-.53-.85-.78-.85-.48s-.9.78-.65.14-.1-.15-1-.63-1.41.13-1.14-.17a.45.45,0,0,0-.06-.54c-1.24-1.55-1.66-2-1.67-1.62,0,.5-1.42-1.09-1.42-1.6s-.72-.45-1-1.08.6.42.25-.7c-.49-1.55-6.32-10.1-7.76-10.1-.33,0-.36-.84.08-.84.18,0,.25-.08.16-.17-.35-.35.86-2.47,4.92-8.65C102,94.46,105,89,105,87.89c0-.5.73-.28.5-.51a7,7,0,0,1,.37-2.18,42.15,42.15,0,0,0,.86-5.45,29.3,29.3,0,0,0-.15-7.6c-.88-7.79-1.74-11.12-4.08-15.85-2.5-5-3.39-6.36-6.24-9.24a24.72,24.72,0,0,0-3.08-2.86,2.86,2.86,0,0,1-1-.68c-1.11-1-3.34-2-6.76-3L80.2,39C75.44,37.55,73.6,37.3,68,37.32a172.19,172.19,0,0,0-21.57,2c-5.67.82-8.87,1.87-12.47,4.07-1.47.9-1.75,1-1.64.55,1-3.79-5.88,5.65-6.12,5.65s-.26.1-.24.21c.27,1.74-2.53,4.43-2.77,4.19-1.44-1.44-1.69,6.17-2.81,6-1.69-.28-1,.9-1.48,2.14-.21.54-.31-.12-.32-2.2,0-.37-.1-.44-.34-.24-1,.82-3.3,0-3.88-1.42s-.51-.25-1.06-1.76a1.42,1.42,0,0,0-1.39-1.16c-1.58-.29-1.93-.57-2.11-1.65C9.53,52.25,8,51.23,8.29,51.23c.12,0-.28-.49-.87-1.1S6,48.58,5.52,48s-.9-.94-1-.87c-.32.19-1.47-1.83-1.3-2.27.24-.62-.84-.26-.56-1.39s-1-2.78-1-3.8a2.84,2.84,0,0,0-.24-1.07c-.39-.77-.63-2.35-.32-2.16s0-.74-.25-.59-.19-.13-.19-.45c0-.56,0-.56.47,0s.93.76.54,0a1.65,1.65,0,0,1-.24-.77A10.8,10.8,0,0,0,.39,31.57c-.45-.85-.51-1.27-.14-1s.65-.61.29-.84a1.27,1.27,0,0,1-.27-.88c0-.62.07-.67.43-.37s.4.28.25-.1c-.31-.82-1.53-.23-.62-.76s-.2-1.71.61-.73c.38.46.48.48.84.12a.61.61,0,0,0,.16-.81c-.42-.67.6-1.95.62-1.95.55,0-.15-1.46.76-.42l1.82,1.69c-.09-.17-.72-1.27-.46-1.27s-1.77-1.62-1.33-2.05.95.63,1.28.1.71-.38.71,0c0,.17-.13.22-.28.13-.41-.26-.35.3.07.64.62.51.35-1.59.23-1.58a4.32,4.32,0,0,1-.58,0c-.37,0-.37-.07,0-.3.73-.46-.38-.76-.6-1.65C4,19,2.2,17.13,2.39,16.94s-1.07-1.25,0-.65c.95.5,1.48,1.73,2.3,1.73s.81.65,1.17.42.83.62.28.29c-.22-.14-.3-.12-.18.06.24.39,1.57.63,1.76.32.3-.5,1.27.33,1.86-1.89.08-.29.2-.26.52.12.61.76-.3-.06-.3.35s.92.68.71.34c-.09-.14.1-.4.41-.57s.57-.22.57.15c0,.73.45-.29.75.89.06.27.13.53.19.79,1-2.45.44-.88,1.13-.62s.27-3-.4-4.34c-.53-1.05-.53-1.06,0-.95s.73-.15.21-.66.64,0,.64.2a5.05,5.05,0,0,0,1.54,1.73c.31,0-.5-.68-.23-1s-.32.06-.78-.81c-.11-.21-.22-.43-.34-.64l1.33,1.13c-1.55-2.47-.34-.89-1-2.18-.29-.61-.29-.61.13-.09.71.88.1-.24,1,.58s.44,1.55.81,1.55c.13,0,.18-.35.09-.78-.13-.72-.11-.74.37-.35s.33.09-.23-.87S16.13,10,16.46,10c.65,0,.2.82.84.58s0-.53.41-.8.53,1.26.85,1.26c.12,0,.38.38.57.85,1.5,3.62-.24-2.15,2.27,1.26-.33-1.21-.49-1.49.51-.39.47.52.87.8.87.61,0-.48,1.14,0,1.14-.36s1.26-.24,1.26-.82.9-1,.61-.14c-.18.51-.17.51.24,0,.59-.77.28-1,.82-1s.67-.94.7-.21.48.63.81,0c.22-.39.28-.37.41.15.25.95-.59,0-.24.55a.67.67,0,0,0,.5.32c.27,0,.2-1.38-.2-3.47-.1-.51,0-.73.14-.62.44.28,1.22-2.58,1-2.94s.54-.84.87,1.68C31,7.74,31.28,8,32,7.47c.46-.35.47-.4.06-.25s-.7-.29-.24-.58-.36-2.3-.14-2.88-.53-.2-.24-.68.34.13,1,.39c.37.14.49,0,.5-.44s.1-.47.55.36c.86,1.56.39,2.39.85,1.69.23-.37.28-.36.31.07C34.83,7.57,36,7.85,36,8.63a2.57,2.57,0,0,0,.29,1c.29.54.32.54,1.2-.12,1.37-1,1.15-.12,2.39-.87S38.21,10.34,38.76,10s1.48-.28,1.49,0c0,.13.15,0,.33-.32a5.9,5.9,0,0,0,0-3.31c-.17-.61.43-.86,1.08,1.06.16.47.32.94.47,1.41,0-.1.07-2.49.24-1.62s1.13.61.73.45.11-.79-.35-1.07-.49-.94.16-.41c.41.35.44.27.25-.81-.35-2.11.6-.36.26-2.15a5.5,5.5,0,0,1,0-1.9c.2-.93.2-.93.46-.24.41,1.12-.26,1.46.38,2.86.84,1.83,0-.6.45-.6.22,0,.36.63.28,1.19-.06.38.66-.08.37.81-.12.41-.08.54.13.41.44-.28,1.13.5,1.33,1.51.24,1.18,2.47.46,1.88,1.5-.22.37,1.32.22,2.16-.22a1.48,1.48,0,0,1,1.55-.09c1.12.51,0,.45,0,1.14s-1.83-.08-1.18.63.66,0,.84.5,1.5-1.19,1.81-1.19c.46,0,1.22-1.33,1.27-2.22,0-.5.22-4.91.43-4.32s.64.37.67-.43c.06-1.53.38,1.34.83,1.34s-.46-1,.42-.66c.39.15.47.09.33-.27s-.09-.46,0-.44c1.14.17-.13-.73.39-1.46s-.18.48.21.63.71,1.47.4,1.28-.46,1.08.24,1.08-.18-.34.14-1.18c.18-.47.22-.45.4.18.4,1.45,0-1.94.52-1.14.36.57-.27,1.13.38.61s.33.34.73-.28c.15-.25.26.48.28,1.91,0,1.79-.05,2.26-.32,2.1s-.22,0,0,.27.44.46.85,0,.37-.49.07-.68-.29-.27.07-.4,1.37,1.85,1.57,2.27c.68,1.45,1.06,1.83,1.63,1.62s-.14.42.34.42c.17,0,.23.13.14.29-.39.62,1.25-.12,1.63-1.13.09-.26.16-.16.18.27,0,.64.07.6.6-.37.83-1.56,1-4.3,1.48-3.87s1.6-2.17,1.6-3.08c0-.65.69-1.14.46-.38-.08.29-.23.91-.31,1.38-.28,1.43.14-.22.68-.56.38-.24.32,1.52-.08,2s.13.87.29.42A.58.58,0,0,1,73,4.51c.35,0,1-1.57,1-2.53,0-.47.75-1.67.46-.77-.18.56.54.7.76.14.08-.2.16-.1.19.21.09,1.19.78-1.75.85-.56,0,.8.32,1.49,0,2.15-.22.4-.18.47.16.34s.59.21.23.56-.31,5.34.07,6.37c.2.54.38.83.39.63,0-.65.79.37.7.53a13.4,13.4,0,0,0,.31,2.63c.3-.29,1.32-1.21,1.11-1.54-.09-.15,0-.28.1-.28.39,0,1-2.25,1.44-2.25s-.35-1.1.3-.7-.15-.58.27-.84c.26-.16.15,1.37-.14,1.83s.7.05.74.77c0,.27.15.06.3-.48.49-1.72.42.45,1.07-1.12.52-1.25.85-.31.85-.95S85.58,6.33,85.31,6c-.1-.12,0-.12.17,0,.39.23.2,1.52-.29,2s.51-.89-.21-.22c-.31.29-.29.44.12.89.73.81-.14.43.07,1.65.27,1.55-.07,3.49.38,2.4.92-2.23.08,3.35,1.76,1.28.77-.94,0,.05.46.05s.53-2,.92-2-.43,1,.52.14c.6-.52.64-.52.47,0-.34.91.14,1.11.68.28l.53-.8c-.35,2.77.07,1.12.38,1.9.09.21.15.15.17-.15s.09-.44.4-.15.31.61.12,1.35c-1.22,4.73-1.18,5.49.26,5.23.58-.11.64-.06.35.28-.55.67.15.46.75-.23a13.07,13.07,0,0,0,2.08-3.2c0-.41,1.27-1.55,1.49-1.33s1-.75,1-.05-.34,0-.61.43.6,0,.19.78A6.67,6.67,0,0,0,97.14,19c.2-.45.41-.89.61-1.34.48-1.06.69-1.27,1-1.06s.29.28.14.28c-.37,0-.1,2.07-.6,3.61s-.51,2.08-.11,1.46c.25-.39.19.72-.13,2.32-.14.71.57.62,1.64-.19a6.35,6.35,0,0,1,2.09-1c1.13-.25,1.31-.2,1.21.33,0,.29.62,0,.36-.43-.11-.18-.06-.23.11-.12.44.27,1.23-.11,1-.48-.12-.2,0-.19.25,0,.76.62.79-.5,1.45-.5.37,0,1.74-1.39,2.18-1.82a8.45,8.45,0,0,1-1.15,2,3.82,3.82,0,0,0-1,2.13c.23.36-1.21.94-.73,1.24s-.22.9.25.61-.42-1,.74-.81c.47.09.72,0,.72-.23s.76-.57-.91,1.62a23,23,0,0,0-1.76,2.6c-.47.92-.47,1,0,1.32s.67.29,1.51-.08c1.21-.54,2.85-.74,2.85-.36s-1,.14-.69.57,1.26-.49,1.17-1,.55.05,1.09-.66c.36-.47.38-.47.39,0,0,.27.1.48.22.46.59-.09.64.08.16.52-.78.72.19-.15.19.31s-.57.47-.54,1c0,.24.06.23.17,0,.18-.47,1.22-1,1.22-.66a1.19,1.19,0,0,1-.38.64c-.41.41-.53,1.43-.14,1.19s-.25-.74.31-.52c.71.27.44,1.09-.78,2.38-1.75,1.84-2,2.37-1.19,2.88,1,.69,1.83.84,2.08.4a4,4,0,0,1,1.22-.9c.9-.46,1-.46.59,0-.52.62-.08.37.54.42s-.31.08-.38,1.24-.66.38-.52,1-1,.85-.16.86a.44.44,0,0,0,.49-.38c0-.64.81-1.17,1.2-.78.24.24.24.41,0,.67-.66.66.22-.92-.16-.59s-.42,2.23-.06,2-1.14,1.16-.69,1.44.1,1.7.73,1.94-.06.59,1.46,1.67c.81.58,1.12.67,1.43.42.82-.69.31.87,1.47-.36,1.34-1.43,1.5-.38.42.47s-.4.93-1.19,1.53.37.11.11.79c-.17.45.55.83,1,.53.18-.11.16,0,0,.27-.39.47-.22,1.61.24,1.61s.88,1.11.51,1.5-.47.25-1-.35c-1-1,.12.26-.19.26s.48.64.39,1.18c-.37,2.21,2.07,3.19,2.44,5.08.14.73.89,1.44.56.78s.94.92.89,1.12a3.73,3.73,0,0,0,.45,1c.57,1.09.62,1.65,0,.65s-.55-.1,0,1.22c1.27,3.05-.85-.66-1.16-.66s1.58,3.2,2.1,3.66a2.09,2.09,0,0,1,.22,2.21c-.19.31.18.46.81.34.16,0,.14.09,0,.27s-.18.69.23,1.78a38.75,38.75,0,0,1,1.34,4.13c0,.08-.37-.28-.81-.79-.77-.91-.79-.92-.71-.22.1,1,1.36,4.25,1.14,4.83-.09.24,0,.36.08.28.32-.2.58,1.52.75,2.06.33,1-.48.32-.29,0s-.51-.57-.27.51c.15.71.12.73-.24.28-.56-.68-.7-.61-.57.28s.09.73-.45-.21c-.68-1.18-.71-1.08-.2.73s.54,6.22,0,6.42c-.24.09-.4.55-.4,1.11,0,1.4-.31,2.73-.6,2.56s-.29.36-.41,1.71c-.27,3.12-.42,3.8-.86,3.8s-1.37,5.34-1.76,5.34c-.17,0-.31.23-.31.5,0,.74-.72,2.63-.92,2.43s-.46,2.65-.85,2.89.22-.35-.19-.61-.14.7-.6.7.08-.88-.28-1.44c-.5-.78-.07.93-.56-.1s.22,1-.25,1-.11,1.8-.75-.42c-.07.34-.39,1.54,0,1.46s.25,3.18-.14,3.59,0-3,0-3.36c-.18,1.06-.78,4.36,0,4.36.39,0-.24,2.18-.68.41-.21-.82-.75-.68-.59.16.07.35,0,.56-.3.56-.73,0,.22-1.65-.34-1.31a17,17,0,0,0-2.39,6.34c0,.66-.08,1.1-.17,1-.4-.55-.86-.36-.64.26.34,1-.06,2.32-.59,2-.19-.11-.23.08-.11.57.39,1.55-.87-.26-1.25,1.45-.11.46-.21.68-.23.49Z"/><path d="M58.5,128l.32-3.58,4.1-.42c2.21-.1,2.63-.63,2.63-1.58V99.17c0-10.21-4.21-13.26-9.68-13.26-4.31,0-8.84,2.74-11.78,5.37.1.74.1,5.47.1,6.21v24.93c0,.85.32,1.37,3.05,1.58l4.42.42L52,128H29.57l.31-3.58L34,124c2.21-.1,2.64-.63,2.64-1.58V99.17c0-10.21-4.21-13.26-9.68-13.26-4.32,0-8.84,2.74-11.68,5.16v31.46c0,.84.42,1.37,2.84,1.47l5,.42.31,3.58H.53l.31-3.58L5.05,124c1.89-.1,2.63-.52,2.63-1.58V92.86c0-5-.63-5.68-3.47-6.42L0,85.81.1,83,15.26,79.5v7.57h.31c5.16-4.42,10.63-7.57,16.1-7.57a12.59,12.59,0,0,1,8.52,3.15,12.68,12.68,0,0,1,3.05,5.16h.42C48.93,83,54.82,79.5,60.39,79.5a12.39,12.39,0,0,1,8.84,3.36c2.63,2.63,3.9,6.53,3.9,11.47v28.09c0,.85.31,1.37,3.05,1.58l4.1.42L80.6,128Z"/></g></svg>