<svg width="1992" height="452" viewBox="0 0 1992 452" fill="none" xmlns="http://www.w3.org/2000/svg">
<path d="M193.431 13.7516H328.864L520.135 470.305H376.99L256.057 167.158L176.155 366.098H271.174L309.119 470.305H0L193.431 13.7516ZM679.631 108.485C693.513 108.485 708.63 109.707 723.747 113.374V0.305569H843.446V450.136C815.989 462.359 756.756 477.333 697.524 477.333C590.165 477.333 497.923 416.826 497.923 296.118C497.923 175.409 586.772 108.79 679.631 108.79V108.485ZM694.747 379.544C705.854 379.544 714.8 377.405 723.747 374.655V209.024C714.8 205.663 705.853 204.135 694.13 204.135C654.951 204.135 618.547 232.86 618.547 293.368C618.547 353.875 655.568 379.239 694.747 379.239V379.544ZM1056.62 108.485C1156.27 108.485 1241.11 175.104 1241.11 292.451C1241.11 409.798 1156.58 476.417 1056.62 476.417C956.666 476.417 871.519 409.798 871.519 292.451C871.519 175.104 955.432 108.485 1056.62 108.485ZM1056.62 377.711C1090.86 377.711 1122.64 350.513 1122.64 292.451C1122.64 234.388 1090.86 207.191 1056.62 207.191C1022.38 207.191 991.218 234.388 991.218 292.451C991.218 350.513 1020.83 377.711 1056.62 377.711ZM1269.8 0.305569H1390.11V113.374C1404.61 110.624 1419.73 108.485 1434.84 108.485C1528.32 108.485 1615.01 168.992 1615.01 287.561C1615.01 412.854 1522.77 476.417 1413.56 476.417C1366.67 476.417 1306.82 466.943 1269.8 449.83V0V0.305569ZM1416.33 378.933C1457.67 378.933 1495.31 349.596 1495.31 289.089C1495.31 232.555 1458.29 205.968 1418.19 205.968C1407.08 205.968 1398.13 207.191 1390.11 210.858V374.349C1396.9 377.099 1405.85 379.239 1416.33 379.239V378.933ZM1819.24 108.485C1909.32 108.485 1992 165.63 1992 280.838C1992 296.423 1991.38 311.397 1989.22 326.371H1764.94C1777.28 366.709 1813.07 385.656 1857.8 385.656C1894.2 385.656 1927.83 376.794 1965.78 360.598V451.358C1930.61 469.082 1888.65 476.417 1845.46 476.417C1731.32 476.417 1642.47 408.27 1642.47 292.451C1642.47 176.632 1722.99 108.485 1819.24 108.485ZM1879.71 252.113C1873.54 213.303 1847.31 197.717 1820.47 197.717C1793.63 197.717 1771.73 214.219 1762.78 252.113H1879.71Z" fill="white"/>
</svg>
