<svg width="96" height="96" viewBox="0 0 96 96" fill="none" xmlns="http://www.w3.org/2000/svg">
<path fill-rule="evenodd" clip-rule="evenodd" d="M33.4545 16C29.3484 16 26 19.3125 26 23.4231V59.5769C26 63.6875 29.3484 67 33.4545 67H33.5114H33.5682H33.625H33.6818H33.7386H33.7955H33.8523H33.9091H33.9659H34.0227H34.0795H34.1364H34.1932H34.25H34.3068H34.3636H34.4205H34.4773H34.5341H34.5909H34.6477H34.7045H34.7614H34.8182H34.875H34.9318H34.9886H35.0455H35.1023H35.1591H35.2159H35.2727H35.3295H35.3864H35.4432H35.5H35.5568H35.6136H35.6705H35.7273H35.7841H35.8409H35.8977H35.9545H36.0114H36.0682H36.125H36.1818H36.2386H36.2955H36.3523H36.4091H36.4659H36.5227H36.5795H36.6364H36.6932H36.75H36.8068H36.8636H36.9205H36.9773H37.0341H37.0909H37.1477H37.2045H37.2614H37.3182H37.375H37.4318H37.4886H37.5455H37.6023H37.6591H37.7159H37.7727H37.8295H37.8864H37.9432H38H38.0568H38.1136H38.1705H38.2273H38.2841H38.3409H38.3977H38.4545H38.5114H38.5682H38.625H38.6818H38.7386H38.7955H38.8523H38.9091H38.9659H39.0227H39.0795H39.1364H39.1932H39.25H39.3068H39.3636H39.4205H39.4773H39.5341H39.5909H39.6477H39.7045H39.7614H39.8182H39.875H39.9318H39.9886H40.0455H40.1023H40.1591H40.2159H40.2727H40.3295H40.3864H40.4432H40.5H40.5568H40.6136H40.6705H40.7273H40.7841H40.8409H40.8977H40.9545H41.0114H41.0682H41.125H41.1818H41.2386H41.2955H41.3523H41.4091H41.4659H41.5227H41.5795H41.6364H41.6932H41.75H41.8068H41.8636H41.9205H41.9773H42.0341H42.0909H42.1477H42.2045H42.2614H42.3182H42.375H42.4318H42.4886H42.5455H42.6023H42.6591H42.7159H42.7727H42.8295H42.8864H42.9432H43H43.0568H43.1136H43.1705H43.2273H43.2841H43.3409H43.3977H43.4545H43.5114H43.5682H43.625H43.6818H43.7386H43.7955H43.8523H43.9091H43.9659H44.0227H44.0795H44.1364H44.1932H44.25H44.3068H44.3636H44.4205H44.4773H44.5341H44.5909H44.6477H44.7045H44.7614H44.8182H44.875H44.9318H44.9886H45.0455H45.1023H45.1591H45.2159H45.2727H45.3295H45.3864H45.4432H45.5H45.5568H45.6136H45.6705H45.7273H45.7841H45.8409H45.8977H45.9545H46.0114H46.0682H46.125H46.1818H46.2386H46.2955H46.3523H46.4091H46.4659H46.5227H46.5795H46.6364H46.6932H46.75H46.8068H46.8636H46.9205H46.9773H47.0341H47.0909H47.1477H47.2045H47.2614H47.3182H47.375H47.4318H47.4886H47.5455H47.6023H47.6591H47.7159H47.7727H47.8295H47.8864H47.9432H48H48.0568H48.1136H48.1705H48.2273H48.2841H48.3409H48.3977H48.4545H48.5114H48.5682H48.625H48.6818H48.7386H48.7955H48.8523H48.9091H48.9659H49.0227H49.0795H49.1364H49.1932H49.25H49.3068H49.3636H49.4205H49.4773H49.5341H49.5909H49.6477H49.7045H49.7614H49.8182H49.875H49.9318H49.9886H50.0455H50.1023H50.1591H50.2159H50.2727H50.3295H50.3864H50.4432H50.5H50.5568H50.6136H50.6705H50.7273H50.7841H50.8409H50.8977H50.9545H51.0114H51.0682H51.125H51.1818H51.2386H51.2955H51.3523H51.4091H51.4659H51.5227H51.5795H51.6364H51.6932H51.75H51.8068H51.8636H51.9205H51.9773H52.0341H52.0909H52.1477H52.2045H52.2614H52.3182H52.375H52.4318H52.4886H52.5455H52.6023H52.6591H52.7159H52.7727H52.8295H52.8864H52.9432H53H53.0568H53.1136H53.1705H53.2273H53.2841H53.3409H53.3977H53.4545H53.5114H53.5682H53.625H53.6818H53.7386H53.7955H53.8523H53.9091H53.9659H54.0227H54.0795H54.1364H54.1932H54.25H54.3068H54.3636H54.4205H54.4773H54.5341H54.5909H54.6477H54.7045H54.7614H54.8182H54.875H54.9318H54.9886H55.0455H55.1023H55.1591H55.2159H55.2727H55.3295H55.3864H55.4432H55.5H55.5568H55.6136H55.6705H55.7273H55.7841H55.8409H55.8977H55.9545H56.0114H56.0682H56.125H56.1818H56.2386H56.2955H56.3523H56.4091H56.4659H56.5227H56.5795H56.6364H56.6932H56.75H56.8068H56.8636H56.9205H56.9773H57.0341H57.0909H57.1477H57.2045H57.2614H57.3182H57.375H57.4318H57.4886H57.5455H57.6023H57.6591H57.7159H57.7727H57.8295H57.8864H57.9432H58H58.0568H58.1136H58.1705H58.2273H58.2841H58.3409H58.3977H58.4545H58.5114H58.5682H58.625H58.6818H58.7386H58.7955H58.8523H58.9091H58.9659H59.0227H59.0795H59.1364H59.1932H59.25H59.3068H59.3636H59.4205H59.4773H59.5341H59.5909H59.6477H59.7045H59.7614H59.8182H59.875H59.9318H59.9886H60.0455H60.1023H60.1591H60.2159H60.2727H60.3295H60.3864H60.4432H60.5H60.5568H60.6136H60.6705H60.7273H60.7841H60.8409H60.8977H60.9545H61.0114H61.0682H61.125H61.1818H61.2386H61.2955H61.3523H61.4091H61.4659H61.5227H61.5795H61.6364H61.6932H61.75H61.8068H61.8636H61.9205H61.9773H62.0341H62.0909H62.1477H62.2045H62.2614H62.3182H62.375H62.4318H62.4886H62.5455C66.6516 67 70 63.6875 70 59.5769V38.3232C70 36.3508 69.2118 34.4614 67.8125 33.0702L52.8259 18.1701C51.427 16.7793 49.5322 16 47.5588 16H33.4545ZM30 23.4231C30 21.5435 31.5357 20 33.4545 20H47.5588C48.4788 20 49.3587 20.3634 50.0057 21.0067L64.9923 35.9068C65.6389 36.5497 66 37.4191 66 38.3232V59.5769C66 61.4565 64.4643 63 62.5455 63H62.4886H62.4318H62.375H62.3182H62.2614H62.2045H62.1477H62.0909H62.0341H61.9773H61.9205H61.8636H61.8068H61.75H61.6932H61.6364H61.5795H61.5227H61.4659H61.4091H61.3523H61.2955H61.2386H61.1818H61.125H61.0682H61.0114H60.9545H60.8977H60.8409H60.7841H60.7273H60.6705H60.6136H60.5568H60.5H60.4432H60.3864H60.3295H60.2727H60.2159H60.1591H60.1023H60.0455H59.9886H59.9318H59.875H59.8182H59.7614H59.7045H59.6477H59.5909H59.5341H59.4773H59.4205H59.3636H59.3068H59.25H59.1932H59.1364H59.0795H59.0227H58.9659H58.9091H58.8523H58.7955H58.7386H58.6818H58.625H58.5682H58.5114H58.4545H58.3977H58.3409H58.2841H58.2273H58.1705H58.1136H58.0568H58H57.9432H57.8864H57.8295H57.7727H57.7159H57.6591H57.6023H57.5455H57.4886H57.4318H57.375H57.3182H57.2614H57.2045H57.1477H57.0909H57.0341H56.9773H56.9205H56.8636H56.8068H56.75H56.6932H56.6364H56.5795H56.5227H56.4659H56.4091H56.3523H56.2955H56.2386H56.1818H56.125H56.0682H56.0114H55.9545H55.8977H55.8409H55.7841H55.7273H55.6705H55.6136H55.5568H55.5H55.4432H55.3864H55.3295H55.2727H55.2159H55.1591H55.1023H55.0455H54.9886H54.9318H54.875H54.8182H54.7614H54.7045H54.6477H54.5909H54.5341H54.4773H54.4205H54.3636H54.3068H54.25H54.1932H54.1364H54.0795H54.0227H53.9659H53.9091H53.8523H53.7955H53.7386H53.6818H53.625H53.5682H53.5114H53.4545H53.3977H53.3409H53.2841H53.2273H53.1705H53.1136H53.0568H53H52.9432H52.8864H52.8295H52.7727H52.7159H52.6591H52.6023H52.5455H52.4886H52.4318H52.375H52.3182H52.2614H52.2045H52.1477H52.0909H52.0341H51.9773H51.9205H51.8636H51.8068H51.75H51.6932H51.6364H51.5795H51.5227H51.4659H51.4091H51.3523H51.2955H51.2386H51.1818H51.125H51.0682H51.0114H50.9545H50.8977H50.8409H50.7841H50.7273H50.6705H50.6136H50.5568H50.5H50.4432H50.3864H50.3295H50.2727H50.2159H50.1591H50.1023H50.0455H49.9886H49.9318H49.875H49.8182H49.7614H49.7045H49.6477H49.5909H49.5341H49.4773H49.4205H49.3636H49.3068H49.25H49.1932H49.1364H49.0795H49.0227H48.9659H48.9091H48.8523H48.7955H48.7386H48.6818H48.625H48.5682H48.5114H48.4545H48.3977H48.3409H48.2841H48.2273H48.1705H48.1136H48.0568H48H47.9432H47.8864H47.8295H47.7727H47.7159H47.6591H47.6023H47.5455H47.4886H47.4318H47.375H47.3182H47.2614H47.2045H47.1477H47.0909H47.0341H46.9773H46.9205H46.8636H46.8068H46.75H46.6932H46.6364H46.5795H46.5227H46.4659H46.4091H46.3523H46.2955H46.2386H46.1818H46.125H46.0682H46.0114H45.9545H45.8977H45.8409H45.7841H45.7273H45.6705H45.6136H45.5568H45.5H45.4432H45.3864H45.3295H45.2727H45.2159H45.1591H45.1023H45.0455H44.9886H44.9318H44.875H44.8182H44.7614H44.7045H44.6477H44.5909H44.5341H44.4773H44.4205H44.3636H44.3068H44.25H44.1932H44.1364H44.0795H44.0227H43.9659H43.9091H43.8523H43.7955H43.7386H43.6818H43.625H43.5682H43.5114H43.4545H43.3977H43.3409H43.2841H43.2273H43.1705H43.1136H43.0568H43H42.9432H42.8864H42.8295H42.7727H42.7159H42.6591H42.6023H42.5455H42.4886H42.4318H42.375H42.3182H42.2614H42.2045H42.1477H42.0909H42.0341H41.9773H41.9205H41.8636H41.8068H41.75H41.6932H41.6364H41.5795H41.5227H41.4659H41.4091H41.3523H41.2955H41.2386H41.1818H41.125H41.0682H41.0114H40.9545H40.8977H40.8409H40.7841H40.7273H40.6705H40.6136H40.5568H40.5H40.4432H40.3864H40.3295H40.2727H40.2159H40.1591H40.1023H40.0455H39.9886H39.9318H39.875H39.8182H39.7614H39.7045H39.6477H39.5909H39.5341H39.4773H39.4205H39.3636H39.3068H39.25H39.1932H39.1364H39.0795H39.0227H38.9659H38.9091H38.8523H38.7955H38.7386H38.6818H38.625H38.5682H38.5114H38.4545H38.3977H38.3409H38.2841H38.2273H38.1705H38.1136H38.0568H38H37.9432H37.8864H37.8295H37.7727H37.7159H37.6591H37.6023H37.5455H37.4886H37.4318H37.375H37.3182H37.2614H37.2045H37.1477H37.0909H37.0341H36.9773H36.9205H36.8636H36.8068H36.75H36.6932H36.6364H36.5795H36.5227H36.4659H36.4091H36.3523H36.2955H36.2386H36.1818H36.125H36.0682H36.0114H35.9545H35.8977H35.8409H35.7841H35.7273H35.6705H35.6136H35.5568H35.5H35.4432H35.3864H35.3295H35.2727H35.2159H35.1591H35.1023H35.0455H34.9886H34.9318H34.875H34.8182H34.7614H34.7045H34.6477H34.5909H34.5341H34.4773H34.4205H34.3636H34.3068H34.25H34.1932H34.1364H34.0795H34.0227H33.9659H33.9091H33.8523H33.7955H33.7386H33.6818H33.625H33.5682H33.5114H33.4545C31.5357 63 30 61.4565 30 59.5769V23.4231ZM39.7659 45.4516C38.9107 44.7525 37.6507 44.879 36.9516 45.7341C36.2525 46.5893 36.379 47.8493 37.2341 48.5484L45.453 55.2677C45.8189 55.7136 46.3738 55.9986 46.9956 56L47.0145 55.9999L47.0312 55.9998C47.495 56.0069 47.9607 55.8533 48.3392 55.5393L56.777 48.5393C57.6271 47.834 57.7445 46.5731 57.0393 45.723C56.334 44.8729 55.0731 44.7555 54.223 45.4607L49.0092 49.7861L49.0437 34.0044C49.0461 32.8998 48.1526 32.0024 47.0481 32C45.9435 31.9976 45.0461 32.8911 45.0437 33.9956L45.0093 49.7383L39.7659 45.4516ZM27 76C25.8954 76 25 76.8954 25 78C25 79.1046 25.8954 80 27 80H34.5C35.6046 80 36.5 79.1046 36.5 78C36.5 76.8954 35.6046 76 34.5 76H27ZM12 66.5C10.8954 66.5 10 65.6046 10 64.5V57C10 55.8954 10.8954 55 12 55C13.1046 55 14 55.8954 14 57V64.5C14 65.6046 13.1046 66.5 12 66.5ZM82 65C82 66.1046 82.8954 67 84 67C85.1046 67 86 66.1046 86 65V57.5C86 56.3954 85.1046 55.5 84 55.5C82.8954 55.5 82 56.3954 82 57.5V65ZM21 43C21 41.8954 20.1046 41 19 41H15.5C12.4624 41 10 43.4624 10 46.5V50C10 51.1046 10.8954 52 12 52C13.1046 52 14 51.1046 14 50V46.5C14 45.6716 14.6716 45 15.5 45H19C20.1046 45 21 44.1046 21 43ZM77 41C75.8954 41 75 41.8954 75 43C75 44.1046 75.8954 45 77 45H80.5C81.3284 45 82 45.6716 82 46.5V50C82 51.1046 82.8954 52 84 52C85.1046 52 86 51.1046 86 50V46.5C86 43.4624 83.5376 41 80.5 41H77ZM12 69C10.8954 69 10 69.8954 10 71V74.5C10 77.5376 12.4624 80 15.5 80H19C20.1046 80 21 79.1046 21 78C21 76.8954 20.1046 76 19 76H15.5C14.6716 76 14 75.3284 14 74.5V71C14 69.8954 13.1046 69 12 69ZM86 71C86 69.8954 85.1046 69 84 69C82.8954 69 82 69.8954 82 71V74.5C82 75.3284 81.3284 76 80.5 76H77C75.8954 76 75 76.8954 75 78C75 79.1046 75.8954 80 77 80H80.5C83.5376 80 86 77.5376 86 74.5V71ZM42 78C42 76.8954 42.8954 76 44 76H51.5C52.6046 76 53.5 76.8954 53.5 78C53.5 79.1046 52.6046 80 51.5 80H44C42.8954 80 42 79.1046 42 78ZM61 76C59.8954 76 59 76.8954 59 78C59 79.1046 59.8954 80 61 80H68.5C69.6046 80 70.5 79.1046 70.5 78C70.5 76.8954 69.6046 76 68.5 76H61Z" fill="#8F8F8F"/>
</svg>
