<svg width="20" height="20" viewBox="0 0 20 20" fill="none" xmlns="http://www.w3.org/2000/svg">
  <path
    d="M9.53031 4.46979L6.53031 1.46979C6.23734 1.17682 5.76273 1.17682 5.46976 1.46979L2.46976 4.46979C2.17679 4.76276 2.17679 5.23737 2.46976 5.53034C2.76273 5.82331 3.23734 5.82331 3.53031 5.53034L5.25004 3.81061V16.0001C5.25004 16.4141 5.58598 16.7501 6.00004 16.7501C6.4141 16.7501 6.75004 16.4141 6.75004 16.0001V3.81061L8.46977 5.53034C8.61625 5.67682 8.80815 5.75007 9.00004 5.75007C9.19193 5.75007 9.38383 5.67683 9.53031 5.53034C9.82328 5.23737 9.82328 4.76276 9.53031 4.46979Z"
    fill="#C6C6C6" />
  <path
    d="M17.5303 14.4698C17.2373 14.1768 16.7627 14.1768 16.4698 14.4698L14.75 16.1895V4.00006C14.75 3.586 14.4141 3.25006 14 3.25006C13.586 3.25006 13.25 3.586 13.25 4.00006V16.1895L11.5303 14.4698C11.2373 14.1768 10.7627 14.1768 10.4697 14.4698C10.1768 14.7628 10.1768 15.2374 10.4697 15.5303L13.4697 18.5303C13.6162 18.6768 13.8081 18.7501 14 18.7501C14.1919 18.7501 14.3838 18.6768 14.5303 18.5303L17.5303 15.5303C17.8233 15.2374 17.8233 14.7628 17.5303 14.4698Z"
    fill="#3b63fb" />
</svg>